<?xml version="1.0" encoding="utf-8"?>
<!-- Generator: Adobe Illustrator 28.1.0, SVG Export Plug-In . SVG Version: 6.00 Build 0)  -->
<svg version="1.1" id="Layer_1" xmlns="http://www.w3.org/2000/svg" xmlns:xlink="http://www.w3.org/1999/xlink" x="0px" y="0px"
	 viewBox="0 0 1105.6 676.29" style="enable-background:new 0 0 1105.6 676.29;" xml:space="preserve">
<style type="text/css">
	.st0{fill:#FFFFFF;}
	.st1{fill:#883F44;}
	.st2{fill:#EBC99F;}
	.st3{fill:#C68C7A;}
</style>
<g>
	<path class="st0" d="M1172.8,893.97c-400,0-800,0-1200,0c0-315.36,0-630.72,0-946.08c400,0,800,0,1200,0
		C1172.8,263.25,1172.8,578.61,1172.8,893.97z M969.96,495.73c3.92-0.69,7.33-1.46,10.79-1.87c8.28-1,16.24-3.3,24.08-5.93
		c5.41-1.82,10.68-4.2,15.76-6.82c5.38-2.77,10.6-5.92,15.65-9.27c10.55-6.99,20.4-14.87,28.94-24.28c5.27-5.8,9.99-11.94,14-18.77
		c3.74-6.37,6.58-13.03,9.58-19.72c3.5-7.82,5.51-16.03,7.3-24.22c2.15-9.79,3.54-19.78,3.67-29.89c0.17-12.76,0.9-25.53-0.95-38.24
		c-0.39-2.68-0.31-5.45-0.95-8.06c-2.44-9.9-5.18-19.73-9.4-29.06c-3.49-7.72-7.53-15.15-12.46-22.04
		c-6.41-8.97-13.33-17.51-21.21-25.29c-5.58-5.5-11.24-10.89-17.38-15.74c-4.63-3.66-9.49-7.03-14.26-10.52
		c-7.89-5.76-16.52-10.27-25.22-14.61c-5.41-2.7-11.12-4.79-16.61-7.34c-5.37-2.5-11.16-3.73-16.64-5.91
		c-2.81-1.12-5.68-2.15-8.62-2.83c-9-2.07-17.78-5.1-26.97-6.32c-5.21-0.69-10.23-2.53-15.57-2.48c-1.21,0.01-2.43-0.55-3.83-0.9
		c-0.9-4.03-3.35-7.31-4.15-11.28c-0.31-1.53-1.14-2.98-1.89-4.38c-1.66-3.09-3.59-6.05-5.11-9.21c-3.06-6.36-6.91-12.23-10.9-18
		c-5.36-7.75-11.29-15.09-17.75-21.96c-2.95-3.14-5.92-6.28-9.07-9.2c-3.62-3.36-7.32-6.66-11.24-9.66
		c-5.57-4.26-11.28-8.35-17.11-12.26c-3.69-2.48-7.82-4.3-11.53-6.76c-5.37-3.56-11.36-5.78-17.08-8.58
		c-7.47-3.66-15.46-5.95-23.24-8.8c-9.29-3.41-18.96-5.45-28.61-7.49c-3.12-0.66-6.23-1.38-9.37-1.86
		c-3.94-0.6-7.94-0.82-11.87-1.47c-8.52-1.42-17.08-2.26-25.72-2.39c-0.96-0.02-1.91-0.07-2.87-0.13
		c-4.77-0.28-9.55-0.69-14.32-0.82c-9.25-0.26-18.49,0.15-27.7,1.1c-6.66,0.69-13.31,1.33-19.92,2.5c-5.02,0.89-10.05,1.73-15,2.9
		c-8.21,1.94-16.25,4.53-24.24,7.25c-9.82,3.34-19.31,7.43-28.7,11.82c-5.79,2.71-11.3,5.87-16.69,9.32
		c-5.94,3.8-11.5,8.06-16.68,12.82c-8.24,7.58-15.92,15.69-22.58,24.73c-0.51,0.69-1.37,1.11-1.88,1.51
		c-4.49-3.91-8.65-7.63-12.91-11.22c-2.07-1.74-4.32-3.28-6.54-4.84c-7.22-5.08-14.93-9.3-23.25-12.19
		c-5.54-1.93-11.12-3.86-16.88-5.13c-1.87-0.41-3.75-0.75-5.64-1.1c-6.9-1.28-13.75-2.99-20.71-3.69
		c-8.41-0.85-16.8-2.13-25.28-2.13c-1.75,0-3.5-0.39-5.24-0.37c-3.51,0.04-7.03,0.14-10.53,0.41c-7.95,0.6-15.92,1.13-23.84,2.05
		c-3.76,0.44-7.39,2.12-11.15,2.5c-6.6,0.68-12.51,3.72-18.94,4.92c-5.98,1.11-11.23,4.51-17.19,5.73
		c-0.76,0.16-1.45,0.65-2.18,0.97c-3.65,1.6-7.3,3.21-10.96,4.78c-6.15,2.64-12.5,4.88-18.43,7.95
		c-10.63,5.49-21.07,11.38-30.96,18.15c-12.8,8.77-24.81,18.56-36.26,29.02c-4.01,3.66-7.91,7.46-11.67,11.38
		c-6.41,6.69-12.97,13.27-18.91,20.35c-8.42,10.04-16.13,20.66-22.88,31.93c-1.05,1.75-2.29,3.03-4.22,3.63
		c-5.18,1.62-9.61,5-14.94,6.29c-0.3,0.07-0.59,0.24-0.88,0.38c-7.27,3.64-14.47,7.45-21.84,10.87
		c-8.86,4.11-16.99,9.49-25.32,14.48c-7.39,4.42-14.32,9.6-21.42,14.5c-9.76,6.72-18.86,14.27-27.61,22.23
		c-6.49,5.91-13.09,11.74-18.61,18.64c-1.6,2-3.17,4.01-4.78,6c-5.97,7.36-10.88,15.41-14.36,24.18
		c-2.63,6.64-5.05,13.36-6.01,20.59c-0.63,4.76-1.32,9.48-1.25,14.28c0.06,4.31,0.26,8.62,0.42,12.93
		c0.22,6.2,0.25,12.39,1.64,18.53c1.74,7.67,4.35,15,7.82,22.02c3.33,6.74,7.24,13.17,12.27,18.8c3.61,4.04,7.26,8.1,11.28,11.71
		c5.22,4.68,10.74,9.03,16.72,12.74c2.16,1.34,4.32,2.7,6.54,3.95c5.4,3.04,10.73,6.23,16.28,8.98c5.13,2.54,10.22,5.22,15.74,6.9
		c0.91,0.28,1.74,0.82,2.64,1.13c2.05,0.69,3.11,1.93,3.11,4.23c0,2.39,0.26,4.79,0.58,7.16c0.76,5.71,1.79,11.35,4.01,16.71
		c0.73,1.75,1.24,3.6,1.97,5.35c2.02,4.85,3.56,9.89,6.31,14.46c3.39,5.63,7.31,10.78,11.7,15.69c6.23,6.97,13.27,12.96,21.05,17.98
		c8.03,5.17,16.4,9.73,25.32,13.39c6.96,2.85,14.11,5.04,21.23,7.27c4.05,1.26,8.17,2.66,12.51,2.98c2.05,0.16,4.07,0.78,6.11,1.13
		c9.73,1.66,19.4,3.68,29.31,4.02c0.48,0.02,0.95,0.1,1.43,0.13c8.91,0.56,17.82,1.41,26.74,1.59c8.44,0.17,16.89,0.35,25.36-0.43
		c7.61-0.7,15.3-0.48,22.93-1.31c4.28-0.46,8.6-0.58,12.87-1.12c7.1-0.9,14.21-1.83,21.26-3.11c6-1.08,4.04-1.11,8.98,2.42
		c0.39,0.28,0.76,0.58,1.13,0.88c8.43,6.88,17.29,13.11,26.83,18.37c2.79,1.54,5.5,3.2,8.31,4.7c4.64,2.47,9.22,5.11,14.02,7.22
		c7.28,3.2,14.66,6.21,22.14,8.91c6.88,2.48,13.93,4.55,20.96,6.57c7.5,2.16,15.16,3.65,22.81,5.17c6.89,1.37,13.81,2.57,20.71,3.9
		c6.25,1.21,12.46,2.66,18.74,3.73c6.76,1.14,13.58,1.96,20.37,2.91c13.17,1.84,26.43,2.08,39.7,1.82
		c6.37-0.13,12.75-0.4,19.11-0.84c3.8-0.27,7.57-0.98,11.35-1.54c3-0.44,5.97-1.2,8.98-1.4c8.64-0.59,16.91-3.05,25.33-4.7
		c3.43-0.67,6.72-2.13,10.16-2.72c3.65-0.62,7.14-1.59,10.54-3c0.88-0.36,1.8-0.72,2.73-0.85c6.54-0.97,12.41-4.02,18.59-6.08
		c5.87-1.96,11.53-4.63,17.16-7.24c7.39-3.42,14.59-7.22,21.63-11.33c13.97-8.16,27.18-17.39,39.37-28.01
		c2.89-2.52,5.5-4.27,9.34-2.58c0.42,0.18,0.94,0.13,1.42,0.17c7.46,0.63,14.92,1.37,22.39,1.85c7.64,0.49,15.3,0.8,22.96,1.04
		c4.79,0.15,9.59,0.01,14.39,0.03c8,0.04,15.94-0.84,23.85-1.87c2.37-0.31,4.75-0.59,7.09-1.06c4.52-0.9,9.02-1.91,13.53-2.9
		c1.24-0.27,2.45-0.66,3.68-0.98c2.31-0.61,4.67-1.08,6.91-1.87c4.36-1.52,8.6-3.4,12.79-5.28c5.95-2.67,11.69-5.9,17.22-9.36
		c4.86-3.04,9.33-6.72,13.93-10.16c5.53-4.14,10.06-9.35,14.93-14.19c8.01-7.94,14.15-17.29,20.1-26.75
		C965,505.17,967.34,500.45,969.96,495.73z"/>
	<path class="st1" d="M969.96,495.73c-2.62,4.72-4.96,9.44-7.76,13.88c-5.96,9.46-12.1,18.81-20.1,26.75
		c-4.88,4.84-9.4,10.05-14.93,14.19c-4.6,3.44-9.07,7.12-13.93,10.16c-5.53,3.46-11.27,6.69-17.22,9.36
		c-4.19,1.88-8.43,3.76-12.79,5.28c-2.25,0.78-4.61,1.25-6.91,1.87c-1.23,0.33-2.44,0.71-3.68,0.98c-4.5,0.99-9.01,2-13.53,2.9
		c-2.34,0.47-4.72,0.75-7.09,1.06c-7.92,1.03-15.85,1.91-23.85,1.87c-4.8-0.02-9.6,0.12-14.39-0.03
		c-7.66-0.24-15.31-0.55-22.96-1.04c-7.47-0.48-14.93-1.22-22.39-1.85c-0.48-0.04-1,0.01-1.42-0.17c-3.84-1.68-6.45,0.07-9.34,2.58
		c-12.2,10.61-25.4,19.85-39.37,28.01c-7.04,4.11-14.24,7.91-21.63,11.33c-5.64,2.61-11.29,5.28-17.16,7.24
		c-6.18,2.06-12.05,5.11-18.59,6.08c-0.93,0.14-1.85,0.49-2.73,0.85c-3.4,1.41-6.89,2.37-10.54,3c-3.44,0.59-6.73,2.05-10.16,2.72
		c-8.43,1.64-16.7,4.11-25.33,4.7c-3.01,0.2-5.98,0.96-8.98,1.4c-3.78,0.56-7.55,1.27-11.35,1.54c-6.36,0.45-12.73,0.72-19.11,0.84
		c-13.27,0.26-26.52,0.02-39.7-1.82c-6.79-0.95-13.61-1.77-20.37-2.91c-6.28-1.06-12.49-2.52-18.74-3.73
		c-6.9-1.34-13.82-2.53-20.71-3.9c-7.65-1.52-15.31-3.01-22.81-5.17c-7.04-2.03-14.08-4.1-20.96-6.57
		c-7.48-2.69-14.86-5.71-22.14-8.91c-4.81-2.11-9.38-4.75-14.02-7.22c-2.81-1.5-5.52-3.16-8.31-4.7
		c-9.54-5.26-18.41-11.49-26.83-18.37c-0.37-0.3-0.74-0.61-1.13-0.88c-4.94-3.53-2.98-3.5-8.98-2.42
		c-7.04,1.27-14.15,2.2-21.26,3.11c-4.27,0.54-8.59,0.65-12.87,1.12c-7.63,0.83-15.33,0.61-22.93,1.31
		c-8.48,0.78-16.92,0.59-25.36,0.43c-8.92-0.18-17.83-1.03-26.74-1.59c-0.48-0.03-0.95-0.11-1.43-0.13
		c-9.91-0.34-19.59-2.36-29.31-4.02c-2.04-0.35-4.06-0.97-6.11-1.13c-4.34-0.33-8.46-1.72-12.51-2.98
		c-7.13-2.22-14.27-4.41-21.23-7.27c-8.92-3.66-17.29-8.22-25.32-13.39c-7.78-5.01-14.82-11.01-21.05-17.98
		c-4.39-4.91-8.3-10.06-11.7-15.69c-2.75-4.56-4.29-9.61-6.31-14.46c-0.73-1.75-1.24-3.6-1.97-5.35
		c-2.23-5.36-3.26-11.01-4.01-16.71c-0.31-2.37-0.58-4.77-0.58-7.16c0-2.3-1.06-3.54-3.11-4.23c-0.9-0.3-1.73-0.85-2.64-1.13
		c-5.52-1.68-10.61-4.36-15.74-6.9c-5.55-2.75-10.88-5.93-16.28-8.98c-2.22-1.25-4.37-2.61-6.54-3.95
		c-5.98-3.71-11.51-8.06-16.72-12.74c-4.03-3.61-7.67-7.67-11.28-11.71c-5.03-5.63-8.94-12.06-12.27-18.8
		c-3.46-7.01-6.08-14.34-7.82-22.02c-1.39-6.14-1.42-12.32-1.64-18.53c-0.15-4.31-0.36-8.62-0.42-12.93
		c-0.07-4.8,0.62-9.52,1.25-14.28c0.96-7.23,3.38-13.96,6.01-20.59c3.48-8.78,8.38-16.83,14.36-24.18c1.61-1.99,3.18-4,4.78-6
		c5.52-6.89,12.12-12.73,18.61-18.64c8.74-7.96,17.85-15.51,27.61-22.23c7.1-4.89,14.03-10.07,21.42-14.5
		c8.33-4.99,16.46-10.37,25.32-14.48c7.37-3.42,14.57-7.24,21.84-10.87c0.28-0.14,0.57-0.31,0.88-0.38
		c5.32-1.28,9.76-4.67,14.94-6.29c1.93-0.6,3.17-1.88,4.22-3.63c6.75-11.27,14.45-21.88,22.88-31.93
		c5.94-7.09,12.5-13.67,18.91-20.35c3.76-3.92,7.66-7.71,11.67-11.38c11.45-10.46,23.45-20.25,36.26-29.02
		c9.89-6.77,20.33-12.66,30.96-18.15c5.93-3.06,12.28-5.31,18.43-7.95c3.66-1.57,7.31-3.18,10.96-4.78
		c0.73-0.32,1.42-0.81,2.18-0.97c5.97-1.22,11.21-4.62,17.19-5.73c6.43-1.2,12.34-4.24,18.94-4.92c3.76-0.39,7.39-2.06,11.15-2.5
		c7.92-0.92,15.88-1.45,23.84-2.05c3.5-0.26,7.02-0.36,10.53-0.41c1.75-0.02,3.49,0.37,5.24,0.37c8.49,0,16.88,1.28,25.28,2.13
		c6.96,0.71,13.81,2.42,20.71,3.69c1.88,0.35,3.77,0.69,5.64,1.1c5.76,1.27,11.34,3.2,16.88,5.13c8.31,2.89,16.03,7.12,23.25,12.19
		c2.22,1.56,4.47,3.1,6.54,4.84c4.27,3.59,8.43,7.31,12.91,11.22c0.51-0.4,1.38-0.83,1.88-1.51c6.66-9.04,14.34-17.15,22.58-24.73
		c5.17-4.76,10.74-9.02,16.68-12.82c5.39-3.45,10.9-6.61,16.69-9.32c9.39-4.39,18.88-8.48,28.7-11.82c8-2.72,16.03-5.31,24.24-7.25
		c4.95-1.17,9.98-2.01,15-2.9c6.62-1.17,13.27-1.81,19.92-2.5c9.21-0.95,18.45-1.35,27.7-1.1c4.78,0.13,9.55,0.54,14.32,0.82
		c0.96,0.06,1.91,0.12,2.87,0.13c8.64,0.14,17.2,0.97,25.72,2.39c3.93,0.66,7.93,0.87,11.87,1.47c3.15,0.48,6.26,1.2,9.37,1.86
		c9.66,2.04,19.32,4.08,28.61,7.49c7.78,2.85,15.77,5.14,23.24,8.8c5.72,2.8,11.72,5.02,17.08,8.58c3.71,2.46,7.83,4.28,11.53,6.76
		c5.82,3.91,11.54,8,17.11,12.26c3.92,3,7.62,6.3,11.24,9.66c3.16,2.93,6.12,6.06,9.07,9.2c6.46,6.87,12.39,14.21,17.75,21.96
		c3.99,5.77,7.84,11.64,10.9,18c1.52,3.16,3.45,6.12,5.11,9.21c0.75,1.4,1.58,2.86,1.89,4.38c0.8,3.98,3.25,7.25,4.15,11.28
		c1.4,0.35,2.62,0.91,3.83,0.9c5.34-0.05,10.36,1.79,15.57,2.48c9.19,1.22,17.97,4.26,26.97,6.32c2.94,0.67,5.81,1.71,8.62,2.83
		c5.47,2.18,11.27,3.41,16.64,5.91c5.49,2.56,11.2,4.65,16.61,7.34c8.7,4.33,17.33,8.85,25.22,14.61
		c4.77,3.48,9.63,6.86,14.26,10.52c6.14,4.85,11.8,10.24,17.38,15.74c7.88,7.77,14.8,16.32,21.21,25.29
		c4.92,6.89,8.97,14.33,12.46,22.04c4.22,9.33,6.96,19.16,9.4,29.06c0.64,2.61,0.56,5.38,0.95,8.06
		c1.86,12.71,1.12,25.48,0.95,38.24c-0.13,10.11-1.53,20.11-3.67,29.89c-1.8,8.19-3.8,16.39-7.3,24.22
		c-3,6.69-5.83,13.35-9.58,19.72c-4.01,6.82-8.73,12.96-14,18.77c-8.55,9.41-18.39,17.28-28.94,24.28
		c-5.05,3.35-10.27,6.5-15.65,9.27c-5.08,2.62-10.35,5-15.76,6.82c-7.84,2.63-15.81,4.93-24.08,5.93
		C977.29,494.27,973.88,495.03,969.96,495.73z M1081.77,400.86c0.66-1.44,1.46-2.83,1.95-4.32c4.76-14.37,6.81-29.21,7.52-44.27
		c0.42-8.98-0.4-17.88-1.86-26.73c-2.85-17.27-9.07-33.24-18.64-47.89c-10.03-15.37-22.11-28.92-36.05-40.84
		c-11.22-9.6-23.38-17.82-36.43-24.7c-15.74-8.3-32.24-14.74-49.32-19.69c-11.66-3.38-23.46-6.18-35.51-7.79
		c-2.65-0.35-5.29-0.85-8-1.3c-0.46-1.63-0.86-2.99-1.23-4.37c-4.42-16.69-11.39-32.19-21.44-46.29
		c-8.2-11.49-17.43-22.03-27.83-31.59c-7.68-7.05-15.91-13.4-24.68-18.96c-24.85-15.74-51.92-25.95-80.72-31.68
		c-12.07-2.4-24.23-4.26-36.52-5.04c-9.88-0.63-19.77-1.15-29.66-1.45c-4.78-0.14-9.57,0.4-14.36,0.53
		c-13.16,0.36-26.05,2.55-38.81,5.6c-16.2,3.88-31.88,9.35-47.07,16.14C569.9,72.16,557.9,80.01,547.35,90
		c-9.54,9.04-18.11,18.93-26,29.43c-0.94,1.25-1.62,2.79-3.46,3.43c-0.75-0.69-1.63-1.37-2.37-2.18c-2.04-2.25-3.95-4.61-6.03-6.82
		c-15.04-15.96-32.95-27.07-54.3-32.64c-16.62-4.33-33.53-6.54-50.6-7.53c-17.82-1.03-35.41,0.73-52.74,5.11
		c-20.52,5.19-40.22,12.58-59.31,21.67c-24.29,11.57-46.07,26.84-65.95,44.88c-8.16,7.41-16.11,15.05-23.59,23.18
		c-6.62,7.19-12.91,14.62-18.58,22.55c-4.74,6.63-9.19,13.46-13.63,20.29c-1.36,2.1-2.95,3.59-5.29,4.56
		c-6.2,2.57-12.33,5.31-18.44,8.06c-16.2,7.29-31.84,15.62-46.84,25.13c-12.29,7.79-24.16,16.2-35.36,25.5
		c-10.2,8.48-20.16,17.23-28.82,27.37c-8.92,10.44-16.08,21.88-20.44,34.95c-3.95,11.85-5.44,23.95-3.34,36.37
		c1.94,11.5,6.15,22.12,12.28,32.02c4.76,7.68,10.83,14.22,17.37,20.37c2.34,2.2,4.69,4.35,7.58,5.81c0.26,0.39,0.45,0.89,0.8,1.16
		c8.02,6.1,16.52,11.46,25.4,16.19c8.88,4.73,18.05,8.87,27.42,12.55c1,0.39,1.9,1.04,2.88,1.6c0,1.47,0,2.74,0,4.01
		c0.01,5.28-0.12,10.56,0.1,15.82c0.15,3.49,0.54,7.01,1.28,10.42c2.48,11.48,7.88,21.6,15.59,30.34
		c7.09,8.04,15.03,15.13,24.24,20.84c14.23,8.83,29.35,15.4,45.55,19.56c11.73,3.01,23.53,5.63,35.61,6.85
		c6.64,0.67,13.23,1.97,19.89,2.46c7.31,0.53,14.65,0.53,21.98,1c12.77,0.82,25.51-0.93,38.29-0.89c0.64,0,1.28-0.06,1.91-0.13
		c4.9-0.54,9.81-1.05,14.7-1.66c6-0.75,11.98-1.61,17.98-2.41c1.58-0.21,3.16-0.39,4.73-0.6c1.56-0.21,2.73,0.45,3.85,1.49
		c2.21,2.07,4.56,3.99,6.79,6.04c8.38,7.72,17.89,13.89,27.55,19.8c8.03,4.92,16.33,9.35,24.97,13.16
		c7.75,3.41,15.54,6.67,23.52,9.48c11.14,3.93,22.55,6.94,34.04,9.58c11.64,2.67,23.33,5.13,35.03,7.57
		c5.45,1.13,10.94,2.11,16.45,2.94c5.82,0.88,11.68,1.53,17.53,2.22c4.9,0.58,9.8,1.49,14.7,1.53c11,0.09,22,0.6,33.02-0.58
		c8.07-0.86,16.13-1.68,24.16-2.9c9.46-1.43,18.83-3.3,28.11-5.52c16.78-4.02,33.13-9.38,49-16.2c12.95-5.56,25.23-12.33,37.09-19.9
		c11.59-7.4,22.47-15.74,32.58-25.07c1.45-1.34,2.86-1.6,4.79-1.24c3.59,0.68,7.23,1.12,10.87,1.48c4.76,0.47,9.59,0.4,14.28,1.23
		c6.96,1.22,14.05,0.15,20.96,1.61c10.84-0.18,21.68,0.46,32.54-0.66c6.19-0.64,12.36-1.41,18.46-2.43
		c12.3-2.05,24.13-5.93,35.47-11.19c12.57-5.83,23.67-13.85,33.95-23.03c8.74-7.8,16.04-16.89,22.54-26.61
		c4.17-6.24,7.97-12.72,11.29-19.46c0.77-1.55,1.64-3.06,2.35-4.36c4.96-0.8,9.5-1.62,14.07-2.24c8.73-1.18,17.12-3.59,25.36-6.68
		c12.83-4.8,24.36-11.87,35.39-19.84c5.05-3.65,9.73-7.73,14.24-12.05c3.81-3.64,7.4-7.47,10.73-11.53
		c6.32-7.72,11.06-16.41,15.13-25.46C1079.94,406.96,1081.57,404.15,1081.77,400.86z"/>
	<path class="st2" d="M49.49,431.53c-2.89-1.46-5.24-3.62-7.58-5.81c-6.54-6.15-12.61-12.69-17.37-20.37
		c-6.13-9.9-10.34-20.52-12.28-32.02c-2.1-12.42-0.61-24.52,3.34-36.37c4.36-13.07,11.52-24.51,20.44-34.95
		c8.66-10.14,18.61-18.9,28.82-27.37c11.2-9.3,23.07-17.71,35.36-25.5c15-9.51,30.65-17.84,46.84-25.13
		c6.12-2.75,12.25-5.49,18.44-8.06c2.34-0.97,3.93-2.46,5.29-4.56c4.44-6.83,8.89-13.67,13.63-20.29
		c5.67-7.93,11.97-15.37,18.58-22.55c7.48-8.13,15.43-15.77,23.59-23.18c19.88-18.04,41.66-33.31,65.95-44.88
		c19.09-9.09,38.79-16.48,59.31-21.67c17.33-4.39,34.93-6.15,52.74-5.11c17.07,0.99,33.98,3.2,50.6,7.53
		c21.35,5.56,39.25,16.68,54.3,32.64c2.08,2.21,3.99,4.57,6.03,6.82c0.74,0.81,1.61,1.49,2.37,2.18c1.85-0.64,2.52-2.18,3.46-3.43
		c7.89-10.5,16.46-20.39,26-29.43c10.55-10,22.55-17.85,35.77-23.76C598.32,59.46,614,53.98,630.2,50.1
		c12.76-3.06,25.65-5.24,38.81-5.6c4.79-0.13,9.58-0.68,14.36-0.53c9.89,0.3,19.78,0.82,29.66,1.45
		c12.29,0.78,24.45,2.64,36.52,5.04c28.8,5.73,55.87,15.94,80.72,31.68c8.77,5.56,17,11.91,24.68,18.96
		c10.4,9.55,19.63,20.09,27.83,31.59c10.06,14.1,17.02,29.59,21.44,46.29c0.36,1.38,0.77,2.75,1.23,4.37c2.71,0.44,5.34,0.94,8,1.3
		c12.06,1.61,23.85,4.41,35.51,7.79c17.08,4.95,33.57,11.4,49.32,19.69c13.05,6.88,25.21,15.1,36.43,24.7
		c13.93,11.92,26.02,25.47,36.05,40.84c9.56,14.66,15.79,30.62,18.64,47.89c1.46,8.85,2.28,17.75,1.86,26.73
		c-0.7,15.06-2.76,29.9-7.52,44.27c-0.49,1.49-1.29,2.88-1.95,4.32c-1.41,0.18-2.83,0.26-4.22,0.55c-1.55,0.33-3.06,0.89-4.6,1.28
		c-6.47,1.65-13.01,2.95-19.61,4.03c-7.38,1.21-14.72,2.55-22.22,2.76c-0.32,0.01-0.66,0-0.95,0.1c-2.78,1.01-5.68,0.83-8.54,0.76
		c-10.36-0.23-20.71,0.54-31.08-0.79c-5.84-0.75-11.67-1.48-17.41-2.69c-6.87-1.45-13.53-3.7-19.82-6.92
		c-0.95-0.49-2.04-0.71-3.38-1.16c-0.59,1.33-1.2,2.42-1.55,3.59c-1.44,4.72-2.68,9.51-4.21,14.2
		c-4.27,13.11-10.24,25.43-17.08,37.38c-5.34,9.33-12.43,16.96-21.55,22.64c-2.97,1.85-6.18,3.33-9.3,4.93
		c-10.37,5.31-21.42,7.99-33.02,8.53c-0.8,0.04-1.59,0.12-2.38,0.2c-2.05,0.22-4.1,0.59-6.15,0.65c-3.83,0.11-7.67,0.1-11.51,0
		c-1.9-0.05-3.79-0.39-5.68-0.58c-1.11-0.11-2.22-0.17-3.33-0.29c-3.95-0.42-7.96-0.56-11.84-1.35c-6.07-1.24-12.12-2.56-18.12-4.22
		c-6.27-1.73-11.92-4.45-17.03-8.4c-2.48-1.91-2.89-1.91-5.22,0.38c-4.1,4.03-8.3,7.93-12.5,11.85
		c-6.32,5.89-12.98,11.35-19.9,16.43c-8.08,5.95-16.44,11.58-25.56,15.93c-7.92,3.79-15.75,7.79-23.81,11.26
		c-8.93,3.85-18.16,6.89-27.51,9.62c-13.75,4.01-27.46,8.2-41.41,11.49c-6.5,1.53-13.05,2.83-19.59,4.17
		c-7.63,1.56-15.26,3.09-22.9,4.56c-4.21,0.81-8.45,1.51-12.69,2.17c-4.55,0.71-9.13,1.22-13.67,2c-5.02,0.87-10.02,1.79-15.13,1.88
		c-0.47,0.01-0.94,0.19-1.41,0.25c-4.09,0.52-8.18,1.26-12.29,1.5c-6.36,0.38-12.67,1.55-19.07,1.12c-0.78-0.05-1.57,0.24-2.36,0.3
		c-2.7,0.18-5.49,0.83-8.07,0.35c-3.98-0.74-7.94-0.59-11.92-0.75c-1.12-0.04-2.24-0.03-3.35-0.19c-3.61-0.52-7.2-1.31-10.83-1.61
		c-4.79-0.38-9.43-1.48-14.06-2.56c-15.77-3.67-30.79-9.44-44.98-17.23c-4.74-2.6-9.24-5.68-13.67-8.79
		c-5.34-3.75-10.4-7.89-15.36-12.16c-7.76-6.69-15.07-13.79-21.39-21.85c-3.65-4.65-6.99-9.52-8.78-15.27
		c-0.18-0.57-0.68-1.04-1.12-1.67c-1.44,0.44-2.81,0.82-4.15,1.29c-4.37,1.52-8.69,3.18-13.09,4.58c-4.09,1.29-8.28,2.31-12.6,2.54
		c-2.7,0.15-5.4,0.02-8.08,0.72c-1.32,0.34-2.84-0.03-4.26-0.16c-0.95-0.09-1.89-0.5-2.82-0.46c-5.64,0.24-11.1-0.96-16.54-2.07
		c-8.13-1.66-16.01-4.16-23.69-7.35c-5.77-2.4-11.25-5.3-16.64-8.41c-8.47-4.89-16.16-10.81-23.02-17.78
		c-6.83-6.94-13.09-14.38-18.88-22.21c-4.95-6.68-9.34-13.73-12.87-21.25c-2.84-6.05-5.46-12.23-6.87-18.84
		c-0.16-0.73-1.1-1.3-1.71-1.96c-1.73,1.18-3.17,2.18-4.63,3.14c-3.47,2.27-6.81,4.8-10.47,6.71c-8.34,4.37-16.63,8.88-25.43,12.31
		c-8.61,3.35-17.31,6.47-26.31,8.69c-4.95,1.22-9.93,2.19-14.95,3.06c-8.32,1.44-16.63,2.77-25.11,2.63
		c-4.47-0.08-8.95-0.09-13.42-0.04c-4.49,0.05-8.83-1.03-13.25-1.5C56.39,432.52,53.07,431.07,49.49,431.53z"/>
	<path class="st3" d="M49.49,431.53c3.57-0.45,6.9,0.99,10.37,1.36c4.42,0.47,8.77,1.55,13.25,1.5c4.47-0.05,8.95-0.04,13.42,0.04
		c8.48,0.14,16.79-1.18,25.11-2.63c5.02-0.87,10-1.84,14.95-3.06c9-2.22,17.69-5.33,26.31-8.69c8.8-3.42,17.09-7.93,25.43-12.31
		c3.66-1.92,7-4.44,10.47-6.71c1.47-0.96,2.9-1.96,4.63-3.14c0.6,0.67,1.55,1.23,1.71,1.96c1.42,6.61,4.03,12.78,6.87,18.84
		c3.53,7.52,7.92,14.57,12.87,21.25c5.79,7.83,12.06,15.27,18.88,22.21c6.86,6.97,14.55,12.9,23.02,17.78
		c5.39,3.11,10.87,6.01,16.64,8.41c7.69,3.19,15.57,5.69,23.69,7.35c5.44,1.11,10.9,2.32,16.54,2.07c0.93-0.04,1.87,0.37,2.82,0.46
		c1.42,0.13,2.94,0.51,4.26,0.16c2.68-0.7,5.38-0.58,8.08-0.72c4.32-0.23,8.5-1.25,12.6-2.54c4.41-1.39,8.72-3.06,13.09-4.58
		c1.34-0.47,2.71-0.84,4.15-1.29c0.44,0.63,0.94,1.1,1.12,1.67c1.78,5.75,5.13,10.62,8.78,15.27c6.33,8.06,13.63,15.16,21.39,21.85
		c4.96,4.27,10.01,8.41,15.36,12.16c4.43,3.11,8.93,6.19,13.67,8.79c14.19,7.79,29.21,13.56,44.98,17.23
		c4.63,1.08,9.27,2.17,14.06,2.56c3.63,0.29,7.22,1.09,10.83,1.61c1.1,0.16,2.23,0.15,3.35,0.19c3.97,0.16,7.93,0.01,11.92,0.75
		c2.58,0.48,5.37-0.17,8.07-0.35c0.79-0.05,1.59-0.35,2.36-0.3c6.41,0.43,12.72-0.74,19.07-1.12c4.11-0.25,8.19-0.98,12.29-1.5
		c0.47-0.06,0.94-0.24,1.41-0.25c5.11-0.1,10.11-1.02,15.13-1.88c4.54-0.79,9.12-1.29,13.67-2c4.24-0.66,8.48-1.36,12.69-2.17
		c7.64-1.47,15.28-2.99,22.9-4.56c6.54-1.34,13.1-2.64,19.59-4.17c13.95-3.28,27.65-7.47,41.41-11.49
		c9.35-2.73,18.58-5.77,27.51-9.62c8.06-3.47,15.88-7.48,23.81-11.26c9.11-4.35,17.48-9.99,25.56-15.93
		c6.91-5.09,13.58-10.55,19.9-16.43c4.2-3.91,8.4-7.82,12.5-11.85c2.33-2.29,2.73-2.29,5.22-0.38c5.12,3.94,10.76,6.66,17.03,8.4
		c5.99,1.66,12.05,2.98,18.12,4.22c3.88,0.79,7.89,0.93,11.84,1.35c1.11,0.12,2.22,0.18,3.33,0.29c1.89,0.19,3.78,0.54,5.68,0.58
		c3.83,0.09,7.67,0.1,11.51,0c2.05-0.06,4.1-0.43,6.15-0.65c0.79-0.08,1.59-0.16,2.38-0.2c11.6-0.54,22.65-3.22,33.02-8.53
		c3.12-1.6,6.33-3.08,9.3-4.93c9.12-5.67,16.21-13.31,21.55-22.64c6.84-11.94,12.82-24.27,17.08-37.38
		c1.53-4.69,2.77-9.48,4.21-14.2c0.36-1.17,0.97-2.25,1.55-3.59c1.34,0.45,2.43,0.67,3.38,1.16c6.29,3.22,12.95,5.47,19.82,6.92
		c5.74,1.21,11.57,1.94,17.41,2.69c10.37,1.33,20.72,0.55,31.08,0.79c2.86,0.06,5.76,0.24,8.54-0.76c0.29-0.11,0.63-0.09,0.95-0.1
		c7.49-0.21,14.84-1.55,22.22-2.76c6.6-1.09,13.14-2.38,19.61-4.03c1.54-0.39,3.05-0.95,4.6-1.28c1.38-0.29,2.81-0.38,4.22-0.55
		c-0.2,3.28-1.82,6.1-3.12,8.98c-4.07,9.05-8.81,17.74-15.13,25.46c-3.33,4.06-6.92,7.89-10.73,11.53
		c-4.51,4.31-9.19,8.4-14.24,12.05c-11.03,7.97-22.56,15.04-35.39,19.84c-8.24,3.09-16.62,5.49-25.36,6.68
		c-4.57,0.62-9.1,1.44-14.07,2.24c-0.71,1.31-1.58,2.81-2.35,4.36c-3.33,6.74-7.12,13.22-11.29,19.46
		c-6.49,9.71-13.8,18.81-22.54,26.61c-10.28,9.17-21.38,17.2-33.95,23.03c-11.34,5.26-23.16,9.14-35.47,11.19
		c-6.1,1.02-12.27,1.79-18.46,2.43c-10.86,1.12-21.7,0.48-32.54,0.66c-6.91-1.46-14-0.39-20.96-1.61
		c-4.69-0.82-9.52-0.76-14.28-1.23c-3.64-0.36-7.28-0.8-10.87-1.48c-1.92-0.37-3.34-0.1-4.79,1.24
		c-10.1,9.33-20.98,17.66-32.58,25.07c-11.86,7.57-24.14,14.34-37.09,19.9c-15.87,6.82-32.22,12.18-49,16.2
		c-9.29,2.22-18.65,4.09-28.11,5.52c-8.04,1.22-16.09,2.04-24.16,2.9c-11.02,1.18-22.01,0.67-33.02,0.58
		c-4.91-0.04-9.81-0.95-14.7-1.53c-5.85-0.69-11.71-1.34-17.53-2.22c-5.51-0.83-11-1.81-16.45-2.94
		c-11.69-2.43-23.39-4.89-35.03-7.57c-11.5-2.64-22.9-5.65-34.04-9.58c-7.98-2.81-15.77-6.07-23.52-9.48
		c-8.65-3.81-16.94-8.25-24.97-13.16c-9.66-5.91-19.17-12.08-27.55-19.8c-2.23-2.05-4.58-3.97-6.79-6.04
		c-1.12-1.05-2.29-1.7-3.85-1.49c-1.58,0.21-3.16,0.39-4.73,0.6c-5.99,0.8-11.98,1.66-17.98,2.41c-4.89,0.61-9.8,1.12-14.7,1.66
		c-0.63,0.07-1.27,0.13-1.91,0.13c-12.77-0.04-25.52,1.71-38.29,0.89c-7.33-0.47-14.67-0.47-21.98-1
		c-6.65-0.49-13.24-1.79-19.89-2.46c-12.08-1.22-23.88-3.84-35.61-6.85c-16.2-4.16-31.32-10.73-45.55-19.56
		c-9.21-5.71-17.15-12.8-24.24-20.84c-7.72-8.75-13.11-18.86-15.59-30.34c-0.74-3.41-1.14-6.93-1.28-10.42
		c-0.22-5.27-0.08-10.55-0.1-15.82c0-1.27,0-2.54,0-4.01c-0.99-0.55-1.89-1.21-2.88-1.6c-9.37-3.68-18.54-7.81-27.42-12.55
		c-8.88-4.73-17.38-10.09-25.4-16.19C49.94,432.42,49.76,431.92,49.49,431.53z"/>
</g>
</svg>
