<svg id="svg" version="1.1" xmlns="http://www.w3.org/2000/svg" xmlns:xlink="http://www.w3.org/1999/xlink" width="400" height="111.30460891757994" viewBox="0, 0, 400,111.30460891757994"><g id="svgg"><path id="path0" d="M19.745 11.682 C 17.456 13.978,15.021 16.302,14.333 16.848 C 12.484 18.314,12.235 18.576,11.772 19.539 C 11.109 20.916,10.486 22.694,10.713 22.561 C 11.257 22.244,13.141 20.454,13.583 19.834 C 15.029 17.811,16.709 15.871,20.132 12.273 C 24.423 7.764,24.304 7.904,24.075 7.675 C 23.962 7.562,22.537 8.881,19.745 11.682 M35.750 16.248 C 33.917 16.819,31.067 17.716,29.417 18.243 C 27.767 18.769,25.967 19.239,25.417 19.288 C 24.222 19.394,23.833 19.680,23.833 20.453 C 23.833 21.693,24.590 22.041,25.542 21.240 C 26.712 20.256,29.593 19.048,35.083 17.239 C 38.970 15.959,39.748 15.591,39.218 15.288 C 39.144 15.245,37.583 15.678,35.750 16.248 M381.917 23.073 C 381.090 23.327,380.224 24.187,379.983 24.993 C 379.616 26.216,381.402 30.500,382.279 30.500 C 382.604 30.500,382.548 30.095,382.177 29.760 C 380.633 28.362,381.157 24.830,383.096 23.560 C 383.887 23.042,383.090 22.713,381.917 23.073 M31.975 26.904 C 25.631 28.919,24.629 29.333,26.102 29.333 C 27.263 29.333,28.877 29.004,29.107 28.720 C 29.212 28.591,31.387 27.824,33.940 27.016 C 37.345 25.940,38.598 25.475,38.637 25.274 C 38.730 24.802,38.131 24.949,31.975 26.904 M8.450 34.955 C 5.554 34.992,4.515 35.057,4.601 35.195 C 4.841 35.583,4.791 37.408,4.533 37.708 C 4.136 38.170,3.417 38.076,2.970 37.506 C 2.690 37.148,2.517 37.053,2.342 37.161 C 2.086 37.320,2.005 38.395,2.232 38.619 C 2.468 38.852,5.810 38.708,10.454 38.266 C 12.949 38.028,15.143 37.833,15.329 37.833 C 15.764 37.833,15.772 36.957,15.348 35.750 L 15.056 34.917 13.736 34.910 C 13.010 34.907,10.632 34.927,8.450 34.955 M380.125 36.786 C 379.496 36.881,379.545 37.023,380.427 37.656 C 381.302 38.285,381.254 38.299,381.395 37.375 C 381.514 36.600,381.475 36.582,380.125 36.786 M210.833 37.268 L 210.083 37.496 210.750 37.416 C 211.117 37.373,211.673 37.336,211.986 37.335 C 212.622 37.333,212.627 37.257,212.000 37.127 C 211.771 37.080,211.246 37.143,210.833 37.268 M178.667 37.284 C 176.671 37.344,165.162 37.963,162.167 38.171 C 154.977 38.671,152.578 38.849,151.083 38.995 C 146.939 39.399,143.628 39.376,139.583 38.913 C 136.356 38.543,135.197 38.483,132.250 38.529 C 126.153 38.624,122.985 38.578,120.583 38.361 C 118.222 38.147,113.439 38.246,105.583 38.672 C 100.204 38.963,95.627 38.790,95.306 38.284 C 95.230 38.164,91.277 38.099,82.889 38.079 C 76.121 38.063,69.796 37.992,68.833 37.921 C 67.138 37.795,58.008 38.010,51.000 38.340 C 49.121 38.429,46.008 38.691,44.083 38.923 C 42.158 39.156,40.384 39.326,40.141 39.301 C 39.847 39.272,39.401 39.469,38.808 39.892 C 38.318 40.241,37.570 40.737,37.147 40.996 C 35.924 41.741,35.417 42.530,35.417 43.688 L 35.417 44.651 34.833 44.744 C 34.512 44.794,32.825 45.026,31.083 45.258 C 24.018 46.202,24.567 45.980,24.230 48.027 C 23.487 52.550,24.910 54.443,31.443 57.616 C 36.639 60.141,36.548 59.789,33.250 64.598 C 31.373 67.335,31.445 67.263,28.659 69.239 C 24.467 72.213,24.094 71.619,32.436 75.245 C 38.119 77.715,38.307 77.448,29.564 79.318 C 26.224 80.033,23.268 80.919,22.764 81.356 C 22.518 81.569,22.981 82.840,23.489 83.348 C 24.328 84.187,28.937 85.311,32.966 85.658 C 34.094 85.755,35.947 85.984,37.084 86.167 C 38.221 86.349,40.749 86.650,42.701 86.835 C 46.772 87.221,49.149 87.583,52.917 88.391 C 54.383 88.705,56.086 89.053,56.700 89.165 C 59.925 89.751,58.706 90.514,53.250 91.323 C 45.116 92.529,36.169 94.276,35.694 94.750 C 35.427 95.018,38.259 96.998,41.877 99.073 C 45.334 101.055,44.660 101.520,37.949 101.786 L 35.083 101.900 43.667 102.783 L 52.250 103.666 101.250 103.638 C 144.843 103.613,151.013 103.641,157.167 103.893 C 160.971 104.049,166.858 104.286,170.250 104.420 C 177.195 104.695,192.676 104.755,193.127 104.509 C 193.432 104.343,200.890 103.596,201.750 103.646 C 202.025 103.661,203.124 103.810,204.192 103.976 C 205.521 104.182,206.416 104.238,207.026 104.151 C 208.468 103.946,211.132 103.983,213.607 104.242 C 216.457 104.540,231.975 104.346,241.750 103.890 C 247.270 103.633,252.075 103.607,287.583 103.648 L 327.250 103.693 337.833 103.265 C 351.792 102.701,356.393 102.496,356.454 102.435 C 356.641 102.248,350.839 102.191,347.778 102.350 C 344.580 102.516,343.681 102.505,341.088 102.262 C 337.741 101.949,337.558 101.906,338.944 101.755 C 340.479 101.587,341.373 101.360,344.667 100.303 C 348.368 99.114,348.789 99.014,353.207 98.261 C 356.917 97.629,357.164 97.549,361.167 95.669 C 363.991 94.343,365.017 94.077,370.520 93.244 C 372.663 92.919,374.619 92.587,374.866 92.505 C 375.423 92.321,379.078 89.299,379.244 88.885 C 379.383 88.539,379.591 83.667,379.466 83.667 C 379.421 83.667,379.145 83.786,378.852 83.932 C 378.454 84.131,378.080 84.170,377.368 84.088 C 376.340 83.969,375.496 84.300,373.386 85.650 C 372.155 86.438,370.691 86.555,369.791 85.938 C 368.195 84.844,365.297 84.756,355.187 85.490 C 352.494 85.686,350.261 85.817,350.225 85.781 C 350.092 85.647,355.524 84.097,361.118 82.673 C 375.377 79.043,375.670 78.908,376.149 75.738 C 376.247 75.090,376.441 74.236,376.581 73.841 C 376.720 73.445,377.025 71.988,377.259 70.603 C 377.608 68.531,378.272 65.889,378.771 64.589 C 378.843 64.402,378.587 64.465,377.809 64.825 C 376.121 65.607,376.031 65.607,374.908 64.850 C 371.816 62.764,371.575 62.364,372.542 60.927 C 375.174 57.015,374.565 56.516,367.417 56.729 C 355.681 57.078,347.500 57.048,347.500 56.656 C 347.500 56.364,356.644 53.996,366.774 51.667 C 370.580 50.791,371.672 50.359,373.199 49.121 C 373.685 48.727,374.669 48.001,375.385 47.508 C 377.085 46.337,377.167 46.205,377.167 44.643 C 377.167 43.013,377.507 42.124,377.716 43.208 C 377.770 43.491,377.794 43.454,377.811 43.062 C 377.823 42.775,377.946 42.447,378.083 42.333 C 378.438 42.039,378.393 41.587,377.958 41.088 C 377.594 40.669,377.497 40.651,374.667 40.484 C 373.063 40.389,370.587 40.193,369.167 40.048 C 367.746 39.903,365.308 39.763,363.750 39.736 C 362.192 39.710,353.229 39.231,343.833 38.673 L 326.750 37.658 315.667 37.834 C 309.571 37.931,301.921 38.094,298.667 38.196 C 295.412 38.299,284.350 38.438,274.083 38.505 C 263.817 38.573,254.113 38.705,252.519 38.800 C 249.673 38.969,249.167 38.946,249.167 38.649 C 249.167 38.567,248.173 38.500,246.958 38.500 C 245.744 38.500,241.262 38.275,237.000 38.001 C 220.414 36.932,223.267 36.877,209.445 38.530 L 202.140 39.404 198.278 38.849 C 196.154 38.544,192.810 38.041,190.845 37.731 C 187.150 37.147,185.370 37.082,178.667 37.284 M193.181 37.229 C 193.219 37.264,193.775 37.342,194.417 37.404 C 195.238 37.482,195.509 37.465,195.333 37.344 C 195.109 37.189,193.013 37.078,193.181 37.229 M378.397 39.680 C 378.442 40.910,378.637 43.079,378.831 44.500 C 379.308 48.007,379.959 52.579,380.254 54.500 C 380.388 55.371,380.498 56.323,380.499 56.615 C 380.499 56.908,380.575 57.193,380.667 57.250 C 380.766 57.311,380.833 58.378,380.833 59.890 C 380.833 61.285,380.950 63.362,381.093 64.505 C 381.396 66.928,381.305 70.743,380.881 73.416 C 380.670 74.743,380.637 75.821,380.718 78.725 C 380.825 82.555,380.706 84.586,380.152 88.333 C 378.922 96.666,378.623 99.714,378.915 100.961 C 379.022 101.417,379.000 101.490,378.782 101.406 C 378.576 101.327,378.526 101.422,378.541 101.861 C 378.551 102.167,378.433 102.865,378.279 103.412 C 377.711 105.429,377.874 105.567,382.667 107.150 C 386.876 108.539,387.377 108.500,392.181 106.402 L 393.945 105.632 394.233 101.524 C 394.391 99.265,394.562 97.173,394.612 96.875 L 394.704 96.333 391.060 96.316 C 388.284 96.303,387.575 96.259,388.083 96.133 C 391.119 95.380,394.833 94.114,394.833 93.833 C 394.833 93.517,395.506 85.523,395.600 84.725 C 395.722 83.687,395.880 83.762,392.833 83.418 C 389.656 83.059,387.000 82.647,387.000 82.513 C 387.000 82.450,388.294 82.223,389.875 82.008 C 392.373 81.668,395.723 81.004,395.906 80.813 C 395.940 80.779,396.022 76.652,396.089 71.644 L 396.211 62.538 394.064 62.032 C 392.883 61.753,390.717 61.282,389.250 60.985 C 387.783 60.687,386.526 60.395,386.455 60.336 C 386.302 60.206,390.242 59.743,393.792 59.473 L 396.333 59.280 396.337 58.432 C 396.339 57.965,396.450 55.071,396.583 52.000 C 396.717 48.929,396.828 45.766,396.830 44.970 L 396.833 43.523 395.625 43.264 C 394.960 43.122,393.750 42.894,392.935 42.757 C 390.753 42.391,390.759 42.376,393.500 41.228 C 395.404 40.431,395.663 40.036,393.937 40.561 C 392.106 41.118,388.132 41.564,387.083 41.331 C 386.717 41.250,386.042 41.104,385.583 41.007 C 384.377 40.751,382.667 40.162,382.667 40.002 C 382.667 39.926,382.517 39.904,382.335 39.951 C 382.109 40.010,381.855 39.880,381.543 39.546 C 381.290 39.275,380.566 38.780,379.935 38.444 C 379.303 38.109,378.680 37.747,378.550 37.639 C 378.349 37.472,378.327 37.766,378.397 39.680 M202.292 38.284 C 202.498 38.324,202.835 38.324,203.042 38.284 C 203.248 38.245,203.079 38.212,202.667 38.212 C 202.254 38.212,202.085 38.245,202.292 38.284 M1.800 39.542 C 1.772 40.115,1.802 41.371,1.866 42.333 C 1.930 43.296,2.059 47.121,2.154 50.833 C 2.394 60.315,2.554 63.876,2.678 62.500 C 2.732 61.904,2.776 65.804,2.775 71.167 C 2.775 76.529,2.731 80.392,2.677 79.750 C 2.559 78.335,2.404 81.692,2.153 91.083 C 2.063 94.475,1.943 98.840,1.887 100.782 C 1.722 106.486,1.728 106.494,6.602 107.414 L 7.953 107.669 10.530 106.187 C 14.291 104.024,16.345 102.960,18.472 102.074 C 19.511 101.642,20.398 101.191,20.444 101.073 C 20.528 100.853,20.226 95.774,19.720 88.913 L 19.438 85.075 16.469 83.848 C 14.836 83.173,12.844 82.371,12.042 82.066 L 10.583 81.511 12.833 81.504 C 15.057 81.497,18.819 81.236,18.978 81.078 C 19.165 80.891,18.175 72.116,17.572 68.611 C 17.294 66.997,17.241 67.553,18.406 59.841 C 18.634 58.333,18.797 57.075,18.767 57.045 C 18.682 56.960,12.611 55.333,12.378 55.333 C 11.351 55.333,12.746 54.964,15.458 54.517 C 17.269 54.219,18.862 53.917,19.000 53.845 C 19.660 53.503,19.786 47.324,19.169 45.574 L 18.990 45.064 15.703 44.617 C 13.896 44.371,11.869 44.120,11.200 44.060 C 9.531 43.910,9.751 43.808,13.656 42.928 C 15.529 42.506,17.099 42.123,17.145 42.077 C 17.483 41.739,14.722 39.735,14.007 39.798 C 12.347 39.946,4.390 40.316,4.105 40.259 C 3.910 40.220,3.546 40.145,3.298 40.092 C 2.989 40.027,2.707 39.760,2.407 39.248 C 1.852 38.302,1.859 38.299,1.800 39.542 M24.771 39.921 C 24.694 40.123,27.580 40.686,28.531 40.654 C 29.074 40.635,28.834 40.563,26.717 40.111 C 25.285 39.806,24.833 39.761,24.771 39.921 M377.879 44.333 C 377.879 44.746,377.911 44.915,377.951 44.708 C 377.991 44.502,377.991 44.165,377.951 43.958 C 377.911 43.752,377.879 43.921,377.879 44.333 M378.031 45.667 C 378.024 45.987,378.231 48.200,378.491 50.583 C 378.750 52.967,378.965 54.504,378.968 54.000 C 378.972 53.496,378.765 51.283,378.509 49.083 C 378.252 46.883,378.037 45.346,378.031 45.667 M22.370 66.083 C 22.371 67.404,22.388 67.493,22.516 66.829 C 22.600 66.398,22.599 65.755,22.516 65.329 C 22.388 64.676,22.370 64.769,22.370 66.083 M22.712 84.667 C 22.712 85.079,22.745 85.248,22.784 85.042 C 22.824 84.835,22.824 84.498,22.784 84.292 C 22.745 84.085,22.712 84.254,22.712 84.667 M22.853 85.956 C 22.815 86.667,23.697 95.256,23.918 96.333 L 24.141 97.417 24.056 96.417 C 23.887 94.414,22.872 85.594,22.853 85.956 M377.838 98.904 C 377.631 99.449,377.621 100.004,377.814 100.308 C 377.905 100.452,377.986 100.185,378.040 99.558 C 378.137 98.441,378.082 98.263,377.838 98.904 M28.083 101.167 C 28.358 101.237,28.846 101.294,29.167 101.294 L 29.750 101.295 29.083 101.157 C 28.186 100.971,27.347 100.979,28.083 101.167 M377.533 101.200 C 377.261 101.472,377.282 101.667,377.583 101.667 C 377.722 101.667,377.833 101.519,377.833 101.333 C 377.833 100.945,377.802 100.931,377.533 101.200 M25.792 101.701 C 25.250 101.934,25.000 102.140,25.000 102.354 C 25.000 102.775,25.089 102.753,25.893 102.137 C 27.134 101.185,27.120 101.129,25.792 101.701 M365.958 102.118 C 366.165 102.157,366.502 102.157,366.708 102.118 C 366.915 102.078,366.746 102.045,366.333 102.045 C 365.921 102.045,365.752 102.078,365.958 102.118 M13.625 108.284 C 13.831 108.324,14.169 108.324,14.375 108.284 C 14.581 108.245,14.412 108.212,14.000 108.212 C 13.588 108.212,13.419 108.245,13.625 108.284 " stroke="none" fill="#d4cc9c" fill-rule="evenodd"></path><path id="path1" d="M29.000 2.645 C 28.313 2.988,27.353 3.508,26.868 3.801 C 26.382 4.094,25.920 4.333,25.840 4.333 C 25.760 4.333,25.669 4.393,25.639 4.465 C 25.563 4.645,22.195 6.833,21.994 6.833 C 21.906 6.833,21.833 6.908,21.833 7.000 C 21.833 7.092,21.727 7.167,21.597 7.167 C 21.467 7.167,21.336 7.223,21.306 7.293 C 21.275 7.362,20.688 7.831,20.002 8.335 C 14.644 12.265,7.299 19.964,6.677 22.304 C 6.233 23.970,6.584 25.945,7.695 28.038 C 8.009 28.628,8.187 29.120,8.091 29.131 C 7.581 29.189,6.790 29.468,7.083 29.487 C 7.373 29.506,7.356 29.546,6.952 29.796 C 6.375 30.152,6.237 30.658,6.455 31.612 L 6.624 32.350 5.385 32.317 C 3.991 32.280,3.289 32.613,3.204 33.350 C 3.046 34.733,2.596 35.982,2.221 36.076 C 2.008 36.129,1.833 36.247,1.833 36.337 C 1.833 36.426,1.754 36.500,1.657 36.500 C 1.560 36.500,1.517 36.440,1.562 36.367 C 1.608 36.294,1.584 36.136,1.511 36.017 C 0.935 35.086,0.459 48.010,0.879 53.167 C 0.950 54.038,1.046 55.313,1.093 56.000 C 1.173 57.190,1.223 57.865,1.410 60.333 C 1.455 60.929,1.536 62.017,1.589 62.750 C 1.642 63.483,1.715 64.383,1.750 64.750 C 2.087 68.210,2.162 71.853,1.954 74.667 C 1.709 77.976,1.663 78.586,1.587 79.500 C 1.511 80.412,1.418 81.708,1.247 84.250 C 1.197 84.983,1.125 85.921,1.087 86.333 C 0.643 91.115,0.640 102.547,1.082 105.000 C 1.107 105.138,1.183 105.587,1.250 106.000 C 1.583 108.036,2.174 108.336,7.833 109.350 C 11.214 109.956,15.462 109.512,20.153 108.063 C 24.542 106.707,24.991 106.347,25.093 104.116 L 25.148 102.917 26.282 102.927 C 26.906 102.932,27.904 102.986,28.500 103.046 C 31.000 103.299,31.449 103.345,32.083 103.416 C 32.450 103.456,33.237 103.534,33.833 103.588 C 34.429 103.642,35.629 103.753,36.500 103.836 C 37.371 103.918,38.758 104.030,39.583 104.084 C 40.408 104.138,41.383 104.212,41.750 104.248 C 42.117 104.285,43.504 104.359,44.833 104.413 C 46.163 104.467,47.925 104.545,48.750 104.586 C 52.925 104.795,65.629 105.031,73.917 105.053 C 82.019 105.074,85.789 104.988,94.417 104.587 C 95.333 104.544,97.808 104.468,99.917 104.417 C 102.025 104.366,104.725 104.291,105.917 104.250 C 107.108 104.209,110.596 104.135,113.667 104.086 C 116.737 104.036,120.675 103.968,122.417 103.934 C 124.158 103.900,125.321 103.907,125.000 103.948 C 123.615 104.128,124.233 104.313,125.848 104.202 C 129.256 103.969,152.895 104.143,155.167 104.418 C 155.487 104.457,156.950 104.530,158.417 104.581 C 163.521 104.758,168.763 105.008,170.833 105.172 C 171.979 105.263,174.267 105.383,175.917 105.437 C 178.107 105.509,179.209 105.620,180.000 105.848 C 181.159 106.181,185.059 106.854,187.685 107.174 C 189.641 107.412,190.238 107.363,193.417 106.705 C 200.426 105.255,204.652 105.042,211.083 105.811 C 216.357 106.442,220.294 106.479,222.500 105.918 C 223.096 105.767,224.183 105.608,224.917 105.566 C 225.650 105.523,228.050 105.378,230.250 105.242 C 234.947 104.952,239.734 104.721,243.917 104.581 C 245.567 104.526,247.067 104.452,247.250 104.416 C 248.612 104.150,273.110 103.971,276.485 104.202 C 278.100 104.313,278.718 104.128,277.333 103.948 C 277.012 103.907,278.175 103.900,279.917 103.934 C 281.658 103.967,285.558 104.035,288.583 104.084 C 291.608 104.134,295.133 104.208,296.417 104.250 C 297.700 104.291,300.400 104.368,302.417 104.419 C 306.229 104.517,306.539 104.529,314.333 104.873 C 321.479 105.188,345.344 105.015,353.667 104.587 C 354.446 104.547,356.171 104.469,357.500 104.414 C 358.829 104.359,360.217 104.285,360.583 104.248 C 360.950 104.212,361.925 104.138,362.750 104.084 C 363.575 104.030,364.962 103.918,365.833 103.836 C 366.704 103.753,367.904 103.642,368.500 103.588 C 369.530 103.495,370.087 103.437,371.708 103.253 C 373.210 103.084,374.950 102.943,375.715 102.930 L 376.513 102.917 376.585 104.114 C 376.711 106.196,377.192 106.668,380.167 107.631 C 386.687 109.741,390.618 110.112,395.366 109.064 C 396.035 108.916,396.826 108.806,397.123 108.819 C 398.625 108.887,398.833 108.279,398.833 103.818 C 398.833 101.563,398.936 99.241,399.099 97.784 C 399.302 95.983,399.339 94.660,399.254 92.250 C 399.181 90.162,399.238 86.982,399.422 82.917 C 399.611 78.747,399.662 75.779,399.581 73.750 C 399.515 72.100,399.440 68.987,399.415 66.833 C 399.316 58.376,399.167 55.738,398.649 53.293 C 398.338 51.825,398.322 51.475,398.484 49.627 C 398.582 48.503,398.709 46.983,398.766 46.250 C 398.823 45.517,398.927 44.279,398.997 43.500 C 399.068 42.721,399.114 40.856,399.100 39.356 L 399.075 36.628 398.579 36.231 C 398.306 36.013,397.708 35.711,397.250 35.560 C 396.792 35.410,396.229 35.156,396.000 34.996 C 395.771 34.836,395.445 34.678,395.276 34.644 C 394.875 34.565,394.452 33.414,394.737 33.177 C 394.974 32.980,395.223 32.008,395.594 29.833 C 395.796 28.642,395.705 26.261,395.423 25.417 C 394.902 23.852,393.970 22.333,393.530 22.333 C 393.464 22.333,392.998 22.060,392.496 21.727 C 391.471 21.046,390.282 20.580,389.167 20.421 C 388.754 20.362,388.229 20.286,388.000 20.251 C 381.014 19.190,376.485 23.883,378.994 29.583 C 379.155 29.950,379.413 30.636,379.568 31.108 C 379.884 32.074,380.701 33.403,381.310 33.943 L 381.715 34.302 380.899 34.818 C 380.451 35.101,379.712 35.446,379.257 35.585 C 377.360 36.161,377.167 36.411,377.167 38.275 C 377.167 39.593,377.529 39.522,373.083 39.070 C 372.625 39.023,371.988 38.955,371.667 38.917 C 371.346 38.880,370.596 38.801,370.000 38.743 C 369.404 38.684,368.716 38.611,368.471 38.582 C 368.227 38.552,367.402 38.482,366.638 38.427 C 365.875 38.371,364.912 38.289,364.500 38.245 C 361.900 37.967,353.581 37.576,346.917 37.420 C 344.717 37.369,341.717 37.290,340.250 37.245 C 338.783 37.201,334.867 37.151,331.548 37.135 C 326.450 37.110,325.505 37.069,325.465 36.866 C 325.408 36.582,321.761 36.573,313.583 36.838 C 310.833 36.927,306.371 36.989,303.667 36.976 C 300.962 36.963,297.662 37.035,296.333 37.137 C 292.578 37.425,283.058 37.589,282.795 37.370 C 282.637 37.239,280.992 37.237,276.913 37.363 C 272.637 37.495,270.332 37.487,267.500 37.332 C 263.675 37.123,262.748 37.153,255.750 37.709 C 254.375 37.818,252.838 37.909,252.333 37.912 C 250.876 37.919,242.951 37.649,242.583 37.579 C 242.400 37.545,240.900 37.469,239.250 37.412 C 237.600 37.355,235.162 37.241,233.833 37.160 C 232.504 37.078,229.654 36.924,227.500 36.816 C 225.346 36.709,223.537 36.548,223.479 36.460 C 223.362 36.277,221.204 36.383,217.000 36.779 C 215.487 36.921,213.800 37.030,213.250 37.022 C 212.655 37.013,212.339 37.063,212.471 37.146 C 212.607 37.231,212.190 37.328,211.387 37.398 C 210.670 37.460,209.446 37.616,208.667 37.745 C 204.582 38.423,199.862 38.422,196.333 37.743 C 195.646 37.611,193.171 37.232,190.833 36.901 L 186.583 36.299 180.417 36.401 C 167.931 36.608,156.278 37.032,152.417 37.420 C 148.929 37.770,139.650 38.025,137.667 37.826 C 136.636 37.722,131.486 37.735,122.917 37.862 C 109.185 38.066,104.047 37.995,89.000 37.396 C 79.727 37.026,50.909 37.037,49.851 37.410 C 49.442 37.555,48.570 37.667,47.854 37.667 C 46.649 37.668,39.796 38.061,37.833 38.242 C 37.329 38.288,36.392 38.368,35.750 38.418 C 34.358 38.528,33.131 38.649,32.333 38.754 C 32.012 38.797,31.300 38.871,30.750 38.920 C 30.200 38.969,29.488 39.041,29.167 39.080 C 28.680 39.138,26.276 39.358,26.000 39.369 C 24.554 39.428,23.887 38.716,24.732 38.015 C 25.492 37.384,25.310 35.842,24.447 35.596 C 23.681 35.377,20.943 34.832,20.523 34.815 C 20.281 34.805,20.721 34.701,21.500 34.583 C 22.279 34.466,23.104 34.328,23.333 34.277 C 23.563 34.226,24.275 34.074,24.917 33.939 C 26.500 33.605,26.642 33.571,28.479 33.098 C 29.361 32.871,30.271 32.647,30.500 32.599 C 31.450 32.402,37.286 30.855,37.713 30.687 C 37.967 30.587,38.342 30.473,38.546 30.435 C 39.007 30.347,40.469 29.870,40.917 29.661 C 41.329 29.468,44.616 28.339,45.112 28.220 C 45.918 28.026,46.501 26.960,46.101 26.412 C 45.917 26.162,41.031 24.485,39.802 24.251 C 39.555 24.204,38.821 23.997,38.170 23.791 L 36.986 23.417 38.143 22.654 C 38.821 22.207,39.262 22.000,39.207 22.154 C 39.147 22.322,39.273 22.271,39.557 22.013 C 40.004 21.605,40.140 21.394,39.833 21.583 C 39.449 21.821,39.708 21.532,40.208 21.166 C 40.639 20.851,40.699 20.836,40.500 21.092 C 40.311 21.336,43.517 18.578,44.768 17.420 C 47.946 14.479,48.820 13.590,49.351 12.756 C 50.094 11.590,50.065 11.475,49.153 11.988 C 48.781 12.197,48.182 12.379,47.822 12.392 C 47.463 12.406,47.168 12.473,47.168 12.542 C 47.167 12.610,47.110 12.653,47.042 12.635 C 46.973 12.618,46.617 12.656,46.250 12.720 C 45.883 12.783,45.283 12.877,44.917 12.927 C 44.550 12.978,44.137 13.050,44.000 13.087 C 43.862 13.124,43.525 13.194,43.250 13.242 C 42.975 13.290,42.563 13.369,42.333 13.416 C 42.104 13.463,41.504 13.573,41.000 13.660 C 40.496 13.747,39.896 13.862,39.667 13.915 C 39.438 13.968,38.837 14.089,38.333 14.184 C 35.176 14.776,27.495 16.394,26.852 16.601 C 25.826 16.933,25.630 17.014,24.125 17.722 C 23.415 18.057,22.833 18.305,22.833 18.273 C 22.833 17.600,26.971 10.741,27.825 10.000 C 27.962 9.881,30.329 6.277,31.070 5.058 C 32.652 2.457,31.670 1.313,29.000 2.645 M29.426 4.589 C 29.249 4.723,29.174 4.834,29.260 4.836 C 29.346 4.837,29.335 4.894,29.236 4.961 C 29.136 5.028,28.839 5.458,28.575 5.917 C 27.083 8.511,18.106 22.043,16.080 24.752 C 14.446 26.936,13.540 27.807,12.193 28.487 C 10.878 29.150,10.554 29.955,11.790 29.485 C 12.265 29.304,13.167 30.064,13.167 30.646 C 13.167 31.328,12.816 31.836,12.472 31.652 C 12.299 31.559,12.201 31.412,12.255 31.325 C 12.309 31.238,12.265 31.167,12.158 31.167 C 12.034 31.167,12.002 31.317,12.068 31.583 C 12.173 31.998,12.168 32.000,10.995 32.000 C 9.044 32.000,7.220 30.513,8.621 30.064 C 8.784 30.012,9.067 29.907,9.250 29.830 C 9.433 29.753,9.883 29.638,10.250 29.574 L 10.917 29.457 10.417 29.287 C 9.817 29.083,9.680 28.903,9.793 28.471 C 9.850 28.253,9.697 27.958,9.330 27.580 C 8.388 26.608,8.054 23.867,8.720 22.571 C 9.974 20.133,16.730 13.188,20.833 10.118 C 21.704 9.466,22.754 8.620,23.167 8.237 C 23.579 7.854,24.033 7.544,24.175 7.548 C 24.317 7.552,25.010 7.166,25.716 6.689 C 26.422 6.213,27.000 5.850,27.000 5.883 C 27.000 5.915,26.090 6.761,24.979 7.763 C 19.953 12.289,9.942 26.078,11.881 25.802 C 12.169 25.761,12.294 25.573,12.449 24.942 C 12.815 23.463,16.781 18.340,21.765 12.912 C 22.693 11.901,24.015 10.326,24.702 9.412 C 26.951 6.418,27.972 5.264,28.790 4.793 C 29.657 4.294,29.934 4.205,29.426 4.589 M47.742 13.472 C 47.400 13.772,43.347 16.662,42.167 17.448 C 35.171 22.108,21.697 27.996,17.362 28.288 L 15.974 28.382 17.005 27.399 C 18.781 25.708,20.848 22.716,21.932 20.268 C 22.513 18.954,22.676 18.860,25.419 18.252 C 26.151 18.089,28.175 17.623,29.917 17.214 C 35.244 15.965,42.198 14.500,42.349 14.593 C 42.428 14.642,42.646 14.600,42.833 14.500 C 43.020 14.400,44.203 14.104,45.461 13.842 C 46.720 13.581,47.784 13.359,47.825 13.350 C 47.866 13.341,47.829 13.396,47.742 13.472 M38.333 16.362 C 34.826 17.991,31.855 19.343,24.696 22.566 C 21.641 23.941,18.363 25.798,19.667 25.415 L 20.083 25.292 19.667 25.753 L 19.250 26.215 19.812 26.107 C 20.122 26.048,20.557 26.000,20.779 26.000 C 21.052 26.000,21.274 25.840,21.466 25.503 C 21.639 25.201,22.052 24.876,22.521 24.674 C 24.513 23.815,30.192 21.013,34.417 18.803 C 36.983 17.461,39.833 15.985,40.750 15.523 C 43.582 14.097,42.106 14.609,38.333 16.362 M388.077 21.876 C 389.384 22.807,390.217 23.617,390.086 23.829 C 390.028 23.923,390.054 24.000,390.145 24.000 C 390.357 24.000,390.845 25.673,390.878 26.516 C 390.930 27.822,388.561 29.545,386.744 29.523 C 384.510 29.497,383.598 28.433,384.682 27.118 C 385.712 25.868,387.707 25.618,387.256 26.795 C 387.164 27.035,387.127 27.040,386.994 26.829 C 386.862 26.620,386.838 26.625,386.836 26.861 C 386.834 27.014,386.740 27.182,386.625 27.235 C 386.510 27.287,386.604 27.286,386.833 27.232 C 388.132 26.924,387.703 25.583,386.306 25.584 C 383.690 25.585,382.684 29.076,384.967 30.233 C 387.342 31.437,388.945 30.781,390.718 27.880 C 391.011 27.401,391.368 27.007,391.513 27.005 C 391.972 26.996,393.326 28.012,393.810 28.727 C 395.245 30.846,393.792 33.272,390.511 34.234 C 386.340 35.458,380.547 31.468,379.652 26.756 C 379.073 23.708,381.657 21.166,385.333 21.167 L 387.083 21.168 388.077 21.876 M391.574 22.589 C 391.751 22.723,391.814 22.833,391.712 22.833 C 391.610 22.833,391.414 22.877,391.276 22.930 C 391.125 22.988,390.952 22.889,390.840 22.680 C 390.612 22.252,391.056 22.197,391.574 22.589 M93.372 23.167 C 93.372 23.488,93.406 23.619,93.448 23.458 C 93.490 23.298,93.490 23.035,93.448 22.875 C 93.406 22.715,93.372 22.846,93.372 23.167 M392.792 24.108 L 393.172 24.798 392.219 24.411 C 390.946 23.894,390.650 23.289,391.708 23.366 C 392.341 23.411,392.451 23.487,392.792 24.108 M36.696 24.496 C 37.282 24.676,37.909 24.853,38.089 24.887 C 38.269 24.922,38.529 24.998,38.667 25.056 C 38.804 25.115,39.817 25.451,40.917 25.804 C 42.902 26.441,42.912 26.447,42.333 26.623 C 37.744 28.020,25.243 31.491,22.750 32.061 C 17.265 33.315,13.425 33.324,13.641 32.083 C 13.673 31.900,13.737 31.432,13.783 31.043 C 13.857 30.419,13.909 30.346,14.225 30.425 C 15.254 30.683,18.131 30.572,19.583 30.218 C 20.408 30.018,21.683 29.768,22.417 29.664 C 24.206 29.410,29.844 27.124,34.250 24.867 C 34.983 24.491,35.594 24.180,35.607 24.175 C 35.621 24.170,36.111 24.315,36.696 24.496 M393.295 25.577 C 393.625 25.855,393.927 26.368,394.152 27.035 C 394.604 28.374,394.592 28.482,394.042 27.965 C 393.312 27.279,392.461 26.835,391.875 26.834 C 391.390 26.833,391.333 26.783,391.333 26.357 C 391.333 26.094,391.285 25.525,391.225 25.091 L 391.117 24.303 391.951 24.725 C 392.410 24.958,393.015 25.341,393.295 25.577 M93.568 30.750 C 93.568 32.308,93.593 32.968,93.624 32.217 C 93.655 31.465,93.655 30.190,93.624 29.383 C 93.594 28.577,93.568 29.192,93.568 30.750 M293.750 32.667 C 293.584 32.850,293.532 33.000,293.635 33.000 C 293.738 33.000,293.902 32.850,294.000 32.667 C 294.098 32.483,294.150 32.333,294.115 32.333 C 294.080 32.333,293.916 32.483,293.750 32.667 M6.927 32.850 C 6.990 32.951,7.313 33.158,7.645 33.309 L 8.250 33.583 6.436 33.631 C 4.090 33.692,3.892 33.550,5.538 32.981 C 6.573 32.623,6.775 32.604,6.927 32.850 M13.300 33.033 C 13.656 33.389,13.515 33.500,12.708 33.499 L 11.917 33.498 12.417 33.178 C 13.026 32.788,13.050 32.784,13.300 33.033 M18.310 34.930 C 18.342 34.958,18.271 35.364,18.150 35.834 C 17.932 36.686,18.027 37.148,18.451 37.289 C 18.810 37.409,19.189 36.813,19.077 36.304 L 18.970 35.816 19.583 36.072 C 20.095 36.287,20.461 36.301,21.806 36.160 C 23.610 35.972,24.396 36.101,24.455 36.595 C 24.477 36.772,24.452 36.823,24.400 36.708 C 24.269 36.419,24.000 36.447,24.000 36.750 C 24.000 36.933,23.810 37.000,23.287 37.000 C 22.894 37.000,21.676 37.109,20.578 37.243 C 18.194 37.534,11.196 38.237,7.250 38.582 C 3.547 38.905,2.594 38.903,2.262 38.571 C 1.885 38.194,1.939 38.419,2.423 39.245 C 3.065 40.341,3.841 40.398,11.500 39.912 C 21.311 39.290,23.110 39.142,23.708 38.911 C 23.926 38.826,24.000 38.882,24.000 39.128 C 24.000 39.525,23.687 39.810,23.052 39.989 L 22.583 40.122 23.208 40.246 C 23.662 40.336,23.833 40.455,23.833 40.680 C 23.833 40.901,23.753 40.959,23.554 40.883 C 23.332 40.797,23.301 40.841,23.400 41.096 C 23.695 41.860,23.680 43.096,23.343 45.750 C 22.707 50.763,22.493 52.034,21.843 54.667 C 20.947 58.290,20.908 58.707,21.306 60.362 C 21.549 61.370,21.676 62.685,21.769 65.167 C 21.934 69.590,21.942 69.302,21.615 71.355 C 21.196 73.992,21.268 78.434,21.771 80.896 C 21.838 81.223,21.811 81.339,21.684 81.261 C 21.355 81.058,21.736 85.529,22.415 89.833 C 23.168 94.610,23.626 98.734,23.072 95.750 C 22.861 94.617,22.856 94.666,22.897 97.417 C 22.938 100.109,22.966 100.327,23.470 101.794 C 24.581 105.032,24.313 105.388,19.563 106.983 C 14.525 108.674,13.020 108.713,6.167 107.329 C 1.668 106.420,1.916 106.760,1.918 101.506 C 1.920 94.048,2.501 76.915,2.679 79.083 C 2.731 79.725,2.774 76.125,2.774 71.083 C 2.774 66.042,2.731 62.442,2.679 63.083 C 2.546 64.711,2.372 60.848,2.160 51.522 C 2.070 47.547,1.958 44.234,1.913 44.161 C 1.736 43.874,1.842 38.547,2.043 37.680 C 2.233 36.857,2.667 36.301,2.667 36.880 C 2.667 37.700,3.750 38.240,4.434 37.761 C 4.772 37.524,4.878 35.643,4.581 35.162 C 4.517 35.059,5.716 34.992,7.865 34.978 C 9.727 34.967,12.375 34.907,13.750 34.845 C 15.962 34.746,18.139 34.786,18.310 34.930 M393.451 35.662 C 393.570 36.160,393.914 36.822,394.323 37.341 C 395.948 39.396,394.423 39.871,387.300 39.530 C 383.189 39.334,383.254 39.349,383.238 38.585 C 383.231 38.267,383.089 37.857,382.922 37.673 C 382.750 37.483,382.625 37.103,382.633 36.794 C 382.640 36.495,382.649 36.006,382.651 35.708 C 382.657 35.061,382.612 35.069,383.521 35.566 C 384.872 36.306,386.828 36.875,387.746 36.796 C 388.569 36.725,392.694 35.118,392.802 34.827 C 392.933 34.475,393.273 34.913,393.451 35.662 M19.523 35.090 C 18.832 35.390,18.833 35.390,18.833 35.083 C 18.833 34.904,19.011 34.835,19.458 34.840 L 20.083 34.846 19.523 35.090 M395.743 36.656 C 395.796 36.741,396.247 36.861,396.746 36.923 C 398.261 37.113,398.394 37.335,397.500 38.188 L 396.750 38.902 396.665 38.076 L 396.579 37.250 396.449 37.875 C 396.356 38.318,396.182 38.570,395.848 38.742 L 395.378 38.985 395.269 38.118 C 395.210 37.640,395.115 36.998,395.059 36.691 C 394.958 36.140,395.410 36.117,395.743 36.656 M93.705 37.000 C 93.705 37.321,93.740 37.452,93.782 37.292 C 93.823 37.131,93.823 36.869,93.782 36.708 C 93.740 36.548,93.705 36.679,93.705 37.000 M381.438 37.188 C 381.380 37.474,381.333 37.811,381.333 37.938 C 381.333 38.279,381.166 38.219,380.250 37.546 C 379.320 36.862,379.425 36.721,380.896 36.683 C 381.533 36.667,381.540 36.674,381.438 37.188 M189.941 37.573 C 191.303 37.797,194.610 38.297,197.290 38.686 L 202.163 39.393 207.873 38.697 C 222.853 36.871,220.820 36.928,236.000 37.910 C 240.996 38.233,245.996 38.498,247.111 38.498 C 248.551 38.500,249.158 38.559,249.206 38.702 C 249.283 38.933,251.540 38.922,255.500 38.670 C 256.829 38.586,264.404 38.503,272.333 38.486 C 280.262 38.469,290.275 38.356,294.583 38.233 C 298.892 38.111,308.004 37.930,314.833 37.830 L 327.250 37.648 344.165 38.658 C 353.468 39.213,362.251 39.667,363.682 39.667 C 365.113 39.667,366.501 39.736,366.767 39.821 C 367.233 39.970,373.893 40.462,376.540 40.544 C 377.362 40.569,377.831 40.652,377.832 40.771 C 377.833 40.875,377.946 41.053,378.083 41.167 C 378.403 41.432,378.403 41.993,378.084 42.449 C 377.859 42.769,377.892 43.328,378.400 47.944 C 378.711 50.771,379.012 54.133,379.069 55.417 C 379.141 57.055,379.272 58.072,379.510 58.830 C 379.706 59.456,379.831 60.263,379.808 60.747 C 379.786 61.207,379.871 61.858,379.996 62.195 C 380.185 62.702,380.188 63.069,380.013 64.361 C 379.642 67.105,379.364 72.169,379.525 73.250 C 379.680 74.288,379.960 78.350,380.105 81.661 C 380.171 83.182,380.140 83.607,379.954 83.744 C 379.796 83.860,379.685 84.434,379.614 85.500 C 379.556 86.371,379.458 87.516,379.397 88.046 C 379.301 88.879,379.321 88.994,379.547 88.907 C 379.738 88.834,379.789 88.889,379.736 89.112 C 378.939 92.457,378.667 94.036,378.667 95.321 C 378.667 96.119,378.559 97.143,378.427 97.595 C 378.295 98.047,378.097 99.180,377.986 100.113 C 377.745 102.141,377.854 102.073,375.097 101.914 C 374.081 101.855,371.975 101.889,370.417 101.990 C 367.339 102.190,366.833 102.211,358.417 102.479 C 355.300 102.578,350.875 102.738,348.583 102.835 C 326.193 103.783,327.157 103.770,288.583 103.651 C 253.228 103.542,252.608 103.546,242.083 103.927 C 226.905 104.475,216.409 104.599,213.500 104.263 C 211.077 103.983,208.636 103.943,207.167 104.159 C 206.507 104.256,205.619 104.200,204.000 103.959 L 201.750 103.625 197.583 104.004 C 195.292 104.212,193.338 104.444,193.241 104.518 C 192.974 104.724,177.030 104.717,171.833 104.509 C 169.313 104.408,162.600 104.148,156.917 103.933 L 146.583 103.540 100.500 103.702 L 54.417 103.863 44.167 102.846 C 38.529 102.287,32.492 101.680,30.750 101.498 C 29.008 101.315,27.503 101.166,27.404 101.166 C 27.305 101.167,26.780 101.502,26.237 101.912 C 25.125 102.752,25.000 102.797,25.000 102.352 C 25.000 102.158,24.892 102.046,24.718 102.060 C 24.473 102.080,24.431 101.867,24.399 100.417 C 24.379 99.500,24.211 98.000,24.026 97.083 C 23.842 96.167,23.457 92.792,23.171 89.583 C 22.886 86.375,22.494 82.452,22.300 80.865 C 21.825 76.968,22.052 71.953,22.841 68.913 C 23.570 66.107,23.498 64.777,22.433 61.333 C 21.818 59.345,22.031 56.990,23.254 52.250 L 24.201 48.583 24.350 44.449 C 24.500 40.267,24.615 39.578,25.135 39.736 C 28.367 40.717,29.909 40.743,34.500 39.892 C 35.737 39.662,37.387 39.448,38.167 39.416 C 38.946 39.383,39.621 39.343,39.667 39.326 C 39.712 39.309,39.878 39.308,40.035 39.323 C 40.191 39.339,41.923 39.160,43.883 38.926 C 49.360 38.273,64.067 37.678,68.917 37.914 C 70.292 37.981,76.749 38.046,83.266 38.059 C 92.005 38.077,95.177 38.134,95.349 38.277 C 95.478 38.384,96.371 38.563,97.333 38.675 C 99.143 38.886,100.279 38.867,109.417 38.473 C 115.645 38.204,121.664 38.216,122.771 38.500 C 123.435 38.670,124.798 38.677,129.541 38.534 C 133.079 38.427,135.669 38.415,135.948 38.504 C 137.822 39.100,146.333 39.395,150.583 39.011 C 167.787 37.458,185.334 36.817,189.941 37.573 M379.166 38.000 C 379.339 38.000,379.527 38.076,379.585 38.169 C 379.642 38.262,380.003 38.493,380.386 38.683 C 380.770 38.872,381.239 39.212,381.429 39.438 C 381.620 39.665,381.957 39.859,382.179 39.871 C 382.402 39.882,382.696 39.981,382.833 40.091 C 383.137 40.333,384.475 40.778,385.689 41.041 C 388.003 41.540,393.449 41.029,394.621 40.202 C 394.875 40.022,395.367 39.843,395.713 39.804 C 396.382 39.728,396.381 39.727,396.556 40.833 C 396.592 41.063,396.633 40.875,396.648 40.417 C 396.674 39.611,396.698 39.572,397.376 39.250 C 397.761 39.067,398.115 38.898,398.163 38.875 C 398.266 38.825,398.252 39.240,397.898 46.500 C 397.640 51.812,397.641 52.152,397.924 53.500 C 398.263 55.117,398.297 58.489,398.006 61.667 C 397.557 66.572,397.464 68.843,397.649 70.409 C 398.013 73.500,397.726 82.221,397.078 87.744 C 396.824 89.915,396.824 90.205,397.089 92.097 C 397.294 93.566,397.343 94.645,397.267 96.020 C 397.209 97.063,397.118 99.831,397.064 102.170 C 396.943 107.344,397.077 107.042,394.717 107.496 C 388.536 108.687,386.703 108.604,381.833 106.914 C 377.818 105.520,377.691 105.386,378.299 103.170 C 378.480 102.510,378.590 101.827,378.544 101.652 C 378.487 101.431,378.547 101.333,378.742 101.333 C 378.960 101.333,378.994 101.250,378.893 100.958 C 378.581 100.054,378.984 95.671,379.916 89.833 C 380.610 85.491,380.826 82.462,380.685 79.083 C 380.564 76.175,380.606 75.226,380.983 72.417 C 381.248 70.446,381.281 65.810,381.043 64.083 C 380.929 63.258,380.835 61.415,380.835 59.986 C 380.834 58.558,380.781 57.336,380.716 57.272 C 380.580 57.136,379.894 52.601,379.163 47.000 C 378.882 44.846,378.582 42.596,378.496 42.000 C 378.217 40.062,378.281 37.184,378.593 37.630 C 378.735 37.833,378.994 38.000,379.166 38.000 M302.628 37.786 C 302.378 37.824,301.928 37.825,301.628 37.787 C 301.328 37.750,301.533 37.719,302.083 37.718 C 302.633 37.717,302.878 37.748,302.628 37.786 M396.093 39.097 C 395.915 39.227,395.653 39.333,395.510 39.332 C 395.353 39.332,395.446 39.202,395.743 39.006 C 396.292 38.644,396.602 38.725,396.093 39.097 M22.543 66.889 C 22.391 67.679,22.377 67.599,22.377 65.917 C 22.376 64.159,22.383 64.124,22.542 65.056 C 22.653 65.702,22.653 66.318,22.543 66.889 M108.333 109.583 C 108.211 109.812,108.161 110.050,108.222 110.111 C 108.283 110.172,108.333 110.122,108.333 109.999 C 108.333 109.877,108.457 109.639,108.609 109.471 C 108.761 109.304,108.811 109.167,108.721 109.167 C 108.630 109.167,108.456 109.354,108.333 109.583 " stroke="none" fill="#050504" fill-rule="evenodd"></path><path id="path2" d="M28.645 4.882 C 27.981 5.291,26.515 6.980,24.937 9.154 C 24.376 9.927,23.358 11.165,22.676 11.905 C 18.508 16.423,12.770 23.493,13.047 23.769 C 13.376 24.098,16.465 21.711,19.289 18.945 C 21.698 16.585,25.290 11.536,28.497 6.000 C 28.896 5.313,29.303 4.695,29.402 4.628 C 29.849 4.326,29.190 4.547,28.645 4.882 M25.524 6.817 C 24.849 7.266,24.212 7.783,24.107 7.966 C 24.002 8.150,22.214 10.088,20.132 12.275 C 16.709 15.870,15.030 17.810,13.583 19.834 C 13.141 20.454,11.257 22.244,10.713 22.561 C 10.486 22.694,11.109 20.916,11.772 19.539 C 12.235 18.576,12.485 18.314,14.333 16.848 C 15.749 15.725,22.778 8.695,21.750 9.430 C 17.479 12.483,10.150 19.866,9.656 21.613 C 9.284 22.928,9.350 23.638,9.888 24.101 C 10.158 24.333,10.302 24.582,10.232 24.695 C 10.147 24.833,10.205 24.850,10.431 24.754 C 10.606 24.680,11.050 24.514,11.417 24.387 C 11.973 24.193,12.205 23.955,12.817 22.952 C 14.992 19.391,21.655 10.775,23.601 9.009 C 25.318 7.450,26.865 6.000,26.809 6.000 C 26.776 6.001,26.198 6.368,25.524 6.817 M44.917 13.982 C 42.710 14.486,41.744 14.934,33.590 19.242 C 31.295 20.454,27.706 22.260,25.615 23.254 C 22.840 24.573,21.722 25.188,21.478 25.531 C 21.255 25.844,20.995 26.001,20.697 26.003 C 19.853 26.007,19.688 26.285,20.239 26.771 C 20.970 27.418,21.883 27.268,25.167 25.965 C 33.239 22.761,39.084 19.684,44.593 15.736 C 48.225 13.132,48.207 13.231,44.917 13.982 M40.250 14.934 C 39.384 15.139,39.250 15.223,39.250 15.557 L 39.250 15.943 40.500 15.374 C 42.267 14.569,42.209 14.468,40.250 14.934 M36.667 15.682 C 35.052 16.091,27.884 17.731,26.500 18.008 C 25.629 18.183,24.654 18.437,24.333 18.573 C 24.012 18.710,23.450 18.898,23.083 18.992 C 22.464 19.150,22.383 19.243,21.941 20.290 C 21.680 20.909,21.050 22.080,20.542 22.890 C 19.677 24.269,19.238 25.667,19.669 25.667 C 19.905 25.667,20.019 25.367,19.810 25.298 C 19.533 25.206,21.087 24.139,22.167 23.680 C 23.293 23.201,31.133 19.657,35.374 17.710 C 37.092 16.921,38.468 16.246,38.432 16.210 C 38.022 15.800,26.805 20.177,25.542 21.240 C 24.590 22.041,23.833 21.693,23.833 20.453 C 23.833 19.714,24.262 19.334,25.096 19.332 C 25.926 19.331,31.218 17.776,37.000 15.834 C 37.938 15.519,37.715 15.417,36.667 15.682 M383.102 21.420 C 380.724 22.318,379.233 24.654,379.674 26.790 C 380.689 31.713,386.594 35.592,390.824 34.116 C 391.879 33.748,391.903 33.726,392.232 32.829 C 392.770 31.359,392.717 29.190,392.113 27.958 C 391.535 26.781,391.392 26.775,390.711 27.900 C 388.849 30.979,386.606 31.657,384.296 29.840 C 382.741 28.616,384.155 25.583,386.280 25.583 C 387.700 25.583,388.149 26.920,386.833 27.232 C 386.604 27.286,386.510 27.287,386.625 27.235 C 386.740 27.182,386.834 27.014,386.836 26.861 C 386.838 26.625,386.862 26.620,386.994 26.829 C 387.127 27.040,387.164 27.035,387.256 26.795 C 387.660 25.742,385.704 25.897,384.784 26.990 C 383.618 28.375,384.491 29.500,386.731 29.500 C 388.734 29.500,391.773 27.101,390.650 26.406 C 390.543 26.340,390.508 26.084,390.567 25.791 C 390.676 25.246,390.373 24.000,390.130 24.000 C 390.048 24.000,390.019 23.937,390.067 23.860 C 390.219 23.614,389.699 23.053,388.712 22.402 C 388.183 22.053,387.662 21.651,387.555 21.509 C 387.278 21.140,384.015 21.076,383.102 21.420 M383.211 23.068 C 383.488 23.277,383.481 23.308,383.096 23.560 C 381.157 24.830,380.633 28.362,382.177 29.760 C 382.548 30.095,382.604 30.500,382.279 30.500 C 381.402 30.500,379.616 26.216,379.983 24.993 C 380.224 24.187,381.090 23.327,381.917 23.073 C 382.791 22.805,382.864 22.804,383.211 23.068 M33.083 25.430 C 27.635 28.103,23.803 29.583,21.853 29.765 C 20.427 29.899,19.054 30.285,18.939 30.584 C 18.870 30.764,18.537 30.812,17.527 30.785 C 15.771 30.739,14.906 31.460,15.343 32.608 L 15.511 33.050 17.047 32.946 C 20.522 32.712,31.205 30.042,41.642 26.798 L 42.868 26.417 40.833 25.784 C 39.113 25.249,38.769 25.187,38.607 25.385 C 38.503 25.514,36.365 26.264,33.857 27.053 C 31.349 27.841,29.211 28.592,29.107 28.721 C 28.876 29.006,27.255 29.334,26.097 29.331 L 25.250 29.328 25.750 29.016 C 26.025 28.845,28.125 28.121,30.417 27.408 C 32.708 26.694,34.702 26.010,34.847 25.888 C 34.992 25.766,35.156 25.711,35.211 25.767 C 35.293 25.849,36.557 25.505,37.833 25.052 C 37.984 24.999,37.752 24.849,37.250 24.675 C 35.685 24.133,35.751 24.121,33.083 25.430 M10.333 29.237 C 10.914 29.448,10.915 29.449,10.500 29.591 C 10.271 29.669,10.020 29.716,9.943 29.695 C 9.572 29.594,8.648 30.100,8.560 30.452 C 8.214 31.829,11.052 32.713,11.601 31.399 C 12.052 30.320,11.253 28.981,10.176 29.013 C 9.793 29.024,9.809 29.047,10.333 29.237 M15.637 34.797 L 15.024 34.852 15.346 35.785 C 15.522 36.299,15.667 36.932,15.667 37.193 C 15.667 37.780,15.714 37.782,19.500 37.344 C 23.839 36.842,23.970 36.818,24.082 36.526 C 24.171 36.294,24.207 36.291,24.355 36.505 C 24.504 36.719,24.517 36.719,24.456 36.500 C 24.399 36.293,23.986 36.250,22.068 36.248 C 20.514 36.246,19.628 36.176,19.378 36.035 C 19.023 35.835,19.011 35.848,19.107 36.329 C 19.222 36.901,18.954 37.333,18.485 37.333 C 17.939 37.333,17.794 36.767,18.100 35.830 C 18.252 35.366,18.348 34.963,18.313 34.933 C 18.203 34.838,16.275 34.740,15.637 34.797 M382.698 36.363 C 382.677 37.121,382.743 37.475,382.947 37.701 C 383.100 37.870,383.231 38.267,383.238 38.585 C 383.254 39.349,383.168 39.329,387.464 39.527 C 391.775 39.725,391.667 39.744,391.666 38.797 C 391.665 37.297,390.257 36.220,388.850 36.642 C 387.528 37.038,385.686 36.697,383.712 35.690 C 382.745 35.196,382.730 35.206,382.698 36.363 M395.223 37.188 C 395.282 37.680,395.331 38.294,395.332 38.551 L 395.333 39.019 395.815 38.734 C 396.151 38.536,396.346 38.243,396.462 37.767 L 396.627 37.083 396.647 37.875 C 396.670 38.793,396.701 38.807,397.443 38.242 C 397.879 37.909,398.227 37.167,397.947 37.167 C 397.484 37.167,395.817 36.744,395.516 36.550 L 395.115 36.292 395.223 37.188 M2.245 36.842 C 2.086 37.098,2.303 37.263,2.517 37.049 C 2.637 36.930,2.640 36.836,2.526 36.766 C 2.433 36.708,2.306 36.742,2.245 36.842 M394.669 38.552 C 394.668 38.933,394.733 39.145,394.833 39.083 C 395.044 38.953,395.044 38.493,394.833 38.167 C 394.713 37.981,394.671 38.080,394.669 38.552 M395.750 39.022 C 395.462 39.201,395.360 39.332,395.510 39.332 C 395.805 39.333,396.460 38.899,396.333 38.786 C 396.287 38.746,396.025 38.852,395.750 39.022 M23.333 39.030 C 23.012 39.114,20.876 39.313,18.587 39.470 L 14.423 39.757 15.170 40.198 C 15.949 40.659,17.289 41.933,17.145 42.077 C 17.099 42.123,15.529 42.506,13.656 42.928 C 9.751 43.808,9.531 43.910,11.200 44.060 C 11.869 44.120,13.896 44.371,15.703 44.617 L 18.990 45.064 19.169 45.574 C 19.786 47.324,19.660 53.503,19.000 53.845 C 18.862 53.917,17.269 54.219,15.458 54.517 C 12.746 54.964,11.351 55.333,12.378 55.333 C 12.611 55.333,18.682 56.960,18.767 57.045 C 18.797 57.075,18.634 58.333,18.406 59.841 C 17.241 67.553,17.294 66.997,17.572 68.611 C 18.175 72.116,19.165 80.891,18.978 81.078 C 18.819 81.236,15.057 81.497,12.833 81.504 L 10.583 81.511 12.042 82.066 C 12.844 82.371,14.836 83.173,16.469 83.848 L 19.438 85.075 19.720 88.913 C 20.226 95.774,20.528 100.853,20.444 101.073 C 20.398 101.191,19.511 101.642,18.472 102.074 C 15.279 103.404,7.960 107.457,8.359 107.674 C 11.060 109.148,23.325 106.949,23.747 104.915 C 23.795 104.687,23.874 104.305,23.924 104.067 C 23.974 103.829,23.930 103.533,23.826 103.408 C 23.723 103.283,23.681 103.112,23.733 103.028 C 23.785 102.944,23.631 102.322,23.391 101.646 C 22.982 100.496,22.460 93.652,22.758 93.353 C 22.799 93.312,22.842 93.534,22.853 93.847 C 22.863 94.160,22.904 94.296,22.944 94.148 C 22.983 94.000,22.784 92.388,22.500 90.565 C 21.662 85.180,21.262 80.577,21.684 81.167 C 21.823 81.362,21.840 81.325,21.759 81.000 C 21.283 79.073,21.203 73.862,21.608 71.114 C 21.939 68.866,21.699 61.815,21.236 60.167 C 20.897 58.958,21.009 57.907,21.821 54.679 C 22.402 52.369,22.679 50.641,23.514 44.104 C 23.692 42.718,23.669 42.118,23.404 41.208 C 23.322 40.929,23.363 40.833,23.564 40.833 C 23.712 40.833,23.833 40.721,23.833 40.583 C 23.833 40.446,23.689 40.333,23.514 40.333 C 22.764 40.333,22.582 40.114,23.168 39.916 C 23.559 39.784,23.769 39.589,23.852 39.280 C 23.917 39.034,23.959 38.843,23.944 38.854 C 23.929 38.866,23.654 38.945,23.333 39.030 M397.375 39.299 C 396.689 39.679,396.666 39.719,396.647 40.554 L 396.627 41.417 396.473 40.576 L 396.319 39.735 395.701 39.804 C 394.869 39.897,394.471 40.208,395.019 40.338 C 395.334 40.412,395.020 40.597,393.500 41.231 C 390.759 42.375,390.753 42.391,392.935 42.757 C 393.750 42.894,394.960 43.122,395.625 43.264 L 396.833 43.523 396.830 44.970 C 396.828 45.766,396.717 48.929,396.583 52.000 C 396.450 55.071,396.339 57.965,396.337 58.432 L 396.333 59.280 393.792 59.473 C 390.242 59.743,386.302 60.206,386.455 60.336 C 386.526 60.395,387.783 60.687,389.250 60.985 C 390.717 61.282,392.883 61.753,394.064 62.032 L 396.211 62.538 396.089 71.644 C 396.022 76.652,395.940 80.779,395.906 80.813 C 395.723 81.004,392.373 81.668,389.875 82.008 C 388.294 82.223,387.000 82.450,387.000 82.513 C 387.000 82.647,389.656 83.059,392.833 83.418 C 395.880 83.762,395.722 83.687,395.600 84.725 C 395.506 85.523,394.833 93.517,394.833 93.833 C 394.833 94.114,391.119 95.380,388.083 96.133 C 387.575 96.259,388.284 96.303,391.060 96.316 L 394.704 96.333 394.612 96.875 C 394.562 97.173,394.391 99.265,394.233 101.524 L 393.945 105.632 392.181 106.402 C 391.211 106.826,389.667 107.429,388.750 107.742 L 387.083 108.312 388.167 108.322 C 389.286 108.332,393.000 107.837,395.064 107.403 C 397.039 106.988,396.949 107.234,397.064 101.946 C 397.119 99.455,397.211 96.742,397.270 95.917 C 397.344 94.865,397.286 93.764,397.075 92.232 C 396.791 90.163,396.790 89.919,397.052 87.648 C 397.658 82.392,397.797 78.030,397.669 68.167 C 397.646 66.379,397.714 64.242,397.821 63.417 C 398.202 60.476,398.251 55.381,397.915 53.598 C 397.626 52.063,397.626 51.771,397.908 46.042 C 398.069 42.765,398.174 39.819,398.142 39.495 L 398.083 38.907 397.375 39.299 M36.500 39.587 C 35.629 39.708,34.204 39.965,33.333 40.159 C 30.950 40.690,28.895 40.770,26.592 40.421 C 25.524 40.260,24.626 40.155,24.597 40.189 C 24.568 40.223,24.492 41.746,24.428 43.574 C 24.313 46.848,24.316 46.892,24.625 46.510 C 24.970 46.084,25.120 46.055,31.083 45.258 C 32.825 45.026,34.512 44.794,34.833 44.744 L 35.417 44.651 35.417 43.688 C 35.417 42.531,35.923 41.743,37.147 40.994 C 39.880 39.321,39.793 39.131,36.500 39.587 M377.268 43.097 C 377.212 43.242,377.167 43.938,377.167 44.643 C 377.167 46.205,377.085 46.337,375.385 47.508 C 374.669 48.001,373.685 48.727,373.199 49.121 C 371.672 50.359,370.580 50.791,366.774 51.667 C 356.644 53.996,347.500 56.364,347.500 56.656 C 347.500 57.048,355.681 57.078,367.417 56.729 C 374.565 56.516,375.174 57.015,372.542 60.927 C 371.575 62.364,371.816 62.764,374.908 64.850 C 376.031 65.607,376.121 65.607,377.809 64.825 C 378.587 64.465,378.843 64.402,378.771 64.589 C 378.272 65.889,377.608 68.531,377.259 70.603 C 377.025 71.988,376.720 73.445,376.581 73.841 C 376.441 74.236,376.247 75.090,376.149 75.738 C 375.670 78.908,375.377 79.043,361.118 82.673 C 355.524 84.097,350.092 85.647,350.225 85.781 C 350.261 85.817,352.494 85.686,355.187 85.490 C 365.297 84.756,368.195 84.844,369.791 85.938 C 370.691 86.555,372.155 86.438,373.386 85.650 C 375.471 84.316,376.345 83.969,377.334 84.084 C 377.923 84.152,378.429 84.115,378.750 83.981 C 379.025 83.866,379.438 83.767,379.667 83.761 L 380.083 83.750 380.055 81.833 C 380.020 79.462,379.735 75.005,379.512 73.333 C 379.343 72.067,379.591 67.407,379.998 64.175 C 380.144 63.021,380.132 62.657,379.934 62.160 C 379.782 61.781,379.727 61.289,379.786 60.844 C 379.851 60.365,379.767 59.746,379.529 58.942 C 379.278 58.095,378.979 55.747,378.497 50.833 C 377.671 42.431,377.628 42.159,377.268 43.097 M23.618 50.959 C 23.461 51.669,23.138 52.925,22.900 53.750 C 22.617 54.729,22.396 56.090,22.264 57.667 L 22.062 60.083 22.632 61.917 C 23.480 64.647,23.534 66.316,22.863 69.018 C 22.059 72.252,21.825 77.145,22.309 80.583 C 22.926 84.962,24.395 98.857,24.415 100.500 C 24.436 102.302,24.436 102.301,25.931 101.660 C 27.534 100.973,27.881 100.949,30.144 101.359 C 33.855 102.032,42.186 101.848,43.711 101.060 C 44.419 100.694,44.099 100.347,41.877 99.073 C 38.259 96.998,35.427 95.018,35.694 94.750 C 36.169 94.276,45.116 92.529,53.250 91.323 C 58.706 90.514,59.925 89.751,56.700 89.165 C 56.086 89.053,54.383 88.705,52.917 88.391 C 49.149 87.583,46.772 87.221,42.701 86.835 C 40.749 86.650,38.221 86.349,37.084 86.167 C 35.947 85.984,34.094 85.755,32.966 85.658 C 28.937 85.311,24.328 84.187,23.489 83.348 C 22.981 82.840,22.518 81.569,22.764 81.356 C 23.268 80.919,26.224 80.033,29.564 79.318 C 38.307 77.448,38.119 77.715,32.436 75.245 C 24.094 71.619,24.467 72.213,28.659 69.239 C 31.445 67.263,31.373 67.335,33.250 64.598 C 36.548 59.789,36.639 60.141,31.443 57.616 C 25.990 54.968,24.576 53.662,24.234 50.958 C 24.059 49.574,23.924 49.574,23.618 50.959 M377.362 90.655 C 376.146 91.657,374.948 92.520,374.700 92.573 C 374.453 92.626,372.532 92.931,370.433 93.252 C 365.002 94.082,363.978 94.349,361.167 95.669 C 357.164 97.549,356.917 97.629,353.207 98.261 C 348.789 99.014,348.368 99.114,344.667 100.303 C 341.373 101.360,340.479 101.587,338.944 101.755 C 337.558 101.906,337.741 101.950,341.085 102.262 C 343.690 102.505,344.570 102.516,347.913 102.344 C 350.850 102.194,352.513 102.193,355.000 102.342 C 359.028 102.583,363.277 102.436,367.167 101.920 C 367.607 101.862,367.689 101.886,367.500 102.018 C 367.321 102.143,367.509 102.158,368.167 102.069 C 368.671 102.001,370.914 101.935,373.151 101.921 C 377.113 101.898,377.222 101.888,377.348 101.549 C 377.419 101.357,377.563 101.148,377.668 101.082 C 377.795 101.004,377.823 100.696,377.750 100.167 C 377.659 99.503,377.717 99.206,378.096 98.393 C 378.488 97.553,378.560 97.159,378.610 95.570 C 378.652 94.237,378.824 93.045,379.230 91.279 C 379.538 89.934,379.742 88.833,379.682 88.833 C 379.623 88.833,378.579 89.653,377.362 90.655 M23.039 95.167 C 23.039 95.487,23.073 95.619,23.115 95.458 C 23.157 95.298,23.157 95.035,23.115 94.875 C 23.073 94.715,23.039 94.846,23.039 95.167 " stroke="none" fill="#c58904" fill-rule="evenodd"></path><path id="path3" d="M19.996 18.268 C 17.168 21.140,13.603 23.972,13.073 23.769 C 12.861 23.688,12.656 24.105,12.387 25.167 C 12.282 25.580,12.133 25.765,11.876 25.802 C 11.516 25.854,11.515 25.848,11.775 25.085 C 12.118 24.079,12.068 24.067,10.431 24.756 C 10.201 24.853,10.147 24.834,10.237 24.688 C 10.312 24.567,10.197 24.358,9.949 24.163 C 9.297 23.649,9.243 22.820,9.760 21.237 C 9.933 20.707,9.217 21.631,8.727 22.571 C 8.056 23.855,8.383 26.603,9.322 27.571 C 9.683 27.944,9.843 28.255,9.805 28.513 C 9.640 29.663,12.373 28.819,14.057 27.199 C 15.116 26.181,21.789 16.833,21.457 16.833 C 21.431 16.833,20.773 17.479,19.996 18.268 M40.093 21.246 C 39.766 21.513,39.698 21.633,39.889 21.605 C 40.046 21.581,40.290 21.399,40.430 21.198 C 40.751 20.740,40.704 20.747,40.093 21.246 M38.919 22.269 C 38.736 22.549,38.708 22.681,38.843 22.636 C 38.957 22.598,39.112 22.401,39.187 22.200 C 39.368 21.711,39.268 21.737,38.919 22.269 M390.840 22.680 C 390.952 22.889,391.125 22.988,391.276 22.930 C 391.414 22.877,391.610 22.833,391.712 22.833 C 392.022 22.833,391.271 22.344,390.952 22.339 C 390.703 22.334,390.685 22.389,390.840 22.680 M391.135 23.669 C 391.217 23.891,391.622 24.168,392.219 24.411 L 393.172 24.798 392.792 24.108 C 392.343 23.291,390.849 22.896,391.135 23.669 M18.851 25.328 C 18.458 25.868,17.650 26.776,17.057 27.346 L 15.979 28.382 17.364 28.288 C 18.958 28.180,22.432 27.194,21.279 27.176 C 20.800 27.169,20.516 27.042,20.141 26.667 C 19.866 26.392,19.563 26.167,19.467 26.167 C 19.355 26.167,19.363 26.082,19.488 25.932 C 19.610 25.784,19.622 25.659,19.520 25.596 C 19.418 25.533,19.414 25.300,19.509 24.967 C 19.732 24.192,19.643 24.240,18.851 25.328 M391.225 25.091 C 391.285 25.525,391.333 26.094,391.333 26.357 C 391.333 26.783,391.390 26.833,391.875 26.834 C 392.461 26.835,393.312 27.279,394.042 27.965 C 394.592 28.482,394.604 28.374,394.152 27.035 C 393.769 25.899,393.303 25.410,391.951 24.725 L 391.117 24.303 391.225 25.091 M390.587 25.720 C 390.509 25.899,390.544 26.188,390.673 26.428 C 390.957 26.959,390.991 26.890,390.841 26.083 C 390.745 25.561,390.689 25.482,390.587 25.720 M391.698 27.111 C 392.887 29.515,392.942 30.426,392.073 33.299 L 391.958 33.680 392.569 33.319 C 394.604 32.119,394.938 29.771,393.306 28.139 C 392.724 27.558,391.547 26.804,391.698 27.111 M11.779 29.460 C 11.589 29.503,11.511 29.623,11.572 29.780 C 11.829 30.451,11.837 30.836,11.604 31.393 C 11.352 31.996,11.353 32.000,11.762 32.000 C 12.117 32.000,12.159 31.943,12.068 31.583 C 12.002 31.317,12.034 31.167,12.158 31.167 C 12.265 31.167,12.309 31.238,12.255 31.325 C 12.201 31.412,12.299 31.559,12.472 31.652 C 13.053 31.963,13.389 30.724,12.908 30.038 C 12.587 29.581,12.177 29.370,11.779 29.460 M8.338 30.244 C 8.219 30.388,8.182 30.621,8.252 30.790 C 8.353 31.033,8.398 30.999,8.515 30.592 C 8.682 30.009,8.625 29.898,8.338 30.244 M13.792 31.076 C 13.754 31.447,13.667 31.876,13.599 32.029 C 13.441 32.381,14.049 32.808,14.903 32.947 C 15.500 33.044,15.506 33.039,15.342 32.607 C 15.088 31.937,15.691 30.840,16.321 30.828 C 17.044 30.814,15.980 30.532,14.972 30.470 L 13.861 30.403 13.792 31.076 M18.208 30.454 C 17.910 30.491,17.667 30.596,17.667 30.687 C 17.667 30.927,18.878 30.790,18.959 30.542 C 18.997 30.427,18.965 30.345,18.889 30.360 C 18.813 30.375,18.506 30.417,18.208 30.454 M5.538 32.981 C 3.892 33.550,4.090 33.692,6.436 33.631 L 8.250 33.583 7.645 33.309 C 7.313 33.158,6.990 32.951,6.927 32.850 C 6.775 32.604,6.573 32.623,5.538 32.981 M12.417 33.178 L 11.917 33.498 12.708 33.499 C 13.515 33.500,13.656 33.389,13.300 33.033 C 13.050 32.784,13.026 32.788,12.417 33.178 M392.833 34.807 C 392.833 34.879,392.044 35.266,391.080 35.668 L 389.327 36.399 390.176 36.716 C 391.267 37.123,391.700 37.764,391.632 38.870 L 391.583 39.658 392.167 39.584 C 392.488 39.543,393.177 39.465,393.699 39.411 L 394.649 39.312 394.699 38.614 C 394.741 38.036,394.656 37.796,394.201 37.213 C 393.900 36.827,393.563 36.134,393.454 35.675 C 393.291 34.985,392.833 34.346,392.833 34.807 M22.794 36.118 C 23.001 36.158,23.301 36.156,23.460 36.115 C 23.620 36.073,23.450 36.040,23.083 36.042 C 22.717 36.044,22.586 36.078,22.794 36.118 M23.208 36.948 C 23.369 36.990,23.631 36.990,23.792 36.948 C 23.952 36.906,23.821 36.872,23.500 36.872 C 23.179 36.872,23.048 36.906,23.208 36.948 M72.214 37.123 C 72.745 37.157,73.570 37.156,74.048 37.123 C 74.526 37.089,74.092 37.062,73.083 37.062 C 72.075 37.063,71.684 37.090,72.214 37.123 M76.375 37.121 C 76.719 37.157,77.281 37.157,77.625 37.121 C 77.969 37.085,77.688 37.056,77.000 37.056 C 76.313 37.056,76.031 37.085,76.375 37.121 M79.542 37.115 C 79.702 37.157,79.965 37.157,80.125 37.115 C 80.285 37.073,80.154 37.039,79.833 37.039 C 79.512 37.039,79.381 37.073,79.542 37.115 M325.708 37.115 C 325.869 37.157,326.131 37.157,326.292 37.115 C 326.452 37.073,326.321 37.039,326.000 37.039 C 325.679 37.039,325.548 37.073,325.708 37.115 M328.044 37.120 C 328.297 37.158,328.672 37.157,328.877 37.117 C 329.082 37.078,328.875 37.046,328.417 37.048 C 327.958 37.049,327.791 37.081,328.044 37.120 M329.625 37.118 C 329.831 37.157,330.169 37.157,330.375 37.118 C 330.581 37.078,330.412 37.045,330.000 37.045 C 329.587 37.045,329.419 37.078,329.625 37.118 M89.460 37.451 C 89.668 37.491,89.968 37.490,90.127 37.448 C 90.286 37.406,90.117 37.374,89.750 37.375 C 89.383 37.377,89.253 37.411,89.460 37.451 M24.385 43.250 C 24.386 43.800,24.417 44.005,24.454 43.705 C 24.491 43.406,24.490 42.956,24.452 42.705 C 24.414 42.455,24.384 42.700,24.385 43.250 M398.212 56.833 C 398.212 57.246,398.245 57.415,398.284 57.208 C 398.324 57.002,398.324 56.665,398.284 56.458 C 398.245 56.252,398.212 56.421,398.212 56.833 M22.205 57.167 C 22.205 57.487,22.240 57.619,22.282 57.458 C 22.323 57.298,22.323 57.035,22.282 56.875 C 22.240 56.715,22.205 56.846,22.205 57.167 M21.542 61.917 C 21.544 62.283,21.578 62.414,21.618 62.206 C 21.658 61.999,21.656 61.699,21.615 61.540 C 21.573 61.380,21.540 61.550,21.542 61.917 M22.667 94.500 C 22.667 94.976,22.690 95.000,22.929 94.762 C 23.167 94.524,23.167 94.476,22.929 94.238 C 22.690 94.000,22.667 94.024,22.667 94.500 M106.875 104.282 C 107.035 104.323,107.298 104.323,107.458 104.282 C 107.619 104.240,107.487 104.205,107.167 104.205 C 106.846 104.205,106.715 104.240,106.875 104.282 M60.042 104.948 C 60.202 104.990,60.465 104.990,60.625 104.948 C 60.785 104.906,60.654 104.872,60.333 104.872 C 60.012 104.872,59.881 104.906,60.042 104.948 M69.958 105.118 C 70.165 105.157,70.502 105.157,70.708 105.118 C 70.915 105.078,70.746 105.045,70.333 105.045 C 69.921 105.045,69.752 105.078,69.958 105.118 M331.125 105.121 C 331.423 105.158,331.910 105.158,332.208 105.121 C 332.506 105.084,332.262 105.053,331.667 105.053 C 331.071 105.053,330.827 105.084,331.125 105.121 " stroke="none" fill="#915a04" fill-rule="evenodd"></path><path id="path4" d="M178.455 37.287 C 178.750 37.324,179.275 37.324,179.621 37.288 C 179.967 37.252,179.725 37.222,179.083 37.221 C 178.442 37.221,178.159 37.250,178.455 37.287 M320.711 37.786 C 320.964 37.825,321.339 37.824,321.544 37.784 C 321.749 37.744,321.542 37.713,321.083 37.714 C 320.625 37.716,320.457 37.748,320.711 37.786 M310.375 37.948 C 310.535 37.990,310.798 37.990,310.958 37.948 C 311.119 37.906,310.987 37.872,310.667 37.872 C 310.346 37.872,310.215 37.906,310.375 37.948 M76.375 38.121 C 76.719 38.157,77.281 38.157,77.625 38.121 C 77.969 38.085,77.688 38.056,77.000 38.056 C 76.313 38.056,76.031 38.085,76.375 38.121 M88.631 38.123 C 89.115 38.157,89.865 38.156,90.297 38.122 C 90.730 38.088,90.333 38.060,89.417 38.061 C 88.500 38.061,88.146 38.089,88.631 38.123 M299.961 38.121 C 300.261 38.158,300.711 38.157,300.961 38.119 C 301.212 38.081,300.967 38.051,300.417 38.052 C 299.867 38.053,299.662 38.084,299.961 38.121 M281.383 38.458 C 282.190 38.488,283.465 38.488,284.217 38.457 C 284.968 38.426,284.308 38.401,282.750 38.402 C 281.192 38.402,280.577 38.427,281.383 38.458 M289.792 38.454 C 290.090 38.491,290.577 38.491,290.875 38.454 C 291.173 38.417,290.929 38.387,290.333 38.387 C 289.737 38.387,289.494 38.417,289.792 38.454 M2.212 55.000 C 2.212 55.413,2.245 55.581,2.284 55.375 C 2.324 55.169,2.324 54.831,2.284 54.625 C 2.245 54.419,2.212 54.587,2.212 55.000 M379.557 85.083 C 379.558 85.817,379.587 86.096,379.622 85.704 C 379.657 85.312,379.657 84.712,379.621 84.371 C 379.585 84.029,379.557 84.350,379.557 85.083 M2.212 87.167 C 2.212 87.579,2.245 87.748,2.284 87.542 C 2.324 87.335,2.324 86.998,2.284 86.792 C 2.245 86.585,2.212 86.754,2.212 87.167 M132.208 103.624 C 133.194 103.654,134.806 103.654,135.792 103.624 C 136.777 103.595,135.971 103.571,134.000 103.571 C 132.029 103.571,131.223 103.595,132.208 103.624 M264.875 103.625 C 266.044 103.653,267.956 103.653,269.125 103.625 C 270.294 103.596,269.337 103.572,267.000 103.572 C 264.662 103.572,263.706 103.596,264.875 103.625 M61.554 103.792 C 66.122 103.816,73.547 103.816,78.054 103.792 C 82.562 103.767,78.825 103.747,69.750 103.747 C 60.675 103.747,56.987 103.767,61.554 103.792 M324.292 103.787 C 324.590 103.824,325.077 103.824,325.375 103.787 C 325.673 103.750,325.429 103.720,324.833 103.720 C 324.237 103.720,323.994 103.750,324.292 103.787 M220.632 104.457 C 221.208 104.490,222.108 104.489,222.632 104.456 C 223.155 104.423,222.683 104.397,221.583 104.397 C 220.483 104.397,220.055 104.424,220.632 104.457 M178.792 104.784 C 178.998 104.824,179.335 104.824,179.542 104.784 C 179.748 104.745,179.579 104.712,179.167 104.712 C 178.754 104.712,178.585 104.745,178.792 104.784 " stroke="none" fill="#777156" fill-rule="evenodd"></path></g></svg>