<svg width="170" height="183" viewBox="0 0 170 183" fill="none" xmlns="http://www.w3.org/2000/svg">
<path d="M66.8 181.05C67 180.45 66.8 178.95 65.7 178.25C65.4 178.05 64.7 177.75 64.4 177.55C49.3 173.55 38.9 163.35 33.4 147.95C32.3 145.05 31.4 141.75 31.3 139.55C31.3 139.85 30.3 130.15 31.9 121.65C32.4 118.55 33.7 114.55 34 111.75C34.2 109.15 34 104.85 33.8 102.45C33.6 100.65 33.5 99.9502 33 99.1502C31.9 96.7502 32.7 96.2502 35.1 97.6502C38.9 99.8502 42.4 102.45 44.7 106.05C46.4 108.65 48.2 112.45 49.6 115.35C49.9 116.15 50.6 116.75 51.6 115.35C54.5 110.45 57.3 105.95 61.4 100.95C66.1 94.9502 68.3 90.1502 68.1 80.8502C68.1 78.4502 68.1 76.8502 68.1 74.6502C68.1 68.4502 67.7 63.9502 71.1 57.8502C73.9 53.2502 78.8 48.2502 81.9 44.2502C85.3 39.7502 83.5 56.9502 83.8 58.0502C84 63.8502 86.7 71.1502 91.9 76.5502C97.5 82.2502 109.5 89.3502 111.4 96.9502C111.6 97.6502 111.8 98.3502 112.2 99.4502C113 101.95 113 104.95 113.3 107.35C113.4 107.75 113.5 108.25 114 108.45C114.4 108.45 114.5 108.65 115.3 108.05C118.3 105.45 123.4 101.35 123.1 96.5502C123.4 94.9502 123.5 92.3502 123.7 91.1502C123.9 90.6502 124 89.8502 124.7 89.6502C125.1 89.6502 125.3 89.6502 125.9 90.4502C128.3 93.4502 130 95.0502 131.8 99.4502C139.4 119.45 139 157.75 120.5 171.55C118.4 172.95 111.3 177.75 111.2 177.85C111.2 177.85 111 177.95 111 178.05C109.7 179.55 110.8 181.15 111.7 182.65H128.5C127.4 182.55 126.3 182.35 125.2 182.35C125.1 182.35 125 182.35 124.8 182.35C124 182.45 123.3 181.95 123.1 181.25C123 180.55 123.3 179.95 123.9 179.65C138.9 172.45 154.1 162.65 159.1 145.85C160.4 141.65 161.6 137.45 162.6 133.15C159.6 135.15 156.6 136.95 153.5 138.65C152.1 139.25 150.9 139.65 149.3 139.45C141.9 137.45 147.4 129.25 148.5 124.75C152.6 112.15 154.2 98.0502 150 85.2502C148.1 80.0502 144.8 75.6502 141.6 71.1502C138.3 65.7502 135.5 60.9502 132.1 55.3502C130.4 51.7502 130.1 47.6502 130.4 43.6502C129.8 44.3502 129.2 45.0502 128.8 45.7502C125.7 50.6502 125.9 57.1502 125.7 62.9502C126 69.8502 122.7 76.3502 114.8 76.4502C102.1 77.5502 99 62.5502 102.9 53.3502C110.6 33.9502 104.1 14.6502 87.8 2.0502C85.8 0.350201 83.8 -1.3498 81.7 -3.0498C81.7 -2.8498 81.8 -2.7498 81.9 -2.5498C85.2 9.2502 82.8 19.7502 73.4 27.7502C61 40.4502 47.9 50.7502 51.7 68.7502C53.4 74.6502 55.4 83.6502 49.8 88.1502C46.6 90.1502 43.7 89.6502 40.8 88.1502L42 88.5502C32.7 85.6502 29.3 74.3502 29.9 65.5502C29.9 64.6502 29.9 63.6502 29.9 62.7502C29 63.9502 28 65.1502 27.2 66.2502C24.7 69.7502 20.9 76.4502 19.6 78.8502C15.9 88.0502 13.2 97.1502 13.3 106.95C13.3 110.95 13.4 115.55 13.6 119.55C14.6 130.25 19.5 141.05 24.5 150.55C20.9 149.45 12.5 146.75 6.59998 144.85C7.59998 148.95 9.29998 152.25 11.5 155.85C14.5 160.55 17.4 165.25 21.8 168.95C25.8 172.35 31.2 175.85 35.9 178.35C41 180.25 47.3 180.65 52.9 181.25C53.7 181.25 53.8 182.55 53 182.75H66.3C66.3 182.25 66.5 181.75 66.6 181.35L66.8 181.05ZM95.8 77.8502C95.8 77.8502 95.8 77.8502 95.8 77.9502C95.8 77.9502 95.8 77.8502 95.8 77.7502V77.8502Z" fill="#DE4100"/>
<path d="M111.2 177.85C111.2 177.85 111.4 177.75 111.4 177.65C111.5 177.65 118.6 172.75 120.7 171.35C139.1 157.45 139.5 119.25 132 99.2502C130.1 94.8502 128.5 93.3502 126.1 90.2502C125.5 89.5502 125.3 89.5502 124.9 89.4502C124.1 89.6502 124 90.4502 123.9 90.9502C123.8 92.1502 123.6 94.7502 123.3 96.3502C123.5 101.15 118.5 105.25 115.5 107.85C114.7 108.45 114.6 108.35 114.2 108.25C113.7 108.05 113.6 107.55 113.5 107.15C113.2 104.75 113.2 101.75 112.4 99.2502C112.1 98.1502 111.9 97.4502 111.6 96.7502C109.7 89.2502 97.6 82.0502 92.1 76.3502C86.9 70.8502 84.1 63.6502 84 57.8502C83.7 56.8502 85.5 39.5502 82.1 44.0502C78.9 47.9502 74 52.9502 71.3 57.6502C67.9 63.7502 68.3 68.2502 68.3 74.4502C68.3 76.6502 68.3 78.2502 68.3 80.6502C68.4 89.9502 66.2 94.7502 61.6 100.75C57.5 105.75 54.8 110.25 51.8 115.15C50.8 116.45 50.1 115.95 49.8 115.15C48.4 112.25 46.6 108.45 44.9 105.85C42.6 102.15 39.1 99.6502 35.3 97.4502C32.9 96.0502 32.1 96.5502 33.2 98.9502C33.7 99.7502 33.8 100.45 34 102.25C34.2 104.75 34.4 108.95 34.2 111.55C33.9 114.25 32.5 118.35 32.1 121.45C30.5 130.05 31.6 139.75 31.5 139.35C31.5 141.55 32.5 144.95 33.6 147.75C39.1 163.15 49.5 173.35 64.6 177.35C64.9 177.55 65.6 177.85 65.9 178.05C67 178.85 67.2 180.25 67 180.85C67 181.25 66.8 181.75 66.7 182.25H112C111.1 180.75 110.1 179.15 111.3 177.65L111.2 177.85ZM66.8 146.65C63.2 146.65 60.3 142.15 60.3 136.55C60.3 130.95 63.2 126.45 66.8 126.45C70.4 126.45 73.3 130.95 73.3 136.55C73.3 142.15 70.4 146.65 66.8 146.65ZM103.2 134.15C103.2 128.55 106.1 124.05 109.7 124.05C113.3 124.05 116.2 128.55 116.2 134.15C116.2 139.75 113.3 144.25 109.7 144.25C106.1 144.25 103.2 139.75 103.2 134.15Z" fill="#F7B32B"/>
<path d="M109.7 144.25C113.29 144.25 116.2 139.728 116.2 134.15C116.2 128.572 113.29 124.05 109.7 124.05C106.11 124.05 103.2 128.572 103.2 134.15C103.2 139.728 106.11 144.25 109.7 144.25Z" fill="#4F1402"/>
<path d="M66.8 126.45C63.2 126.45 60.3 130.95 60.3 136.55C60.3 142.15 63.2 146.65 66.8 146.65C70.4 146.65 73.3 142.15 73.3 136.55C73.3 130.95 70.4 126.45 66.8 126.45Z" fill="#4F1402"/>
<path d="M136.1 178.85C138.1 178.05 140.2 177.05 142.1 176.05C147.6 172.95 152 168.65 156 163.85C163.8 153.95 165.7 141.65 169.4 129.95C170.6 124.35 165.1 127.95 163.5 128.45C160 129.65 156.9 131.05 153.5 132.55C156.2 126.15 158.4 119.45 159.6 112.65C162.3 97.8502 160.4 81.0502 151.4 68.5502C147.3 63.0502 141.9 57.9502 138.5 52.1502C138.1 51.3502 137.9 50.7502 137.6 49.7502L137 46.5502C136.7 44.7502 137 42.5502 137.4 40.3502C137.6 39.2502 137.7 38.1502 137.8 36.9502C137.8 36.0502 137.8 34.8502 137.4 33.9502C137.2 33.5502 137.1 33.2502 136.7 32.9502C136.7 32.9502 136.5 32.9502 136.4 32.7502C136.2 32.7502 136 32.5502 135.7 32.6502C134.6 32.7502 134.2 33.0502 133.4 33.4502C131.1 34.4502 129.2 36.3502 127.4 38.2502C125.1 40.8502 122.8 44.0502 121.6 47.4502C119.8 52.4502 119.7 57.5502 119.3 62.5502C119 65.9502 119 69.4502 114.9 69.1502C113 69.1502 111.2 68.8502 110.3 66.8502C107.7 62.0502 110.6 56.0502 112.2 51.1502C114.3 44.5502 115 37.3502 114.1 30.4502C111.1 9.75021 94.8 -7.5498 74.9 -12.6498C74.6 -12.6498 74.3 -12.7498 74.1 -12.8498C73.9 -12.8498 73.8 -12.8498 73.5 -12.9498C72.1 -13.3498 71.2 -11.2498 72.5 -10.5498C73.6 -9.84979 74.5 -7.9498 75.4 -6.3498C77.1 -3.1498 77 0.250205 77 3.9502C77 9.0502 75.7 14.2502 72.2 18.0502C54.2 35.4502 36.5 47.6502 45.3 75.6502C45.6 77.5502 45.8 79.4502 45.4 81.2502C42.9 80.7502 40.9 79.2502 39.4 76.7502C37.4 73.5502 36.8 69.0502 36.7 65.2502C36.3 60.5502 36.4 55.3502 35.1 50.7502C34.7 49.6502 33.8 49.0502 32.9 48.9502C31.8 48.9502 30.8 49.2502 30.3 50.1502C30.1 50.5502 30 50.9502 29.9 51.4502C29.5 52.7502 28.6 53.9502 27.8 55.0502C26.8 56.3502 25.6 57.8502 24.3 59.0502C19.5 63.5502 16.1 69.5502 12.6 75.0502C10 80.7502 7.7 86.5502 6.2 92.6502C4.2 100.85 4.1 109.45 4.7 117.85C5.4 125.75 8.4 132.85 11.9 139.65C7 138.55 1.4 137.35 0 137.05C0.3 139.55 0.600002 143.05 0.900002 145.45C1.8 153.45 6.4 160.55 10.8 166.95C16.3 174.55 24.3 179.05 32.9 182.25H53.4C54.2 182.15 54.1 180.75 53.3 180.75C47.7 180.25 41.4 179.85 36.3 177.85C31.7 175.35 26.3 171.85 22.2 168.45C17.8 164.85 14.9 160.05 11.9 155.35C9.7 151.65 8 148.45 7 144.35C13 146.25 21.3 148.85 24.9 150.05C19.9 140.55 15 129.75 14 119.05C13.8 115.05 13.7 110.45 13.7 106.45C13.7 96.6502 16.3 87.4502 20 78.3502C21.3 75.9502 25.1 69.2502 27.6 65.7502C28.5 64.6502 29.4 63.4502 30.3 62.2502C30.3 63.2502 30.3 64.1502 30.3 65.0502C29.7 73.7502 33 85.1502 42.4 88.0502L41.2 87.6502C44.1 89.1502 47 89.6502 50.2 87.6502C55.8 83.1502 53.8 74.1502 52.1 68.2502C48.3 50.2502 61.4 39.9502 73.8 27.2502C83.2 19.2502 85.6 8.75021 82.3 -3.0498C82.3 -3.2498 82.2 -3.3498 82.1 -3.5498C84.1 -1.8498 86.2 -0.149789 88.2 1.55021C104.6 14.1502 111.1 33.4502 103.3 52.8502C99.4 62.0502 102.6 77.0502 115.2 75.9502C123.1 75.9502 126.4 69.3502 126.1 62.4502C126.4 56.7502 126.1 50.1502 129.2 45.2502C129.7 44.4502 130.2 43.7502 130.8 43.1502C130.5 47.0502 130.8 51.2502 132.5 54.8502C135.9 60.4502 138.6 65.2502 142 70.6502C145.2 75.1502 148.4 79.5502 150.4 84.7502C154.6 97.5502 153 111.55 148.9 124.25C147.8 128.85 142.3 137.05 149.7 138.95C151.3 139.15 152.5 138.75 153.9 138.15C157 136.45 160 134.65 163 132.65C162 136.95 160.8 141.15 159.5 145.35C154.5 162.15 139.3 171.95 124.3 179.15C123.7 179.45 123.4 180.05 123.5 180.75C123.6 181.55 124 182.25 124.8 182.15C124.9 182.15 126.3 182.15 126.4 182.15C127.5 182.15 127.7 182.05 128.8 182.15" fill="#240040"/>
</svg>
