<?xml version="1.0" encoding="UTF-8"?>
<svg id="Layer_1" xmlns="http://www.w3.org/2000/svg" version="1.1" viewBox="0 0 2562 1919">
  <!-- Generator: Adobe Illustrator 30.1.0, SVG Export Plug-In . SVG Version: 2.1.1 Build 136)  -->
  <defs>
    <style>
      .st0 {
        fill: #010101;
      }

      .st1 {
        fill: #e0c8a7;
      }

      .st2 {
        fill: #1d1524;
      }

      .st3 {
        fill: #fff;
      }

      .st4 {
        fill: #a8673f;
      }

      .st5 {
        fill: #181021;
      }

      .st6 {
        fill: #781c10;
      }

      .st7 {
        fill: #a3623c;
      }

      .st8 {
        fill: #d7c0a2;
      }

      .st9 {
        fill: #311a11;
      }

      .st10 {
        fill: #c79b93;
      }

      .st11 {
        fill: #a6643d;
      }

      .st12 {
        fill: #410001;
      }

      .st13 {
        fill: #751a0f;
      }

      .st14 {
        fill: #f8f6f6;
      }

      .st15 {
        fill: #e4c66f;
      }

      .st16 {
        fill: #771b10;
      }

      .st17 {
        fill: #372a30;
      }

      .st18 {
        fill: #420001;
      }

      .st19 {
        fill: #fafafa;
      }

      .st20 {
        fill: #dec6a5;
      }

      .st21 {
        fill: #420000;
      }

      .st22 {
        fill: #fdfcfc;
      }

      .st23 {
        fill: #2e2028;
      }

      .st24 {
        fill: #a15e08;
      }

      .st25 {
        fill: #f2f0f1;
      }

      .st26 {
        fill: #a8663e;
      }

      .st27 {
        fill: #d1bb9e;
      }
    </style>
  </defs>
  <g>
    <path class="st2" d="M824.19,938.63l4.24,3.78h2c-2.42-.52-4.71-1.77-6.24-3.78-.37-1.69-2.11-4.84-3.69-6.26l-31.6-28.31c-2.84-2.55-3.78-11.74-.82-13.68,16.33-10.7,42.06,17.53,60.68,23.1-7.02-15.66-55.2-45.98-41.14-62.37,13.49-15.72,54.41,39.99,72.93,44.6-2.59-10.51-6.85-17.39-11.63-25.4l-27.72-46.47c-2.3-3.85-3.49-13.6-.13-15.93,8.83-3.47,20.75,1.61,27.45,8.79,17.87,19.16,32.84,39.62,48.37,61.06,5.34,7.36,12.8,14.78,21.7,17.38,2.8.82,7.8-3.62,8.4-6.13,2.78-11.73-7.21-5.64-22.37-22.12-16.58-18.01-23.3-40.76-28.73-63.75-14.55-3.27-20.11-20.13-29.39-28.42-10.07-8.99-24.62-10.09-31.45-24.99-6.97-15.2-12.02-31.34-8.03-49.3,10.87-48.94,37.64-81.31,66.76-120.99-12.77.07-25.35-.02-30.87-10.79-21.01-40.93,89.62-105.9,124.05-116.61-40.7-39.28-51.77-80.02-52.4-135.37-.93-81.59,28.56-184.83,121.92-199.8,44.82-7.19,88.52,7.31,119.38,40.75,24.33,26.35,40.96,59.15,45.92,95.05,2.11,15.25-5.44,27.84-10.21,42.84l36.94-7.1,28.84-.97,30.27-5.09c72.51-46.39,147.17-63.03,232.79-62.52,80.01.48,154.86,16.77,198.98,89.79,27.24,45.09,41.08,96.05,40.96,148.89-.07,32.21-3.19,62.17-17.16,91.34-22.43,46.82-60.22,83.94-107.45,105.53-27.93,12.77-57.9,16.66-87.39,8.94-16.71-4.37-29.35-13.98-43.81-24.3-.11,31.86,21.38,72.3,37.77,98.2l22.26,35.18c33.85,5.12,64.07-2.56,97.47-8.26-28.98,16.59-60.19,14.62-92,16.48,2.04,3.73,5.85,9.49,8.79,13.06,26.95,4.75,53.06,5.6,80.16,2.62,20.31-2.23,36.78-11.21,55.22-21.47-8.86,14.97-25.99,19.83-41.59,24.44-28.29,8.35-56.17,5.77-87.88,3.94,14.38,22.71,25.69,45.95,42.39,65.61l31.07,36.58,50.91,67.01c42.85,56.4,79.16,132.17,31.42,197.08-18.01,24.49-44.83,35.38-71.56,46.85-16.19,6.95-28.79,17.9-48.98,14.59-22.15-3.63-45.13-9.89-63.53-23.75-10.87-8.19-23.23-16.23-25.91-31.18,21.88,26.37,50.7,40.48,84.08,42.68,15.9,1.05,32.37-.99,44.16-14.01-4.84-60.2-41.77-118.05-92.17-151.8-33.02-22.11-68.73-47.36-108.43-50.1l-89.47-6.19c-22.75-1.57-41.56-14.38-63.66-26.4,4.78,13.01,13.45,22.05,15.8,34.34,9.35,49-34.57,116.14-45.81,165.58-1.66,7.29,5.7,16.29,10.35,21.94,66.21,80.51,103.03,125.8,73.46,234.07-12.44,45.53-13.43,50.85-11.08,99.06.68,13.88,5.72,27.16,14.82,37.53,37.74,42.98,16.75,68.95,53.02,112.96,5.32,6.46,11.29,16.75,10.99,25.06-.54,14.87-28.12,38.32-43.33,27.27-3.33-2.42-7.28-5.11-10.03-6.27s-10.24,2.2-11.43,5.12c-21.36,52.47-84.02,81.71-108.49,55.15-3.12-3.39.39-10.07,2.82-13.64,16.11-23.65,33.42-46.19,45.1-72.39,6.69-15.01-1.6-34.95-9.63-47.57-9.32-14.66-20.17-26.17-32.63-38.08-34.56-33.03-64.18-68.81-90.81-110.86-17.77,55.31-50.87,97.48-91.55,135.58-7.39,6.92-13.99,14.47-20.98,21.93.85,33.4.74,64.95-3.02,97.98-1.18,10.36-5.14,20.64-7.16,30.49-2.19,10.64-6.79,16.86-19.36,17.44-8.5.39-14.95-2.13-18.3-11.37-4.03-11.11-17.34-23.92-30.36-19.83-25.01,7.87-49.28,14.08-75.65,7.15-9.09-2.39-20.17-11.86-22.05-21.61-1.41-7.34,8.36-15.34,14.51-17.87,23.88-9.81,44.52-21.91,64.61-38.48l8.36-109.33c2.71-35.49,9.84-68.58,22.13-103.3-7.15-3.5-15.55-1.64-21.86,3.97-7.04,6.25-19.54,8.11-27.19.64-11.32-11.07.49-32.97-8.13-62.74-3.8-13.12-1.75-25.11,4.14-37.22,8.85-18.2,18.65-34.88,30.5-51.28,5.55-7.68,7.23-16.66,8.93-25.99,11.76-64.44,22.72-80.19,63.27-130.45-4.64-33.6-31.33-38.75-53.1-69.37-2.15-3.02-8.91-5.96-11.06-8.75l-19.18-24.89-46.34-57.81c-8.54-2.35-18.48-3.38-26.73-8.15l-121.51-70.35c-2.63-1.52-2.71-8.41-1.28-10.22,11.03-14.04,37.77,4.61,44.38,2.03Z"/>
    <path class="st6" d="M1220.03,544.94c.06,3.21,3.18,3.93,9.36,2.16,19.76,2.74,38.06,10.92,54.9,24.55l.03,4.89,2.1,2.17c3.71-4.45,6.7-.99,3.87,3.68,16.76,6.54,10.56,34.83-7.19,25.8-4.81-3.65-11.15-7.37-16.55-9.71-5.67-8.63-18.91-14.65-27.6-19.84l-4.42-6.87c-12.82,6.57-22.67-6.13-34.62,6.31,10.25-1.07,17.32-1.66,27.55-.55l.34,16.99c-16.91-.42-50.62,2.79-45.7,25.21,11.54-8.84,21.56-17.5,34.74-14.33-14.64,6.66-27.37,11.85-33.61,28.42l7.29-1.58c2.58,2.56,2.84,6.59.78,12.08.86,5.03-.08,8.94-2.82,11.72l-3.47.05c-.89.01-1.71,4.68-1.11,5.34l11.17,12.46c3.64,4.06,8.39,6.4,13.11,9.19,15.25,9.03,30.96,16.07,48.82,13.27l3.2,9.61,4.63-9.98,23.25-7.1,2.86,18.08c7.98-5.41,3.45-14.11,2.76-24.16,13.84,8.69,7.82,24.07,4.52,35.54-14.71,30.37-53.76,51.87-84.58,63.79-82.42,31.86-209.17-9.04-232.6-99.82-4.03-15.6-11.92-50.6-5.07-65.16.98-2.09,2.82-3.48,4.84-4.52l4.84-4.61c45.03-8.98,71.98.54,111.01,20.6,2.12,1.09,1.79-1.76,1.07-2.86-18.84-28.63-66.25-47.97-99.75-36.56l-5.87-2.41c-4.96-4.2-1.23-13.73,5.19-13.82l4.13-3.9c5.98-.51,6.2-1.89.66-4.13-5.57-.55-5.57-3.98-4.53-8.89,1.9-8.99,12.64-19.44,20.92-21.77-.02-2.01.06-4.26,1.41-5.69,4.66-4.92,24.19-10.28,31.72-10.64l-2.75-3.13c.2-12.28,20.71-19.96,31.76-23.32,37.78-11.5,99.79-1.36,128,27.45,6.01,6.14,16.82,18.17,11.43,25.99Z"/>
    <path class="st22" d="M1109.96,1318.76c-19.03-35.49-57.38-44.28-96-43.23,4.87-18.99,13.03-37.05,25.02-52.9l34.27-45.29c4.7-8.16,8.22-16.4,8.62-25.19l1.78-39.52c1.28-28.33,6.53-55.6,11.1-83.88,8.2-50.77,55.5-54.85,98.84-69.73,9.92-3.41,19.87-6.53,30.3.46,29.49,19.77,52.46,48.57,65.11,82.07,7.8,20.66,5.03,42.11-7.25,60.47-12.17,18.19-26.08,34.5-39.64,51.89-7.66,9.82-15.32,19.09-24.91,26.98-24.75,20.37-42.29,44.21-60.33,70.21l-46.91,67.64Z"/>
    <path d="M1418.3,1723.97c-10.87,6.79-16.72-12.14-31.38-8.7-6.01,1.41-10.71,5.96-13.14,11.94-12.04,29.62-35.76,51.6-67.35,58.65-9.86,2.2-21.51-1.46-29.2-7.59l39.32-56.27c14.72-21.06,18.46-44.16,4.99-67.87-8.42-14.82-19.09-28.88-31.6-41.66-30.83-31.5-58.74-63.36-83.78-100.04,24.69-40.38,115.62-62.89,159-63.58l-4.16,40.12c-1.89,18.23-1.72,37.57,3.25,55.51,3.81,13.77,13.51,24.53,21.84,35.96,22.76,31.26,11.47,62.62,39.92,96.13,6.42,7.56,11.41,14.75,17.86,24.02-7.52,9.7-15.2,16.9-25.56,23.37Z"/>
    <path d="M946.48,1732.43c3.04,2.96,2.99,5.19-.38,7.44-15.57,3.72-21.39,10.07-17.47,19.04,22.65,3.2,50.68,1.31,71.11-10.23,17.36-9.8-1.86-13.3-11.95-13.25l-11.95-6.31-25.73,6.52-3.64-3.2,28.68-19.48,5.79-.46c1.29-.1,1.91-4.62,2.05-6.14l10.87-116.43c2.93-31.4,9.88-60.93,19.71-90.57,2.06-6.21,2.54-12.12.78-17.64-5.08-4.32.78-10.07,5.91-5.68,3.26-1.06,7.25-6.64,9.72-8.07,29.65-17.18,113.35,36.99,137.41,60.3-16.74,35.53-40.81,65.07-67.93,92.68l-19.72,20.07c-9.31,9.48-10.78,18.3-11.05,31.11l-1.23,56.73c-.48,22.44-3.33,44.44-10.02,65.68-6.6,2.55-17.88,3.22-22.33-.6-3.5-9.65-7.16-18.51-13.48-22.92-24.55-17.14-42.38,13.16-90.08,3.96-8.93-1.72-17.68-5.68-23.48-12.72-4.53-5.51-1.12-13.65,4.97-16.14l33.42-13.67Z"/>
    <path class="st21" d="M1018.46,534.29l-14.09,16.37c-3.29,3.82-4.19,10.31-2.3,14.28,2.88,2.61,1.28,5.28-4.79,8.03-1.79,4.43-3.8,9.53-5.19,13.82l.82,4.32-10.91,11.2c.67,4.21.27,7.65-1.21,10.33-4.15,22.09-4.23,46.31,4,68.33l6.55,17.53c9.3,24.89,29.28,42.88,51.34,58.02,34.77,23.87,76.47,33.22,118.71,32.91,46.26-.34,109.49-35.6,136.82-71.07-2.65,9.19-5.22,20.57-10.77,28.87l-7.42,11.11,3.03,1.65c.6.33.41,2.9.15,3.74-6.58,21.65-11.42,43.29-15.13,65.81-58.46,25.53-144.62,20.21-202.85-.11-28.76-10.03-54.45-24.62-74.96-46.84-23.54-25.5-37.62-56.7-37.57-92.05.05-36.98,4.4-74.28,19.8-108.01,8.57-18.77,23.27-34.18,35.52-49.45,3.51-2.79,7.74-2.5,10.46,1.21Z"/>
    <path class="st10" d="M1374.6,1407.5c-12.87-1.15-26.29-5.84-40.86-6.54-43.99-2.12-87.02,7.37-124.6,29.89-33.58,20.12-10.95,6.91-32.65,31.86-23.71-42.98-34.56-74.56-29.11-124.14,58.78-1.41,119.52-15.36,161.42-55.73l25.63-24.7c2.97.33,5.29,1.68,6.88,4.16,30.08,47.2,39.29,91.89,33.29,145.2Z"/>
    <path class="st4" d="M1626.54,862.48c-2.72,3.46-7.73,2.56-15.03-2.69-16.8-23.04-35.82-43.96-57.08-62.76l-7.1-.84c-1.52,3.81-3.91,5.91-7.18,6.29,12.17,16.32-59.76-68.12-21.58-15.27l30,41.53c-4.29,4.42-19.38,3.88-22.6-1.69-25.17-68.15-27.09-37.18-20.56,11.49l-4.65,1.93c-1.75,2.1-3.08,1.29-4.02-2.42l-5.71-26.45-2.11.99c-4.67.05-8.77-3.07-12.31-9.34l-5.97-5.67c-2.8,9.45-6.92,13.7-12.37,12.73-10.03-18.49-23.94-16.08-25.81,5.54-2.72,6.39-7.99,10.54-15.82,12.45l-4.2.4c-1.44,1.93-1.8,3.67-.09,5.83l5.95,25.84-6.88-2.5-19.92-29.89c-4.51-5.68,1.33,26.14,1.64,26.38l-4.75,9.23c2.1,7.29,1.41,12.31-2.05,15.03-5.19,2.66,3.24,13.18,7.01,17.88,14.43,17.95,35.89,31.29,55.61,43.05,38.69,20.58,77.3,42.08,115.81,64.51,22.33,13.3,42.79,28.74,61.37,46.34,8.43.66,12.53,3.91,12.31,9.76,7.18,9.46,15.03,18.44,23.57,26.93l.19,3.48c21.64,24.32,34.82,78.34,21.71,110.09l-6.76-33.24c-11.21-55.11-51.71-98.62-98.88-128.65-23.84-15.17-47.85-25.86-73.34-37.63-4.89-2.26-8.45-3.7-14.46-5.03-13.52-2.99-25.94-9.33-38.25-13.43l.81-2.63c34.35-3.86,9.32-18.08-9.43-22.25-21.02-.7-27.43-5.65-19.22-14.84l-1.68-2.94c-38.53-21.16-60.81-50.84-68.31-94.34-1.5-2.91-5.24-2.55-5.65.24-5.83,39.6,8.53,79.43,45.44,98.18,3.83,6.31,4.03,11.08.59,14.31-24.76-11.18-49.19-22.88-67.1-45.51-22.99-29.03-9.4-20.6-16.1-41.12-5.82-17.81-8.35-35.64-6.21-53.41,19.96,3.96,39.17,7.46,56.83-.23l96.2-41.91c1.88-.82,4.5-2.58,5.66-3.46.88-.67-.73-4.83-2.09-5.19l-41.54-10.89c-10.94-5.47-22.33-10.04-34.17-13.7-1.43-.8-4.84-2.02-6.43-2.68,29.75-10.43,44.49-26.03,69.28-45.88,16.08,33.01,41.38,54.45,70.62,72.69,21.47,13.4,40.97,28.12,66.95,32.7l39.84,62.67Z"/>
    <path class="st26" d="M1424.61,619.07c-1.07,5.8-7.21,5.37-8.38-.29-.46,1.29,4.76-18.38.41-17.99l-3.53-2.58c2.69-8.91,3.14-17.41,1.33-25.51l4.46-29.51c.18-1.19-2.59-4.77-3.01-3.89-5.93,12.47-5.7,29.16-12.93,45.88-10.7,24.75-23.83,45.26-37.36,68.47l-18.25,1.11c18.2-51.27,32.79-102.06,27.79-155.65-8.66-9.31-2.86,42.98-6.83,47.71l-4.5-4.87-6.03-28.95,2.45-6.19c.91-2.95,3.29-5.68,6.59-8l96.61-68c18.72,17.28,33.58,36.67,42.58,59.14l-8.74,34.85c-3.77-6.09-31.03-94.56-43.36-83.25,12.95,25.56,37.48,79.99,40.5,106.67,2.5,22.11,5.42,41.39,10.79,62.8,5.77,22.98,3.42,47.76,5.49,71.39,1.02,11.7-1.89,22.2,3.92,32.9l2.8-49.13c9.68,39.64,27.22,71.25,50.07,104.91-14.51-2.6-31.32-4.49-42.42-13.45-24.12-19.46-40.19-45.95-53.59-73.66-16.06-33.2-24.2-67.52-30.53-103.91-4.57-26.3-5.57-52.79-2.98-79.38.22-2.22-8.67-25.48-9.29,39.75-.07,7.08-3.25,14.32-3.69,20.21-1.51,19.82-1.91,39.56-.37,58.37Z"/>
    <path class="st0" d="M1074.35,1070.56c2.89-.56,2.66,2.34.26,3.7-1.01,4.5.95,10.6,1.77,16.21-1.55,20.67-1.57,40.73-.14,61.08l-19.91,9.62c-14.79-33.66-54.77-43.26-57.8-88.86-2.4-36.12,21.72-64.32,50.27-80.93l59.63-15.41,13.94-13.05,6.27-4.73c4.51-.92,9.16-.94,13.97-.04l4.97-5.29c25.97-8.49,51.82-17.42,77.53-26.79l7.17,2.13c10.92,4.68,27.75-5.27,37.66-11.29,9.77,16.82,21.28,32.81,34.12,47.58,19.22,22.11,33.91,40.22,26.96,70.53-12.21,53.31-30.37,80.14-43.68,129.95-12.42-5.26-23.5-8.42-35.76-10.4,33.4-37.21,67.27-69.68,45.06-122.87-13.62-32.64-37.22-60.78-67.78-79.8-18.67-11.62-78.22,9.62-99.18,17.64-11.42,4.37-20.59,12.41-28.89,21.17-9.69,10.21-20.14,19.96-27.27,32.11-7.36,12.55-6.56,46.31.84,47.72Z"/>
    <path class="st18" d="M974.43,1014.2l-14,10.16-9.28-5.22c-12.63-1.3-28.09,1.05-40.03-5.15-42.98-22.3-82.27-47.66-124.41-73.11,11.38-8.94,55.98,21.44,62.86,13.28,1.16-1.38.36-6.68-1-7.86l-40.57-35.25c-4.46-3.88-7.46-7.45-11.43-12.42,6.48.17,11.41,2.04,16.31,5.42,15.53,10.72,31.45,18.02,48.23,24.62,3.1.32,5.17,2.44,6.21,6.35,13.42,11.86,30.36,17.6,50.82,17.22l14.76,6.24c19.2,19.86,29.59,18.21,31.17-4.96-7.92-6.78-13.96-14.1-18.1-21.95,2.88-12.77-3.16-14.64-18.12-5.59-5.68.02-11.07-1.81-16.16-5.51-12.57-12.03-32.38-21.58-41.02-1.23l-4.33,1.03c-12.06-13.46-24.56-26.47-37.96-39.73-6.98-6.91-13.07-14.07-16.1-24.28,10.63,1.04,17.07,7.62,24.16,14.15l25.94,23.89c5.91,5.44,19.18,9.44,24.96,2.79-.34-21.89-32.07-56.36-41.91-83.16,13.43-10.52,55.69,54.11,62.95,64.52,12.09,17.32,30.09,32.03,52.82,21.23l-11.21-2.46c10.74-11.5-9.2-52.41,5.99-76.67,5.49,9.13,3.36,19.19,6.57,27.74,6.01,15.98,15.15,29.6,22.82,45.02,4.77,9.59,4.09,22.28,5.46,33.22,3.88,30.99-1.09,61.63-16.41,87.67Z"/>
    <path class="st26" d="M1586.81,882.47c19.81,27.92,38.99,56.18,56.23,87.18,30.2,54.31,59.79,126.16,61.51,188.78.24,8.78-6.5,20.08-10.83,27.84.87-37.18-7.7-75.08-27.01-107.94-1.65-3.14-1.14-3.65,1.84-1.65.67-.39,1.18-.71,1.14-.76-11.76-17.73-24.85-34.77-39.71-50.01-.09-.09.02,1.01.19,2.44,2.71,2.75,1.62,3.8-1.95,2.04-21.6-20.21-46.44-36.79-71.44-54.14-34.89-24.21-68.47-47.7-100.1-75.66-10.26-9.07-18.77-19.04-24.35-30.17l4.45-2.22c15.76,15.64,33.39,26.59,52.9,32.87,7.82-.28,9.14-5.94,3.96-16.98.35-7.54,10.3-11.67,14.6-5.67,5.55,6.83,5.14,3.62-1.23-9.64l1.24-4.47c-.63-4.81.74-4.33,4.72-2.55,11.87,22.89,31.77,49.15,60.24,42.43,2.07-8.3,6.6-15.53,13.59-21.69Z"/>
    <path class="st18" d="M1112.38,456.28c.71-3.53,3.27-2.66,7.67,2.61,2.11-3.99,4.06-3.61,5.82,1.16.53-5.01,2.25-5.01,5.15-.01l11.81,4.52c.79-3.19,1.93-2.54,3.42,1.97l5.52,3.64c1.05.69,3.06-2.62,3.46-3.39,2.14-8.47,15.67-3.47,19.14,3.03,2.57.82,5.68,1.88,8.21,2.5,3.46-4.13,19.11-6.6,22.43-1.79,5.93-1.37,8.58-2.23,14.89-11.09,16.54,38.31,53.5,80.32,101.26,62.68,14.24,37.71,10.5,86.26.09,125.27l-20.17-17.3c-1.97-1.69-4.83-7.42-6.74-9.52l-11.24-12.35c3.57-.37,8.46-1.77,10.62-3.92s3.18-10.1,1.68-12.77l-5.12-9.11,2.74-4c-9.79-8.35-20.84-14.72-31.93-21.11-16.41-9.45-20.38-9.78-37.57-9.5-1.56.02-2.7-1.31-3.51-2.85-8.12-25.39-32.32-39.45-57.72-46.76-16.98-4.88-31.86-8.48-49.93-7.63-24.17,1.13-47.34,7.04-63.54,24.27-2.72,3.47-7.3,5.69-13.73,6.65-6.77,3.86-13.13,6.25-19.08,7.16l-1.79-2.33c25.09-31.19,54.93-58.34,84.78-87.21,2.98,7.5,6.35,14.81,13.36,17.19Z"/>
    <path class="st10" d="M1116.31,1334.28l23.92,3.08c-3.37,30.5-.67,59.31,9.49,87.17,3.87,26.13,6.47,52.4,7.82,78.83l-3.84,2.93c-32.34-21.39-74.21-52.83-117.68-49.92,17.23-32.35,2.19-44.71,14.03-75.84,8.7-.42,19.94.16,25.59-4.93,13.75-12.39,23.4-26.94,33.19-41.33,3.65-5.42,6.15-5.41,7.5.02Z"/>
    <path class="st18" d="M1350.21,318.9l-4.2-1.2-2.64-19.74-8.49,5.61c-18.1-.05-34.04,7.87-47.82,23.76l-.58,22.83-4.01,2.74-1.87-1.87c-.42-8.35-.53-14.74-2.78-22.61-7.57,11.19-3.2,21.08-2.13,30.53-3.36,1.84-7.78.37-13.27-4.41-2.55,5.78-4.96,11.79-7.22,18.02-12.25,13.46-16.04,36.62-9.42,53.53,2.76,7.04,24.74,24.54,31.53,27.46,4.26-5.65,8.83-7.57,13.73-5.75.06-1.19.25-2.46,1.08-3.38,10.57-11.74,21.66-28.56,23.77-44.39-6.98-3.96-10.1-8.3-9.36-13.01,10.34,2.99,21.03,7.02,31.82,11.64l-11.88,15.43c7.43-.62,10.88-6.25,17.35-11.09,6.02,2.48,11.37,11.6,13.12,18.81,4.67,19.31,10.6,36.23,18.53,55.47-18.47,14.79-38.99,27.26-61.59,34.26-15.23,4.72-30.34,1.61-43.15-7.32-22.76-15.86-36.5-39.74-43.05-66.81-1.21-4.98-4.76-9.89-8.72-11.14-8.03-8.04-9.55-27.13-2.66-36.19,12.19-17.6,27.78-32.13,43.56-48.04,29.26-29.5,61.26-54.8,98.7-70.94-7.37,16.81-8.96,31.88-8.35,47.8Z"/>
    <path d="M1269.54,1279.75c-38.31,24.04-106.84,51.56-152.65,34.77,22.76-28.08,42.08-54.29,60.62-83.45,9.02-14.18,22.21-25.92,34.41-36.32,1.42-.06,5.43-.68,6.1-1.49l17.55-20.97c18.56,2.74,34.21,5.06,51.29,9.9,10.2,16.73,21.03,30.72,33.89,46.58-13.09,20.88-30.23,37.79-51.21,50.96Z"/>
    <path class="st1" d="M1488.92,812.57l2.75,1.92c4,20.74,9.35,41.07,17.83,60.47l-1.24,3.43-11.39,2.87c2.05,5.47,5.1,13.59,2.99,18.23-7.58,16.69-42.38-8.82-50.34-15.82-5.96-5.25-10.77-10.43-17.19-13.27-6.73-13.43-10.93-27.85-15.68-42.12.07-11.32,11.1.94,13.76-21.93.53-4.57,4.74-10.21,8.19-11.5,3.83-1.43,12.63-.6,14.87,2.38l8.73,11.61c1.53-6.58,2.93-13.68,8.12-16.51,7.8,5.32,13.8,13.29,18.61,20.23Z"/>
    <path class="st11" d="M972.18,774.49c.42,6.58,1.25,7.98,2.48,4.2,17.58,20.61,38.51,37.22,64.26,49.81-1.61,43.65,11.36,64.46,47.04,85.1-1.95,3.68-5.72,7.48-8.58,7.02l-12.07-1.91,11.56,5.73c-5.46,4.55-14.16,10.12-22.1,13.07-28.23-12.96-46.3-37.43-49.23-67.99l-4.91-51.3c-4.4-.18-6.03,4.12-6.24,7.95l-2,36.19c-22.17-26.07-43.85-65.65-29.4-102.08l9.19,14.2Z"/>
    <path class="st6" d="M960.93,1458.14l5.25-45.46c-5.04,4.86-5.11,8.07-8.24,14.15-9.78-15.72,17.1-55.31,26.37-66.31,4.21-4.34,9.9-5.79,17.08-4.36,38,.73,38.26,7.61,33.62,37.53-1.25,17.36-4.16,30.47-17.68,42.28-5.87,15.91-12.52,21.92-28.79,26.09-10.48,16.07-27.55,19.33-27.61-3.92Z"/>
    <path class="st1" d="M1548.56,828.73c12.91,17.87,25.6,35.92,38.25,53.74.79,5.97-1.75,10.59-6.97,12.97l-2.99,10.1c-2,6.73-30.47,6.93-49.09-14.56-6.46-7.46-11.79-16.37-17.1-25.02-.75-2.4-1.77-4.67-2.4-1.67-1.41.35-2.55.53-2.77.17-2.54-4.25-7.31-18.37-7.13-23.14.01-.31,1.05-.59,2.39-.85,4.14-6.62-9.41-47.43,1.21-56.24,11.52-9.55,25.6,36.95,28.6,43.52,6.61-1.05,12.67-.93,18.01.99Z"/>
    <path class="st12" d="M1171.35,923.3c-22.46-14.12-44.21,20.29-55.45,36.74-5.54,8.11-13.6,11.3-23.02,13.34l-30.61,6.64c31.93-25.12,59.3-53.87,82.01-87.99l50.37-35.66c23.64-2.42,47.13-5.48,69.26-15.37l-6.51,31.17c-16.05,4.91-33.31,7.9-50.46,10.76-27.79,4.62-21.86,22.82-35.59,40.37Z"/>
    <path class="st19" d="M1093.31,1345.23l-21.79,25.16c-11.21-31.01-45.65-41.93-75.37-38.25l15.03-50.15c39.22,1.59,69.82,6.01,95.43,38.86-2.5,9.67-6.96,17.05-13.31,24.38Z"/>
    <path class="st16" d="M1275.69,358.95c1.94,10.18,22.29,26.95,30.83,28.06l13.42,11.11c-.46,13.61-7.1,25.4-15.6,36.63l-9.33,12.33-.17,7.38-7.57-3.83c-1.67-.85-4.46,3.57-5.94,5.01l-3.68,3.58c-.55.53-2.08-1.67-3.23-2.92-6.39-6.91-17.18-6.61-32.28-28.72-9.81-53.56,5.48-35.36,14.49-70.95.52-2.04,2.96-6.59,5.02-6.43,1.65.13,5.29,1.94,6.63,2.98l7.4,5.77Z"/>
    <path class="st18" d="M986.59,390.66c2.51-1.55,4.47-.39,5.88,3.48,5.73-2.19,9.09-5.28,10.07-9.26l3.68-.73c9.07-.15,18.51-.96,27.3-2.15l6.75,10.4-2.01-13.92c21.78-20.95,22.29-38.53,57.99-34.34-17.14,11.62-51.1,58.95-36.41,78.45-19.86,13.47-42.5,22.2-66.33,26.47-6.53-10.46-15.59-19.25-19.15-29.99-3.25-9.82,6.51-21.86,12.22-28.4Z"/>
    <path class="st12" d="M1379.41,474.4l-14.26-48.49c-2.04-10.76-6.51-18.78-15.09-28.15l44.36-33.64c40.04,17.62,13.18,38.94,43.17,68.81l-58.18,41.46Z"/>
    <path class="st26" d="M1735.02,999.2c19.85,34.26,11.87,14.4,20.73,54.68,32.6,148.28-37.68,120.84-45.61,143.2-6.96-71.75-64.41-255.41-105.59-310.67,3.51-2.96,7.57-1.81,12.19,3.45l7.36,7.63c10.2,19.27,23.71,28.63,40.54,28.08l70.38,73.62Z"/>
    <path class="st1" d="M1452.25,982.67c-19.75-6.57-38.47-15.7-57.46-24.27l-3.83-12.51c-39.84-19.57-50.52-59.12-46.04-100.89.23-2.19,4.41-6.06,6.51-5.96s6.15,3.31,6.73,5.38l6.09,21.95c6.13,22.11,17.49,40.72,36.76,53.91l23.93,16.38c1.72,1.18,4.87,7.22,3.51,8.52l-5.95,5.7c14.37,2.03,28.1,2.44,40.4,9.14,5.32,2.9,13.57,9.96,10.75,15.99-3.49,7.48-14.82,7.01-21.41,6.66Z"/>
    <path class="st18" d="M1000.4,154.98c7.22,1.59,4.92,12.4-1.64,14.34l21.13,1.27,2.55,4.16c-10.71,5.19-27.45,10.94-41.41,11.49l3.19,6.37,2.45,3.65c-2.15,14.62,11.95,27.96,19.64,10.34,10.34-6.57,22.13-10.78,35.37-12.61l.65-6.23c4.34-1.13,6.96-2.85,7.86-5.17,5.98.09,11.09.65,17.77,3.14l-12.98,15.67c-10.44,1.36-20.2,3.66-29.03,8.7-21.03,12.01-42.64,16.63-65.99,21.59,6.98,1.54,13.28,1.56,18.87.95,3.3,1.16,3.41,3.81.31,7.96,5.79,2.27,11.95,3.08,18.48,2.45,4.73,3.23,4.84,7.61.35,13.16l9.14-.41c3.68-14.88,11.47-28.39,23.4-40.53,6-3.94,13.29-7.78,19.77-5.92l-17.86,44.15c-19.12,30.69-45.71-7.67-87.07,38.27.78-33.64,8.61-65.14,22.52-94.88,6.31-13.48,19.7-37.04,32.54-41.92Z"/>
    <path class="st18" d="M1486.4,402.13l-44.22,27.24c-26.18-23.94-.27-46.4-40.76-69.34,24.31-16.83,47.57-30.88,75.95-42.65,4.68,29.43-14.12,53.37,9.03,84.75Z"/>
    <path class="st16" d="M1350.21,318.9c.96,7.22,3.88,14.97,10.09,19.91l2.21,3.83c-14.18,23.1-38.14,49.94-66.05,28.35-6.81-5.48-11.61-10.35-13.98-18.1l.09-24.35c-.07-4.83,8.61-10.39,12.21-13.08,9.16-6.84,18.06-15.26,29.41-15.82,3.57-.18,10.42,1.24,12.01-1.07,2.39-3.46,8.59-7.88,10.61-5.13l3.4,25.45Z"/>
    <path class="st1" d="M1626.54,862.48c16.69,19.7,27,44.12,39.62,65.89-35.33,8.13-37.59-29.69-63.85-42.49l-62.16-83.4c.92-3.45,2.43-7.4,4.55-9.32s10.33-1.12,12.53,1.04l35.96,35.27c8.35,8.19,14.24,17.79,20.91,27.4l12.45,5.61Z"/>
    <path class="st16" d="M861.11,928.67c3.7-1.57,5.49-5.07,5.24-8.4,2.1-11.99,13.85-19.08,26.35-16.34,12.43,2.73,13.45,11.84,32.98,18.74l14.91-6.22c1.55-.65,6.81-.31,7.64,1.05,5.01,8.26-4.39,15.74,10.74,24.79,3.94,2.36,8.87,7.73,9.25,11.52.95,9.4-6.61,22-13.15,23.01-11.24,1.75-21.15-19.78-40.09-20.94-18.15-1.11-52.35-6.56-53.88-27.23Z"/>
    <path class="st14" d="M1232.27,928.21c-28.91,7.65-61.1,23.76-89.66,29.94-3.26.79-6.39.79-9.39,0,1.91-8.89,19.48-32.46,28.92-23.63l-1.01,7.1c38.9-23.7,17.37-44.98,52.19-49.7,20.34-2.76,36.3-8.09,55.84-18.71,1.04,11.11.69,21.33-1.96,32.35-3.26,13.54-28.16,16.03-34.94,22.65Z"/>
    <path class="st14" d="M992.59,1093.81c-.46,1.79-1.17,1.82-2.14.19-7.3-11.53-14.6-22.12-22.53-32.85l-22.86-30.94c15.96,2.89,26.38-1.56,34.74-13.1,17.24-23.79,20.66-51.97,18.72-82.65l29.8,34.08,12.93,13.92c-40.65,27.83-60.36,63.35-48.66,111.35Z"/>
    <path class="st18" d="M1663.04,559.26l19.37-16.35c12.59,4.36,17.67,40.49,31.89,48.49l-13.38-35.59c-2.66-7.08-7.32-13.67-12.58-19.09l15.09-23.99c24.09,3.55,18.97,27.77,37.62,49.67-14.75,22.74-31.75,42.53-54.15,58.18-14.61-22.75.88-35.26-23.87-61.33Z"/>
    <path class="st16" d="M1430.91,282.74c.36.98,1.09,2.88,1.24,3.89,16.76,27.94-28.97,43.87-50.89,46.78-10.25,4.48-12.99,1.41-19.11-6.82-7.26-15.61-4.44-34.66,4.19-49.7,18.27-23.05,56.31-28.61,64.56,5.84Z"/>
    <path class="st12" d="M1119.69,310.41c-25.36,10.18-47.85-37.79-73.25-7.45-4.79,5.73-10.36,10.38-19.18,13.1,1.3-19.53,2.41-37.5,9.73-55.23,4.54-10.99,23.74-18.83,34.06-13.53,12.34,6.34,22.4,11.9,35.22,16.04,1.63,16.35,4.81,32.43,13.41,47.07Z"/>
    <path class="st11" d="M1660.77,1082.09c-1.07.7-1.97,1.19-2.23.96-7.14-6.24-14.67-15.14-20.09-22.91-7.79-7.66-10.45-1.67-12.31-9.76-26.97-24.7-56.99-45.83-90.07-63.38-40.32-20.62-79.71-43.2-118.18-67.74-7.11-4.08-11.68-9.06-13.7-14.93.17-5.7,17.17-1.97,19.64-.31,5.6,8.87,12.37,12.78,20.3,11.73-1.7-7.55-.89-12.76,2.44-15.61,29.99,26.48,62.26,49.4,96.05,72.25,43.12,29.15,93.64,64.37,118.15,109.69Z"/>
    <path class="st18" d="M1492.58,399.43c-20.31-25.3-3.9-54.97-6.76-85.31,17.22-6.74,35.15-11.71,54.52-15,2.39,6.7,2.64,13.48.42,20.25-7.19,21.95-11.62,44.07-14.13,66.33l-34.05,13.73Z"/>
    <path class="st18" d="M1020.26,1476.03c-1.85.6-4.72,3.06-5.91,5.68-20.19,4.38-14.42-5.11-35.14,9.36-2.72,1.9-9.6,3.44-12.13,1.82-10.58-6.8-7.39-23.93-6.15-34.75l2.84,6.96c.93,2.27,5.13,6,7.55,5.85,11.64-.7,7.35-12.93,24.36-15.82,6.95-1.18,11.39-5.82,13.78-12.25,8.54-22.96,17.71-8.25,24.1-53.35,1.44-10.19,1.65-19.3-6.03-26.79-15-2.14-29.27-3.47-43.23-2.23,3-3.56,5.67-13.26,10.64-15.66,14.39-4.53,53.15-1.84,58.38,15.03-28.37,34.58-12.35,64.09-18.15,80.99-4.41,12.85-9.74,23.88-14.91,35.15Z"/>
    <path class="st18" d="M1590.34,606.54c1.89,6.73,5.46,1.45.14-1.75,5.91-11.74,8.7-23.35,10.47-38.36l21.19,2.66c5.23,7.2,9.43,16.47,10.75,25.18,5.38,35.47-35.78,33.04-44.36,60.73-13.66-2.32-24.96-5.63-37.39-12.37,4.58-13.2,29.04-29.1,39.2-36.08Z"/>
    <path class="st12" d="M1135.03,314.96c4.45-3.76,7.67-.87,5.45,4.41-12.64,6.35-26.65,15.72-40.32,19.61-12.03,3.42-28.34-6.72-39.45,4.44l-25.13,25.25c-3.56-14.73-6.23-29.5-7.48-44.02,17.62-5.92,26.42-25.83,38.99-25.05,17.09,1.07,23.67,25.91,57.98,15.98,1.41.4,5.08,1.94,6.27,2.39s2.98-2.02,3.69-3.01Z"/>
    <path class="st12" d="M1594.47,654.63c8.65-17.99,39.11-18.58,46.25-45.44,3.86-14.52-.02-26.26-6.97-39.39l20.9-7.25c25.54,24.33,7.27,36.96,26.87,62.4-25.49,17.2-53.6,31-87.05,29.68Z"/>
    <path class="st12" d="M1571.74,374.92l-39.38,8.63c.2-31.59,14.95-54.61,16.3-85.11,17.69-2.9,34.29-2.14,52.5,1.66l-5.58,7.99c-20.55,15.25-29.8,38.89-23.85,66.83Z"/>
    <path class="st12" d="M1606.16,377.01l-28.92-1.81c-6.67-34.81,8.12-51.41,33.54-72.8,15.44,4.78,28.86,12.02,41.72,22.86-25.9,16.45-35.43,17.85-46.34,51.75Z"/>
    <path class="st11" d="M1146.26,466.53l-3.42-1.97-6.27-9.54c-7.85-11.93-2.09-28.35,2.98-41.19,16.98-43.02,81.8-86.56,118.5-113.71l22.63-3.14-49.97,32.1c-34.7,29.66-59.72,66.8-76.95,108.87-4.05,9.9-9.64,18.47-7.5,28.58Z"/>
    <path class="st12" d="M1308.99,762.55l2.62.53c.77,4.04.66,8.71-.33,14.02,2.73,5.62,3.77,10.81,3.1,15.57-.02,3.66-.25,7.44-.71,11.36,4.03-2.79,7.01-2.58,8.95.63,2.21-3.51,6.14-4.25,11.8-2.24,3.95-.74,10.5-3.62,12.21-7.04,1.45-2.9.63-9.73-.35-12.94,3.24-4.6,7.35-8.67,12.34-12.22,15.94-3.33,50.62-2.15,69.61,9.28l-57.78,27.23c-16.48,7.77-34.14,10.33-51.92,5.68-12.04-2.85-22.46-1.14-34.75,2.87,4.84-17.33,11.43-32.99,18.85-48.47.88-1.84,4.69-3.5,6.35-4.25Z"/>
    <path class="st1" d="M1418.3,860.36c9.54,12.65,16.05,28.98,28.28,39.79,1.01,5.11,1.93,12.52,1.59,18.05-10.19,6.14-20.4-1.95-26.29-10.93l-17.68-2.93c-1.24.75-2.29,1.27-2.64.97-6.38-5.44-15.28-16.77-17.58-24.83-.11-.37.96-1.07,2.36-1.88l-1.95-12.86c-.6-3.92,2.23-9.43,5.15-12.35l-4.66-20.97c-.84-3.79,5.52-10.5,8.99-8.81,6.9,13.19,15.95,25.48,24.44,36.74Z"/>
    <path class="st8" d="M878.44,668.3c-3.57,9.59-24.04,2.96-21.49-5.88,12.2-24,26.14-45.63,43.31-66.37,32.47-39.22,64.18-78.09,103.47-113.34-19.69,31.26-45.29,54.34-66.03,83.4-23.37,32.76-44.69,65.55-59.27,102.19Z"/>
    <path class="st12" d="M1672.95,272.59c9.12,16.59-.04,35.92-12.65,47.12-14.01-10.52-26.65-18.31-42.69-24.69,12.77-18.08,7.39-38.23-7.76-53.7,18.89,3.46,34.97,8.56,51.43,16.16,3.21,3.91,8.95,10.18,11.66,15.11Z"/>
    <path class="st11" d="M1126.54,426.68c-.76,5.29-2.6,4.84-3.7-.34-7.07,6.89-4.96,21.22-1.08,30.16l-1.71,2.39-7.67-2.61c-20.64-59.82,18.01-84.84,57.55-117.78,20.92-17.43,44.72-28.76,71.06-37.9-4.3,4.45-8.63,8.09-13.36,11.14-37.7,24.34-95.04,69.01-101.08,114.93Z"/>
    <path class="st0" d="M1334.26,1253.99c-2.03.55-5.98,2.51-7.58,4.27-47.72,52.87-139.71,83.65-208.52,70.11-2.58-.51-4.49,3.53-3.7,4.24l1.86,1.68c-1.86-.24-5.48-.02-7.5-.02,2.11-3.1,4.11-9.75,5.9-13.81,58.31,17.97,180.34-26.85,208.81-86.04,6.32,2.61,11.34,13.76,10.73,19.57Z"/>
    <path class="st12" d="M1655,401.34c-13.11-10.93-26.08-17.17-42.36-22.18,2.95-17.68,16.07-31.62,31.69-40.38l14.63-8.2c8.92,9.48,16.44,18.94,23.93,30.58-13.87,11.48-24.18,22.77-27.88,40.18Z"/>
    <path class="st18" d="M1518.56,248.98c3.79,2.41,4.24,7.19,1.33,14.34,2.4,5.13,7.85,5.97,16.37,2.53,7.39,6.11,15.42,12.45,25.63,10.91,4.13-.62,26.01-13.62,26.13-15.14.42-5.31-18.65-16.91-24.27-17.98-13.87-2.64-27.06-1.59-39.76,4.99l-5.22-1.66c-.32-3.24.98-9.79,3.23-12.93,31.24,1.74,44.68-1.49,73.35,7.52,12.19,3.83,19.67,16.17,22.38,27.89,1.89,8.18-.79,18.56-7.01,23.23-23.42-5.16-46.6-5.8-69.86-2.64l-21.71-14.34c-5.73-3.78-7.49-11.89-6.77-19.14.39-3.95,3.04-7.39,6.19-7.58Z"/>
    <path class="st11" d="M1190.1,314.68c2.36-.39,2.98-.27,1.87,2.02-12.03,7.64-22.24,15.69-33.33,24.01-18.15,13.63-36.9,27.21-49.17,46.86-3.87,6.2-7.08,6.18-13.17,9.6-9.84,5.52-17.54,13.23-28.8,20.74-7.06-28.86,33.58-74.35,60.5-81.04,2.6-.86,3.17-.79,2.02,1.85-15.06,13.14-33.74,25.34-34.73,47.03,24.1-33.59,57.83-64.84,94.82-71.07Z"/>
    <path class="st18" d="M970.74,282.91c3.01,3.92,5.83,8.38,8.48,13.39-5.33,15.96-2.41,19.26,8.79,9.92,1.13-16.1,6.76-18.02,21.41-22.46-8.31-.87-11.97-3.83-10.98-8.89,9.72-.26,20.22-2.38,29.84-6.19l-5.99,48.08c-35.24-4.11-54.48,8.52-74.01,36.32-2.33-15.74-3.45-28.93-4.75-44.84-.58-7.15,21.9-23.37,27.22-25.34Z"/>
    <path class="st11" d="M1216.29,390.08c-.52,12.18.52,24.15,2.66,36.19-3.16,1.3-5.53,6.36-4.76,9.9l4.12,18.89c-8.43,4.36-13.41,8.38-13.29,15.46-7.23,1.67-14.72,3.68-22.43,1.79-.9-3.75-2.03-7.64-3.58-12.33-9.78-29.53,13.47-56.79,30.27-78.26l-.81,12.59,7.81-4.23Z"/>
    <path class="st16" d="M1518.56,248.98c.09-.48.16-1.51.2-2.01,14.4-8.65,32.86-11.27,49.81-6.18,11.43,3.43,25.12,18.81,24.04,22.56-.49,1.69-11.18,6.89-20.64,13.65-11.68,8.34-28.81,2.31-36.67-7.75-4.74,1.73-9.53,3.17-12.39,2.47-2.63-.65-7.37-5.99-6.9-8.58l2.55-14.16Z"/>
    <path class="st12" d="M1753.51,373.27c-21.98,4.98-28.84-1.66-46.09,17.37l-14.72-30.6,8.75-14.66c6.25-10.46,17.92-18.93,31.38-19.04,8.93,14.35,14.74,29.23,20.67,46.93Z"/>
    <path class="st18" d="M1743.55,556.74c-14.64-24.9-5.98-38.35-35.66-52.47l7.98-26.45c15.8-6.07,35.45-8.8,49.95,2.3.16,26.61-7.42,53.59-22.27,76.63Z"/>
    <path class="st16" d="M1082.22,148.6c4.19,2.35,3.25,3.97.59,7.14l-18.13,16.89c-13.34.02-26.76.71-40.25,2.06-.52,0-1.49.08-2,.05l-27.95-1.68c-3.88-2.27,1.94-8.63,6.13-8.62l-.22-9.47c2.04-.78,4.73-4.14,6.01-6.02l4.24-4.07,3.66-2.06c3.74-2.49,5.88-2.47,6.42.05,2.05.56,7.01,1.13,9.49.35,18.09-5.67,36.23-2.85,52.02,5.37Z"/>
    <path class="st18" d="M964.85,348.84l2.65,4.86c-7.24,21.05,8.72,21.44,25.57,15.62,2.37-11.88,5.71-23.35,10.03-34.42-6.51-.56-10.12-2.82-10.84-6.77,9.05-4,20.11-5.66,30.59-4.35l7.85,47.35c-17.8,17.55-41.68-16.77-63.68,37.92-7.49-14.99-12.88-29.25-17.18-44.79,4-5.98,9.61-12.19,15.01-15.43Z"/>
    <path class="st15" d="M1270.37,633.06c6.35,5.65.01,17.76-4.26,24.05-8.62,12.71-29.44,22.17-43.29,13.07-17.7-13.75-9.91-37.81-1.07-54.04,19.95-.88,34.05,8.03,48.62,16.92Z"/>
    <path class="st13" d="M1334.43,802.42c-1.75,5.53-7.68,2.36-11.8,2.24-3.98-.6-3.69-2.65-3.04-5.85-3.86-1.02-5.59-3.07-5.2-6.14-3.98-5.07-7.96-12.53-7.03-18.87l1.64-11.25c15.68-7.07,13.41-30.73,55.72-16.37l53.3,20.62c-27.04-.09-51.82-12.5-78.56,5.62-4.39-12.49,5.19-14.83,1.22-25.07-28.15,25.78,14.32,39.25-9.76,52.78-.4-.26,2.32,1.51,3.51,2.28Z"/>
    <path class="st12" d="M1688.3,351.23l-22.31-26.35c16.15-15.31,22.89-32.8,16.51-54.74,19.07,12.82,33.35,28.62,45.07,47.68-19.35,4.75-29.11,14.16-39.27,33.41Z"/>
    <path class="st18" d="M1438.63,272.44c3.39-.26,5.75,2.4,7.08,8.01,10.68-1.88,20.14-.24,28.38,4.92,5.5-2.48,9.33-6.94,11.5-13.37l10.28-4.97c-15.14-18.84-23.58-27.93-45.3-11.48l-4-2.23,8-12.64,56.09-5.66c-.38,15.12-18.17,32.29,6.59,49.13l10.91,7.42-49.13,14.71c-17.18-14.06-47.13-12.61-40.4-33.85Z"/>
    <path class="st18" d="M1362.15,326.6l8.1,6.19c6.24-2.66,11.42-3.87,18.42-4.38,14.59-1.07,28.3-11.34,40.21-20.74,4.45-3.51,4.07-15.61,3.27-21.03,15.68,17.35,26.91,12.5,37.38,23.65-28.44,13.41-52.19,27.34-76.4,44.94-13.95-7.1-25.21-16.23-30.98-28.62Z"/>
    <path class="st11" d="M1396.37,674.38c3.77.97,4.64,4.49,2.6,10.57l23.42-29.73,8.06-4.66c3.36,12.41,10.1,24.35,15.11,38.44-11.62,9.39-73.58,56.44-84.75,43.98,28.76-12.4,57.82-28.61,70.43-59-21.82,18.46-37.16,39.6-65.3,46.57,11.39-14.9,20.51-29.23,28.94-45.09l1.49-1.09Z"/>
    <path class="st18" d="M1538.87,598.81c5.2,9.11,10.35,10.56,15.47,4.35,12.09,2.04,17.46-2.14,11.89-13.78l1.89-3.91c-2.82,2.57-5.51,2.85-8.06.86l5.67-16.79c1.81-5.36,5.25-12.25,8.59-16.18l18.1,10.15c2.74,49.5-24.84,40.81-46.6,75.22-13.74-9.5-23.91-24.17-29.69-40.51l22.73.58Z"/>
    <path class="st20" d="M1360.23,506.83c3.55,12.73,7.09,26.73,8.08,40,1.13,15.08-4.75,31.06-7.64,45.66-4.31,15-10.21,19.46-17.69,13.37l-2.14-23.26c-.07-9.17,1.89-21.18-.47-29.96-1.48-12.14-.83-24.1,1.95-35.87l6.22-6.25c3.87-1.86,7.29-3.55,11.69-3.69Z"/>
    <path class="st16" d="M1718.44,434.67l-.03-2-1.8-11.87c-.03-.5-.15-1.49-.09-2-2.04-6.12-2.54-22.77,1.83-27.2,5.61-5.69,25.44-9.84,31.73-3.98,8.61,8.02,11.28,38.67,6.92,50.17-3.93,10.34-8.48,21.07-20.54,17.63-9.38-2.68-18.11-10.64-18.02-20.74Z"/>
    <path class="st26" d="M878.44,668.3c-9.39,23.6-17.61,47.03-16.17,72.19l1.33,23.25c-37.05-20.56-24.15-75.98-6.65-101.32,6.52,5.22,13.44,8.56,21.49,5.88Z"/>
    <path class="st16" d="M1438.63,272.44c1.5-4.74,2.21-12.53,5.56-13.64l2.19-3.95.19-1.53c10.01-6.1,20.33-14.1,33.5-8.81l15.08,15.67c1.99,2.07,4.7,4.1,5.32,5.9.75,2.15-3.91,6.13-6.2,6.68-15.11,3.61-.06,6.42-17.72,15.92-5.25,2.82-10.22-4.74-14.14-4.64l-20.38.5-3.4-12.1Z"/>
    <path class="st7" d="M1174.38,469.81l-6.19-1.86c-4.04-1.21-9.04-1.8-12.95-1.17-2.49-5.2-2.57-11.14-.27-17.68,21.67-61.58,65.17-114.3,123.23-144.31-17.54,15.98-32.93,32.98-49.67,49.97-28.65,29.06-77,68.82-54.15,115.05Z"/>
    <path class="st18" d="M1718.44,434.67l5.19,8.67,13.32,7.91c1.2.71,5.05,1.7,6.31,1.81-.84-.08,21.56-19.07,8.24-51.61-2.13-5.22-3.48-16.74-13.47-15.2-5.45.84-11.59,3.4-18.62,6.2l-2.88,26.35c-6.87-9.82-6.59-25.61,5.92-31.73,10.24-5.01,22.93-5.09,34.36-2.33,8.92,29.23,11.15,58.57,10.93,89.59-9.92-7.79-20.61-12.16-33.25-9.68l-17.04,3.34,1-33.32Z"/>
    <path class="st27" d="M972.53,558.94c-20.23,34.79-43.33,68.28-58.03,105.94-2.4,4.75-3.13,4.91-4.33-.46-1.89-1.54-1.97-2.99-1.2-4.92,8.48-21.37,17.22-41.04,29.35-60.38,1.94-1.78,3.31-3.96,4.11-6.54,2.32-1.34,3.13-3.57,4-6,2.33-1.33,3.13-3.56,4-6l4-4,2-4,3.89-4.39,5.78-7.8c.78-2.59,2.23-4.52,4.33-5.8.61-1.05,1.27-1.03,2,0,1.11.58,1.14,2.02.1,4.33Z"/>
    <path class="st27" d="M1042.56,466.99c4.51,3.74.89,8.78-4.54,7.18,1.07,4.94-4.97,11.55-10.01,10.09l-5.62,6.39c-1.55,3.84-4.22,7.13-8,9.87,4.61,2.05-1.8,9.46-5.54,8.02-1.98,3.52-5.05,6.59-8.96,8,3.07,2.4,1.95,3.68-1.73,2.03-5.04,8.82-10.94,16.84-17.69,24.07-1.69.32-4.55,2.06-5.38,3.55,2.6,2.33-2.15,6.58-4.67,8.43-2,1.44-3.44,3.37-4.33,5.8l-5.78,7.8-3.89,4.39-2,4-4,4c-.56,2.69-1.9,4.69-4,6-.57,2.69-1.9,4.68-4,6-.75,2.68-2.12,4.86-4.11,6.54-10.87,17.99-20.47,36.59-28,56.31l-3.54,1.19c-1.63.35-4.15-.13-4.04-1.07.64-5.9,1.69-11.49,3.36-17.17,12.15-22.97,24.62-45.68,41.43-67.01l65.08-82.55c6.96-8.82,12.72-18.44,18.27-27.25,2.57-7.24,15.51-1.8,11.69,5.41Z"/>
    <path class="st7" d="M952.35,810.16c1.93,3.92-4.35,10.81-6.99,11.8-26.77-39.28-30.69-89.58-18.07-133.47l12.55,10.17c-11.41,38.49-5.55,74.86,12.51,111.5Z"/>
    <path class="st20" d="M1304.88,884.44c1.68,5.44,1.62,12.35,4.87,18.07,7.21,12.68,15.49,22.68,26.21,32.39l10.64,9.63c3.58,2.2,4.79,6.22,1.52,9.03-4.41,3.79-19.38,3.43-24.58-2.18-21.12-14.86-45.14-56.31-39.88-82.23.87-4.3,2-8.2,6.81-9.76,7.56-2.45,14.31,18.01,14.41,25.04Z"/>
    <path class="st18" d="M1296.45,371c4.04.63,9.92,3.68,15.08,4.91,5.47,1.3,17.63-2.72,22.05-6.41l13.03-10.87,8.91-12.92,4.78-6.88,26.42,20.98-42.24,34.53c-10.68-4.83-21.37-9.2-32.6-12.96-6.82-2.28-10.89-6.71-15.42-10.36Z"/>
    <path class="st12" d="M1701.74,403.53c4.68,14.95-13.36,26.29-27.26,29.72l-13.81-27.02c-.44-16.06,13.76-28.48,26.12-38.16,6.12,11.65,10.92,22.57,14.96,35.45Z"/>
    <path d="M1366.9,1444.53l-43.73,1.86c-3.83-16.64,2.83-18.4-6.41-39.59,19.43.63,37.37,1.69,56.38,9.84l-6.24,27.89Z"/>
    <path class="st20" d="M1416.64,600.78l-6.77,17.08c-7.82,19.74-13.81,38.88-23.57,56.49-10.15,10.68-22.24-1.01-15.64-13.97,2.44-3.77,4.49-8.21,6.99-12.74,13.72-24.92,28.05-48.68,36.8-74.95l3.81.78c4.15.85-1.48,26.98-1.61,27.31Z"/>
    <path class="st19" d="M1153.69,1506.28l-1.01-18.17c-1-17.93-2.45-34.24-5.71-52.04-.72-3.9.36-9.86,2.74-11.54,7.67,21.02,18.92,40.35,29.09,61.14,2.87,12.31-4.74,27.64-8.85,37.84-6.74-6.57-12.17-11.24-16.27-17.22Z"/>
    <path class="st12" d="M1561.36,531.82l-20.49,15.46c-9.35,7.05-21.98,4.41-31.12-2.42,1.37-13.22,3.1-23.98,6.44-36.77,12.47,10.42,24.36,8.69,39.01,3.91,3.74,1.5,9.78,15.98,6.15,19.82Z"/>
    <path class="st16" d="M992.27,328.13l16.96,3.65c-1.16,2.99-4.63,7.93-5.25,10.49l-7.12,29.01c-2.85,4.36-28.22,8.57-32.96.11-3.91-6.99-1.33-15.75.95-22.55l1.65-1.9,3.99-4.25c4.09-5.22,15.09-11.61,21.76-14.56Z"/>
    <path class="st11" d="M1386.3,674.36c-8.28,14.93-16.08,30.39-29.02,43.05l-12.19,11.93c-4.82,1.95-14.81,2.5-20.96,2.75l46.53-71.69c.43,3.45,1.58,9.39,3.27,12.1s9.45,2.33,12.37,1.87Z"/>
    <path class="st12" d="M1106.4,256.57c-29.06-8.13-31.27-28.99-65.34-9.83,3.5-14.04,9.34-25.52,17.1-38.71,25.06,13.68,21.46,22.84,54.55,27.54l-6.31,21Z"/>
    <path class="st12" d="M1161.57,189.61l-31.77-20.61-7.55-22.17c-2.37-6.97-6.86-13.05-11.2-19.96,16.92,4,32.8,11.88,46.17,23.61,3.34,11.02,4.68,23.74,4.36,39.12Z"/>
    <path class="st18" d="M1538.54,556.46c1.33,3.19.29,6.23-3.1,9.12-2.4,2.4-1.59,5.58,2.42,9.55-3.04,6.94-1.41,9.27,4.9,7.01-1.88-6.91-.53-13.86,4.04-20.85-2.9-.96-4.51-2.71-4.83-5.25,4.6-6.07,12.5-12.63,20.33-15.55,2.8-.95,8.87,6.98,7.47,9.03-6.36,7.37-10.01,16.18-12.96,25.74-5.32,17.3-29.07,23.72-43.19,12.43-3.02-11.24-3.94-24.49-4.31-35.1,10.82,4.22,19.5,5.05,29.24,3.87Z"/>
    <path class="st13" d="M1050.16,182.6l5.2,4.84-11.6,2.23,5.64,6.5-30.22,7.65c-18.75,4.75-9.18,21.06-28.11,13.21-6.66-2.76-11.77-18.63-6.87-24.41,39.86-2.78,19.29-10.72,65.95-10.01Z"/>
    <path class="st25" d="M1374.6,1407.5c-5.46-10.95-.62-36.61-2.95-53.24-4.86-34.79-17.32-68.71-37.22-96.13-.08-1.12-.28-3.12-.17-4.15l3.2-.86c.83-.22,2.86,1.73,3.35,2.48,12.98,19.64,25.74,38.71,32.69,61.58,9.01,29.63,8.89,61.54,1.09,90.32Z"/>
    <path class="st10" d="M1124.47,864.03l2.52-.92c6.02,6.08,6.59,5.19,1.72-2.69,1.61-5.33,7.67-7.33,13.69-6.17l7.89,1.53c9.14,1.77-35.32,60.71-41.19,65.13.99-17.74-3.32-30.18-14.14-45.09l29.51-11.79Z"/>
    <path class="st24" d="M1222.82,670.18c27.03,1.67,44.11-9.63,47.55-37.13l19.48,11.88c.81,14.44-8.68,24.91-20.72,30.71-15.81,7.62-35.98,8.64-46.3-5.46Z"/>
    <path class="st11" d="M1058.39,844.24c13.69,45,50.55,50.72,29.82,64.25-32.16-19.77-40.84-40-41.34-75.98l9.47,3.29c1.8.62,1.44,6.46,2.04,8.44Z"/>
    <path class="st7" d="M1300.6,758.09c-2.41,1.79-3.13.53-2.15-3.78,3.87-11.15,6.89-23.66,12.37-33.38l31.77-56.33c4.03-2.86,12.44-3.8,17.7-2.62l-59.68,96.1Z"/>
    <path class="st24" d="M1264.7,1460.87l-20.48,5.22-10.9-32.5c-1-2.99,2.12-10.03,5.07-11.21,22.01-8.76,45.64-13.92,70.6-14.85l6.72,39.65-51.01,13.68Z"/>
    <path class="st12" d="M1678.09,461.23c-4.34-4.99-3.26-17.26-2.55-22.94,11.78-3.35,20.35-7.07,30.35-15.05,3.39,14.69,3.2,30.55.09,46.72-9.65-.15-20.46-.18-27.89-8.72Z"/>
    <path class="st7" d="M1488.85,732.39c-16.72-12.35-26.7-29.61-36.37-47.74-16.72-34-24.3-71.2-21.12-108.29,7.83,56.82,25.43,108.87,57.49,156.03Z"/>
    <path class="st13" d="M978.81,232.64c15.56-1.7,39.97-9.65,51.69-17.36,2.41,8.55-7.36,12.02-17.75,31.87-1.59,3.04.74,12.09-5.45,12.48l-17.46,1.1,9.02-13.69c-11.16-.05-18.83.47-24.94-5.48l4.9-8.93Z"/>
    <path class="st11" d="M1048.72,464.73c.91,5.55-2.95,6.95-6.16,2.26-2.18-3.73-7.03-5.23-11.69-5.41l-4.5-2.43c25.9-25.29,44.82-25.88,73.53-53.93.53,3.22-.24,11.19-2.13,14.44-13.18,11.23-42.01,32.27-49.05,45.08Z"/>
    <path class="st0" d="M1223.91,1481.61c-8.4-13.17-14.48-24.65-20.56-39.92l21.6-13.29c4.95,15.95,10.36,29.07,16.58,42.99l-17.62,10.22Z"/>
    <path class="st13" d="M998.43,274.88c3.11,2.68,10.46,5.52,14.32,4.78l4.95-.95c1.36-.26.66,5.94-.63,6.43l-23.13,8.76c-.38,7.66-.86,14.01-4.39,16.35-6.55,4.34-10.96,6.26-19.02,3.71l5.28-16.54c-4.27-3.59-6.69-9.04-5.07-14.52l1.77-.23,2.09-1.86,3.71-1.98,8.12-3.65,12-.31Z"/>
    <path class="st12" d="M1130.79,211.61l-18.34-.61c-16.92-.56-29.4-10.5-35.44-27.11,6.5-5.12,14.21-8.95,23.21-11.73,5.88,17.62,15.53,26.4,30.57,39.44Z"/>
    <path class="st20" d="M1386.51,988.41c-17-1.92-32.15-10.49-45.99-19.89-19.99-26.8,31.61-12.01,44.08-2.2,9.11,6.57,14.05,18.32,1.92,22.09Z"/>
    <path class="st12" d="M1556.92,505.7c-9.3,1.9-27.89,7.22-34.87-2.03-1.91-2.54-1.9-10.12-.35-12.9l11.87-21.21c6.21,9.8,10.91,13.57,21.99,15.09l1.35,21.05Z"/>
    <path class="st11" d="M1304.88,884.44c-1.59-5.15-6.12-14.78-8.19-19.72s-18.57-2.81-5.86,38.95c10.03,32.97,56.41,66.21,55.77,40.86,36.22,20.95,74.62,36.43,115.17,51.5-27,.65-51.39-2.55-75.26-7.62,5.02-6.76,2.98-17.81-5.75-22.42-12.79-6.76-26.41-9.03-42.35-10.02l2.1,12.55c-9.89-6.72-20.99-12.41-29.2-23.38-13.12-17.52-26.4-38.59-29.5-61.09-1.89-13.71-1.57-27.64-2.58-41.51-.68-9.38,6.82-18.47,15.2-22.3-2.37,20.37.98,37.01,10.4,54.29,1.42,2.61,1.68,8.39.05,9.92Z"/>
    <path class="st18" d="M1430.91,282.74c-7.68-8.45-16.3-23.11-30.24-21.08-12.33,1.8-24.3,9.41-34.32,15.24.02-2.54,1.61-10.34,4.71-11.67,23.63-10.2,49.11-17.6,73.28-22.07-9.21,13-16.21,25.59-13.43,39.58Z"/>
    <path class="st12" d="M1696.87,500.58c-12.81,1.06-22.7.34-35.55-2.43l11.62-27.4c9.86,4.36,17.57,6.16,30.7,8.25-.7,5.24-3.53,14.12-6.77,21.58Z"/>
    <path class="st12" d="M1118.63,227.86c-14.78,6.7-31.23-4.72-41.59-13.06l-15.5-12.48c2.24-3.75,6.55-9.02,10.38-12.85,17.04,34.4,36.84,24.72,64.63,28.12-6.09,3.42-12.11,7.64-17.92,10.26Z"/>
    <path class="st25" d="M1212.33,672.41c1.92,4.47.05,5.06-5.6,1.75-5.5-5.72-15.31-10.04-18.26-18.11-2.4-6.58-1.38-17.69,2.04-23.8,4.72-8.45,16.3-12.26,26.47-15.62-5.38,10.84-11.61,18.12-12.74,30.33-.61,6.62,2.89,20.55,8.09,25.45Z"/>
    <path class="st7" d="M957.88,752.34c-5.45,9.91-12.27,22.37-9.86,37.75-9.72-27.05-13.42-56.9-3.64-85.83,3.2,15.89,8.08,31.7,13.5,48.09Z"/>
    <path class="st11" d="M1360.67,592.49c-3.94,19.88-11.12,42.48-18.69,60.99-1.87,1.31-8.17.17-9.23-1.44,4.5-23.27,8.28-46.51,8.09-69.44l3.66,17.98c.59,1.23,2.08,3.63,2.7,4.69s5.11-1.54,5.82-2.49l7.65-10.29Z"/>
    <path class="st12" d="M1178.62,211.92c-5.47-3.99-10.86-11.22-12.47-16.38,2.61-13.53.61-24.3-1.03-38.89,8.08,8.44,16.74,17.16,22.08,27.21,4.4,8.27-1.35,20.07-8.59,28.06Z"/>
    <path class="st12" d="M1691.6,511.58l-13.58,19.26c-12.01-.58-22.89-2.36-32.19-11.05,1.94-4.7,7.2-11.96,10.58-14.94,8.06,2.17,14.26,3.38,22.02,4.62l13.17,2.11Z"/>
    <path class="st18" d="M1024.43,174.69c1.79-1.03,6.18-1.47,9.92-1.88l26.03-2.84c5.82-.64,21.49-17.42,21.84-21.37,6.61,3.44,14.84,8.73,15.23,18.46l-23.85,12.71c-6.22-1.42-16.29-5.22-22.82-5.2l-26.35.12Z"/>
    <path class="st10" d="M1092.21,936.79c-1.38.87-3.06,1.2-5.04,1-6.8,8.72-15.06,14.91-25.39,18.91-1.51,6-4.54,11.35-9.09,16.05l-3.78,3.37c3.3-31.82,3.89-26.03,26.82-42.66,11.05-8.02,17.29-17.89,25.5-30.1,1.42,7.84,1.1,34.1-9.03,33.43Z"/>
    <path class="st25" d="M1276.62,686.33c-6.11,1.74-9.38,1.04-9.81-2.1l12.91-8.22c9.67-6.15,13.82-16.01,16.39-27.76,4.04,1.5,11.45,5.72,14.54,9.53,2.11,2.61-1.01,11.31-3.76,13.49-8.51,6.76-20.18,13.2-30.28,15.05Z"/>
    <path class="st12" d="M943.19,688.49c-6.08-4.78-11.55-11.99-15.96-19.69,7.36-17.03,13.17-31.42,22.88-47.37l-6.91,67.05Z"/>
    <path class="st12" d="M1198.04,254.06c-2.64,3.3-9.72,5.36-13.59,4.08-3.53-1.18-7.05-10.18-4.28-12.86,19.81-10.43,14.17-13.98,24.91-27.95l6.96,19.23-14.01,17.5Z"/>
    <path class="st12" d="M1157.16,195.61c.41,8.86-9,16.51-16.59,21.15-6.58-12.65-8.79-25.06-9.14-39.92,9.14,4.35,18.03,9.85,25.73,18.76Z"/>
    <path class="st12" d="M1080.28,136.86l2.87-3.72,17.06,3.22c-.1-1.81,1.28-2.95,4.13-3.44,3.5,2.23,8.91,7.44,10.44,11.48l8.67,22.95-19.67-1.49c-3.74-14.38-12.88-21.68-23.49-29Z"/>
    <path class="st13" d="M1538.87,598.81c.55.01,1.16.1,1.51-.08l3.9-2c.42-.22,1.41-.08,2-.07l2.27-2.17,2-.06,3.86-4.12,5.65-3.97c4.11-3.95,12.35-8.74,15.36-3.6l-5.55,7.2c-1.1,1.42,3.44,4.6,5.75,5.7l-9.57,12.91-10.52-1.9c-4.5,5.05-7.76,5.71-11.62,3.37-5.11-3.11-6.76-6.26-5.06-11.2Z"/>
    <path class="st5" d="M1018.46,534.29c-3.43,1.77-7.82,1.51-10.46-1.21,1.81-2.26,4.28-4.89,6.25-6.78,9.38-1.83,20.63-10.83,34.59-11.47,18.66-.86,38.01,2.39,54.17,13.57-33.41-6.49-55.39-15.2-84.55,5.89Z"/>
    <path class="st0" d="M1200.74,1504.67l-22.5-36.39,7.93-9.38c7.62,13.02,13.44,22.03,22.28,33.9-1.28,3.37-4.29,7.77-7.71,11.87Z"/>
    <path class="st12" d="M1653.39,548.61l-28.61-10.88,14.65-12.72c8.48,8.18,17.34,10.21,29.27,13.36-1.73,2.78-10.47,9.51-15.31,10.24Z"/>
    <path class="st25" d="M1074.61,1074.26l-.26-3.7-1.92-22.17c-1.21-13.96,4.53-27.76,15.2-35.46l-9.54,58.78c-.1.59-.98,3.54-1,3.53-.05-.01-2.12-.83-2.48-.98Z"/>
    <path class="st12" d="M1556.89,477.61c-8.35,2.17-17.9-5.94-17.15-15.44l15.2-14.99c2.81.69,8.25,4.98,8.98,7.26l-7.03,23.17Z"/>
    <path class="st13" d="M1078.27,122.97c9.55-.34,17.6,2.38,24.15,8.18l1.92,1.77-.24,6.73c-.12,3.2-10.96-1.67-23.81-2.79-1.53-.13-4.3-1.41-5.68-2.12l-3.83-1.99c-14.78-1.07-18.26-3.74-10.44-8l17.94-1.77Z"/>
    <path class="st13" d="M1541.97,556.04l11.09,1.05-7.26,16.2c-1,2.24-.11,5.53,1.72,9.14.19,5.24-15.62,5.67-15.85.71-.08-1.65,2.15-5.83,2.6-7.42.36-1.27-4.43-3.13-4.71-4.51-.9-4.52,4.7-11.51,8.98-14.76l3.42-.41Z"/>
    <path class="st7" d="M1124.84,853.49c-7.1,5.62-16.55,12.2-24.23,11.29-8.34-.98-15.13-10.5-18.89-19.94l43.11,8.65Z"/>
    <path class="st25" d="M1092.21,936.79c-10.08,14.16-25.18,25.74-39.52,35.96l6.04-19.77c13.55-3.72,21.21-11.71,30.35-22.72l3.13,6.53Z"/>
    <path class="st7" d="M942.49,824.55c3.37,3.21,1.7,10.2-1.08,15.63-14.86-16.92-24.66-38.21-24.65-61.98,6.37,16.55,11.38,32.7,25.73,46.35Z"/>
    <path class="st10" d="M1162.14,934.52c-2.59.25-8.82,2.37-10.89,4.72l-15.68,17.78,7.04,1.13c-6.13,2.68-13.36,4.04-20.24,4.77,5.7-9.98,14.04-18.92,22.32-28.24,5.69-6.4,14.19-9.49,22.04-4.36l-4.58,4.2Z"/>
    <path class="st24" d="M1217.27,1480.62c1.49,2.18-4.49,7.84-6.08,6.17-4.98-5.23-29.64-37.18-12.79-39.28,5.59,11.39,11.33,22.04,18.87,33.11Z"/>
    <path class="st12" d="M1184.04,266.09c6.67-1.4,13.46-3.4,17.1-8.12l11.51-14.9c5.21,11.88,2.38,21.79-8.12,27.61-6.62,3.66-15.84,5.87-20.48-4.59Z"/>
    <path class="st12" d="M1126.25,174.34l2.44,26.21c-12.53-6.54-18.66-16.2-21.75-29.21l19.31,3Z"/>
    <path class="st14" d="M1124.47,864.03l4.24-3.61,10.25,3.02-22.55,33.76-8.68-16.35,15.1-5.84c1.51-.58,4.97-4.3,4.28-5.69l-2.65-5.29Z"/>
    <path class="st0" d="M1284.67,1175.6l-43.02-7.78c1.15-23,71.64,12.95,43.02,7.78Z"/>
    <path class="st13" d="M1266.57,598.49l7.43,12.77c-15.62-5.71-36.8-12.66-37.05-28.98,12.7,3.79,22.21,15.28,29.63,16.21Z"/>
    <path class="st12" d="M1163.6,202.58l8.32,11.07c-4.64,5.13-7.14,8.07-8.41,13.29l12.26-7.18,11.21,13.4-6.18-16.14,16.11-18.33c1.58,2.45,5.04,8.36,5.39,11.25.64,5.27-20.5,35.9-28.06,29.48-3.56-3.02-7.53-9.5-10.97-11.5l-14.31-8.33,14.64-17Z"/>
    <path class="st10" d="M1266.81,684.23l9.81,2.1c-22.29,10.61-51.74,6.69-69.88-12.16l5.6-1.75c15.14,14.29,34.91,17.77,54.47,11.82Z"/>
    <path class="st7" d="M1091.37,869.62l-1.77,14.43c-12.23-12.34-19.99-26.33-25.74-43.57,20.01-3.19-1.27,16.29,27.51,29.14Z"/>
    <path class="st7" d="M1040.51,480.83c-5.5,2.52-6.53-2.92-2.48-6.66l4.54-7.18,6.16-2.26,8.22-3.21c9.95-9.32,17.75-19.08,30.98-24.59l-47.41,43.9Z"/>
    <path class="st4" d="M1340.37,552.63l-9.11-33.83,17.29-8.29c-6.04,15.43-4.26,28.91-8.17,42.12Z"/>
    <path class="st12" d="M1178.64,300.5c-6.93-1.85-14.63-3.92-18.52-6.89-1.78-1.35-2.38-9.2-1.51-9.56l21.87-.94-1.84,17.39Z"/>
    <path class="st12" d="M1182.97,298.73l4.37-17.8c9.65,3.59,16.53-.13,24.72-8.05-1.88,17.54-11.24,19.6-29.09,25.85Z"/>
    <path class="st23" d="M974.66,778.7c-.62,26.5,12.79,38.74,13.12,60.15-6.87-16.15-21.49-48.34-15.6-64.35.7,1.08,2.51,2.92,2.48,4.2Z"/>
    <path class="st13" d="M1002.54,384.87l2.68,1.88c.96.67-.81,4.68-1.79,5.28l-13.67,8.47-3.18-9.86c2.69-3.09,4.55-3.45,7.84-4.33l4.03-1.45h4.08Z"/>
    <path class="st12" d="M1178.1,272.95c1.21,5.14-14.22,5.02-19.21,2.87-1.74-.75-1.37-5.48-.54-6.92,5.13-2.24,15.81-4.07,19.75,4.05Z"/>
    <path class="st12" d="M1172.04,261.42c-4.68.75-10.55,1.4-13.68,1.33-2.66-.06-4.74-9.12-2.3-10.11,3-1.22,9.63-2.58,11.94-1.13s4.7,7.87,4.05,9.91Z"/>
    <path class="st12" d="M1060.33,124.74l.13,4.92c.07,2.61,12.69-.9,14.14,5.06-13.33-2.87-25.59-2.97-40.29-2.79,8.91-4.85,17.52-6.36,26.02-7.2Z"/>
    <path class="st13" d="M1590.34,606.54c.18-.38.12-1.18.14-1.75,4.09-.59,6.69-4.9,8.87-10.33,9.59,7.86-14.09,29.04-16.85,25.76,3.33-5.64,6.35-10.59,7.83-13.68Z"/>
    <path class="st12" d="M1176.16,306.42c-7.25,5.18-12.93,6.92-21.63,8.9l3.11-13.11,18.52,4.21Z"/>
    <path class="st12" d="M1640.93,551.9c-10.4,6.69-20.4,5.08-26.23-6.94,8.67,1.71,16.86,3.68,26.23,6.94Z"/>
    <path class="st7" d="M1126.54,426.68c-1.49,11.34-.26,23.27,4.49,33.36h-5.15c-5.07-2.31-7-10.79-7.26-16.14s-.63-15.38,4.23-17.56l3.7.34Z"/>
    <path class="st7" d="M1335.54,668.31l-15.01,26.65,6.83-25.63c2.99-1.55,5.89-2.34,8.19-1.02Z"/>
    <path class="st7" d="M1569.24,779.33c4.03.5,8.23,5.23,7.93,9.49-10.61-3.59-18.35-7.12-26.62-11.82l18.69,2.33Z"/>
    <path class="st10" d="M1007.76,514.6c-4.73-.45-2.09-3.95,1.1-6.06,2.01-1.52,4.45-5.37,5.54-8.02,2.32-2.98,5-4.95,8.04-5.9l2.78.31c4.68.53-13.6,16.91-17.45,19.67Z"/>
    <path class="st13" d="M1358.63,770.22c-.34,6.78-5.43,12.38-12.34,12.22l-2.16-3.32c-2.96-4.57,11.43-8.26,14.5-8.9Z"/>
    <path class="st10" d="M1040.51,480.83l-10.51,11.57-1.99-8.14c2.66-3.97,5.98-7.58,10.01-10.09l2.48,6.66Z"/>
    <path class="st12" d="M1161.48,244.74c-2.94,2.93-10.61,2.47-12.3-1.55,1.17-1.43,4.58-3.82,6.18-3.94,1.91-.14,4.93,3.23,6.13,5.49Z"/>
    <path class="st12" d="M1573.29,440l-5,5.59c-1.02,1.14-3.16-.81-6.2-3.74l10.39-6.75c1.14-.74,1.51,4.11.81,4.9Z"/>
    <path class="st7" d="M1668.55,1076.68l-1.84,1.65c-9.76-16.61-24.44-34.81-38.49-47.95l1.95-2.04c15.66,12.26,29.23,30.61,38.38,48.34Z"/>
    <path class="st10" d="M1004.86,483.74c.43-9.18,8.35-13.16,15.51-16.8-4.45,6-8.29,11.01-15.51,16.8Z"/>
    <polygon class="st7" points="1099.51 433.94 1086.17 436.58 1097.19 426.31 1099.51 433.94"/>
    <path class="st23" d="M1660.77,1082.09l3.03,3.73c.79.98-1.07,3.97-1.58,4.74l-19.69-22.12c-2.09-2.35-3.82-5.81-4.08-8.29l22.32,21.95Z"/>
    <path class="st10" d="M1004.66,516.61c-.67,4.94-3.86,9.4-8.15,12.09-3.7-.67-3.15-4.05,1.66-10.14l1.73-2.03c2.17-2.75,4.27-3.94,4.76.07Z"/>
    <path class="st10" d="M1420.43,756.69c-9.76-2.56-26.13-9.19-34.17-13.7l18.3,4.92c6.65,1.79,13.39,3.03,15.87,8.79Z"/>
    <path class="st7" d="M1286.68,923.52c-6.25-5.71-10.66-11.18-9.53-20.75,3.65,6.42,6.82,13.34,9.53,20.75Z"/>
    <path class="st12" d="M1609.57,554.13c-4.82-1.29-11.06-3.26-13.34-4.51,6.06-8.23,11.94.56,13.34,4.51Z"/>
    <path class="st17" d="M996.51,528.7l-1.67,1.92-7.94,8.41-2.66,4.03c-.61.93-2.7-.23-3.76-.42-6.24,3.1,18.6-27.77,17.69-24.07l-1.66,10.14Z"/>
    <path class="st8" d="M1700.92,958.67c-2.98-3.87-5.46-9.24-6.47-13.98"/>
    <path class="st17" d="M1008.86,508.54l-1.1,6.06c-.75.54-2.24,1.46-3.1,2.01l-4.76-.07c1.23-4.33,4.72-7.33,8.96-8Z"/>
    <path class="st27" d="M1412.44,828.69l-.09,5.83-8.34-.58c2.14-4.08,5.46-6.92,8.44-5.25Z"/>
    <path class="st17" d="M1022.44,494.62c-2.14,2.51-5.05,4.67-8.04,5.9,1.62-3.94,5.13-6.61,8-9.87l.04,3.97Z"/>
    <path class="st10" d="M994.84,530.62c-1.76,3.48-4.58,6.59-7.94,8.41.55-4.13,3.88-8.32,7.94-8.41Z"/>
    <path class="st6" d="M1300.6,758.09l-7.37,12.6c1.1-5.99,2.65-11.45,5.22-16.37l2.15,3.78Z"/>
    <path class="st12" d="M1102.42,131.15c-2.78-.3-6.31-2.35-9.55-4.41l-14.6-3.77c7.56-.75,22.19-1.49,24.15,8.18Z"/>
    <polygon class="st7" points="1191.97 316.7 1190.1 314.68 1201.06 310.93 1191.97 316.7"/>
    <path class="st18" d="M1020.72,142.88l-6.42-.05c2.47-2.74,5.59-4.71,10.12-6.72l-3.7,6.78Z"/>
    <path class="st17" d="M942.43,592.59l4-6-.7,4.17c-.16.99-2.41,1.49-3.3,1.82Z"/>
    <path class="st17" d="M966.1,560.41c-.88,3.03-2.82,6.77-5.78,7.8.02-2.97,2.38-7.52,5.78-7.8Z"/>
    <path class="st17" d="M938.32,599.13c.37-2.16,2.48-5.01,4.11-6.54l-.55,4.44c-.13,1.08-2.65,1.76-3.57,2.09Z"/>
    <path class="st17" d="M954.43,576.6c-.77,1.33-2.64,3.12-4,4,.91-1.36,2.63-3.04,4-4Z"/>
    <path class="st17" d="M954.43,576.6l2-4-2,4Z"/>
    <path class="st17" d="M960.32,568.22c0,1.02-.06,3.53-1.09,3.66-.74.1-2.17.54-2.79.72.14-.63.5-2.02.55-2.81.06-1,2.34-1.22,3.34-1.57Z"/>
    <path class="st17" d="M970.43,554.61c-.86,1.96-2.9,4.44-4.33,5.8l.75-4.2c.18-1.03,2.74-1.37,3.59-1.6Z"/>
    <path class="st17" d="M910.18,664.42l1.05,3.09c-12.67,31.84-20.02,65.03-24.66,98.98-2.88,4.42-4.46,2.88-7.68-.3-10.15-10.02,17.43-92.49,23.34-108.24l4.55-1.33c9.52-19.41,17.24-40.86,31.54-57.5-.37,2.13-.96,7.32-2.63,9.34-12.85,15.53-18.29,38.19-25.51,55.96Z"/>
    <path class="st17" d="M976.43,550.61c-1.04,2.35-2.37,3.68-4,4h-2l4.67-8.43,3.47,1.48c.93.39-1.61,2.33-2.14,2.95Z"/>
    <path class="st17" d="M946.43,586.6l4-6-.68,4.17c-.17,1.01-2.42,1.5-3.32,1.82Z"/>
    <path class="st18" d="M1718.42,432.68c-1.73-2.16-2.14-8.71-1.8-11.87,1.36,2.94,1.74,7.87,1.8,11.87Z"/>
    <path class="st1" d="M830.43,942.41h-2c-2.84-1.05-3.9-2.21-4.24-3.78l6.24,3.78Z"/>
    <path class="st4" d="M1678.17,919.72c13.93-3.16,27.2,300.66,10.78,297.63,1.66,1.85-14.6-302.93-10.78-297.63Z"/>
    <path class="st10" d="M994.53,1101.42c-.35-.56,3.12.2,3.2.78.12.88.21,4.77-.25,4.02l-2.94-4.8Z"/>
    <path class="st17" d="M974.43,1014.2c-2.67,4.54-9.23,8.02-14,10.16.26-1.33,2.87-4.43,4.55-5.29l9.45-4.87Z"/>
    <circle class="st7" cx="1690.43" cy="938.41" r="2.23"/>
    <path class="st17" d="M869.05,564.57l.41-8.06c.2.95.07,3.24-.41,8.06Z"/>
    <path class="st7" d="M1064.96,1178.47c-.32-4.57,1.7-8.36,5.9-10.04l-5.9,10.04Z"/>
    <path class="st18" d="M978.31,278.85l8.12-3.65c-1.8,2.09-5.18,3.38-8.12,3.65Z"/>
    <path class="st10" d="M990.45,1094l2.14-.19c.46.4,1.29,1.11,1.8,1.46s-.47,3.41-.89,2.98c-.48-.49-1.59-1.55-1.87-2.08l-1.17-2.17Z"/>
    <path class="st7" d="M1130.01,338.71l-2.02-1.85,8.08-4.08c-2.77,2.76-4.48,4.54-6.06,5.92Z"/>
    <path class="st10" d="M1002.19,464.58l-1.94-2.19,1.29-1.84c.42-.6,2.43,1.07,3.12,1.31,1.04.36-2.16,2.76-2.48,2.72Z"/>
    <path class="st10" d="M972.53,558.94l-.1-4.33,4-4c-1.04,2.37-2.64,6.17-3.9,8.33Z"/>
    <circle class="st12" cx="1030.43" cy="133.83" r="1.27"/>
    <path class="st18" d="M1444.2,258.8l2.19-3.95c-.15,1.19-1.05,3.57-2.19,3.95Z"/>
    <path class="st18" d="M998.46,384.87c-.6.27-2.4,1.01-4.03,1.45l4.03-1.45Z"/>
    <path class="st18" d="M1544.29,596.73l-3.9,2,3.9-2Z"/>
    <circle class="st13" cx="1278.43" cy="613.58" r="1.27"/>
    <path class="st7" d="M828.43,942.41h2c3.42,2.6.11,1.27-2,0Z"/>
    <circle class="st3" cx="1322.43" cy="969.4" r="1.27"/>
    <circle class="st11" cx="1464.43" cy="997.38" r="1.27"/>
    <circle class="st12" cx="951.43" cy="619.58" r="1"/>
    <path class="st11" d="M906.77,656.63c-6.83,24.34-32.07,86.21-24.43,111.56,6.93-48.88,10.83-61.95,27.83-103.76l4.33.46c-16.25,41.65-21.35,86.53-19.13,131.52-5.37-2.86-11.47-9.82-14.61-16.61-21.05-45.48,4.56-102.14,25.33-141.4l.68,18.24Z"/>
    <circle class="st12" cx="1577.43" cy="433.68" r="1"/>
    <circle class="st7" cx="1092.43" cy="886.44" r="1.72"/>
    <circle class="st11" cx="1211.43" cy="379.7" r="1"/>
    <path class="st18" d="M966.51,346.94c1.05-1.16,3.07-3.07,3.99-4.25l-3.99,4.25Z"/>
    <path class="st18" d="M972.51,282.69c.54-.53,1.48-1.53,2.09-1.86l-2.09,1.86Z"/>
    <path class="st18" d="M1006.4,148.96c.85-1.26,2.91-3.32,4.24-4.07l-4.24,4.07Z"/>
    <path class="st18" d="M1550.56,594.43c.93-1.2,2.68-3.29,3.86-4.12l-3.86,4.12Z"/>
    <circle class="st11" cx="1363.43" cy="721.53" r="1"/>
    <path class="st7" d="M1694.45,944.69"/>
    <circle class="st7" cx="835.43" cy="945.41" r="1"/>
    <path class="st18" d="M1546.29,596.66l2.27-2.17-2.27,2.17Z"/>
    <circle class="st10" cx="1007.43" cy="459.66" r="1"/>
    <circle class="st11" cx="1243.43" cy="299.75" r="1"/>
    <path class="st5" d="M980.79,612.64c-2.61-3.16-4.68-9.27-1.65-13.19,3.61-4.68,8.83-9.95,12.94-12.65,25.53-8.39,53.34-6.1,76.85,8.81,7.36,4.66,47.13,30.69,28.29,38.06-44.11-27.68-67.75-27.02-116.44-21.02Z"/>
    <path class="st2" d="M997.27,572.97c.94-2.32,2.76-6.42,4.79-8.03,30.94-7.74,69.21,1.51,86.11,32.07-33.17-28.55-47.73-34.79-90.9-24.04Z"/>
    <path class="st2" d="M1114.15,743.45c-16.32,11.28-46.69-5.38-52.12-25.32,20.72,17.38,19.57,24.61,52.12,25.32Z"/>
    <path class="st2" d="M1176.33,751.5c-4.99,5.91-44.93,2.8-49.36-6.71,17.33,4.38,30.64,6.13,49.36,6.71Z"/>
    <circle class="st2" cx="1126.43" cy="694.54" r="2.23"/>
    <path class="st18" d="M1286.43,578.72c-1.07-1.11-1.72-1.84-2.1-2.17,3.03-2.41,4.06-1.26,2.1,2.17Z"/>
    <path class="st17" d="M1080.58,1268.3c18.88-46.77,43.51-89.43,58.64-137.83,8.64-27.65,14.58-54.5,21.45-82.4,7.28-29.59,22.5-54.23,44.75-74.57,5.16-4.71,10.62-8.67,17.44-7.67l-8.76,6.25c-52.07,37.13-51.59,103.07-71.61,159.19-16.85,47.23-35.7,92.84-61.9,137.03Z"/>
    <circle class="st17" cx="1079.43" cy="1271.24" r="1"/>
    <circle class="st17" cx="1077.43" cy="1275.24" r="1"/>
    <path class="st9" d="M946.48,1732.43l31.04-7.86c16.83,14.17,18.28,2.98,32.05,11.92,2.94,7.01-3.59,14.17-9.84,16.59-32.78,12.69-36.05,12.07-74.35,10.14l-2.86-15.29c9.35-9.66,22.1-7.16,23.97-15.5Z"/>
    <path class="st23" d="M1386.34,878.61c1.6,10.56,10.68,18.73,17.85,25.73,13.44,13.11,29.44,23.85,46.98,33.43l76,41.52c33.91,18.53,64.94,38.93,94.77,63.57,2.04,1.68,3.73,5.52,4.19,7.52-29.42-23.24-59.82-44.34-93.63-62.59l-74.01-39.94c-19.52-10.54-37.84-22.36-54.54-36.86-21.25-18.45-31.35-44.65-33.25-72.3-.43-6.23-1.02-12.76,4.07-16.47-1.32,13.35,1.44,48.59,11.57,56.39Z"/>
    <path class="st23" d="M1500.75,840.46c-1.57,8.51,5.06,16.68,7.51,23.82,10.55,30.72,29.24,57.68,50.83,83.17,6.4,7.56,14.9,13.19,17.2,23.37-28.21-27.5-50.94-58.35-68.04-92.43-10.17-20.27-12.7-44.36-19.33-65.82l-5.09-39.71c-1.23-9.62-5.85-18.43-4.23-29.14,3.56,9.82,5.69,18.98,7.57,30.45l10.15,62.03c.17,1.06,3.73,4.87,3.44,4.25Z"/>
    <path class="st2" d="M1330.58,868.43c-19.98-15.6-20.66-20.28-14.18-45.45l14.2,19.5c3.91,5.37,1.68,17.55-.02,25.94Z"/>
    <path class="st2" d="M1489.01,588.82c7.78,38.24,17.16,73.44,18.04,111.47l-37.34-158.79c-3.67-15.6-9.33-14.41-12.46-25.95-.38-1.42,5.33-.55,6.14,1.02,10.94,21.35,20.5,47.13,25.61,72.24Z"/>
    <path class="st20" d="M1362.92,630.7c10.17-41.97,22.19-76.24,26.76-121.51,14.94,29.99,7.06,94.98-26.76,121.51Z"/>
    <path class="st23" d="M1616.95,1011.79c-11.75-9.74-23.5-19.83-32.36-33.98,12.62,9.41,22.98,20.06,32.36,33.98Z"/>
    <path class="st23" d="M1668.55,1076.68c-11.88-17.9-24.09-34.12-38.38-48.34-2.75-2.74-5.23-6.23-7.42-11.57,18.25,16.13,45.55,51.97,57.54,73.92l-11.74-14.01Z"/>
    <path class="st17" d="M1682.43,1096.33c.57-1.75,1.24-1.72,2,0,3.7,3.76,6.27,8.73,7.05,14.31l-9.05-14.31Z"/>
    <path class="st17" d="M1695.72,1120.43c-2.07-1.41-3.45-4.89-2.71-7.72,1.96-.05,3.1,2.81,2.71,7.72Z"/>
    <path class="st23" d="M1684.43,1096.33h-2l-2.09-1.18c-.66-.37.47-3,1.22-2.94s2.9.34,2.81,1.11,0,1.93.05,3.02Z"/>
    <path class="st2" d="M1122.84,426.34c-.44,7.09-.98,16.2.63,23.23l2.4,10.48c-1.48,0-4.42-.68-5.82-1.16l-5.88-10.44c-.08-9.11,1.77-17.99,5.33-27.42l3.34,5.31Z"/>
    <path class="st5" d="M1290.31,582.4l-3.87-3.68-2.1-2.17c-7.37-6.43-25.68-16.98-34.62-20.82-12.12-5.21-22.11-8.21-35.51-.71-.42-3.22,3.17-9.57,5.84-10.08,9.94-1.88,19.98-2.35,28.29,1.69,27.47,13.35,53.32,29.53,72.89,53.85-9.67-2.23-22.9-19.36-30.91-18.08Z"/>
    <circle class="st2" cx="1322.43" cy="419.68" r="1.27"/>
    <path class="st9" d="M1214.9,1271.01c-8.37,3.32-26.75,13.84-34.91.91-7.64-12.1,3.21-37.41,14.93-50.69,2.46-2.79,5.1-10.33,7.78-12.26,14.7-10.61,32.38-12.61,49.6-12.42,14.04.16,21.48,6.88,23.62,20.87.48,3.16,1.82,9.35,1.24,12.26s-5.73,6.18-8.71,8.17c-28.38,18.98-24.31,21.56-53.54,33.16Z"/>
    <path class="st2" d="M1064.37,918.03c-28.41-6.47-53.77-63.62-48.08-91.19l10.38,39.27c6.6,21.19,19.39,37.29,37.7,51.92Z"/>
    <path class="st13" d="M1433.11,366.61c-4.79,1.73-11.16-12.76-8.53-14.63,1.73-1.23,6.39-2.42,8.19-1.78l6.84,2.44c1.82.65,2.71-5.73,3.01-7.62l.62-3.95c.16-.99,3.26-2.17,3.55-1.21l1.52,5.06c.62,2.05,1.56,8.49-.09,9.88l-6.79,5.77c-2.44,2.07-5.95,5.17-8.33,6.03Z"/>
    <path class="st13" d="M1703.64,547.75c-1.88-5.47-2.69-8.89-2.88-12.8,3.82,1.82,6.01,2.91,7.06,3.76,1.32,1.06-.36,4.47-4.19,9.04Z"/>
    <path class="st13" d="M1498.49,321.95c1.47.02,6.35,15.81,2.83,22.25-1.5,2.75-5.57,5.37-10.2,7.22l-.06-29.59,7.43.12Z"/>
    <path class="st13" d="M1513.13,348.87c-5.08-4.22-7.77-13.38.18-19.01l-.18,19.01Z"/>
    <path class="st5" d="M1352.07,795.39l18.72-7.2c6.71-2.58,9.62-12.27,16.23-18.87,3.56,8.92-3.98,18.18-9.35,22.19-7.54,5.63-17.4,6.58-25.61,3.89Z"/>
    <path class="st2" d="M1322.63,804.66c-3.4-.1-9.5,7.29-13.06.13-1.79-3.61,1.32-9.62,4.82-12.12,2.06.51,6.23,1.7,8.03,2.7,2.11,1.17.76,7.15.21,9.29Z"/>
    <path class="st13" d="M1634.53,283.19c-5.47-2.78-4.37-14.36,2.73-16.16,2.71-.61,5.3,5.92,4.98,8.68s-5.07,8.15-7.71,7.48Z"/>
    <path class="st2" d="M1202.36,455.4l-9.57,16.86c-4.98-3.93-.46-20.42,10.4-21.58,1.15-.12-.2,3.6-.83,4.72Z"/>
    <path class="st13" d="M1744.14,502.76c-4.44,19.18-10.41-2.82-23.21,1.48-.76.26-3.73-.55-4.46-.75-1.11-.3,2.43-2.74,3.73-3.21l15.05-5.52-15.04-9.16c-1.52-9.14,29.29-12.32,29.08-5.08l-5.15,22.23Z"/>
    <path class="st23" d="M1240.86,663.43l2.7-20.39c.55-4.17,7.47-10.06,12.07-15.46l-1.21,20.63-13.55,15.22Z"/>
    <path class="st20" d="M1424.61,619.07c.79,9.6,3.33,22.2,5.85,31.49-11.03,16.43-23.15,31.56-37.29,46.82l3.21-23,19.85-55.6,8.38.29Z"/>
    <path class="st2" d="M1304.68,1442.06c-3.28,2.33-5.75-2.72-5.09-2.79,2.5-.3,3.79.53,5.09,2.79l-55.63,18.7-5.74-18.44c-1.5-4.82-3.73-9.81-3.95-14.68,21.49-7.6,40.62-13.25,64.23-15.75l5.45,27.39c.19.98-5.02,3.62-4.35,2.78Z"/>
    <circle class="st25" cx="1093.43" cy="923.42" r="1"/>
    <circle class="st25" cx="1091.43" cy="927.42" r="1"/>
    <path class="st24" d="M1327.23,857.47c-7.43-3.26-12.18-12.39-6.68-18.83,6.25,3.16,8.83,12.28,6.68,18.83Z"/>
    <path class="st0" d="M1304.68,1442.06l-48.93,12.88c-1.88.56-3.97,1.05-4.53.04-.37-.68-1.23-3.65-.53-3.98l3.1-1.48,19.15-9.1c2.59-1.23,5.5-3.3,6.06-5.26s-4.65-6.71-6.94-5.98l-20.4,6.49c-1.93.61-4.93.87-6.35.89s-1.42-6.74.26-7.12l50.81-11.44,8.3,24.06Z"/>
    <path class="st24" d="M1268.05,1436.62l-17.36,9.67c-8.53-5.17,15.98-11.46,17.36-9.67Z"/>
  </g>
  <path class="st11" d="M884.95,569.67c-50.82-64.87,99.63-85.65,157.78-132.74"/>
</svg>