<?xml version="1.0" encoding="UTF-8"?>
<svg id="Layer_1" xmlns="http://www.w3.org/2000/svg" version="1.1" viewBox="0 0 102 86.88">
  <!-- Generator: Adobe Illustrator 30.1.0, SVG Export Plug-In . SVG Version: 2.1.1 Build 136)  -->
  <defs>
    <style>
      .st0 {
        fill: #4e1a45;
      }

      .st1 {
        fill: #46104d;
      }

      .st2 {
        fill: #585858;
      }

      .st3 {
        fill: #eeed7f;
      }

      .st4 {
        fill: #8c4906;
      }

      .st5 {
        fill: #55145d;
      }

      .st6 {
        fill: #ead9ea;
      }

      .st7 {
        fill: #622e18;
      }

      .st8 {
        fill: #7d296e;
      }

      .st9 {
        fill: #44124c;
      }

      .st10 {
        fill: #76424e;
      }

      .st11 {
        fill: #380d3d;
      }

      .st12 {
        fill: #764b95;
      }

      .st13 {
        fill: #390d3e;
      }

      .st14 {
        fill: #54145c;
      }

      .st15 {
        fill: #4b1942;
      }

      .st16 {
        fill: #8c4a06;
      }

      .st17 {
        fill: #53135b;
      }

      .st18 {
        fill: #aea9ae;
      }

      .st19 {
        fill: #56145e;
      }

      .st20 {
        fill: #3f3f3f;
      }

      .st21 {
        fill: #1e1326;
      }

      .st22 {
        fill: #795e7c;
      }

      .st23 {
        fill: #cfa5da;
      }

      .st24 {
        fill: #5e1f53;
      }

      .st25 {
        fill: #9d7ea5;
      }

      .st26 {
        fill: #b3a212;
      }

      .st27 {
        fill: #57303a;
      }

      .st28 {
        fill: #4f1256;
      }

      .st29 {
        fill: #481350;
      }

      .st30 {
        fill: #643112;
      }

      .st31 {
        fill: #653543;
      }

      .st32 {
        fill: #ebdaeb;
      }

      .st33 {
        fill: #290d24;
      }

      .st34 {
        fill: #200723;
      }

      .st35 {
        fill: #1c081f;
      }

      .st36 {
        fill: #e1d74c;
      }

      .st37 {
        fill: #d2be15;
      }

      .st38 {
        fill: #1b0918;
      }

      .st39 {
        fill: #7e3f13;
      }

      .st40 {
        fill: #3a0926;
      }

      .st41 {
        fill: #cea4d9;
      }

      .st42 {
        fill: #1f1f1f;
      }

      .st43 {
        fill: #66225a;
      }

      .st44 {
        fill: #28061a;
      }

      .st45 {
        fill: #acacac;
      }

      .st46 {
        fill: #8a4806;
      }

      .st47 {
        fill: #f1f1f1;
      }

      .st48 {
        fill: #5d122d;
      }

      .st49 {
        fill: #612056;
      }

      .st50 {
        fill: #7c296e;
      }

      .st51 {
        fill: #6c3510;
      }

      .st52 {
        fill: #bea312;
      }

      .st53 {
        fill: #cbcbcb;
      }

      .st54 {
        fill: #6b2c3f;
      }

      .st55 {
        fill: #4a1151;
      }

      .st56 {
        fill: #56145d;
      }

      .st57 {
        fill: #884706;
      }

      .st58 {
        fill: #c9b113;
      }

      .st59 {
        fill: #380925;
      }

      .st60 {
        fill: #160713;
      }

      .st61 {
        fill: #311902;
      }

      .st62 {
        fill: #250c21;
      }

      .st63 {
        fill: #743d05;
      }

      .st64 {
        fill: #a79711;
      }

      .st65 {
        fill: #6d2e41;
      }

      .st66 {
        fill: #6d2f41;
      }

      .st67 {
        fill: #693846;
      }

      .st68 {
        fill: #8b4906;
      }

      .st69 {
        fill: #1b1b1b;
      }

      .st70 {
        fill: #0f050d;
      }

      .st71 {
        fill: #47134f;
      }

      .st72 {
        fill: #1c0413;
      }

      .st73 {
        fill: #6e3142;
      }

      .st74 {
        fill: #511359;
      }

      .st75 {
        fill: #d1be15;
      }

      .st76 {
        fill: #6d2361;
      }

      .st77 {
        fill: #8a4906;
      }

      .st78 {
        fill: #5f353f;
      }

      .st79 {
        fill: #78266b;
      }

      .st80 {
        fill: #482830;
      }

      .st81 {
        fill: #393939;
      }

      .st82 {
        fill: #3f3e40;
      }

      .st83 {
        fill: #5e132d;
      }

      .st84 {
        fill: #100412;
      }

      .st85 {
        fill: #6d3042;
      }

      .st86 {
        fill: #f1edf1;
      }

      .st87 {
        fill: #7c296d;
      }

      .st88 {
        fill: #e0d64a;
      }

      .st89 {
        fill: #521458;
      }

      .st90 {
        fill: #563039;
      }

      .st91 {
        fill: #f8f8f8;
      }

      .st92 {
        fill: #3d2003;
      }

      .st93 {
        fill: #f1eaf3;
      }

      .st94 {
        fill: #343434;
      }

      .st95 {
        fill: #561e5e;
      }

      .st96 {
        fill: #77424f;
      }

      .st97 {
        fill: #68263b;
      }

      .st98 {
        fill: #652138;
      }
    </style>
  </defs>
  <path d="M71.96,86.35c-.11.01-.09,0,0-.07.18-.09.35-.18.54-.23,0-.04-.03-.06-.07-.06-.38.09-.76.31-1.18.15-.16-.06-.04-.3.08-.36l1.76-1c.61-.35,1.1-.9,1.53-1.47.81-1.07.43-2.72-.23-3.8-.28-.45-.7-.71-1.2-.85-1.48-.43-2.97-.64-4.51-.76-.78-.06-1.51-.18-2.27-.2-.19,0-.36.06-.56,0-.27-.08-.54.03-.82.04-1.55.03-3.05,0-4.61.15-.92.09-1.93.09-2.78.37-.74.58-1.12,1.52-1.75,2.21l-2.83,3.1c-.16.17-.21.39-.35.57l-1.3,1.74c-.2.27-.47.26-.77.22-.18-.02-.38.1-.51-.08l-1.6-2.12-2.61-2.84c-.27-.29-.46-.56-.67-.89l-1.23-1.89c-1.4-.25-2.76-.44-4.19-.47l-3.53-.07c-.25,0-.51-.12-.75-.04-.2.07-.37-.02-.56,0l-2.34.2c-1.51.13-2.96.32-4.41.74-.42.13-.86.33-1.11.7-.68,1.02-.97,2.71-.28,3.7.42.6.93,1.15,1.54,1.57s1.36.66,1.93,1.18c.12.11-.1.34-.21.36-.25.06-.44,0-.71.03.08.08.17.06.25.11.07.09.04.13-.06.07-.87-.25-1.71-.6-2.63-.78-.54-.11-1.05-.23-1.56-.44-3.74-1.5-6.14-2.75-9.28-5.34-.23-1.14-.91-2.59-1.08-3.6s-.53-1.9-.77-2.89c-.68-2.78-.68-5.65-.26-8.48.02-.13-.04-.2-.04-.26l.12-2.38.19-1.66c.05-.49.38-.86.8-1.12,1.61-1.04,3.32-1.83,4.97-2.82l2.47-1.49c.67-.41,1.46-.68,2.24-.76.31.45-.9.94-1.6,2.07-.42.68-.65,1.42-.9,2.17s-.29,1.5-.1,2.27l.34,1.35c.1.42.32.77.66,1.03.33.25.66.57,1.07.66.66.13,1.33.08,1.99.12.91.06,4.09-.05,4.92-.22,1.46-.3,2.83-.85,4.2-1.41.2-.08,1.39-.83,1.5-1.15-.18-.88-.81-.53-1.73-.61-.68-.07-1.31-.27-1.99-.39-.57-.1-1.65,0-2.17-.24-.28-.12-.53-.26-.82-.28.03-.09.09-.09.12-.14-.55-.14-.4-.36-.85-.85l-2.85-3.02-.41-.44-4.28-4.77c-.49-.54-.98-1.01-1.42-1.59-.18-.24-.41-.34-.67-.48-.78-.41-1.47-1.07-2.32-1.38-.85.15-1.7.59-2.46,1.01-.81.45-1.49,1.03-2.03,1.77-.6.84-1.02,2.42-.84,3.42.06.31-.09.59-.29.77-.23.21-.58.28-.9.16-1.44-.57-2.77-1.37-3.93-2.4-2.06-1.83-2.94-4.1-2.47-6.85.31-1.82,1-3.51,1.99-5.07-.18-.2-.42-.34-.62-.54-1.14-1.1-2.12-2.3-3.16-3.5-.25-.29-.07.33-.6-.96-.14-.18-.47-.27-.5-.58,0-.12.15-.33.28-.32.23.02.31.3.49.4l1.22.63c.82.42,1.68.72,2.62.75,1.82.05,2.32-.19,4.03-.79l-1.63-1.36-2.13-1.89c-.54-.48-1.04-.96-1.48-1.5-.23-.28-.24-.55-.19-.87.04-.24-.06-.49,0-.71.29.05.53.16.72.38,1.4,1.57,3.48,2.27,5.53,2.57,1.29.19,2.58.34,3.89.36.3,0,.57-.21.93-.15.67.11,1.31.27,1.96.44.28.08.58-.07.62-.33-.63.12-.64-.75-1.08-1.13-.55-.47-1.16-.88-1.86-1.13-1.97-.69-2.93-.31-4.81,0-.29.05-.52.14-.83-.02-.19-.1-.36-.32-.47-.61l-.98-2.6c-.18-.47-.07-.94.39-1.18.42-.22.85-.5,1.31-.59l.39-.08,1.53-.65,1.59-.61c.79-.31.91-.86,1-1.72.05-.49-.65-.32-1.18-.7-.89.36-1.7.81-2.63,1.05-1.38.36-2.77.52-4.21.46s-2.71-.61-3.74-1.52c-.65-.57-.98-1.33-1.31-2.1-.45-1.06-.47-2.13,0-3.19,1.21-2.83,3.29-5.79,5.92-7.49l4.67-3.01c1.07-.69,3.3-2.2,4.43-2.48.15-.04.33.11.51.02-.21.37-.55.53-.88.76-.43.3-.84.58-1.26.9l-2.93,2.22c-.63.48-1.19.99-1.76,1.54-.45.42-.82.9-1.19,1.38-.35.45-.57.96-.82,1.46-.35.7-.59,1.84.22,2.32.77.46,1.05.27,1.38.58,1.13.02,2.22-.28,3.18-.89.35-.22.85-.34,1.08-.71,1-1.55,1.97-3.06,3.07-4.54.62-.84,1.21-1.64,1.91-2.4.1-.11.29-.12.37-.07.12.06.15.23.1.37-.23.65-.53,1.27-.67,1.97,1.12-.78,2.13-1.56,3.33-2.06l1.87-.79c.19-.08.42-.1.55-.29.04-.05.08-.1.13-.13.05-.02.1.06.16.06.26-.01.63-.31.72-.19.01.02.02.08-.03.1l-.81.4c.1.04.17.04.13.09l-.7.69c-.11.11-.18.25-.22.38.02.05.08.05.18,0l2.9-.63c.92-.2,1.84-.38,2.78-.3.27.02.5.19.8.1.05-.02.14.02.17.05.04.04.04.17-.03.23l-1.52,1.16-.09.12s.04.08.1.1l.93.28c.53.16,1.1.58,1.67.56l3.04-.85c.93-.26,1.03,0,2.4-.5.35-.13.61-.44.83-.71.21-.25.12-.57-.12-.75-.28-.21-.58-.34-.91-.48-2.73-1.11-5.1-.66-5.99-.81l-1.03-.18c.12-.21.28-.21.43-.26.12-.08.12-.1,0-.08-.41.03-.8.29-.9.13-.03-.04.02-.13.09-.15l1.66-.51c3.65-1.13,6.22-.93,9.95-.36,2,.31,2.38,1.06,3.08,1.28.76.23,1.42.52,1.98,1.1.45.47.89.92,1.16,1.54.15.35.24.77.49,1.07.3.35.5.7.49,1.2-.02.58-.17,1.13-.35,1.68-.28.87-.8,1.57-1.25,2.33-.48.82-1.06,1.34-1.9,1.74-.48.23-.86.67-1.39.87-1.86.71-2.76,1.77-5.11,2.06-.23.03-.44.09-.65.22,1.64,1.43,3.18,2.11,5.33,2.54.13.09.18.2.3.31,1.51.4,3,.75,4.55,1.01.68.11,1.33.15,1.96.39s1.24.15,1.86-.04c.67-.21,1.35-.23,2.05-.36,1.38-.26,2.77-.49,4.09-.96.32-.11.45-.45.9-.45.34,0,.76-.18,1.12-.28,1.38-.36,2.6-1.05,3.67-2-.33-.08-.62-.3-.94-.33-1.21-.12-2.2-.65-3.29-1.15l-2.39-1.09c-.78-.36-.27-.43-1.45-.87-1.07-.4-1.32-1.64-1.52-1.97-.86-1.38-1.79-3.21-.71-4.73.26-.37.36-.88.57-1.27.38-.72.95-1.14,1.52-1.67.84-.79,1.7-1.53,2.82-1.92,1.55-.54,3.45-.95,5.1-.89l1.44.05,1.16.05c1.69.07,3.26.61,4.86,1.14l.86.29c.06.02.11.07.1.13s-.07.1-.14.09l-.3-.07c-.06.1-.08.22-.14.27-.11.09-.28,0-.4.03-1.43.26-2.83-.06-4.93.37-.87.18-1.69.42-2.47.83-.25.13-.39.37-.23.66.9,1.6,2.35,1.19,3.53,1.49.93.24,1.83.49,2.75.78.25.08.46.05.68-.1.56-.36,1.17-.55,1.89-.59-.18-.58-1-.95-1.47-1.43-.1-.11.11-.33.24-.29.31.1.54-.04.84-.08,1.34-.21,4.11.56,5.53.9.03,0,.1-.02.09-.03-.11-.08-.44-.96-.57-1.04l-.93-.54s.07-.1.1-.08l.6.22c.08.03.16-.09.23-.05.07.05.11.17.19.2l2.5,1.01c1.07.43,1.97,1.13,2.97,1.79-.06-.66-.74-1.53-.4-1.91.09-.1.32-.29.46-.17,1.85,2.19,3.48,4.5,4.98,6.93.2.18.42.33.65.45l1.15.61c.25.13.41-.33.37-.05-.03.05-.1.11-.09.14.05.19,1.82.61,2.09.5l.48-.19c.2-.08,1.47-.1,1.47-1.18,0-.55-.21-1.02-.43-1.5-.38-.83-.87-1.52-1.47-2.21-.88-1-1.79-1.91-2.87-2.7l-2.21-1.63c-.44-.32-.89-.58-1.32-.91-.24-.18-.44-.36-.75-.44-.13-.03-.34-.07-.42-.19-.09-.13-.06-.33-.12-.51.35,0,.58.14.84.28.12.07.3,0,.43.05,1.72.62,3.01,1.74,4.72,2.58.16.08.17.26.27.32l3.48,2.24c1.2.77,2.24,1.63,3.17,2.71,1.24,1.44,2.21,3.02,2.98,4.75.48,1.07.51,2.15.05,3.24-.35.84-.71,1.67-1.42,2.3-1.07.96-2.43,1.55-3.88,1.61s-2.81-.1-4.17-.45c-.93-.24-1.72-.69-2.61-1.05-.33.14-.64.24-1.01.33.04,1.25.37,1.1,1.02,1.77.05.05,0,.16.04.19l1.63.71c.17.07.19.15.39.18.44.07.83.38,1.27.49.26.06.51.1.75.22l.88.43c.26.13.4.41.28.73l-1.09,3.01c-.24.67-.84.92-1.46.71-.5-.16-1.03-.14-1.53-.27-.66-.17-1.3-.14-1.96-.05-1,.13-1.87.52-2.67,1.13-.34.26-.67.49-.82.92-.08.23-.29.36-.42.53-.2.26.75.39.97.33.57-.17,2.25-.67,2.7-.27,1.42-.05,2.82-.18,4.23-.42,1.85-.32,3.77-.97,4.99-2.45.18-.22.41-.37.65-.46.11.2-.06.39-.04.56.02.18.12.33.03.53-.14.31-.34.56-.59.79l-2.94,2.69c-.19.17-.29.32-.52.45-.55.33-.97.81-1.49,1.19,1.84.65,2.71,1.06,4.68.89.99-.08,1.9-.46,2.73-.96.22-.14.46-.22.66-.37.1-.07.42-.49.58-.41.05.03.08.07.1.17.03.17-.14.41-.3.48-.24.11-.23.26-.36.44-1.15,1.48-2.39,2.86-3.69,4.21-.14.14-.3.22-.44.4,1.45,2.35,2.56,5.54,1.73,8.29-.88,2.93-3.71,5.01-6.4,6.16-.23.1-.73.19-.9.02-.06-.06-.15-.21-.12-.35.21-1.25-.25-2.94-1.03-3.93-1.14-1.44-2.79-2.29-4.53-2.85-.34-.11-.67.43-.81.56-.07-.04-.1-.11-.14-.12-.02,0-.04,0-.07.03l-1.24.8s-.14.1-.2.06l-3.64,3.97-5.82,6.46c.09-.1-.13.24-.08.16l-.05.07-.05.07c-.19.29-.29.29-.56.46-.02.02-.03.03-.03.03.04,0,.06,0,.1.02l.12.03c.09.03.07.05,0,.1-.38.03-.7.16-1.05.27-.48.15-.98.15-1.48.16-1.46.04-2.2.57-3.73.45-.19,0-.5.19-.4.43.14.32.49.68.81.85l.99.52c.69.36,3.62,1.35,4.34,1.43.87.1,3.92.25,4.72.17.67-.06,1.35.04,2.01-.14.5-.13.99-.55,1.28-.95.22-.31.22-.68.32-1.03.27-.9.41-1.85.18-2.78s-.53-1.72-.97-2.51c-.62-1.12-1.85-1.69-1.63-2.06.13-.22.28-.23.5-.17l1.08.3c.25.07.41.16.62.29l2.58,1.53c1.02.61,5.57,2.75,5.69,3.55.1.66.21,1.3.23,1.96.03.71-.01,1.39.12,2.1.04.21-.03.41,0,.6.15,1.22.24,2.41.25,3.64,0,.32.02.6-.01.92-.13,1.27-.21,2.51-.52,3.75-.23.9-.48,1.76-.7,2.66l-.28,1.15c-.1.41-.18.78-.34,1.16-.22.5-.31,1.03-.47,1.56-1.27,1.11-2.67,2.01-4.06,2.96-.66.45-1.29.78-2.03,1.09l-3.52,1.51c-.55.24-1.11.31-1.67.49l-2.27.73h-.06Z"/>
  <path class="st94" d="M29.56,86.35s.04-.04.06-.07c.1.06.2.1.31.15-.18.13-.27-.05-.37-.08Z"/>
  <path class="st42" d="M71.96,86.35c-.09.03-.17.15-.31.1.08-.11.2-.12.31-.17v.07Z"/>
  <path class="st53" d="M30.58,2.88v-.08c.07,0,.17-.12.24,0-.11.04-.17.06-.24.09Z"/>
  <path class="st45" d="M72.5,86.04s-.04-.04-.07-.06c.09-.02.16-.15.27-.08-.06.11-.15.12-.21.14h.01Z"/>
  <path class="st22" d="M24.23,5.75c-.04.07-.12.05-.2.11-.04.03-.05-.05-.04-.08,0-.02.04-.02.06-.04.06,0,.12.01.18,0h0Z"/>
  <path class="st87" d="M58.95,20.75h.13l.12.37c.74.98,1.37,1.88,1.54,3.16.03.2.02.44-.12.59l-.14.18c-.36.12-.71.27-1.05.44-.58.52-1.22.97-1.91,1.35.94-.56,1.93-1.06,2.98-1.37l.12.08c.04.2.03.4-.05.58-.38,1.05-.75,2.09-1.1,3.11l-.29.03c-.3-.05-.55-.28-.84-.36-.07,0-.09.03-.06.07.23.15.52.24.72.43.03.09,0,.24.13.33l.77.6c.07.1.04.13-.06.08-.1-.05-.26-.13-.38.01.4.29.81.47,1.21.72l2.64,1.62c1.46.89,2.88,1.76,4.47,2.41.75.31.19.32.89,1.17.6.72,1.34,1.27,2.13,1.76.74.46,1.11.04,2.19-.3.31-.1.61-.12.89-.31.43-.28.58.07,1.09.1l5.2.38c.56.02,1.13.04,1.69.07l.11.07c.16-.04,1.43.21,1.48.28.87,1.34,1.48,3.09,2,4.6-2.7,1.86-5.72,3.07-8.81,3.99-2.04,2.68-4.16,5.39-6.44,7.91-.55.61-1.12,1.2-1.7,1.76-.33.33-.88.24-1.22-.04-.51-.43-.43-1.16-.23-1.72.99-2.42,1.95-4.86,2.87-7.3.21-.82.49-1.61.83-2.38.12-.44.44-.78.6-1.21.06-.17.14-.33.24-.48.05-.08.05-.1,0-.06-.1.06-.09.04-.06-.07l.93-2c.05-.11.23-.32.05-.41-.38-.19-.69.11-.86.45l-3.78,7.69c-.74,1.52-1.52,3.02-2.34,4.49l-2.91,5.06c-.9.73-1.16.27-2.68.93-.39.17-1.17.03-1.36.65l-.07.13c-2.34.7-4.94,1.12-7.43,1.43-2.67-.36-5.4-.74-7.93-1.62-.02.25-.1.34-.23.27-.26-.4.1-.37-.09-.57-.04-.04-.12-.13-.22-.13-.58-.05-1.09-.24-1.63-.45-.43-.16-.96,0-1.34-.24l-.68-.41-2-3.45-1.9-3.17c-.45-.76-.8-1.54-1.15-2.35-.5-1.17-1.04-2.25-1.6-3.39l-2.56-5.23c-.09-.18-.37-.15-.52-.14-.13,0-.38.19-.32.36.16.51.45.97.64,1.47.03.07-.01.18.03.24.25.38.42.78.62,1.16.62,1.71,1.22,3.44,1.79,5.19.81,1.98,1.58,3.93,2.32,5.86.37,1.04-.77,2.21-1.67,1.3-1.38-1.41-2.75-2.84-3.97-4.4-1.34-1.74-2.7-3.47-4.06-5.18-3.09-.93-6.11-2.14-8.81-4,.5-1.54,1.14-3.22,2-4.6.52-.13,1.05-.23,1.59-.3.11-.08.25-.11.44-.08,2.06-.05,4.12-.24,6.2-.43.28-.03.51-.17.76-.21.4-.07.7.23,1.06.32.47.12.98.13,1.39.41s.8.28,1.2.03c.97-.6,2.52-1.76,2.86-2.89.87-.42,1.68-.84,2.54-1.24l.86-.4c.57-.27,1.03-.68,1.57-1.01.83-.51,1.65-.98,2.51-1.44.19-.1,1.29-.65,1.24-.76-.08-.17-.81.33-1.01.29.46-.41.98-.68,1.38-1.11.12-.13.16-.22.3-.3l-.06-.07c-.24.08-.51.06-.72.23l-.14-.13c-.25-.89-.56-1.77-.92-2.65-.17-.37-.24-.73-.21-1.09.03-.04.07-.1.1-.09,1.24.33,2.41.87,3.51,1.54-.77-.41-1.45-.91-2.02-1.53l-1.5-.62-.04-.14c-.16-.09-.22-.27-.16-.52.22-1.08.71-2.07,1.46-2.96l.22-.43.18.02c1.05.43,2.1.86,3.24,1.13,1.21.28,2.97.58,4.15.21,1.4-.45,1.51.26,2.96.18.93-.05,1.81-.19,2.71-.4,1.23-.28,2.35-.75,3.5-1.18v.03Z"/>
  <path class="st83" d="M54.69,75.91l.85-1.12s.03-.12,0-.15-.09-.1-.14-.06c-1.95,1.38-2.25,1.9-3.53,3.79l-1.02,1.5-1.06-1.54c-.49-.71-.93-1.44-1.52-2.08s-1.32-1.19-2.08-1.64c-.08-.05-.18-.02-.22.04-.12.16.65,1.13.74,1.25-.47.78-1.36-.01-1.81-.43-.36-.3-.83-.47-1.28-.32.68.96-.74,1.16-1.24.56-.67.11-1.36.05-2.05-.17-.37-.08-.7-.06-.99.05-.09.6-.27.82-.89.75l-1.75-.31c-.78-.42-1.38-.51-2.17-.07-.22.17-.4.3-.66.4-.19.07-.66.2-.77.04h-.3l-.11.09c-.44-.18-.87-.35-1.32-.52l-.07-.14h-.36c-.08.12-.23.19-.44.2-.37.2-.73.43-1.08.68-.24.14-.43.15-.58.03l-1.74.04-.05.13c-.53.05-.79.25-.82.81-.22.26-.54.43-.95.5-.38.15-.78.3-1.09.58-.18.16-.22.3-.12.53.24.29.31.56.22.8l-1.71.89c-.46-.16-.88-.43-1.26-.81-.46-.32-.99-.42-1.59-.28-.73-.2-1.41-.99-1.89-1.58-.27-.33-.15-.71-.02-1.07.07-.44-.02-.77-.39-1.03l-1.08-.58-.15-.22c-.08-.71-.17-1.43-.27-2.14-.39-1.03-.67-2-.3-3.09.08-.74.09-1.48.02-2.22.19-.47.22-.93.09-1.37-.5-1.19-.64-2.45-.33-3.74.26-.12.39-.26.39-.42-.14-.45-.16-.8.14-1.18.23-.3,1.67-1.57,1.96-1.49.38.11-.05,1-.2,1.21-.33.3-.6.63-.8,1-.04.4-.02.8.07,1.22l-.11.1v.66c.21.17.01.65-.11.88.09.4.3.77.62,1.09.08.41.27.75.57,1.01.46.29.85.64,1.15,1.03v.11c-.34.66-.7,1.32-1.09,1.96l.06.03c1.24-.53,2.45-1.11,3.63-1.73h.19c.08-.26.51-.52.72-.32h.48l.17-.1c.59.11,1.18.26,1.76.43.7.15,1.58.28,2.03-.4.39-.87,1.22-2.27,2.32-1.64.9.21,1.55.2,2.24-.43.62-.83,1.39-1.2,2.45-1.16l.12.11.42-.04.15-.12c.86,0,1.21-.26,1.39-1.07.15-.59,1.24-1.15,1.77-1.09.07,0,.12.05.17.1l.96-.04c.02-.11.11-.18.26-.22l.12-.11c.37-.75.74-1.5,1.72-1.23.16,0,.3-.07.5-.04.39.06.78.07,1.18.07,0-.19-.16-.13-.23-.24.14-.07.3.07.43-.02.04-.07-.04-.25-.08-.32.12-.08.06-.23.13-.44.78.3,1.5.51,2.3.68,1.91.42,3.77.76,5.73.98,2.28-.26,4.48-.68,6.7-1.21.3-.07.54-.2.8-.24.18.26-.25.49-.06.57.11.04.43-.13.34.04-.02.04-.22.1-.15.17.02.02.04.05.09.05l1.31-.11c.47-.04.85.06,1.13.32.23.35.46.7.68,1.06.31.16.68.2,1.11.14,1,.09,1.69.3,2.13,1.24.15.71.39.86,1.08.95.77,0,1.53.09,2.26.26.52.32,1,.72,1.43,1.21.58.32,1.23.38,1.95.19,1.15-.67,1.96.88,2.39,1.74.49.55,1.31.45,1.96.29.86-.32,1.71-.47,2.57-.44.22.05.4.17.55.37l.3.09c1.17.64,2.36,1.22,3.59,1.73-.3-.62-.64-1.23-1.02-1.85-.08-.16-.1-.32.03-.46l1.37-1.16c.15-.5.39-.96.74-1.38l.13-.31c-.12-.37-.2-.75-.24-1.14.03-.57.07-1.14.12-1.7-.17-.43-.46-.81-.85-1.14-.16-.21-.55-1.09-.18-1.2.11-.03,1.19.74,1.36.89.58.5,1.04.99.73,1.79v.13c.18.13.34.27.48.42.2,1.24.04,2.49-.43,3.62-.13.44-.1.9.1,1.37-.07.75-.07,1.5.02,2.24.15.62.27,1.24.08,1.86-.33.98-.62,1.95-.57,3.01-.02.24-.1.48-.32.62-.98.43-1.76.83-1.25,2.05-.02.76-1.07,1.61-1.67,2.02-.15.1-.31.14-.49.13-.55-.1-1.04-.08-1.5.3-.37.37-.78.63-1.23.79-.09,0-1.63-.8-1.69-.88-.11-.13-.09-.31-.02-.45.5-.64.2-1.11-.89-1.43l-.7-.24c-.27-.14-.43-.41-.47-.8-.2-.23-.49-.34-.85-.33-.64.03-1.28,0-1.92-.07l-.45-.19c-.68-.59-1.34-.93-2.23-.54-.85.6-1.58.5-2.46.05-.39-.32-.82-.49-1.28-.49-.49.08-.97.23-1.45.45-.58.05-1.16.13-1.73.23-.48-.03-.55-.36-.63-.76-.29-.11-.63-.13-1-.05-.69.22-1.38.28-2.04.17-.51.6-1.91.41-1.24-.56-.47-.13-.95.05-1.32.35-.27.26-.84.78-1.24.74-.19-.02-.54-.08-.4-.32h.03Z"/>
  <path class="st19" d="M84.13,35.5l.18.3c.21.35.39.71.54,1.08.45,1.16.79,2.37,1.08,3.59.09.22.13.45.12.67.1.55.16,1.11.18,1.68,0,.74-.21,1.95-1.06,2.22-.98.31-1.89.66-2.8,1.11-.27.13-.58.04-.88.1.1.13.28.02.44.14-.68.4-1.4.8-1.84,1.48-.17.26-.33.44-.53.68-1.82,2.12-3.44,3.63-5.21,5.94l-2.82,3.68c-.15.2-.3.36-.45.47-.68.15-1.41.1-2.12.3-1.22.34-2.38.41-3.65.3l-.89-.08-1.32-.14,3.31-5.86,1.75-3.25,2.48-4.54c.04-.08.07-.13.13-.16-.37,1.3-.73,2.61-1.25,3.89l-1.55,3.84c-.27.67-.55,1.3-.79,1.98-.2.57-.28,1.26.27,1.65.36.26.77.21,1.1-.12,1.39-1.4,2.69-2.84,3.94-4.38s2.56-3.18,3.78-4.84c.17-.23.29-.44.6-.48,1.2-.41,2.41-.72,3.59-1.22,1.71-.73,3.3-1.62,4.9-2.59-.55-1.58-1.19-3.03-1.98-4.48l-1.29-.27c-.19.11-.31-.13-.42-.15-.48-.08-1.25.04-1.49-.08.6.04,1.22,0,1.83-.02.19,0,.33-.2.36-.32.04-.18-.11-.3-.28-.36-1.12-.4-5.12-1.21-6.35-1.36l-.92-.12c-.43-.05-1,.17-1.23.55-.26.42-.53.71-1.04.82-.12-.19-.17-.42-.24-.67-.32-1.1-.75-2.16-.89-3.3-.06-.49.21-.98.24-1.46.3,1.32.17,2.94.98,3.8l.18.19c-.03.39-.29.72-.23,1.16.26-.28.38-.64.5-.97.16-.42.47-.67.7-1.02.33-.48.71-.9,1.15-1.27l.73.13c1.11.2,2.2.36,3.3.59.31.06.56-.12.72-.35.19-.28.17-.59.25-.91.05-.22.26-.37.37-.57.38-.71.66-.83,1.43-.87,0,.14.03.22,0,.3-.02.05-.1.05-.17.1.12.14.14.29.18.44.05.21.25.3.38.46l1.28,1.59.75,1-.03-.02Z"/>
  <path class="st19" d="M19.85,38c-.14,0-.29.03-.38.17l-1.57.28c-.78,1.45-1.43,2.9-1.98,4.49,1.6.98,3.2,1.87,4.9,2.59,1.19.51,2.39.81,3.59,1.22.31.04.43.26.6.48l3.59,4.61c1.28,1.64,2.68,3.14,4.14,4.61.33.33.74.37,1.1.12.59-.41.44-1.26.2-1.83l-1.38-3.35c-.73-1.78-1.37-3.54-1.92-5.39-.19-.63-.41-1.2-.53-1.81l1.95,3.76c.34.65.68,1.25,1.07,1.87.69,1.12,1.19,2.29,1.84,3.45l3.24,5.78-1.8.21c-.75.09-1.45.03-2.18-.03-.52-.04-.97-.23-1.49-.3l-2.51-.33c-.78-1.35-1.82-2.66-2.76-3.9l-.32-.42c-.79-1.04-1.56-2.04-2.47-2.98l-1.85-1.92c-.45-.47-.88-.96-1.28-1.46-.14-.18-.07-.43-.32-.61-.4-.3-.75-.69-1.27-.88-.03,0-.08-.07-.07-.09,0,0,.04-.03.08-.09-.2,0-.37-.02-.56-.12-1.08-.56-2.2-.91-3.37-1.25-.5-.15-.83-1.43-.87-1.95-.06-.69-.02-1.36.13-2.03.28-1.3.66-2.52,1.07-3.78.27-.84.66-1.58,1.22-2.26l1.62-1.98c.24-.3.51-.53.65-.91-.12-.02-.19.03-.3,0,.04-.13.07-.22.15-.34.83.05,1.01.62,1.34,1.03l.41.53c.16.21.07.54.13.77.09.31.31.44.63.37,1.44-.3,2.72-.5,4.16-.73.62.55,1.07,1.18,1.58,1.79.34.4.58.84.77,1.34.03.07.1.13.15.07.1-.13-.24-.87-.25-1.12.17-.35.29-.72.39-1.11l.72-2.8c.04.52.33,1.01.27,1.52-.16,1.33-.67,2.56-1.03,3.83-.26-.12-.46-.16-.66-.3-.42-.29-.33-1.28-1.84-.99l-5.37,1.03c-.55.11-1.06.23-1.58.41-.36.13-.62.43-.45.6.09.09.86.13.67.13Z"/>
  <path class="st96" d="M52.4,79.31c.58-.66,1.12-1.33,1.36-2.19.28-.43.61-.8.92-1.21.32.46,1.01.03,1.36-.32.41-.41.92-.68,1.52-.59.53.08-.18.57.04.76.24.21.76.23,1.01.03.14-.11.16-.25.39-.19.94.25,1.35-.28,2.73-.22.54.03.23.56.54.75.44.27.85-.12,1.7-.11.3,0,.54-.1.81-.23.59-.3,1.36-.39,1.92.02.7.5,1.65.86,2.44.33.72-.48,1.66-.44,2.3.16.9.83,1.87.29,3.03.54.97.21.35.89.98,1.09.51.16,1.81.57,1.91,1.12.08.47-.47.67-.28,1.02l1.62.84c.49-.1.78-.6,1.49-.99.75-.41,1.19.1,1.64-.22.57-.39,1.04-.87,1.47-1.4.19-.24.19-.49.09-.76-.22-.58-.05-1.14.46-1.45.82-.5,1.18-.31,1.18-1.27-.01-2.13.96-2.59.57-4.17-.21-.84-.17-1.64-.1-2.49.03-.39-.25-.76-.19-1.13.15-.92.51-1.3.55-2.07.03-.64.02-1.28-.02-1.93-.06-.1-.21-.18-.3-.23-.54-.3.26-.73-.3-1.46-.61-.78-1.14-.95-1.84-1.5-.28,1.31,1.34,1.42,1.13,2.63-.34,1.95.16,2.14.12,2.46-.06.5-.74.95-.89,1.76l-1.32,1.13c-.16.08-.15.24-.08.37.38.71.84,1.37,1.2,2.14-1.42-.52-2.66-1.2-3.94-1.86-.19-.1-.31-.01-.45-.24-.15-.24-.61-.25-.89-.23-.99.07-2.1.66-3.08.58-.44-.04-.92-.22-1.1-.64-.28-.64-.65-1.21-1.25-1.58-.19-.12-.42-.16-.63-.05-.38.2-.8.18-1.22.21-1.32.09-1.55-1-2.34-1.42-1.06-.55-3.17.07-3.45-.94-.11-.4-.27-.85-.63-1.1-.61-.42-1.36-.51-2.09-.47-.87.04-.75-.59-1.31-1.24-.33-.38-.86-.27-1.04-.4l2.98-.22.56.63-.54-.11c-.14-.03-.31.06-.29.22.19-.19,1.25.4,1.37.48.51.37.71.84,1.23.87.34.37.72.65,1.22.78l2.34.6,4.82,1.94c1.36.55,2.74,1.01,4.19,1.21.92.13,5-1.16,5.38-2.15.23-.59.22-1.23.1-1.86-.3-1.64-.82-3.2-1.47-4.73.24-.59-.17-.63-.48-1.03-.08-.08-.05-.12.06-.06.88.51,1.82,1.2,2.61,1.87.19.16.41.18.57.34.3.29.61.53.94.8-.04.22-.02.41.03.63l.49,2.4c.28,1.39.42,2.73.52,4.15.08,2.09-.02,4.1-.29,6.17-.21,1.62-.58,3.15-.89,4.74-2.16,1.65-4.39,3.12-6.83,4.26-.53.25-1.19.12-1.74.27-.73.2-1.38.49-2.12.75.11-.25.32-.37.44-.58.83-1.43.66-2.94-.13-4.34-.19-.34-.48-.44-.8-.59-.46-.22-.88-.45-1.37-.6-1.28-.38-2.55-.62-3.89-.63l-3.18-.03c-.27,0-.47-.09-.72-.12-1.4-.21-2.77-.21-4.2-.19-1.68.02-3.3.23-4.91.66-.45.12-.66.36-.95.69l-1.45,1.67c-.5.58-1.09,1.02-1.51,1.69-.27-.31-.54-.55-.74-.86.23-.53.67-.92.91-1.39v.03Z"/>
  <path class="st19" d="M59.19,29.26c.02-.06.14-.05.21-.09.05-.44.28-.84.44-1.25.3-.8.58-1.58.8-2.38v-.13l2.39-.95c.6,0,1.2.02,1.79.04.52.02,1.04.05,1.55.11.46.05.88.29,1.22.57.74-.17,0-.79-.39-.9l-4.13-.19-2.1.76h-.35c-.11-.11.03-.26.02-.4-.1-1.79-1.47-3-1.59-3.39l-.09-.32c.36-.14.72-.47,1.13-.54.8-.12,1.56-.26,2.29-.66.86-.48,1.9-1.22,2.48-2.01.56-.12.98.53,1.11.47.05-.02.07-.06.04-.1-.02-.03-.05-.06-.09-.14.58.07,1.14.16,1.74.44-1.09.29-2.07.81-2.94,1.53-.1.08-.23.34-.11.45.71.64,1.45,1.22,2.11,1.91.39.41.12.43.78.47.02.23.2.32.34.45.26.25.37.59.55.89.12.19.37.26.52.44l1.2,1.43c.34.4.69.86.99,1.3.16,1,.23,2.04.05,3.05-.14.83-.34,1.58-.23,2.42.05.43.03.88.04,1.33v1.62c.01.15,0,.33.18.38l.08-.99c.15.65.27,1.29.48,1.95.06.19.22.39.22.58,0,.08-.22.2-.31.17-.7-.56-1.37-1.08-1.97-1.76-.21-.24-.4-.73-.35-1.03.07-.47,0-.78-.44-.99l-4.04-1.93-2.84-1.27c-.81-.36-1.59-.71-2.3-1.23-.17-.12-.31-.1-.48-.12h0Z"/>
  <path class="st19" d="M42.4,20.81c-.12-.02-.1.13-.14.21-.22.39-.47.72-.72,1.08-.45.63-1.05,1.89-.83,2.6l-.16.08c-.59-.25-1.19-.46-1.81-.62-1.43-.05-2.86,0-4.29.15-.64.18-1.39,1.4-.3.6.17-.1.37-.2.56-.23.65-.11,1.28-.15,1.95-.17.55-.02,1.1-.03,1.65-.03l2.32.93.02.14c.26.88.54,1.77.91,2.63.18.42.31.81.36,1.25-.38.33-.87.49-1.34.72l-3.67,1.74-4.07,1.95c-.56.27-.69.68-.61,1.26.04.31-.23.81-.44,1.05-.51.57-1.1.98-1.69,1.47-.2-.07-.35-.16-.53-.27.05-.27.19-.48.27-.73.21-.66.33-1.3.49-1.95.08.42.05.79.07,1.22.18-.04.19-.22.19-.37v-2.22l.03-1.88c.01-.58-.21-1.08-.27-1.65-.1-.91-.13-1.87.08-2.75.63-1.09,1.37-1.86,2.16-2.81.13-.16.38-.23.48-.41.25-.44.6-.73.96-1.04-.08-.08-.18-.05-.2-.09,0,0,.05-.12.16-.09.29.08.41-.11.57-.28.68-.76,1.45-1.38,2.21-2.06.11-.1.28-.36.14-.5-.86-.84-1.93-1.37-3.09-1.55,1-.38,1.72-.38,2.79-.74-.26.58,1.28,1.59,1.69,1.87.87.59,1.83.82,2.86.93.44.1.85.43,1.25.6v-.04Z"/>
  <path class="st73" d="M21.1,56.54c-.03.12-.14.2-.24.3-.38.34-.69.7-1.01,1.09-.14.18-.32.29-.42.48-.06.13-.06.25-.01.37.02.13,0,.24-.07.38-.5,1.11-1.43,3.97-1.42,5.06-.04.13-.04.28,0,.43.05.24.02.52.15.77.25.48,1.58,1.08,2.11,1.28.9.33,1.8.56,2.71.71h.43c1.45-.29,2.88-.7,4.29-1.27l4.69-1.9c.68-.28,1.41-.34,2.11-.54.58-.17,1.02-.45,1.48-.81.16-.12.41-.09.58-.28.59-.67,1.02-.7,1.87-1.12.11-.06.24.08.36,0-.13-.47-.81.06-.97-.06.2-.26.42-.43.66-.63l2.57.17c.08,0,.16.04.18.09-1.03.06-1.06.26-1.58,1.22-.14.26-.31.27-.52.34l-.96.04c-2.5.3-1.53,1.71-2.48,2.03-.33.11-.67.16-.99.15l-.42.04c-.51.02-1.07.02-1.56.27-.78.4-1,1.49-2.34,1.42-.46-.03-.9-.02-1.32-.25-.15-.08-.38,0-.52.08-.6.37-.97.94-1.25,1.57-.18.42-.66.62-1.1.65-.96.07-1.96-.47-3-.57h-.48c-.24.08-.52.07-.64.4-.07.06-.26.01-.36.07-1.24.7-2.5,1.32-3.88,1.85.37-.77.82-1.43,1.22-2.15.09-.17.05-.25-.08-.38-.41-.41-.99-.68-1.33-1.15-.16-.22-.12-.59-.35-.82-.13-.13-.69-.84-.5-1.12.17-.26.12-.53.19-.77v-.66l-.11-.96c-.12-1.04,1.4-1.25,1.14-2.48-.76.54-1.27.76-1.84,1.48s.23,1.17-.3,1.46c-.11.06-.21.13-.31.23-.03.65-.05,1.29-.01,1.94.04.74.39,1.15.55,2.06.07.37-.23.74-.19,1.13.08.88.1,1.72-.12,2.58-.24.96.14,1.69.4,2.53.28.92.05,2.13.42,2.33l.94.5c.51.27.68.84.48,1.4-.11.29-.13.56.08.82.43.52.9,1.01,1.46,1.39.45.31.89-.17,1.6.2s1.02.9,1.53,1.01l1.61-.84c.26-.13-.34-.63-.28-.99.09-.58,1.37-.98,1.91-1.15.58-.18.13-.62.63-.94.22-.14.44-.15.66-.2l1.74-.04c1.19-.19.86-.8,2.1-.92h.36c.99.23.62.35,1.5.56h.3c.35-.09.8-.09,1.12-.35.63-.53,1.44-.67,2.21-.28.28.15.59.27.93.26.76-.02,1.21.38,1.64.11.32-.21,0-.72.53-.75,1.36-.08,1.8.47,2.73.21.23-.06.25.07.38.18.25.2.77.18,1.02-.02.23-.19-.5-.68.04-.76,1.39-.21,1.71,1.4,2.74,1.06.1-.03.15-.21.27-.15l.78,1.07c.25,1.01.81,1.71,1.51,2.45l1.01,1.56c-.16.23-.36.44-.59.63-.34-.53-.68-.98-1.12-1.38-.41-.37-.71-.79-1.07-1.2l-.92-1.05c-.19-.22-.32-.4-.62-.48-1.22-.33-2.47-.54-3.71-.61l-.3-.04-1.26-.02c-.29-.05-.61-.05-.9,0-.79,0-1.59-.03-2.39.1l-1.05.17c-.99.16-2,.03-2.98.05l-.6.04c-1.32.02-2.63.27-3.92.65-.49.14-.89.37-1.33.59-.35.17-.66.33-.87.68-.83,1.38-1.1,3.06-.17,4.51l-1.4-.45c-.55-.18-1.13-.1-1.72-.23-2.53-1.26-4.91-2.72-7.16-4.47l-.44-2.12c-.18-.87-.33-1.73-.44-2.59,0-.13,0-.25-.05-.36-.03-.46-.09-.92-.16-1.37.02-.16.03-.33-.02-.48v-.47l-.05-.36c0-.3-.02-.6-.02-.9-.04-.67-.04-1.37,0-2.04,0-1.64.25-3.26.58-4.89l.5-2.45c.39-.47.91-.74,1.39-1.11,1.02-.81,2.04-1.55,3.14-2.26.27-.17.42-.54.75-.56h-.06Z"/>
  <path class="st50" d="M76.23,17.33c.68.97,1.19,2.06,1.7,3.16.07.14.17.23.11.41-.03.08.04.21.13.24.47.16.92.33,1.39.4l.25.05c.28.24.53.51.77.78.41.47,1.28,1.51,1.5,2.05.06.15.06.16-.05.3-.31.27-.57.58-.67.98l-.18.11c-.71-.05-1.36-.24-1.97-.55l-1.41-1.22c-.44-.38-4.09-1.24-4.22-1.17-.48.22-.93.66-.71,1.26.02.06.06.16.14.15.2-.03.14-.65.39-.62.91.09,1.73.41,2.58.69.41.13.79.25,1.17.46.12.06.29.01.41.09.67.93,1.37,1.79,2.07,2.65.03.14-.34.33-.47.34-.75.1-2.18.12-2.89-.14-.27-.1-.49-.24-.72-.41-1.12-.86-2.25-1.76-3.28-2.73-.67-.63-1.37-1.56-1.91-2.31-.09-.12-.14-.26-.14-.41.01-.42.93-1.86,1.26-2.18h.14l4.62,2.12-1.37-4.2c-.14-.32-.17-.63-.1-.91.05-.05.14-.14.19-.19h.21c.4.24.75.52,1.07.83v-.03Z"/>
  <path class="st8" d="M26.52,16.73c.07.26.05.53-.08.82l-1.41,4.27c1.6-.68,3.18-1.4,4.75-2.16.19.03,1.26,1.84,1.29,2.2,0,.08-.02.2-.06.27-.3.51-.84,1.15-1.23,1.61-1.15,1.35-2.68,2.54-4.1,3.62-.35.27-.8.47-1.24.5-.72.06-1.78.15-2.45-.05-.12-.04-.42-.19-.33-.33.8-.77,1.47-1.68,2.14-2.6l1.26-.48c.98-.38,1.97-.69,3.03-.79.25-.02.26.66.44.64.2-.02.4-1.07-.42-1.39-.32-.13-.6-.05-.84.2-1.19.24-2.4.45-3.46,1.05-.36.2-.68.57-.96.84-.4.29-2.18.93-2.55.79-.04-.02-.08-.04-.12-.07-.08-.12-.08-.43-.19-.57-.19-.24-.39-.47-.6-.64l-.09-.13c.55-1.03,1.34-1.98,2.2-2.78l.22-.02c.52-.06,1.04-.24,1.55-.43.2-.07.19-.3.25-.47.23-.64.51-1.25.88-1.83s.68-1.23,1.1-1.77c.19-.19.41-.37.63-.53l.15.05c.07.05.18.12.25.18h0Z"/>
  <path class="st23" d="M38.07,2.58l.49.2c.85.54,1.72,1.04,2.61,1.49.68.4,1.94,1.19,2.4,1.79.1.13.13.19.04.32l-5.33,3.69c-1.02,0-2.03,0-3.03-.01l-.71.29-3.96,2.7c-.94.7-1.95.98-3.12.76-.89-.18-.71.28-1.14.06-.22-.17-.24-.41-.21-.67.07-.24.12-.47.25-.67.15-.23.13-.5.24-.74.5-1.09,1-1.42,2.07-1.82,2.23-.84,4.44-1.62,6.61-2.61.47-.22.86-.46,1.36-.51h.3l-.04.17c-.9.81-2,1.61-3.25,1.55-1.42.95-2.84,1.89-4.32,2.8l5.51-2.29c1.45-.63,2.93-1.14,4.44-1.53l1.62-.14-.09-.31-1.55-2.74-.09.04c-.15-.33-.4-.56-.71-.73-1.92-1.06-3.88-1.22-6.04-1.19-.11,0-.25.15-.33-.02,2.12-.32,3.95-.24,6,.13h-.02Z"/>
  <path class="st19" d="M21.65,27.47c.17.12.4.28.65.29.67.03,1.31.02,1.97-.02.52-.03.97-.21,1.39-.54,1.08-.86,2.16-1.68,3.18-2.63.77-.72,1.34-1.58,1.99-2.38.13-.18.16-.36.06-.56-.32-.65-.7-1.27-1.12-1.88-1.66.81-3.22,1.61-4.93,2.28l.89-2.69c.29-.88.62-1.73.8-2.61.57.49,1.21.85,1.9,1.19.91.45,1.84.69,2.88.67-.11.28-.02.53.22.69.27.18.51.39.76.6.36.32,1.02.09,1.38.27l-2.43,2.84c-.86,1-2.43,2.36-3.07,3.28l-1.4,2.02-.6.67c-.63.7-1.15,2-2.11,2.2-1.24-.69-2.58-1.05-3.96-1.47l.28-1,1.28-1.22h0Z"/>
  <path class="st23" d="M62.37,4.61c-.12.04-.23-.04-.33-.24-.58.96-1.13,1.93-1.65,2.92v.07c.69.07,1.38.15,2.07.25,3.22,1.11,6.39,2.37,9.51,3.76l-4.28-2.81c-.28,0-.55-.03-.81-.09-1-.51-1.96-1.09-2.86-1.74l-.17-.21,1.44.44,1.29.68,3.52,1.44,2.78,1.05c.9.34,1.66,1.01,2.04,1.91.09.22,0,.48.16.7.13.18.19.42.26.61l-.04.06c.06.17.04.24-.06.22-.67-.09-1.27-.74-1.4-.62-.03.03-.06.09-.04.15l.17.6c-1.16.31-2.34-.04-3.3-.75l-3.93-2.68c-.31-.2-.67-.34-1.04-.34l-2.73.05-5.32-3.68c-.08-.13-.12-.21.03-.32,1.07-1.08,2.4-1.83,3.74-2.52.48-.33.99-.59,1.52-.78.87-.03,1.73-.03,2.65,0-.98.31-2.85.81-3.25,1.84l.03.03Z"/>
  <path class="st37" d="M15.65,33.63c.04.16-.01.34-.18.52-1.03,1.22-1.7,2.75-2.28,4.18v.1c-.12.27-.2.58-.27.88-.52,2.18-1.03,4.3-1.63,6.37-.12.31-.33.67-.64.82-1.02.49-2.06.87-3.17,1.11s-1.34-1.7-1.32-2.46c.03-1.41.06-2.72.73-3.96.63-1.57,2.24-3.21,3.43-4.45.09-.02.24-.04.33-.12.38-.32.75-.65,1.15-.94.03-.02.16.08.18.02,0-.02-.06-.14-.04-.16.63-.46,1.21-.96,1.81-1.46.17-.15.31-.3.5-.38l-.1.26c-1.38,1.84-2.64,3.76-3.77,5.77-.18.3-.23.26-.31-.05.18-.7.39-1.39.64-2.07l-1.64,1.8-.14-.03c-.06.02-.08,0-.06-.06l-.07-.12.46-.85c-.75,1.09-1.46,2.26-2.04,3.44.34-.47.7-.92,1.11-1.33.13-.08.18,0,.25.12-.02,0-.93,3.67-.7,3.37.56-1,1.17-1.97,1.81-2.92.15-.2.36-.4.52-.1l-.25,2.8c.77-2.74,1.98-5.4,3.28-7.96.46-.91,1.02-1.92,1.74-2.62.2.18.53.23.67.47h0Z"/>
  <path class="st37" d="M86.3,33.21c.74.66,1.26,1.66,1.72,2.55,1.31,2.57,2.55,5.24,3.3,8.01l-.25-2.81c.06-.26.24-.19.4-.05.7.97,1.34,1.99,1.92,3.06.01-.34-.02-.68-.1-1.02l-.59-2.34c.09-.2.14-.24.32-.07.37.4.72.82,1.03,1.26-.6-1.24-1.36-2.47-2.15-3.62l.53.92-.03.22c.02.06,0,.08-.06.06l-.14.03-1.64-1.8c.25.67.46,1.35.63,2.04-.1.27-.15.32-.31.04-1.1-1.92-2.3-3.78-3.61-5.57l-.08-.24,1.77,1.45c.06.05.13.05.17.11.03.04,0,.08-.02.17.55-.2.12.46.59.48.54.03.86.74,1.37.74.73.75,2.72,2.89,3.07,3.81.31.6.57,1.21.8,1.84.19,1.11.26,2.63.05,3.73-.1.52-.22,1.19-.79,1.35-.65.18-2.54-.59-3.22-.88s-.83-.59-1.08-1.23c-.44-1.59-.83-3.2-1.15-4.82l-.15-.99c-.3-1.93-1.03-3.05-2.04-4.71-.23-.38-.5-.68-.77-1.03-.09-.11-.02-.37.07-.46.13-.14.3-.19.45-.24h-.01Z"/>
  <path class="st12" d="M27.46,13.8c1.77,0,2.08-.2,3.55-1.2l3.41-2.33c.4-.28.82-.4,1.32-.37.84.06,1.65.06,2.51.05l2.62-1.82,2.72-1.88c-.91-.9-1.88-1.57-2.97-2.14-.9-.47-1.76-.95-2.55-1.53.8.14,1.58.17,2.33.39,1.01.31,1.91.82,2.87,1.24,1.15.5,1.3,1.12,1.92,1.06l-.2,1.34c-.05.37,0,.97-.3,1.27-1.27,1.3-2.47,1.8-4.15,2.48-.54.22-1.11.25-1.67.39s-.98.49-1.49.72c-.7.31-1.41.53-2.07.94-.73.45-1.36,1.01-2.12,1.42-.45.24-.99.27-1.48.42-.6.18-3.52-.31-4.24-.45h0Z"/>
  <path class="st19" d="M79.62,27.52c.42.52,1.01.92,1.52,1.36l.22.92-1.75.58c-.65.22-1.23.46-1.84.81-.28-.17-.65-.22-.88-.43l-1.67-2.18c-.27-.36-.57-.65-.83-1.03l-.96-1.39c-.74-1.08-1.73-1.67-2.52-2.62l-2.87-3.44c1.15-.04.96-.29,1.82-.85.23-.15.36-.38.43-.66.67-.05,1.31-.13,1.95-.33.47-.15.86-.46,1.28-.7.46-.26.88-.53,1.25-.88.16.89.49,1.73.79,2.61l.88,2.72-4.91-2.26c-.42.59-.78,1.2-1.11,1.84-.12.23-.1.43.07.63.64.79,1.21,1.64,1.97,2.35,1.01.95,2.09,1.77,3.18,2.63.41.33.87.51,1.39.54.68.04,1.34.05,2.02.01.23-.01.4-.21.59-.24h-.02Z"/>
  <path class="st12" d="M62.96,2.77c-.74.48-1.49.92-2.31,1.34-1.09.56-2.06,1.24-2.97,2.14l2.33,1.62,3.01,2.09c.86,0,1.67.01,2.51-.05.51-.04.93.11,1.35.39l3.38,2.31c1.54,1.05,1.84,1.22,3.73,1.19.05,0,.06.04.02.09-.71.11-3.36.52-3.91.37s-1.14-.19-1.64-.45c-.78-.4-1.43-.97-2.17-1.42-.5-.3-1.02-.48-1.53-.74-.56-.28-1.05-.68-1.66-.86-.78-.22-1.58-.27-2.35-.56-1.53-.59-2.72-1.15-3.85-2.38-.44-.48-.37-1.89-.58-2.6.54-.46,1.11-.84,1.78-1.12.92-.38,1.79-.82,2.75-1.13.68-.22,1.42-.21,2.1-.23h.01Z"/>
  <path class="st40" d="M83,64.88l-.12.2c-1.39.93-2.84,1.33-4.51,1.62-.85-.23-1.78-.28-2.54-.73l-2.02-1.19c.34-.09.6.03.91.02l2.34-.06c1.07-.03,2.58-1.08,2.75-2.1l.3-1.8c.13-.65.18-1.31-.02-1.94l-.52-1.66,1.77,1.61c.68,1.53,1.66,4.49,1.67,6.03h-.01Z"/>
  <path class="st40" d="M27.41,64.8c-.84.44-1.57,1.06-2.46,1.46-.43.19-1.03.39-1.5.38-1.36-.01-3.75-.88-4.92-1.72-.1-.86.35-2.6.63-3.44,1-2.99.58-2.5,3.07-4.65l-.65,1.74c-.3.81-.35,1.67-.16,2.52.33,1.5.02,2.19,1.11,2.97.46.33.95.65,1.53.67l2.44.07c.3,0,.53-.12.91,0Z"/>
  <path class="st29" d="M16.98,15.96l-.12.11c-.05.12-.11.18-.18.18-.03.05-.06.12-.15.18-.49-.54-.96-1.06-1.49-1.55-.36-.34-.69-.67-.99-1.07.27-.44.47-.86.76-1.26s.72-.67,1.08-1.02c.04-.04.07-.08.1-.1.04-.03-.01-.14-.06-.11-.12.06-.27.08-.35-.03.75-1.25,1.52-2.47,2.32-3.66.03.26-.37.97-.1,1.2s.51,0,.69-.19c.44-.49.98-.81,1.5-1.2.8-.58,1.6-1.12,2.47-1.6.37-.2.66-.47,1.08-.59-.26.29-.57.45-.76.78-.11.19-.22.5-.03.65.23.19.48,0,.69-.1.6-.28,2.84-.67,3.65-.8-.6.45-1.25.77-1.9,1.12l-.89.48c-.6.33-1.2.6-1.77,1-.06-.19-.12-.32-.26-.36-.12-.04-.27-.01-.39.07l-2.51,1.74-2.28,1.6c-.54.38-.67.79-.57,1.4.15.99.17,2,.48,2.98.03.08-.04.13-.05.17l.03-.02Z"/>
  <path class="st16" d="M6.9,41.19c-.07.37-.24.72-.41,1.09-.11.96-.19,1.9-.2,2.87,0,.62.13,1.21.31,1.79.13.41.5.63.96.53,1.03-.23,2.04-.6,3.01-1.06.39-.19.6-.63.71-1.03l.73-2.74c.36-1.35.66-2.68,1.08-4.02.03-.09.05-.17.12-.19-.03.35-.18.66-.23,1.04-.17,1.34-.4,2.64-.46,4-.04.9.3,1.71.43,2.6-.01.28-.19.78-.4.99l-2.95,2.09c-.29.23-.42.56-.35.91l.42,1.94c-2.99-1.88-4.7-4.34-3.82-7.96.24-1.01.55-1.99,1.06-2.85h-.01Z"/>
  <path class="st16" d="M94.14,40.65c.95,1.45,1.48,3.2,1.74,4.92-.06.15-.06.31,0,.48,0,.64-.03,1.3-.23,1.94-.59,1.89-2.2,3.31-3.93,4.28l.55-2.56c.07-.31-.05-.6-.34-.72l-1.39-.95c-.52-.36-1.04-.66-1.52-1.09-.24-.22-.44-.75-.45-1.08-.01-.29.12-.77.26-.98.19-.28.1-.37.11-.62.01-.56.14-1.1.04-1.68-.11-.65-.13-1.31-.23-1.93.04-.02.04.02.05.07l1.22,4.71c.15.59.52.97,1.07,1.17.87.32,1.73.7,2.64.87.45.08.82-.11.96-.53.18-.58.32-1.17.31-1.79,0-.96-.1-1.87-.19-2.82-.3-.55-.45-1.13-.66-1.68h-.01Z"/>
  <path class="st29" d="M84.02,17.15c-.01-.21.19-.48.24-.71.24-1.08.49-2.14.59-3.25.15-1.65.33-1.42-.3-1.86l-2.34-1.62-2.45-1.69c-.23-.16-.54.13-.69.32-.5-.32-.97-.68-1.53-.89-.26-.1-.45-.27-.69-.39-.7-.37-1.39-.69-2.03-1.17.91.13,1.72.32,2.57.5.23.05.37.15.55.28.23.16.56.06.72-.14s.23-.47.09-.76c.91.47,1.71,1.03,2.54,1.63.54.39,1.08.72,1.54,1.2.09.09.12.24.22.26.13.04.26.04.38-.03.26-.15.33-.41.35-.74l2.04,3.28c-.08.03-.12-.03-.16-.04-.04,0-.12.04-.12.08l.88.98c.45.5.71,1.14,1.04,1.74-.49.55-1.02.94-1.51,1.42l-1.18,1.15c-.11.11-.16.32-.3.43-.11.08-.44.26-.46.01h.01Z"/>
  <path class="st12" d="M89.41,15.65l.09-.09c1.63.64,3.29,1.24,4.99,1.8.61-.68,1.28-1.48,1.77-2.25.27-.43.29-.5.13-.98l-.97-2.36c-.38-.78-.69-1.58-.91-2.4,1.25.98,2.77,2.8,3.53,4.23.21.39.24.83.34,1.25.33,1.33.11,2.24-.43,3.5l-3.09.67c-1.09.24-.88-.27-1.57-.77-.76-.56-1.52-1.1-2.37-1.53-.57-.29-1.09-.62-1.52-1.06h.01Z"/>
  <path class="st12" d="M12.24,15.65c-.43.42-.95.74-1.48,1.1-.97.66-1.9,1.3-2.81,2.05-.3.25-.61.31-1,.22l-3.23-.72c-.53-1.2-.96-2.24-.61-3.52.14-.51.16-1.06.43-1.54.76-1.34,1.76-2.49,2.85-3.55.1-.1.25-.14.32-.22l.09.1c-.71,1.63-1.39,3.28-2.03,4.94-.05.41,1.66,2.47,2.02,2.83,1.77-.59,3.52-1.22,5.25-1.9.19-.02.35.02.2.2h0Z"/>
  <path class="st23" d="M9.05,7.79l.02.04c-.67.76-1.38,1.48-2.14,2.16l-.72,3.06c-.08.3-.22,1.64.03,1.75.84.27,1.68.51,2.52.72-.7-.38-1.41-.75-2.12-1.11.02-.44.09-.88.2-1.32l.12-.09c.84,2.18,3.69,1.99,5.58,1.17.11.34-.08.7-.03,1s-.12.31-.28.47c-.01-.04-.03-.08-.06-.09-.03,0-.06-.01-.11,0l-3.95,1.48c-.45.17-.87.3-1.36.41-.3-.22-.53-.51-.75-.81-.3-.4-1.45-1.8-1.36-2.18.1-.45.31-.83.48-1.25l1.57-3.74c.32-.36.74-.61,1.16-.9s.77-.57,1.18-.79l.02.02Z"/>
  <path class="st23" d="M92.51,7.98s.11.01.16.05l1.37.96c.18.12.33.26.48.38.57,1.27,1.12,2.54,1.63,3.86.65,1.68.87,1.07-.93,3.49-.21.28-.42.54-.7.74-.7-.17-1.33-.4-2-.65l-3.1-1.17c-.12-.13-.33-.17-.41-.35v-.25c.01-.05,0-.17,0-.23.02-.28.1-.41.25-.41,1.75.55,3.91.57,5.07-1.1.29.21.42.87.25,1.17l-1.96,1.01c.82-.2,1.63-.43,2.43-.68.32-.26,0-1.86-.08-2.28-.15-.53-.26-1.05-.33-1.56.04-.03.05-.08.03-.12-.03-.04-.06-.08-.08-.12l-.21-.63c-.68-.67-1.35-1.34-1.98-2.06-.02-.14.06-.16.14-.05h-.03Z"/>
  <path class="st3" d="M14.98,33.16c-.57.87-1.14,1.71-1.63,2.67-1.13,2.21-2.13,4.43-2.93,6.78-.25.73-.43,1.38-.51,2.17-.17-.34-.1-.67-.07-1.01l.26-2.88c-.2.03-.27.19-.37.32-.69.98-1.26,1.99-1.88,3.06-.37-.62.51-2.96.63-3.77-.57.52-.93,1.14-1.43,1.72-.04-.26.08-.5.2-.73.54-1.03,1.12-2.01,1.77-2.97.28-.42.55-.83.94-1.17l-1.07,1.99c0,.06.03.07.06.06l1.59-1.76c.11-.12.23-.25.4-.31-.23.88-.63,1.65-.77,2.58,1.18-2.23,2.58-4.24,4.1-6.2.04-.05.7-.72.73-.54h-.02Z"/>
  <path class="st3" d="M87.19,33.88c1.41,1.91,2.77,3.82,3.91,5.97-.11-.92-.53-1.65-.75-2.53.17.06.3.2.42.34l1.56,1.72c.09.07.11.05.06-.06-.32-.67-.78-1.26-1.08-2,.39.35.66.76.95,1.19.65.96,1.23,1.94,1.76,2.97.12.23.24.46.2.72-.5-.56-.84-1.18-1.42-1.7.09.69,1.03,3.27.61,3.74-.59-1.04-1.14-2-1.78-2.94-.12-.17-.21-.37-.45-.44l.26,2.89c.03.34.1.67-.07,1.02-.08-.76-.23-1.38-.47-2.08-.85-2.48-1.91-4.85-3.13-7.17-.44-.84-.93-1.59-1.46-2.33.16-.06.82.58.89.68h-.01Z"/>
  <path class="st50" d="M19.66,20.16s.02.11.02.16c0,.41-.81,1.78-1.09,2.19-.17.34-.4.59-.69.74-.38.11-.72.31-1.1.47l-.17-.09-2.1,1.14c-.36.19-.72.51-1.1.61-.89.12-1.75.21-2.63.4l-1.31.29c-.1-.12-.16-.25-.19-.41.39-.15.77-.22,1.13-.43.34-.19.74-.32,1.12-.41.27-.07.42-.29.65-.38.61-.23,2.19,0,2.71-1.02s.09-1.39,1.18-2.24c.13-.1.49.12,1.23-.99.04-.06.1-.09.12-.15.02-.05-.08-.11-.07-.17.03-.17.07-.3.08-.46.31.23-.2.28.81.43.27.04.46.13.71.21.22.07.48.06.69.09v.02Z"/>
  <path class="st50" d="M84.08,19.79s.07.05.09.09c-.23-.74,0,1.19.78,1.24l.29.02c.35.02.59.47.83.79.17.61.29,1.23.55,1.82s2.02.57,2.61.67c.11.06.13.24.25.29l1.33.48c.19.07.31.21.52.27.31.08.66.2.96.31.05.06-.06.31-.14.29l-2.15-.46-1.22-.16c-.19-.02-.36,0-.54.04l-2.99-1.67c-.17-.1-.31-.18-.51-.15-.28-.12-.54-.3-.84-.35-.19-.03-.37,0-.53-.09-.05-.01-.1-.03-.14-.05s-.08-.05-.11-.08c-.37-.47-1.52-2.25-1.46-2.75,0-.05.02-.1.03-.15.19-.03.4-.04.61-.1.34-.1.66-.19,1.01-.24.26-.04.5-.11.67-.28.06-.04.11.04.13.25l-.03-.03Z"/>
  <path class="st32" d="M62.37,4.61c-.43,1.13,1.35,1.82,1.49,1.92.98.66,2,1.27,3.08,1.84.24.13.54,0,.81.09l5.19,3.41c-1.16-.43-2.2-.87-3.3-1.35-2.19-.96-4.36-1.82-6.61-2.6-1.49-.51-1.26-.18-2.75-.43-.04-.2.03-.36.13-.52l1.62-2.82s.34.46.34.46Z"/>
  <path class="st32" d="M36.94,6.83c-.07,0-.09-.03-.06-.06,1.06-.37,2.49-1.09,2.27-2.38-.06-.04.09-.26.13-.19l1.59,2.78c.09.16.17.32.13.52-.43.08-.87.11-1.3.11-1.3,0-6.54,2.28-8.03,2.9l-3.32,1.38c.83-.63,1.69-1.1,2.55-1.67l2.71-1.78.72-.06c.94-.08,1.78-.98,2.6-1.55h0Z"/>
  <path class="st19" d="M87.6,25.66l.37.18c.38.89,3.06.64,3.99.76-.21.62-.39,1.14-.52,1.75-.22-.13-.46-.1-.7-.12l-2.6-.19,1.06-.56c.67.37,1.05.08,1.33.42.04.05.1.06.14.01.02-.02.03-.06.01-.12-.1-.34-.41-.45-.67-.64-.23-.17-.46-.42-.75-.26l-1.18.68-.74.45c-.26.16-.61.16-.94.21.55-.42,1.13-.7,1.7-1.07.2-.13.36-.28.59-.4-.22-.16-.51-.16-.74-.01l-2.01,1.31c-.46-.15-.87-.34-1.27-.58.1-.12.23-.17.35-.21l1.38-.46c.18-.06.49-.4.31-.58-.37-.35-4.08-1.17-3.69-.11.53.33,1.17.34,1.78.59-.17.16-.35.33-.51.53l-.85-.67c-.27-.21-.58-.33-.89-.48-.4-.2-.12-.46-.47-.7.56-.49,1.04-.98,1.51-1.51.74.45,1.49.75,2.25,1.07l1.73.72h.03Z"/>
  <path class="st19" d="M14.8,28.09c-.91-.03-.55-.12-.86-.3-.46-.27-.91-.52-1.35-.81-.25-.16-.5-.17-.74.03-.45.37-1.03.44-.99.93.18.03.23-.21.37-.21.33,0,.67-.17.95-.26l1.1.58-2.37.18c-.25.02-.5.02-.76.12-.15-.59-.27-1.15-.5-1.74l1.86-.1c.57-.03,1.13-.06,1.61-.26.11-.3.4-.46.67-.58l1.75-.75c.77-.33,1.5-.65,2.24-1.07.48.64.99,1.13,1.58,1.64-.14.14-.17.37-.24.54-.69.35-1.25.81-1.84,1.3-.15-.31-.31-.53-.57-.69.6-.19,1.15-.28,1.66-.53.1-.05.12-.23.12-.3,0-.1-.14-.2-.28-.2-1.07-.03-2.13.12-3.12.53-.21.09-.48.36-.32.56.24.33,1.66.49,2.1.88-.38.22-.75.39-1.18.5l-1.91-1.28c-.28-.19-.64-.19-.95-.05l.45.42,1.51.92h0Z"/>
  <path class="st19" d="M83.34,23.21c-.09.08.03.2.07.3l-1.38,1.19c.02-.08,0-.15-.05-.24-.58-.94-1.57-2.28-2.41-2.94.73.11.06-.98,2.09-1.35.36,1.1.97,2.12,1.68,3.03h0Z"/>
  <path class="st50" d="M24.84,14.22c.14-.08.18,0,.12.14-.04.09-.62.82-.72.93l-.19.07c-.16.22-.37.39-.55.66-1.26,1.98-.86.91-2.36,2-.34.25-.71.46-1.09.64-.3.15-.65.13-1.01.17l.91-1.83c.76-.53,1.52-1,2.34-1.44.86-.46,1.68-.95,2.55-1.34Z"/>
  <path class="st19" d="M21.71,21.53c-.83.66-1.66,1.78-2.27,2.7-.05.08-.08.15-.06.23l-1.17-.95c-.08-.06.02-.15.04-.27-.12,0-.25,0-.35.02.76-.92,1.33-1.99,1.77-3.1.81.11,1.42.38,1.82,1.17.06.12.1.22.23.21h-.01Z"/>
  <path class="st19" d="M22.84,24.94l-1.87,1.84c-.43.42-.88.81-1.27,1.24-.28.3-.12.56-.12.87,0,.39-.28.75-.32,1.18-.43-.35-.83-.52-1.29-.76-.3-.43,1.41-2.52,1.74-2.89.15-.17.28-.32.26-.6.1.02.14.17.24.11.08-.04,0-.22-.03-.27.93-.1,1.79-.44,2.68-.73h-.02Z"/>
  <path class="st50" d="M77.24,15.34c-.12.13-.48-.48-.49-.53s.03-.09.06-.13c-.07-.11-.11-.24-.13-.41l2.46,1.34c.83.45,1.59.93,2.37,1.47l.89,1.72c-.23-.07-.53-.01-.74-.13-.67-.36-1.33-.73-1.92-1.19-.45-.35-.78-.81-1.26-1.13-.31-.21-.55-.43-.73-.79-.07-.15-.34-.34-.5-.22h-.01Z"/>
  <path class="st32" d="M8.2,9.41l-.75,1.16c-.38.58-.5,1.72-.48,2.43.01.41-.22.9-.24,1.35.83.42,1.66.76,2.45,1.29-.45.08-.83-.11-1.23-.21-.55-.14-1.09-.28-1.63-.45-.19-.06-.28-.17-.3-.37-.07-.59-.02-1.17.12-1.76l.69-2.9,2.22-2.15s.06-.04.08-.06c.13-.08.18,0,.11.15-.38.48-.73.99-1.04,1.53h0Z"/>
  <path class="st19" d="M81.35,25.69c-.02.08-.1.17-.03.3.21-.09.29-.35.52-.36-.09.14-.43.47-.26.68.7.84,1.36,1.67,1.86,2.64.05.09.16.33.08.4-.45.22-.82.41-1.23.71-.02-.51-.4-1-.38-1.44s.16-.63-.19-.97c-.83-.81-1.74-1.55-2.51-2.4.71.15,1.41.42,2.14.44Z"/>
  <path class="st50" d="M86.06,17.98c-.15-.17-.26-.37-.36-.57l.06-.08,1.63-1.2c.4.52.59,1.3,1,1.93-.61.32-1.22.49-1.86.7-.05-.28-.4-.59-.46-.79h0Z"/>
  <path class="st32" d="M94.62,10.97c.08.02.1.08.13.18.25,1.07.64,2.4.51,3.46-.03.22-.14.33-.35.39l-2.34.64c-.14.04-.34.1-.44-.03l2.41-1.25c-.04-.37-.12-.72-.23-1.05.46-.66.17-1.87-.1-2.63.18.08.25.24.41.29Z"/>
  <path class="st50" d="M15.49,17.28l.12.11c-.09.21-.53,1.18-.7,1.27-.02.01-.05,0-.09,0-.63-.15-1.23-.4-1.82-.7.5-.67.6-1.17,1.04-1.78l1.45,1.1Z"/>
  <path class="st29" d="M29.73,7.24l1.04.16c-.34.14-.71.1-1.09.16l-1.39.24c-.18.03-.38-.08-.61-.02.17-.76.32-1.44.33-2.19l2.02-.24-1.06.71c-.23.15-.57.5-.44.75.03.06.11.11.2.13l1,.29h0Z"/>
  <path class="st29" d="M72.46,7.58c-.54-.13-1.06-.02-1.59-.18.23-.14.5-.09.77-.17l1.02-.3c.17-.05.3-.19.33-.31.05-.19-.05-.37-.21-.48l-1.09-.72,1.94.25c-.29.25.08,1.63.14,2.05-.07.09-.25.11-.35.09l-.94-.23h-.02Z"/>
  <path class="st5" d="M29.4,29.74c-.02,1.18.34,1.03.17,1.63-.3,1.07-.66,2.15-1.07,3.19-.18.04-.32-.21-.27-.38.12-.4.16-.81.32-1.19.1-.23.08-.43.13-.67.24-1.02.54-1.99.63-3.01.13-.03.1.29.07.42h.02Z"/>
  <path class="st5" d="M72.99,33.33s.45,1.19.2,1.29c-.05.02-.14-.06-.16-.13l-.71-2c-.19-.55-.35-1.08-.46-1.65.49-1.25.09-1.5.27-2.66,0,.97.2,1.87.37,2.82.1.53.27,1.04.34,1.57.04.3-.01.48.16.76h0Z"/>
  <path class="st5" d="M76.8,14.68l.43.66c-.58.44-1.49.78-1.45,1.25.1.27.41.46.44.73-.45-.22-.85-.55-1.27-.83.39-.49.8-.65.88-1.42.09.02.16.07.23.13.02-.05,0-.08.02-.1.08-.12.39.15.48.07-.12-.28-.26-.53-.28-.83l.53.34h-.01Z"/>
  <path class="st37" d="M88.86,33.44s-.1-.09-.07-.13c.27-.35.75-.58,1.16-.69l2.4-.41-2.3,1.38c-.24.14-.49.31-.78.19-.17-.07-.28-.25-.42-.34h0Z"/>
  <path class="st56" d="M24.04,15.35c.25-.35.49-.72.81-1.06,0-.05.04-.09-.02-.08.17-.08.29-.26.52-.29-.02.54.53,1.45.26,1.73-.11.12-.28.15-.42.22l-.77-.47c-.13-.08-.27-.06-.39-.04h.01Z"/>
  <path class="st75" d="M9.95,32.43l1.31.19c.54.15,1.25.47,1.41,1.03l-.08.12c-.17.14-.23.08-.39.06-.21-.03-.32-.08-.49-.21-.6-.44-1.26-.74-1.88-1.11-.09-.08-.05-.11.12-.08Z"/>
  <path class="st5" d="M84.08,19.79c-.07-.07-.07-.17-.13-.25.34-.33-.39-.78-.54-1.33.64.25.95-.06,1.51-.36.06.11.19.28.16.41-.29.44-.63.81-.96,1.22-.07.09-.04.22-.04.3h0Z"/>
  <path class="st37" d="M93.66,36.57c.48.06.97,0,1.44.06.09-.04.15-.03.18.02-.64.33-1.33.57-2,.85-.26-.21-.39-.44-.57-.62-.01-.04-.03-.11,0-.13.23-.17.67-.22.96-.18h-.01Z"/>
  <path class="st4" d="M87,41.63l-.28-1.17.73-.79c.16.45.22.87.31,1.35-.24.22-.43.38-.76.61Z"/>
  <path class="st16" d="M12.59,33.76c.05-.45-1.03-.97-1.32-1.15.89.13,1.74.13,2.62.1,0,0-1.3,1.05-1.3,1.05Z"/>
  <path class="st16" d="M15.76,33.93c-.07.08-.11.16-.12.25l-.58.78-1.02,1.69c-.06.1-.1.12-.16.27l-.53,1.19c-.04.09-.04.25-.15.22.01-.19.11-.35.18-.55.47-1.4,1.15-2.7,2.11-3.82.1-.11.19-.19.17-.33.06.1.08.19.1.3Z"/>
  <path class="st5" d="M17.45,19.43c-.53-.39-.51-.63-1.01-1.17-.05-.06.08-.28.16-.26.62.22.55.52,1.6.11-.12.35-.73,1.09-.75,1.31h0Z"/>
  <path class="st16" d="M86.51,39.77c-.08-.37-.31-.72-.3-1.07.12-.31.44-.56.65-.81.18.42.32.78.41,1.19-.29.22-.5.41-.76.69Z"/>
  <path class="st6" d="M92.51,7.98h-.06s.01.05.04.08l1.92,1.91c.17.17.21.56.15.75-.17-.18-.44-.32-.59-.55-.6-.9-1.31-1.69-1.99-2.5-.02-.06,0-.08.06-.06.17.11.38.18.46.36h0Z"/>
  <path class="st75" d="M7.74,36.56c.38-.02.89.12,1.19.36.03.02-.02.1-.06.13-.13.13-.22.31-.43.44l-2.04-.85,1.33-.08h.01Z"/>
  <path class="st4" d="M14.76,40.63c.03.32-.16.63-.2.91l-.83-.66c.08-.4.11-.78.26-1.13.23.31.75.63.77.88Z"/>
  <path class="st10" d="M51.44,82.47l-.67.77c-.27-.28-.51-.56-.76-.89.18-.22.39-.38.61-.6.28.26.52.52.81.72h0Z"/>
  <path class="st4" d="M15.07,39.69c-.25-.32-.53-.51-.85-.75.04-.35.18-.68.32-1l.81.9c-.08.29-.15.55-.28.85Z"/>
  <path class="st4" d="M86.33,44.73c.21-.22.25-.58.46-.75.31-.23.74-.26,1.09-.45,0,.3-.04.54-.08.86l-1.48.33h.01Z"/>
  <path class="st4" d="M87.94,42.75l-.94.49c.02-.38.07-.67.04-1.04.27-.17.5-.35.79-.48.08.35.06.63.1,1.04h.01Z"/>
  <path class="st68" d="M14.96,44.63l-1.2-.07c-.08-.3-.1-.59-.13-.91l1.01.33.31.65h0Z"/>
  <path class="st56" d="M65.54,53.61l1.02-2.11c.31-.64.92-1.92,1.32-2.38-.18.58-.47,1.11-.75,1.69-.48.99-.96,1.94-1.59,2.8Z"/>
  <path class="st41" d="M10.25,7.08l-2.04,2.34c.2-.31.23-.69.49-1.03l.44-.57s.05-.09,0-.08c.33-.27.7-.5,1.06-.72.06-.02.08,0,.06.06h0Z"/>
  <path class="st4" d="M85.97,37.96l-.32-1.01.44-.61c.18.29.32.54.47.85,0,0-.59.77-.59.77Z"/>
  <path class="st4" d="M16.16,36.29c-.03-.28-.26-.58-.23-.87.04-.34.43-.59.64-.9.11.11.3.37.22.53l-.62,1.23h0Z"/>
  <path class="st4" d="M14.44,43.1c-.31-.16-.55-.29-.86-.38,0-.32,0-.59.05-.95.29.2.53.35.85.48,0,0-.04.85-.04.85Z"/>
  <path class="st68" d="M15.62,37.9c-.23-.31-.41-.61-.69-.9.11-.24.2-.43.36-.65.2.26.35.47.61.66l-.28.88h0Z"/>
  <path class="st16" d="M89.95,32.62c-.18.18-.99.53-1.1.82-.32-.22-.61-.41-.9-.7l2-.12Z"/>
  <path class="st68" d="M8.87,37.05c.17-.05-1.13-.52-1.13-.49.59-.08,1.33-.32,1.97-.37-.28.35-.57.6-.84.86Z"/>
  <path class="st83" d="M49,79.43c-.83-.67-1.44-1.33-1.51-2.45.56.78.99,1.65,1.51,2.45Z"/>
  <path class="st17" d="M29.24,28.28c.03.95-.39,2.15-.63,3.03-.02-1.07.22-2.08.63-3.03Z"/>
  <path class="st48" d="M52.4,79.31c.39-.76.89-1.47,1.36-2.19-.05.94-.65,1.64-1.36,2.19Z"/>
  <path class="st46" d="M85.41,36.28c-.22-.52-.42-.94-.69-1.38-.06-.1.02-.26.11-.31.32.32.56.65.81,1.02l-.22.67h0Z"/>
  <path class="st5" d="M14.82,18.65l.62-1.12c.05-.09.06-.17.05-.25.12.09.32.1.39.27-.28.39-.54.77-.85,1.14-.05.06-.18-.02-.21-.04Z"/>
  <path class="st59" d="M29.2,64.64l.05.07c-.26.12-.51.24-.76.36-.6.28-1.24.52-1.97.7l2.27-1.09s-.05-.03,0-.06c.14.02.27,0,.42,0v.02Z"/>
  <path class="st77" d="M93.66,36.57c-.09,0-.22,0-.32.05l-.64.26c-.21-.21-.49-.36-.67-.68.57.17,1.1.28,1.62.37h0Z"/>
  <path class="st14" d="M26.26,16.55c-.27.15-.5.37-.78.48-.01-.3.58-.44.43-.61-.05-.06-.16,0-.19-.03-.06-.04-.03-.13,0-.21-.05-.1-.17-.06-.26-.16.06-.09.15-.14.28-.18.12.3.36.47.53.71h-.01Z"/>
  <path class="st71" d="M17.33,16.97c.02.06,0,.08-.06.06-.22-.11-.37-.24-.51-.43l.28-.6s.29.97.29.97Z"/>
  <path class="st57" d="M18.04,33.46l-.75.96c-.06-.18-.07-.3-.07-.46.27-.2.49-.42.77-.56.06-.02.08,0,.05.06Z"/>
  <path class="st28" d="M72.37,29.08c-.02-.11,0-.14.07-.06.19.67.42,1.29.4,1.99-.19-.65-.39-1.28-.47-1.93Z"/>
  <path class="st74" d="M74.23,33.47l-.55.49c-.09-.2-.11-.36-.16-.56.23,0,.41,0,.71.07Z"/>
  <path class="st9" d="M22,9.47c.22-.67.34-.59,1-.8-.32.28-.63.54-1,.8Z"/>
  <path class="st17" d="M27.88,33.84l-.54-.43.67-.08c0,.18-.04.32-.13.51Z"/>
  <path class="st55" d="M29.4,29.74c0-.14.02-.32-.07-.42.03-.35.09-.69.06-1.08-.02-.18-.01-.37.09-.54.09.19-.02.39-.02.61v1.37s-.02.08-.06.07h0Z"/>
  <path class="st31" d="M28.49,65.08c0-.12.66-.28.71-.44.17,0,.33-.08.55-.04,0,0-1.26.48-1.26.48Z"/>
  <path class="st39" d="M86.23,42.81c-.13-.07-.04-.23-.05-.37l-.13-1.32s.04-.05.06,0c.1.56.13,1.12.12,1.68h0Z"/>
  <path class="st86" d="M26.32,13.86c-.14-.07-.3-.1-.33-.26-.02-.14.08-.28.11-.41.11.21.16.44.21.67h.01Z"/>
  <path class="st83" d="M14.74,69.85s-.05-.02-.05-.07v-1.91s.02-.07.05-.07v2.04h0Z"/>
  <path class="st44" d="M73.52,65.17c-.47-.12-.93-.32-1.39-.54.51.06.93.34,1.39.54Z"/>
  <path class="st89" d="M86.06,17.98c-.18-.13-.35-.32-.44-.54-.02-.06.1-.08.14-.11.09.23.23.42.3.65Z"/>
  <path class="st79" d="M71.52,58.17l-.21.41c-.05.11-.17.04-.24.06-.3.17.6-.7.45-.47Z"/>
  <path class="st51" d="M84.85,36.87c-.14-.36-.46-.68-.54-1.08.04.02.09.05.12.12l.38.76c.04.07.04.14.04.2Z"/>
  <path class="st47" d="M89.24,14.41c-.1.13-.09.34-.25.41,0-.15-.06-.3-.04-.48.11-.02.2.05.29.08h0Z"/>
  <path class="st70" d="M42.69,29.26s-.04-.05-.06-.07c.29-.1.51-.39.85-.39,0,0-.79.46-.79.46Z"/>
  <path class="st63" d="M83.97,33.89h.05c.14.09.31.17.27.41-.13-.14-.23-.26-.32-.41Z"/>
  <path class="st27" d="M40.42,76.86h-.9c-.19-.08,1.09-.08.9,0Z"/>
  <path class="st43" d="M71.6,43.47s.03.04,0,.06l-.24.42s-.06.07-.12.05c.05-.24.21-.41.3-.6.02.02.04.05.06.07Z"/>
  <path class="st95" d="M75.36,13.38c.03.08.11.18.06.28-.04.08-.12,0-.15,0,.05.04-.02-.1,0-.24,0-.05.05-.05.1-.04h0Z"/>
  <path class="st62" d="M58.35,28.9s-.04.04-.06.07c-.48-.31-.45-.09-.36-.28.02-.05.5.24.42.22h0Z"/>
  <path class="st7" d="M86.11,41.13h-.06c-.02-.21-.07-.47-.12-.67.1.2.14.44.18.67Z"/>
  <path class="st71" d="M16.98,15.96c.05-.13-.32.72-.27.35,0-.03,0-.02-.03-.06.08-.13.13-.3.3-.29Z"/>
  <path class="st52" d="M95.88,45.57c.02.15,0,.33,0,.48-.11-.13-.1-.34-.13-.54l.12.06h0Z"/>
  <path class="st76" d="M87.97,25.84c.06.19-.36-.15-.37-.18.15.06.32.03.37.18Z"/>
  <path class="st60" d="M71.36,44.01v-.06c.04-.16.09-.33.24-.42,0,.19-.18.32-.24.48Z"/>
  <path class="st1" d="M23.81,16.13v-.06c.09-.09.11-.22.28-.33,0,.19-.14.3-.28.39Z"/>
  <path class="st83" d="M33.1,77.18c-.17.1-.4.03-.6.04.17-.11.4-.04.6-.04Z"/>
  <path class="st83" d="M21.1,56.54c.03-.12.15-.21.31-.24-.07.16-.18.23-.31.24Z"/>
  <path class="st11" d="M23.26,16.91c.03-.17.12-.27.23-.37,0,.18-.1.29-.23.37Z"/>
  <path class="st35" d="M17.27,17.02s.04-.03.06-.06c.03.1.2.18.16.33-.16-.06-.17-.18-.21-.27h-.01Z"/>
  <path class="st25" d="M10.25,7.08s-.03-.05-.06-.06c.09-.06.15-.18.3-.18-.04.15-.18.17-.25.24h.01Z"/>
  <path class="st2" d="M28.78,64.64v.06c-.16-.01-.32.05-.48-.03.18-.03.34-.05.48-.02h0Z"/>
  <path class="st85" d="M14.83,72.07c-.03-.16-.01-.32-.02-.48.1.13.09.35.02.48Z"/>
  <path class="st61" d="M84.02,33.9h-.05c-.09-.07-.19-.13-.26-.25.21-.04.22.19.31.26h0Z"/>
  <path class="st15" d="M80.03,31.35c-.06.07-.09.09-.13.07-.03-.02-.04-.05-.03-.09s.07-.01.11-.06c.1-.08.17,0,.05.07h0Z"/>
  <path class="st83" d="M23.33,67.4c-.18.04-.25.02-.43-.01.14,0,.29,0,.43.01Z"/>
  <path class="st34" d="M23.81,16.13c0,.1-.07.24-.19.22.06-.15.13-.21.19-.28v.06Z"/>
  <path class="st30" d="M84.31,35.8c-.12-.05-.17-.18-.18-.3.08.11.15.14.18.3Z"/>
  <path class="st13" d="M72.44,29.02l-.07.06c-.06-.11-.08-.22-.02-.3.05.11.07.17.09.24Z"/>
  <path class="st78" d="M17.93,64.64c-.03-.13-.15-.31,0-.43v.43Z"/>
  <path class="st58" d="M15.76,33.93c.02.12-.05.17-.12.25-.07-.02-.04-.09-.02-.13.03-.06.07-.13.14-.12Z"/>
  <path class="st92" d="M18.04,33.46s-.03-.04-.05-.06c.08-.07.13-.15.24-.12-.03.11-.14.12-.19.17h0Z"/>
  <path class="st91" d="M36.88,6.77s.06.03.06.06c-.1,0-.24.12-.3,0,.09,0,.19-.05.24-.07h0Z"/>
  <path class="st18" d="M92.05,7.62s-.05.03-.06.06c-.05-.06-.15-.07-.19-.17.13-.04.18.07.24.12h.01Z"/>
  <path class="st93" d="M89,15.3c-.04-.09-.08-.12-.01-.25.06,0,.06.06.06.09,0,.05.02.15-.05.15h0Z"/>
  <path class="st64" d="M95.28,36.65l-.18-.02c.09-.08.26-.06.36-.02-.07.07-.14.02-.18.04Z"/>
  <path class="st83" d="M19.42,58.77c-.14-.12-.04-.26.01-.37,0,.12-.04.25-.01.37Z"/>
  <path class="st72" d="M73.52,65.17c.1.03.22,0,.31.1-.15.06-.24-.03-.31-.1Z"/>
  <path class="st80" d="M81.61,57.56s-.05.03-.06.06c-.03-.04-.13-.08-.09-.15.06-.03.11.07.15.09Z"/>
  <path class="st83" d="M14.8,71.11c-.1-.09-.04-.24-.04-.36.1.09.03.24.04.36Z"/>
  <path class="st33" d="M60.08,30.52s-.05-.04,0-.06c.09.04.19.07.25.16-.14.09-.18-.1-.25-.1Z"/>
  <path class="st90" d="M15.04,73.81c-.01-.12-.04-.23-.05-.36.1.09.05.24.05.36Z"/>
  <path class="st82" d="M31.9,2.48c-.09.05-.17.14-.31.08.08-.04.13-.13.31-.08Z"/>
  <path class="st49" d="M60.08,30.46v.06c-.11,0-.16-.08-.25-.11.02-.02.05-.05.06-.08.06.05.11.1.18.13h0Z"/>
  <path class="st26" d="M9.95,32.43c-.05,0-.1.03-.12.08-.06-.07-.11-.06-.18-.09.1-.12.21,0,.3,0Z"/>
  <path class="st21" d="M43.92,9.79c-.07.05-.09.08-.11.1,0,.01-.08.01-.08-.03,0-.03.08-.07.1-.11.07-.08.17-.05.1.04h0Z"/>
  <path class="st20" d="M31.18,2.64c-.08.02-.15.15-.27.08.07-.14.19-.06.27-.08Z"/>
  <path class="st67" d="M82.88,65.07c-.01-.09.02-.18.12-.2,0,.13-.03.19-.12.2Z"/>
  <path class="st83" d="M41.98,76.92c-.1,0-.23.06-.3-.04.1,0,.23-.06.3.04Z"/>
  <path class="st0" d="M22.49,20.44c.04-.08.1-.12.17-.18.04.1,0,.19-.17.18Z"/>
  <path class="st81" d="M28.18,64.73c-.09.04-.18.04-.3,0,.06-.06.15-.06.3,0Z"/>
  <path class="st24" d="M23.08,14.55c-.09.05-.13,0-.08-.05s.07-.07.18-.06c.07.05-.03.04-.1.1h0Z"/>
  <path class="st69" d="M31.18,2.64c.11-.07.22-.1.31-.02-.12.06-.22,0-.31.02Z"/>
  <path d="M40.7,24.7l1.5.61c.32.13.48.54.78.73l2.64,1.67c.06.04.09.08.04.12-.03.02-.07.04-.13,0l-2.83-1.58c-.28-.16-.6-.21-.89-.31l-1.16-.41-2.35-.96c-1.02,0-2.01.04-3.04.12-1.3.11-1.25.73-1.67.58-.22-.08-.08-.32,0-.45.19-.31.43-.45.73-.6.19-.1.29-.06.47-.07,1.27-.06,2.54-.25,3.83-.14.75.06,1.4.5,2.09.68h-.01Z"/>
  <path d="M60.63,25.54l-1.66.63-3.06,1.71c-.07-.06-.06-.13,0-.17l2.8-1.76c.28-.17.45-.47.74-.62.38-.19.79-.33,1.17-.47.83-.31,1.59-.62,2.43-.88,1.16.02,2.3.12,3.46.16l.63.02c.34.01.67.36.85.62.1.14-.04.3-.1.39-.07.09-.3.2-.41.09-.38-.34-.83-.52-1.35-.56-1.04-.09-2.05-.11-3.1-.13l-2.4.96h0Z"/>
  <path class="st38" d="M71.6,43.53v-.06c.08-.12.08-.28.24-.36-.02.18-.11.35-.24.42Z"/>
  <path class="st97" d="M28.84,76.76c-.57.09-1.16.04-1.74.04.57-.11,1.16-.03,1.74-.04Z"/>
  <path class="st98" d="M39.04,62.6c-.3.09-.63.07-.96.04.32-.04.63-.06.96-.04Z"/>
  <path class="st66" d="M16.86,63.98c-.02-.22-.02-.44,0-.66.03.24.07.42,0,.66Z"/>
  <path class="st54" d="M23.09,68.04c-.16.02-.32.02-.48,0,.19-.06.29-.02.48,0Z"/>
  <path class="st66" d="M34.6,64.83c-.11.11-.28.03-.42.04.11-.1.28-.04.42-.04Z"/>
  <path class="st66" d="M31.3,75.84c-.12.01-.24.01-.36,0,.15-.01.21-.03.36,0Z"/>
  <path class="st65" d="M33.1,76.4c-.14.04-.16.03-.3,0,.1-.01.2-.01.3,0Z"/>
  <path class="st36" d="M8.94,39.39c-.05.06-.09.14-.17.19-.06-.14.08-.18.11-.25.01.03.03.05.06.06Z"/>
  <path class="st88" d="M92.34,39.39s.05-.03.06-.06c.03.07.17.1.11.25-.09-.05-.12-.13-.17-.19Z"/>
  <path class="st84" d="M76.44,15.47c-.12,0-.23-.1-.22-.24.09.06.16.1.22.24Z"/>
</svg>