<?xml version="1.0" encoding="UTF-8"?>
<svg id="Layer_1" xmlns="http://www.w3.org/2000/svg" version="1.1" viewBox="0 0 102 86.88">
  <!-- Generator: Adobe Illustrator 30.1.0, SVG Export Plug-In . SVG Version: 2.1.1 Build 136)  -->
  <defs>
    <style>
      .st0 {
        fill: #490617;
      }

      .st1 {
        fill: #898989;
      }

      .st2 {
        fill: #a57027;
      }

      .st3 {
        fill: #c0b8ae;
      }

      .st4 {
        fill: #d5cfc6;
      }

      .st5 {
        fill: #040301;
      }

      .st6 {
        fill: #c8bfa9;
      }

      .st7 {
        fill: #480f08;
      }

      .st8 {
        fill: #e0b860;
      }

      .st9 {
        fill: #f4efe3;
      }

      .st10 {
        fill: #5e5e5e;
      }

      .st11 {
        fill: #22130a;
      }

      .st12 {
        fill: #a36c23;
      }

      .st13 {
        fill: #d7b05b;
      }

      .st14 {
        fill: #410615;
      }

      .st15 {
        fill: #8d8d8d;
      }

      .st16 {
        fill: #d5d5d5;
      }

      .st17 {
        fill: #28030c;
      }

      .st18 {
        fill: #714b18;
      }

      .st19 {
        fill: #f9f9f9;
      }

      .st20 {
        fill: #a88b48;
      }

      .st21 {
        fill: #dbd3c6;
      }

      .st22 {
        fill: #4b0618;
      }

      .st23 {
        fill: #a97024;
      }

      .st24 {
        fill: #a88a48;
      }

      .st25 {
        fill: #8c8c8c;
      }

      .st26 {
        fill: #ab7124;
      }

      .st27 {
        fill: #dfb85f;
      }

      .st28 {
        fill: #ab7224;
      }

      .st29 {
        fill: #b2938f;
      }

      .st30 {
        fill: #66150b;
      }

      .st31 {
        fill: #936030;
      }

      .st32 {
        fill: #656363;
      }

      .st33 {
        fill: #a77e58;
      }

      .st34 {
        fill: #9d8143;
      }

      .st35 {
        fill: #f1e9d7;
      }

      .st36 {
        fill: #959595;
      }

      .st37 {
        fill: #d4cec1;
      }

      .st38 {
        fill: #b0a9a8;
      }

      .st39 {
        fill: #966537;
      }

      .st40 {
        fill: #905b2b;
      }

      .st41 {
        fill: #c3b7b6;
      }

      .st42 {
        fill: #f9e2df;
      }

      .st43 {
        fill: #65150b;
      }

      .st44 {
        fill: #323232;
      }

      .st45 {
        fill: #d8b25c;
      }
    </style>
  </defs>
  <path d="M79.69,39.38c-.11,0-.13.03-.06.08,2.63,1.32,5.34,2.44,8.4,2.32,2.4-.09,4.98-.64,6.78-2.32l2.3-2.13c.08-.07.23.02.26.08.04.07.13.25.07.36-1.11,2.17-2.02,3.48-3.58,5.36-.96,1.16-2.06,2.1-3.3,2.94-.9.61-1.79,1.13-2.85,1.5.04.11.14.07.21.18-.23,0-.46.17-.67.2-.67-.12-1.27-.42-1.84-.77-.98-.6-1.8-1.09-2.39-2.1-.39,1.21,0,2.15.65,3.12l-.65-.09c-.28-.04-.53-.1-.82-.13-1.26-.16-2.4-.64-3.52-1.15-.07-.02-.15-.02-.12.06.85.89,1.82,1.64,2.87,2.34,1.26.84,2.6,1.45,4.06,1.81.83.21,1.62.25,2.48.25,2.1,0,4.09-.47,5.97-1.41.62-.31,1.2-.59,1.76-1.01.18-.14.43-.06.52.14.12.27.01.55-.2.77-1.16,1.14-2.38,2.18-3.76,3.08-2,1.31-4.2,2.19-6.56,2.59-1.17.2-2.31.06-3.47-.05-.66-.06-.75.25-1.47-.15-.12-.07-.36.09-.45-.08-.41-.85-.7-1.75-1.33-2.51.17.81.37,1.55.28,2.31-.12.08-.31.05-.43,0l-.06-.33c-1.47-.29-3.91-.92-5.26-1.52-1.16-.51-2.33-.91-3.42-1.56l-2.19-1.3-3.75-2.11c.55,1.03,1.26,1.92,2.01,2.78.58.67,1.21,1.21,1.92,1.75l5.95,4.53c.41.31.77.64,1.24.85,1.09.5,2.27.67,3.45.81.11,0,.21.06.26.12.05.06.07.27-.04.29-1.08.25-2.17.24-3.29.2.91.8,1.86,1.43,2.83,2.1.83.58,1.7.98,2.6,1.42,1,.5,2.04.67,3.14.29.83-.29,1.58-.71,2.28-1.26,1-.78,1.88-1.65,2.74-2.58l1.89-2.06c.8-.87,2.17-1.72,3.42-1.43.7.16,1.32.55,1.81,1.05.59.6.74,1.38.53,2.19-.36,1.38-.99,2.63-1.8,3.81-.46.67-.98,1.22-1.64,1.67-.17.12-.53.8-.86.48-.2-.19-.15-.53,0-.75.47-.69.92-1.35,1.32-2.08.49-.88.56-1.93.16-2.91-1.17.6-2.28,1.25-3.26,2.14s-1.83,1.83-2.72,2.8c-1.24,1.35-.99,2.12-2.01,2.68s-2.15.83-3.3.79c-.23.12-.21.5-.14.71.31.96-.67,1.37-1.34,1.7-.03.02-.07.05-.05.07,1,.42,2.54.42,3.53-.09,1.33-.68,2.7-2.38,3.68-3.51.1-.12.27-.19.38-.17.38.07.32.64.22.96-.76,2.54-1.93,4.02-4.06,5.58-.77.56-1.61,1-2.49,1.35s-1.77.28-2.66.12c-1.62-.29-2.77-1.55-2.93-3.18-.19-1.98.56-3.64,2.48-4.39.05-.04.02-.06-.04-.09-.97-.37-1.97-.61-2.86-1.16l-2.29-1.42c-.7-.44-1.39-.83-2.06-1.31-.1.17-.19.25-.32.26-.39.02-.38-.94-.63-1.3-.27.92-.79,1.66-1.58,2.16-.09.06-.22.05-.29,0-.39-.33.76-1.21.16-2.34-.22-.41-.49-.74-.84-1.02-.85-.69-1.83-1.81-2.6-2.33-1.64-1.12-3.35-2.06-5.18-2.83l-4.08-1.72c-.97,1.44-1.16,3.17-.18,4.66,1.35,2.05,2.08,2.04,4.03,3.16.12.07.24.05.24.21,0,.14-.11.22-.29.2-1.23-.13-2.41-.38-3.63-.58l-3.25-.54c-1.05-.17-1.19-.52-2.84-.45-.72.03-1.35.35-2.04.46l-3.2.53c-1.24.21-2.43.46-3.69.58-.17.02-.22-.1-.23-.2,0-.17.12-.14.24-.21,1.93-1.1,2.71-1.13,4.05-3.2.96-1.48.76-3.2-.21-4.63-3.13,1.25-6.47,2.65-9.23,4.53-.48.33-.88.72-1.28,1.11l-.96.93c-.49.48-1.18.91-1.33,1.66-.08.39.15.84.22,1.21l.12.58c.02.11-.05.22-.12.25-.11.04-.22,0-.33-.07-.71-.5-1.22-1.18-1.46-2.02-.03-.03-.05-.07-.06-.05-.28.55-.21,1.31-.66,1.25-.1,0-.18-.13-.27-.26-.6.44-1.21.79-1.83,1.18l-2.52,1.56c-.89.55-1.88.79-2.87,1.17-.1.04-.08.07.01.11,1.93.77,2.66,2.49,2.43,4.47-.19,1.57-1.32,2.77-2.87,3.07-.88.17-1.78.24-2.63-.08-.93-.35-1.8-.81-2.61-1.4-2.15-1.58-3.45-3.23-4.1-5.85-.06-.25.02-.58.25-.65.18-.06.37.1.48.23.94,1.11,2.36,2.82,3.65,3.46.96.48,2.44.49,3.46.08.13-.04.05-.09-.05-.1-.7-.33-1.63-.75-1.29-1.72.07-.2.05-.55-.15-.67-1.16.05-2.29-.23-3.32-.79s-.76-1.32-2-2.67c-.89-.97-1.75-1.91-2.72-2.8s-2.02-1.5-3.14-2.09c-.07-.03-.11-.04-.15,0-.05.05-.05.12-.07.19-.28.98-.18,1.94.34,2.81.4.67.8,1.29,1.24,1.93.14.21.19.51.03.72-.31.4-.74-.34-.89-.45-.65-.44-1.17-.98-1.62-1.63-.81-1.18-1.45-2.42-1.82-3.8-.22-.82-.08-1.62.52-2.24.49-.5,1.11-.89,1.81-1.05,1.28-.29,2.64.59,3.47,1.49l1.81,1.97c.87.95,1.75,1.83,2.77,2.62.7.55,1.45.97,2.28,1.26,1.01.35,2.02.25,2.96-.22.84-.42,1.66-.75,2.44-1.28,1.06-.71,2.08-1.39,3.05-2.22.02-.02.07-.07.05-.08-.02-.02-.08,0-.12,0-1.03.06-2.05.02-3.08-.18-.13-.03-.13-.2-.1-.28.03-.08.16-.17.27-.17,1.1-.07,2.12-.33,3.15-.65.6-.19.97-.54,1.45-.91l6.07-4.65c1.66-1.27,2.74-2.6,3.85-4.37.05-.08.02-.12-.06-.1-.04,0-.08.03-.15.07l-4.79,2.75c-.32.18-.56.42-.89.57-3.48,1.64-4.67,2.16-8.48,3.02-.21.05-.2.12-.24.32-.02.1-.31.12-.4.04-.14-.12-.03-.37-.02-.55.03-.53.08-1.04.27-1.55.03-.08-.04-.15-.1-.1-.46.71-.8,1.46-1.13,2.23-.05.1-.07.21-.13.23-.35.11-.33-.15-.49.03-.29.34-.99.09-1.45.13-1.14.12-2.26.25-3.41.05-4.17-.71-7.36-2.76-10.32-5.67-.21-.2-.3-.44-.22-.71.05-.16.27-.36.45-.23.63.44,1.26.77,1.96,1.11,1.86.91,3.83,1.36,5.91,1.34.8,0,1.53-.04,2.31-.23,1.49-.36,2.86-.97,4.14-1.81,1.06-.7,2.05-1.46,2.91-2.36,0-.07-.05-.08-.12-.06-.62.26-1.22.55-1.88.76-.95.3-1.88.49-2.87.48.19-.25.18-.51.27-.74.28-.73.42-1.46.13-2.25-.48.85-1.21,1.38-2.01,1.86.06.05.03.11-.07.19-.28.11-1.24.52-1.45.7-.05.04-.08.11-.13.11-.06,0-.1-.07-.16-.09-1.26-.35-2.4-.89-3.48-1.62-2.18-1.47-3.07-2.43-4.66-4.5-.89-1.17-1.65-2.37-2.32-3.68-.1-.2-.22-.38-.09-.61.04-.06.1-.13.17-.13.06,0,.14.03.2.09.73.71,1.43,1.39,2.21,2.06,1.97,1.68,4.1,2.2,6.66,2.31,3.1.14,5.84-.98,8.52-2.32,0-.07-.06-.08-.12-.07l-1.62.17c-.99.1-1.95.02-2.93-.15-.26-.05-.52,0-.77-.16.52-.74.77-1.64.77-2.54l.04-.26c.04-.27-.01-.43-.17-.47-.7.83-3.15,2.08-4.12,1.97-.23-.03-.35-.29-.5-.4-.85-.63-1.59-1.3-2.29-2.1-1.1-1.27-2.11-2.57-3.03-3.98-.83-1.28-1.49-2.59-2.14-3.97-.71-1.51-1.27-3.03-1.65-4.65-.07-.28-.05-.68.21-.68.09,0,.19.06.24.16.35.62.7,1.19,1.14,1.75.87,1.14,1.79,2.17,2.87,3.11,1.41,1.23,3.08,1.94,4.93,2.16,1.1.13,2.15.11,3.26.05.63-.03,1.23,0,1.88-.11-1.38-.44-2.72-.92-3.96-1.67-.2-.12-.34-.27-.56-.34.27-.35.49-.65.65-1.05l-.24-.22.87-1.66c-.99.61-1.88,1.24-2.87,1.76-.2-.09-.31-.23-.47-.37-1.95-1.58-3.48-3.56-4.51-5.86-.49-1.1-.97-2.14-1.3-3.31-.48-1.75-.83-3.47-1.16-5.26-.23-1.27-.22-2.5-.08-3.77.07-.6.26-2.4.95-2.48.13-.01.24.19.27.31.24,1.15.47,2.25.8,3.39.55,1.9,1.55,3.57,2.94,4.99,2.39,2.45,5.83,3.89,9.13,4.66,1.52.36,3.01.54,4.55.73l3.2.39c.32.04.62,0,.93.03l2.01.27c0-.11-.1-.09-.12-.18.25.01.48.08.72.04s.33.13.5.18c1.24.36,2.48.32,3.74.12,2.35-.37,4.64-1.12,6.38-2.8.61-.58,1-1.3,1.01-2.17,0-1.12-.72-2.06-1.77-2.46s-1.91-.27-3.01-.28c-1.86.58-3.57,1.51-5.14,2.65-.16.11-.19.29-.42.24-.45-.09-.41-.6-.34-1,.1-.51.16-1.02.05-1.56-1.05.24-2.03.58-3.05.9-.43.14-.84.28-1.29.29-.14,0-.1-.29-.05-.37.5-.84,1.18-1.64.58-2.5-.25-.36-.6-.6-.93-.87-.19-.15-.31-.22-.58-.2-.62.04-1.24.1-1.78.43-.2.12-.35.34-.23.57.19.37.35.78.63,1.1.47.55,1.12.89,1.77,1.15.13.05.14.24.09.35-.04.1-.17.08-.31.07-1.66-.16-3.24-.63-4.64-1.54-1.22-.79-1.59-1.53-1.81-2.91-.05-.35.12-.67.4-.85,1-.64,3.58-1.44,4.75-1.65l3.15-.57c.57-.1,1.12-.08,1.7-.1,1.6-.07.78.26,1.9-.56,1.05-.77,1.86-1.15,3.16-1.35,2.74-.42,4.56.97,7.44,1.33,1.28.16,2.52.38,3.81.39h2.28c.31.01.6.06.86.24.28.2-.79.98-.95,1.1-.65.51-1.35.92-2.14,1.2,1.03.7,1.98,1.36,2.86,2.18.6.56,1.01,1.25,1.41,1.96.2.36.34.71.61,1.06.27-.35.41-.71.61-1.06.39-.69.79-1.38,1.38-1.93.89-.84,1.86-1.51,2.88-2.21-.78-.27-1.44-.65-2.06-1.13-.18-.14-1.3-.95-1.03-1.16.25-.19.54-.22.86-.23.81-.01,1.59.04,2.4-.02,1.25-.09,2.44-.23,3.68-.38,2.84-.36,4.71-1.75,7.39-1.34,1.29.2,2.17.58,3.21,1.36,1.1.83.43.48,1.85.56.49.03.95-.01,1.44.06,1.2.18,2.37.38,3.56.63,1.28.26,3.58.95,4.66,1.64.28.17.45.5.4.84-.22,1.41-.61,2.15-1.85,2.94-1.38.88-2.92,1.35-4.55,1.5-.14.01-.26.06-.33-.02-.08-.1-.09-.33.05-.39.66-.27,1.32-.62,1.79-1.18.27-.32.42-.72.61-1.08.12-.23-.03-.45-.23-.57-.54-.32-1.16-.38-1.78-.43-.27-.02-.39.05-.58.2-.33.26-.66.49-.91.83-.64.87.04,1.67.56,2.53.05.09.1.38-.05.37-.51-.01-.99-.2-1.47-.35-.96-.3-1.88-.62-2.87-.84-.1.52-.05,1.01.04,1.51.07.36.15.91-.27,1.04-.26.08-.31-.11-.48-.23-1.57-1.14-3.27-2.07-5.13-2.65-1.09,0-1.98-.12-3.01.28s-1.77,1.34-1.77,2.46c0,.87.4,1.59,1,2.17,1.74,1.68,4.03,2.43,6.38,2.8,1.18.18,2.33.22,3.49-.06.22-.05.42.02.62,0l2.78-.37.88-.03,3.2-.39c1.58-.19,3.09-.38,4.64-.75,3.25-.78,6.68-2.21,9.03-4.64,1.36-1.4,2.35-3.02,2.91-4.89.35-1.2.58-2.37.85-3.57.02-.1.11-.17.16-.2.31-.16.66.5.74.83.41,1.72.53,3.51.23,5.28s-.69,3.62-1.19,5.42c-.32,1.15-.8,2.17-1.28,3.26-1.1,2.47-2.81,4.61-4.98,6.23l-2.85-1.76.85,1.66c-.06.09-.16.13-.24.2.08.29.24.54.43.78l.05.07c.05.06.09.11.14.17.04.04,0,.09-.06.06-1.24.88-2.84,1.49-4.3,1.94-.04.01-.08,0-.14.02-.05,0-.03.06,0,.06h.14c.57.07,1.11.05,1.68.08,1.13.05,2.2.08,3.32-.06,1.85-.23,3.53-.93,4.93-2.16,1.33-1.17,2.55-2.45,3.47-3.95l.59-.97c.07-.11.21-.15.31-.05.14.14.16.33.11.53-.37,1.64-.93,3.18-1.65,4.71-.65,1.38-1.31,2.69-2.14,3.98-.95,1.47-2,2.83-3.16,4.14-.85.96-1.79,1.75-2.86,2.42-.02,0-.06.07-.09.06-.4-.17-.81-.22-1.2-.41-.96-.47-1.93-.87-2.68-1.69-.03-.07-.06-.13-.12-.05.01.7,0,1.38.21,2.03l.39,1.16.07.09c.06.07-.03.06-.11.09-1.28.33-2.57.39-3.89.25l-1.26-.14v.04Z"/>
  <path class="st17" d="M18.23,36.7v-.55c0-.1-.06-.17-.13-.18.04-.05.08-.1.14-.09.04.29.12.58-.01.82Z"/>
  <path class="st33" d="M83.23,60.91c-.12.07-.18-.04-.3-.08.08-.03.23-.07.3.08Z"/>
  <path class="st39" d="M19.37,60.83c-.08.08-.16.11-.23.13-.03-.03-.03-.16.01-.17.08,0,.17-.02.21.03h.01Z"/>
  <path class="st16" d="M78.68,46.83s-.12,0-.12.06c-.05-.06-.15-.07-.19-.18.14-.02.22.08.31.12Z"/>
  <path class="st16" d="M23.98,46.89c0-.06-.07-.06-.12-.06.09-.04.16-.14.3-.12-.04.11-.13.12-.19.18h.01Z"/>
  <path class="st40" d="M29.88,65.19s.1,0,.13-.01c.03,0,.05.05.03.09-.02.05-.07.02-.09.03-.05.02-.13-.03-.07-.11Z"/>
  <path class="st31" d="M72.33,65.19s.1,0,.13-.01c.02,0,.05.05.03.09-.02.05-.07.02-.09.03-.05.02-.13-.03-.07-.11Z"/>
  <path class="st1" d="M22.91,39.46s-.07-.07-.12-.07c.09,0,.2-.13.3,0-.09.03-.14.04-.18.09h0Z"/>
  <path class="st10" d="M17.44,47.12c0-.07,0-.15.07-.19.03.05.08.06.12.11,0,0-.19.08-.19.08Z"/>
  <path class="st36" d="M79.69,39.38l-.06.08s-.08-.07-.19-.08c.08-.12.17,0,.25,0Z"/>
  <path class="st43" d="M42.63,16.48l.1.09c-.02.07,0,.47,0,.48.06.02.93-.19.95-.38l.45-.86c.15-.16.2-.11.28.07v.77l.76-.18c.26-.54.47-1.14.65-1.79.15-.23.25-.04.32.18.03.4.06.8.07,1.19l.62-.28c.24-.61.43-1.26.57-1.95.13-.26.26-.08.37.13.15.41.27.83.37,1.25l.79-.36c.17-.65.32-1.31.45-1.97.13-.26.32-.14.4.1.13.38.25.77.35,1.16.07-.47.02-.96-.04-1.43l.1-.11.49.84c.13.23.32.35.57.49.31-.08.55-.31.7-.61.27-.55.57-1.04.9-1.51l.18.36c.07.44.16.89.26,1.32.29,1.24.34.88.26.05-.03-.43.08-.6.32-.49.37.63.76,1.24,1.18,1.83l.33.08-.19-.64c-.08-.38-.18-1.01.32-.49.28.47.58.92.88,1.37.29.31.67.5,1.13.57-.08-.3-.15-.61-.19-.92.02-.19.04-.4.27-.25l.8,1.22c.2.37.47.59.82.66l-.35-1.11c-.06-.4-.03-.86.42-.42.16.16.37.46.33.69.04-.02.09.02.13.12.3,1.77,1.94,2.96,3.47,3.77,1.33.71,2.74,1.05,4.22,1.31,1.38.24,2.65-.01,4.02-.04l2.67-.05,1.39-.15,2.95-.19c3.63-.24,7.93-1.28,11.11-3.12,2.87-1.66,5.56-4.69,6.21-7.92l.7-3.47c.5,1.9.5,3.81.08,5.68-.37,1.65-.75,3.24-1.28,4.8l-.27.4c-1.65,1.56-3.49,2.9-5.26,4.19-.19.05-.25-.02-.24-.21l2.96-3.17c-4.76,3.07-9.63,6.18-14.59,8.95-.12.05-.55.24-.63.21-.12-.03-.14-.11-.13-.22l7.03-5.01c-4.57,2.36-9.2,4.62-13.91,6.8-.43.2-.65.18-.67-.07l7.81-5.58c-4.46,2.15-8.72,4.73-12.7,7.69-1.03,3.76-2.11,7.54-3.24,11.34,1.25-.97,2.54-1.89,3.87-2.75.19-.16.28-.14.39.03l-1.45,7.39,1.76-.79c.1.02.14.1.15.2l-1.53,2.11c-.06.05-.14.05-.25.02-.29-.13-.55-.2-.81-.46-.16-.16-.5-.11-.68-.23.25.87.63,1.57,1.09,2.31,1.73,2.79,2.71,3.45,5.27,5.39l4.03,3.05c.28.26.27.48-.16.33l-2.16-1.4-.44-.2,1.52,1.98c.07.34-.21.23-.4.14-.97-.71-1.95-1.42-2.94-2.12l1.89,2.3c-.02.26-.22.25-.61-.06l-1.78-1.3,1.32,1.99c.05.37-.26.21-.47.07l-1.66-1.34c.02.1-.03.14-.14.14-3.61-2.65-6.57-3.99-10.84-5.55-1.29,1.82-1.53,4.23-.1,6.09.41.53.84,1.08,1.43,1.39l2.11,1.09c-.65-.12-1.25-.2-1.88-.36-1.75-.45-3.5-.69-5.27-1.04-1.05-.21-1.94-.19-2.99.02-1.7.34-3.39.57-5.07,1-.66.17-1.29.26-1.97.38l2-1.02c.39-.2.67-.51.98-.82,1.95-1.9,1.96-4.58.45-6.73-3.23,1.06-8.73,3.67-11.15,5.79-.3.11-.06-.27.08-.41l-1.72,1.39c-.2.13-.45.29-.47-.06l1.37-2.02-1.83,1.33c-.34.28-.54.3-.61.07.66-.76,1.29-1.54,1.9-2.33-.98.71-1.96,1.41-2.94,2.11-.33.13-.47.14-.33-.24.5-.62.99-1.25,1.45-1.89-.87.49-1.71,1.02-2.55,1.58-.27.11-.54.12-.29-.17l4.96-3.72c2.2-1.65,3.1-2.47,4.56-4.85.45-.74.84-1.44,1.08-2.31l-.65.2c-.3.34-.67.38-1.03.55l-.13.03-1.62-2.24c0-.1.07-.15.16-.19l1.77.81-1.51-7.41c.09-.2.18-.23.4-.05,1.35.87,2.66,1.81,3.93,2.79-1.12-3.81-2.21-7.59-3.25-11.35-4.01-3-8.33-5.56-12.82-7.77l7.63,5.41c.22.12.3.28.25.46-.26,0-.53-.07-.79-.21-4.63-2.15-9.2-4.39-13.7-6.71l6.98,4.98s.01.16,0,.19c-.09.17-1.04-.32-1.24-.43-4.76-2.74-9.46-5.66-14-8.6.9.97,1.8,1.93,2.7,2.88.24.33.26.47-.16.34-1.66-1.18-3.32-2.48-4.85-3.86-.07-.07-.13-.14-.19-.22s-.12-.17-.17-.25c-.09-.25-.19-.49-.27-.78-.39-1.39-.74-2.74-1.06-4.15-.42-1.89-.44-3.81.08-5.73l.71,3.51c.65,3.21,3.37,6.26,6.24,7.9,3.92,2.25,8.64,3.04,13.1,3.21.51.02.97.08,1.47.14.98.12,1.95.13,2.93.11.22,0,.33,0,.53.1.22.11.56,0,.78.12.15.09.23-.07.33-.06,2.21.23,5.2-.38,7.18-1.41,1.32-.69,2.73-1.72,3.29-3.05h0Z"/>
  <path class="st22" d="M79.63,30.45l-.34.3c-1.87.93-3.71,1.93-5.47,3.04-1.99,1.24-3.72,2.76-5.4,4.37l.83-.31c4.25-1.93,8.54-3.81,12.88-5.65l1.54-.51c.21-.06.26,0,.26.18-2.4,1.54-4.78,3.09-7.15,4.65l1.35-.52c4.43-1.93,8.78-3.88,13.07-5.82.31.03.21.2.05.39l-3.55,2.83c2.4-1.49,4.74-3.15,7.03-4.95.3-.3.63-.53.99-.69-.95,2.01-2.13,3.88-3.55,5.63-.71.88-1.38,1.71-2.24,2.45-.65.56-1.37,1.17-2.19,1.46-.84-.23-1.63-.73-2.37-1.16-.87-.5-1.14-1.28-1.32-1.28-.24,0-.38.45-.41.68-.12.95-.02,1.91.28,2.85-1.01.15-1.96.12-2.95,0l-4.02-.51c-.25-.03-.39.32-.41.49-.02.21.02.49.23.62s.36.3.54.41l-.18.21c-1.46.99-2.94,1.89-4.46,2.71l3.62-1.56c.25.1.16.28-.25.55-2.36,1.59-4.72,3.16-7.08,4.71,3.68-1.21,7.4-2.4,11.16-3.57.52-.22,1.04-.31,1.55-.28.16.16.09.34-.21.53l-3.78,2.2-.12.02c-.3-.1-1.02-.66-1.38-.14-.22.31-.19.71.02,1.03.5.76,1.43,1.51,2.01,2.16l-.19.08c-.73-.19-1.43-.28-2.2-.28-1.08,0-2.15.03-3.22.11l-1.91,1.96c-.17.18-.06.25.32.2,1.92-.37,3.83-.78,5.75-1.22.85-.12,1.02.11.31.68l-1.73,1.14c.59,0,1.18-.06,1.77-.16l.16.11c.22.17.25.39.38.64.37.7.79,1.37.99,2.17l-2.85-.86c-1.87-.56-3.55-1.52-5.36-2.22l-1.79-.69v-.13l2.75-1.54-5.58.43-.48-.08-.91-.41s.12-.03.16-.09l1.55-2.13-2,.92,1.51-7.68c-1.52.98-2.91,1.99-4.36,3.1l2.95-10.19.42-1.54c1.76-1.33,3.55-2.56,5.44-3.72,2.6-1.59,5.21-3.06,8.02-4.36-.47.53-1.04.85-1.6,1.26l-6.85,4.91c.71-.15,1.28-.46,1.9-.76l10.09-4.89,3.58-1.88c-.14.22-.33.33-.55.48l-7.48,5.33c.58-.11,1.04-.41,1.53-.69l4.26-2.5,7.37-4.61,2.48-1.62c.9-.59-3.26,3.58-3.22,3.64.14.02.27-.09.38-.18l2.11-1.61c1.13-.86,2.15-1.79,3.2-2.71-.36,1.07-.85,2.06-1.37,3.1-1.09,2.17-2.64,4.02-4.6,5.46-.99-.62-1.9-1.3-2.81-2-.21-.16-.43-.29-.69-.34-.28.08-.4.43-.29.72.44,1.07,1.07,2.04,1.67,3.04-1.5.91-3.85,1.66-5.55,1.92l-2.86.43c-.36.06-.62.36-.66.64-.05.32.03.72.36.84.35.13.77.22,1.14.25h-.02Z"/>
  <path class="st22" d="M37.95,47.97l-.78.36c-.79.04-1.59,0-2.4-.13-1.21-.13-2.42-.19-3.63-.19.92.45,1.79.96,2.61,1.54l.06.14-1.69.64c-1.81.68-3.47,1.59-5.31,2.21-.94.32-1.85.57-2.85.85.22-.85.64-1.5,1.01-2.21.11-.2.13-.44.33-.56l.14-.11,1.68.15-1.74-1.14c-.79-.61-.48-.8.37-.68l5.26,1.15c.7.14.94.09.73-.15l-1.88-1.96c-1.11-.08-2.22-.11-3.33-.11-.65,0-1.27.09-1.9.22l-.21-.08c.58-.66,1.41-1.3,1.93-2.07.18-.26.24-.57.15-.86-.12-.37-.48-.52-.83-.37-.25.1-.49.21-.72.29h-.18c-1.28-.73-2.55-1.47-3.81-2.23-.37-.32-.44-.57.14-.52l.61.13c3.91,1.23,7.83,2.48,11.76,3.74l-5.82-3.81-1.21-.87c-.41-.26-.51-.45-.3-.58l3.61,1.54c-1.54-.84-3.06-1.74-4.55-2.71l-.06-.12c.55-.34,1.01-.62.88-1.19-.04-.15-.19-.43-.42-.4l-3.99.51c-.99.13-1.94.16-2.95,0,.26-.6.66-3.39-.19-3.57-.35.56-.75,1.01-1.31,1.34-.75.45-1.51.83-2.36,1.19-2.06-1.07-3.28-2.53-4.7-4.32-1.24-1.56-2.27-3.22-3.12-5l.2.06c1.04.8,2.08,1.6,3.14,2.39l4.59,3.04-3.75-2.98c-.15-.18-.23-.31.06-.37,4.17,1.89,8.39,3.78,12.68,5.67l1.84.74-7.16-4.66c-.02-.19,0-.26.22-.2,1.02.29,2.02.67,3,1.09,4.04,1.81,8.09,3.6,12.14,5.34.07,0-.09-.16-.16-.22-1.77-1.59-3.37-3.01-5.41-4.27-1.73-1.07-3.51-2.05-5.33-2.94l-.26-.27c.41-.03.85-.08,1.26-.24.35-.13.43-.55.36-.9-.06-.3-.34-.55-.71-.61l-3.77-.61c-.95-.15-3.76-1.13-4.57-1.75.58-.93,1.11-1.81,1.57-2.77.16-.34.22-.78-.08-.92-.12-.06-.23-.04-.35.02-.4.21-.73.49-1.09.77-.7.54-1.41,1.01-2.17,1.51-1.89-1.39-3.41-3.16-4.49-5.25-.54-1.04-1.04-2.05-1.42-3.12,1.32,1.17,2.66,2.3,4.1,3.36.46.34.84.71,1.39.98-.34-.52-.8-.88-1.2-1.33-.72-.79-1.49-1.49-2.14-2.38l2.1,1.34,3.33,2.13,7.79,4.74c.86.42,1.57.99,2.55,1.26l-7.46-5.32c-.21-.15-.42-.26-.55-.48l3.54,1.86,10.25,4.97c.58.28,1.11.52,1.72.72-.14-.24-.34-.34-.56-.49l-6.59-4.68c-.49-.34-.93-.65-1.35-1.06,2.57,1.19,5,2.53,7.42,3.98,2.13,1.28,4.14,2.63,6.13,4.13l.61,2.16,2.77,9.57c-1.46-1.12-2.89-2.16-4.44-3.15l1.58,7.72-2.02-.94,1.67,2.31h-.01Z"/>
  <path class="st42" d="M41.19,5.75c.7.27,1.39.55,2.07.84l2.41.55c.08.08.05.17-.03.24-.46.17-.92.3-1.4.41-.75.07-1.49.2-2.27.23-.91.03-1.75-.15-2.66-.26-.89.31-2.07,1.27-1.93,2.39.16.05.27,0,.38-.02.47-.24.95-.2,1.46-.16,2.13.17,4.91,1.15,6.57,2.49,0,0,0,.03,0,.06.07,0,.09-.02.06-.06-.02.02-.03.03-.04.03-.3-.19-2.01-1.55-2.04-1.77,0-.13-.02-.18.1-.26.11-.08.45-.03.59,0l2.83.72-1.74-1.42c-.2-.46.08-.43.51-.3.8.24,1.57.62,2.3.98.73.59,1.31,1.33,1.79,2.16.07.29.17,1.48,0,1.7-.24.31-.31-1.19-.68-1.51-.16.75-.27,1.43-.49,2.13-.29.18-.59.32-.95.47-.18-.57-.25-1.13-.54-1.64-.16.74-.33,1.41-.58,2.11l-.87.39c-.05-.55.03-1.06-.12-1.62-.2.67-.39,1.31-.67,1.95l-.96.25c-.08-.34,0-.69-.04-1.04-.73,1.25-.28,1.13-1.69,1.43.02-.26-.05-.51.02-.72.48-1.38.29-2.88-.81-3.92s-2.59-1.14-4.02-1.02c-.12,0-.22.12-.34.15-.23-.16-.49-.14-.76-.05-1.44.51-2.75,1.25-4.05,2.06,0-1.19.02-1.45-.62-2.38-.28-.41-.59-.75-1.04-.99l-.22-1.23c-.13-.76.05-1.69.5-2.37s1.09-1.21,1.74-1.66c1.28-.9,3.5-.98,4.96-.46l3.22,1.14.04-.02Z"/>
  <path class="st42" d="M59.68,15.53c.02.14,0,.18-.08.12-.18-.28-.35-.57-.61-.81-.08.28-.03.56.06.83l.35,1.02c-.2-.09-.52-.1-.69-.27-.51-.53-.85-1.17-1.27-1.8-.06.52.18.9.2,1.4-.34-.21-.87-.23-1.19-.53-.53-.49-.73-1.23-1.25-1.79-.05.52.22.93.31,1.45-.18-.08-.55-.07-.67-.26l-1.13-1.83c-.13.47,0,.92,0,1.41-.09-.03-.31-.07-.36-.18-.22-.83-.4-1.65-.51-2.48.37-.52.75-1.05,1.31-1.37.66-.46,1.42-.72,2.17-.99.87-.3.61.34.12.64l-1.39,1.09,2.92-.74c.25-.05.68-.1.64.26-.02.17-1.16,1.13-1.36,1.29-.18.14-.44.34-.64.4-.11.13-.09.15.06.07,0-.03-.02-.05,0-.05,1.9-1.55,5.13-2.51,7.58-2.43.31.13.6.19.87.16.12-.3-.06-.83-.2-1.06-.3-.5-.79-.81-1.25-1.13-.3-.21-.52-.23-.87-.14-1.02.25-2.07.3-3.11.16l-1.69-.22-1.22-.35c-.16-.1-.11-.17,0-.27,1.19-.16,2.32-.48,3.37-.96l.83-.28,3.14-1.11c1.86-.65,3.63-.7,5.37.29.57.32.98.81,1.44,1.24.32.3.48.61.61,1.01.3.87.31,1.73.09,2.61-.08.33-.12.44-.41.64-.51.36-.91.98-1.16,1.57-.21.5-.15,1.01-.16,1.58-1.29-.82-2.61-1.55-4.05-2.07-.28-.1-.54-.12-.78.04-.14-.03-.24-.14-.37-.15-1.4-.09-2.79-.03-3.89.95-.88.78-1.25,1.92-1.13,3.05h0Z"/>
  <path class="st30" d="M22.78,30.45c1.04.53,2.09,1.01,3.12,1.63,1.46.87,2.94,1.64,4.31,2.65,1.27.93,2.36,2.02,3.55,3.03.19.16.35.32.43.58-.55-.11-.96-.32-1.45-.54l-9.99-4.44c-1.37-.61-2.71-1.18-4.19-1.59l6.8,4.42c.26.17.53.29.66.6-1.92-.68-3.67-1.48-5.49-2.29l-6.37-2.86-3.07-1.38c.03.14.14.22.25.3l3.77,2.99c.18.14.34.25.47.45-.28-.09-.5-.2-.74-.35l-4.29-2.84c-1.29-.85-2.42-1.84-3.6-2.78-.58-1.21-1.22-2.39-1.58-3.76.98,1.29,1.98,2.47,3.17,3.52,1.85,1.63,4.12,2.48,6.57,2.71,1.51.14,2.97.17,4.48.16,1.09,0,2.13-.13,3.17-.21h.02Z"/>
  <path class="st30" d="M95.71,27.76c-.55.52-1.15.96-1.76,1.44-1.08.85-2.13,1.65-3.29,2.4l-2.94,1.92c-.29.19-.55.41-.93.44l4.15-3.32c.14-.11.29-.19.35-.38l-2.98,1.34-6.69,3c-1.74.78-3.42,1.55-5.28,2.19.29-.42.71-.63,1.12-.89l6.42-4.16c-1.45.42-2.77.96-4.12,1.56l-10.03,4.46c-.52.23-.96.45-1.54.58.05-.2.18-.36.35-.5,1.24-1.06,2.39-2.19,3.71-3.16,1.16-.85,2.4-1.5,3.63-2.25s2.47-1.35,3.73-1.97l3.31.2c1.51.09,2.98-.02,4.48-.16s2.89-.51,4.23-1.15c2.33-1.12,4-3.14,5.51-5.06-.35,1.3-.91,2.37-1.43,3.47Z"/>
  <path class="st30" d="M86.17,42.88c.09.11.04.16-.09.19l-2.94.74c-.18,0-.33.02-.48.12l-4.42,1.14-.34-.04-.36-.13c0-.08.05-.13.13-.18l3.31-1.9c.26-.15.5-.28.69-.53-.2-.1-.41-.03-.61.02-1.32.33-2.57.73-3.88,1.16l-7.96,2.6c-.19.06-.36.11-.56.07.25-.31.56-.48.89-.7l4.82-3.14c.7-.46,1.37-.87,2.01-1.47l-5.82,2.51,3.33-1.88c1.18-.66,2.29-1.34,3.38-2.08,1.73,1.03,3.5,1.98,5.44,2.66,1.15.4,2.27.74,3.44.83h.02Z"/>
  <path class="st30" d="M24.95,44.9c-.08.03-.22.1-.3.14l-.3.05-4.44-1.12c-.16-.09-.3-.17-.48-.12-1.03-.25-2.06-.52-3.07-.79v-.15c1.22-.07,2.37-.45,3.55-.88,1.85-.67,3.56-1.56,5.22-2.56.1-.02.18.03.27.1.82.57,1.63,1.07,2.5,1.56l3.84,2.16-5.7-2.44c.88.78,1.83,1.36,2.79,1.98l4.35,2.83c.22.14.42.26.55.5-.25,0-.42-.05-.64-.12l-10.41-3.36c-.72-.23-3.24-.98-1.02.29l3.05,1.75c.1.06.18.1.23.18h.01Z"/>
  <path class="st8" d="M84.85,63.92l.13-.02,1.03,1.98-.07.12c-.84.53-1.89.85-2.92.77-.46-.04-.75.01-.99.46-.29.54-.41,1.16-.03,1.73-.54.5-1.51.59-1.68,1.08l-.06.23c.03.16-.02.22-.16.19l-1.69-1.7.04-.13c.25-.27.54-.5.93-.65l1.01-.41c.26-.1.37-.28.34-.54-.06-.61-.94-.3-1.26-.44-.03-.08.17-.05.2-.03.02.01-.35-.03-.38-.1-.07,0-.15-.02-.25-.06-.17-.03-.44-.25-.6-.31l-.12-.09.08-3.6.12-.07c.8.53,1.7.87,2.58,1.33.66.34,1.22.73,2.05.65.56-.06,1.19-.14,1.72-.37l-.02-.02Z"/>
  <path class="st8" d="M23.87,62.42l.12.05c.05,1.19.08,2.39.11,3.58l-.1.07c-.24.09-.45.34-.73.31-.14.08-.31.11-.49.09.15-.02.25-.01.31.04-.14.18-1.26-.25-1.26.5s1.22.48,2.22,1.48c.03.03.08.09.06.11-.19.21-1.54,1.65-1.66,1.65-.1.01-.17-.08-.21-.28-.13-.45-1.14-.59-1.68-1.07.36-.57.27-1.2-.03-1.74-.24-.45-.54-.49-1-.46-1.05.08-2.16-.24-2.99-.83l-.07-.11c.32-.66.67-1.32,1.03-1.95l.2.04c.55.24,1.18.34,1.78.38.8.05,1.35-.32,1.99-.65.81-.43,1.66-.74,2.41-1.21h-.01Z"/>
  <path class="st28" d="M24.33,11.81l-.14.1c-1.31-.23-3.17-.78-3.45-2.29-.04-.22-.04-.47.11-.65.18-.22,1.42-.73,1.69-.7.21.19.4.4.56.65-.1-.69.14-.79.75-.55.33.21.66.42.99.62l-.19-.62c-.04-.53.34-.4.68-.25.44.28.89.55,1.35.8-.15-.37-.4-1.05.23-1l1.08.59-.29-.51.07-.13c.06-.15.06-.19-.03-.11l-.12-.07c-.25.04-.26-.18-.05-.35.34-.07.63-.22.87-.44-.12-.05-.17-.13-.14-.23.7-.18,1.66-.13,2.47-.13-.36.87-.69,2.3-.36,3.1.21.51.39,1,.52,1.53.11.45.39.81.59,1.25-.38.11-.77.13-1.16.21l-1.22.26c.44-.3.94-.57,1.33-.98.26-.28.12-.71-.12-.97-.46-.48-1.05-.7-1.65-.99-1.31-.64-2.81-.77-4.15-.2-.6.25-.87.86-.58,1.42l.33.64h.03Z"/>
  <path class="st30" d="M78.18,47.97c1.49,1.33,3.29,2.74,5.16,3.48.11.15,0,.21-.15.23l-3.78.43-.12-.11c-.08-.13-.25-.33-.36-.45v-.14c.56-.27,1.08-.58,1.56-.95-.77-.02-1.54.04-2.31.18l-.21-.1c-.19-.23-.56-.36-.86-.47-.08.14.01.43.14.53,0-.03-2.73.44-2.05,0l1.63-1.07c.22-.14.45-.28.57-.54-.23-.11-.47-.06-.71,0l-4.43.96c-.33.07-1.64.41-1.77.15-.05-.1.01-.24.1-.33l1.93-1.99c1.33-.1,2.61-.16,3.95-.1.61.03,1.16.19,1.73.3h-.02Z"/>
  <path class="st30" d="M25.31,50.62l.19-.35c.03-.06.04-.15-.02-.17-.2-.08-.83.39-.89.45l-.22.1c-.82-.1-1.63-.17-2.45-.21.49.41,1.05.75,1.67,1.02v.15c-.1.12-.25.29-.33.43l-.15.1-3.98-.5-.06-.13c.75-.27,1.42-.69,2.12-1.12,1.19-.72,2.19-1.59,3.21-2.48.6-.11,1.2-.25,1.85-.26,1.23-.02,2.41.02,3.64.12l1.93,1.99c.08.08.15.22.1.31-.15.27-1.41-.07-1.77-.14l-4.32-.94c-.28-.06-.55-.12-.83-.02.13.28.36.41.58.56l1.59,1.05c.06.04.13.13.08.18-.03.04-.11.05-.18.05l-1.8-.17.04-.02Z"/>
  <path class="st28" d="M74.24,6.64c-.04.1-.13.18-.27.24.25.23.56.38.93.46.13.14.11.31-.09.3-.21,0-.26.06-.16.16l.07.13-.35.61c.72-.49,1.93-1.28,1.36.37l1.27-.78c.3-.2.54-.21.72-.03.02.29-.04.59-.17.89.44-.35.92-.61,1.43-.77.3.05.41.27.32.67.16-.23.35-.44.55-.64.23-.04,1.53.5,1.7.72.14.18.15.42.11.63-.27,1.47-2.02,2.02-3.31,2.27l-.14-.1c.12-.22.22-.41.33-.62.26-.54.04-1.13-.54-1.39-1.32-.59-2.85-.48-4.15.15-.6.29-1.2.51-1.66.98-.27.28-.41.74-.12,1.03.34.34.74.59,1.13.83.05.09,0,.1-.11.07l-.88-.2c-.4-.09-.82-.09-1.21-.22.22-.46.51-.86.62-1.35.07-.34.15-.65.3-.96.59-1.12.29-2.41-.17-3.58.88-.03,1.69-.02,2.49.11v.02Z"/>
  <path class="st22" d="M73.29,57.97l1.48,1.01c-.17.05-.31-.11-.47-.08-.13.03-.18.17-.19.26-.03.32.5.64.68.96-.41-.08-.95-.61-1.27-.41-.38.24-.14,1.54-.34,2.07-.16-.3-.67-1.7-.99-1.52-.08.04-.17.15-.17.26,0,.56.02,1.1-.19,1.65-.16-.29-.44-1.54-.8-1.36-.06.03-.12.11-.14.2-.13.7-.27,1.4-.8,1.97.07-.37-.04-.76,0-1.08.04-.36.09-.58-.18-.88-.26-.28-.48-.62-.79-.88-.63-.55-1.21-1.15-1.86-1.63.15-.03-.36-.43-.3-.59.64.39,1.13.88,1.7,1.31.26.2.46.45.81.56l-1.13-1.68c-.14-.21-.32-.39-.36-.67.28.07.44.25.64.39.64.43,1.18.95,1.9,1.32l-1.73-2.09c-.14-.17-.29-.32-.32-.55.29.08.51.25.74.42l2.03,1.5c.22.16.42.35.72.39l-1.48-1.91c-.08-.1-.17-.21-.09-.34.28.03.52.18.75.34l1.66,1.09c.18.12.35.25.56.26l-.12-.28h.05Z"/>
  <path class="st22" d="M34.96,58.75l-1.31,1.16c-.11.1-.29.06-.42.14-.1.06-.02.25-.08.33l-.56.68c-.25.31-.19.51-.15.84.04.3-.12.65,0,1-.82-.59-.62-2.02-1-2.11-.32-.07-.59,1.08-.75,1.37-.21-.55-.19-1.09-.19-1.65,0-.13-.11-.24-.22-.27-.28-.08-.78,1.23-.94,1.54-.16-.37-.03-1.82-.25-1.92l-.02-.14.38-.35-.32-.14c-.03-.26-.14-.46-.32-.61-.14-.04-.21-.11-.23-.21.14-.04.31-.21.42-.3-.36.78,2.73-1.83,2.98-1.51.17.22-1.5,1.86-1.57,2.25.35-.12.58-.32.85-.52l1.86-1.38c.25-.18.48-.37.8-.45-.14.37-.39.63-.63.91l-1.46,1.75c.61-.31,1.08-.74,1.62-1.11.32-.22.57-.48.96-.63-.05.29-.22.47-.37.69l-1.14,1.68c.31-.06.49-.3.73-.48.61-.46,1.13-.97,1.8-1.38.05.17-.71.87-.48.83h.01Z"/>
  <path class="st25" d="M48.4,10.44c-.05.1-.14.01-.22-.02-.81-.36-1.62-.68-2.49-.97-.14.13-.02.23.07.32.65.56,1.36,1,2,1.65l-2.99-.77c-.26-.07-.55-.14-.82-.08-.12.03,0,.22.08.28l1.85,1.62c.1.08.06.12-.06.06l-1.32-.78c-1.7-.99-4.86-1.94-6.72-1.62.6-.35,1.19-.77,1.89-.98,1.9-.58,3.84-.34,5.57-.69.26-.05.3-.05.51.07.97.55,1.82,1.22,2.65,1.9h0Z"/>
  <path class="st25" d="M65.11,10.14s.02.16-.03.14c-1.89-.69-5.44.47-7.19,1.48l-1.22.7c-.09.08-.13.04-.06-.07l1.72-1.51c.1-.08.19-.19.18-.31-.23-.09-.47-.03-.7.03l-3.15.8c.28-.41,2.15-1.63,2.14-1.85,0-.1-.13-.1-.22-.07-.83.29-1.63.62-2.42.95.79-.74,1.72-1.32,2.64-1.91.21-.14.28-.11.52-.06,1.84.34,3.63.11,5.57.69.67.2,1.22.63,1.83.93.13.06.29.03.4.07h0Z"/>
  <path class="st28" d="M19.31,73.15s-.06-.11-.03-.14c.53-.56,1.25-1.19,1.76-1.6.52-.14,1.44-.62,1.19-1.38.02.06.1.11.12.21l1.7-1.7c.22.22.45.39.6.73.41.89.44,1.95,0,2.85-.42.85-1.24,1.27-2.11,1.48-1.18.29-2.22.07-3.22-.46h-.01Z"/>
  <path class="st22" d="M93.53,42.58c-.89,1.07-1.95,1.94-3.16,2.69-.92.56-1.83,1.07-2.88,1.32l-1.38.32c-.63-.34-1.2-.72-1.76-1.13-.22-.16-.35-.35-.51-.52,3.18-.92,6.38-1.85,9.58-2.77l.1.09h.01Z"/>
  <path class="st28" d="M80.3,70.03c-.18.71.47,1.13,1.02,1.32.01.07.1.14.25.19l1.61,1.49.05.12c-1.01.56-2.11.72-3.28.45-.88-.21-1.67-.67-2.08-1.51-.44-.9-.39-1.96.03-2.85.14-.3.34-.44.52-.63l1.77,1.78c0-.18.07-.27.1-.36h.01Z"/>
  <path class="st22" d="M18.58,45.26c0-.12.04-.12.07,0-.08.39-1.74,1.37-2.17,1.6-1.67-.14-3.06-.81-4.46-1.68-1.14-.71-2.12-1.55-2.96-2.54l.07-.1c3.15.9,6.3,1.81,9.44,2.72h.01Z"/>
  <path class="st22" d="M16.36,42.89c.07.1.2.1.34.13l7.95,2.01c-1.16.63-2.99,1.43-4.39,1.69.11-.45.07-.82.05-1.22,0-.19.02-.32-.07-.51-.1-.21-.36-1.21-.71-1.1-.3.09-.28,1.02-.88,1.37h-.07l-.4-.15c-1.16-.64-2.31-1.29-3.45-1.96l.02-.17s1.61-.09,1.61-.09Z"/>
  <path class="st22" d="M87.66,42.98c.11.12.01.19-.11.26l-3.4,1.91-.32.1c-.8-.83-.48-1.34-.88-1.37-.1,0-.19.08-.26.19-.47.78-.58,1.7-.42,2.65-1.27-.05-4.02-1.55-4.38-1.68l7.96-2.05c.13-.03.25,0,.31-.11l1.5.11h0Z"/>
  <path class="st8" d="M74.24,6.64c2.57.42,4.71.69,7.07,1.75.26.12.6.27.77.51-.01.47-.15,1-.38,1.43-.65,1.25-2.84,2.12-4.1,2.45-.14.03-.18,0-.12-.08.35-.24.56-.58.74-.92,1.11-.2,2.74-.63,3.22-1.83.1-.25.22-.74-.02-.94-.43-.36-1.02-.44-1.55-.66l-.78.99.11-.71c.01-.1-.03-.2-.08-.24-.4-.34-1.91,1.27-1.7.6l.21-.67c.03-.08,0-.18-.04-.21-.31-.23-1.63.97-2.01.97-.04-.26.35-.79.14-1.02-.23-.26-1.14.6-1.54.69.07-.4.34-.64.47-.95.02-.08.07-.1.16-.05v-.1l.06-.18c-.36-.13-.81-.2-1.03-.55-.06-.14.27-.28.39-.27h.01Z"/>
  <path class="st8" d="M28.31,6.66c.07.05.32.16.26.26-.24.33-.66.41-1.03.54,0,.08.06.14.09.21.06.06.11.12.15.18.14.29.38.54.46.91l-1.32-.73c-.1-.05-.22,0-.25.06-.14.31.18.65.17.99-.37.02-1.7-1.19-2.01-.97-.04.03-.07.13-.04.21l.21.68c.2.65-1.31-.94-1.7-.62-.06.05-.11.15-.09.25l.12.73-.78-1c-.53.2-1.11.3-1.55.65-.23.18-.13.67-.03.92.49,1.25,2.22,1.69,3.37,1.88.22.42.5.69.82,1.03-1.38-.32-3.62-1.24-4.29-2.47-.24-.44-.37-.98-.4-1.47.18-.24.51-.39.77-.51,2.26-1.02,4.67-1.4,7.08-1.73h0Z"/>
  <path class="st22" d="M81.43,54.04v-.08c1.88-.49,3.76-.98,5.65-1.46l.83-.09,1.31-.08c1.19-.07,2.28-.37,3.45-.75-1.71,1.32-3.69,2.1-5.75,2.55s-3.43.32-5.49-.09Z"/>
  <path class="st22" d="M14.51,52.4l.82.09c1.85.49,3.72.97,5.61,1.44l.17.11c-.77.19-1.57.27-2.39.35-1.11.11-2.12-.04-3.2-.28-2.02-.46-3.96-1.23-5.64-2.53,1.16.37,2.23.67,3.4.75l1.24.08h-.01Z"/>
  <path class="st30" d="M14.15,42.94l.54.04h.06c.06.11.18.17.31.24l3.15,1.76c.15.08.29.16.38.27-.27,0-.53-.04-.83-.12l-8.68-2.5c-.59-.7-1.23-1.37-1.73-2.15h.05c1.01.87,2.14,1.54,3.45,1.92,1.1.32,2.2.48,3.32.53h-.02Z"/>
  <path class="st30" d="M93.53,42.58l-8.86,2.55c-.3.09-.57.16-.83.12.41-.35.91-.57,1.41-.85l2.14-1.2c.11-.06.22-.12.27-.22h.07c.22,0,.44-.03.66-.04,2.54-.12,4.82-.72,6.79-2.47-.47.82-1.1,1.43-1.66,2.11h.01Z"/>
  <path class="st22" d="M23.27,52.04l-.85,1.45c-.08.13-.27.29-.39.37-.22.15-.51.09-.73.17l-.68-.2c-1.17-.49-2.34-1-3.49-1.51l.03-.14c.65-.15,1.3-.42,1.93-.65l4.19.53v-.02Z"/>
  <path class="st28" d="M95.88,60.31h-.16c-.09-.04-.73-.51-.69-.55.02-.02.15.04-.06.02-.04-.32-.35-1.29-.88-1.17-.14.03-.32.1-.42.15-.09,0-.18,0-.26-.05-.21-.11-1.37-.92-1.42-1.02-.02-.04-.04-.09-.05-.13.39-.29.73-.63,1.24-.79.65-.21,1.3-.19,1.91.15s1.47.92,1.33,1.78c-.09.59-.31,1.11-.54,1.62h0Z"/>
  <path class="st22" d="M85.45,52.16l-.07.13c-1.11.51-2.36,1.07-3.5,1.52-.24.09-.5.19-.75.2-.2-.08-.66.02-.96-.49l-.88-1.5,3.88-.44c.1,0,.16-.04.17-.12.69.27,1.38.56,2.11.71h0Z"/>
  <path class="st28" d="M10.55,57.5s.04.12,0,.14c-.32.25-1.32.97-1.66,1.11l-.14-.05c-.24-.19-.62-.12-.79.11s-.31.47-.35.72c0,.16-.81.71-.89.72-.05,0-.1-.02-.14-.05-.19-.48-.39-.96-.47-1.51-.16-1.08,1.34-1.98,2.28-2.06.87-.08,1.54.39,2.15.87h0Z"/>
  <path class="st8" d="M28.85,61.88c.06.13.13.89.5.85.09,0,.17-.07.22-.18l.45-.99.2,1.01c-.76.49-1.46.96-2.22,1.34-.11.06-.18.06-.19,0l-.2-.05c-.63-.81-1.41-1.44-2.31-1.92-.13-.08-.22-.18-.28-.3.38-.3.78-.58,1.18-.85.06-.02.08,0,.07.06-.02.12-.05.35.08.43.2.12.41-.02.58-.08.15-.17.43-.42.65-.35.17-.14.33-.22.49-.25l.3-.13c.14-.06.23-.05.28.05.05.45.12.9.2,1.34v.02Z"/>
  <path class="st8" d="M76.27,60.86c-.02-.06,0-.08.06-.06.39.23.72.55,1.09.79.14.1.09.15-.07.11-.05.11-.14.19-.25.26-.94.47-1.74,1.17-2.38,2l-.19-.04c-.75-.41-1.48-.84-2.22-1.35l.2-1.01.47,1.02c.06.12.18.17.31.13.4-.14.52-1.92.46-2.43l1.61.82c.24.12.5.29.78.21.18-.05.19-.36.12-.46h.01Z"/>
  <path class="st30" d="M37.17,48.33c-1.09.51-2.23.94-3.35,1.36-.99-.72-2.11-1.19-3.23-1.87,2.27.08,4.43.25,6.58.51Z"/>
  <path class="st28" d="M78.5,62.31l-.08,3.76c-.82-.29-1.59-.74-2.33-1.19l.02-.13,1.62-2.58.25-.21.53.35h0Z"/>
  <path class="st28" d="M26.25,64.92c-.1.12-.25.22-.4.25-.2.12-.39.25-.6.37-.4.23-.82.42-1.25.58l-.12-3.71c.19-.12.36-.3.57-.4.04-.02.11-.04.13-.02.54.8,1.15,1.76,1.62,2.6.12.12.14.23.06.32h0Z"/>
  <path class="st30" d="M68.61,49.65c-1.1-.43-2.22-.85-3.3-1.33l6.6-.5-3.3,1.84h0Z"/>
  <path class="st8" d="M84.67,71.42c.17-.04.27.49.27.63,0,.08-.02.12-.08.19-.5.39-1.08.61-1.63.91-.09,0-.17-.03-.24-.12l-1.74-1.63c0-.05.04-.06.06-.06.91.31,2.42.39,3.35.07h.01Z"/>
  <path class="st25" d="M44.25,7.79l1.42-.54c-.38-.07-2.29-.48-2.48-.56-.7-.29-1.37-.58-2-.94.97.34,5.12,1.02,6.38.84-.49.75-2.54,1.13-3.32,1.2Z"/>
  <path class="st8" d="M21.04,71.41c.07.02.04.06,0,.11l-1.72,1.63c-.62-.33-1.21-.56-1.75-1.02-.09-.21-.07-.45.07-.72h.18c.95.33,2.27.25,3.23,0h-.01Z"/>
  <path class="st30" d="M85.45,52.16c.81.17,1.63.24,2.46.24l-3.14.82-3.33.81c-.09.02-.22,0-.3-.04l4.08-1.78c.09-.04.17-.05.24-.06h0Z"/>
  <path class="st30" d="M17.15,52.16s.04.06.1.09l3.94,1.69c.06.03.09.04.1.08-.05.02-.13.03-.18.02-.74-.13-1.46-.3-2.22-.5l-4.38-1.14c.88-.03,1.78-.04,2.64-.24Z"/>
  <path class="st25" d="M60.98,5.87l-1.33.66c-.49.24-2.27.59-2.92.72l1.26.49c-.59-.08-1.17-.18-1.77-.4-.47-.17-.94-.31-1.25-.76,1.99.11,4.16-.35,6.02-.72h0Z"/>
  <path class="st8" d="M14.39,61.58s.02.05.02.08c0,.06-.81.65-.9.66l-.14-.08c-.54-.56-1.07-1.13-1.67-1.61l-.08-.15c.26-.29.53-.57.83-.84l.14.03,1.81,1.91h-.01Z"/>
  <path class="st8" d="M27.34,64.27c-.18.21-.5.27-.73.47-.12.11-.21.23-.37.18l-1.8-2.91c.18-.09.31-.27.51-.31l.16.08c.73.8,1.45,1.58,2.18,2.36l.04.13h0Z"/>
  <path class="st8" d="M77.97,61.96c-.48.95-1.11,1.82-1.68,2.75-.06.09-.11.16-.2.17l-.91-.55-.09-.14c.78-.88,1.53-1.71,2.26-2.49l.07-.11.55.36h0Z"/>
  <path class="st8" d="M90.79,60.62c-.6.51-1.13,1.11-1.67,1.68l-.15.07c-.29-.18-.58-.38-.85-.59l-.02-.15,1.81-1.9.13-.04.78.78-.03.14h0Z"/>
  <path class="st30" d="M28.6,58.4c.37.05.6.37.64.76.17.13.33.04.54.15-.31.15-.47.36-.67.54-.32.3-.72.5-1.1.71-.11.12-.25.23-.42.32-.17.17-.44.27-.65.35l1.01-2.23c-.07-.16.02-.29.25-.41.14-.06.27-.14.42-.19h-.02Z"/>
  <path class="st28" d="M87.01,64.52c-.21.23-.67,1.22-1.09,1.48l-1.08-2.08c.33-.14.7-.34,1.01-.54h.14c.35.34.7.68,1.07,1.01l-.05.13Z"/>
  <path class="st8" d="M11.62,58.58s.04.11,0,.13c-.3.19-.83.46-1.16.6-.16.12-.3.15-.45.1-.4-.26-.89-.4-1.26-.7l1.79-1.2c.4.32.73.69,1.08,1.08h0Z"/>
  <path class="st28" d="M17.69,63.91c-.1,0-.15.07-.2.17l-.96,1.86c-.33-.23-.84-1.24-1.07-1.48-.03-.04-.04-.08-.03-.13,0-.07.92-.9,1.05-1l.15.03c.33.22.71.41,1.07.57v-.02Z"/>
  <path class="st8" d="M93.67,58.76c-.33.29-.79.4-1.14.66l-.25.08c-.07,0-1.22-.59-1.34-.67-.13-.09-.13-.1-.03-.24.33-.37.63-.74,1.02-1.03.58.39,1.2.75,1.73,1.21h0Z"/>
  <path class="st28" d="M12.58,59.67l-.75.73c-.08.07-.14.14-.14.23-.54-.43-1.1-.84-1.67-1.22l1.6-.83s.96,1.09.96,1.09Z"/>
  <path class="st26" d="M92.53,59.42c-.57.41-1.21.76-1.74,1.21l-.89-.89,1.01-1.15c0,.06.03.1.09.13l1.24.62c.09.06.19.09.28.08h.01Z"/>
  <path class="st8" d="M88.08,63.37l-1.07,1.14c-.24-.31-.99-.84-1.16-1.13.46-.29.92-.61,1.33-.96l.15-.07c.29.25.56.53.81.83.03.04,0,.11-.06.2h0Z"/>
  <path class="st8" d="M15.29,62.37c.4.37.88.68,1.34.97l-1.16,1.11-1.07-1.14c-.09-.11-.1-.19-.03-.25l.72-.76c.06,0,.13,0,.2.06h0Z"/>
  <path class="st22" d="M24.6,50.55l-.99,1.06c-.22-.18-1.91-.88-1.82-1.22.12-.11.37-.08.53-.07l2.29.23h-.01Z"/>
  <path class="st28" d="M27.81,63.91c.06.06.03.09-.05.12-.02.02-.04.04-.06.06-.11.04-.19.07-.24.18h-.12c-.11,0-.18-.07-.26-.16-.71-.82-1.47-1.57-2.12-2.41.02,0,.04-.04.06-.06,1.32.74,1.82,1.07,2.79,2.26h0Z"/>
  <path class="st28" d="M75.18,64.33c-.21-.13-.43-.29-.65-.41.07,0,.13-.05.19-.13.69-.94,1.61-1.61,2.64-2.09.02,0,.03.03.04.05,0,.03-.01.08-.05.11l-2.07,2.31c-.05.06-.11.09-.09.16h-.01Z"/>
  <path class="st22" d="M78.92,51.55c-.32-.34-.66-.66-.96-1.02.39,0,2.48-.39,2.71-.12-.19.28-.45.42-.72.57l-1.03.57Z"/>
  <path class="st28" d="M89.11,62.3l-1.03,1.07s-.02-.11-.07-.16l-.67-.71c-.05-.05-.11-.07-.16-.08.29-.25.64-.51.9-.79.28.14.76.6,1.02.66h.01Z"/>
  <path class="st26" d="M15.29,62.37c-.05,0-.11,0-.16.06l-.64.68c-.07.06-.1.13-.09.2l-1.03-1.07c.25-.04.76-.52,1.02-.66.26.28.62.52.9.78h0Z"/>
  <path class="st26" d="M86.88,70.34l-.19.27c-.47.68-1.19,1.12-1.83,1.62l-.19-.82c.77-.26,1.4-.8,2.02-1.31.14,0,.26.08.19.23h0Z"/>
  <path class="st26" d="M17.81,71.41s-.09.06-.11.13l-.14.59c-.67-.58-1.49-1.08-1.97-1.86-.05-.15.01-.22.17-.22.52.45,1.41,1.13,2.05,1.35h0Z"/>
  <path class="st27" d="M7.62,59.54c-.07.4-.16.81-.18,1.22-.02.19-.35.37-.49.22-.14-.26-.25-.51-.36-.78l1.02-.66h.01Z"/>
  <path class="st27" d="M95.88,60.31c-.11.25-.21.48-.34.71-.11.16-.39,0-.44-.18,0-.03-.02-.08,0-.11l-.04-.36-.08-.59s.01-.07.06-.11c.29.25.62.39.85.65h0Z"/>
  <path class="st23" d="M6.96,60.98l.49-.22c-.02.45.1.88.17,1.37-.29-.36-.45-.77-.66-1.15Z"/>
  <path class="st12" d="M95.53,61.03c-.2.35-.3.77-.62,1.09.1-.46.16-.86.18-1.27.16.02.29.13.44.18Z"/>
  <path class="st45" d="M86.88,70.34c-.08-.06-.18-.12-.19-.23.32-.26.52-.64.92-.88-.2.43-.5.77-.74,1.11h.01Z"/>
  <path class="st13" d="M15.76,70.05c-.02.09-.09.16-.17.22-.2-.33-.58-.61-.64-1.02.36.24.55.58.81.81h0Z"/>
  <path class="st2" d="M28.85,61.88c-.29-.63-.07-1.33-.48-1.39.12-.05.22-.17.37-.16l.06,1.05c0,.18.06.34.05.5Z"/>
  <path class="st0" d="M28.18,58.58c-.07.14-.16.28-.25.41-.22.05-.49,0-.71.06.27-.24.62-.36.95-.47h0Z"/>
  <path class="st14" d="M27.23,59.05c-.35.1-.71.12-1.1.16.22-.11.89-.38,1-.28.03.03.02.09.09.12h.01Z"/>
  <path class="st21" d="M25.84,65.17s.03.04,0,.06c-.18.15-.4.2-.6.31-.07-.08.54-.35.6-.37Z"/>
  <path class="st11" d="M28.07,60.62c-.17.07-.31.2-.49.25.13-.12.26-.23.42-.32.02.02.04.05.07.07Z"/>
  <path class="st4" d="M26.25,64.92c-.01.21-.28.21-.4.31v-.06c.14-.06.25-.22.4-.25Z"/>
  <path class="st22" d="M88.39,42.94c-.19.12-.44.03-.66.04-.13-.09.65-.04.66-.04Z"/>
  <path class="st35" d="M23.27,66.43c-.02.07-.1.14-.18.13-.09-.01-.18.02-.31-.04.16-.03.32-.1.49-.09Z"/>
  <path class="st44" d="M76.52,59.22c-.15.03-.23.02-.37,0,.04-.07.09-.13.15-.11.07.02.16.05.22.1h0Z"/>
  <path class="st22" d="M14.69,42.98c-.18,0-.39.07-.54-.04.18,0,.4-.07.54.04Z"/>
  <path class="st9" d="M79.45,66.57s-.13-.08-.18-.07c-.05-.02-.05-.04,0-.06.12.04.27.02.42.09-.07.06-.17.02-.24.04Z"/>
  <path class="st34" d="M26.27,60.86s-.04-.05-.07-.06c.06-.04.07-.16.17-.18.07.13-.09.17-.1.25h0Z"/>
  <path class="st3" d="M27.71,64.1c-.07.07-.16.13-.24.18,0-.06.01-.13.06-.15.06-.04.13-.03.18-.02h0Z"/>
  <path class="st6" d="M79.27,66.43v.06c-.07.01-.18-.1-.25-.12.1-.05.17.03.25.06Z"/>
  <path class="st20" d="M77.59,12.78c-.12.03-.21.12-.31.01.1-.02.14-.06.19-.09.02.05.07.07.12.08Z"/>
  <path class="st12" d="M95.09,60.74c-.1-.09-.03-.24-.04-.36.02.12.1.23.04.36Z"/>
  <path class="st24" d="M76.34,60.8s-.05.04-.06.06l-.12-.17c.13-.07.13.08.18.11Z"/>
  <path class="st37" d="M28.01,63.92c-.08.04-.14.14-.24.12.01-.04.03-.08.05-.12,0,0,.19,0,.19,0Z"/>
  <path class="st32" d="M7.38,40.5s-.03,0-.05,0c-.04-.06-.19-.06-.13-.2.11.03.12.16.18.21h0Z"/>
  <path class="st29" d="M59.73,15.77c-.06-.02-.1-.07-.13-.12.05-.02.07-.07.08-.12,0,.07.04.16.06.24h-.01Z"/>
  <path class="st18" d="M73.09,12.84s.08-.04.11-.07c.05.03.11.03.14.11-.11.03-.19.01-.25-.04Z"/>
  <path class="st7" d="M36.9,56.99c-.13.05-.23-.02-.36-.09.11-.13.27-.05.36.09Z"/>
  <path class="st25" d="M32.13,6.74c.11.05.1.18-.03.38,0,.03-.03.11,0,.12.29.35,1.06,1.24,1.45,1.36.21.07.46-.05.61-.19l2-2.04c.22-.16.4-.34.55-.54.05,0,.11-.02.11.04,0,.02-.02.1.02.12.88.4,1.79.64,2.71.96l-2.29.39c-.66.45-1.23.62-1.86,1.22-.63.6-1.04,1.26-1.56,2.02-.22-.64-.51-1.1-1.03-1.46s-1.04-.62-1.6-.86c-.08-.03-.15-.1-.16-.16-.01-.06,0-.13.05-.19l.86-1.06c.06-.07.13-.1.19-.13v.02Z"/>
  <path d="M36.69,5.83c.03.16-.03.3-.19.4-.22.13-.36.31-.53.49l-1.72,1.75c-.3.31-.73.38-1.08.06-.41-.37-.8-.81-1.18-1.23-.09-.19.11-.4.14-.56.05-.02.09-.05.13-.08.46-.12.93-.19,1.42-.22l.66-.21.16.07.89-.36c.7-.28.86-.04,1.31-.12h0Z"/>
  <path class="st15" d="M34.49,6.3c-.95.38-1.19.3-2.24.36l1.89-1.05,2.04-1.19c-.43.69-1.24,1.32-1.69,1.89h0Z"/>
  <path class="st41" d="M45.81,12.52s.05-.03.06-.06c.06.05.14.09.19.18-.14.05-.18-.08-.25-.12Z"/>
  <path class="st25" d="M65.84,5.82c.15.2.33.38.54.54l2.01,2.05c.29.25.55.32.86.06.17-.14,1.1-1.07,1.16-1.22.01-.12.04-.22.1-.3.3.31.57.66.85,1.02.09.12-.03.25-.14.3-.58.25-1.11.52-1.62.88s-.78.81-1,1.44c-.51-.75-.94-1.42-1.55-2.01s-1.18-.77-1.87-1.22l-2.32-.4c.93-.29,1.89-.58,2.82-.99.08-.04.07-.16.17-.14h0Z"/>
  <path d="M67.77,6.17c.14-.04.3,0,.47.11l.35.1c.55.07,1.09.15,1.63.27.15,0,.22.19.29.3.11.18.04.38-.12.54l-1.03,1.04c-.34.34-.77.25-1.08-.06l-1.75-1.78c-.18-.18-.32-.35-.54-.49-.13-.09-.21-.25-.16-.38.36.09.67-.2,1.52.22.14.07.29.11.41.13h.01Z"/>
  <path class="st15" d="M70.23,6.65c-.75-.03-1.81-.02-2.46-.48-.4-.53-1.13-1.1-1.53-1.73.48.19.81.48,1.23.72l2.52,1.42c.08.04.22-.02.24.07Z"/>
  <path class="st38" d="M56.67,12.47c-.1.06-.14.2-.31.18.07-.12.16-.17.25-.25.02.03.04.05.06.07Z"/>
  <path class="st5" d="M27.78,7.85h-.2c-.09-.01.04-.17.05-.17l1.35-.56c.11-.05.21.1.25.17.05.09.1.28-.03.33-.09.03-.18-.1-.29-.12-.39.13-.78.18-1.12.36h0Z"/>
  <path class="st5" d="M74.81,7.65c.1.02.24.14.14.18s-.23,0-.3-.03c-1.42-.53-1.13-.12-1.31-.19-.14-.05-.08-.25-.03-.34.04-.07.13-.2.25-.16.44.15.84.36,1.25.54Z"/>
  <path class="st19" d="M33.77,7.84c-.31.01-.53-.29-.8-.39.53-.02.96-.13,1.45-.19-.2.22-.39.46-.65.58Z"/>
  <path class="st19" d="M69.5,7.45c-.2.19-.44.32-.71.43-.28-.21-.5-.41-.71-.66.47.12.87.18,1.42.23Z"/>
</svg>