<?xml version="1.0" encoding="UTF-8"?><svg id="Layer_1" xmlns="http://www.w3.org/2000/svg" width="16in" height="1.5311597in" viewBox="0 0 1152 110.2434998"><defs><style>.cls-1{fill:#3c3553;}.cls-2{fill:#483c61;}.cls-3{fill:#3e3a51;}.cls-4{fill:#4d4660;}.cls-5{fill:#452b66;}.cls-6{fill:#4a4260;}.cls-7{fill:#693e98;}.cls-8{fill:#403d4f;}.cls-9{fill:#171629;}.cls-10{fill:#a567ab;}.cls-11{fill:#eacde2;}.cls-12{fill:#57555a;}.cls-13{fill:#464350;}.cls-14{fill:#2d2c42;}</style></defs><g id="Layer_17"><rect width="1152" height="110.2434998"/></g><g id="Layer_16"><polygon class="cls-2" points="421.6814575 110.2434998 405.6899109 89.7397385 408.7446594 64.1570587 433.0957031 40.2248688 486.3010254 54.6667061 573.7729492 50.4099693 631.0874023 52.3818207 655.5804443 88.4385376 683.093689 110.2434998 421.6814575 110.2434998"/><path class="cls-2" d="M119.0382843,110.2434616c-8.4824219-10.1003418-16.9648438-20.2005615-25.4472656-30.3009033l3.8686523-34.0563965,56.8818359-10.5776367h9.4702148l32.925293,15.0020752,31.7114258,24.2036133c2.822998,6.0253906,5.6459961,12.0506592,8.4689941,18.0760498l.4460449,7.762207,2.8447266,9.8909912h-121.1699219Z"/><path class="cls-1" d="M85.7580566,110.2434616l5.5327148-16.3330078c.1870117-2.6037598.3740234-5.2073975.5610352-7.8111572-.8496094-4.44104-1.6994629-8.8822021-2.5490723-13.3232422-5.8659668-2.8773193-11.7321777-5.7546387-17.5981445-8.631958-10.0734863,2.0664062-20.1472168,4.1326904-30.2207031,6.1990967-4.4770508,1.8081055-8.9543457,3.6162109-13.4313965,5.4243164-5.079834-1.7220459-10.159668-3.4439697-15.239502-5.1660156L0,110.2434616h85.7580566Z"/><path class="cls-1" d="M277.7067871,110.2434616v-9.1530762l10.0808105-6.7407227,18.1533203-1.0678711,12.5471191-2.6027832,9.4101562.3337402,6.7407227,5.2056885,2.8833008,1.8018799,12.1333008,10.7451172c-.0756836.4926758-.151123.9853516-.2268066,1.4780273h-71.7219238Z"/><path class="cls-2" d="M345.6933594,98.0530319l-12.6269531-23.9802246-2.8459473-14.3594971,15.5783691-9.0108643,13.9069824-3.8227539,13.329834,10.9222412,16.3063965-1.6383057,11.4423828,6.826416v33.6634521l12.2773438,8.2116699,5.8125,5.3782959h-60.2351074c-4.3151855-4.0634766-8.6306152-8.1269531-12.9458008-12.1904297Z"/><path class="cls-2" d="M699.1036987,110.2434616h-12.3125l-5.1884766-3.5155029c1.9584961-4.2197266,3.9172363-8.4393311,5.8757324-12.6590576,4.5910645-.3295898,9.1818848-.6593018,13.7729492-.9888916,2.6057129,2.2730713,5.2114258,4.5460205,7.8171387,6.8190918-3.2866211,1.0697021-6.5734863,2.1392822-9.8601074,3.2089844l-.1047363,7.135376Z"/><polygon class="cls-1" points="700.2990723 110.2434998 699.5430908 107.4684753 701.3926392 103.1281891 709.1085205 100.7319565 724.6538696 101.8719482 735.7428589 103.6337509 743.5234375 103.1379089 746.0302734 106.930336 748.0385742 110.2434998 700.2990723 110.2434998"/><path class="cls-2" d="M751.5895996,105.4877243l13.9475098-13.1796875,7.982666-3.2341309,17.859375-13.8397217c5.5026855-2.4259033,11.0053711-4.8516846,16.5080566-7.2775879,5.5192871.9199219,11.0383301,1.8397217,16.5576172,2.7596436.5661621,10.7762451,1.1325684,21.5523682,1.6987305,32.3286133l2.5004883,7.1986084h-77.0544434v-4.7557373Z"/><polygon class="cls-1" points="978.871582 110.2434998 986.2940063 100.8779373 985.7081299 98.9399109 983.2498779 91.3207932 976.0744629 89.3940659 966.1734009 84.8745804 899.1276855 80.3826828 854.375061 87.0373459 839.7348022 100.8457642 830.6699219 110.2434998 978.871582 110.2434998"/><path class="cls-1" d="M980.5062866,110.2434616l6.2849121-9.3649902-2.5664062-9.3826904c1.0983887.3994141,2.1970215.7989502,3.2954102,1.1983643l5.9436035,1.7915039c2.4926758.6210938,4.9851074,1.2423096,7.4777832,1.8634033-.9785156,2.81604-1.9572754,5.6322021-2.935791,8.4482422-1.513916,1.8154297-3.0280762,3.6307373-4.5419922,5.446167h-12.9575195Z"/><path class="cls-2" d="M994.7938843,110.2434616l.762207-1.7042236,2.9003906-3.1669922c1.1577148-3.3415527,2.3151855-6.6831055,3.4729004-10.0246582,5.173584-.5614014,10.347168-1.1226807,15.520752-1.684082,4.7619629-1.0203857,9.5239868-2.0406494,14.2859497-3.0610352,3.7646484,1.4188232,7.5292969,2.8377686,11.2939453,4.2565918,2.1630859,2.3260498,4.326416,4.6519775,6.489502,6.9780273.4577637,2.4221191.9155273,4.8443604,1.373291,7.2664795l.8535156,1.1398926h-56.9524536Z"/><polygon class="cls-2" points="1081.6394043 110.2434998 1081.6394043 88.4559097 1093.0319824 73.9733887 1113.7553711 72.8220825 1130.1782227 64.9051514 1140.2758789 69.1445999 1152 87.5743256 1152 110.2434998 1081.6394043 110.2434998"/><polygon class="cls-10" points="1053.4279785 110.2434616 1052.5893555 109.6744843 1051.0632324 107.7080383 1050.564209 104.5088882 1054.1743164 103.1000824 1067.9665527 100.9677658 1077.8686523 105.3694382 1080.4226074 110.2434616 1053.4279785 110.2434616"/><path class="cls-4" d="M31.0160675.0000563c-2.4399414,3.4122314-4.880127,6.8243408-7.3200684,10.2365722,3.7800293,3.7529297,7.5600586,7.5057383,11.3400879,11.2586679,2.6850586.2954102,5.3703613.5908203,8.0554199.8862305,2.5541992-6.3210449,5.1081543-12.6419678,7.6623535-18.9630127C49.9237823,2.2789869,49.0937042,1.1395826,48.2636261.0000563h-17.2475586Z"/><path class="cls-4" d="M90.4721222.0000563c-2.6535645.3934326-5.3068848.7868652-7.9604492,1.1802978.4157715,1.8120117.8317871,3.6239014,1.2475586,5.4359131,1.9672852,4.145874,3.9345703,8.291626,5.9018555,12.437501,4.7661133.8050537,9.5324707,1.6102295,14.298584,2.4152832,6.6994629-1.3309326,13.3989258-2.6619873,20.0983887-3.9929199l2.2607422-7.2984619-7.4135742-6.9448242c-.3088379-1.0776367-.6179199-2.1551514-.9267578-3.2327881C117.9784698.0000572,90.4721222.0000572,90.4721222.0000563Z"/><path class="cls-4" d="M180.3432159.0001033v15.3280026c1.8464355,4.5152588,3.692627,9.0305176,5.5390625,13.5457764h5.2216797c1.9868164-7.9354248,3.9733887-15.8707275,5.9602051-23.8061523-.1408691-1.689209-.2814941-3.37854-.4223633-5.067749-5.4328613.0000004-10.8657227.0001224-16.298584.0001224Z"/><path class="cls-8" d="M197.0641632.0001033c.0847168,1.7725831.1696777,3.545288.2543945,5.3178713-1.1433105,4.9233394-2.2868652,9.8468013-3.4301758,14.7701411.3256836,1.3647461.6513672,2.7293701.9770508,4.0941162l7.7329102,6.5357666,7.1660156-9.2061768c-.7255859-7.1706543-1.4509277-14.3411865-2.1765137-21.5118408C204.0800323-.0000191,200.5719757.000103,197.0641632.0001033Z"/><path class="cls-4" d="M216.4848175.0000563l-1.3505859,3.906372,4.3046875,5.3126221c2.8378906-1.5197754,5.6760254-3.0395508,8.513916-4.5593262-.1767578-1.5532227-.3537598-3.1064453-.5305176-4.659668C227.4223175.0000563,216.4848175.0000563,216.4848175.0000563Z"/><path class="cls-8" d="M240.7899933,15.8357496c-2.6030273.9241934-5.2060547,1.8482676-7.809082,2.7724619-.8564453-4.9385986-1.7126465-9.8773193-2.5690918-14.815918-.6630859-1.2640381-1.3261719-2.5281982-1.9892578-3.7922363h14.7880859c-.3503418,2.8223877-.7009277,5.6448975-1.0512695,8.4672852-.456543,2.4561768-.9128418,4.9122314-1.3693848,7.3684072Z"/><path class="cls-4" d="M258.9262085.0000563c-1.6594238,2.1777343-3.3190918,4.3554687-4.9785156,6.5332031l2.3659668,16.6599131,8.4697266,4.2199707,7.4562988-6.1083984c-.7546387-4.7468262-1.5090332-9.4936523-2.2636719-14.2404785-.060791-2.3547363-.1218262-4.7094727-.1826172-7.064209C269.793396.0000572,258.9262085.0000572,258.9262085.0000563Z"/><path class="cls-8" d="M300.5726929.0000563c-5.3110352,3.0438232-10.6220703,6.0875244-15.9331055,9.1313476l-2.1835938,7.8499765c3.8286133,4.0612793,7.6574707,8.1225586,11.486084,12.1838379,8.9086914,1.0415039,17.817627,2.0828857,26.7263184,3.1243896,4.0029297-4.9428711,8.0061035-9.8857422,12.0090332-14.8286133.0349121-4.7687988.0695801-9.5375977.1044922-14.3063965-3.0021973-1.0515137-6.0041504-2.1030273-9.0063477-3.154541C323.7755737.0000572,300.5726929.0000572,300.5726929.0000563Z"/><polygon class="cls-8" points="362.3087769 .0000563 362.3087769 23.2524624 369.8357239 27.416605 373.0307007 27.0200195 373.0307007 .0000563 362.3087769 .0000563"/><path class="cls-8" d="M375.4367065.0000563c1.7592773,5.3815918,3.5185547,10.7631836,5.277832,16.1447763.5280762,2.5043945,1.0559082,5.008667,1.5839844,7.5130615,4.5317383,4.1972656,9.0637207,8.3945312,13.595459,12.5917969,2.7270508-1.8330078,5.4541016-3.6658936,8.1811523-5.4989014.7963867-5.0324707,1.5930176-10.0648193,2.3894043-15.09729-4.3962402-4.1231689-8.7927246-8.2462158-13.1889648-12.3693848-.8393555-1.0947266-1.6789551-2.1893311-2.5183105-3.2840576C390.7572632.0000572,375.4367065.0000572,375.4367065.0000563Z"/><path class="cls-13" d="M49.3622589-.0000187C56.2653351-.0000187,63.1686554.0001033,70.0717316.0001033c3.4379883.8658447,6.8757324,1.7315674,10.3137207,2.597412,2.2678223,4.7604978,4.5358887,9.5208738,6.8037109,14.2813718l.8630371,3.4763184-11.6052246,4.868042-16.1132812-1.590332-5.6589355-3.6848145-6.7138672.4071045-.4794922-6.449585c1.2998047-3.5109863,2.5996094-7.0220947,3.8994141-10.5330811C50.707962,2.2483945,50.0351105,1.1241268,49.3622589-.0000187Z"/><path class="cls-8" d="M22.1537628,10.1776686C24.838089,6.7850904,27.5226593,3.3926344,30.2069855.0000563H.8266144C.5509796,2.0866041.2753448,4.173274-.0002899,6.2598219v18.2824717c2.3098144.2767334,4.6193847.5534668,6.9291992.8302002,5.7702637,2.1450195,11.5405273,4.289917,17.310791,6.4349365,2.9082031-3.6279297,5.8164062-7.2557373,8.7246094-10.883667-1.9289551-2.1530762-3.8581543-4.3060303-5.7871094-6.4591064,0,0-5.0234375-4.2869873-5.0234375-4.2869883Z"/><path class="cls-4" d="M348.6430054,3.1357985c.8398438-.9786377,1.6796875-1.9573975,2.5195312-2.9360352,3.0263672.2098389,6.0527344.4195557,9.0791016.6293945l.8408203,5.6019288.5766602,7.2772217-1.9533691,11.9176035-7.2731934-.4118652-12.1101074,8.3205566-4.0366211-6.5081787,7.661377-11.5333252,1.2355957-7.3320312s3.4602051-5.0252686,3.4602051-5.0252695Z"/><path class="cls-4" d="M413.069519,4.3043776l-4.3249512,8.314209,19.4289551,18.6079111,17.8520508,3.7113037,15.9436035-2.6481934,8.236084-10.9609375c4.0979004-1.8598633,8.1960449-3.7196045,12.2939453-5.5794678-4.1357422-3.4190674-8.2714844-6.8380127-12.4072266-10.2570801l-25.6877441-2.1774902s-31.3347168.9897461-31.3347168.9897451Z"/><polygon class="cls-4" points="518.0395508 9.8770313 537.237854 3.314584 558.2824707 6.595808 570.7630615 12.3625622 583.3738403 17.4689274 582.3451538 28.4055309 556.4059448 36.3140373 538.2405396 34.9378014 523.7264404 19.8143101 515.1343994 13.2663918 518.0395508 9.8770313"/><path class="cls-4" d="M609.1952515,14.5995436l21.8920898-8.3377686h22.2553711l14.3063965,10.9256601c4.8151855,3.506958,9.6306152,7.013916,14.4458008,10.520874-.9716797,4.2250977-1.9436035,8.4501953-2.9152832,12.675293-8.1484375-.0043945-16.2971191-.008667-24.4455566-.0130615.1938477,2.4871826.3874512,4.9742432.5812988,7.4614258-9.21875-2.5356445-18.4372559-5.0714111-27.6560059-7.6070557l-16.2687988-12.6854248s-2.1953125-12.9399414-2.1953125-12.9399424Z"/><path class="cls-4" d="M705.1317749,15.8948317l17.2883301-9.6330566,22.3046875-2.9471436,19.7216797,2.9471436,15.9348145,4.84729,3.4621582,13.4001474c-5.2910156,3.9121094-10.5817871,7.8243408-15.8728027,11.7364502-10.1611328,1.326416-20.3220215,2.652832-30.4831543,3.979248-5.1062012.6176758-10.2124023,1.2354736-15.3186035,1.8531494-4.2766113-4.7928467-8.5534668-9.5855713-12.8300781-14.378418,0,0-4.2070312-11.8048096-4.2070312-11.8048105Z"/><polygon class="cls-4" points="920.6151733 37.8225784 911.619751 21.7697258 935.2503052 8.7785397 969.5489502 11.6829433 988.8991699 23.3005581 1007.401001 46.3024063 1008.9763794 59.8130608 986.467041 59.8130608 972.3630371 43.2164688 951.008667 46.3024063 935.8567505 46.3024063 920.6151733 37.8225784"/><path class="cls-4" d="M1025.8771973,24.9663658l17.4091797-18.7755127,22.6655273,2.5876465,32.5944824,13.4063721,18.2734375,12.1109619-11.9338379,8.7508545-37.0378418,10.4307861c-12.8928223,1.4042969-25.7858887,2.8084717-38.6787109,4.2127686-2.3864746-5.3448486-4.7731934-10.6895752-7.159668-16.0344238l3.8674316-16.6894531Z"/><path class="cls-8" d="M436.370575-.0000187h7.3076172c.5925293.0584717,1.1853027.1168213,1.777832.175293.9643555.2362061,1.9289551.47229,2.8933105.7084961.572998.9261475,1.145752,1.852295,1.71875,2.7784424-1.9973145-.1628418-3.994873-.3255615-5.9921875-.4884033-2.5737305.0780029-5.1477051.1561279-7.7214355.2341309-.8322754-.9418945-1.6643066-1.8839111-2.496582-2.8258057.8376465-.1940918,1.6750488-.3880615,2.5126953-.5821534Z"/><path class="cls-4" d="M459.3862-.0000019c-2.8669434,1.1048584-5.7338867,2.2097168-8.6008301,3.3145752l5.3811035.5823975c4.6921387.3503418,9.3840332.7005615,14.0761719,1.0509033,2.4243164-.2818604,4.848877-.5637207,7.2731934-.8455811,1.5737305-1.0491943,3.1477051-2.0985107,4.7214355-3.1477051l-8.605957-.6694336C468.8829956.1900616,464.1344604.0950909,459.3862-.0000019Z"/><path class="cls-4" d="M484.8173218.0001033c-1.2507324,1.4345704-2.5012207,2.8691406-3.7519531,4.3037111,1.2182617.8365479,2.4362793,1.6730957,3.654541,2.5096436,4.1782227-.4276123,8.3566895-.8553467,12.5349121-1.282959,1.0102539-1.8435059,2.0202637-3.6868896,3.0305176-5.5303955,0,0-15.4680176,0-15.4680176-.0000002Z"/><path class="cls-13" d="M501.8649292.0000563h11.9135742c-1.3757324,1.9246826-2.751709,3.8494873-4.1274414,5.7741699-2.595459,6.3566895-5.1906738,12.7135019-7.7861328,19.0701914V.0000563Z"/><path class="cls-13" d="M556.4852905.0000563h10.3408203c.4204102.505127.8408203,1.0103759,1.2612305,1.5155029l4.2907715,3.9897461,1.5507812,4.5548096-1.9382324,1.5505371-12.3979492-6.1053467-5.4433594-.7752686.7973633-2.9111328c.5129395-.6063232,1.0256348-1.2125244,1.5385742-1.8188476Z"/><path class="cls-4" d="M594.1127319-.0000019c-1.8171387,1.9350586-3.6345215,3.8702393-5.4516602,5.8052978.6547852,5.1619873,1.3095703,10.3238525,1.9643555,15.4858398,2.3220215.96521,4.6442871,1.9302979,6.9663086,2.8955078,4.5900879-5.5843506,9.1801758-11.1688232,13.7702637-16.7531738-1.3005371-2.4777832-2.6013184-4.9556885-3.9018555-7.4334717C607.460144-.0000019,594.1127319-.0000019,594.1127319-.0000019Z"/><path class="cls-8" d="M623.1224976-.0000019c-1.1174316.5349121-2.2351074,1.0697021-3.3525391,1.6046143v5.8088379l-2.5637207,1.9902344-1.3132324,2.1260986,7.6630859-3.3140869,7.9694824-2.6263428,7.4411621.0625,7.3786621-.0625,1.0629883-1.8133545L640.8370972-.0000019s-17.7145996,0-17.7145996,0Z"/><path class="cls-4" d="M642.3612671-.0000019c.9689941.7319336,1.9377441,1.4638672,2.9067383,2.1958008l2.9794922,1.1187744-.8391113,2.630249,6.2226562-.3963623,10.3098145,7.6287842-1.5769043-11.7442627c-1.9743652-.4776611-3.9484863-.9553223-5.9228516-1.4329834C656.4411011-.0000019,642.3612671-.0000019,642.3612671-.0000019Z"/><path class="cls-13" d="M682.0949097,0l1.2209473,12.0933838,5.550293,12.6322021,5.6765137,1.5563965,1.513916-13.1047363c1.083252-2.8985596,2.1662598-5.7972412,3.2495117-8.6958008V0h-17.2111816Z"/><path class="cls-4" d="M698.0563354,17.1586246c.744873-3.925293,1.4897461-7.850708,2.2346191-11.776001l6.8308105-3.2487793c1.3994141-.7113037,2.7990723-1.4224854,4.1984863-2.1337891h21.1955566l-7.3051758,3.2362061c-1.2817383.7203369-2.5634766,1.4405518-3.8452148,2.1608887-2.9936523,1.8028564-5.9870605,3.6057129-8.9807129,5.4085693l-9.7753906,5.9276123c-1.5175781.1417236-3.0354004.2835693-4.5529785.425293Z"/><path class="cls-4" d="M722.524353,5.7369947c1.1437988-.7279053,2.2878418-1.4558105,3.4316406-2.1837158,3.5595703-1.1844482,7.1191406-2.3687744,10.6787109-3.5532227h20.6203613c1.3371582,1.7457275,2.6740723,3.491333,4.0112305,5.2370605-5.4975586-.8214111-10.994873-1.6429443-16.4924316-2.4643555-7.4165039.9880371-14.8330078,1.9761963-22.2495117,2.9642334Z"/><path class="cls-13" d="M861.2504272,1.8640699l5.6433105,11.6481934-3.3544922,8.2574472-2.6953125,5.0026855-19.1906738-3.074707-5.4421387-11.4787598-7.0571289-7.5842285c1.434082-1.5449219,2.8679199-3.0897217,4.302002-4.6346436h25.9929199c.6005859.6213379,1.2009277,1.2426758,1.8015137,1.8640127Z"/><path class="cls-8" d="M906.4210815-.0000019c-1.7746582,1.4002685-3.5495605,2.800415-5.3242188,4.2006836l2.1264648,5.8734131,8.911377,3.3120117,3.0378418,3.6751709,8.1013184-9.0124512c-.6738281-2.5905762-1.3474121-5.1811523-2.0212402-7.7717285-.2172852-.0924072-.4348145-.1846924-.6520996-.2770996C920.6005249-.0000019,906.4210815-.0000019,906.4210815-.0000019Z"/><path class="cls-4" d="M933.0050659.0001033c-1.3718262,1.9436036-2.7436523,3.8870849-4.1154785,5.8306887-.1459961,2.1196289-.2919922,4.2391353-.4379883,6.3587642,2.1975098-1.2501221,4.3952637-2.5001221,6.5927734-3.7502441,1.4277344.1447754,2.8554688.2894287,4.2832031.4342041.7434082-1.3093262,1.4868164-2.6185303,2.2302246-3.9278564.130127-1.1879883.2600098-2.3758545.3901367-3.5638428-.8825684-.4605713-1.7648926-.9211426-2.6474609-1.3817139,0,0-6.2954102,0-6.2954102.0000003Z"/><path class="cls-8" d="M953.6498413,1.6047176c1.2980957,2.7607423,2.5961914,5.5216066,3.8942871,8.2823483,1.1103516-1.8322754,2.2207031-3.6644287,3.3310547-5.4967041-.1166992-1.4633789-.2333984-2.9268799-.3500977-4.3902588h-6.4753418c-.1333008.5349121-.2666016,1.0697021-.3999023,1.6046146Z"/><path class="cls-4" d="M975.6161499.0000563c.3808594,1.8685302.7614746,3.7369384,1.142334,5.6054687,1.7365723.3210449,3.4733887.6419678,5.2099609.9630127,2.5803223-.3276367,5.1604004-.6552734,7.7407227-.9829102l5.5290527-1.8530273c1.4602051-1.2441406,2.9204102-2.4884033,4.3806152-3.7325439,0,0-24.0026855,0-24.0026855,0Z"/><path class="cls-4" d="M1010.244812.0000563c-.331543.918335-.6633301,1.8366699-.994873,2.7550048l-1.848877,9.7409668,2.1606445,2.1303711,4.5805664,2.5565195,1.7402344-4.8288574c.559082-4.118042,1.1179199-8.2359619,1.677002-12.3540039,0,0-7.3146973,0-7.3146973-.0000009Z"/><path class="cls-13" d="M1022.2269897.0000563c-1.2993164,2.508667-2.5983887,5.0172119-3.8977051,7.5258789v10.6440439l2.6611328,5.0725098,3.9915161-4.4072266,4.4904785-2.1621094,1.7463379-10.4822998c.1723633-2.0635986.3449707-4.1271973.517334-6.1907959h-9.5090332l-.000061-.0000009Z"/><path class="cls-8" d="M1069.684082.0000563c-1.3425293,1.078125-2.6853027,2.15625-4.027832,3.234375l7.9016113,5.9945068,3.723877-4.904541c.3598633-1.4414062.7199707-2.8829346,1.079834-4.3243408,0,0-8.6774902,0-8.6774902,0Z"/><path class="cls-8" d="M1121.3295898.0000563c-.8896484,2.0426025-1.7790527,4.085083-2.6687012,6.1276855-.2453613,3.6850586-.4907227,7.3701172-.736084,11.0551767l6.4248047,7.2987061c5.7763672-.9434814,11.5527344-1.8868408,17.3291016-2.8303223-1.3535156-7.217041-2.7072754-14.4342041-4.060791-21.6512451,0,0-16.2883301,0-16.2883301-.0000009Z"/><path class="cls-4" d="M1138.6325684.0000563c.3312988,2.0635986.6625977,4.1271972.9938965,6.1907959.939209,5.09021,1.878418,10.1802988,2.817627,15.2705088.1611328.6439209.3220215,1.2878418.4831543,1.9317627l9.0727539-1.0427246V.0000563h-13.3674316Z"/><path class="cls-8" d="M25.9042511,30.7202702c2.4702148-3.0906982,4.9404297-6.1815186,7.4106445-9.2722168,2.0864258.5584717,4.1728516,1.1170654,6.2592773,1.6755371l13.984375-1.0440674,14.208252,8.6407471,3.2956543,8.234251-22.7988281,13.7436523-19.7980957-4.3492432-4.548584-9.5683594s1.9873047-8.0603027,1.9873047-8.0603008Z"/><path class="cls-8" d="M203.2091827,30.7155113c2.420166-3.0136719,4.840332-6.0274658,7.260498-9.0411377,4.9726562-2.1047363,9.9450684-4.2094727,14.9177246-6.314209,1.9611816-.3804932,3.9226074-.7611084,5.8837891-1.1416016l1.0627441,5.2214355c3.8813477-1.3092041,7.7629395-2.6184082,11.6442871-3.9276123,2.2480469,2.7067871,4.4958496,5.4136963,6.7438965,8.1204834,2.3793945,3.460083,4.7590332,6.920166,7.1384125,10.380249-10.2770996,5.6356201-20.5544434,11.2712402-30.831543,16.9068604-7.9399414-6.7348633-15.8798828-13.4696045-23.8198242-20.2044678h.0000153Z"/><path class="cls-8" d="M483.5744019,15.9581861c-4.1774902-3.4487305-8.3547363-6.8974609-12.5322266-10.3461914l9.2775879-1.4564209,9.029541,5.9013672,1.8037109,13.2048349,4.8205566,13.9276123-8.6623535,14.7769775-9.6816406-14.4372559c1.3581543-6.8897705,2.7160645-13.7796631,4.0742188-20.6694336.6235352-.3005371,1.2470703-.6009521,1.8706055-.9014902Z"/><path class="cls-8" d="M656.4411011,59.8477135c-.1813965-6.0401611-.362793-12.0804443-.5441895-18.1206055,8.4626465-.2260742,16.9255371-.4521484,25.3881836-.6782227,2.6359863-1.5782471,5.2719727-3.1566162,7.907959-4.7348633h15.9387207l9.9248047,7.2454834,4.3728027,6.4608154,7.4943848,6.7192383-1.8088379,5.9438477-28.4711914-1.0336914-16.715332-7.3253174c-5.7817383.6136475-11.5637207,1.227417-17.345459,1.8410645-2.0473633,1.227417-4.0944824,2.454834-6.1418457,3.682251Z"/><path class="cls-8" d="M773.7318726,33.4760094c4.1359863-2.7655029,8.2717285-5.5308838,12.4077148-8.2963867l15.5200195-.3936768,11.7312012,8.4920654-20.1369629,10.7564697c-5.7976074.4450684-11.5952148.8902588-17.3928223,1.3353271l-2.1291504-11.8937988Z"/><path class="cls-8" d="M929.3497925,43.3906822c2.2121582,1.1875,4.4240723,2.3751221,6.6362305,3.5626221,5.9499512.298584,11.9001465.5970459,17.8500977.8956299l15.1552734,1.487915,8.2404785,10.4761963-26.9023438,9.8966103h-17.3244629c-3.8029785-4.9077148-7.605957-9.8155518-11.4089355-14.7232666.1630859-3.050293.3259277-6.1004639.4890137-9.1507568,2.4216309-.8149414,4.8430176-1.6300049,7.2646484-2.4449501Z"/><path class="cls-8" d="M1010.8043823,64.148735c2.8115234-1.4451904,5.6228027-2.8905029,8.4343262-4.3356934,6.3396606,1.5897217,12.6795044,3.1794434,19.019104,4.769165,2.190918,3.053833,4.3820801,6.1075439,6.572998,9.161377-5.7792969,2.6535645-11.5583496,5.307251-17.3376465,7.9608154-5.0307617-1.7987061-10.0612793-3.5974121-15.092041-5.3961182-.5322266-4.0532227-1.0644531-8.1063232-1.5966797-12.1595459h-.000061Z"/><polygon class="cls-8" points="1066.925293 67.6684494 1076.2626953 80.3826828 1089.5079346 64.9051514 1111.1505127 64.9051514 1125.2867432 43.6876717 1118.5074463 38.5717697 1101.5344238 46.3609886 1067.8481445 56.2797279 1061.9532471 64.9051514 1066.925293 67.6684494"/><path class="cls-6" d="M3.5167999,42.4691734c4.2490234.1016846,8.498291.2032471,12.7473145.3049316,3.3232422,2.0543213,6.6464844,4.1087646,9.9697266,6.1630859,2.416748.6646729,4.8337402,1.3292236,7.2504883,1.9938965-2.2658691,7.6131592-4.5314941,15.2264442-6.7973633,22.8396034-2.0844727-.604248-4.1691895-1.208374-6.2536621-1.8126221-3.3232422-.8156738-6.6464844-1.6314697-9.9697266-2.4471436-2.9909668-1.9637451-5.9816895-3.9273682-8.9726562-5.8911133.0571289-4.7318115.1140137-9.463623.1711426-14.1954346,0,0,1.8547363-6.9552002,1.8547363-6.955204Z"/><path class="cls-6" d="M91.5641632,48.0249596c1.2355957-1.3243408,2.4711914-2.6485596,3.7067871-3.9729004l35.8793945-6.663208,1.670166-6.6685791c-3.340332-4.0177002-6.6809082-8.0352783-10.0212402-12.0529785-5.5712891,1.0949707-11.1428223,2.1899414-16.7141113,3.2849121-6.6838379,5.7543945-13.3676758,11.508667-20.0515137,17.2630615.2875977,5.7003174.5754395,11.4006348.8630371,17.1009521,1.5559082-2.7637939,3.1115723-5.5274658,4.6674805-8.2912598Z"/><path class="cls-6" d="M164.0070343,34.5111656c3.2824707-3.1717529,6.5646973-6.3435059,9.847168-9.5152588,4.6469727,2.046875,9.2937012,4.09375,13.9406738,6.140625,8.3701172,5.2476807,16.7402344,10.4954834,25.1103516,15.7431641,7.2229004,7.8706055,14.4455566,15.741333,21.668457,23.6119423-1.0793457,1.8101807-2.1589355,3.6202393-3.2382812,5.4304199-10.677002-8.762085-21.3540039-17.5240479-32.0310059-26.2861328-11.7658691-5.041626-23.5314941-10.0831299-35.2973633-15.1247597Z"/><path class="cls-6" d="M263.2116089,44.6996422l9.0280762-15.8258057,10.2163086-4.0294189,15.2189941,8.6901855,16.0061035,5.666748,6.145752,20.8934326,5.5739746,14.0756874-24.828125,10.1168213-10.6689453,5.2783203-22.6530762-16.7896729c-3.1435547-5.1697998-6.2868652-10.3395996-9.4304199-15.5093994,1.7971191-4.1889648,3.5942383-8.3779297,5.3913574-12.5668983Z"/><polygon class="cls-6" points="511.5058594 49.4987373 526.9533081 29.3995171 536.9841309 38.0260201 570.4870605 37.8254051 598.9746094 47.4549904 573.928894 48.2574577 515.1343994 51.9663925 511.5058594 49.4987373"/><path class="cls-6" d="M663.1769409,57.0687828l16.3825684-1.9470215,16.0270996,9.1875038,25.1691895,6.37854,15.8789062,16.8944092-12.8439941,10.6883545h-15.1118164l-7.0585938-5.8613281c-4.9033203.2059326-9.8066406.4119873-14.7099609.6179199-2.3991699,4.2930908-4.7980957,8.5861816-7.1972656,12.8792725-6.2590332-5.0737305-12.5183105-10.1474609-18.7773438-15.2211914l-9.6540527-26.8931885s11.8952637-6.7232666,11.8952637-6.7232704Z"/><polygon class="cls-6" points="834.9450073 28.273241 823.5803833 38.5717697 828.5271606 64.9051514 829.8994141 105.4877243 852.1196289 82.972229 868.4276733 80.3826828 868.4276733 52.3778801 848.0238647 29.2003422 834.9450073 28.273241"/><path class="cls-6" d="M874.8981323,42.6826744c-2.3688965-4.7995605-4.737793-9.5992432-7.1066895-14.3988037,7.4919434-3.7003174,14.9836426-7.4006348,22.4755859-11.1009521l14.5036621,3.5446777c6.7189941,7.8859863,13.4377441,15.7718506,20.1567383,23.6578369l-45.5368652,11.9875488c-1.4975586-4.5634766-2.994873-9.1268311-4.4924316-13.6903076Z"/><path class="cls-6" d="M963.8161011,82.7767868c8.0974121,3.1623535,16.1950684,6.324707,24.2924805,9.4870605,3.8366699,1.0062256,7.673584,2.0123291,11.5102539,3.0185547,9.8840332-1.6275635,19.7678223-3.255249,29.6519165-4.8828125-.7839355-2.6367188-1.567627-5.2735596-2.3515625-7.9102783-7.0048828-2.5067139-14.0097656-5.0135498-21.0146484-7.5202637l-11.1201172-12.1240234c-7.0949707-.2230225-14.1901855-.4460449-21.2851562-.6690674-7.3249512,2.706543-14.6501465,5.413208-21.9750977,8.119751,4.0974121,4.1604004,8.1945801,8.3206787,12.2919922,12.4810791h-.000061Z"/><polygon class="cls-6" points="1142.6517334 67.462822 1129.8017578 62.8450356 1126.8450928 45.6556015 1130.9431152 40.3867416 1124.3570557 26.1900921 1140.017334 23.3931236 1145.3162842 27.3609486 1149.237793 27.8000202 1152 38.5717697 1150.2623291 78.878685 1142.6517334 67.462822"/><path class="cls-6" d="M358.960144,32.6660728c.5263672,4.3431396,1.0529785,8.6862793,1.5793457,13.0294189,4.1638184,3.3897705,8.3273926,6.7796631,12.4912109,10.1694336l17.7265625-1.5090332c2.9880371-4.581543,5.9758301-9.163208,8.9638672-13.744751-6.081543-5.5623779-12.1633301-11.1247559-18.244873-16.6871338l-6.0361328,5.5330811-7.1677246-1.3961182c-1.5012207-1.00354-3.0021973-2.0072021-4.503418-3.0107422-.8527832-.5004883-1.7053223-1.0009766-2.5581055-1.5014648-.7502441,3.0390625-1.5004883,6.0782471-2.2507324,9.1173096Z"/><path class="cls-3" d="M74.5258331,63.7421227l-9.6560059-.97229-36.6625977,10.0061073,6.7893066-21.855957,14.333252,3.5517578,23.6872559-14.9365234c1.9609375-3.6064453,3.9216309-7.2128906,5.8825684-10.8193359,2.2141113,3.5461426,4.4282227,7.0924072,6.642334,10.6385498.3623047,10.2694092.7243652,20.5389404,1.0866699,30.8083496,0,0-12.1027832-6.4206543-12.1027832-6.4206581Z"/><path class="cls-3" d="M-.0000458,26.0377769c2.4980469.1456299,4.9960938.2911377,7.4941406.4367676,5.5817871,2.1401367,11.1638184,4.2803955,16.7456055,6.4205322-.6645508,2.1751709-1.3293457,4.3504639-1.9938965,6.5256348,1.6313477,2.9908447,3.2629395,5.9818115,4.8942871,8.9726562l-10.8010254-6.9726562c-5.4462891.0471191-10.8928223.0942383-16.3391113.1413574C-.0000458,41.5620689-.0000458,26.0377769-.0000458,26.0377769Z"/><path class="cls-3" d="M263.7372437,35.3085289l-4.1000977-1.2270508-32.2148438,18.4508057c1.0322266,3.7894287,2.0646973,7.5787354,3.0969238,11.3681641,1.9106445,2.4201698,3.8212891,4.8404579,5.7319336,7.2606239-1.7055664,2.055542-3.4111328,4.1109619-5.1166992,6.1665039l6.6350098,15.1131592c2.1184082.2590332,4.2368164.5179443,6.3552246.7769775l25.1030273,2.8806152c2.2158203,1.4018555,4.4313965,2.8037109,6.6472168,4.2055664,3.3808594-3.8723145,6.7614746-7.744751,10.142334-11.6170654-6.5109863-4.9688721-13.0219727-9.9378662-19.532959-14.9067383-3.4375-5.5250244-6.8747559-11.0500488-10.3122559-16.5750732l8.3640137-18.3400879s-.7988281-3.5563965-.7988281-3.5564003Z"/><path class="cls-3" d="M293.2082214,89.5656052l34.902832-14.7275391,5.215332,5.0147705,12.5368652,22.7670898-13.5397949-10.5310059c-1.1806641-.5471191-2.361084-1.0942383-3.541748-1.6413574-3.8476562-.1193848-7.6955566-.2387695-11.5432129-.3581543-3.7758789.8863525-7.552002,1.7728271-11.3278809,2.6591797-6.0395508.1812744-12.0788574.3625488-18.1184082.5438232l-10.9299316,7.5759277,9.4213867-9.7612305.7282715-1.5415039,2.8166504,1.1134033,3.3796387-1.1134033Z"/><polygon class="cls-3" points="330.220459 74.2182083 326.6849976 72.828804 318.4207764 50.3845634 316.1763306 40.6587257 330.220459 39.2693176 327.5053406 55.8648758 330.220459 74.2182083"/><path class="cls-3" d="M727.5534058,56.8141441c-.6984863,2.9224854-1.3972168,5.8449707-2.0957031,8.7674599,5.6396484,6.9266357,11.2790527,13.8532715,16.9187012,20.7799072l25.2180176-9.6047363,16.2490234-12.1774902c5.0065918,2.0870361,10.0134277,4.1740723,15.0200195,6.2611084,3.5280762-1.4628906,7.0563965-2.9257812,10.5844727-4.3886719-.5158691-6.2269287-1.0319824-12.4537354-1.5478516-18.6806641l-5.1455078-3.7365723-27.7851562,2.2679443-1.6293945-9.9884033-51.8828125,6.9976807c.1079102,2.769165.2160645,5.5384521.3239746,8.3076172,1.9240723,1.7315674,3.8481445,3.4632568,5.7722168,5.1948204Z"/><polygon class="cls-3" points="870.8374634 80.3826828 872.1192017 54.0569992 879.8094482 57.6498375 920.6005249 46.3609886 921.2389526 52.1089211 920.6005249 55.1217499 933.0050659 71.9730911 951.1158447 71.742485 961.8392944 83.6189728 898.4210815 78.6608276 855.4120483 85.8097839 856.6310425 83.5343857 870.8374634 80.3826828"/><path class="cls-3" d="M1010.6681519,17.5138493c-5.4431152,3.4832764-10.8859863,6.9664307-16.3291016,10.449707,4.675293,6.0530987,9.3505859,12.1060772,14.0258789,18.1591778.862793,5.5740967,1.7258301,11.1481934,2.588623,16.72229,2.4782715-1.1865234,4.9567871-2.3731689,7.4350586-3.5596924,3.3149414-.416626,6.6299438-.833374,9.9448853-1.25l-7.0817871-16.0865479,4.4289551-22.713501c-1.0275879,1.2811279-2.0549316,2.5621338-3.0825195,3.8432617-.6689453.3798828-1.3381348.7597656-2.0070801,1.1396484-1.010498-2.0212402-2.0209961-4.0426025-3.0314941-6.0638428l-6.8913574-.6405029-.000061.0000019Z"/><path class="cls-3" d="M396.5768433,36.3147545l4.0949707,4.3681641-7.2856445,14.4388428,9.4284668,7.2955322-.1428223,25.7144814,6.0727539-26.7144775,24.2131348-24.0002441.5715332-3.8824463-8.7143555-2.260376-17.1430664-15.8572998-2.8374023,15.9942627c-2.7524414,1.6345215-5.505127,3.269043-8.2575684,4.9035606Z"/><path class="cls-3" d="M459.7487183,46.6903648c.7739258-3.9174805,1.5476074-7.835083,2.3215332-11.7525635,2.8659668-4.3909912,5.7316895-8.7819824,8.5976562-13.1729736,3.2966309-.7050781,6.5935059-1.4101562,9.8901367-2.1152344-1.2578125,5.9645996-2.5153809,11.9291992-3.7731934,17.8937988,3.1633301,5.3548584,6.3269043,10.7095947,9.4902344,16.0644531-8.842041-2.3057861-17.6843262-4.6116943-26.5263672-6.9174805Z"/><polygon class="cls-3" points="571.5596924 37.252697 601.8430176 46.8841591 601.8430176 50.0946465 633.1572876 51.3509254 633.1572876 43.8132591 626.2775269 40.6829529 609.1951904 28.7379284 589.565979 21.6235504 583.3738403 28.8457222 557.7797241 36.8473053 571.5596924 37.252697"/><path class="cls-6" d="M-.0002899,63.7421227c3.6328125,2.7508583,7.2653808,5.5017128,10.8981933,8.2525673C7.2650909,83.2471237,3.6325226,94.4995651-.0002899,105.7520065-.0002899,105.7520065-.0002899,63.7421188-.0002899,63.7421227Z"/><path class="cls-6" d="M91.801712,48.3870201l-5.1730957,9.5540771,1.1120605,13.21558,2.1577148.7415771,1.9533691,9.2374268,5.4602051-36.8829346c-.6269531.0056152-1.2536621.0113525-1.8806152.0169678-1.2099609,1.3724365-2.4196777,2.744873-3.6296387,4.1173058Z"/><path class="cls-6" d="M190.7382355,31.8543034l3.6420898-7.0098877,31.6687012,26.0755596,3.0876465,12.2071533c-5.1689453-5.5611572-10.3376465-11.1221924-15.5065918-16.6833496-7.6306152-4.8631592-15.2612305-9.7263184-22.8918457-14.5894756Z"/><path class="cls-6" d="M736.6347046,88.9744186c-3.878418,3.2260742-7.7565918,6.4520264-11.6350098,9.6781006,3.3549805,1.4665527,6.7102051,2.9331055,10.0651855,4.3996582,2.9733887-.2410889,5.9465332-.4821777,8.9199219-.7232666,1.3059082,1.9688721,2.6115723,3.9376221,3.9174805,5.9064941l16.6647949-16.3436279,8.5505371-4.0238037,16.9992676-13.2785645,7.2441406-3.520874-13.6809082-5.230957-15.9946289,12.3731689c-10.3503418,3.5878906-20.7004395,7.1757812-31.0507812,10.7636719Z"/><path class="cls-6" d="M1030.1662598,89.8682175c-.6108398-2.6000977-1.2219238-5.2003174-1.8327637-7.800415l23.1047363-9.8227539,17.4562988,5.0235596,8.2717285,6.0916748,2.4558105,21.1966553-9.3059082-4.5236816-19.4880371,1.9202881-7.0078125-8.2900391c-4.5512695-1.2651367-9.1027832-2.5301514-13.6540527-3.7952881Z"/><path class="cls-6" d="M328.9464722,59.7784996c5.5754395-3.3192139,11.1506348-6.6383057,16.7260742-9.9575195,4.505127-1.4370117,9.0102539-2.8739014,13.5153809-4.3109131l-1.1730957-13.220459c.6357422-2.0583496,1.2717285-4.1165771,1.9074707-6.1749268-2.407959-.1346436-4.815918-.269165-7.223877-.4038086-4.2924805,2.9694824-8.5847168,5.9388428-12.8771973,8.9083252-2.8840332.7719727-5.7683105,1.5438232-8.6523438,2.3157959-.857666,6.3099365-1.715332,12.6199951-2.572998,18.9299316.1169434,1.3045654.2336426,2.6090088.3505859,3.9135742Z"/><path class="cls-6" d="M132.1750031,38.4349937l1.2868652-7.5765381-3.6159668-4.6343994c4.1931152-3.1574707,8.3859863-6.3149414,12.5791016-9.4724121.4372559,2.2647705.8742676,4.5294189,1.3115234,6.7941895l8.3847656,7.7416992,2.2441406,3.2412109-22.1904297,3.90625Z"/><path class="cls-6" d="M434.8773804,33.9415855l-1.3481445,5.1625977,25.3908691,6.864502,2.3852539-12.0270996c-5.1970215.6278076-10.3942871,1.2554932-15.5913086,1.8833008-3.6123047-.6278076-7.2243652-1.2554932-10.8366699-1.8833008Z"/><polygon class="cls-6" points="498.2643433 36.3140373 505.0360718 22.8055229 516.2709961 19.1261921 522.1193237 26.2820606 520.4263916 33.9415855 507.1907349 51.9663925 488.8762512 53.1953468 498.2643433 36.3140373"/><path class="cls-6" d="M633.5485229,54.4257164l.4899902-11.5162354c7.189209,1.9638672,14.378418,3.9276123,21.567627,5.8914795-.1105957,3.916748-.2214355,7.8336182-.3320312,11.7503662-1.9572754,1.1851807-3.9147949,2.3702393-5.8720703,3.5554237l8.7443848,23.7132568c-8.1992188-11.1314697-16.3986816-22.2628174-24.5979004-33.3942909Z"/><polygon class="cls-6" points="697.5980835 62.6834068 725.4769897 63.7106285 724.0831909 65.8375778 740.2877808 85.8395309 737.8222046 87.3189011 721.7955933 69.6281052 696.4613647 63.895565 697.5980835 62.6834068"/><path class="cls-6" d="M803.3685913,43.2553062c1.9177246,1.3393555,3.8356934,2.678833,5.753418,4.0181885.4313965,6.7685547.8625488,13.5369873,1.2939453,20.3055458,5.5024414.5861816,11.0046387,1.1724854,16.5070801,1.758667.1384277-2.1574707.2766113-4.3148193.4150391-6.47229l-6.0126953-27.2454834c-2.0966797-.809082-4.1931152-1.6182861-6.2897949-2.4273682-6.842041,3.6920166-13.684082,7.3839111-20.526123,11.0759277,2.953125-.3377686,5.9060059-.675415,8.8591309-1.0131874Z"/><path class="cls-6" d="M1020.2338257,59.5850182c3.1386719-.4279785,6.2776489-.8560791,9.4163208-1.2840576,12.9787598-1.4576416,25.9577637-2.9152832,38.9365234-4.3729248-2.6230469,3.8122559-5.2460938,7.6245117-7.8691406,11.4367714,1.9553223,1.0197754,3.9104004,2.0396729,5.8657227,3.0594482,2.4802246,3.6281738,4.9602051,7.2563477,7.4404297,10.8845215-1.7070312-.8498535-3.4143066-1.6998291-5.1213379-2.5496826-5.8574219-1.7930908-11.7145996-3.5861816-17.5720215-5.3792725-1.8530273.8203125-3.7062988,1.6405029-5.5593262,2.4608154-2.3391113-3.2810059-4.6784668-6.5618896-7.0175781-9.8428955-6.1730957-1.4709473-12.3464355-2.9417725-18.5195312-4.4127197l-.000061-.0000038Z"/><path class="cls-8" d="M760.0993042-.0000019c1.4489746,1.6594238,2.8981934,3.3187256,4.347168,4.9781494l16.6525879,4.5015869,4.1462402,15.3061523c5.4829102-.3199463,10.9658203-.6400146,16.4487305-.9599609,4.0415039,2.8250732,8.0830078,5.6501465,12.1245117,8.4752216,7.0603027-6.3050537,14.1208496-12.6099854,21.1811523-18.9150391l-7.6616211-7.6491699L825.5565796-.0000019h-65.4572754Z"/><path class="cls-8" d="M142.6149445,3.6976881c1.9567871-1.2325439,3.9138184-2.4650879,5.8706055-3.6976318h13.3125c.7814941,1.2325439,1.5632324,2.4650879,2.3447266,3.6976318,2.3728027,3.3833008,4.7453613,6.7667236,7.1181641,10.1500244.4692383,3.9086924.9384766,7.8175058,1.4077148,11.7261972-3.456543,2.9996338-6.9128418,5.9991455-10.3693848,8.9987793-2.0881348-.0592041-4.1762695-.1185303-6.2644043-.1777344-3.8959961-3.7733154-7.791748-7.5467529-11.6877441-11.3200684l-2.7973633-15.2907715s1.0651855-4.0864258,1.0651855-4.0864267Z"/><polygon class="cls-8" points="90.2883072 20.3551579 78.3954773 26.4957428 85.9552612 38.4349632 104.4859543 22.4853077 90.2883072 20.3551579"/><path class="cls-4" d="M120.7938995.0000563v3.4473877c2.0336914,2.164917,4.0673828,4.3299561,6.1010742,6.494873-.9926758,3.0273438-1.9855957,6.0548096-2.9782715,9.0821543l5.5942383,6.4573975c4.0422363-3.1047363,8.0844727-6.2093506,12.126709-9.3140869l-2.3066406-13.1556396c-1.3898926-1.0040283-2.7800293-2.0080566-4.1699219-3.012085C135.161087.0000572,120.7938995.0000572,120.7938995.0000563Z"/><polygon class="cls-8" points="163.8223877 1.6588188 167.6322937 .0000563 179.0589752 .8294376 179.0589752 13.999608 183.8658142 28.4202118 175.0864716 24.8444157 172.4360962 12.5915985 163.8223877 1.6588188"/><path class="cls-8" d="M294.4501038,29.8401451l26.5246582,3.4713135c3.1037598-3.298584,6.2072754-6.5970459,9.3110352-9.8956299l8.5605469,10.1187744-8.5605469,3.0458984v1.8602295l-14.84375,1.4537354-.4460449-1.3980713-17.0622559-5.5758057c-1.1611328-1.0268555-2.3225098-2.0535889-3.4836426-3.0804443Z"/><path class="cls-8" d="M664.7340698,14.2199688c4.2145996,3.1881104,8.4291992,6.3760986,12.6437988,9.564209-1.7514648-7.9281006-3.5031738-15.8560791-5.2546387-23.7841797h-15.3041992c1.9643555.340332,3.9284668.6807861,5.8928223,1.0211182.6740723,4.3996582,1.3481445,8.7991943,2.0222168,13.1988525Z"/><path class="cls-4" d="M244.1051788.6455641l-.8945312,8.4858398-1.8015137,6.4056396,2.6960449-1.1000977,10.5400391,12.0588388.9626465-2.5357666-3.2888184-17.4074707c1.255127-1.4777832,2.5102539-2.9554443,3.7653656-4.4332275C252.2086945,1.4128981,248.3332062.7064772,244.4574738.0000563c0,0-.3522949.6455078-.3522949.6455078Z"/><path class="cls-4" d="M326.6849976-.0000019c2.1086426.9522705,4.2175293,1.9044189,6.3261719,2.8566894l1.0576172,14.6121826-3.1279297,5.4073486,3.6091309,3.8635254,8.3410645-11.8839111.802002-7.6994629,3.2885742-4.1706543c.4206543-.9952393.8415527-1.9904785,1.262207-2.9857178C348.2438354-.0000019,326.6849976-.0000019,326.6849976-.0000019Z"/><path class="cls-4" d="M864.3146362,6.6080885c1.9313965,3.484375,3.8630371,6.9688721,5.7944336,10.453248,6.4223633-.2852783,12.8444824-.5706787,19.2668457-.855957,5.1386719,1.3634033,10.2775879,2.7266846,15.4162598,4.0900879,2.3972168-2.0675049,4.7941895-4.1350098,7.1914062-6.2025146-3.1013184-1.2435303-6.2023926-2.4869385-9.3037109-3.7304688-.7490234-2.0825195-1.498291-4.164917-2.2473145-6.2474365,1.378418-1.1535645,2.7565918-2.307251,4.1350098-3.4608154-5.6462402-.2180176-11.2927246-.4361572-16.9389648-.6541748h-26.0583496c.9147949,2.2026367,1.8295898,4.4053955,2.7443848,6.6080313Z"/><path class="cls-4" d="M959.2213745,9.2150221l2.0795898-4.8276367L961.5980835.0000563c4.3615723.2835693,8.7229004.5670166,13.0844727.8505859.395752,1.5841064.7912598,3.168335,1.1870117,4.7524414l3.8100586,2.0266113c2.520752-.265625,5.0415039-.5313721,7.5622559-.7969971l3.6210938,11.7681894-1.6408691,4.0170898-17.3696289-10.7498779-1.9802246-.9052734-11.3720703-.5091553s.7211914-1.2386475.7211914-1.2386484Z"/><polygon class="cls-4" points="815.5602417 31.5138798 824.2214355 36.8753586 839.9085693 22.7024651 836.0321655 13.3862257 815.5602417 31.5138798"/><path class="cls-4" d="M686.7538452,24.6841393l9.3562012,3.1187744.3200684-9.4362793,7.8366699-1.2080078,4.3981934,11.9237061-2.5588379,6.0776367-17.2731934.4797363c-2.6787109,1.5812988-5.357666,3.1625977-8.036377,4.7438965.765625-3.9683838,1.5314941-7.9368896,2.2971191-11.9052734l3.6601562-3.7941895Z"/><polygon class="cls-6" points="1080.5621338 86.9306183 1092.7332764 73.0050812 1112.579834 71.250679 1128.0405273 63.7944832 1125.8133545 46.5018196 1124.3570557 46.5018196 1112.1234131 65.3665466 1090.114502 65.7595596 1077.1450195 80.9561462 1078.2585449 83.8382568 1079.9616699 102.2444611 1080.5621338 86.9306183"/><path class="cls-6" d="M993.6820679,60.3919029l12.5097656,14.0786171c1.6723633.5931396,3.3444824,1.1864014,5.0168457,1.779541l-.9638672-11.0251465c-.3132324-1.6175537-.6264648-3.2349854-.9396973-4.8525391-5.2077637.0064697-10.4152832.0130615-15.6230469.0195274Z"/><polygon class="cls-6" points="59.6913605 24.8685875 68.6908722 30.1425114 72.6100616 38.6582603 78.0773468 28.9329185 77.6420441 25.787899 59.6913605 23.9492741 59.6913605 24.8685875"/><path class="cls-1" d="M88.5033722,104.8239059c1.2751465-3.4816895,2.5500488-6.963501,3.8251953-10.4451904.0527344-2.8375244.1057129-5.6749268.1584473-8.5124512.0825195-1.7746582.1652832-3.5491943.2478027-5.3238525,7.9050293,9.2333984,15.8100586,18.4669189,23.7150879,27.7003174-2.3415527.6668701-4.6828613,1.3338623-7.0244141,2.0007324h-20.7565918l-.1655273-5.4195557Z"/><path class="cls-4" d="M207.8129425.0001033c.8525391,7.0284426,1.7050781,14.0568845,2.5576172,21.0853268l10.0727539-4.6424561.6533203-5.5894775-2.3955078-1.0888672-4.331543-5.6621094L215.3856964.0001033h-7.5727539Z"/><path class="cls-4" d="M220.574173,9.2190504c3.0300293-1.5955811,6.0598145-3.1912842,9.0898438-4.7868652.4858398,3.0914307.9719238,6.1829834,1.4577637,9.2744141l-5.6166992,1.1495361-4.4084473,1.8387461.8925781-6.4743652-1.9724121-.428833s.557373-.5726318.557373-.5726328Z"/><path class="cls-8" d="M256.3378296,24.1342125c2.8466797,1.321167,5.6931152,2.642334,8.5397949,3.963501,2.3356934-1.8997803,4.6713867-3.7996826,7.0070801-5.6994629,1.4643555-1.2633057,2.9287109-2.5267334,4.3930664-3.7900391l5.4746094,5.1835938c-3.2490234,1.4886475-6.4978027,2.9771729-9.7468262,4.4658203-2.1450195,3.6705322-4.2902832,7.3411865-6.4353027,11.0117188-.3061523-1.5172119-.6120605-3.0344238-.9182129-4.5516357-1.9086914-.5454102-3.8171387-1.0908203-5.7258301-1.6362305-1.217041-1.9881592-2.4338379-3.9763184-3.6508789-5.9644775.354248-.9942627.708252-1.9885254,1.0625-2.9827881Z"/><polygon class="cls-8" points="270.7362671 .4260292 285.2316284 1.1223134 296.3088684 .7741713 296.3088684 1.755299 283.9656677 8.2117519 281.3071289 17.4533424 293.8402405 30.1130543 282.7630005 23.4158287 276.1799316 17.2001476 272.9517212 20.1118813 270.7362671 6.8191838 270.7362671 .4260292"/><path class="cls-4" d="M374.9899292.0000563c2.128418,7.2780761,4.2570801,14.5560302,6.385498,21.8341074l-5.9387207,6.5491943h-1.5200195c-.1704102-9.0821533-.3405762-18.1644287-.5109863-27.246582L374.9899292.0000563Z"/><polygon class="cls-8" points="517.0466919 15.4250412 523.3228149 20.4459286 537.8475342 35.5085907 537.4291382 37.3017616 527.088501 28.5152111 521.1112671 35.8672256 522.9641724 26.3634014 516.6881104 18.5332088 504.6140442 21.8804684 508.559021 11.0616522 517.0466919 15.4250412"/><polygon class="cls-4" points="393.3862 .6468487 409.2284546 8.9710035 406.7771606 14.6395998 393.7036438 2.8938599 393.3862 .6468487"/><path class="cls-8" d="M836.3895874,27.7510319l4.0361328-2.9650879,26.4680176,4.28125,7.4887695,14.9672832,3.8862305,11.7553711-6.541748-2.9074707-1.0917969,27.1385498-1.5498047.3616943.1413574-28.1940918c-6.967041-7.8491211-13.9338379-15.6981201-20.9008789-23.5472412-3.9787598-.2967529-7.9575195-.5935059-11.9362793-.8902569Z"/><path class="cls-6" d="M867.3075562,13.9131422c.842041,1.3466797,1.684082,2.6933603,2.526123,4.04004l19.0107422-1.1848145-21.9506836,11.5048828-5.3234863-.8955078c1.9123535-4.4881592,3.8249512-8.9764404,5.7373047-13.4646006Z"/><path class="cls-8" d="M1001.5888062.0001033c-2.5219727,1.6096192-5.0439453,3.2192382-7.565918,4.8288576-2.171875.5195312-4.3439941,1.0391846-6.5158691,1.5587158,1.279541,3.9807124,2.5588379,7.9614253,3.8383789,11.9421382-.6362305,1.6281738-1.2722168,3.2564697-1.9084473,4.8846436,1.3164062,1.5933838,2.6325684,3.1867676,3.9489746,4.7801514,6.168457-3.8477783,12.3371582-7.6956787,18.5056152-11.543457-.8056641-.4689941-1.6113281-.9378662-2.4169922-1.4068604-.8537598-.649292-1.7072754-1.298584-2.5610352-1.947876.3813477-3.4587402.7626953-6.9173584,1.144043-10.3760986L1009.3131714.0001033h-7.7243652Z"/><polygon class="cls-8" points="1033.3688965 .0000563 1029.8929443 18.9225559 1042.0184326 5.3417664 1065.65625 7.6236973 1072.4530029 10.8122063 1071.4769287 8.5914869 1064.4492188 3.394042 1067.8481445 .0000563 1033.3688965 .0000563"/><path class="cls-8" d="M1100.9526367,22.881403l16.5478516-4.7901611,6.0239258,6.7497559v1.1612549l6.2773438,13.8625469-3.2290039,4.7901611-1.0695801-1.9788818-6.7390137-5.0808105-13.0498047,6.3643799,12.0871582-9.8942871c-5.6162109-3.7280273-11.232666-7.4559326-16.848877-11.1839581Z"/><polygon class="cls-8" points="1143.0778809 24.1779118 1145.3161621 26.8738365 1149.6047363 27.2521324 1151.5913086 34.583065 1151.5913086 22.8535728 1143.0778809 24.1779118"/><polygon class="cls-4" points="672.6481323 .0000563 676.0109253 14.3215895 677.8217163 23.4401207 680.0204468 24.9275455 682.8012085 27.4496403 686.6168823 22.5347233 682.3485718 11.5298414 681.2360229 .0000563 672.6481323 .0000563"/><path class="cls-3" d="M709.3925171,28.5156822c3.9008789,4.4920654,7.802002,8.9840088,11.7028809,13.4760742.0336914,2.9215088.067627,5.8430176.1013184,8.7645264-1.7243652-2.5229492-3.4489746-5.0460205-5.1733398-7.5689697-3.3249512-2.289917-6.6496582-4.5797119-9.9746094-6.8696289,1.114502-2.600708,2.229248-5.2012939,3.34375-7.802002Z"/><path class="cls-3" d="M955.1898804,47.3959312l14.4064941,1.3483887,9.7229004,12.6325684,7.0258789.4257812-14.0517578-17.5294189c-8.4558105.892334-16.911377,1.784668-25.3671875,2.677002,2.7546387.1485596,5.5090332.2971191,8.2636719.4456787Z"/><polygon class="cls-4" points="598.9746094 24.1867027 607.460144 14.1368723 610.6419067 28.0640259 598.9746094 24.1867027"/><path class="cls-4" d="M699.9996948.0000563c.0515137,1.461914.1032715,2.9238281.1547852,4.3857422,3.4350586-1.4619141,6.8703613-2.9238281,10.3054199-4.3857422,0,0-10.4602051,0-10.4602051,0Z"/><path class="cls-8" d="M941.1039429,8.7785454l-.9436035-.8861084,1.7875977-2.9489746c.0993652-1.2852783.1989746-2.5706787.2983398-3.855957-.5283203-.3625488-1.0563965-.7249756-1.5847168-1.0875244h12.6555176c.0256348.6229248.0515137,1.2459717.0771484,1.8688965,1.3269043,2.8076172,2.6540527,5.6153564,3.980957,8.4229736l-5.8798828-.6229248-7.7416992-.4089355-2.6496582-.4814453Z"/><path class="cls-4" d="M608.3065796-.0000019h11.2202148c-.170166,2.4747314-.340332,4.949585-.510498,7.4243164-.8291016.6362305-1.657959,1.2724609-2.4870605,1.9086914-.5495605.7230225-1.098877,1.4459229-1.6484375,2.1689453-2.1037598.9755859-4.2077637,1.9510498-6.3115234,2.9266357-.3696289-.539917-.739502-1.0797119-1.1091309-1.6196289,1.6516113-1.8648682,3.3034668-3.7297363,4.9550781-5.5946045l-1.6193848-1.9954834c-.829834-1.739624-1.6594238-3.479248-2.4892578-5.2188721Z"/><path class="cls-4" d="M582.8361206,28.4216862c.3574219-3.5838623.7150879-7.1676025,1.0725098-10.7514648.7419434.2281494,1.4836426.4562988,2.2255859.6844482,1.0620117-1.086792,2.1240234-2.1737061,3.1860352-3.260498.203125,1.770874.4060059,3.5418701.6091309,5.3127441-2.364502,2.6716309-4.7287598,5.3431396-7.0932617,8.0147705Z"/><path class="cls-6" d="M276.1681519,100.9725876l1.0869141.3353271v8.9355469h-6.1162109c1.6765137-3.090332,3.3527832-6.180542,5.0292969-9.270874Z"/><polygon class="cls-6" points="345.3442688 98.6759567 346.833313 103.0879517 345.8632507 104.1357956 350.1974487 108.4374924 350.1974487 109.9265366 356.8700256 109.9265366 345.3442688 98.6759567"/><polygon class="cls-6" points="401.4489136 87.6050339 402.1303101 89.1722946 404.9923706 88.3887253 404.9923706 91.0122604 420.3249207 109.4793015 413.2799683 103.7551804 401.4489136 96.4637985 401.4489136 87.6050339"/><polygon class="cls-1" points="709.0685425 98.9663162 710.2390747 100.4386215 723.7908325 101.3004761 733.3062134 102.7706909 724.2314453 98.9663162 709.0685425 98.9663162"/><polygon class="cls-1" points="750.9747925 105.9064255 748.1928101 108.6876755 748.6605835 110.2434616 751.0731812 109.5001755 750.9747925 105.9064255"/><path class="cls-1" d="M824.9066772,69.8298874h3.2578125l1.2033691,38.9222412c-.925293-1.8343506-1.8508301-3.6688232-2.776123-5.5031738-.5617676-11.1396484-1.123291-22.2794189-1.6850586-33.4190674Z"/><path class="cls-1" d="M829.9953003,110.2434616c8.1477051-8.1445312,16.2956543-16.2891846,24.4433594-24.4337158l1.4782715-2.9473877-3.472168.5844727c-7.552002,7.5289307-15.1037598,15.0578613-22.6557617,22.586792.0688477,1.4033203.1374512,2.8065186.2062988,4.2098389Z"/><polygon class="cls-8" points="768.1153564 36.5408745 773.2403564 32.7557373 773.642334 33.94487 773.8600464 35.9546776 767.947876 36.9093361 768.1153564 36.5408745"/><polygon class="cls-8" points="905.5900269 20.1925621 912.1854858 14.6248121 914.6547241 17.7997398 914.6547241 19.4507408 911.0162964 21.6052818 919.3480835 36.7780113 905.5900269 20.1925621"/><path class="cls-4" d="M915.4003296,17.5092754l8.432373-9.2025146c-.8015137-2.7689209-1.6032715-5.5378418-2.4047852-8.3067627h10.5532227c-1.1757812,1.8635254-2.3513184,3.7271729-3.5270996,5.5906982-.1350098,2.1351318-.2702637,4.2701416-.4052734,6.4052734l-12.6079102,7.1348877c-.0134277-.5405273-.0270996-1.0810547-.0405273-1.621582Z"/><path class="cls-4" d="M1018.0411987-.0000187c-.2978516,2.4956056-.5959473,4.991211-.8937988,7.4868165,1.5761719-2.4956055,3.1520996-4.9912109,4.7282715-7.4868164,0,0-3.8344727,0-3.8344727-.0000001Z"/><polygon class="cls-4" points="1014.4223022 17.5971031 1016.4171753 12.5913649 1016.9249878 7.8395338 1017.8319702 8.5914869 1017.8319702 17.5971031 1014.4223022 17.5971031"/><path class="cls-8" d="M985.5050659,59.9067955c.4428711.8358154.885498,1.6715088,1.3283691,2.5073242,2.7163086.0498047,5.4326172.0994873,8.1489258.149292l-1.9848633-2.5820312c-2.4975586-.0249023-4.994873-.0496826-7.4924316-.074585Z"/><polygon class="cls-10" points="250.5348663 99.7124557 256.7199097 95.0220261 268.513855 97.9692917 270.2506714 101.9727097 266.0221558 105.6080856 253.1757355 104.7618942 249.1684113 102.6199265 250.5348663 99.7124557"/><polygon class="cls-7" points="238.2569275 93.8079987 238.957016 100.461235 244.0326233 103.3466339 247.7080536 102.6199265 249.0740509 99.7124634 254.2713318 95.3220749 238.2569275 93.8079987"/><polygon class="cls-7" points="269.7087097 98.0784836 271.3270264 102.3224945 266.4302368 106.515358 266.2772217 110.2434616 270.653717 109.7594604 275.6116943 100.7004471 268.8786316 96.660614 269.7087097 98.0784836"/><path class="cls-7" d="M243.9618683,103.9376755c1.6386719-.1721191,3.2773438-.3443604,4.9160156-.5164795,1.375.6154785,2.75,1.230835,4.125,1.8463135,4.3793793.2825928,8.7590179.5650635,13.1384125.8476562-.0996094,1.3760986-.1994629,2.7521973-.2990723,4.1282959h-25.1550293c-.6525879-2.973877-1.3051758-5.9476318-1.9577637-8.9215088,1.7441406.8719482,3.4882812,1.7437744,5.2324219,2.6157227h.0000153Z"/><path class="cls-8" d="M591.3571167,2.3691218c-.3076172-.3205566-.6154785-.6409912-.9230957-.9615479-.6923828-.2819824-1.3845215-.5640869-2.0769043-.8460693-2.2746582.0476074-4.5490723.0952148-6.8237305.1428223-4.2961426-.2347412-8.5925293-.4696045-12.8886719-.7043457-.2346191.246582-.4692383.493042-.7038574.739624,1.7436523,1.5334474,3.4875488,3.0670167,5.2312012,4.600464.3798828,1.2885742.7600098,2.5771484,1.1398926,3.8657222.0661621,1.3712158.1320801,2.7423096.1982422,4.1135254,3.6347656,1.4316406,7.2692871,2.8632812,10.9040527,4.2949219,1.0734863-.9195557,2.1472168-1.8389893,3.2207031-2.7585449-.2312012-3.105835-.4626465-6.2115479-.6938477-9.3173828,1.1386719-1.0563965,2.2773438-2.112793,3.4160156-3.1691892Z"/><path class="cls-4" d="M70.9438019-.0000019c3.6960449.9311523,7.3920898,1.8623047,11.0881348,2.793457-.032959-.3325195-.0661621-.6650391-.0991211-.9975586l.378418-.984375C84.2670441.5410137,86.2226105.2705059,88.178421-.0000019h-17.2346191Z"/><path class="cls-13" d="M394.2094421-.0000019c.1098633.3609619.2199707.7220459.329834,1.0830078.7973633.0866699,1.5949707.1732178,2.392334.2598877l2.9553223-.5864258c-.0339355-.2521973-.0678711-.5042725-.1018066-.7564697C399.7851257-.0000019,394.2094421-.0000019,394.2094421-.0000019Z"/><path class="cls-8" d="M448.5223999.784544c.5705566.868042,1.1413574,1.7359619,1.7119141,2.6040039C453.1296082,2.2590313,456.0248413,1.1295147,458.920105-.0000019h-13.2060547c.9360352.2614746,1.8723145.5230713,2.8083496.7845459Z"/><path class="cls-8" d="M475.8058472-.0000019c-.2233887.0938721-.4467773.1876221-.670166.2814941,2.4545898.1589355,4.9089355.3179932,7.3635254.4769287l-.2619629.579834-4.1972656,2.7264404,3.5075684-.6738281c.9741211-1.0666504,1.9482422-2.1331787,2.9223633-3.1998291-.1574707-.0637207-.3149414-.1273193-.4724121-.19104C483.9974976-.0000019,475.8058472-.0000019,475.8058472-.0000019Z"/><path class="cls-8" d="M474.9381714.3333721c.204834-.0921631.4094238-.1844482.6142578-.2766113.0039062-.0189209.0080566-.0378418.0119629-.0567627h-9.515625l.4086914.0966797c1.7380371.0303955,3.4760742.0606689,5.2141113.0910645l2.0693359.0354004c.3991699.0367432.7980957.0734863,1.1972656.1102294Z"/><path class="cls-8" d="M501.6369019-.0000019h-1.0681152c-1.0009766,2.0078125-2.0019531,4.0155029-3.0029297,6.0233154-3.9494629.2889404-7.8991699.5777588-11.8486328.8666992,1.3640137,1.043335,2.7282715,2.086792,4.0922852,3.130127.7138672,4.3166504,1.4279785,8.6333008,2.1418457,12.9501953,1.6025391,4.8830566,3.2053223,9.7661152,4.8078613,14.6491718,1.4858398-2.7209473,2.9719238-5.4420166,4.4577637-8.1629639.105957-6.7918701.2116699-13.5837402.317627-20.3756104.0341797-3.0269775.0681152-6.0539551.1022949-9.0809345Z"/><path class="cls-4" d="M1107.3259277,2.1453838c-3.1152344-.7150879-6.2304688-1.4302979-9.3457031-2.1453857h-17.7368164c-.6271973,1.5384521-1.2546387,3.0770264-1.8818359,4.6154785-1.6477051,2.0983887-3.2956543,4.1967773-4.9433594,6.295166,9.0107422,3.7524414,18.0214844,7.5047607,27.0322266,11.2572021,5.4064941-1.5552979,10.8127441-3.1104736,16.2192383-4.6657715.4851074-4.1472168.970459-8.2943115,1.4555664-12.4415283.3894043-.84375.7788086-1.6873779,1.1682129-2.5311279-3.9892578-.1280518-7.9782715-.2559814-11.9675293-.3840332Z"/><path class="cls-13" d="M1098.8640137-.0000019c2.9084473.6087646,5.8171387,1.2176514,8.7255859,1.826416,4.0585938.0970459,8.1171875.1942139,12.1757812.2912598.4355469-.7059326.8710938-1.4117432,1.3066406-2.1176758C1121.0720215-.0000019,1098.8640137-.0000019,1098.8640137-.0000019Z"/><polygon class="cls-3" points="1025.3344727 24.0914745 1026.2183838 18.6569099 1029.5577393 17.1829185 1029.5577393 20.2283497 1025.3344727 24.0914745"/><polygon class="cls-3" points="920.5244751 38.1096535 929.029541 43.0065155 925.6468506 44.2732506 920.5244751 38.1096535"/><path class="cls-4" d="M275.874939-.0000019c3.6437988.2734375,7.2875977.5467529,10.9313965.8201904.7263184-.2734375,1.4526367-.5467529,2.1789551-.8201904C288.9852905-.0000019,275.874939-.0000019,275.874939-.0000019Z"/><path class="cls-4" d="M289.4701538-.0000019c.0292969.2862549.0588379.5723877.0881348.8586426,1.0734863-.0455322,2.1469727-.0909424,3.220459-.1364746.0981445-.2407227.1960449-.4814453.2941895-.722168C293.072937-.000002,289.4701538-.000002,289.4701538-.0000019Z"/><path class="cls-4" d="M543.8261108.1519756c-.5058594-.0506592-1.0119629-.1013184-1.5178223-.1519775h-27.1738281v.4893799l-4.8081055,5.3159179-.8779297,4.8138428,4.7272949,2.4986572,3.309082-4.3106689,19.5842285-6.4943848,16.1750488,2.8352051.9052734-3.6164551c.4926758-.4365234.9851074-.8729248,1.4777832-1.3094482-3.9335938-.0233154-7.8674316-.0467529-11.8010254-.0700684Z"/><path class="cls-4" d="M582.0197144-.0000019c.0371094.1818848.0744629.3638916.1115723.5457764.4587402.0070801.9177246.0140381,1.3764648.0211182l4.8984375-.1470947,2.2231445.897339,1.1750488.9855957L593.3637085-.0000019h-11.3439941Z"/><path class="cls-12" d="M249.4101105-.0000187c.2512207.2965088.5024414.5931396.7536621.8896484,2.2993164.3800049,4.5983887.7600098,6.8976898,1.1400146.2480469-.6765137.4960938-1.3531494.7441406-2.0296631h-8.3955078.0000153Z"/><path class="cls-13" d="M432.9464722.6309627c-1.199707-.2103271-2.3994141-.4206543-3.5991211-.6309814h-22.3623047c-1.2932129.4553223-2.5861816.9107666-3.8793945,1.3660889-2.2646484.0557861-4.5290527.1115723-6.7937012.1673584,4.4226074,2.2592773,8.845459,4.5185547,13.2680664,6.7778316l3.3310547-4.5772705,19.3554688-.8101807,3.4416504.1518555c-.9206543-.8149414-1.8410645-1.6297607-2.7617188-2.4447018Z"/><path class="cls-4" d="M136.2042999-.0000187c1.1787109,1.001709,2.3571777,2.0035401,3.5358887,3.0052491.3742676,1.9022217.748291,3.8044434,1.1225586,5.7066646.2290039-.9758301.4580078-1.9517822.6870117-2.9276123.2492676-.7036133.498291-1.4071045.7475586-2.1107178,1.5583496-1.2244873,3.1169434-2.4490967,4.675293-3.673584C146.9726105-.0000191,136.2042999-.0000191,136.2042999-.0000187Z"/></g><g id="Reflection"><polygon class="cls-9" points="3.4586508 107.5035858 13.5700226 72.7759933 28.2072296 77.2191849 41.472084 71.7787933 71.0624542 66.3384094 41.472084 74.2517014 29.1422138 80.5424118 15.1703129 75.9220505 3.4586508 107.5035858"/><polygon class="cls-9" points="94.947403 85.238945 113.8892365 107.5035858 102.4766388 109.5776138 110.9225464 106.4030075 94.947403 85.238945"/><polygon class="cls-9" points="289.3376465 95.0100555 307.9310303 94.332283 318.7091675 91.7697449 327.6092834 92.3413086 347.7859497 108.6718063 326.7927551 94.4642792 319.1174316 93.7294006 307.2778015 95.689064 289.3376465 95.0100555"/><polygon class="cls-9" points="701.2921753 109.387001 700.2990112 107.5835495 702.1939087 103.6298218 709.0685425 101.6617355 735.9046021 104.3234558 709.5464478 102.7706909 703.3037109 104.6702805 701.3615112 107.7916412 701.2921753 109.387001"/><polygon class="cls-9" points="855.4120483 88.4009933 899.5966187 82.8623581 965.899231 86.4567871 976.5386353 90.6024704 982.3855591 91.9202957 975.5801392 91.9202957 965.899231 88.4009933 901.0968628 85.8097839 855.4120483 88.4009933"/><polygon class="cls-9" points="983.3082275 107.7331085 987.8914185 100.8696213 985.5998535 92.7254715 999.7435913 97.0743637 986.9440918 93.9474411 988.6534424 101.4937363 983.3082275 107.7331085"/><path class="cls-7" d="M1051.6484375,107.5720749l-.416748-2.9106445c1.0234375-.4104004,2.0466309-.8209229,3.0700684-1.2313232,4.4946289-.6280518,8.9890137-1.2561035,13.4836426-1.8841553,3.119873,1.3532715,6.2397461,2.7064209,9.3596191,4.0596924l-9.3596191-3.1739502c-4.4555664.5010986-8.911377,1.0020752-13.3669434,1.5031738-.8000488.3417969-1.6000977.6837158-2.4001465,1.0255127-.123291.8706055-.246582,1.7410889-.369873,2.6116943Z"/><polygon class="cls-9" points="1093.6199951 76.0844803 1115.3771973 74.3731384 1130.5025635 67.5138397 1139.1433105 70.6905975 1150.4525146 88.4009933 1138.1785889 72.2450485 1131.0107422 70.56353 1115.3771973 76.6629028 1093.6199951 76.0844803"/><polygon class="cls-9" points="997.5799561 108.9159317 1000.0081177 105.6056137 1002.4453735 96.5239105 1017.7588501 94.8493118 1031.6580811 91.4957809 1018.3449707 96.3564453 1004.1395874 97.7798538 1000.9415894 106.4877625 997.5799561 108.9159317"/><polygon class="cls-9" points="775.0891724 89.291008 792.6337891 76.4760284 808.1148682 69.3376999 823.1359863 72.0684738 824.9066772 103.6128616 821.0153809 74.4541779 808.6450195 71.8917542 793.5613403 78.8721619 775.0891724 89.291008"/><polygon class="cls-9" points="688.3793945 95.1418533 701.0249634 93.8599625 708.0888062 99.5597763 697.7350464 102.5801849 705.0684204 98.9663162 700.8787842 95.2727356 688.3793945 95.1418533"/><path class="cls-9" d="M410.8869019,65.3647995l22.642334-22.4553223,53.9536133,14.2872314c28.8618164-1.6687012,57.723877-3.3374023,86.5856934-5.0061035,18.8039551.6488037,37.607666,1.2977295,56.4116211,1.9465332-18.8239746.1345215-37.6479492.269165-56.4719238.4036865-28.8205566,1.8544922-57.6408691,3.7091064-86.4614258,5.5635986-17.7805176-4.8458252-35.560791-9.6915283-53.3413086-14.5373535l-22.0092773,23.0756836-4.6730957,20.5970459,3.3637695-23.875Z"/><polygon class="cls-9" points="346.3309021 51.7743492 358.5327454 48.3000031 373.3844604 59.3643646 388.7270508 57.9166908 398.9641724 63.707386 399.7211304 93.591507 396.68927 64.844841 388.4168396 59.7784996 373.3844604 61.0188484 358.3034363 50.2491684 346.3309021 51.7743492"/><path class="cls-9" d="M95.8024445,79.6512985l3.6201172-32.7716064,54.9428711-10.1054688h9.4570312l31.5339355,14.7982178,32.065918,24.3496094,7.1513672,15.3557129-9.7385254-14.3814697c-10.0795898-7.9451904-20.1591797-15.8902588-30.2387695-23.8354492-10.1987305-4.815918-20.3974609-9.631958-30.5961914-14.447876-3.199707-.1478271-6.3991699-.2957764-9.598877-.4436035-17.5187988,3.6917725-35.0373535,7.3834229-52.5561523,11.0751953l-6.0427246,30.4067383Z"/><polygon class="cls-14" points="2.6595566 62.1331444 2.6595566 49.0429764 4.6632094 43.2632103 15.8374271 43.2632103 25.5474358 49.4282951 15.6833 44.6503525 6.2815442 44.8044815 4.4320188 48.8117867 2.6595566 62.1331444"/><path class="cls-14" d="M64.9413605,61.1873131l9.8139648.9458008,10.4199219,6.0816689-.7268066-27.625-.7470703,24.4493408-8.7609863-4.6860352-10.255127-.6791992-35.4516602,11.7492676c11.9025879-3.4119873,23.8051758-6.8238525,35.7077637-10.2358437Z"/><polygon class="cls-14" points="88.0522003 58.197567 88.5033722 70.0870438 91.440712 70.4105682 91.8518066 77.5280762 92.7449036 69.9125443 89.1851883 69.4245148 88.0522003 58.197567"/><polygon class="cls-14" points="1.0216215 65.2539978 9.7003784 72.7759323 1.0216215 99.0517578 7.7952852 72.3098984 1.0216215 65.2539978"/><path class="cls-14" d="M229.136673,53.2243004l1.9851074,9.2634277c2.1674805,2.8582802,4.3352051,5.7164345,6.5026855,8.5747108-1.7365723,2.1373291-3.4729004,4.2745361-5.2094727,6.4118652,2.0046387,4.6435547,4.0095215,9.2872314,6.0141602,13.9307861,10.1940918,1.3056641,20.3881683,2.6113281,30.5822601,3.9169922-9.7275391-1.6524658-19.4553223-3.3049316-29.1828613-4.9573975-1.7810059-4.2967529-3.5620117-8.5936279-5.3430176-12.8903809,1.6030273-2.1373291,3.2058105-4.2745361,4.8088379-6.4118652-2.1628418-2.8048096-4.3254395-5.6096191-6.4882812-8.4144287l-3.6694336-9.4237061.0000153-.0000038Z"/><polygon class="cls-14" points="281.7523804 26.4957428 297.2643433 34.9378014 312.4494629 40.2248688 318.5617981 59.7784996 323.1983948 73.6494141 300.1748352 83.1401215 320.8013 72.162468 317.1088867 59.7784996 310.9161072 41.313755 296.8144836 36.1655464 281.7523804 26.4957428"/><polygon class="cls-14" points="291.0385132 91.1959 327.7613525 76.1884232 332.454834 80.4446564 343.0684509 99.7124634 331.2301636 81.5876617 327.7195129 78.5615768 291.0385132 91.1959"/><polygon class="cls-14" points="346.6575623 104.3012466 350.7700806 108.3051453 350.7700806 109.4793015 355.675415 109.4793015 351.6124268 108.8997269 351.4142151 107.8096619 346.6575623 104.3012466"/><polygon class="cls-14" points="359.9223022 32.6435928 361.9572144 25.7108727 367.6697388 28.9177532 375.4367065 30.0551262 381.3754272 25.0080338 398.4242554 40.2248688 390.2493896 53.3712692 396.7182007 40.2248688 381.3754272 26.6430073 375.7478638 31.0503273 367.6697388 30.1262112 362.3087769 26.927351 359.9223022 32.6435928"/><polygon class="cls-14" points="331.9130554 37.4468689 329.5818481 55.1217499 329.5818481 58.4277458 345.8139648 48.9302292 358.1607361 45.2175636 345.2095642 47.9373055 330.2992249 56.743763 330.220459 55.1217499 331.9130554 37.4468689"/><polygon class="cls-14" points="328.9530029 39.8944664 326.6911011 56.1932335 329.5818481 73.2239075 327.033783 72.4748611 329.0426025 72.5089035 325.8761597 55.8649254 328.9530029 39.8944664"/><polygon class="cls-14" points="402.2293396 89.6774673 404.5280457 88.938591 404.5280457 90.9910202 417.9098511 106.9999237 403.7481384 91.2783585 403.912323 89.7595673 402.2293396 89.6774673"/><polygon class="cls-14" points="407.5231628 60.7279625 431.8546753 37.253231 432.374939 33.9415855 423.9865417 31.8560143 408.1200562 17.1599693 423.7914429 33.2866783 430.8793335 34.4570885 430.4884338 36.9355316 407.5231628 60.7279625"/><polygon class="cls-14" points="460.9035339 45.9686852 463.3606567 34.9378014 471.0421753 22.7325211 479.539978 20.5858269 471.5036316 23.6132164 464.1278076 35.8328552 460.9035339 45.9686852"/><polygon class="cls-14" points="434.2596436 38.2172241 435.7082214 34.3336258 445.6218872 36.6287193 460.3268127 34.9378014 445.851593 37.3017616 436.2014465 35.5693169 434.2596436 38.2172241"/><polygon class="cls-14" points="506.1180115 51.3509254 519.460022 33.277256 520.8438721 26.4776688 515.9893188 19.8143101 505.4978027 23.4087315 515.8777466 21.1462955 519.0016479 26.3102722 517.9981079 32.6155434 506.1180115 51.3509254"/><polygon class="cls-14" points="513.1708374 48.8985405 527.163208 30.997036 536.8688965 39.1929054 570.5031738 38.8497124 593.0559692 46.5132904 569.7003174 39.9477882 536.5644531 40.6829529 527.5141602 32.718853 513.1708374 48.8985405"/><path class="cls-14" d="M571.8705444,36.8956871c10.3864746,3.0419922,20.7731934,6.0839844,31.159668,9.1259766v3.4770508l29.3210449,1.0012207v-6.1539307l-6.4050293-3.0141602-16.7509766-11.932373,16.4997559,13.1883545,5.4631348,2.574585.0627441,3.736084-27.0019531-1.0665283-.0627441-2.418335c-10.7619629-2.8393555-21.5236816-5.6785889-32.2856445-8.5179443Z"/><polygon class="cls-14" points="516.923645 13.1178474 527.1984863 21.1462955 539.1700439 33.6079369 556.1774902 35.5826187 580.8884888 28.0640259 556.5554199 34.2055664 540.1060791 31.7243805 527.9758301 20.237402 516.923645 13.1178474"/><path class="cls-14" d="M635.1876831,44.253109c6.5366211,1.6971436,13.072998,3.3944092,19.6096191,5.0915527-.0131836,3.6209717-.026123,7.2419434-.0393066,10.862915-2.0595703,1.1334229-4.1193848,2.2668457-6.1789551,3.4002686l6.8537598,19.0379677c-2.6804199-6.3875732-5.3605957-12.7750244-8.0410156-19.1625977,2.2060547-1.3149414,4.4123535-2.6297607,6.6184082-3.9447021-.0788574-3.0961914-.1574707-6.1923828-.2363281-9.2885742-6.1953125-1.9989014-12.3908691-3.9979248-18.5861816-5.99683Z"/><polygon class="cls-14" points="663.6749878 57.9392471 678.7712402 56.4187622 695.3356323 65.3647385 720.0415039 71.6236038 734.486084 87.0364914 719.3898926 73.0354767 694.7307739 66.9535446 678.6625977 57.9392471 663.6749878 57.9392471"/><path class="cls-14" d="M697.7440796,62.9349937l26.5129395,1.1147499-.9230957,1.5548096,15.6230469,19.9090576-16.6599121-19.6760254.6447754-1.3109131c-8.3991699-.5305176-16.798584-1.0611572-25.1977539-1.5916786Z"/><polygon class="cls-14" points="709.5391846 29.2984009 720.5673218 42.3593178 720.5673218 49.2201118 716.0113525 42.6623039 720.2171631 47.3938866 720.0511475 42.4962845 709.5391846 29.2984009"/><polygon class="cls-14" points="742.3764038 84.5208969 767.088501 75.7984772 783.8434448 63.6243858 798.5545654 69.8298874 808.6669312 65.8375778 807.5870361 52.5842857 807.6785889 65.1439438 798.6931763 68.3845825 783.8893433 62.5661621 766.5818481 74.2242966 742.3764038 84.5208969"/><polygon class="cls-14" points="734.486084 102.0814056 726.9237671 98.9663162 737.0333252 89.832077 768.8106079 78.7366638 783.8434448 67.3749619 769.1656494 80.5140915 737.4771729 91.2522888 729.3109741 98.087059 734.486084 102.0814056"/><polygon class="cls-14" points="814.8531494 33.9154129 820.4046021 36.3140221 826.3030396 62.8523979 826.0254517 68.5525894 811.3834839 66.8804855 824.9066772 67.2241745 825.262146 63.1993637 819.2249146 37.1768951 814.8531494 33.9154129"/><polygon class="cls-14" points="825.5805054 70.4623337 827.3380737 102.9205627 826.0467529 70.9063873 827.7331543 70.4623337 825.5805054 70.4623337"/><polygon class="cls-14" points="824.9066772 39.1267014 829.7890015 66.0853882 830.6699219 102.9205627 851.1558228 81.5904312 866.8937378 78.7291794 850.4360962 79.5752029 832.5869141 97.8561935 831.1150513 64.6790848 824.9066772 39.1267014"/><polygon class="cls-14" points="872.7775879 55.1217499 879.6707764 59.130352 919.3480835 47.4502678 920.1680908 50.8011131 919.3480835 55.1217499 932.9970703 74.1612778 950.1342163 73.1081543 932.805542 75.5973587 917.4874268 55.1217499 918.9425049 50.7150497 918.5629272 49.0701981 879.5292969 60.267849 872.7775879 55.1217499"/><polygon class="cls-14" points="869.0549927 28.2732487 890.4573364 18.1250954 904.5255737 21.5036869 923.6317749 44.2732506 904.052002 22.5191879 890.4796143 19.1309166 869.0549927 28.2732487"/><polygon class="cls-14" points="818.4404907 29.5476379 835.8637695 14.3258514 839.0087891 22.2512436 835.2976685 15.8354502 818.4404907 29.5476379"/><path class="cls-14" d="M953.7531128,70.7587204l20.0844727-7.4626465,20.5014648.5234375c3.8210449,3.883667,7.642334,7.7674561,11.4633789,11.651123,6.7297363,2.4638672,13.4597168,4.9278564,20.1895142,7.3917236l1.8256836,6.4696045-2.3603516-5.3479004-20.3220215-7.3087158-10.7961426-11.2304688-20.3105469-.6240234-20.2753906,5.9378662h-.000061Z"/><polygon class="cls-14" points="951.1040649 46.8906441 969.7418213 48.3143616 979.621582 60.9121094 985.2301636 61.2351036 980.1392822 60.3723717 969.7418213 47.4515038 951.1040649 46.8906441"/><polygon class="cls-14" points="995.2957764 60.8591003 1008.7575073 60.8591003 1009.687561 64.5304718 1010.5197144 75.2019196 1008.9763794 64.8241806 1008.3168945 61.8026695 995.2957764 60.8591003"/><polygon class="cls-14" points="1044.8308105 92.4903564 1051.2316895 100.9677658 1070.7313232 98.6347351 1078.3865967 102.9660187 1076.7071533 83.4945984 1068.7023926 77.6806335 1075.6960449 83.9580307 1077.3508301 100.9677658 1070.8465576 97.7171097 1051.7463379 99.5836639 1044.8308105 92.4903564"/><polygon class="cls-14" points="1045.935791 73.2271042 1038.9440918 63.2960777 1022.0097046 59.8130455 1066.6591797 54.7378883 1025.0976562 59.8130455 1039.3171387 62.6156464 1045.935791 73.2271042"/><polygon class="cls-14" points="1077.902832 80.9033813 1090.6448975 66.6184006 1112.8726807 65.8960724 1124.5959473 46.9624977 1125.2867432 46.9624977 1127.4542236 63.2583199 1125.0152588 47.3206139 1124.6350098 47.3040848 1113.2481689 66.7621307 1091.3183594 67.8940964 1077.902832 80.9033813"/><polygon class="cls-14" points="1148.7625732 28.10425 1145.5477295 28.10425 1140.0441895 24.2354813 1125.2867432 26.6875172 1132.0887451 40.800354 1127.6750488 45.867897 1130.3668213 62.1475525 1129.3200684 45.6980743 1133.6567383 40.9127731 1127.1517334 27.2297955 1140.012207 25.3605366 1145.3162842 28.7183189 1148.7625732 28.10425"/><polygon class="cls-14" points="913.0516968 22.0116539 935.9154663 10.1477613 969.0360718 13.5101881 987.6176147 23.8279362 1005.682312 46.5017662 1007.401062 58.9783287 1004.0795288 46.8906822 986.3451538 25.6442204 968.7155151 15.7080641 936.2360229 11.6212721 913.0516968 22.0116539"/><path class="cls-14" d="M1029.8928223,56.4314537l-6.4448242-14.8540039,3.2224121-16.0958252,16.9990234-17.994873,21.9868164,2.6281738c10.967041,4.2086182,21.934082,8.4173584,32.901123,12.6259766-11.1525879-3.6813965-22.3049316-7.362915-33.4575195-11.0443115l-20.4335938-2.2352295-16.3327637,16.8509521-3.3007812,15.1175537,4.8601074,15.0015869Z"/><polygon class="cls-14" points="1010.7858276 18.190197 1017.1472778 18.9225559 1020.2681885 25.1169891 1022.7564087 23.973732 1025.0327148 20.3521996 1020.6438599 41.9089432 1026.6330566 56.9639168 1018.3292847 58.363987 1025.0327148 56.4314194 1019.4771729 41.8742752 1024.0793457 23.0410213 1023.0338135 24.4512062 1019.9946289 25.7398205 1016.8825073 19.3210564 1010.7858276 18.190197"/><polygon class="cls-14" points="830.6699219 108.7521286 854.0281372 85.6584549 855.0957031 83.4128494 852.7764893 83.633728 854.491272 83.6543884 853.6235352 85.3691788 830.6699219 108.7521286"/><polygon class="cls-14" points="959.5454712 9.8870192 961.9122314 4.8345203 961.9122314 .7353329 974.2785645 1.3161527 975.3345947 6.1908522 980.2451782 8.5914869 975.0705566 7.0715485 973.5921021 2.2137833 962.8733521 1.6857653 962.8205566 4.9435377 959.5454712 9.8870192"/><polygon class="cls-14" points="1007.8535767 12.1722527 1009.6715698 14.1690769 1013.7247925 16.4937363 1015.5130005 12.3808765 1017.1472778 .9661961 1014.9467773 12.2914658 1013.4267578 15.599637 1009.880188 13.6922235 1007.8535767 12.1722527"/><polygon class="cls-14" points="1014.9169312 17.1829185 1016.675354 12.718318 1017.1472778 8.3276215 1017.0142212 12.8992167 1014.9169312 17.1829185"/><polygon class="cls-14" points="1018.0568848 .6885198 1017.3543091 6.7564096 1020.1088867 2.3342502 1017.5595093 6.0152655 1018.0568848 .6885198"/><path class="cls-14" d="M928.7081909,11.9131889c2.065918-1.2435303,4.1320801-2.4869385,6.197998-3.7304688,1.375.1447754,2.7502441.2894287,4.1252441.4342041.7104492-1.2105713,1.4211426-2.4212646,2.1315918-3.6318359-.8354492,1.0527344-1.6711426,2.1053467-2.5065918,3.1580811-1.2763672-.1710205-2.5529785-.3421631-3.8293457-.5131836-2.0395508,1.4277344-4.0793457,2.8554688-6.1188965,4.2832031Z"/><polygon class="cls-11" points="250.2148285 102.3636703 252.0908661 99.7124634 257.0016785 95.6871872 268.0371704 98.4460678 257.3327332 97.3976898 252.5874634 100.461235 251.0680389 102.3636703 253.3620605 104.2072983 250.2148285 102.3636703"/><polygon class="cls-7" points="255.2705688 104.2072983 265.5757751 104.8213882 269.4525146 101.7298203 268.0371704 98.9401321 268.5331726 101.349411 265.4264832 103.9805984 255.2705688 104.2072983"/><polygon class="cls-5" points="238.7294464 94.3455505 239.6121063 100.3038864 244.142395 102.6199265 247.2595673 102.2008133 248.506424 99.3745804 252.7457733 95.8833542 248.2191772 99.0909042 246.9509277 101.6743774 244.4379272 102.0031815 240.2082062 99.9472427 238.7294464 94.3455505"/><polygon class="cls-5" points="239.4586487 102.1330261 241.0618896 109.8927689 265.4313354 109.8927689 265.8161011 106.5259399 264.9503479 109.2193985 241.7032013 109.1873398 239.4586487 102.1330261"/><polygon class="cls-5" points="266.796936 106.6036301 272.1096497 102.6199265 270.0305176 98.108017 269.3276367 97.0728912 275.1756897 100.7823257 270.0776367 97.8161316 270.3066406 98.0996475 272.4586487 102.801506 266.796936 106.6036301"/><path class="cls-14" d="M88.0522003,51.2018394l6.168457-8.7680664,35.6252441-5.6595459,1.369873-5.470459-8.7207031-11.7260742c2.3696289,4.0266113,4.739502,8.0533447,7.1091309,12.0799561-.4650879,1.2169189-.9299316,2.43396-1.3950195,3.6508789l-34.6181641,5.28125-5.5388184,10.6120605Z"/><polygon class="cls-14" points="133.2112427 37.4917564 134.4691315 30.7817097 130.8097839 26.3218708 141.6376495 18.0883217 143.4459991 24.8444157 151.6223755 31.5821953 143.1029358 25.4818687 140.9873657 19.5776939 132.8205109 26.3218708 135.6126862 31.0104198 133.2112427 37.4917564"/><polygon class="cls-14" points="173.844101 26.4957428 187.4857941 32.289608 212.2203064 47.9008179 233.2213135 70.3952332 231.1217804 74.8380661 231.7279053 70.6752472 211.6602783 49.114212 186.73909 33.1534462 173.844101 26.4957428"/><polygon class="cls-14" points="191.650589 31.8818913 194.5326691 26.0599937 225.4865265 51.2495689 227.4223175 60.2269859 224.1230011 51.5000572 194.6823273 27.6663151 191.650589 31.8818913"/><polygon class="cls-14" points=".6063035 40.8862953 16.2828979 40.5897789 25.3151093 46.5963135 21.2661858 39.1732903 23.1868286 33.2037239 20.3970661 39.4933434 23.9169464 45.0133057 16.096632 39.6859016 .6063035 40.8862953"/><polygon class="cls-14" points="31.4973907 .9875526 24.875 10.1570168 35.1269684 20.3551579 42.2987328 21.4480534 35.4778214 19.5776939 26.231411 10.1055984 31.4973907 .9875526"/><polygon class="cls-14" points="61.5522232 24.5731144 76.7618637 26.09408 77.3506317 28.7158775 72.8367996 37.280529 76.5656128 28.7158775 76.2712326 26.8790932 61.5522232 24.5731144"/><polygon class="cls-14" points="127.6662979 9.3922863 124.7917328 18.0883217 129.3089142 24.1757793 140.6018524 15.8258438 129.5142365 22.7384968 126.3188019 18.0883217 127.6662979 9.3922863"/><polygon class="cls-14" points="90.6353607 18.0883217 104.4152374 20.3551579 122.781311 16.7516441 125.1314011 10.7345533 121.8580551 15.5448561 104.9037933 18.6672935 90.6353607 18.0883217"/><polygon class="cls-14" points="181.1018066 15.3132353 186.3845367 28.0998535 190.3465881 28.0998535 187.3450317 27.3194504 181.1018066 15.3132353"/><polygon class="cls-14" points="213.7006989 4.4321852 218.6030884 10.5427198 220.279129 10.904376 220.0167999 15.8486814 210.9771271 20.4158783 219.6087189 15.3039694 219.7344208 11.6166916 218.4773865 11.0719795 213.7006989 4.4321852"/><polygon class="cls-14" points="215.8376312 3.7812245 219.3992157 8.4322233 227.3603821 4.4321852 219.5249176 7.2170978 215.8376312 3.7812245"/><polygon class="cls-14" points="221.5990143 15.8905821 222.4718475 9.8600941 220.6405945 9.639081 220.8330383 9.3041334 229.3542175 5.0348134 221.1484375 9.3041334 221.0967102 9.4934645 222.9010468 9.7288885 221.5990143 15.8905821"/><polygon class="cls-14" points="252.7897186 4.4321852 251.5502472 6.8498392 255.2753448 23.7900867 254.5997772 25.8034554 244.2993927 13.9559832 254.1926422 24.4599266 254.6096649 23.4975815 250.8244324 6.7206688 252.7897186 4.4321852"/><polygon class="cls-14" points="254.6993561 6.9534717 257.042572 22.731226 264.4628296 26.0599937 271.5015259 20.7462692 264.5579224 24.5034084 258.2801819 21.8401203 254.6993561 6.9534717"/><path class="cls-14" d="M328.8002625.5931377c1.6142578.7219239,3.2285156,1.4437256,4.8427734,2.1656495.3701172,4.9178467.7404785,9.8358154,1.1105957,14.7536621-1.1223145,1.7559814-2.2443848,3.5118408-3.3666992,5.2678223l2.9538574,2.5810547,7.2265625-10.7216797c-2.3984375,3.2553711-4.796875,6.5108643-7.1953125,9.7662354l-2.0097656-1.6256104c.9941406-1.7231445,1.9880371-3.446167,2.9821777-5.1693115-.376709-5.0910645-.7531738-10.1821289-1.1298828-15.2731934-1.8046875-.581543-3.6096191-1.1630859-5.4143066-1.744629Z"/><path class="cls-14" d="M344.2589722,17.7522526c.5869141-3.0844727,1.173584-6.1690674,1.760498-9.25354,1.0783691-1.657959,2.1569824-3.3157959,3.2353516-4.9737549.7280273-.9472656,1.4558105-1.8944092,2.1838379-2.8416748,2.7546387.2391357,5.5092773.4782715,8.263916.7174072.3151855,4.1025391.630127,8.2050781.9453125,12.3076172l-1.4836426,11.2996826c.2319336-3.7440186.4641113-7.4880371.6960449-11.2320557-.175293-3.9300537-.3508301-7.8599854-.526123-11.7900391-2.5627441-.2384033-5.1254883-.4769287-7.6882324-.715332-.6828613,1.0244141-1.3659668,2.0488281-2.0488281,3.0732422-.9870605,1.6490479-1.9743652,3.2982178-2.9614258,4.9472656-.7922363,2.8204346-1.5844727,5.6407471-2.376709,8.4611816Z"/><polygon class="cls-14" points="374.6647034 1.6573439 380.471405 21.3955708 375.4367065 27.7902851 379.1732788 20.9545574 374.6647034 1.6573439"/><polygon class="cls-14" points="393.8396301 1.34286 408.2990417 9.0230846 406.4645386 14.0002127 407.3122253 9.5379601 393.8396301 1.34286"/><path class="cls-14" d="M414.1273804,5.8053541l-3.8439941,6.6169434,18.784668,17.9659433,16.5537109,3.5533447,15.6835938-2.9445801-15.6835938,1.1434326-15.7861328-3.2310791-17.9494629-16.6820068c.7470703-2.140625,1.4941406-4.2813721,2.2412109-6.421998Z"/><path class="cls-14" d="M452.1725464,3.196043c2.4101562-.9516602,4.8200684-1.9031982,7.2302246-2.8548584,4.7373047.1033936,9.4746094.2069092,14.2119141.3103027-4.7062988.0827637-9.4125977.1655273-14.1188965.248291-2.4411621.7653809-4.8820801,1.5308838-7.3232422,2.2962646Z"/><path class="cls-14" d="M570.0077515,1.534358c1.1516113,1.0649414,2.3029785,2.1300049,3.4545898,3.1949463l1.3615723,4.0777588.2961426,4.310791,9.8867188,3.7481699,2.7233887-2.4373779-.4736328-9.5217285-.592041,8.8212891-1.4799805,2.0129395-9.1845703-3.2562256-.5839844-4.6177979-1.4870605-3.8482666c-1.3071289-.828125-2.6140137-1.6563721-3.9211426-2.484498Z"/><polygon class="cls-14" points="584.0391846 18.1354523 586.1520996 18.8062172 589.1035156 15.854846 589.6065674 20.114212 583.5361328 27.0468693 589.0028687 19.8143101 588.8016357 16.8659649 586.1185913 19.3428307 584.0391846 18.1354523"/><polygon class="cls-14" points="595.1399536 .7482441 589.6065674 5.9448404 591.7167969 21.1004486 596.8864136 23.3129044 602.1109009 17.235117 596.7467041 22.0554314 592.6948853 20.4486599 590.9483643 6.261775 595.1399536 .7482441"/><polygon class="cls-14" points="607.2267456 14.8946981 609.6884155 26.7362709 600.4358521 23.8077087 608.5 25.3780975 607.2267456 14.8946981"/><polygon class="cls-14" points="652.6724854 7.2143507 680.7965698 28.0640259 678.2398682 39.2592583 654.4146118 39.5639343 654.5150146 46.8413887 628.5869141 39.6359825 653.0427246 45.1988678 653.2996826 38.7114563 677.3865967 38.1976013 679.3777466 28.7711143 652.6724854 7.2143507"/><path class="cls-14" d="M645.5582886,1.9324932c1.0898438.4324951,2.1794434.8651123,3.2692871,1.2976074-.2302246.7408447-.4606934,1.4815674-.690918,2.2224121l5.8852539-.3582764,8.9233398,6.6877441-8.5983887-7.5634766c-1.8398438.2340088-3.6794434.4678955-5.5192871.7019043.1784668-.7084961.3569336-1.4168701.5354004-2.1253662-1.2683105-.2874756-2.536377-.5750732-3.8046875-.8625488Z"/><polygon class="cls-14" points="681.6421509 38.8919182 683.8325806 28.7711143 686.6168823 25.5965595 696.8884888 28.5156822 696.8884888 18.8246002 703.6514893 17.6484203 697.6445923 19.4546947 697.5605469 29.4942188 687.05896 26.5117664 684.6646118 29.0741539 681.6421509 38.8919182"/><polygon class="cls-14" points="673.4169922 .2338685 678.5994873 23.2007999 680.7965698 24.6555557 682.7143555 26.65065 685.8317261 22.4942055 682.9221802 25.486845 681.3427734 24.1983471 679.2645264 23.0345421 673.4169922 .2338685"/><polygon class="cls-14" points="698.8356323 16.6060696 702.2770386 16.150631 724.7979736 2.8685255 730.0612793 .563072 723.8869629 2.4355986 701.9227295 15.4926748 698.8356323 16.6060696"/><polygon class="cls-14" points="722.524353 7.2480774 744.93396 4.1164389 764.4088135 7.0034184 779.5776978 11.6519442 782.9540405 24.0806351 767.947876 35.4778748 781.4806519 23.6826324 778.6693726 12.9263515 764.1850586 8.2204781 744.9337769 5.1647162 722.524353 7.2480774"/><polygon class="cls-14" points="744.9524536 2.1861334 760.4462891 4.8043013 757.2901001 .5721944 758.975769 3.7642071 744.9524536 2.1861334"/><polygon class="cls-14" points="867.1994019 15.1628542 862.8305054 26.7723942 866.4395752 27.4463882 885.37146 18.1250954 866.8937378 26.1800442 864.4767456 25.7014122 867.1994019 15.1628542"/><path class="cls-14" d="M942.9889526,1.5649227l-.3884277,3.7462159-1.6835938,2.427124.6906738.5468745,2.7197266.4934082,7.3388672.4705811c1.7871094.2803955,3.5739746.5606689,5.361084.8410645-.8459473-1.7940674-1.6921387-3.5880127-2.5380859-5.3820801.5219727,1.6199951,1.0439453,3.2401123,1.565918,4.8601074-1.4414062-.2631836-2.8825684-.5264893-4.3239746-.7896729l-7.2028809-.4943848-2.5803223-.4561768-.348877-.3696289,1.4165039-2.2955322s-.0266113-3.5979004-.0266113-3.5979Z"/><polygon class="cls-14" points="976.3046875 .6885198 977.1359253 5.0524988 981.8589478 5.8459611 989.7180176 4.939147 982.1611938 5.0902824 977.8538208 4.4857397 976.3046875 .6885198"/><polygon class="cls-14" points="867.2074585 9.9200964 870.3847656 16.4865265 889.7663574 15.4274254 904.381958 19.5579224 910.7365723 14.3153687 904.0112915 18.4458656 889.8722534 14.6248121 871.0731812 15.4274254 867.2074585 9.9200964"/><polygon class="cls-14" points="1139.5020752 .8171623 1143.7740479 22.4279938 1151.2498779 21.6113052 1144.842041 21.2971935 1139.5020752 .8171623"/><polygon class="cls-14" points="608.6710205 14.1368723 614.5410156 11.1378155 616.4157715 8.9557629 618.6900024 7.2142925 619.1817017 .4119512 618.321228 6.5886211 616.2154541 8.388978 614.3913574 10.5806227 608.6710205 14.1368723"/><polygon class="cls-14" points="700.1755981 .1192273 700.3270874 3.9570262 709.4260254 .2378156 700.78302 3.209471 700.1755981 .1192273"/><polygon class="cls-14" points="915.6621094 18.7071571 915.6621094 17.5532494 924.3378906 8.3596153 921.8224487 .3903146 925.0725098 8.6712637 916.1237183 17.508728 915.6621094 18.7071571"/><polygon class="cls-14" points="1080.7310791 .4860395 1079.0786133 4.9514875 1074.1911621 10.5420876 1100.3575439 21.4447632 1115.9241943 17.1442623 1100.4787598 20.2939243 1075.6448975 10.2392359 1079.8508301 5.2857389 1080.7310791 .4860395"/><polygon class="cls-14" points="510.0241089 10.5140362 513.9662476 12.598753 517.263855 8.2019024 537.2006226 1.7581768 552.9315796 4.6389141 537.2006226 1.0759258 517.1122437 7.7470684 513.9332886 11.9752178 510.0241089 10.5140362"/><polygon class="cls-14" points="485.0000305 .3333721 481.6276245 4.1555738 484.8372192 6.558897 497.0012207 5.3522506 484.8837585 6.1197686 482.1960144 4.0646954 485.0000305 .3333721"/><polygon class="cls-14" points="1.490921 24.1662159 7.4308481 24.5731144 23.6959991 30.9268227 32.0284996 21.1187191 23.3470974 28.7158775 7.4595666 23.5018482 1.490921 24.1662159"/><polygon class="cls-14" points="33.5868683 22.3815269 38.9201202 24.1757793 52.9925194 23.2786522 66.5518875 30.9268227 69.4514236 38.6582603 65.5624924 31.8074284 52.7195129 24.5731144 38.3290558 25.2232475 33.5868683 22.3815269"/><polygon class="cls-14" points="142.6796417 8.4322233 145.312912 23.0265884 156.5753174 33.516716 161.4020538 33.8384972 171.312973 25.4818687 161.2089844 32.5692711 156.9963074 32.5692711 145.8277588 22.3830223 142.6796417 8.4322233"/><polygon class="cls-14" points="164.6717682 2.0608249 167.8066101 .4163158 178.3931427 1.4441339 178.5987091 14.4369316 182.9155426 27.3451519 177.7250519 14.4369316 177.5708923 2.1122158 167.9093933 1.0330067 164.6717682 2.0608249"/><polygon class="cls-14" points="206.7965851 .7568649 209.0085449 21.0854301 202.7129517 29.5690994 195.1696014 23.5003815 202.4293671 27.4131413 207.8129425 20.7212486 206.7965851 .7568649"/><polygon class="cls-14" points="205.0050812 30.1130543 211.8456573 22.3472042 225.5692902 16.5067329 230.5348663 15.162982 231.7552795 20.4158783 243.2106476 16.5067329 231.4229126 21.4565983 229.9605408 16.5067329 225.5692902 17.5347614 211.8456573 23.4158287 205.0050812 30.1130543"/><polygon class="cls-14" points="217.0947876 41.1447563 227.3603821 49.6363945 256.0844421 34.0814781 227.3603821 47.474884 217.0947876 41.1447563"/><polygon class="cls-14" points="256.0844421 27.4131413 259.4378357 32.289608 264.7835083 34.0814781 265.7494812 37.7046356 271.5015259 27.6285534 266.0715637 35.4501724 265.2433777 33.5177727 259.7682495 31.6551476 256.0844421 27.4131413"/><polygon class="cls-14" points="271.313324 .8586407 284.9949646 1.66017 295.9152527 1.034462 295.9152527 1.5075082 283.522583 7.854403 280.6521606 17.2360172 282.8171387 6.9534717 295.1122437 1.5845531 295.1122437 1.4346905 285.0077515 2.2508857 271.313324 .8586407"/><polygon class="cls-14" points="298.622406 30.9001637 321.1689148 34.0814781 330.220459 23.9147243 337.6954346 33.0014763 330.220459 25.3613262 321.5664368 34.9324112 298.622406 30.9001637"/><polygon class="cls-14" points="285.9760132 9.5679502 283.522583 16.5067329 294.4501038 28.4865971 320.1374207 31.6551476 331.6367493 17.2360172 319.8559265 30.1130543 295.210144 27.4131413 285.4835815 16.1448326 285.9760132 9.5679502"/><polygon class="cls-14" points="362.798584 .6832838 363.1141357 22.821888 369.8789368 26.8442078 372.5264282 26.5655251 369.9486084 26.1823368 363.9220886 22.3852844 362.798584 .6832838"/><polygon class="cls-14" points="392.6413269 3.6622126 405.6278381 15.887866 403.0283508 30.4786091 396.3119507 35.3048172 402.3312378 29.2988701 404.0750732 16.214489 392.6413269 3.6622126"/><polygon class="cls-14" points="398.840332 2.4950471 409.4040527 7.6715364 412.6009827 3.3146315 431.9562683 2.6687927 412.7052307 2.6340437 409.2284546 6.4217 398.840332 2.4950471"/><polygon class="cls-14" points="471.9587402 5.8053541 484.4699097 15.9995174 482.0644531 17.0480766 478.683136 36.6287193 482.9438782 17.5508213 485.4442749 16.1275196 471.9587402 5.8053541"/><polygon class="cls-14" points="486.4579163 7.1508279 490.2359009 9.8493862 492.5386658 22.8024635 496.8563538 36.6287193 500.8862 29.1710606 497.1082458 34.3882713 493.1143799 22.4426556 490.675354 8.9858475 486.4579163 7.1508279"/><polygon class="cls-14" points="502.3534851 .6328252 502.1764832 23.2677498 509.0066528 5.6045928 503.2380371 18.3740444 502.3534851 .6328252"/><polygon class="cls-14" points="556.6287842 .553563 555.4022827 1.7801057 554.6137695 4.3792081 559.5927124 5.2075176 571.6101685 11.1835995 559.5199585 4.6420388 555.3438721 3.9995637 555.6271362 2.0311208 556.6287842 .553563"/><polygon class="cls-14" points="617.6233521 10.0243559 631.6506958 4.8568225 645.8355713 5.2334337 646.7466431 3.8161974 640.6221313 .1971832 645.8861694 3.7655818 645.4053345 4.5248156 631.6506958 3.8997986 617.6233521 10.0243559"/><polygon class="cls-14" points="683.0534058 .2338685 684.0096436 11.8920879 689.6383057 24.3629742 694.0574951 25.6654778 690.5361938 23.5721684 685.1260986 11.8920879 683.0534058 .2338685"/><polygon class="cls-14" points="782.2584229 8.7125912 786.4456177 23.4481869 801.9058838 22.6963444 813.3908081 30.6146793 832.9249878 13.3862257 826.5015259 6.2083635 831.0057373 12.9041891 813.3908081 28.2732487 802.2648315 21.3046207 787.5369873 21.9367447 782.2584229 8.7125912"/><polygon class="cls-14" points="833.9022217 .901987 830.0610352 4.5297885 837.5098267 11.50107 842.5228271 22.6742191 859.4674683 25.7014122 843.9080811 21.9367447 838.4214478 10.8325911 832.3529663 4.9850888 833.9022217 .901987"/><polygon class="cls-14" points="768.3340454 36.5090027 773.0983887 33.0584984 773.4567261 33.9078522 773.5761719 35.7525482 773.2841797 34.0140228 772.9922485 33.5628052 768.3340454 36.5090027"/><polygon class="cls-14" points="786.559082 26.0198917 774.4658203 33.9154129 776.6702881 44.5377579 792.5427856 43.1520691 811.8794556 33.5782051 792.3538208 42.0780602 777.8670654 43.4040108 775.9144897 34.7837524 786.559082 26.0198917"/><polygon class="cls-14" points="840.857666 25.303978 866.211853 29.8361988 873.8312378 44.2732506 877.0497437 54.5335121 871.848877 52.5842857 875.96698 53.4734383 873.0690918 44.6271629 865.5432129 30.7978668 840.857666 25.303978"/><polygon class="cls-14" points="922.7689819 46.3609886 929.029541 44.2732506 935.8009033 47.765686 968.1671143 49.7547646 975.4453125 58.9783287 967.4890137 50.6464233 935.1997681 48.5887527 929.029541 45.3650703 922.7689819 46.3609886"/><polygon class="cls-14" points="921.4279175 38.9221611 925.7516479 43.9812889 928.369812 43.0167084 925.9091187 43.3906822 921.4279175 38.9221611"/><polygon class="cls-14" points="912.1853638 15.0555067 914.1990967 17.9302959 914.1990967 19.3197765 910.5097656 21.5237808 916.1878052 31.6566887 909.8099365 21.366991 913.3532104 19.1308575 913.4949341 18.1250954 912.1853638 15.0555067"/><polygon class="cls-14" points="903.7155151 9.8870192 912.1853638 12.5199938 915.1191406 16.1981392 922.5790405 7.9093609 921.0324097 .7660567 921.7717285 7.5147133 915.4003296 14.9180899 912.1853638 11.7452145 903.7155151 9.8870192"/><polygon class="cls-14" points="1007.401062 3.2672403 1006.3255615 13.5589638 1010.7858276 16.4937363 993.6242065 27.2411366 990.142334 23.242487 993.7713013 25.6718559 1008.6304321 16.4937363 1005.2957153 13.5589638 1007.401062 3.2672403"/><polygon class="cls-14" points="1018.7315674 17.5971031 1021.1188354 21.9039917 1024.6318359 18.190197 1028.793457 16.4937363 1030.5230713 5.9060516 1028.3334961 15.5264339 1024.4156494 17.1829185 1021.4505615 19.9582958 1018.7315674 17.5971031"/><polygon class="cls-14" points="1030.8161621 16.6499786 1041.4768066 4.6144972 1059.8243408 6.5708694 1041.0181885 3.7433896 1030.8161621 16.6499786"/><polygon class="cls-14" points="1069.8656006 5.9799242 1073.4182129 8.4677343 1076.8538818 4.2468433 1077.8043213 .4860395 1076.2947998 4.0511732 1073.3317871 7.4867506 1069.8656006 5.9799242"/><polygon class="cls-14" points="1119.3166504 6.5146308 1118.7092285 16.9853039 1124.453125 23.3931236 1141.0250244 21.2705975 1125.0158691 21.8770084 1119.8411865 16.5001755 1119.3166504 6.5146308"/><polygon class="cls-14" points="657.2616577 42.909481 682.0949097 42.4531517 689.5294189 37.5920334 704.8765869 37.1555748 714.2001953 44.0423393 718.8619995 50.7562828 713.6227417 45.0200272 704.6120605 38.0090332 690.0998535 38.3522301 682.3533936 43.598217 657.2616577 42.909481"/><polygon class="cls-14" points="986.0892944 60.1516457 992.6035767 60.1516457 994.2215576 62.1759605 992.1139526 60.6199951 986.0892944 60.1516457"/><polygon class="cls-14" points="1019.3814697 60.3723717 1012.0706177 64.4875793 1013.3676758 75.7486496 1027.3997803 80.8190765 1043.4365234 73.2271042 1027.2818604 79.3087692 1014.8416138 74.5105209 1013.3087158 65.3719559 1019.3814697 60.3723717"/><polygon class="cls-14" points="1062.960083 64.6578979 1068.6318359 57.20364 1102.0454102 47.4944572 1118.7092285 39.7970848 1123.6612549 43.8090363 1118.7092285 41.1524734 1102.300293 48.7968674 1069.4147949 58.5499306 1062.960083 64.6578979"/><polygon class="cls-14" points="1103.6082764 22.8535728 1117.1544189 18.9943752 1122.9289551 24.8229561 1122.9289551 26.0174351 1128.8934326 39.7970848 1126.8670654 43.1915169 1128.0405273 39.7970848 1121.9700928 26.5240173 1122.0623779 24.8026638 1117.2978516 20.130415 1103.6082764 22.8535728"/><polygon class="cls-14" points="1144.053833 24.4816246 1151.2498779 23.3931236 1151.2498779 31.0929451 1150.380127 24.4816246 1144.053833 24.4816246"/><polygon class="cls-14" points="1026.6330566 18.7717304 1025.84375 22.987587 1029.1109619 20.1418839 1026.6330566 21.6174335 1026.6330566 18.7717304"/><polygon class="cls-14" points="509.0066528 11.9502878 505.5915527 20.8790531 516.538208 18.004467 524.0772095 26.3570404 522.1193237 33.8960533 525.324707 25.4892406 516.923645 16.8654785 507.5890198 18.8097515 509.0066528 11.9502878"/><polygon class="cls-14" points="70.0561066 .9875526 79.5611115 3.1551688 86.4007797 17.2863731 86.7784653 20.3551579 76.3236847 24.5731144 60.6429443 22.7945728 75.7143097 22.9456463 85.2677383 19.5776939 85.1921997 17.2863731 78.3954773 4.3559384 70.0561066 .9875526"/><polygon class="cls-14" points="90.2885284 21.4480534 79.5611115 26.7309761 86.0336456 37.0731163 100.2788315 25.2232475 86.0336456 34.9033432 81.8401642 27.5933189 90.2885284 21.4480534"/><polygon class="cls-9" points="710.520752 100.2441635 709.694519 99.2291183 724.0940552 99.2291183 730.8217163 102.0814056 723.9523926 99.6776276 710.6151733 99.5359879 710.520752 100.2441635"/><polygon class="cls-9" points="748.8095093 109.9608994 750.8492432 109.1879349 750.8492432 106.5684357 750.4198608 108.8229218 748.8095093 109.9608994"/><polygon class="cls-14" points="271.7753906 109.8927689 276.2811279 101.2879639 276.9815674 101.4997253 276.2974243 101.6951981 271.7753906 109.8927689"/></g></svg>