<svg width="1853" height="1647" viewBox="0 0 1853 1647" fill="none" xmlns="http://www.w3.org/2000/svg">
<path d="M3.5 1634.24V48.3636V3.5H64.1439L112.659 79.6638V9.76004L635.409 21.2368L641.474 85.9238L659.667 21.2368H1177.57L1201.82 108.877L1220.02 21.2368L1512.32 28.5402L1524.45 66.1004L1545.07 28.5402L1782.79 21.2368L1821.6 66.1004V21.2368H1849.5V1640.5L1739.13 1623.81L1719.72 1610.24V1623.81L1488.06 1617.55L1475.93 1571.64L1465.02 1617.55L1161.8 1634.24L1141.18 1591.46V1640.5L867.069 1634.24L848.876 1603.98V1634.24H719.098L688.776 1598.77L664.518 1640.5H527.463L521.399 1615.46L514.122 1640.5L352.809 1634.24V1583.12L339.467 1634.24L193.922 1640.5L184.219 1615.46L174.516 1640.5L53.228 1634.24L47.1636 1583.12L37.4606 1634.24H3.5Z" fill="#D3CCA1" stroke="black" stroke-width="7"/>
<path d="M7 1148.5V1632.34H36.5L47.7393 1588.31L54.7374 1638.11L173.705 1646.5L184.202 1617.14L195.699 1646.5L339.66 1636.54L353.656 1586.21V1636.54L514.113 1644.93L521.611 1612.42L527.609 1644.93H664.072L687.066 1600.36L719.557 1638.11H846.522V1600.36L868.017 1638.11L1141.44 1644.4V1594.6L1163.44 1638.11L1463.85 1619.24L1474.35 1574.67L1490.35 1619.24L1717.29 1623.96V1604.03L1744.28 1627.1L1849.25 1643.35L1846.5 1344L1815 1609L1752.78 1615.04L1713.5 1592L1702.79 1615.04L1504.34 1608.23L1463.85 1539L1453.36 1604.03L1170.5 1628.67L1141.44 1580.5L1127.95 1628.67H877.514L831.5 1549.5L830 1631L725 1618.5L687.066 1573.5L658.573 1632.34L538.106 1636.54L520 1605L508.614 1632.34L390.646 1626.05L351.5 1544.5L330.163 1626.05L208.196 1629.72L184.202 1596.5L155.71 1632.34L77.7311 1621.86L7 1148.5Z" fill="#BC8C2F"/>
<path d="M38 75.5L6.5 392.5V7.5L61 5.5L114 85.5V10L632.5 22.5L641 82L659.5 22.5H1177.5L1203.5 103.5L1219 22.5L1510.5 32.5L1524.5 70L1545.5 32.5L1784 24L1823 71V24H1847V250.5L1809.5 102.5L1767.5 54L1555 43.5L1520.5 97.5L1501.5 43.5L1230.5 37.5L1203.5 129L1166.5 37.5L683.5 41L638.5 104.5L620.5 36.5L130.5 24L119 112.5L59 24L38 75.5Z" fill="#BC8C2F"/>
</svg>
