<svg width="1853" height="1646" viewBox="0 0 1853 1646" fill="none" xmlns="http://www.w3.org/2000/svg">
<g filter="url(#filter0_n_419_14)">
<path d="M3.5 1634.74V48.8636V4H64.1439L112.659 80.1638V10.26L635.409 21.7368L641.474 86.4238L659.667 21.7368H1177.57L1201.82 109.377L1220.02 21.7368L1512.32 29.0402L1524.45 66.6004L1545.07 29.0402L1782.79 21.7368L1821.6 66.6004V21.7368H1849.5V1641L1739.13 1624.31L1719.72 1610.74V1624.31L1488.06 1618.05L1475.93 1572.14L1465.02 1618.05L1161.8 1634.74L1141.18 1591.96V1641L867.069 1634.74L848.876 1604.48V1634.74H719.098L688.776 1599.27L664.518 1641H527.463L521.399 1615.96L514.122 1641L352.809 1634.74V1583.62L339.467 1634.74L193.922 1641L184.219 1615.96L174.516 1641L53.228 1634.74L47.1636 1583.62L37.4606 1634.74H3.5Z" fill="#D3CCA1"/>
<path d="M3.5 1634.74V48.8636V4H64.1439L112.659 80.1638V10.26L635.409 21.7368L641.474 86.4238L659.667 21.7368H1177.57L1201.82 109.377L1220.02 21.7368L1512.32 29.0402L1524.45 66.6004L1545.07 29.0402L1782.79 21.7368L1821.6 66.6004V21.7368H1849.5V1641L1739.13 1624.31L1719.72 1610.74V1624.31L1488.06 1618.05L1475.93 1572.14L1465.02 1618.05L1161.8 1634.74L1141.18 1591.96V1641L867.069 1634.74L848.876 1604.48V1634.74H719.098L688.776 1599.27L664.518 1641H527.463L521.399 1615.96L514.122 1641L352.809 1634.74V1583.62L339.467 1634.74L193.922 1641L184.219 1615.96L174.516 1641L53.228 1634.74L47.1636 1583.62L37.4606 1634.74H3.5Z" stroke="black" stroke-width="7"/>
</g>
<path d="M6 1148V1631.84H35.5L46.7393 1587.81L53.7374 1637.61L172.705 1646L183.202 1616.64L194.699 1646L338.66 1636.04L352.656 1585.71V1636.04L513.113 1644.43L520.611 1611.92L526.609 1644.43H663.072L686.066 1599.86L718.557 1637.61H845.522V1599.86L867.017 1637.61L1140.44 1643.9V1594.1L1162.44 1637.61L1462.85 1618.74L1473.35 1574.17L1489.35 1618.74L1716.29 1623.46V1603.53L1743.28 1626.6L1848.25 1642.85L1845.5 1343.5L1814 1608.5L1751.78 1614.54L1712.5 1591.5L1701.79 1614.54L1503.34 1607.73L1462.85 1538.5L1452.36 1603.53L1169.5 1628.17L1140.44 1580L1126.95 1628.17H876.514L830.5 1549L829 1630.5L724 1618L686.066 1573L657.573 1631.84L537.106 1636.04L519 1604.5L507.614 1631.84L389.646 1625.55L350.5 1544L329.163 1625.55L207.196 1629.22L183.202 1596L154.71 1631.84L76.7311 1621.36L6 1148Z" fill="#BC8C2F"/>
<path d="M37 70L5.5 387V2L60 0L113 80V4.5L631.5 17L640 76.5L658.5 17H1176.5L1202.5 98L1218 17L1509.5 27L1523.5 64.5L1544.5 27L1783 18.5L1822 65.5V18.5H1846V245L1808.5 97L1766.5 48.5L1554 38L1519.5 92L1500.5 38L1229.5 32L1202.5 123.5L1165.5 32L682.5 35.5L637.5 99L619.5 31L129.5 18.5L118 107L58 18.5L37 70Z" fill="#BC8C2F"/>
<defs>
<filter id="filter0_n_419_14" x="0" y="0.5" width="1853" height="1644.57" filterUnits="userSpaceOnUse" color-interpolation-filters="sRGB">
<feFlood flood-opacity="0" result="BackgroundImageFix"/>
<feBlend mode="normal" in="SourceGraphic" in2="BackgroundImageFix" result="shape"/>
<feTurbulence type="fractalNoise" baseFrequency="1 1" stitchTiles="stitch" numOctaves="3" result="noise" seed="4644" />
<feColorMatrix in="noise" type="luminanceToAlpha" result="alphaNoise" />
<feComponentTransfer in="alphaNoise" result="coloredNoise1">
<feFuncA type="discrete" tableValues="0 0 0 0 0 0 0 0 0 1 1 1 1 1 1 1 1 1 1 1 1 1 1 1 1 1 1 1 1 1 1 1 1 1 1 1 1 1 1 1 0 0 0 0 0 0 0 0 0 0 0 0 0 0 0 0 0 0 0 0 0 0 0 0 0 0 0 0 0 0 0 0 0 0 0 0 0 0 0 0 0 0 0 0 0 0 0 0 0 0 0 0 0 0 0 0 0 0 0 0 "/>
</feComponentTransfer>
<feComposite operator="in" in2="shape" in="coloredNoise1" result="noise1Clipped" />
<feFlood flood-color="#BC8C2F" result="color1Flood" />
<feComposite operator="in" in2="noise1Clipped" in="color1Flood" result="color1" />
<feMerge result="effect1_noise_419_14">
<feMergeNode in="shape" />
<feMergeNode in="color1" />
</feMerge>
</filter>
</defs>
</svg>
