<svg width="398" height="368" viewBox="0 0 398 368" fill="none" xmlns="http://www.w3.org/2000/svg">
<g filter="url(#filter0_d_39_258)">
<path fill-rule="evenodd" clip-rule="evenodd" d="M79.0534 0.149675C78.3584 0.262675 76.8814 0.396675 75.7704 0.447675C74.6594 0.498675 73.0224 0.730675 72.1334 0.962675C71.2444 1.19567 70.2214 1.42867 69.8614 1.48267C68.4804 1.68667 68.1924 1.77067 63.2704 3.40967C56.2764 5.73767 52.7854 9.53268 54.8034 12.6137L55.2014 13.2207L52.2284 13.2497C50.5934 13.2657 49.1414 13.2987 49.0024 13.3227C48.8644 13.3467 47.5004 13.4527 45.9724 13.5567C44.4444 13.6607 42.7974 13.7897 42.3104 13.8417C41.8244 13.8947 40.3474 14.0087 39.0284 14.0957C36.0144 14.2947 33.5684 14.4927 32.5884 14.6187C32.0004 14.6937 28.4004 14.8797 24.7604 15.0227C24.6214 15.0277 23.4064 15.0117 22.0594 14.9867C20.7134 14.9617 19.4914 15.0147 19.3454 15.1057C19.1984 15.1957 19.0784 15.1707 19.0784 15.0497C19.0784 14.9287 18.2544 14.8687 17.2474 14.9177C16.2404 14.9657 12.6894 15.0487 9.35642 15.1017C1.71242 15.2217 0.345419 15.4347 0.0544187 16.5477C-0.0995813 17.1347 0.0894186 17.7657 0.418419 17.7657C0.542419 17.7657 0.644419 17.9297 0.644419 18.1297C0.644419 18.6317 2.47842 22.4777 3.27742 23.6517C3.63742 24.1807 4.15342 25.0327 4.42342 25.5457C4.95942 26.5627 4.98242 26.5907 9.63742 31.8127C9.93142 32.1427 10.2454 32.4117 10.3354 32.4117C10.5004 32.4117 12.1074 33.8187 13.1474 34.8747C13.4554 35.1867 13.8834 35.4427 14.0994 35.4427C14.3144 35.4427 14.5294 35.5277 14.5754 35.6317C14.7414 36.0057 16.5274 37.2097 16.9154 37.2097C17.1324 37.2097 17.3104 37.3147 17.3104 37.4427C17.3104 37.5707 17.6514 37.7497 18.0684 37.8417C18.4854 37.9327 18.8264 38.1127 18.8264 38.2407C18.8264 38.3677 18.9934 38.4727 19.1974 38.4727C19.4014 38.4727 20.1684 38.7467 20.9014 39.0807C23.5934 40.3087 28.4714 41.5317 32.0834 41.8837C32.9174 41.9647 33.7694 42.0807 33.9774 42.1417C35.2454 42.5107 46.9654 42.2997 49.2064 41.8667C49.5114 41.8077 50.2714 41.6997 50.8964 41.6257C51.5214 41.5517 52.2034 41.4387 52.4124 41.3747C52.7194 41.2797 52.7874 41.5297 52.7744 42.7057C52.7334 46.2387 54.3804 48.1217 59.3564 50.2337C61.1274 50.9847 65.7354 51.2327 67.9064 50.6937C68.6204 50.5157 70.0284 50.2407 71.0344 50.0807C72.0414 49.9217 72.9294 49.6857 73.0094 49.5567C73.0884 49.4287 73.2644 49.3917 73.4004 49.4757C73.6084 49.6047 77.8894 48.8957 79.9374 48.3937C80.2844 48.3077 80.6514 48.2567 80.7534 48.2777C80.8544 48.2997 81.5174 48.1937 82.2264 48.0417C82.9344 47.8897 83.7034 47.7287 83.9354 47.6837C84.1674 47.6387 84.3564 47.5867 84.3564 47.5667C84.3564 47.5477 84.7264 47.4947 85.1794 47.4507C85.6314 47.4057 86.1714 47.2287 86.3784 47.0567C86.8124 46.6967 86.9474 47.5127 86.5274 47.9547C86.1764 48.3257 86.0454 50.1747 86.2754 51.5237C86.6774 53.8817 86.7614 54.2677 87.1654 55.6027C87.7044 57.3817 87.5374 58.3787 86.2264 61.2267C84.9694 63.9567 84.7424 66.9407 85.6154 69.2807C85.8484 69.9057 86.1024 70.7017 86.1784 71.0487C86.2554 71.3957 86.3964 71.7937 86.4934 71.9327C87.6354 73.5787 87.7794 77.1367 86.8014 79.5357C86.3454 80.6557 85.9864 81.5717 85.8724 81.9067C85.8484 81.9767 85.6964 82.3537 85.5344 82.7447C85.3724 83.1357 85.2404 83.5997 85.2404 83.7757C85.2404 83.9517 85.1554 84.1807 85.0504 84.2847C84.9464 84.3887 84.8534 84.5497 84.8434 84.6427C84.8344 84.7357 84.6934 85.2717 84.5314 85.8347C84.1824 87.0497 84.3844 87.9267 85.3734 89.4947C86.1084 90.6587 86.1964 91.4577 85.7764 93.1447C84.6624 97.6147 84.4304 99.9357 85.0384 100.544C85.2044 100.71 85.2544 100.847 85.1474 100.847C85.0404 100.847 85.1904 101.179 85.4794 101.586C85.9974 102.313 85.9984 102.328 85.5124 102.482C85.0994 102.613 84.3044 103.417 83.2484 104.774C81.3784 107.174 81.8594 112.022 84.2144 114.497C85.2454 115.581 85.0974 115.975 83.4414 116.552C82.6084 116.842 82.4324 117.384 83.2564 117.123L83.7984 116.951L83.2704 117.517C82.7024 118.127 80.9474 121.525 80.9474 122.015C80.9474 122.178 80.8334 122.311 80.6944 122.311C80.5554 122.311 80.4424 122.483 80.4424 122.694C80.4424 122.904 80.3364 123.273 80.2074 123.514C79.7394 124.39 78.9684 126.249 78.6634 127.236C78.4924 127.791 78.2634 128.473 78.1544 128.751C77.8984 129.405 77.6464 130.922 77.5024 132.665C77.4394 133.429 77.2934 134.622 77.1774 135.316C76.9684 136.575 77.0384 142.618 77.2654 142.986C77.3314 143.093 77.4554 143.74 77.5404 144.425C77.6254 145.11 77.8864 146.238 78.1184 146.933C78.3514 147.627 78.5494 148.309 78.5584 148.448C78.5674 148.587 78.7674 149.064 79.0034 149.508C79.2394 149.953 79.4344 150.521 79.4374 150.771C79.4404 151.021 79.6654 151.51 79.9374 151.857C80.2084 152.204 80.4334 152.692 80.4364 152.941C80.4424 153.447 80.4674 153.482 82.1134 155.329C82.7634 156.058 83.4934 156.655 83.7364 156.655C84.6554 156.655 85.3394 157.766 85.3924 159.344C85.4194 160.157 85.5154 162.072 85.6054 163.599C85.8854 168.355 85.8124 177.774 85.4914 178.375C85.3144 178.705 85.2704 179.318 85.3774 179.953C85.4744 180.525 85.5954 182.476 85.6484 184.291C85.7594 188.169 85.9164 190.935 86.1154 192.513C86.1934 193.138 86.3054 194.359 86.3634 195.225C86.4224 196.092 86.5194 196.887 86.5794 196.993C86.6404 197.099 86.6924 197.64 86.6954 198.195C86.6984 198.751 86.8154 200.342 86.9544 201.731C87.0944 203.12 87.2054 204.426 87.2004 204.635C87.1954 204.843 87.3284 206.093 87.4944 207.412C87.6614 208.732 87.8454 210.55 87.9044 211.453C88.1044 214.521 88.3084 217.383 88.4534 219.155C88.6594 221.679 88.6204 234.179 88.3984 236.579C88.1714 239.028 88.1384 246.998 88.3484 248.574C88.4324 249.199 88.5614 250.62 88.6364 251.731C88.7114 252.842 88.8304 254.035 88.9014 254.382C88.9714 254.729 89.0934 255.752 89.1714 256.655C89.2494 257.558 89.3654 258.637 89.4294 259.054C89.4934 259.471 89.6084 260.209 89.6844 260.695C89.7604 261.181 89.8654 261.92 89.9174 262.337C89.9704 262.753 90.1404 263.662 90.2964 264.357C90.4524 265.051 90.5794 265.904 90.5784 266.251C90.5784 266.598 90.6764 267.223 90.7964 267.64C90.9164 268.056 91.0874 269.075 91.1764 269.904C91.2654 270.732 91.3784 271.474 91.4264 271.553C91.4754 271.632 91.5814 272.261 91.6624 272.951C91.7424 273.641 91.8624 274.546 91.9284 274.963C92.0634 275.812 92.3774 280.815 92.3334 281.402C92.2574 282.405 92.2784 283.354 92.3894 283.928C92.4574 284.275 92.5934 284.986 92.6924 285.509C92.7924 286.031 92.9744 286.521 93.0974 286.597C93.2204 286.673 93.3214 286.909 93.3214 287.121C93.3214 287.803 95.4044 289.915 97.6144 291.471C100.687 293.637 101.979 294.599 102.412 295.045C102.62 295.26 103.415 295.846 104.179 296.348C104.943 296.85 105.805 297.528 106.094 297.854C106.383 298.181 107.048 298.789 107.572 299.205C109.851 301.016 110.527 301.604 110.331 301.604C110.216 301.604 110.547 301.893 111.065 302.245C111.583 302.597 112.007 302.969 112.007 303.072C112.007 303.174 112.71 303.767 113.568 304.388C114.427 305.01 115.364 305.746 115.652 306.024C115.939 306.302 116.458 306.659 116.805 306.817C117.153 306.975 118.209 307.685 119.153 308.394C120.097 309.104 120.938 309.685 121.023 309.685C121.108 309.685 121.549 309.969 122.005 310.316C122.46 310.664 122.893 310.948 122.968 310.948C123.043 310.948 123.941 311.516 124.964 312.21C125.988 312.905 126.916 313.473 127.026 313.473C127.137 313.473 127.48 313.746 127.79 314.08C128.099 314.414 128.709 314.871 129.144 315.097C129.58 315.322 129.937 315.617 129.937 315.752C129.937 315.888 130.058 315.998 130.207 315.998C130.565 315.998 132.702 317.459 133.368 318.159C133.658 318.464 134.311 318.864 134.82 319.048C135.329 319.232 135.745 319.53 135.745 319.711C135.745 319.891 135.843 320.039 135.963 320.039C136.083 320.039 137.046 320.721 138.103 321.554C139.16 322.387 140.092 323.069 140.175 323.069C140.258 323.069 140.47 323.211 140.645 323.385C140.821 323.558 141.275 323.928 141.654 324.205C142.033 324.483 142.932 325.249 143.653 325.908C144.373 326.567 145.096 327.107 145.261 327.108C145.425 327.109 145.631 327.337 145.72 327.614C145.808 327.892 146.017 328.12 146.186 328.12C146.354 328.12 146.68 328.318 146.91 328.561C147.141 328.804 147.634 329.231 148.006 329.508C148.378 329.786 149.164 330.468 149.752 331.024C150.34 331.579 151.321 332.469 151.932 333.002C152.543 333.534 152.872 333.888 152.664 333.789C152.456 333.69 152.683 333.96 153.169 334.389C153.655 334.818 154.148 335.174 154.263 335.18C154.379 335.186 154.853 335.581 155.317 336.058C155.781 336.536 156.76 337.348 157.493 337.864C158.227 338.379 158.946 338.9 159.091 339.02C159.237 339.141 159.64 339.478 159.987 339.768C160.635 340.309 163.204 342.008 163.375 342.008C163.529 342.008 168.434 345.369 168.576 345.572C168.646 345.673 168.992 345.828 169.344 345.917C170.319 346.161 173.084 348.336 175.731 350.941C177.937 353.112 180.43 355.14 180.891 355.14C180.999 355.14 181.279 355.339 181.513 355.582C182.341 356.44 182.885 356.907 183.057 356.907C183.3 356.907 185.287 358.21 185.748 358.672C186.215 359.14 187.163 359.685 187.509 359.685C187.65 359.685 187.964 359.863 188.207 360.08C188.983 360.774 190.389 361.689 191.3 362.093C192.947 362.822 194.203 363.539 194.517 363.93C194.69 364.145 194.904 364.246 194.994 364.157C195.084 364.067 195.454 364.193 195.817 364.437C197.728 365.721 198.941 365.768 199.394 364.575C199.6 364.035 199.706 363.977 200.017 364.234C200.318 364.484 200.391 364.475 200.391 364.19C200.391 363.837 201.723 362.906 202.37 362.806C202.556 362.777 203.124 362.48 203.633 362.146C205.758 360.75 206.708 360.19 206.952 360.19C207.093 360.19 207.209 360.077 207.209 359.938C207.209 359.799 207.335 359.685 207.489 359.685C207.642 359.685 208.273 359.344 208.89 358.928C209.507 358.511 210.121 358.17 210.252 358.17C210.384 358.17 210.492 358.076 210.492 357.96C210.492 357.845 210.794 357.589 211.164 357.392C211.533 357.195 212.14 356.75 212.513 356.402C212.885 356.055 213.521 355.601 213.925 355.393C214.328 355.185 214.716 354.957 214.785 354.886C214.855 354.816 215.366 354.421 215.922 354.01C216.477 353.598 217.671 352.519 218.574 351.612C220.358 349.822 222.922 347.572 223.586 347.214C223.815 347.091 224.23 346.794 224.507 346.555C224.785 346.316 225.632 345.792 226.389 345.39C227.898 344.59 227.953 344.554 229.053 343.645C229.47 343.301 229.9 343.019 230.008 343.019C230.357 343.018 235.582 339.42 236.587 338.489C237.12 337.994 237.746 337.485 237.977 337.358C238.207 337.231 238.48 337.004 238.582 336.853C238.684 336.702 238.769 336.648 238.771 336.732C238.776 336.912 240.361 335.543 242.024 333.924C242.668 333.297 243.638 332.446 244.181 332.033C244.723 331.62 245.575 330.877 246.075 330.382C247.143 329.322 250.791 326.256 253.295 324.314C254.268 323.561 255.101 322.858 255.147 322.754C255.193 322.649 255.351 322.564 255.496 322.564C255.642 322.564 255.945 322.365 256.17 322.122C256.394 321.879 257.206 321.258 257.974 320.741C258.742 320.224 259.594 319.597 259.868 319.347C260.142 319.097 261.105 318.394 262.007 317.785C262.91 317.176 263.706 316.61 263.775 316.527C264.036 316.217 265.531 315.241 265.746 315.241C265.869 315.241 266.175 315.013 266.427 314.736C266.678 314.458 267.018 314.231 267.181 314.231C267.345 314.231 267.81 313.893 268.215 313.48C268.62 313.067 269.07 312.726 269.214 312.722C269.358 312.719 269.869 312.379 270.35 311.968C270.831 311.557 271.321 311.216 271.438 311.211C271.556 311.205 271.982 310.965 272.385 310.678C272.789 310.391 273.119 310.225 273.119 310.309C273.119 310.394 273.431 310.173 273.813 309.819C274.195 309.464 274.726 309.105 274.993 309.02C275.26 308.935 275.601 308.763 275.751 308.637C276.095 308.346 278.441 306.651 279.192 306.15C280.239 305.451 284.987 301.284 284.987 301.064C284.987 300.945 285.106 300.847 285.251 300.847C285.396 300.847 285.822 300.557 286.198 300.202C286.574 299.848 287.677 298.91 288.649 298.119C289.621 297.328 290.507 296.539 290.618 296.365C290.73 296.191 290.928 296.049 291.06 296.049C291.192 296.049 291.511 295.85 291.767 295.607C292.547 294.87 293.321 294.278 293.321 294.42C293.321 294.493 293.576 294.314 293.889 294.022C294.374 293.569 296.218 292.24 297.56 291.377C299.18 290.335 301.311 288.127 301.825 286.958C302.314 285.847 302.888 282.189 302.671 281.567C302.582 281.31 302.592 280.515 302.694 279.799C302.796 279.084 302.895 277.589 302.913 276.478C302.944 274.621 303.124 273.186 303.532 271.554C303.618 271.207 303.745 270.468 303.812 269.912C303.88 269.357 304.038 268.277 304.163 267.513C304.288 266.75 304.466 265.613 304.558 264.988C304.65 264.363 304.792 263.681 304.873 263.473C304.953 263.265 305.043 262.81 305.072 262.463C305.101 262.116 305.195 261.377 305.282 260.822C305.653 258.442 306.035 255.436 306.098 254.382C306.136 253.757 306.186 253.246 306.21 253.246C306.233 253.246 306.285 252.848 306.325 252.362C306.365 251.876 306.487 250.399 306.595 249.079C306.853 245.948 306.861 242.757 306.62 238.094C306.513 236.011 306.428 234.136 306.432 233.928C306.435 233.719 306.421 232.526 306.401 231.276C306.327 226.805 306.396 221.889 306.567 219.281C306.663 217.823 306.762 215.863 306.786 214.925C306.811 213.988 306.888 213.221 306.957 213.221C307.026 213.22 307.109 212.55 307.141 211.73C307.173 210.911 307.261 209.803 307.338 209.268C307.415 208.734 307.536 207.217 307.606 205.897C307.676 204.578 307.805 203.328 307.893 203.12C307.98 202.911 308.074 202.229 308.101 201.604C308.387 194.926 308.52 194.429 309.777 195.335C311.254 196.4 313.634 197.124 316.679 197.437C317.374 197.508 318.169 197.607 318.447 197.657C318.932 197.745 321.616 197.501 323.544 197.195C324.787 196.997 327.111 196.34 328.043 195.922C328.459 195.735 329.141 195.501 329.558 195.401C329.975 195.301 330.77 194.986 331.326 194.7C331.881 194.414 332.456 194.203 332.604 194.231C332.751 194.259 333.096 194.082 333.371 193.839C333.646 193.596 334.029 193.362 334.222 193.319C334.415 193.276 334.883 193.02 335.261 192.751C335.639 192.481 336.056 192.261 336.187 192.261C336.317 192.261 336.638 192.024 336.9 191.735C337.162 191.446 337.768 191.045 338.248 190.845C339.407 190.361 341.78 187.854 342.546 186.306C343.26 184.862 343.709 184.46 344.437 184.613L344.962 184.724L344.448 184.262C343.846 183.721 343.47 182.812 343.06 180.897C342.896 180.133 342.66 179.311 342.536 179.07C342.412 178.829 342.31 178.462 342.31 178.255C342.31 178.048 342.084 177.507 341.806 177.052C341.529 176.598 341.302 176.027 341.301 175.784C341.301 175.541 341.205 175.342 341.088 175.342C340.972 175.342 340.747 175.057 340.588 174.709C340.429 174.361 339.965 173.707 339.557 173.257C339.148 172.806 338.58 172.154 338.294 171.806C338.008 171.459 337.675 171.061 337.553 170.923C337.223 170.546 336.249 169.743 335.114 168.913C334.558 168.507 333.713 167.884 333.236 167.528C332.236 166.784 330.457 165.699 329.179 165.055C328.693 164.81 328.239 164.553 328.169 164.483C328.1 164.414 327.816 164.319 327.538 164.274C327.26 164.228 326.786 164.032 326.484 163.839C325.918 163.476 324.588 163.144 323.813 163.173C323.256 163.193 323.26 163.034 323.854 161.674C324.298 160.658 324.492 159.028 324.413 156.98C324.394 156.5 324.154 155.957 323.823 155.649C323.314 155.175 323.293 155.057 323.592 154.314C324.738 151.456 324.821 149.168 323.868 146.68C323.275 145.132 323.2 144.119 323.412 140.519C323.551 138.171 323.171 136.311 322.093 134.054C321.115 132.005 320.927 130.146 321.536 128.528C322.48 126.019 321.836 117.988 320.502 115.62C320.322 115.302 320.205 113.384 320.186 110.443C320.15 105.027 319.979 104.212 318.362 101.751C316.987 99.6567 316.848 98.8887 316.827 93.2837C316.812 89.2527 316.693 88.3487 315.415 82.5387C314.574 78.7157 314.535 78.2637 314.423 70.9227C314.37 67.4377 314.215 64.5667 314.059 64.1667C313.91 63.7857 313.856 63.4727 313.939 63.4727C314.022 63.4727 313.969 63.3267 313.821 63.1497C313.673 62.9717 313.502 62.5447 313.439 62.2027C313.377 61.8597 313.021 60.8397 312.648 59.9377C312.275 59.0347 311.915 58.0157 311.848 57.6727C311.78 57.3297 311.591 56.8867 311.426 56.6887C311.243 56.4677 311.104 55.1967 311.067 53.3987C310.977 49.0577 310.938 48.4907 310.691 47.9977C310.502 47.6187 310.558 47.5667 311.047 47.6677C312.157 47.8957 313.651 48.1637 314.056 48.2057C314.281 48.2297 314.586 48.3237 314.734 48.4157C314.883 48.5077 315.718 48.6427 316.591 48.7147C317.463 48.7877 318.254 48.9707 318.347 49.1217C318.44 49.2727 318.625 49.3287 318.758 49.2467C318.891 49.1647 319.386 49.1927 319.859 49.3077C320.726 49.5197 323.251 49.9777 324.886 50.2197C325.372 50.2917 326.054 50.4077 326.401 50.4767C330.17 51.2347 334.155 51.0247 336.265 49.9547C336.951 49.6077 337.513 49.3837 337.513 49.4587C337.513 49.5817 338.51 49.0047 339.154 48.5097C339.293 48.4027 339.71 48.0887 340.081 47.8107C341.383 46.8357 342.139 45.1167 342.163 43.0767L342.184 41.2407L342.942 41.4127C343.358 41.5067 343.927 41.6137 344.204 41.6487C344.482 41.6847 344.709 41.7287 344.709 41.7467C344.709 41.7647 345.221 41.8297 345.846 41.8917C346.471 41.9537 347.778 42.0907 348.75 42.1957C349.722 42.3017 351.427 42.3777 352.538 42.3647C358.972 42.2927 361.588 42.1727 363.341 41.8677C364.419 41.6807 365.725 41.4757 366.243 41.4127C368.288 41.1627 375.223 38.9137 375.851 38.2957C376.035 38.1157 376.324 37.9677 376.494 37.9677C376.664 37.9677 377.633 37.4567 378.647 36.8317C379.66 36.2067 380.541 35.6947 380.603 35.6947C380.883 35.6947 383.517 33.5977 383.641 33.2767C383.717 33.0787 383.924 32.9167 384.101 32.9167C384.278 32.9167 384.806 32.4097 385.273 31.7887C385.741 31.1677 386.266 30.6567 386.439 30.6527C386.613 30.6477 386.755 30.5477 386.755 30.4287C386.755 30.3097 387.011 29.9307 387.323 29.5847C389.191 27.5207 389.57 27.0507 389.83 26.4797C389.989 26.1317 390.201 25.8467 390.301 25.8467C390.475 25.8467 392.31 22.9247 392.31 22.6477C392.31 22.5747 392.518 22.2137 392.772 21.8447C393.027 21.4767 393.5 20.4927 393.824 19.6597C394.148 18.8267 394.513 18.0137 394.634 17.8547C396.398 15.5387 392.998 14.9637 377.664 14.9877C374.256 14.9937 373.765 14.9917 373.497 14.9707C373.358 14.9597 372.336 14.9547 371.225 14.9587C367.537 14.9737 362.222 14.6887 360.239 14.3707C359.892 14.3157 358.302 14.1987 356.704 14.1117C355.107 14.0247 353.459 13.9137 353.043 13.8657C352.392 13.7897 344.182 13.3077 340.811 13.1477C339.76 13.0977 339.717 13.0677 340.116 12.6697C341.135 11.6577 340.515 8.76567 338.929 7.13367C337.128 5.27967 329.798 2.20367 326.032 1.72167C325.495 1.65267 324.932 1.49967 324.781 1.38167C324.631 1.26467 324.337 1.16767 324.129 1.16667C323.92 1.16667 323.068 1.02967 322.235 0.863675C321.401 0.697675 320.038 0.552675 319.204 0.539675C318.371 0.527675 317.558 0.415675 317.397 0.291675C317.236 0.167675 316.668 0.0676747 316.134 0.0706747C315.601 0.0736747 314.709 0.0736746 314.154 0.0716746C311.053 0.0586746 305.745 0.477675 304.558 0.828675C304.141 0.952675 303.496 1.12067 303.124 1.20267C302.751 1.28467 302.264 1.53567 302.04 1.75867C301.669 2.13067 301.499 2.13167 300.066 1.77167C298.167 1.29567 294.881 0.943674 295.166 1.24767C295.279 1.36767 296.472 1.65467 297.818 1.88567C300.99 2.42967 302.461 2.83467 302.287 3.11667C302.21 3.24067 302.576 3.54167 303.1 3.78567C303.624 4.02967 304.11 4.30567 304.179 4.39967C304.305 4.56867 305.659 5.20967 307.588 6.01267C309.465 6.79367 307.878 7.11367 305.252 6.48367C304.94 6.40867 304.684 6.46467 304.684 6.60867C304.684 6.75267 305.314 7.01167 306.084 7.18367C307.163 7.42567 307.578 7.65667 307.893 8.19067C308.302 8.88267 309.178 9.43268 309.873 9.43268C310.075 9.43268 310.24 9.52268 310.24 9.63268C310.24 9.74268 310.866 10.0457 311.631 10.3057C314.83 11.3927 316.327 14.6747 314.305 16.1647C314.086 16.3267 313.81 16.3987 313.692 16.3247C313.509 16.2127 310.56 16.2117 306.918 16.3227C306.195 16.3447 305.734 16.1367 304.791 15.3647C303.613 14.3987 302.431 13.6937 299.634 12.2887C297.961 11.4487 295.209 11.2217 292.914 11.7347C292.096 11.9167 291.313 12.0767 291.174 12.0887C290.418 12.1547 288.993 12.8137 288.791 13.1917C288.576 13.5917 288.66 16.9797 288.902 17.6947C289.078 18.2157 288.643 18.2837 286.332 18.0967C284.175 17.9217 284.143 17.9107 285.328 17.7317C288.338 17.2797 285.654 16.8347 279.491 16.7647C278.747 16.7567 278.671 16.6867 278.72 16.0537C278.749 15.6677 278.684 15.2087 278.576 15.0327C278.465 14.8547 278.527 14.5327 278.716 14.3047C278.984 13.9787 278.988 13.8737 278.733 13.7877C278.557 13.7287 278.267 13.5347 278.089 13.3567C277.75 13.0177 275.635 12.3397 274.129 12.0887C273.643 12.0077 272.87 11.8207 272.412 11.6737C271.954 11.5257 271.329 11.3677 271.023 11.3227C270.717 11.2767 269.144 10.8777 267.526 10.4357C263.506 9.33767 262.452 9.87468 263.054 12.7147C263.157 13.2017 263.283 14.1957 263.333 14.9247L263.424 16.2507L262.4 16.2737C259.151 16.3467 251.156 16.0897 250.973 15.9057C250.891 15.8247 250.964 15.5897 251.135 15.3837C251.305 15.1787 251.385 14.9137 251.312 14.7957C251.24 14.6777 251.271 14.1767 251.383 13.6817C251.682 12.3557 250.606 11.0027 249.79 11.6797C249.584 11.8507 249.171 11.8627 248.607 11.7127C248.13 11.5867 247.399 11.4287 246.982 11.3607C245.516 11.1227 243.532 10.6997 243.348 10.5857C242.846 10.2747 236.779 9.41868 236.05 9.55568C235.066 9.74068 234.068 11.0797 234.514 11.6177C234.659 11.7927 234.697 12.0667 234.598 12.2277C234.499 12.3877 234.549 12.5997 234.709 12.6997C234.869 12.7987 235.071 13.4747 235.157 14.2017L235.314 15.5237L230.416 15.3797C227.722 15.3007 225.036 15.2377 224.448 15.2387L223.379 15.2407L223.454 13.6617C223.496 12.7937 223.434 11.8847 223.315 11.6417C223.191 11.3857 223.198 11.1997 223.333 11.1997C223.651 11.1997 223.847 10.0457 223.597 9.64067C223.441 9.38967 222.121 9.30068 218.016 9.26468C215.059 9.23868 212.149 9.19767 211.55 9.17167C210.401 9.12367 210.131 9.31968 209.332 10.7817C208.881 11.6077 209.029 11.9337 209.63 11.4347C210.392 10.8027 210.784 11.7507 210.35 13.1797C210.153 13.8267 209.991 14.4507 209.99 14.5657C209.988 14.6797 208.822 14.6967 207.399 14.6027C203.622 14.3517 187.704 14.2507 187.26 14.4747C186.346 14.9347 185.492 15.0017 185.492 14.6137C185.492 14.3427 185.755 14.2307 186.389 14.2307H187.286L186.628 13.3677C186.266 12.8937 185.94 12.2407 185.902 11.9157C185.632 9.59868 184.613 8.77668 182.423 9.10968C181.403 9.26468 178.619 9.35868 176.236 9.31868C173.854 9.27868 171.795 9.31667 171.662 9.40267C171.271 9.65367 171.036 10.6927 171.295 11.0227C171.426 11.1897 171.546 12.2357 171.562 13.3467L171.591 15.3667L165.789 15.4197C162.598 15.4497 159.979 15.3927 159.968 15.2937C159.957 15.1947 159.909 14.9057 159.861 14.6497C159.812 14.3947 159.917 13.7697 160.094 13.2607C161.01 10.6217 159.886 9.15168 157.269 9.56468C156.611 9.66968 155.789 9.77668 155.442 9.80468C154.904 9.84768 152.916 10.2797 146.654 11.7137C145.981 11.8677 145.403 11.8737 145.131 11.7277C143.85 11.0427 143.291 12.7467 143.917 15.4297C144.063 16.0567 144.317 15.9997 140.795 16.1337C138.262 16.2297 132.988 16.3217 132.245 16.2827C131.625 16.2497 131.594 15.5557 132.071 12.3367C132.349 10.4587 131.385 9.51468 129.626 9.94168C129.033 10.0867 128.207 10.2547 127.79 10.3177C127.374 10.3797 126.805 10.5367 126.528 10.6667C126.039 10.8947 121.119 12.0857 119.836 12.2867C117.869 12.5937 114.952 14.4827 116.445 14.4827C116.741 14.4827 116.807 14.6087 116.676 14.9247C116.576 15.1677 116.459 15.6327 116.417 15.9567C116.312 16.7647 116.589 16.7007 112.383 16.8897C110.302 16.9827 108.498 17.1537 108.376 17.2687C108.184 17.4497 108.572 17.5587 110.492 17.8587C110.701 17.8907 109.806 18.0027 108.505 18.1057C105.97 18.3067 105.686 18.2417 106.115 17.5537C106.617 16.7507 106.404 13.2367 105.828 12.8157C104.44 11.8007 98.0024 10.9847 96.6914 11.6567C96.4354 11.7887 95.6564 12.1697 94.9624 12.5047C93.2284 13.3407 91.2134 14.5297 90.9894 14.8497C90.8874 14.9947 90.8014 15.0067 90.7994 14.8757C90.7974 14.7437 90.4174 15.0027 89.9554 15.4507L89.1154 16.2647L86.1044 16.2707C80.7854 16.2817 80.9764 16.3027 80.3094 15.6357C78.6314 13.9577 80.5804 11.1157 84.2304 9.91568C85.4934 9.49968 87.2114 8.38467 87.3394 7.89667C87.4354 7.52867 87.7974 7.39567 89.7454 7.01167C89.9324 6.97467 90.1494 6.87967 90.2294 6.79967C90.5684 6.46167 90.0324 6.41967 88.7204 6.68367C86.9844 7.03167 85.8204 6.64467 87.1344 6.15567C88.5444 5.63067 92.3074 3.62767 92.7894 3.14567C93.2904 2.64467 95.7394 1.99267 98.2044 1.70267C98.9984 1.60867 99.7194 1.41867 99.8054 1.27867C100.027 0.918675 97.2174 1.23767 94.5064 1.87867C93.4854 2.12067 93.2444 2.10567 92.9914 1.78367C92.4434 1.08867 89.7724 0.554675 85.6294 0.311675C83.4014 0.181675 81.2944 0.0456746 80.9474 0.00967456C80.6004 -0.0253254 79.7474 0.0376747 79.0534 0.149675ZM85.7454 3.34167C87.6024 3.37967 87.5344 3.45667 84.6224 4.63167C83.7974 4.96567 82.4334 5.75867 81.5924 6.39467C80.7514 7.03067 79.7574 7.74567 79.3834 7.98267C77.3194 9.29367 75.9424 13.8437 76.9274 16.1017C77.9874 18.5297 81.4954 21.1447 84.7384 21.9247C87.0204 22.4727 87.3294 22.6237 87.4194 23.2297C87.4574 23.4887 87.5624 24.0047 87.6524 24.3777C87.7604 24.8197 87.6774 25.2557 87.4124 25.6327C87.1904 25.9507 87.0074 26.1417 87.0074 26.0557C87.0074 25.9697 86.5854 25.9947 86.0694 26.1117C85.5194 26.2357 85.0144 26.2257 84.8484 26.0877C84.4184 25.7317 81.4534 26.5737 78.5814 27.8677C76.0224 29.0207 72.5754 33.1977 72.5224 35.2097C72.4884 36.5167 74.6814 40.6487 76.0074 41.7757C76.6604 42.3297 76.1934 42.5877 73.3224 43.2587C64.2234 45.3837 59.9874 43.8727 59.9874 38.5017C59.9874 36.5837 60.2684 35.7337 60.5404 36.8317C60.6604 37.3187 60.6904 37.0527 60.6224 36.0827C60.5084 34.4307 60.7624 33.8317 62.4984 31.6727C63.3404 30.6257 63.3534 30.5837 62.7024 31.0077C62.3204 31.2567 62.0074 31.3857 62.0074 31.2947C62.0074 30.7497 63.1354 29.0827 63.9524 28.4197L64.9124 27.6407L63.2704 28.0167C62.3674 28.2237 60.6064 28.6697 59.3564 29.0087C44.1994 33.1177 27.8114 31.3607 12.3794 23.9737C9.56342 22.6257 6.49242 20.2907 7.53642 20.2907C7.59942 20.2907 8.31942 20.5887 9.13542 20.9517C10.6064 21.6067 15.1824 23.3217 15.4604 23.3217C15.5394 23.3217 13.9714 22.3427 11.9754 21.1477C9.97942 19.9517 8.26142 18.8957 8.15742 18.7997C8.05442 18.7047 9.81542 18.6167 12.0724 18.6047C23.1754 18.5467 31.2604 18.1777 32.7234 17.6617C32.9274 17.5897 33.5484 17.4757 34.1034 17.4077C35.6984 17.2147 38.3414 16.7417 38.5524 16.6117C38.6574 16.5457 39.2344 16.4327 39.8334 16.3607C40.4324 16.2877 41.4904 16.1137 42.1844 15.9727C42.8794 15.8327 43.6464 15.6777 43.8894 15.6287C44.9524 15.4157 43.8194 16.0117 39.5774 17.9007L37.7274 18.7237L38.5674 18.9957C41.9094 20.0787 44.8024 20.5427 48.2454 20.5497L51.7804 20.5567L50.8964 21.2927C45.8314 25.5107 38.6554 26.9727 28.9274 25.7677C25.1614 25.3017 21.1754 24.9857 21.3514 25.1687C22.1584 26.0027 29.8084 27.0947 36.1244 27.2757C47.2024 27.5947 53.1764 26.4277 56.5974 23.2787C57.9454 22.0367 59.5684 19.7627 59.2894 19.5067C59.0764 19.3107 55.0084 18.8997 49.5074 18.5187C44.9674 18.2037 44.4974 18.1197 44.7644 17.6717C45.6204 16.2327 46.8554 15.2067 47.8404 15.1167C48.4104 15.0647 49.0764 14.9627 49.3194 14.8907C49.5614 14.8177 50.2714 14.6997 50.8964 14.6257C51.5214 14.5527 52.2604 14.4487 52.5384 14.3937C55.8254 13.7457 55.8794 13.7667 58.2144 16.5657C59.9674 18.6697 60.9664 19.2447 59.9664 17.5767C59.6544 17.0557 59.2224 16.4217 59.0064 16.1687C58.6354 15.7337 58.6544 15.7187 59.3534 15.8937C60.0794 16.0757 60.0724 16.0577 59.0154 15.0537C56.8714 13.0127 58.1144 9.67267 61.8814 7.35467C63.6524 6.26467 66.8024 5.28467 67.8794 5.48767C69.2744 5.75167 69.0794 5.96668 66.3644 7.15468C62.6754 8.76867 62.5694 8.99068 65.3374 9.31168C67.3084 9.53968 67.3384 9.72468 65.6934 11.4487C64.1614 13.0547 64.0114 13.3307 64.7854 13.1107C65.0634 13.0317 65.5184 12.9037 65.7954 12.8247C66.5934 12.5977 66.4144 13.2207 65.1674 15.0057C63.8734 16.8587 63.8284 17.0077 64.5604 17.0077C64.9674 17.0077 65.0494 17.1117 64.9104 17.4497C64.2604 19.0297 64.1424 19.0077 68.0204 18.0377C69.6444 17.6317 71.2564 17.2547 71.6034 17.2017C71.9514 17.1477 71.4634 17.0117 70.5194 16.8997C69.5764 16.7867 68.3554 16.7667 67.8054 16.8547C66.3814 17.0817 66.5444 16.7367 68.6364 15.0977L70.4674 13.6627L69.1414 13.8437C67.4784 14.0717 67.4864 13.9507 69.2684 12.1277C70.1994 11.1737 70.5394 10.6887 70.2154 10.7727C67.3674 11.5107 67.0684 11.1067 69.1984 9.39968C71.1074 7.86968 71.1434 7.80568 69.9624 8.02668C68.3264 8.33368 69.0184 7.66467 71.6334 6.41167L74.1874 5.18767L72.2284 5.00467C69.5544 4.75367 70.9654 4.23367 75.6444 3.74567C76.4084 3.66567 77.6014 3.51867 78.2954 3.41767C79.4404 3.25167 80.6794 3.23867 85.7454 3.34167ZM314.115 3.43467C314.051 3.53867 313.635 3.62967 313.192 3.63667C312.679 3.64467 313.22 3.86467 314.683 4.24267C318.285 5.17367 320.15 6.37868 318.02 6.39768C317.273 6.40468 317.254 6.89767 317.99 7.17667C319.392 7.70767 321.856 9.00067 321.856 9.20667C321.856 9.32167 321.231 9.88767 320.467 10.4647C318.802 11.7217 318.817 11.4847 320.341 12.4627C321.883 13.4527 321.888 13.5487 320.461 15.2197C318.519 17.4957 318.403 18.0277 319.962 17.5127C321.069 17.1477 321.292 17.3117 320.922 18.2177C320.768 18.5937 320.328 19.6687 319.944 20.6067C319.034 22.8277 319.106 22.8527 322.214 21.4067C325.075 20.0767 325.341 19.8527 323.518 20.3117C321.804 20.7437 321.853 20.5777 324.213 17.9787C326.705 15.2337 326.696 15.3277 324.412 15.8477C320.158 16.8147 319.895 16.3997 323.176 13.8987C325.067 12.4577 325.051 12.3797 322.803 12.0837C321.282 11.8847 321.299 11.7437 322.992 10.4647C324.696 9.17867 324.708 9.30468 322.803 8.43968L321.225 7.72167L322.339 7.23667L323.453 6.75067L319.893 5.26267C317.936 4.44467 316.379 3.70167 316.434 3.61267C316.541 3.43967 318.214 3.49367 319.457 3.71067C319.874 3.78367 320.896 3.92167 321.73 4.01767C322.563 4.11267 323.382 4.30067 323.549 4.43467C323.717 4.56867 323.978 4.60167 324.129 4.50767C324.28 4.41467 324.572 4.47767 324.777 4.64867C324.983 4.81967 325.214 4.89667 325.29 4.81967C325.908 4.20167 333.128 7.01568 334.971 8.59268C337.379 10.6547 337.746 13.7657 335.776 15.4157L335.114 15.9707L335.721 15.8177C336.32 15.6687 336.316 15.6837 335.52 16.8417C334.324 18.5797 335.325 18.4857 336.804 16.7217C337.402 16.0087 338.191 15.0757 338.557 14.6477L339.222 13.8697L342.218 14.3217C343.866 14.5697 345.555 14.8737 345.972 14.9977C346.683 15.2087 346.676 15.2127 345.85 15.0717C345.242 14.9677 345.878 15.3937 347.915 16.4527C351.193 18.1557 352.159 18.7417 352.159 19.0257C352.159 19.1317 350.426 20.0777 348.308 21.1277C346.19 22.1777 342.873 24.0947 340.936 25.3887L337.416 27.7407L339.042 27.8997C346.408 28.6187 354.088 28.4097 359.296 27.3477C364.856 26.2147 376.942 22.1877 381.138 20.0697C382.913 19.1727 383.182 18.8827 381.768 19.3897C381.247 19.5767 378.264 20.6487 375.139 21.7717C366.694 24.8087 366.551 24.8377 358.851 25.1117C353.225 25.3117 350.224 25.5617 342.437 26.4817C340.461 26.7157 341.624 26.1897 347.72 24.0917C354.637 21.7117 358.025 20.0147 357.311 19.2867C356.826 18.7917 352.489 17.0327 349.594 16.1557C346.802 15.3107 346.215 14.8697 348.371 15.2377C348.996 15.3437 350.36 15.5667 351.401 15.7327C352.443 15.8987 354.489 16.2707 355.947 16.5597C357.405 16.8487 358.826 17.1147 359.103 17.1517C359.381 17.1887 359.608 17.2427 359.608 17.2717C359.608 17.3017 359.893 17.3507 360.24 17.3807C360.873 17.4347 362.09 17.6397 363.27 17.8907C363.617 17.9647 364.924 18.0777 366.174 18.1417C367.424 18.2067 368.447 18.2737 368.447 18.2907C368.447 18.3197 377.125 18.5187 381.249 18.5837C382.439 18.6027 383.134 18.7097 383.041 18.8607C382.954 19.0007 383.021 19.0247 383.195 18.9177C383.747 18.5757 386.306 18.4817 386.198 18.8067C386.057 19.2267 379.03 23.1007 375.896 24.4847C361.923 30.6557 349.832 32.4317 335.021 30.4897C333.443 30.2827 332.088 30.1767 332.012 30.2527C331.935 30.3297 332.119 30.3917 332.42 30.3917C332.738 30.3917 332.967 30.5507 332.967 30.7707C332.967 30.9787 333.178 31.1497 333.435 31.1497C333.693 31.1497 334.204 31.4277 334.572 31.7687C335.515 32.6437 335.452 33.3827 334.502 32.5797C334.283 32.3947 333.652 31.9717 333.1 31.6407L332.096 31.0377L332.698 31.9147C333.03 32.3967 333.581 33.0967 333.924 33.4707C334.277 33.8537 334.484 34.3157 334.402 34.5307C334.302 34.7907 334.372 34.8667 334.621 34.7717C336.041 34.2267 333.006 38.5347 330.085 41.2097C327.834 43.2727 325.24 44.0287 320.414 44.0287C316.524 44.0287 316.584 44.0937 318.636 42.1027C321.644 39.1847 323.088 35.5877 322.092 33.4937C320.116 29.3397 314.424 25.9977 309.473 26.0857L307.822 26.1147L307.502 25.2317C307.261 24.5647 307.253 24.2177 307.468 23.8147C307.625 23.5217 307.695 23.1307 307.625 22.9457C307.503 22.6287 308.002 22.4017 309.356 22.1567C310.61 21.9307 312.215 21.3897 312.831 20.9857C313.202 20.7427 313.672 20.5437 313.876 20.5437C314.439 20.5437 317.383 17.5297 318.066 16.2547C318.611 15.2357 318.474 11.9657 317.833 10.7207C316.857 8.82368 313.505 5.92967 311.25 5.03867C310.625 4.79167 310 4.50067 309.861 4.39267C309.722 4.28367 309.154 4.03967 308.598 3.84867L307.588 3.50267L308.851 3.37367C310.76 3.17967 314.248 3.21967 314.115 3.43467ZM339.024 11.5157C339.026 11.6197 338.914 11.7047 338.775 11.7047C338.636 11.7047 338.524 11.4497 338.526 11.1367C338.53 10.5947 339.012 10.9617 339.024 11.5157ZM178.913 11.7287C179.669 11.7067 180.756 11.7587 181.327 11.8447L182.365 12.0007L182.254 13.5277C181.966 17.5087 185.595 22.2617 189.659 23.2277C189.798 23.2607 190.707 23.5087 191.679 23.7787C193.169 24.1927 195.221 24.4527 196.225 24.3527C196.364 24.3387 196.989 24.2887 197.614 24.2417C198.239 24.1947 200.057 23.8977 201.654 23.5827C203.251 23.2667 205.137 22.9047 205.844 22.7767C207.349 22.5047 207.686 22.2757 210.119 19.8767C212.072 17.9517 212.522 17.0197 213.293 13.3087L213.616 11.7557H215.459C216.473 11.7557 217.973 11.6777 218.792 11.5827L220.281 11.4097L220.402 12.3787C220.468 12.9107 220.417 13.5527 220.288 13.8047C219.234 15.8597 222.106 23.3747 223.594 22.4557C223.708 22.3857 224.044 22.6087 224.341 22.9507C224.639 23.2937 224.99 23.5737 225.121 23.5737C225.251 23.5737 225.678 23.7007 226.069 23.8567C227.341 24.3627 230.675 24.6127 232.215 24.3167C233.704 24.0317 236.914 21.2327 237.174 19.9917C237.253 19.6187 237.453 19.2607 237.621 19.1967C238.096 19.0137 238.583 16.5357 238.485 14.7967C238.394 13.1757 238.541 12.9767 239.659 13.2137C240.069 13.3007 242.482 13.2707 245.668 13.1377L248.647 13.0147L248.533 13.6857C248.471 14.0547 248.356 14.5267 248.277 14.7357C248.198 14.9437 248.077 15.3987 248.008 15.7457C247.939 16.0927 247.768 16.8317 247.627 17.3867C245.913 24.1817 253.995 28.9607 261.531 25.6087C263.169 24.8797 266.412 21.5807 265.947 21.1157C265.863 21.0317 265.949 20.7837 266.138 20.5637C266.941 19.6297 267.039 17.3807 266.416 14.1557C266.232 13.2037 266.235 13.1987 266.96 13.3447C270.647 14.0857 273.361 14.4637 275.076 14.4747C276.675 14.4847 276.666 14.3257 275.202 16.5637C274.542 17.5717 273.916 18.5307 273.811 18.6927C273.706 18.8557 273.772 19.1407 273.958 19.3267C274.144 19.5127 274.372 20.2227 274.466 20.9047C275.109 25.5997 278.907 28.3257 285.052 28.5057C286.268 28.5417 287.327 28.4667 287.405 28.3407C287.484 28.2147 287.641 28.1687 287.756 28.2397C288.273 28.5597 290.466 26.8177 291.351 25.3847C292.686 23.2267 292.81 19.6497 291.731 14.4167C291.661 14.0767 294.084 13.4427 296.01 13.2967C297.457 13.1877 297.691 13.2497 299.441 14.2097C300.473 14.7767 301.504 15.2407 301.731 15.2407C302.187 15.2407 303.859 16.1087 304.395 16.6237C305.002 17.2077 302.473 17.2557 301.735 16.6747C299.935 15.2597 294.127 17.3917 294.358 19.3817C294.446 20.1337 294.295 20.7957 293.961 21.1297C292.676 22.4137 291.504 28.0887 292.087 30.1967C292.174 30.5127 292.389 31.3957 292.566 32.1597C293.389 35.7247 295.183 40.4147 296.092 41.3767C296.726 42.0477 296.839 42.4247 297.078 44.6597C297.362 47.3177 297.719 48.7507 298.869 51.8567C299.954 54.7867 300.122 55.4137 300.39 57.5257C300.81 60.8407 300.035 65.7067 298.006 72.4837C297.51 74.1407 297.415 74.8897 297.527 76.2717C297.633 77.5877 297.474 79.0337 296.851 82.4117C295.574 89.3457 295.839 91.4647 298.835 98.2277C301.169 103.497 301.37 106.896 299.789 114.357C298.662 119.671 298.626 122.081 299.631 124.691C300.16 126.062 300.236 126.148 300.552 125.716C300.872 125.278 300.896 125.295 300.896 125.963C300.896 126.357 301.322 128.51 301.843 130.746C303.618 138.364 302.974 145.075 299.401 156.196C297.831 161.082 297.225 163.206 296.853 165.114C295.362 172.78 287.43 181.763 277.542 186.983C274.623 188.524 274.545 188.586 275.334 188.748C277.436 189.178 289.046 187.192 294.588 185.455L296.856 184.743L296.855 186.798C296.854 192.618 296.045 198.572 294.328 205.401C292.318 213.397 292.197 215.191 293.349 219.799C296.372 231.881 285.921 249.647 269.607 260.158C268.718 260.731 268.127 261.2 268.294 261.2C269.249 261.2 284.146 257.159 292.078 254.748C294.568 253.991 296.662 253.372 296.731 253.372C297.465 253.372 292.947 264.322 290.177 269.259C287.633 273.791 282.52 281.09 277.412 287.482C277.092 287.881 269.117 291.456 249.76 299.876C247.816 300.722 240.731 303.85 234.017 306.828C220.127 312.988 216.783 314.284 209.48 316.334C196.703 319.921 189.436 320.872 184.562 319.596C180.671 318.576 169.626 313.669 162.275 309.694C151.959 304.114 147.205 301.519 146.982 301.344C146.843 301.234 143.491 299.506 139.533 297.502C135.574 295.498 129.552 292.427 126.149 290.677C122.746 288.928 117.803 286.537 115.164 285.365C112.525 284.194 110.06 283.091 109.686 282.916C107.611 281.943 101.622 272.806 99.4134 267.243L98.8554 265.837L99.6304 261.94C100.057 259.797 100.477 257.106 100.563 255.96C100.649 254.815 100.806 253.877 100.911 253.877C101.017 253.877 102.279 254.151 103.715 254.486C112.697 256.58 124.756 258.304 125.357 257.58C125.704 257.162 125.784 257.237 120.088 252.681C108.536 243.44 101.913 236.545 97.3834 229.041L96.0344 226.806L96.1994 225.195C96.2904 224.308 96.8254 221.394 97.3894 218.718C99.3684 209.318 99.1734 206.815 95.7844 198.069C93.1764 191.34 92.0494 181.978 93.9144 182.526C98.9294 184.002 116.553 186.351 116.553 185.544C116.553 185.419 115.373 184.768 113.93 184.097C104.898 179.896 101.296 176.483 97.1764 168.221C94.4494 162.752 93.1414 158.611 94.2784 159.047C94.7864 159.242 103.102 159.258 104.225 159.067C105.041 158.927 106.9 158.761 110.24 158.528C114.235 158.249 119.607 156.857 121.351 155.649C122.523 154.837 124.886 153.608 124.894 153.806C124.899 153.915 125.05 153.809 125.231 153.571C125.54 153.164 125.616 153.168 126.49 153.637L127.421 154.136L127.039 153.222C126.829 152.719 126.715 152.215 126.786 152.101C126.856 151.987 126.656 151.812 126.342 151.713C125.334 151.395 121.029 147.5 119.654 145.662C118.587 144.236 117.52 142.895 117.351 142.768C116.94 142.457 115.851 140.754 115.219 139.434C114.841 138.644 114.418 137.927 114.279 137.841C114.141 137.756 114.028 137.479 114.028 137.226C114.028 136.974 113.857 136.626 113.649 136.453C113.441 136.28 113.27 135.974 113.27 135.773C113.27 135.374 110.238 130.915 109.615 130.398C109.403 130.222 109.23 129.979 109.23 129.859C109.23 129.739 109.065 129.44 108.863 129.196C107.754 127.85 106.193 125.697 105.22 124.171C104.611 123.218 103.296 121.167 102.296 119.613L100.477 116.788L101.909 115.406C103.924 113.46 105.043 110.989 104.957 108.675C104.88 106.619 102.536 102.362 101.48 102.362C101.298 102.362 101.149 102.248 101.149 102.109C101.149 101.971 101.064 101.882 100.959 101.913C100.855 101.944 100.486 101.798 100.139 101.59C99.7924 101.381 99.1674 101.022 98.7504 100.792C98.1024 100.434 97.9874 100.216 97.9584 99.2837C97.9074 97.7007 97.4334 95.6167 96.9284 94.7617C96.5764 94.1667 96.5484 93.9227 96.7854 93.5427C99.0134 89.9757 99.5174 85.6077 97.9884 83.1297L97.0684 81.6397L97.7054 79.5637C99.1374 74.8927 99.0354 70.9967 97.4154 68.4147C96.9204 67.6267 96.8494 67.3287 97.0714 66.9737C97.4254 66.4067 97.0884 66.1827 96.2134 66.4027L95.5464 66.5697L96.4674 65.2887C98.9584 61.8197 99.2464 59.2497 97.6354 54.8297C96.8874 52.7777 96.9594 52.1097 98.1344 50.1907C100.297 46.6567 100.679 44.2397 99.5364 41.3237L98.9334 39.7847L99.5254 38.3277C99.8514 37.5267 100.2 36.5207 100.3 36.0937C100.401 35.6657 100.527 35.1457 100.58 34.9377C100.856 33.8567 100.918 30.9047 100.675 30.4497C100.429 29.9907 100.495 29.9237 101.344 29.7707C102.254 29.6047 104.432 27.7007 104.432 27.0697C104.432 26.9317 105.085 27.1967 105.884 27.6587C111.443 30.8717 120.566 26.2717 120.591 20.2427C120.592 19.8687 120.707 19.4927 120.846 19.4067C121.266 19.1477 121.133 18.5347 120.467 17.6617C120.12 17.2067 119.836 16.7417 119.836 16.6297C119.836 16.5167 119.552 16.0517 119.204 15.5967C118.367 14.4997 118.307 14.5507 120.484 14.5087C122.058 14.4777 125.555 13.9577 128.354 13.3377C128.849 13.2277 128.891 13.2817 128.701 13.7847C125.764 21.5477 133.524 28.8367 141.815 26.1027C144.496 25.2177 146.37 23.8047 146.757 22.3747C146.842 22.0617 146.988 21.8057 147.082 21.8057C147.176 21.8057 147.293 21.4367 147.341 20.9857C147.561 18.9147 147.418 17.4727 146.739 14.9127C146.526 14.1067 146.351 13.3487 146.351 13.2277C146.351 13.1067 147.345 13.0567 148.56 13.1177C151.914 13.2847 156.163 13.2727 156.449 13.0957C156.768 12.8987 156.775 13.2547 156.468 14.0617C156.338 14.4037 156.294 14.7457 156.37 14.8217C156.445 14.8977 156.552 15.4487 156.607 16.0467C156.791 18.0467 156.874 18.3907 157.458 19.5337C158.028 20.6517 161.056 23.8267 161.551 23.8267C161.691 23.8267 162.193 24.0107 162.667 24.2357C163.523 24.6417 164.346 24.6357 167.563 24.1967C170.854 23.7477 174.289 20.5457 174.776 17.4727C174.974 16.2257 174.968 15.5687 174.734 13.1237L174.568 11.3857L176.053 11.5767C176.869 11.6817 178.157 11.7507 178.913 11.7287ZM185.988 13.5357C185.993 13.6397 185.827 13.7257 185.619 13.7257C185.358 13.7257 185.243 13.4697 185.249 12.9047L185.258 12.0837L185.619 12.7147C185.817 13.0627 185.983 13.4317 185.988 13.5357ZM100.615 13.4617C101.117 13.5937 101.812 13.7637 102.159 13.8377C103.422 14.1087 103.521 14.3007 103.094 15.6527C102.881 16.3287 102.63 17.3347 102.536 17.8887C102.395 18.7257 102.317 18.8297 102.073 18.5047C101.587 17.8547 100.868 17.7127 100.367 18.1667C99.9434 18.5507 99.8504 18.5417 99.0484 18.0467C98.5734 17.7527 97.9154 17.5047 97.5844 17.4957C97.1164 17.4817 97.2054 17.3957 97.9864 17.1097C99.2594 16.6437 99.4714 16.4247 99.2674 15.7837C99.1234 15.3297 98.2734 14.8187 97.8404 14.9257C97.7574 14.9457 97.2124 14.9907 96.6304 15.0257C96.0484 15.0597 95.4494 15.2357 95.2994 15.4167C95.1494 15.5977 94.8804 15.7457 94.7014 15.7457C94.5224 15.7457 93.8264 16.1717 93.1544 16.6927C92.4824 17.2137 91.7614 17.6237 91.5534 17.6057C91.3454 17.5867 90.9754 17.5587 90.7324 17.5427C90.1024 17.5007 90.1894 16.6827 90.8604 16.3407C97.1914 13.1147 98.1884 12.8207 100.615 13.4617ZM209.045 16.2717C208.969 16.5617 208.639 16.9207 208.311 17.0697C207.983 17.2197 207.715 17.4807 207.715 17.6507C207.715 17.8207 207.516 18.0297 207.273 18.1167C207.03 18.2027 206.166 18.6697 205.353 19.1547C203.254 20.4077 198.621 20.8037 194.962 20.0427C194.268 19.8977 193.358 19.7277 192.942 19.6637C191.613 19.4597 189.667 18.9687 189.406 18.7717C189.268 18.6667 188.669 18.5007 188.077 18.4027C185.68 18.0077 186.196 17.2607 188.866 17.2607C191.436 17.2607 197.111 17.0447 198.75 16.8837C202.779 16.4887 207.378 15.9697 207.588 15.8857C208.415 15.5567 209.179 15.7587 209.045 16.2717ZM171.351 17.1887C171.351 17.3667 171.231 17.5127 171.083 17.5127C170.936 17.5127 170.877 17.6127 170.952 17.7337C171.094 17.9637 170.428 18.7407 169.241 19.7317C167.709 21.0097 163.71 21.2967 162.695 20.2017C162.355 19.8347 161.974 19.5337 161.85 19.5337C161.726 19.5337 161.466 19.2777 161.272 18.9647C161.079 18.6527 160.762 18.1537 160.569 17.8557C160.218 17.3157 160.222 17.3147 162.817 17.2757C165.997 17.2277 170.141 17.0397 170.242 16.9387C170.467 16.7137 171.351 16.9127 171.351 17.1887ZM226.906 17.1267C228.087 17.1857 230.275 17.2597 231.768 17.2917C233.824 17.3347 234.482 17.4297 234.482 17.6837C234.482 17.8677 234.369 18.0177 234.23 18.0177C234.091 18.0177 233.977 18.1707 233.977 18.3567C233.977 19.4737 231.37 21.0077 229.686 20.8817C227.303 20.7017 223.492 18.5907 224.017 17.7417C224.083 17.6347 224.021 17.4767 223.88 17.3897C223.412 17.0997 223.615 16.7827 224.192 16.9017C224.504 16.9667 225.726 17.0677 226.906 17.1267ZM116.616 17.6917C116.304 17.7517 115.792 17.7517 115.48 17.6917C115.167 17.6307 115.423 17.5817 116.048 17.5817C116.673 17.5817 116.929 17.6307 116.616 17.6917ZM280.373 17.6977C279.849 17.7517 279.054 17.7507 278.605 17.6957C278.157 17.6397 278.586 17.5947 279.558 17.5957C280.53 17.5967 280.897 17.6427 280.373 17.6977ZM144.778 19.1547C144.889 21.1767 142.508 24.0407 140.934 23.7817C140.788 23.7577 140.178 23.8777 139.579 24.0487C136.127 25.0337 132.592 22.7027 131.698 18.8517C131.461 17.8277 131.004 17.8917 138.519 17.8917H144.709L144.778 19.1547ZM263.371 18.3967C263.316 18.6747 263.199 19.2897 263.109 19.7627C262.696 21.9477 261.186 23.2597 258.278 23.9597L256.442 24.4017L254.279 23.6987C250.964 22.6207 249.717 21.0207 250.26 18.5447L250.424 17.7977L256.947 17.8447C263.321 17.8907 263.467 17.9037 263.371 18.3967ZM97.8594 20.6697C99.1474 23.0917 99.4434 25.3417 98.4734 25.3417C97.4344 25.3417 96.3494 23.3737 96.3544 21.4987C96.3564 20.4477 96.6154 18.4357 96.7294 18.5787C96.7604 18.6177 97.2694 19.5587 97.8594 20.6697ZM118.472 21.0447C118.888 24.3517 117.551 26.1427 114.143 26.8427C111.51 27.3837 109.382 26.7537 107.572 24.8987C106.444 23.7427 106.253 23.2717 106.063 21.1727L105.915 19.5297L112.106 19.5947L118.298 19.6597L118.472 21.0447ZM288.907 20.4167C289.158 24.0987 286.256 26.9937 282.336 26.9737C278.284 26.9527 275.941 24.5347 276.512 20.9627C276.733 19.5817 276.346 19.6597 282.985 19.6597H288.855L288.907 20.4167ZM302.833 20.1017C302.754 20.4137 302.542 21.2577 302.361 21.9757C301.793 24.2317 298.09 26.6597 296.953 25.5227C296.848 25.4177 298.46 20.7477 298.727 20.3857C299.222 19.7117 299.877 20.1307 299.734 21.0297C299.514 22.4017 299.974 22.3647 300.28 20.9857C300.502 19.9817 300.583 19.9027 301.528 19.7587C302.083 19.6737 302.636 19.5887 302.757 19.5687C302.877 19.5497 302.911 19.7887 302.833 20.1017ZM83.4724 24.3417C83.0844 24.4737 83.5694 24.4997 84.7354 24.4107C85.7764 24.3307 86.6764 24.2237 86.7344 24.1717C86.9444 23.9857 84.0874 24.1347 83.4724 24.3417ZM100.947 26.1497C100.785 26.3117 100.568 26.3607 100.466 26.2577C100.363 26.1557 100.444 25.9707 100.644 25.8467C101.115 25.5547 101.328 25.7677 100.947 26.1497ZM71.3514 26.5197C71.1434 26.5907 70.1774 26.9517 69.2044 27.3207L67.4374 27.9927L69.5834 28.1317C71.0554 28.2257 71.9284 28.1697 72.3614 27.9517C72.9674 27.6467 72.9504 27.6337 71.9194 27.6247C70.6404 27.6127 70.5344 27.2467 71.6674 26.7517C72.4344 26.4157 72.1884 26.2357 71.3514 26.5197ZM98.4014 26.9897C99.1894 27.1627 99.1604 27.6137 98.3614 27.6137C97.5274 27.6137 97.4614 28.7437 98.2134 30.1267C99.2364 32.0057 99.3184 31.8787 96.1734 33.3117C95.1904 33.7597 94.8944 33.8177 95.0004 33.5407C95.1774 33.0797 95.1124 33.0797 93.9914 33.5487C92.7594 34.0637 92.4844 34.0417 92.7984 33.4557C93.0984 32.8947 92.9194 32.6407 92.3714 32.8517C92.1234 32.9467 92.0394 32.8997 92.1454 32.7277C92.2394 32.5757 92.1794 31.6547 92.0124 30.6807C91.7144 28.9407 91.7194 28.9017 92.3254 28.3947C93.8774 27.0997 96.3244 26.5337 98.4014 26.9897ZM90.1174 30.3747L90.2744 32.4127L89.2734 33.8427C87.7084 36.0767 87.4834 37.6707 88.4224 39.8617C89.5704 42.5377 88.9114 44.8997 87.2234 44.1597C86.4294 43.8117 86.4114 43.7787 86.9414 43.6277C87.8624 43.3647 87.3464 43.0547 86.2364 43.2037C85.6404 43.2837 84.9684 43.2107 84.6304 43.0297L84.0484 42.7177L84.6574 42.1087C85.4184 41.3477 85.3304 41.2097 83.4354 40.1997C79.3094 38.0007 77.5854 34.5427 79.3984 32.1017C79.6324 31.7857 79.9814 31.2177 80.1734 30.8377C80.3654 30.4587 80.7604 30.0757 81.0504 29.9877C81.3414 29.8987 82.0554 29.6127 82.6384 29.3517C83.8314 28.8167 85.4914 28.5357 88.1514 28.4177L89.9604 28.3377L90.1174 30.3747ZM306.848 28.9397C307.177 29.9957 308.185 30.1937 309.213 29.4027C310.701 28.2597 311.286 29.4567 310.309 31.6407C310.088 32.1347 309.886 32.5957 309.861 32.6647C309.836 32.7337 309.634 33.1947 309.413 33.6887C309.192 34.1827 308.933 34.8987 308.838 35.2797C308.641 36.0617 308.235 35.7167 307.842 34.4327C307.736 34.0847 307.446 33.3467 307.199 32.7907C306.769 31.8237 305.694 28.7577 305.694 28.4967C305.694 28.0777 306.699 28.4637 306.848 28.9397ZM69.3314 29.8037C67.1644 31.4437 64.4744 34.3817 65.7794 33.6837C66.9724 33.0447 67.0574 33.3287 66.2954 35.4167C65.8954 36.5137 65.4984 38.0187 65.4134 38.7627C65.3294 39.5057 65.2014 40.3947 65.1304 40.7387C65.0014 41.3567 65.0064 41.3577 65.5254 40.8877C66.1584 40.3147 66.2634 40.4037 66.9474 42.0857C67.6114 43.7207 67.7224 43.7097 70.7924 41.6977C73.8334 39.7057 73.8354 39.6447 70.8214 40.6757C67.5874 41.7837 67.5454 41.7677 67.9584 39.5697C68.3584 37.4417 68.3474 37.4307 66.8954 38.5617C66.2444 39.0687 65.6714 39.4427 65.6204 39.3917C65.5164 39.2877 68.2564 34.6137 69.3894 32.9627C70.2724 31.6747 70.2354 31.5797 69.0024 31.9577C67.5704 32.3967 67.5914 32.0237 69.0844 30.5117C70.5954 28.9827 70.6594 28.7987 69.3314 29.8037ZM323.624 29.3527L322.74 29.5097L324.259 30.0687C326.871 31.0307 326.927 31.1487 325.287 32.2377C323.493 33.4287 323.514 33.5507 325.581 33.9317C328.023 34.3807 328.094 34.4577 326.935 35.3897C326.386 35.8307 325.684 36.5467 325.374 36.9817L324.812 37.7717L325.607 37.5967C326.044 37.5007 326.401 37.4937 326.401 37.5817C326.401 38.0037 325.497 39.4007 324.58 40.3957C323.706 41.3447 323.633 41.5027 324.074 41.5027C325.132 41.5027 327.677 40.5247 328.675 39.7347C329.977 38.7037 329.819 38.4617 328.44 39.3747C327.072 40.2797 326.988 40.0987 328.072 38.5867C329.602 36.4507 329.859 35.8407 329.141 36.0437C328.815 36.1367 328.216 36.2847 327.811 36.3727L327.074 36.5327L328.143 35.0407L329.212 33.5487L328.001 33.3437C326.395 33.0717 326.378 33.0227 327.544 32.0437L328.548 31.1997L327.698 30.7327C327.231 30.4757 326.459 30.0097 325.983 29.6977C325.077 29.1037 325.049 29.0997 323.624 29.3527ZM314.333 32.1597C316.322 34.3447 316.543 34.9687 315.813 36.3447C315.13 37.6327 313.301 39.3657 312.007 39.9507C311.521 40.1697 310.811 40.5607 310.429 40.8177C309.657 41.3367 309.742 41.4507 309.621 39.7357C309.545 38.6577 309.183 37.2107 308.954 37.0697C308.733 36.9327 308.91 36.4137 310.608 32.2237L311.555 29.8887L312.312 30.3297C312.728 30.5727 313.638 31.3957 314.333 32.1597ZM98.7424 34.3697C98.5774 35.3677 98.2734 36.3357 97.7324 37.5887C97.5524 38.0057 97.2134 38.9387 96.9784 39.6627C96.4534 41.2817 95.9344 41.8057 95.4754 41.1777C95.1014 40.6657 94.8364 40.6197 94.8364 41.0667C94.8364 41.4497 93.3764 43.2707 93.0694 43.2707C92.9514 43.2707 93.0284 42.9227 93.2404 42.4977C93.9054 41.1647 93.4134 41.4077 92.5984 42.8137C92.1714 43.5517 91.5274 44.4957 91.1664 44.9117L90.5114 45.6697L90.6704 44.9117C91.1624 42.5657 91.1004 41.1367 90.4264 39.3567C89.9614 38.1287 89.8034 37.3377 89.9094 36.7677L90.0614 35.9477H91.7714C93.8844 35.9477 95.5524 35.4677 97.3614 34.3397C98.1254 33.8637 98.7834 33.4617 98.8244 33.4477C98.8654 33.4337 98.8284 33.8487 98.7424 34.3697ZM306.611 37.9057C306.676 38.2607 306.837 38.7527 306.969 39.0007C307.101 39.2477 307.214 39.9967 307.22 40.6657C307.227 41.3347 307.33 42.3927 307.45 43.0177C307.691 44.2667 307.527 44.5177 306.452 44.5377C305.916 44.5477 305.878 44.5957 306.199 44.8567C308.064 46.3717 308.457 48.9157 307.464 53.0577C305.893 59.6097 302.937 60.6307 301.799 55.0127C301.571 53.8907 301.479 53.4857 300.815 50.7207C300.481 49.3317 300.082 47.5697 299.929 46.8057C299.312 43.7397 298.558 40.3267 298.345 39.6347C298.006 38.5387 298.043 38.4927 299.026 38.7637C300.764 39.2437 304.081 38.1567 305.246 36.7257L305.821 36.0197L306.158 36.6407C306.343 36.9817 306.547 37.5507 306.611 37.9057ZM310.573 42.8567C310.314 43.0017 310.105 42.9587 309.961 42.7317C309.594 42.1527 309.706 42.0417 310.35 42.3457C310.867 42.5897 310.903 42.6717 310.573 42.8567ZM98.0644 45.1527C98.0414 46.7107 97.9274 47.0677 96.8244 49.0357C95.1634 51.9977 95.0734 52.8167 96.0954 55.6747C96.9354 58.0217 96.8224 59.7127 95.7834 60.3547C95.6134 60.4597 95.5634 60.3807 95.6524 60.1487C95.7314 59.9417 95.8794 58.9987 95.9814 58.0517C96.1964 56.0437 95.9974 56.0297 94.8874 57.9807C94.4724 58.7097 93.7784 59.6407 93.3454 60.0507L92.5574 60.7947L93.1714 59.2927C93.9944 57.2777 93.6314 57.2817 91.5284 59.3127C89.5744 61.1987 89.2964 61.2787 90.0404 59.7407C90.6674 58.4417 90.6664 58.3307 90.0274 58.4977C89.6044 58.6087 89.5414 58.5427 89.6724 58.1297C89.9814 57.1547 89.8204 54.7987 89.3974 54.1137C89.3074 53.9677 89.1954 53.5987 89.1504 53.2937C89.1054 52.9897 88.9854 52.4567 88.8854 52.1087C88.3094 50.1177 88.5244 49.5967 90.3984 48.4527C92.9664 46.8847 95.7614 44.6077 96.6684 43.3457L97.4624 42.2397L97.7764 42.8377C97.9484 43.1677 98.0784 44.2087 98.0644 45.1527ZM95.8504 64.8527C95.5374 65.6217 95.1824 66.2507 95.0594 66.2507C94.5274 66.2507 94.8974 67.7627 95.7074 68.9017C97.6544 71.6407 97.1404 76.3267 94.3604 81.1737C93.4864 82.6987 93.4214 82.6277 93.9324 80.7077C94.2584 79.4817 94.0584 78.7587 93.7024 79.8787C93.6154 80.1517 92.4774 81.4867 91.1724 82.8457L88.7994 85.3157L89.2614 84.0537C90.0814 81.8117 90.1084 81.6547 89.6774 81.6547C89.4594 81.6547 88.8384 82.0557 88.2964 82.5457L87.3094 83.4367L88.0214 81.6877C89.7964 77.3257 89.9604 73.5337 88.4564 71.6167C88.3204 71.4427 88.2754 71.3007 88.3564 71.3007C88.4384 71.3007 88.2814 70.7807 88.0094 70.1437C87.2994 68.4897 87.3404 68.3797 88.6234 68.4817C90.5594 68.6357 93.5874 66.8047 95.3954 64.3857C96.4484 62.9767 96.5634 63.0957 95.8504 64.8527ZM311.627 65.6357C311.7 66.4597 311.809 69.1797 311.87 71.6797C311.968 75.7007 312.29 79.5007 312.629 80.6377C312.693 80.8497 312.803 81.4777 312.875 82.0337C312.947 82.5887 313.18 84.0097 313.393 85.1897C313.605 86.3707 313.842 87.7907 313.917 88.3467C313.993 88.9017 314.209 89.9537 314.397 90.6837C314.735 91.9987 314.732 92.0117 314.13 92.1627C313.42 92.3407 313.367 92.6847 313.927 93.4837C314.623 94.4767 314.132 94.3817 311.612 93.0347C308.817 91.5417 308.818 91.5417 309.172 93.3267C309.48 94.8787 309.439 95.0167 308.911 94.2107C308.614 93.7567 308.492 92.5627 308.391 89.0887C308.261 84.6687 308.146 83.0717 307.848 81.5287C307.768 81.1117 307.535 79.8617 307.33 78.7507C307.126 77.6397 306.855 76.2187 306.729 75.5937C306.603 74.9687 306.367 73.7757 306.203 72.9427C306.04 72.1087 305.745 70.7217 305.548 69.8607C305.069 67.7667 305.069 67.7657 306.01 67.7657C307.828 67.7647 311.25 65.4987 311.25 64.2947C311.25 63.3517 311.505 64.2597 311.627 65.6357ZM93.2454 93.4717L94.3054 93.3957L95.0764 95.0877C96.1024 97.3417 96.0704 97.6217 94.6664 98.6937C92.3984 100.426 89.7624 100.66 87.0564 99.3697L86.1984 98.9607L86.3674 97.4687C86.4604 96.6477 86.8174 95.1057 87.1604 94.0407L87.7844 92.1047L89.9844 92.8267C91.3664 93.2787 92.5794 93.5187 93.2454 93.4717ZM97.7954 103.146C99.6314 104.17 99.7904 104.786 98.8594 107.274C96.9294 112.432 88.8074 114.105 84.4194 110.248C83.5064 109.445 84.3124 105.916 85.8224 104.106C87.3674 102.254 89.7054 103.245 89.4254 105.633L89.2644 107.011L89.9444 106.391C90.4544 105.926 90.5844 105.881 90.4654 106.213C90.2024 106.944 90.5834 106.724 92.0514 105.297C93.0534 104.322 93.7014 103.901 94.3484 103.805L95.2484 103.671L94.6634 104.827C94.0034 106.132 93.8044 107.68 94.4134 106.774C94.5974 106.5 95.0104 105.563 95.3304 104.692C95.8034 103.405 96.3074 102.688 96.7854 102.622C96.8164 102.618 97.2704 102.854 97.7954 103.146ZM317.389 104.239C318.143 105.654 318.253 115.746 317.515 115.746C316.692 115.746 316.811 116.216 317.859 117.113L318.917 118.018H317.348C315.752 118.018 314.986 118.529 315.814 119.04C316.517 119.475 315.79 119.573 314.612 119.203C311.42 118.199 310.97 118.353 311.678 120.205C311.846 120.643 311.82 120.647 311.237 120.265C309.999 119.455 309.555 118.452 309.506 116.35C309.482 115.278 309.399 114.301 309.323 114.178C309.135 113.873 308.735 108.057 308.63 104.082C308.599 102.911 308.604 102.903 309.103 103.358C310.118 104.284 312.656 104.195 315.08 103.15C316.35 102.602 316.574 102.708 317.389 104.239ZM96.2914 115.919C96.0494 115.982 95.5954 115.985 95.2814 115.924C94.9664 115.864 95.1644 115.812 95.7204 115.809C96.2754 115.807 96.5324 115.856 96.2914 115.919ZM87.3784 116.642C87.8934 116.858 88.9014 117.138 89.6184 117.266C90.3354 117.394 91.2634 117.564 91.6794 117.645C93.3764 117.975 96.5924 118.041 97.6114 117.767C98.5734 117.507 98.7374 117.532 99.2444 118.008C99.7574 118.49 101.401 121.454 101.401 121.896C101.401 122.89 107.898 133.928 108.483 133.928C108.594 133.928 108.758 134.261 108.847 134.668C108.936 135.075 109.173 135.543 109.372 135.709C111.203 137.228 107.961 135.735 104.004 133.236C100.395 130.957 100.394 130.98 103.907 136.563C106.078 140.015 106.321 140.641 105.379 140.355C103.001 139.635 98.6864 136.545 95.9034 133.57C92.9204 130.38 93.4124 132.701 97.0604 139.021C98.7834 142.006 99.0074 142.676 98.2454 142.568C96.1314 142.269 92.6954 139.931 89.2044 136.417C86.1714 133.365 86.0474 133.49 86.6504 138.978C87.1984 143.961 87.1344 144.148 85.6444 141.904C84.4534 140.11 83.3544 137.318 82.8534 134.811C82.4154 132.62 81.9714 126.857 82.2414 126.857C82.3334 126.857 82.4854 126.544 82.5814 126.162C83.0054 124.469 86.1614 116.251 86.3884 116.251C86.4174 116.251 86.8624 116.427 87.3784 116.642ZM80.9804 133.303C80.7664 134.216 80.7434 134.238 80.7234 133.549C80.6974 132.629 81.0164 131.356 81.1344 131.914C81.1784 132.127 81.1094 132.752 80.9804 133.303ZM320.164 134.243C321.627 137.162 322.083 139.379 321.65 141.473C321.486 142.27 321.351 143.191 321.351 143.519C321.351 145.962 314.838 148.343 312.333 146.815C310.067 145.434 309.248 140.558 309.956 132.665C309.978 132.413 310.197 132.539 310.611 133.044C310.952 133.46 311.236 133.688 311.241 133.549C311.247 133.401 312.168 133.293 313.46 133.287C315.27 133.28 315.943 133.16 317.184 132.621C318.018 132.26 318.766 131.952 318.846 131.936C318.927 131.92 319.52 132.959 320.164 134.243ZM314.553 155.392C314.681 155.392 314.785 155.506 314.785 155.645C314.785 156.01 314.448 155.955 313.887 155.498C313.438 155.132 313.436 155.111 313.859 155.245C314.113 155.326 314.426 155.392 314.553 155.392ZM320.846 155.387C321.486 155.792 321.315 159.785 320.598 161.191C319.996 162.372 319.468 163.022 319.272 162.825C319.207 162.76 318.824 162.878 318.421 163.088C318.019 163.298 317.292 163.543 316.805 163.631C316.319 163.719 315.806 163.882 315.665 163.993C315.228 164.336 312.684 164.084 311.755 163.606C309.79 162.593 309.482 161.998 309.482 159.213V156.716L310.244 156.401C311.186 156.01 312.542 156.209 313.477 156.875C314.676 157.729 315.603 157.852 315.501 157.143C315.429 156.641 315.56 156.526 316.407 156.348C316.952 156.233 317.52 156.039 317.67 155.915C318.361 155.344 320.275 155.026 320.846 155.387ZM310.061 165.272C312.282 167.408 317.058 167.456 321.065 165.384C321.84 164.984 326.993 166.982 327.369 167.829C327.416 167.933 327.615 168.018 327.811 168.018C328.008 168.018 328.169 168.12 328.169 168.243C328.169 168.367 328.697 168.716 329.342 169.019C331.538 170.051 331.426 170.225 328.653 170.092C325.153 169.923 325.499 170.388 330.878 173.082C332.236 173.761 333.194 174.32 333.009 174.324C332.188 174.342 321.525 171.307 319.236 170.404C317.036 169.536 317.961 170.665 321.477 173.14C324.854 175.517 327.412 177.574 327.412 177.914C327.412 178.41 322.247 177.99 319.125 177.24C315.337 176.329 315.34 176.313 318.502 180.582C319.454 181.867 320.443 183.275 320.701 183.712L321.17 184.505L320.495 184.336C314.711 182.884 309.886 175.391 309.378 167.072C309.223 164.529 309.24 164.483 310.061 165.272Z" fill="#1D130D"/>
</g>
<defs>
<filter id="filter0_d_39_258" x="0" y="0" width="403.057" height="377.436" filterUnits="userSpaceOnUse" color-interpolation-filters="sRGB">
<feFlood flood-opacity="0" result="BackgroundImageFix"/>
<feColorMatrix in="SourceAlpha" type="matrix" values="0 0 0 0 0 0 0 0 0 0 0 0 0 0 0 0 0 0 127 0" result="hardAlpha"/>
<feOffset dx="4" dy="8"/>
<feGaussianBlur stdDeviation="2"/>
<feComposite in2="hardAlpha" operator="out"/>
<feColorMatrix type="matrix" values="0 0 0 0 0 0 0 0 0 0 0 0 0 0 0 0 0 0 0.25 0"/>
<feBlend mode="normal" in2="BackgroundImageFix" result="effect1_dropShadow_39_258"/>
<feBlend mode="normal" in="SourceGraphic" in2="effect1_dropShadow_39_258" result="shape"/>
</filter>
</defs>
</svg>
