<?xml version="1.0" encoding="UTF-8"?>
<svg id="Layer_1" xmlns="http://www.w3.org/2000/svg" version="1.1" viewBox="0 0 102 86.88">
  <!-- Generator: Adobe Illustrator 30.1.0, SVG Export Plug-In . SVG Version: 2.1.1 Build 136)  -->
  <defs>
    <style>
      .st0 {
        fill: #c12236;
      }

      .st1 {
        fill: #525252;
      }

      .st2 {
        fill: #3a0a10;
      }

      .st3 {
        fill: #570f18;
      }

      .st4 {
        fill: #78f0f1;
      }

      .st5 {
        fill: #420c12;
      }

      .st6 {
        fill: #480d14;
      }

      .st7 {
        fill: #4562ca;
      }

      .st8 {
        fill: #434343;
      }

      .st9 {
        fill: #c86465;
      }

      .st10 {
        fill: #9c9c9c;
      }

      .st11 {
        fill: #6e052f;
      }

      .st12 {
        fill: #6ad5d6;
      }

      .st13 {
        fill: #79f2f3;
      }

      .st14 {
        fill: #e68478;
      }

      .st15 {
        fill: #f5f4f5;
      }

      .st16 {
        fill: #4a4a4a;
      }

      .st17 {
        fill: #04041e;
      }

      .st18 {
        fill: #7d7d7d;
      }

      .st19 {
        fill: #070555;
      }

      .st20 {
        fill: #505050;
      }

      .st21 {
        fill: #83263e;
      }

      .st22 {
        fill: #72eaf1;
      }

      .st23 {
        fill: #767676;
      }

      .st24 {
        fill: #b11d35;
      }

      .st25 {
        fill: #5fbfc0;
      }

      .st26 {
        fill: #9e1a30;
      }

      .st27 {
        fill: #09183d;
      }

      .st28 {
        fill: #4d4d4d;
      }

      .st29 {
        fill: #42a8d1;
      }

      .st30 {
        fill: #171981;
      }

      .st31 {
        fill: #3c0a11;
      }

      .st32 {
        fill: #6ce3ed;
      }

      .st33 {
        fill: #6e6e6e;
      }

      .st34 {
        fill: #1a2d95;
      }

      .st35 {
        fill: #690632;
      }

      .st36 {
        fill: #7a3b61;
      }

      .st37 {
        fill: #6f092b;
      }

      .st38 {
        fill: #c7cacf;
      }

      .st39 {
        fill: #606060;
      }

      .st40 {
        fill: #041079;
      }

      .st41 {
        fill: #0b0a62;
      }

      .st42 {
        fill: #e18176;
      }

      .st43 {
        fill: #470c14;
      }

      .st44 {
        fill: #a38792;
      }

      .st45 {
        fill: #1b3535;
      }

      .st46 {
        fill: #78eeef;
      }

      .st47 {
        fill: #0c0b48;
      }

      .st48 {
        fill: #761521;
      }

      .st49 {
        fill: #0d1616;
      }

      .st50 {
        fill: #77eeef;
      }

      .st51 {
        fill: #8a3243;
      }

      .st52 {
        fill: #f5f5f6;
      }

      .st53 {
        fill: #8a8a8a;
      }

      .st54 {
        fill: #1c1e81;
      }

      .st55 {
        fill: #bbb;
      }

      .st56 {
        fill: #3b3b3b;
      }

      .st57 {
        fill: #67d9e3;
      }

      .st58 {
        fill: #b62435;
      }

      .st59 {
        fill: #1a1c82;
      }

      .st60 {
        fill: #0f1e1e;
      }

      .st61 {
        fill: #282828;
      }

      .st62 {
        fill: #7c1622;
      }

      .st63 {
        fill: #e68479;
      }

      .st64 {
        fill: #d65a5c;
      }

      .st65 {
        fill: #21359e;
      }

      .st66 {
        fill: #454545;
      }

      .st67 {
        fill: #73072f;
      }

      .st68 {
        fill: #6ed6e0;
      }

      .st69 {
        fill: #575757;
      }

      .st70 {
        fill: #3751b9;
      }

      .st71 {
        fill: #f2f2f3;
      }

      .st72 {
        fill: #444;
      }

      .st73 {
        fill: #939393;
      }

      .st74 {
        fill: #440c13;
      }

      .st75 {
        fill: #a01c2d;
      }

      .st76 {
        fill: #a13749;
      }

      .st77 {
        fill: #be2135;
      }

      .st78 {
        fill: #a91a34;
      }

      .st79 {
        fill: #d7d8da;
      }

      .st80 {
        fill: #62111b;
      }

      .st81 {
        fill: #5e1536;
      }

      .st82 {
        fill: #690635;
      }

      .st83 {
        fill: #616161;
      }

      .st84 {
        fill: #333;
      }

      .st85 {
        fill: #1b1c82;
      }

      .st86 {
        fill: #2a0212;
      }

      .st87 {
        fill: #2f4273;
      }

      .st88 {
        fill: #a91937;
      }

      .st89 {
        fill: #a92d42;
      }

      .st90 {
        fill: #896c77;
      }

      .st91 {
        fill: #5e3946;
      }

      .st92 {
        fill: #eee;
      }

      .st93 {
        fill: #324bb3;
      }

      .st94 {
        fill: #a28f96;
      }

      .st95 {
        fill: #a99aa0;
      }

      .st96 {
        fill: #919191;
      }

      .st97 {
        fill: #d8bbc6;
      }

      .st98 {
        fill: #e2e8ec;
      }

      .st99 {
        fill: #02021e;
      }

      .st100 {
        fill: #b62033;
      }

      .st101 {
        fill: #a41934;
      }

      .st102 {
        fill: #39557c;
      }

      .st103 {
        fill: #bf2135;
      }

      .st104 {
        fill: #484848;
      }

      .st105 {
        fill: #7a666e;
      }

      .st106 {
        fill: #2a070c;
      }

      .st107 {
        fill: #5dbbbc;
      }

      .st108 {
        fill: #9d4059;
      }

      .st109 {
        fill: #6f052f;
      }

      .st110 {
        fill: #a51d2e;
      }

      .st111 {
        fill: #ad1a37;
      }

      .st112 {
        fill: #be2336;
      }

      .st113 {
        fill: #951a2a;
      }

      .st114 {
        fill: #e2d9e0;
      }

      .st115 {
        fill: #aa3a52;
      }

      .st116 {
        fill: #393939;
      }

      .st117 {
        fill: #dfd2d7;
      }

      .st118 {
        fill: #21586d;
      }

      .st119 {
        fill: #ababab;
      }

      .st120 {
        fill: #75e8e9;
      }

      .st121 {
        fill: #78f2f3;
      }

      .st122 {
        fill: #a22234;
      }

      .st123 {
        fill: #0d0e49;
      }

      .st124 {
        fill: #8e1928;
      }

      .st125 {
        fill: #1f5064;
      }

      .st126 {
        fill: #fefefe;
      }

      .st127 {
        fill: #620429;
      }

      .st128 {
        fill: #d97d72;
      }

      .st129 {
        fill: #ae1f30;
      }

      .st130 {
        fill: #45b4df;
      }

      .st131 {
        fill: #273d42;
      }

      .st132 {
        fill: #2d0213;
      }

      .st133 {
        fill: #ab2132;
      }

      .st134 {
        fill: #961531;
      }

      .st135 {
        fill: #45b4e0;
      }

      .st136 {
        fill: #76eced;
      }

      .st137 {
        fill: #343434;
      }

      .st138 {
        fill: #6365aa;
      }

      .st139 {
        fill: #323232;
      }

      .st140 {
        fill: #5c5c5c;
      }

      .st141 {
        fill: #cccacb;
      }

      .st142 {
        fill: #4f0f28;
      }

      .st143 {
        fill: #414141;
      }

      .st144 {
        fill: #070556;
      }

      .st145 {
        fill: #dbd1d5;
      }

      .st146 {
        fill: #a4455e;
      }

      .st147 {
        fill: #70252a;
      }

      .st148 {
        fill: #f3f3f3;
      }

      .st149 {
        fill: #290211;
      }

      .st150 {
        fill: #b11c37;
      }

      .st151 {
        fill: #d6595b;
      }
    </style>
  </defs>
  <path d="M91.33,26.8c-.02.08-.07.12-.13.12-.41-.6-.56-.59-.67-.71l-.79-.83c-.32-.34-1.4-.97-1.89-.44l-2.28,2.51c-.44.49-.85.94-1.19,1.49.54.36,1.48.42,2.16.75.24.11.42.14.68.22l2.78.91c.75.25,1.04.15,1.39.6.08.1.24.12.3.22.11.07.13.21.06.43-.23.35-.58.36-.83.6-1.63,1.62-2.07,1.56-3.42,2.63l-1.24.98-3.98,2.8-1.26.78c-.31.19-.61.3-.99.45-.09-.26-.1-.55-.03-.87l.35-1.45c.14-.59-.37-.68-.36-1.09-.32.04-.53.26-.77.39-.29.26-.55.56-.76.88-.46.94-.85,1.9-1.18,2.89.01.15,0,.29-.05.42.09.91.21,1.71.56,2.57.09.23.28.5.53.56.37.21.91.51,1.37.41l2.31-1.29c1.06-.59,2.02-1.25,2.95-2.04.36-.31,1.2-.98.81-1.59-.48-.75,1.06-1.35,1.58-1.78.32-.26.49-.71.97-.76.81-.09,1.65.06,2.37.39.48.03.94.11,1.39.24,2.13.46,5.78,2.39,6.83,4.43.11.22.02.51.07.73.04.16.02.22-.07.18-.12-.27-.26-.45-.49-.65-2.47-2.22-3.29-3.09-6.82-2.75-.06.05-.06.1-.01.15.27.04.47.32.68.46.83.09,1.53.38,2.25.77.57.3,1.16.55,1.5,1.14.27.46.51.94.89,1.33.07.07-.07.16-.05.21.09.29.11.63.18.92.24.96-.3,1.44-.7,2.38-.05.03-.07,0-.07-.06.05-.29.06-.56.09-.91.05-.61.2-1.4-.17-1.97-.33-.51-1-.8-1.52-1.09-.7-.4-1.46-.55-2.21-.79-.23-.07-.43-.15-.69-.07,1.29.79,2.44,1.96,2.8,3.51.15.62.1,1.26-.03,1.87-.05.24-.24.39-.36.59-.11.18-.15.38-.32.5-.06.07-.12.13-.18.17-.08.03-.13.1-.17.17-.03.04-.05.04-.07,0l.37-.81c.63-1.37-.62-2.66-1.73-3.29-.61-.34-1.26-.57-1.95-.72-.28-.06-.94.03-1.15.45.67.38,1.12.88,1.57,1.46,1.45,1.87,2.4,4.03,2.73,6.38.1.7.1,1.36.1,2.06s-.12,1.33-.36,1.98l-1.05,2.86c-.16.44-.41.83-.51,1.28-.04.17-.05.29-.21.33-.2.05-.15-.15-.27-.24-.76-.6-1.8-.95-2.79-.76-1.36.27-2.58.93-3.59,1.85-1.39,1.28-2.71,3.06-2.89,4.98-.02.23.22.45.29.65.26.72.57,1.36,1.01,2.01.56.18,1.15.3,1.77.37.49.06.95.19,1.46.22,1.84.1,3.64-.18,5.29-.93.22-.1.38-.21.58-.34,1.86-1.23,2.47-3.03,2.85-5.08l.14-.74c.02-.11.08-.17.17-.18.19,0,.23.19.08.3.06.25.07.6,0,.84.17.04.15.32-.01.36,0,.11-.02.21-.05.3.05.07.09.15.09.24,0,.47-.75,2.54-1.1,2.75-.04.02-.08.04-.13.06-.02.12-.09.2-.19.24v.14c0,.05-.01.08-.04.11-1.33,1.59-3.01,2.47-5.08,2.71-.04,0-.09,0-.13-.02s-.09-.04-.14-.06c-.12.04-.26.06-.42.05-.1.17-.5.19-.6.01-.47.05-.97.05-1.44,0-.09.09-.19.13-.32.11-.39-.02-.77-.1-1.14-.19-.46-.11-1.64-.41-1.99-.63-.07-.05-.12-.12-.16-.19l-.36-.13c-.17.38-.58-.38-.4-.58,0-.06,0-.13-.01-.2-.04.02-.11.04-.12.01-.51-1.14-.62-2.49-.26-3.7l.16-.08c-.04-.39.2-.86.4-1.21,1.76-3.03,5.96-6.61,9.41-4.01l.74-2.47c1.2-4.24-.32-9.19-3.27-12.33v-.14c-.07.05-.12.04-.17-.03-.31.29-.65.57-1.01.77-.17.19-.39.31-.65.28.03.16-.02.25-.14.35.08.05.09.1.08.18-.03.31-.46.69-.7.86-2.13,1.54-3.86,1.03-6.13-.12-.99-.5-2.64-1.34-2.75-2.56-.86-1.71-1.08-3.63-.44-5.44.55-1.55,1.11-2.88,2.74-3.49l-.39-.14c-.23,0-.39-.04-.5-.14-.45,0-.88,0-1.32-.05-.04.05-.19.06-.24,0l-.66-.06c-.22-.03-.44-.05-.66-.05-.21.28-.47.11-.4-.27.03-.04.79-1.29.6-1.24-.53.15-1.16,1.15-1.41,1.6-1.27,2.21-1.66,4.21-1.6,6.74s.51,5.31,2.14,7.31c3.58,4.21,9.75,2.6,13.87.06.18-.2.38-.31.6-.34-.03-.23.4-.46.55-.24.29.24.98,1.59,1.18,1.99.4.8.74,1.6.72,2.52,0,.37-.17,1.4-.39,1.66-.05.06-.11.1-.19.13-.07.23-.17.44-.31.63h-.15c-.02.22-.22.07-.33-.03h-.18c-.56-.53-1.17-1.04-1.97-1.08l-.07-.13c-.14,0-.26,0-.36-.05,0,.17-.09.16-.12,0-.36-.02-.72-.02-1.08,0l-.06.13c-.31.02-.62.06-.92.15l-.1-.09c-.01.08-.1.1-.24.07l-.08.14c-.31.1-.61.23-.89.39l-.16-.05c-.05.09-.13.15-.25.18l-.14.22c-.62.37-1.17.85-1.7,1.34l-.25.07c-.04.08-.1.14-.19.18l-.1.24c-1.97,1.72-3.36,4.17-3.61,6.79l-.14.23c-.04.22-.04.44,0,.66l.13.22c.15,1.82,1.03,3.6,2.38,4.8l.02.14c.14.01.24.09.29.22.16-.02.21.04.12.18.07.09.01.1-.1.1-.1.13-.28.07-.24-.1-.09.02-.17-.03-.24-.12l-.11.08c-1.56-.73-3.23-1.28-4.93-1.57l-.06-.13c-.11,0-.21,0-.3-.05-.01.18-.27.15-.3-.01-.16,0-.32-.02-.48-.04-.06.17-.25.19-.3,0l-.3.05c-.14.13-.33.21-.58.24-.43.13-.69.36-.78.69l-.14.04c-.06.02-.08,0-.06-.06-.15-.08-.18-.42,0-.48-.04-.16-.05-.32-.04-.48-.18,0-.23-.36-.07-.42-.07-.07-.08-.17-.06-.3l-.15-.12c-.2-.84-.61-1.62-1.12-2.32v-.19c-.11-.03-.16-.13-.18-.24-.04.03-.09.07-.12.05-.11-.07-.51-.45-.41-.58-.11-.03-.22-.07-.25-.19h-.19c-.89-.6-1.96-.97-3-1.17l-.11-.14c-.12.02-.22,0-.3-.06-.09.19-.48.12-.54-.07-.11,0-.21,0-.3-.05,0,.18-.34.16-.36,0l-.36-.05c-.13.18-.58.15-.72,0-.28-.03-.56-.02-.84,0-.11.16-.49.19-.6.02-.09.02-.19.04-.3.04l-.26.15c-.73.08-1.45.23-2.14.48l-.3-.02c-.08.08-.2.19-.3.12l-.07.15c-1.07.23-1.89.84-2.64,1.65l-.24.08c-.04.11-.14.18-.28.22-.09.16-.27.15-.53,0-.64-.35-1.32-.59-2.06-.72l-.06-.13c-.12.03-.22.02-.3-.05-.3.15-.78.16-1.08,0-.09.03-.19.04-.3.05-.06.15-.1.16-.18.01-.18.06-.38.06-.6,0-.09.14-.38.1-.42-.06-.19.09-.5.05-.72,0l-.18.11c-.66-.04-1.33,0-1.95.23l-.21-.05c-.02.1-.1.1-.18.06,0,.17-.14.22-.24.07-.08.1-.16.14-.24.12-.02.12-.1.19-.27.23-.29.23-.56.29-.81.17-.71-1.03-1.89-1.67-3.08-1.97l-.04-.14c-.17,0-.34-.06-.45-.19l-.08.1c-.41-.14-.84-.25-1.27-.33l-.1-.14c-.13.02-.23,0-.3-.06,0,.04-.03.11-.07.11-.09,0-.74-.08-.76-.11-.04-.04-.06-.08-.07-.13-.11,0-.21,0-.3-.05-.06.19-.52.15-.6,0h-.84c-.14.16-.59.19-.72.02-.14.03-.28.05-.42.05-.03.17-.18.18-.24,0-.1.05-.22.06-.36.05-.1.18-.41.22-.54.07-.07.06-.17.08-.3.06l-.2.16c-2.77.4-4.75,2.46-5.04,5.19l-.11.12c-.04.1-.02.2.02.3.25-.06.56.53.41.72.05.24.06.48.05.73.15.04.11.16-.03.18s-.85-.64-.83-.89c-.34-.4-.81-.56-1.33-.66l-.07-.15-.36-.05c-.04.18-.24.16-.3,0-.16.03-.32.04-.48.05-.02.17-.12.17-.18.01-.1.05-.22.07-.36.05-.28.16-.61.25-.98.29-.3.12-.6.17-.88.14-.05.07-.13.1-.25.07-.05.07-.11.14-.19.17-.31.13-.84.32-1.17.4l-.25-.03c-.07.1-.16.14-.24.12l-.11.16c-.52.2-1.01.5-1.39.9-.39.17-.73.34-1.01.68-.13.1-.4.3-.42.06-.02-.44,1.33-1.47,1.7-1.66,1.76-1.37,2.67-3.71,2.44-5.93-.37-3.46-2.58-6.04-5.22-8.14-2.09-1.66-5.08-2.44-7.13-.37h-.17c.09.08-.1.23-.17.23-.16,0-.36-.22-.46-.37-.9-1.33-.81-2.62-.24-4.05l.14-.09c.3-.78.73-1.66,1.18-2.36.37-.57.46-.52.9-.02,2.61,1.78,6.4,3.16,9.63,2.81,2.78-.3,4.92-2.01,5.88-4.64.71-1.92.99-4.18.89-6.23-.13-2.61-.89-4.68-2.36-6.82-.07-.1-.64-.53-.63-.48l.49.96c.23.3.02.91-.23.51-.23.07-.49.07-.72.06-.84.09-1.68.12-2.52.11l-.09.12c-.23,0-.41.04-.54.14,1.54.45,2.03,1.5,2.58,2.95.88,2.3.64,4.67-.87,6.64.05.15.04.28-.03.4-1.49,1.26-3.23,2.11-5.14,2.54-.99.23-1.98,0-2.77-.64-.43-.1-.82-.39-1.01-.8-.08-.18-.21-.51,0-.6-.11-.06-.13-.16-.08-.29-.15.06-.24.05-.38-.02-.11.13-.54-.16-.67-.26v-.15c-.16-.12-.31-.23-.45-.36l.02-.06c-.07-.03-.13-.09-.18-.18-.02.1-.09.12-.2.06-2.55,2.58-3.78,6.27-3.74,9.89.25,1.7.62,3.47,1.25,5.16,2.36-2.1,5.58-.6,7.54,1.33.78.35,2.03,1.12,2.32,1.98.03.09.04.19.03.29.07.02.15.05.18.11.22.36.31,1.2.32,1.64.03,1.27-.35,2.55-.94,3.66-.11.6-.28.67-.84.87-1.73.63-2.99.95-4.86.92-3.77-.06-6.86-1.61-7.76-5.52-.11-.5-.35-2.35-.03-2.66.04-.04.09-.03.14.02.11.05.15.23.17.37.12,1.03.35,1.97.8,2.91.61,1.28,1.55,2.39,2.85,3.03,1.41.69,2.95.96,4.51.97.4,0,.75.02,1.13-.04l2-.33c.18-.03.33-.1.5-.15.11-.03.36,0,.39-.16s.16-.23.23-.38c1.04-2.09,1.12-2.6,0-4.62-.4-.72-.92-1.3-1.47-1.91-1.02-1.12-2.27-1.93-3.72-2.39-1.11-.35-2.33-.19-3.21.58-.12.11-.14.42-.41.26-.08-.05.02-.26-.02-.36l-.76-1.85-.8-2.02c-.14-.36-.28-.72-.32-1.11-.35-3.32.74-6.61,2.7-9.26.48-.64.94-1.2,1.64-1.65-.17-.16-.3-.37-.5-.43-.56-.17-1.12,0-1.66.17-.92.31-1.74.79-2.33,1.56-.47.6-.68,1.35-.37,2.04l.39.86c.04.1,0,.1-.13,0-.02-.02-.04-.04-.07-.05-.12-.1-.23-.22-.34-.36-.12-.36-.47-.3-.59-.92-.46-2.34,1.21-4.3,2.96-5.36-.26,0-.46-.05-.67,0l-1.33.36c-.97.26-1.97.77-2.62,1.56-.35.41-.08,2.43.02,2.91,0,.12-.06.09-.12,0-.04-.26-.24-.42-.38-.65-.61-.97-.22-1.74-.08-2.59l-.05-.04c.07-.13.14-.25.21-.38.14-.19.33-.37.41-.6.43-.71,1.07-1.26,1.81-1.63.26-.08.51-.29.78-.4.5-.21.99-.33,1.51-.41.2-.13.38-.37.6-.44.08-.06.07-.11,0-.17-.05,0-1.45-.09-1.99-.05-2.2.15-3.35,1.2-4.85,2.68-.22.22-.37.45-.48.73-.12.05-.11-.07-.08-.18,0-.2-.06-.41.07-.61,1.32-2.11,4.41-3.74,6.72-4.43.46-.17.95-.28,1.44-.24.8-.36,1.71-.55,2.59-.43.41.05.52.51.8.7.5.34,1.07.55,1.51,1.01.48.5-.71.76.52,1.99.5.5,1.01.94,1.6,1.34.64.43,1.28.84,1.97,1.2.74.38,1.39.85,2.18,1.19.32.14,1.09-.1,1.29-.39.73-.46.86-1.72.91-2.53.09-.71-.01-1.39-.3-2.04-.11-.14-.26-.38-.24-.54h-.06c-.26-.65-.59-1.25-.98-1.8-.16-.37-.67-.57-1.07-.71-.2.11-.47.42-.42.65l.41,1.93c.05.23.06.51-.19.64-.16.08-.42-.02-.58-.11-.59-.32-1.14-.62-1.69-1.01l-3.9-2.74-1.4-1.12-1.87-1.3c-.51-.35-.85-.85-1.35-1.18l-.8-.52c-.15-.1,0-.33.12-.45-.02-.07-.12,0-.2-.09.2-.07.41-.14.53-.31-.03-.1,0-.08.08-.02.14-.07.27-.21.45-.25,1.43-.32,2.45-.83,3.73-1.18.26-.07.46-.16.72-.24l1.89-.62c-.17-.22-.28-.5-.48-.72-.66-.74-1.3-1.44-2-2.14-.44-.45-.77-1.04-1.31-1.39-.41-.27-1.08.14-1.41.39-.41.32-.63.68-.97,1.03-.17.17-.35.31-.46.55-.04.07-.13.1-.2.08-.09-.03,0-.15,0-.21.05-.62.58-.99.8-1.52s.22-1.17.3-1.75c.09-.66-.04-1.3-.14-1.94-.17-1-.45-1.93-.94-2.83-.35-.64-.75-1.26-1.36-1.7-.88-.62-1.95-1.11-3.05-1.18s-2.55.69-3.32.88c.05-.01-.53.38-.64.27-.27-.27.58-.45.58-.46l.92-.6c.72-.46,1.38-.95,2.15-1.33l2-.98,2.68-1.28c1.15-.55,2.31-.98,3.54-1.38,3.68-1.22,8.98-2.19,12.8-1.46.68.13,1.27.39,1.85.83.18-1.57-.1-3.07-.72-4.47-.15-.34-.32-.61-.61-.85-.18-.14-.26-.39-.4-.57-.04-.05-.64-.13-.62-.3l.04-.29-1.06-1.05s-.09-.1-.08-.15c0-.09.08-.12.13-.14.07-.03.15.11.2.11.23,0,.43,0,.67.13,2.98,1.62,5.63,3.77,7.79,6.39.74.9,1.23,1.91,1.46,3.05.61.32,1.23.54,1.85.81.45.19.85.48,1.33.58l.96.2c.47-.35,1.11-.51,1.51-.98s.45-1.23.39-1.84c-.2-2.12-1.84-4.41-3.33-5.85-.55-.54-1.18-.94-1.79-1.39-.04-.03-.05-.07-.06-.1,0-.03.07-.11.12-.08.29.19.59.13.91.19,1.33.27,2.49.88,3.6,1.65,1.48,1.02,2.8,2.18,3.92,3.58,1.24,1.56,1.84,3.48,1.57,5.47.39-.07.55.13.54-.12.21.11.41.06.64.04l1.37-.09c1.37-.09,2.7-.09,4.08,0l1.19.08c.23.02.43.01.65.02.13,0,.32.13.45.01-.18-1.85.4-3.65,1.53-5.12s2.58-2.76,4.15-3.86c1.11-.77,2.27-1.38,3.6-1.67.28-.06.57-.02.82-.21.07.08.1.13.04.18-.33.26-.68.46-1.03.7-1.58,1.06-3.21,3.22-3.84,5.03-.34.96-.53,2.42.11,3.3.21.28,1.23.86,1.58,1.02.98.03,1.63-.44,2.42-.76.56-.23,1.08-.44,1.64-.72.25-1.15.8-2.18,1.57-3.09,2.19-2.6,4.83-4.75,7.79-6.4.22-.12.4-.15.63-.17.08,0,.15-.12.21-.05.08.08.09.17-.02.26-.37.3-.77.63-1.08.97.23.47-.52.6-.61.7l-.65.72c-.12.13-.23.36-.32.53-.71,1.43-.9,3-.72,4.62,1.72-1.19,4.37-1.13,6.41-1.05,3.01.24,5.96.8,8.81,1.8,2.01.7,3.89,1.61,5.79,2.54.6.29,1.17.51,1.74.85.65.39,1.31.73,1.92,1.19.72.55.64.26,1.27.9.12.03.26-.03.35.05l.28.22c.08.07.02.13,0,.17-.07.09-.14-.02-.19-.02-.26-.02-.35-.12-.52-.26-.15-.12-.4-.07-.6-.15-.91-.33-1.88-.77-2.9-.71s-2.08.53-2.93,1.1c-.6.41-.98,1.01-1.32,1.62-.53.96-.79,1.96-.96,3.04-.15.91-.21,1.81.08,2.71.07.23-.07.57.1.8.4.55.77,1.13.9,1.79v-.16Z"/>
  <path class="st135" d="M22.24,70.68c.09.01.17-.02.24-.12.53-.2,1.06-.41,1.61-.54.1.03.19,0,.25-.07.6-.22,1.23-.36,1.86-.42.13.01.25,0,.36-.05.04.01.13-.01.18-.01.16,0,.32-.02.48-.05.1,0,.2.01.3,0l.36.05c.27.09.56.13.84.24.19.08.34.23.51.34.23.15.23.49.41.65.14.13.36.16.45.39l.04-.11c.01-.24,0-.49-.05-.73-.11-.26-.21-.51-.41-.72-.04-.1-.06-.2-.02-.3-.05-.45.12-.89.27-1.36.42-1.33,1.24-2.52,2.47-3.22.82-.47,1.72-.72,2.61-.89.12.02.22,0,.3-.06.18-.03.35-.06.54-.07.13,0,.25,0,.36-.05.06.02.18-.03.24,0,.14,0,.28-.02.42-.05.24,0,.48-.04.72-.02h.84c.2-.02.4.02.6,0,.09.04.19.05.3.05l.9.13c.08.06.18.08.3.06.36.08.72.12,1.09.27.11.05.26.07.36.1.13.12.27.19.45.19l.94.3c.74.24,1.66.97,2.19,1.56.06.07.05.18.12.2.32.07.36-.17.96-.34.09.01.17-.03.24-.12.07,0,.17-.06.24-.07.09.02.12.01.18-.06.73-.32,1.55-.35,2.34-.29.21.04.54.09.72,0,.13,0,.29.01.42.06.22.07.42.07.6,0,.06,0,.12-.02.18-.01l.3-.05c.36-.03.72-.04,1.08,0,.08.06.18.08.3.05.3,0,1.81.47,1.98.61.2.16.44.26.67.24.13-.05.22-.12.28-.22.46-.49.97-.97,1.55-1.35.43-.28.95-.36,1.4-.53.11.03.21,0,.3-.12.86-.34,1.78-.53,2.7-.6l.3-.04c.2,0,.4-.04.6-.02.28-.02.56-.03.84,0,.24-.02.48,0,.72,0l.36.05h.36c.09.06.19.07.3.06.18.02.36.07.54.07.08.06.18.08.3.06.68.13,1.09.22,1.77.5.56.23,1.1.42,1.53.82.04.1.12.17.25.19l.53.53c.03.12.06.2.19.24.56.72,1.11,1.77,1.26,2.64-.02.12,0,.23.06.3l.07.42c0,.16.01.32.04.48-.02.15.06.33,0,.48-.12.24-.1.25.06.06.05-.1.02-.25.12-.36.37-.38.87-.58,1.37-.62l.3-.05c.09.03.2-.02.3,0,.16.02.32.04.48.04h.3c.09.05.19.07.3.06l.91.17c.42.08,2.09.58,2.5.74l.9.36.79.35c.08.07.14.13.24.12.07.05.17.04.24.1.06-.1.31.07.29.08-.01,0-.27-.13-.19-.18-.05-.05-.11-.11-.12-.18-.07-.13-.13-.19-.29-.22-.1-.04-.17-.07-.27-.17-1.32-1.35-2.19-3.13-2.27-5-.04-.22-.04-.44,0-.66.14-2.71,1.76-5.56,3.85-7.26.08-.04.15-.1.19-.18.64-.6,1.32-1.2,2.09-1.62.11-.03.19-.09.25-.18.37-.18.77-.4,1.13-.48.1,0,.17,0,.24-.07.25-.11.78-.16,1.08-.18.36-.02.72-.02,1.08,0,.03,0,.09.02.12,0,.11.04.23.06.36.05.2.04.43.05.66.12.63.21,1.09.67,1.56,1.09.14.15.25.16.33.03.16-.2.27-.46.46-.63.03.04.05.07.07.11.16.33-.33,1.81-.63,2.13-.83-.47-1.49-.85-2.47-.88-4.26-.11-7.35,4.64-6.98,8.54-.35.86-.31,2.44.07,3.36l.17.41c.02.07.02.14.01.2.12.22.17.67.4.58l.36.13c.49.21,1.02.36,1.56.53.68.22,1.35.37,2.04.37.47.05.97.05,1.44,0,.2,0,.4-.03.6-.01.17.01.31,0,.42-.05,1.13-.14,2.24-.44,3.26-.99.86-.47,1.55-1.13,2.13-1.88.1-.05.16-.13.19-.24.56-.94,1.01-1.96,1.14-3.05l.05-.3c-.02-.12.01-.24.01-.36.02-.25.04-.48.08-.71.12-.13.18-.07.16.1.08-.03.08,0,.01.08.05,0,.1.02.12.06.49.84.63,1.82.78,2.77l-.11.1c0,.1.02.2.05.3.19.04.21.37.01.42.04.15.03.29-.02.42-.02.23-.04.44-.06.66,0,.22,0,.54-.12.72,0,.39-.08.81-.17,1.2-.89,3.72-3.81,5.05-6.89,6.41h-.16c-1.21-1.98-3.37-3.41-5.53-4.24-2.57-1-5.39-1.04-7.86.24l-.38.1-.26.13c-2.82.12-6.25,1.47-6.67,4.56l-.14.11c-.05.19-.05.37,0,.54l.12.04.32,1.28-.08.11c.04.18.15.43.3.54.19-.03.23.15.1.28-.06.02-.12.04-.18.05-.39.07-1.48-.3-1.92-.45-1.47-.6-2.86-1.31-4.16-2.14-.13-.1-.2-.18-.03-.27l.14-.19c1.28-.54,2.49-1.2,3.47-2.2l.23-.06c.09-.05.13-.11.18-.19-.04-.03-.08-.07-.07-.11.04-.13.34-.6.49-.54.12-.05.15-.13.18-.25l-.02-.24c.46-.97.92-1.97.98-3.06l.12-.17c.05-.21.05-.43,0-.66l-.14-.09c-.16-.66-.68-1.09-1.23-1.46-4.01-2.71-8.79-.22-12.34,2.04l-.13-.06c-.83.12-1.65.32-2.45.6-1.29-.55-2.63-.63-3.97-.27-.16-.06-.31-.11-.46-.15l-.1.08-2.16-1.36c-3.45-1.97-7.26-3.11-10.73-.66-.87.61-1.32,1.37-1.15,2.41l-.13.07.05.3.15.12c.08.63.28,1.23.53,1.79l-.08.11c0,.1.04.18.13.25h.13c.6,1.63,2.01,2.62,3.5,3.38l2.48,1.08c.1.04.14.1.12.22-.03.06-.07.11-.11.16s-.08.1-.14.13c-2.26,1.27-4.64,1.96-7.23,2.1-.06,0-.12-.01-.18-.03s-.12-.05-.18-.07l.02-.25c.41-.63.68-1.35.83-2.08l.16-.19.05-.36c-.16-.02-.15-.07,0-.12.03-.17,0-.31-.05-.42l-.16-.16c-.58-2.58-3.23-3.72-5.65-4.07l-.25-.15c-.84-.56-1.73-.89-2.76-1.03-3.75-.5-8.14,1.83-10.88,4.26-.08.05-1.54-.67-1.74-.77-2.12-1.13-4.09-2.56-5.43-4.7-.82-1.3-1.31-2.82-1.31-4.35-.02-.05-.05-.09-.06-.14-.13-.44.4-1.94.69-2.46-.12.09-.22.2-.3.33h-.15s-.05-.1,0-.19c.15-.28.38-.52.67-.68.05-.13.24-.33.35-.22,0,.06.01.13,0,.19-.09.03-.1.12-.11.22-.16,1.26.04,2.49.54,3.67,1.13,2.67,3.52,3.91,6.32,4.11.8.06,1.56.06,2.37.01.66-.04,1.29-.2,1.91-.42s1.27-.38,1.9-.64c.21-.09.25-.45.32-.64.84-1.53,1.31-3.79.55-5.36-.03-2.41-.94-4.98-3.06-6.31-1.84-1.16-3.71-.86-5.48.28l-.26.07c-.08-.02-.54-1.3-.62-1.54-.03-.09-.01-.19,0-.29.47-.39.96-.9,1.59-1.09,1.79-.55,3.69-.15,5.2.93,1.01.73,1.9,1.51,2.77,2.39,1.72,1.74,3.06,4.38,3.13,6.86.05,1.8-.67,3.53-1.84,4.84-.39.44-.8.69-1.27.98,0,0-1.3,1.06-1.03,1.27.29-.37.61-.7,1.06-.84.18-.06.25-.22.39-.32.41-.32.85-.59,1.32-.72v.06Z"/>
  <path d="M5.34,66.38c-.05,4.06,1.14,7.72,3.76,10.86,1.86,2.22,4.85,3.71,7.76,3.36.11.07.11.06,0-.02-.2-1.13.32-2.2.97-3.1,2.05-2.85,5.89-4.7,9.4-4.63l.23.13c1.49.16,2.94.63,4.19,1.49,1.01.7,1.62,1.72,1.86,2.88.06.11.08.25.05.42v.12l-.05.36c-.15.9-.47,1.77-1.01,2.52v.13s0,.08-.03.11c-.66.95-1.76,1.78-2.9,1.96-.64.4-1.77.42-2.52.33-.19-.02-.37-.06-.55-.15-.02.03-.03.05-.05.08-.11.11-.8-.17-.96-.23-.04-.02-.09-.02-.13-.02l.18.13h.26c1.15.65,2.35,1.2,3.58,1.67l.32-.03c3.14.91,6.36.59,9.43-.46,2.15-.73,4.11-2.07,4.99-4.21-1.24-.49-2.48-.98-3.71-1.47l-.07-.13c-.22-.19-1-.45-1.33-.6-.16-.07-.33-.17-.48-.23l-.67-.28c-.2-.08-.4-.21-.58-.32l-.64-.37c-.93-.54-1.76-1.29-2.22-2.26l-.3-.61c-.1-.07-.14-.15-.13-.25-.05-.08-.28-.68-.34-.84-.14-.4-.18-.8-.26-1.19l-.05-.3c.05-.32-.08-.67.02-1.01.15-.47.42-.94.8-1.25,1.58-1.33,3.58-1.95,5.64-1.67s4.11,1.07,5.92,2.21l1.9,1.2c.14.03.29.08.44.14l2.91,1.8,3.18-2.04.35-.08,1.01-.6c.36-.21.69-.42,1.05-.64,1.75-1.04,3.64-1.74,5.67-2s3.97.35,5.46,1.66c.36.32.57.71.66,1.14.05.23.05.45,0,.66,0,.43-.08.86-.2,1.3-.2.77-.57,1.46-.88,2.17-.03.11-.06.21-.18.25l-.42.65c-.04.08-.09.15-.18.19-1.27,1.28-2.24,1.75-3.84,2.45v.13c-1.64.75-3.32,1.44-5.02,2.11.48,1.39,1.68,2.61,2.97,3.33,2.58,1.43,5.73,2.08,8.68,1.91l.39.09c1.11-.22,2.21-.48,3.3-.78.89-.32,1.75-.69,2.57-1.11.15-.13.3-.18.43-.15l.24-.12c.21-.19.45-.33.71-.42.12-.08.1-.09-.05-.05-.03.09-.24.22-.31.12-.65.37-1.38.54-2.18.51-.05-.09-.12-.13-.21-.11-.18.18-.65.18-.92.17-.56-.02-.89-.2-1.36-.47-1.23-.18-2.31-1.17-2.95-2.21v-.13c-.04-.09-.05-.2-.1-.28-.15-.11-.26-.37-.3-.54-.12-.19-.36-1.21-.36-1.43-.05-.17-.05-.35,0-.54.16-.99.31-1.44.95-2.3.2-.28.81-.84,1.11-1.03,1.64-1.01,3.1-1.44,5-1.47l.35-.11c3.24.22,6.83,2.05,8.58,4.82.54.85.93,1.86.6,2.86,0,.03.03.05.05.06.32.12,1.45.07,1.85.03,2-.18,4.21-1.32,5.58-2.78,2.22-2.36,3.51-5.36,4.04-8.53.01-.25.03-.54.12-.78-.05-.13-.05-.34,0-.48.06-.2.04-.4.02-.6.02-.14,0-.28-.01-.42-.03-.09-.04-.19-.05-.3-.03-.44-.34-1.98-.55-2.39-.1-.18-.25-.34-.24-.54.01-.09.1-.15.17-.19.02-.08.08-.09.17,0,.02.02.05.05.07.07.22.23.38.51.49.83.25.68.62,2.02.64,2.81.1,4.06-1.23,7.44-3.76,10.52-1.32,1.61-3.05,2.71-5.06,3.27s-2.2.02-4-.14c-.24-.02-.48.03-.64-.18.57-.47.17-1.56-.13-2.08-.57-1.01-1.35-1.82-2.25-2.54-1.18-.94-2.45-1.55-3.88-2-2.4-.75-5.01-.51-7.12.91-.92.62-1.53,1.65-1.57,2.75-.05,1.54,1.17,3.29,2.33,4.16.29.21.65.39.98.5s.71-.01,1.05.04c.5.08.98.08,1.46.1.41-.05.81-.09,1.21-.11.11-.03.25-.06.38-.08,1.09-.16,2.07-.65,2.92-1.36.04-.03.09-.05.1-.09,0-.02,0-.06-.03-.09,0-.07.05-.04.1,0,.25-.18.46-.42.65-.66.03-.03.05-.03.07,0-.11.29-.36.5-.53.77-.1.17-.17.34-.3.49-.36.42-.78.74-1.24,1.05-.89.59-1.74,1.17-2.68,1.68-2.03,1.1-3.58,1.51-5.83,1.86-.14-.1-.25,0-.37.04-.41.11-.8,0-1.22,0-1.91-.04-3.74-.39-5.52-1.07-1.25-.48-3.22-1.41-3.69-2.74-.72-.5-1.69-1.82-1.58-2.74l3.31-1.47c1.9-.84,2.81-1.18,4.57-2.31.93-.6,1.56-1.4,1.99-2.4.38-.88.68-1.76.67-2.74s-1.54-1.81-2.36-2.15c-1.01-.42-2.05-.57-3.17-.41-1.85.25-3.59.91-5.23,1.83-1.23.69-2.37,1.39-3.55,2.15l-2.33,1.5c-.13.08-.25.06-.38.04-.12-.02-.11-.19-.21-.26-1.79-1.22-3.61-2.34-5.5-3.41-1.46-.83-2.99-1.41-4.62-1.75-.92-.19-1.81-.22-2.69-.06-.15.08-.29.12-.43.11v.05c-.38.11-.74.25-1.08.43-.6.17-1.14.58-1.57,1.06-.16.17-.19.4-.2.62-.02.96.27,1.81.64,2.67.44,1.04,1.08,1.91,2.02,2.56,1.58,1.1,3.07,1.67,4.81,2.46l3.06,1.38c.08.93-.75,2.02-1.39,2.64-.31.3-.44.75-.77,1.04s-.65.57-1.03.8c-2.3,1.38-4.96,2.06-7.64,2.17-.41.02-.74.07-1.12.01-3.71-.5-3.79-.66-6.81-2.19-.15,0-.23-.05-.26-.13-.61-.31-2.19-1.47-2.77-1.99-.26-.24-.44-.51-.6-.8-.15-.27-.42-.45-.5-.73-.09-.08-.05-.11.06-.05.18.21.37.43.6.62.03.02.12-.03.13,0,0,.02-.03.11,0,.13.97.84,2.2,1.34,3.49,1.51.22.03.43.16.65-.01-.37.25,1.66.07,1.65.08l1.32-.08c.35-.02.76-.27,1.04-.49,1.13-.88,2.26-2.5,2.22-3.98-.03-1.15-.67-2.13-1.54-2.82-.48-.38-1-.6-1.57-.83-1.88-.77-3.88-.81-5.81-.21-1.39.43-2.63,1.02-3.77,1.93-1.06.84-2.76,2.54-2.54,4,.04.3.29.44.41.75-.29-.12-.48.06-.7.1l-2.25.39c-.72.12-1.4-.02-2.09-.21-1.96-.55-3.66-1.64-4.94-3.22-2.14-2.63-3.27-5.29-3.59-8.69-.12-1.26-.02-2.44.33-3.64.12-.4.25-.78.32-1.16.08-.13.16-.22.25-.3.05-.04.43-.65.57-.43.08.12-.21.42-.35.91-.18.61-.33,1.21-.4,1.81l.02-.06Z"/>
  <path class="st4" d="M77.35,41.25s-.04.05-.06,0v-.18c.02-.38.09-.75.25-1.12l.75-1.71c.2-.44.52-.73.92-.94l-.77,1.32c-.27.45-1.09,2.16-1.09,2.63Z"/>
  <path class="st46" d="M77.35,41.85c.07.39.07.8.19,1.2.11.35.54,1.43.78,1.56-.27.15-.56-.31-.66-.57-.33-.82-.44-1.7-.42-2.56.02-.05.04-.05.06,0l.06.36h0Z"/>
  <path class="st46" d="M23.5,44.62c.54-.75.8-1.62.91-2.53.18.23-.23,2.86-.91,2.53Z"/>
  <path class="st59" d="M7.32,41.54c-.67.48-1.25,1.02-1.81,1.63.28-.8,1-1.38,1.81-1.63Z"/>
  <path class="st120" d="M23.88,39.51c.03.11,0,.14-.08.06-.25-.51-.58-.99-.82-1.53l-.15-.34c.34-.1.94,1.57,1.04,1.8h.01Z"/>
  <path class="st50" d="M95.93,63.61s-.11,0-.17,0c-.06.05-.12.09-.19.1-.05-.04-.1-.08-.16-.1-.03-.02-.06-.07-.08-.13,0-.1-.06-.21-.08-.3-.04-.16.02-.31.13-.39l.55.8v.02Z"/>
  <path class="st85" d="M11.03,38.01c-.46.21-1.01.11-1.44.24.48-.22.9-.52,1.44-.24Z"/>
  <path class="st54" d="M92.05,38.19c-.16-.03-.42-.05-.59-.04-.36.04-.54-.08-.8-.2l.65-.05c.26-.02.52.18.73.29h0Z"/>
  <path class="st29" d="M37.05,68.23c.09-.01.11.01.07.06-.37.17-.76.3-1.15.41-.1-.15.99-.45,1.08-.47Z"/>
  <path class="st25" d="M75.74,82.51c-.39.11-.8.13-1.21.11.17-.12.41-.07.63-.1.08,0,.59-.19.58-.01Z"/>
  <path class="st12" d="M96.49,64.51l-.49-.83c.35.11.4.59.49.83Z"/>
  <path class="st76" d="M10.21,40.28c.05-.05.03-.12,0-.17.13-.03.29-.03.43,0-.1.15-.28.13-.42.18h-.01Z"/>
  <path class="st122" d="M91.57,40.13s-.05.11-.01.15c-.15-.02-.34-.03-.43-.18.16-.04.3.04.44.03Z"/>
  <path class="st56" d="M8.08,49.24c-.2.03-.28-.19-.34-.36.25,0,.2.23.34.36Z"/>
  <path class="st136" d="M24.11,40.05s-.1-.05-.13-.11l-.18-.37s.05-.04.08-.06l.24.54h-.01Z"/>
  <path class="st22" d="M6.54,63.02c-.15,0-.23.15-.35.22-.09-.17.3-.34.3-.34.07.03.05.07.05.12Z"/>
  <path class="st138" d="M4.94,44.19s-.13,0-.12-.02c.06-.19.2-.29.28-.4,0,.15-.14.28-.16.42Z"/>
  <path class="st68" d="M5.52,64.1c-.07.12-.09.3-.25.3.03-.17.16-.33.24-.48-.02.05.03.14,0,.18h.01Z"/>
  <path class="st33" d="M91.27,27.1c-.03-.08-.02-.11.06-.06.09.1.21.22.22.38-.19-.08-.2-.23-.28-.32Z"/>
  <path class="st23" d="M79.03,80.76c.02.05,0,.07-.06.06-.11-.05-.23-.1-.31-.24.17,0,.26.1.37.18Z"/>
  <path class="st87" d="M77.35,41.85c-.02-.11-.11-.22-.06-.36-.04-.06-.04-.17,0-.24h.06v.6Z"/>
  <path class="st28" d="M21.75,79.99s.06.03.01.06c.06.05.08.13.13.19l-.06.05s-.13-.08-.15-.18c-.01-.05-.04-.09.06-.12h.01Z"/>
  <path class="st140" d="M91.74,32.08c.02-.15-.02-.29-.06-.43.06,0,.13-.01.17.03-.06.17-.03.28-.11.4Z"/>
  <path class="st102" d="M37.48,68.12c-.09.1-.24.12-.36.17-.02-.02-.04-.04-.07-.06.15-.04.28-.08.43-.11Z"/>
  <path class="st66" d="M91.33,26.8c.01.08,0,.16,0,.24,0,.03-.04.05-.06.06-.04-.05-.05-.12-.07-.18.03-.06.04-.14.13-.12Z"/>
  <path class="st119" d="M93.85,49.07s-.02.13-.08.17c-.03.02-.1.1-.11,0,.04-.12.05-.16.18-.17h.01Z"/>
  <path class="st143" d="M2.88,43.47l-.09.24c-.04-.13-.07-.31.02-.42,0,.07,0,.15.08.18h0Z"/>
  <path class="st18" d="M8.28,49.47s0-.07.07-.06c.03.03.14.1.08.18-.05.05-.12-.07-.14-.12h0Z"/>
  <path class="st96" d="M80.05,79.98c0,.13-.07.12-.12,0-.08-.02-.17-.04-.24-.1.13-.02.31,0,.36.1Z"/>
  <path class="st39" d="M98.88,43.53c.07-.03.07-.11.07-.18.03.11.12.24.01.37l-.08-.19Z"/>
  <path class="st72" d="M80.05,79.98c.05.08-.04.22-.12.25h-.07c.06-.08.16-.16.07-.25h.12Z"/>
  <path class="st61" d="M25.97,83.95c-.11.03-.26-.05-.36,0-.05-.02-.05-.04,0-.06.04-.01.07-.04.11-.07l.26.13h-.01Z"/>
  <path class="st104" d="M5.52,47.43c.01.07.11.13.04.25-.07-.07-.14-.16-.16-.25h.12Z"/>
  <path class="st83" d="M25.07,84.06c-.09.02-.2.15-.31.02.13-.03.23-.02.31-.08.05.02.05.04,0,.06Z"/>
  <path class="st139" d="M8.28,49.29s.06.08.07.12c-.02.02-.04.04-.07.06-.03-.05-.09-.12-.13-.18h.13Z"/>
  <path class="st53" d="M21.76,80.05v-.06c.07-.02.11-.17.25-.11-.06.11-.16.13-.25.17Z"/>
  <path class="st73" d="M10.5,31.35s-.05,0-.08.02c-.05,0-.1-.01-.11-.05,0-.03-.02-.09.02-.15.07.06.12.11.16.18h0Z"/>
  <path class="st104" d="M96.3,47.49c-.03.06-.03.15-.14.21-.07-.11.06-.18.07-.27.02.02.04.04.07.06Z"/>
  <path class="st16" d="M25.37,83.94s.05.04,0,.06c-.1.05-.19.04-.3.06v-.06c.1,0,.2-.04.3-.06Z"/>
  <path class="st61" d="M93.49,49.41c-.04.07-.1.13-.17.19-.08-.14.08-.14.1-.19h.07Z"/>
  <path class="st1" d="M79.21,80.88s-.07.02-.1,0c-.05-.02-.09-.05-.14-.07l.06-.06c.06.04.15.05.18.12h0Z"/>
  <path class="st116" d="M25.6,83.88v.06c-.07.03-.18.03-.24.06v-.06l.24-.06Z"/>
  <path class="st40" d="M67.26,31.18c0,.27-.03.57-.23.77.37-.18-.64.41-.57.5.2.24.45,0,.66-.03.36-.05.72,0,1.09,0,.71,0,1.41-.07,2.13-.02.98.07,1.9.35,2.85.54.62.13,2.82.43,2.85,1.09l-.96.59c-1.72,1.87-2.65,4.32-2.67,6.88,0,.97.17,1.87.34,2.81l.6,3.37c.42,2.33,2.28,4.35,4.43,5.21,2.03.81,4.46.59,6.53,0,1.01-.29,1.94-.68,2.9-1.1s1.79-1.03,2.52-1.85c.62,1.27,1.44,2.5,1.55,3.9.05.79-.15,1.53-.67,2.14l-.76-.66c-.26-.23-.54-.39-.89-.48-1.76-.46-3.55-.16-5.09.79-.95.59-1.76,1.27-2.6,2.01-2.16,1.9-3.76,4.73-3.87,7.64-.07,1.77.61,3.41,1.69,4.75.05.02.05.04,0,.06-1.72-.63-2.63-1-4.47-1.16-1.42-.12-2.09.47-2.18.44-.07-.02.25-3.4-2.66-5.29-.67-.43-1.4-.68-2.16-.89-1.19-.33-2.38-.4-3.62-.42-1.58-.02-3.07.23-4.53.82-2.26.92-1.64.7-3.37,2.45-1.54-.99-3.06-1.43-4.88-1.05-.29.06-.45.05-.75-.02-1.65-.39-3.35.22-4.77,1.11-1.76-1.78-1-1.6-3.31-2.53-1.38-.56-2.81-.81-4.31-.79-1.99.02-4.07.23-5.83,1.26-1.76,1.03-2.96,3.13-2.93,5.27-.69-.34-1.45-.48-2.21-.35-.59.03-1.14.13-1.72.27l-3.04,1.01c2.62-3,2.44-6.54.57-9.81-.64-1.11-1.43-2.04-2.39-2.88-.86-.74-1.67-1.44-2.66-2.01-1.71-1-3.82-1.24-5.64-.46-.42.18-.64.63-1.03.85-1.64-2.06-.28-4.06.75-6.01.29.18.42.46.65.69.48.5,1.07.85,1.69,1.14.97.46,1.94.85,2.98,1.15,2.08.6,4.5.77,6.53-.04,1.1-.44,2.04-1.15,2.85-1.98,1-1.03,1.57-2.31,1.83-3.69l.32-1.68.06-.4.31-2.1c.44-2.99.09-6.76-2.39-8.32l-1.17-.74c-.06-.59,2.29-.93,2.81-1.03s.98-.25,1.5-.31c.48-.05.94-.21,1.43-.23.62-.03,1.23,0,1.84.02.41,0,.8-.05,1.21,0,.11,0,.87.29.89,0,0-.03-.68-.58-.58-.51-.19-.25-.3-.58-.24-.89.07-.57.36-1.03.59-1.51.32-.66.8-1.11,1.42-1.47s1.21-.67,1.86-.96l.99-.44,2.93-1.27c.58-.25.23-1.08.34-1.46.13-.45.28-.93.52-1.34.39-.66.71-1.3,1.06-1.98.37-.72.59-1.44.91-2.17.5-1.14.95-2.28,1.19-3.53.72-.1,1.38-.03,2.09-.09,1.92-.16,2.84-.13,4.74,0,.77.05,1.5,0,2.26.1.16.92.47,1.77.79,2.64.07.2.07.4.21.57.26.31.32.67.46,1.04.39,1.03.86,2.01,1.4,2.96.46.81,1.02,1.81.84,2.77-.03.14,0,.41.17.48l3.18,1.37c1.26.54,1.99.89,3.13,1.66.78.52,1.49,1.97,1.68,2.8l.03.03Z"/>
  <path class="st0" d="M44.38,11.23h.14c.33.95.09,2.06-.21,2.98-.61,1.45-1.18,2.93-1.73,4.42-.1.24-.17.36-.37.2v.36c-.1.35-.26.66-.47.94l-2.16,2.47c-1.04,1.14-2.24,2.12-3.6,2.84-3.43,1.78-6.88,3.59-10.35,5.45-2.38,1.31-4.95,2.17-7.68,2.23-1.63.09-3.27.1-4.93.02l-.38-.15c-.12-.08-.29-.1-.36-.25.3-.1.63-.12.98-.07,2.63-.21,5.27-.45,7.92-.73l-1.82-.1-.06-.12.03-.14c.96-.27,1.94-.41,2.95-.42.54-.24-.8-.37-.96-.37-1.18,0-2.36,0-3.54.04-.95.04.28.66.57.75v.14s-.02.12-.06.12c-1.48-.04-3.07-.13-4.57-.25-.4.02-.74-.05-1.02-.23l2.04-.86c.22-.09.38-.23.63-.27.32-.05.6-.3.92-.37,2.02-.43,4.31-2.1,5.3-3.85.06-.06.13-.11.22-.13.88.01,1.76.08,2.63.15.01.15.04.28.08.41l.09-.11c.27-.06.85-.12.99.13.25-.19.5-.35.78-.49,1.74.17,3.34-.37,3.59-2.3l1.71-2.34c.11-.16.22-.22.34-.17-.04-.14.05-.22.27-.26l2.08-.4c2.01-.48,3.77-1.59,2.93-3.94-.17-.47-.32-.73-.81-.57l-8.07,3.5c-.55.23-1.12.4-1.7.51l-.17-.04c-.19-.03-.17-.45-.12-.62.2-.7,2.09-1.47,2.72-1.71,1.95-.76,4.02-1.49,6.04-1.93.3-.12.28-.14-.06-.06-1,.28-2.01.55-3.02.8-1.6.47-4.59,1.42-5.69,2.58-.24.25-.32.64-.33.97.1.9,0,1.76-.29,2.56l-.15.06c-.12.16-.3.25-.54.26-.65.17-2.15.39-2.77.17-.16-.06-.23-.13-.34-.25-.26-.19-.35-.52-.57-.76-.18-.19-.22-.4-.34-.58-.06-.13-.02-.25.12-.36,1.01-.8,2.08-1.51,3.22-2.14l.25-.02.13.25c.15-.46.04-.91,0-1.37h.15l.53.66c.13.13,1.21-.93,1.39-1.12.19-.2.46-.48.57-.7.37-.53.62-1.15.34-1.79.19-.04.24.08.32.11.13.34.29.69.48,1.04.47.04.95,0,1.45-.12.86-.1.97-.27.34-.53v-.14c.15.02.3-.05.43-.17.56-.52,1.12-1.1,1.42-1.81.02-.05.06-.07.1-.06.02,0,.03.03.03.06l.08.17c-.18.58-.3,1.16-.37,1.75.55-.17,1.11-.32,1.67-.46l.43.02.78-1.04c.19-.33.34-.67.45-1.02l.14.04c.75.39,1.49.78,2.33,1.02.33.1.61.27.93.39.28.11.84-.03,1.04.31.63-.25,1.11-.75,1.51-1.3.48-.68.79-1.43.77-2.28-.02-.94-.29-1.81-.7-2.64-.28-.56-.62-1.04-.95-1.54,0-.04.03-.04.06,0,.6.38,1.17.83,1.73,1.31,1.23,1.05,1.78,2.48,1.16,4.05-.28.73-.7,1.37-1.19,1.98-.63.77-1.27,1.48-1.97,2.17-.34.34-.7.59-1.02.99.63.3.85-.18,1.31-.63,1.34-1.31,2.49-2.31,3.36-4.02.22-.42.35-.84.44-1.28h.03Z"/>
  <path class="st0" d="M61.7,6.17s.03.04,0,.07c-1.03,1.34-1.86,2.61-2.09,4.37-.13.99.15,1.89.75,2.67.35.46.73.83,1.29,1.04.05.02.12.1.19.06.04-.02.08-.04.06-.16.53.07.96-.16,1.45-.35,1.01-.38,1.99-.76,2.91-1.29l.13.08c.15.72.6,1.42,1.11,1.92l.06.14.35-.04,1.78.49c-.08-.51-.18-1.02-.3-1.52l.1-.11c.26.44,1.33,1.74,1.87,1.68.04.03.05.07.04.12-.52.27-.56.42-.11.46.63.17,1.25.24,1.88.22.2-.37.38-.76.53-1.16.06-.03.09-.05.15.01.04.04.09.13.06.18-.34.68.05,1.22.4,1.73.25.16.47.38.66.66l.9.81c.29.32.49.3.6-.07.14-.24.29-.35.47-.33-.15.45-.12.92-.04,1.39.1-.11.05-.22.1-.3l.11-.11c1.16.64,2.27,1.36,3.33,2.15.27.19.35.39.22.6-.27.44-.59.85-.91,1.25-.11.12-.2.18-.35.23-.62.2-2.23-.02-2.88-.21-.18,0-.3-.07-.36-.2l-.18-.08c-.34-.89-.46-1.82-.36-2.8-.04-.57-.25-.86-.73-1.18-1.92-1.29-4.6-1.99-6.82-2.51-.5-.13-.99-.27-1.45-.42-.06-.01-.11,0-.12.06.94.14,1.86.41,2.75.81,1.47.45,2.91.99,4.32,1.62.49.24,1.41.7,1.65,1.2.08.17.19.49-.03.57l-.06.14c-.65-.13-1.29-.32-1.91-.59l-7.96-3.45c-.47-.16-.64.13-.79.58-1.16,3.26,2.66,4.05,5.04,4.32.13.02.19.07.18.2h.14l1.77,2.53c.08.02.15.05.19.11.03,1.78,1.69,2.47,3.31,2.2.29.01.53.16.72.43.12.11.25.1.39-.05.33-.01.65-.02.98,0,.09-.1.11-.14.13-.27.83-.09,1.68-.13,2.52-.16.03,0,.07.02.11.04s.07.05.11.08c.79,1.58,2.74,3.04,4.42,3.61.44.15.87.16,1.27.44.22.15.51.19.77.26.15.04.25.19.39.25.63.29,1.27.48,1.85.79-.13.18-.35.26-.67.24l-4.64.25-.08-.12-.03-.15.85-.51c.08,0,.18-.22.13-.22-1.42-.09-2.91-.16-4.29-.01-.31.02-.56.13-.74.33.78.03,1.57.1,2.34.23.12.02.63.11.68.18.03.04,0,.1-.03.15l-.05.12-1.68.1c2.68.28,5.34.52,7.99.73.36-.05.69-.03,1,.06-.03.18-.29.15-.37.25l-.34.13c-1.64.07-3.37.14-4.98,0-1.93-.18-3.4-.36-5.23-1.07-1.01-.39-1.99-.88-2.94-1.39-3.02-1.7-6.15-3.32-9.24-4.86-1.68-.86-3.18-2.01-4.43-3.42-.77-.86-1.52-1.73-2.23-2.61l-.22-.58c.02-.08-.03-.2-.03-.28-.21.03-.28-.12-.35-.29-.59-1.59-1.21-3.17-1.84-4.73-.13-.51-.42-1.91-.17-2.35.04-.06.06-.09.16-.08.23,1.17,1.19,2.65,2.04,3.48l1.75,1.71c.22.21.41.48.67.65l.76-.14c0-.22-.19-.22-.29-.33-.23-.26-.49-.46-.74-.7-.65-.63-1.21-1.29-1.8-1.98-1.08-1.27-2.18-3.07-1.49-4.78.65-1.61,3.25-2.97,3.46-3.19v-.03Z"/>
  <path class="st109" d="M89.16,32.99c-.09.11-.2.15-.33.25l-.74.53-1.75,1.25c-1.03.73-1.98,1.51-2.98,2.29-.61.47-1.15.94-1.7,1.47-.27.27-.52.55-.94.6.24-.56.19-1.15.32-1.69s.06-.96-.28-1.41-.78-.76-1.4-.77h-.81c-.06-.04-.2-.07-.12,0-.55.12-.28-.04-1.21.08l-1.43.19c.33-.12.51-.37.73-.65.24-.3.51-.67.4-1.08-.18-.7-.78-1.15-1.46-1.28l-2.01-.4-1.2-.06-.49-.07c-.14-.14-.38-.15-.59-.17l-1.38-.12s-.11-.03-.25-.04c-.17,0-.36,0-.53.03-.44-.04-.86-.04-1.32-.03.61-.84-.46-2.73-.93-3.4-.29-.42-.67-.65-1.11-.89l-1.85-1.02c-.5-.28-1-.47-1.52-.71l-1.5-.7-.56-1.49c-.22-.59-.64-4.71-.69-4.51l.41.66,1.7,1.97c2.23,2.58,3.78,3.4,6.86,4.91,1.94.95,3.79,1.95,5.68,3,3.55,1.97,5.86,3.17,9.99,3.29l2.89.08c.72.02,1.41-.07,2.09-.1h0Z"/>
  <path class="st13" d="M22.73,36.02c.68,0,1.36,0,2.05-.04l.05.05c.14-.06.35-.02.48.07,1.71,1.2,2.86,3.67,2.81,5.74-.12,5.07-5.67,9.12-10.56,8.52-2.07-.25-3.88-1.06-4.15-3.28l-.54.79c-1.14,1.29-2.17,2.56-2.67,4.23-.08.5-.36.95-.42,1.5-.1.96.05,1.88.66,2.64.08.09.19.15.22.31.11-.1.2-.12.27-.18.25.56.45,1.12.65,1.74,1.26-.75,2.04-1.14,3.53-1.12.67,0,1.23.2,1.81.51.81.43,1.51.96,2.03,1.73.95,1.41,1.57,3.08,1.45,4.8,0,.06-.03.1-.06.12-.44-.91-1.17-1.62-2.12-2.01-.2-.08-.36-.19-.51-.35-.99-.95-2.17-1.65-3.5-2s-2.78-.02-3.81.97c-.41-1.24-.83-2.39-1.03-3.64l-.28-1.72c.02-3.23.69-5.73,2.47-8.41.39-.59.78-1.12,1.31-1.58.07-.06.2,0,.26.03.08.07.11.14.08.2l.51.4.68.41c.2-.02.39.14.46.31-.02.62.42,1.14,1.07,1.3.7.55,1.6.85,2.55.66,1.91-.37,3.69-1.28,5.19-2.5.12-.1,0-.32.03-.42.57-.76,1.04-1.58,1.22-2.54.19-1.04.28-2.12-.05-3.15-.29-.9-.62-1.79-1.12-2.59-.43-.69-1.26-.95-1.97-1.25.28-.2.64-.26.95-.25Z"/>
  <path class="st109" d="M36.4,27.52c-.18.05-.34.15-.48.25-.6.42-1.08.96-1.41,1.64s-.89,1.74-.59,2.5c-.43-.01-.76.03-1.12.04-.23-.05-.47-.05-.72,0-.31.1-1.61.03-1.99.23-.11.06-.17.14-.29.13-.08-.05-.22-.05-.3,0l-1.08.06-1.99.4c-.68.14-1.19.53-1.51,1.14-.42.79.12,1.24.68,1.8-.4-.02-.81-.08-1.25-.18-.23-.05-.86.09-.84-.03-.02-.06-.18-.05-.24,0h-.75c-.49.02-.88.23-1.22.54l-.24.18c-.1.1-.13.27-.21.39-.29.41-.24.81-.14,1.27s.06.93.21,1.42c-.27-.16-.56-.3-.79-.54-.49-.51-.98-.96-1.54-1.39l-2.76-2.16-1.25-.85-1.92-1.38c.69.05,1.38.13,2.1.11l2.88-.08c4.38-.13,6.39-1.4,10.05-3.34l5.41-2.87,2.68-1.39c1.51-.78,2.81-1.86,3.94-3.14l1.69-1.92c.33-.37.59-.75.81-1.17,0,.18-.1.33-.13.51l-.14.82c-.18,1.11-.05,2.28-.47,3.33l-.53,1.34-2.48,1.21-2.06,1.12h0Z"/>
  <path class="st13" d="M78.73,36.02c.39-.04.81.03,1.19.33-.9.35-1.78.83-2.18,1.74-.86,1.97-1.3,2.72-1.01,4.98.1.77.41,1.41.71,2.11.08.2-.17.65,1.14,1.58,1.23.87,2.59,1.49,4.04,1.89,1.16.32,2.24.04,3.21-.6.46-.3.91-.6,1.01-1.16l.08-.19.73-.41c.11-.11.22-.2.35-.29l.09.05.24-.18c.03-.18.32-.54.48-.37.42.3,1.02,1.12,1.32,1.6.91,1.43,1.62,2.84,2.02,4.49.71,2.93.62,4.61-.27,7.48l-.51,1.63c-2.01-1.98-4.93-.79-6.79.75-.98.81-1.76,1.76-2.43,2.83-.28.45-.46.92-.65,1.39-.3-.42-.08-1.94.07-2.51.34-1.3.92-2.47,1.73-3.54.7-.92,1.59-1.57,2.62-2.07.92-.44,1.85-.63,2.89-.53.77.07,1.44.39,2.11.89.35-.69.54-1.42.58-2.15.99-2.03.22-3.44-.78-5.21-.22-.39-.4-.77-.72-1.1-.1.14-.27.18-.37.27-.21-.05-.38-.21-.51-.46-.58-.74-1.24-1.73-.93-2.68l-.21.23c-2.22,3.87-8.92,4.83-12.25,1.94-3.91-3.39-1.69-9.89,1.94-12.63.05-.04.28-.06.34-.02,0-.03.01-.06.02-.06.22-.03.49-.03.7,0v-.02Z"/>
  <path class="st67" d="M27.88,10.19l.36.12c.06.11.23.06.35.16-.15,1.17-.35,1.53-1.3,2.26-.81.63-1.73,1.05-2.67,1.46-.55.24-1.05.51-1.59.69l-.07-.13c.33-.5.6-1.04.11-1.53-.03-.03-.21-.2-.22-.19-.98.41-2.08.97-2.96,1.56-2.12,1.4-3.7,3.19-5.31,5.14l-.09.26c-.55.65-1.09,1.31-1.61,1.97l-.14.05c.03-.24,0-.48.09-.71.09-.26.17-.52.24-.79.87-1.86,1.81-3.66,2.82-5.39.5-.85.82-1.74.95-2.68l-2.05.34-4.28,1.07c-1.26.38-2.5.78-3.72,1.2-.4.04-.77.16-1.23.18l2.29-1.14c1.9-.95,3.82-1.74,5.84-2.42,3.8-1.27,8.64-2.26,12.64-1.82.56.06,1.07.17,1.56.36v-.02Z"/>
  <path class="st109" d="M94.99,15l-.67-.15c-3.04-1.09-6.2-1.97-9.38-2.41.15,1,.5,1.96,1.05,2.86.98,1.67,1.89,3.41,2.73,5.23l.15.64c.02.21.02.45.06.66l-.14-.05c-.46-.55-.93-1.11-1.4-1.66l-.09-.27c-1.58-1.91-3.12-3.71-5.18-5.11-1-.68-2.1-1.22-3.2-1.71-.04-.02-.4.42-.44.55-.13.41.09.77.3,1.11l-.06.13c-1.43-.62-4.4-1.75-5.24-3.14-.22-.37-.23-.81-.35-1.23.28-.05.43-.12.63-.19.08-.05.16-.11.24-.18h.06c.1,0,.2-.02.3-.06.18.02.34-.11.52-.14,3.13-.44,7.01.13,10.08.93s5.99,1.89,8.82,3.29c.68.33,1.25.71,1.95.98-.3.08-.51-.06-.74-.08h0Z"/>
  <path class="st135" d="M10.2,52.11c.19-1.2.84-2.27,1.65-3.2.56-.64,1.1-1.26,1.52-2,.2.1.18.28.22.48.18,1.09.92,1.95,1.97,2.36,1.73.67,3.65.75,5.43.22,2.26-.67,4.17-1.99,5.52-3.9,1.51-2.15,2.01-4.78.82-7.21-.53-1.08-1.27-1.99-2.21-2.74-.09-.07-.21-.08-.3-.08,0-.14.31-.12.42-.06.23-.05.47-.09.72-.12.08,0,.17.03.24-.03-.04-.05-.11-.02-.16-.06-.02,0,.03-.05.07-.06l.09-.02c-.07-.4-.79-1.31-.64-1.57.28.23.69.38.89.7.28.45.56.86.82,1.34,1.01,1.83,1.57,3.88,1.53,5.99-.05,2.73-.08,3.06-.82,5.57-.49,1.64-1.53,2.97-2.96,3.87-.45.28-.87.55-1.38.72-2.14.69-4.57.44-6.68-.25-1.2-.39-2.38-.76-3.45-1.4l-1.05-.63c-.43-.26-.54-.62-.71-.56-.14.05-.39.59-.4.6l-1.16,2.05h0Z"/>
  <path class="st135" d="M75.85,35.86c.08,0,.14.03.18.05.16.02.32.04.48.06.11-.05.31-.05.42,0,.16.03.32.05.48.06.05-.04.61-.05.62-.02,0,.02,0,.05-.02.08-.1,0-.18.02-.28.1-1.76,1.48-3.05,3.44-3.67,5.66-.94,3.41.43,6.86,3.87,7.99.71.23,1.35.42,2.12.44,2.79.09,5.96-.71,7.58-3.18.22-.34.39-.67.81-.81-.18.39-.3.81-.17,1.22.26.82.85,1.55,1.35,2.18-.38.34-.8.67-1.29.93-1.09.58-2.2,1.02-3.38,1.41-2.15.72-4.74.97-6.89.18-.51-.19-.94-.47-1.4-.77-1.38-.88-2.4-2.17-2.92-3.74-.29-.89-.53-1.78-.69-2.71-.09-.55-.06-1.09-.11-1.67-.25-2.43.16-4.83,1.3-6.98.28-.52.58-.99.92-1.47.23-.32.59-.48.92-.73.12.2.08.42-.03.6l-.55.93c.05.02.09.02.11.04.06.03.03.06,0,.07-.06,0-.1-.03-.14.03.11.05.24.03.35.03l.03.02Z"/>
  <path class="st109" d="M32.03,21.17c-.34-.07-.72-.06-1.12.03-1.33.11-2.62.28-3.78.86-.11.04-.08.13.09.29-.52,1.44-1.19,2.8-2.4,3.74-.09.12-.18.24-.28.35-.07,0-.14-.07-.21-.09.03-.11.09-.15.09-.25-1,.02-1.85-.15-2.8-.1.53-.94.58-2.08.31-3.09.1.11.24.26.36.36l-.26-.48c.8.45,2.78.08,3.65-.18l.08.13c-.19.43-.35,1.3.03.28.51-.92.87-1.79.68-2.88l.1-.17c.82-.21,1.62-.48,2.44-.83l7.46-3.25c.3-.13.59-.08.76.22.75,1.29.48,2.89-.84,3.77-1.44.96-4,.93-4.35,1.28h-.01Z"/>
  <path class="st109" d="M75.19,19.9l.11.1c-.05.54-.1,1.09-.02,1.63.05.3.69,1.67.89,1.88.09.09-.09-.68-.12-.76l.1-.11c1,.23,2.61.59,3.58.18-.06.07-.09.18-.15.25-.11.19-.11.21,0,.06.11-.04.15-.21.31-.2-.4,1.03-.31,2.12.15,3.07-.9-.04-1.73.12-2.68.1,0,.08.04.14.07.22-.08.03-.16,0-.24-.01l-.37-.42c-.83-.57-1.22-1.31-1.7-2.25-.11-.21-.6-1.22-.57-1.34.02-.1.08-.16.17-.19,0-.03-.09-.11-.13-.13-.2-.12-1.05-.44-1.28-.47-1.11-.17-2.17-.29-3.28-.4-.15.04-.26.03-.35-.03-.1-.07-.27-.1-.42-.12-1.2-.19-2.89-.44-3.88-1.1-1.31-.88-1.57-2.47-.83-3.75.17-.29.45-.36.75-.23l7.38,3.22c.26.12,2.37.95,2.5.79h0Z"/>
  <path class="st41" d="M21.1,25.36c-.07.2-.14.4-.23.6.03.03.03.09,0,.18-.62.95-1.5,1.69-2.48,2.32-.07.04-.24.2-.32.15-.17-.3-.45-.47-.66-.74-1.17-1.51-2.37-2.93-3.8-4.22,1.05-.73,2.14-1.25,3.33-1.61,1.38-.41,2.82-.08,3.91.83.63.74.49,1.67.26,2.49h-.01Z"/>
  <path class="st109" d="M83.72,18.18c.16.09.32.17.54.25-1.04.31-1.21.26-1.99,1.11-.6.65-1.17,1.3-1.62,2.04.25-.26-1.27-1.23-1.5-1.37l-1.83-1.11c-.12-.07-.2-.17-.33-.16.25-.46.08-1.3,1.75-2.02.23-.1.38-.31.66-.28l-.61-.1c-.25-.04-.46.16-.68.14-.27-.02-.52-.11-.82-.09-.35.03-.69.07-1.02.07-.1-.02-.2-.04-.3-.06-.03.05-.18.04-.24,0-.18.01-.34,0-.48-.06h-.3c-.05-.03-.2,0-.22-.08-.07-.57-.02-1.21.28-1.71.08-.14.31-.16.36-.31,1.28.58,2.56,1.18,3.86,1.79,1.55.64,3.04,1.29,4.48,1.95h.01Z"/>
  <path class="st109" d="M24.7,18.94c-1.08.72-1.99,1.13-3.07,1.96-.22.17-.4.34-.53.56-.48-.73-1.04-1.4-1.64-2.06-.29-.32-.59-.59-1.01-.76-.28-.11-.64-.05-.81-.26,1.65-.77,3.34-1.51,5.06-2.22,1.09-.52,2.19-1.02,3.3-1.51l.33-.07c.57.1.71,1.24.66,1.74l-1.27.17c-.94.12-1.87.14-2.81.03-.2.12-.38.06-.61.14,2.05.92,1.82,1.14,2.4,2.29h0Z"/>
  <path class="st144" d="M86.58,25.31l-.13.07c-1.42-.61-5.27-1.25-4.8,1.32l-.11.1c-.29-.18-.45-.51-.65-.78-.11-.2-.2-.41-.29-.62l.05-.06c-.24-.8-.43-2.07.36-2.68.97-.74,2.18-.99,3.39-.68,1.32.34,2.56.96,3.72,1.77l-1.54,1.55h0Z"/>
  <path class="st63" d="M20.21,16.14c-.12.11-.34.11-.48.21.06.08.12,0,.18.05l-2.26,1.63c-.78.56-.66.03-.95.33-.42.42,1.14.8,1.66,1.08.05.06.1.12.1.2.01.18-.02,1.37-.06,1.43-.67.08-1.35.2-1.97.47-.84.32-1.61.87-2.46,1.13-.46.28-.93.54-1.41.8l-.16-.07.32-1.4c.59-.77,1.13-1.6,1.84-2.28l.94-1.05c1.77-1.6,3.66-3.04,5.67-4.34.15-.12.28-.1.34.08.02.07-.38,1.14-.55,1.25l-.76.48h0Z"/>
  <path class="st63" d="M87.31,19.85c.61.6,1.1,1.31,1.63,1.98.09.46.18.92.3,1.37.07.19.03.27-.11.23l-.68-.41c-1.1-.7-2.27-1.32-3.54-1.67-.5-.15-1.01-.25-1.53-.3-.01-.51-.04-1.01-.07-1.52l.1-.22c.51-.18,1.03-.38,1.52-.63.15-.08.23-.4.1-.41-.37.07-.56.02-.81-.2-.32-.28-1.86-1.43-2.18-1.52-.05-.1-.11-.2-.18-.3-.12,0-.2-.08-.31-.12-.79-.36-1.13-.87-1.21-1.72,0-.1.06-.14.16-.11,1.46.96,2.96,1.95,4.31,3.08.9.75,1.77,1.55,2.51,2.48h-.01Z"/>
  <path class="st78" d="M12.82,21.29c.03-.09.01-.26.01-.35.05-.26.04-.53,0-.79,0-.54-.12-1.08-.24-1.61l.02-.24c.87-1.63,1.9-3.28,2.92-4.85.05-.08.12-.15.19-.22s.15-.14.22-.2c.01-.06-.03-.08-.12-.06l-.17.17c-.91.17-1.79.46-2.65.8-1.29.28-2.55.67-3.79,1.16h-.24c-.2-.04-.4-.08-.6-.09l-.36-.05c-.42,0-.83.03-1.25.09-.04-.08.06-.09.14-.12,1.24-.46,2.44-.92,3.73-1.24l3.79-.95c.83-.21,1.65-.33,2.5-.42.11.74-.66,2.33-1.01,2.97l-1.55,2.78c-.58,1.04-1.07,2.07-1.48,3.19,0,.08-.06.15-.09.05l.03-.02Z"/>
  <path class="st0" d="M94.99,15c-.72-.06-1.46-.11-2.16.1h-.25c-1.31-.54-2.65-.95-3.99-1.23-.8-.37-1.68-.58-2.57-.74-.33-.16-.29-.27.03.03,1.1,1.67,2.13,3.37,3.09,5.1l.02.26c-.24.86-.35,1.76-.29,2.64-.42-.94-.8-1.89-1.32-2.82l-1.55-2.78c-.43-.76-1.28-2.42-1.17-3.27,1.36.12,2.59.44,3.89.76,2.15.53,4.27,1.08,6.28,1.95h0Z"/>
  <path class="st63" d="M92.83,15.1c-1.53.46-3.23,1.85-3.66,3.42-.23-.36-.44-.73-.67-1.14-.84-1.52-1.74-2.95-2.71-4.42.74.14,1.4.27,2.07.48.34.1.63.33,1,.36l1.63.43c.83.22,1.64.47,2.35.87h0Z"/>
  <path class="st63" d="M15.83,12.95c.1-.03.17-.05.12.06-.94,1.46-1.88,2.92-2.73,4.47-.21.38-.4.72-.62,1.05-.17-.75-.57-1.38-1.13-1.94-.71-.71-1.53-1.26-2.48-1.5.76-.45,1.64-.69,2.53-.92l1.3-.33c.41-.1.75-.27,1.13-.41.62-.22,1.26-.32,1.87-.49h.01Z"/>
  <path class="st109" d="M69.97,12.71l-.08-.46c-.19-.03-.28-.11-.3-.26-.09.14.02.28-.08.38-.65.64-1.27,1.28-1.88,1.96-.09.11-.13.25-.08.35.05.01.05.03,0,.05-.1-.02-.16-.03-.25-.13-.42-.49-1.01-1.38-1.04-2,.11-.06,1.46-.93,1.4-1.12-.05-.16-.81.4-.93.42.14-.47.41-.81.61-1.21.09-.19.2-.38.35-.5.04-.08.1-.14.18-.18.01-.04,0-.08,0-.12.12-.11.24-.21.36-.3-.02-.12.14-.23.24-.3l.06-.12c.02-.08.08-.14.18-.18.07-.11.19-.18.24-.3.02-.06.06-.12.12-.18.84-.59,1.49-1.47,2.28-2.15l.08.1-.96,1.87c-.59,1.33-.5,2.8-.2,4.19-.06.14-.16.21-.3.18h0Z"/>
  <path class="st109" d="M35.56,12.71c-.11.05-.09.18-.13.29-.21.58-.55,1.09-.94,1.57-.09.11-.19.14-.3.16-.04,0-.04-.02,0-.05.09-.28-.11-.5-.3-.71-.5-.53-.96-1.07-1.52-1.54-.13-.11-.14-.26-.18-.44-.09.28-.38.31-.4.6-.05.19-.21.12-.28-.05.53-2.03.18-3.85-.9-5.63l.06-.19c.99.89,1.92,1.83,2.81,2.86.76.87,1.31,1.87,1.75,2.91.13.05.24.16.34.21h-.01Z"/>
  <path class="st30" d="M86.58,25.31l-2.25,2.7c-.15.18-.3.34-.47.5-.24.24-2.2-1.39-2.31-1.7-.05-.32-.14-.66-.01-1,.62-1.69,3.81-1.06,5.05-.5h-.01Z"/>
  <path class="st0" d="M69.97,12.71c-.02-.09.16-.12.19-.19-.36-1.48-.38-3.12.34-4.5l.86-1.65c1-.86,2.01-1.73,3.16-2.48-.22.33-.5.57-.79.82-.68.59-1.28,1.22-1.85,1.92-1.28,1.56-1.22,3.48-.3,5.19.36.68.68,1.37,1.19,1.93l.57.62c-.64.27-1.28.21-1.93.1-.2-.03-.3-.05-.46-.16-.69-.45-.84-.73-.99-1.6h0Z"/>
  <path class="st0" d="M30.65,6.73c.15.41.39.77.58,1.19.8,1.73.73,2.82.37,4.61-.01.06.15.07.17.07-.08.95-.23,1.34-1.11,1.78-.68.34-1.62.17-2.35-.04.18-.28.4-.43.58-.68.46-.64.86-1.3,1.23-2.01.8-1.54,1.04-3.4-.03-4.86-.36-.5-.77-.9-1.15-1.35-.09-.13-.06-.16.06-.06.58.41,1.12.87,1.65,1.35Z"/>
  <path class="st109" d="M22.06,46.06c.13.02.27-.03.42.1-.29.14-.51.33-.78.48l-2.33,1.32c-.41.23-.88.27-1.31.3-.12,0-.2-.05-.24-.11-.7-.17-2.58-.73-2.32-1.77.06-.25-.04-.49-.31-.52l-.94-.14-1.21-1.02c-.17-.14-.36-.31-.59-.36-.4-.09-.82-.15-1.13-.44-.24-.22-.23-.58-.17-.87.25-.36.91,0,1.15.29l.69.49c1.14,1.13,2.61,1.7,4.13,2.12.33.12.56.37.69.75.4.18.85.22,1.34.13,1-.15,1.97-.4,2.91-.75Z"/>
  <path class="st109" d="M90.49,42.99c.09.27.27.69-.02.94-.45.39-.97.16-1.66.75l-1.22,1.04-.9.13c-.35.05-.54.39-.47.73.17.75-.84,1.15-1.4,1.29-.4.1-.8.35-1.22.34-1.36-.03-3.09-1.39-4.24-2.1.07-.07.14-.05.2-.06.47.08.95.22,1.41.41.89.25,2.13.58,2.98.2.1-.28.27-.5.49-.66,1.28-.33,2.47-.85,3.56-1.56.56-.45,1.12-.9,1.67-1.34.18-.12.67-.35.8-.12h.02Z"/>
  <path class="st109" d="M57.33,11.45c-.26.59-.03,2.05.24,2.71l1.25,3.1c.21.52.32,1.04.58,1.53.02.03.11-.02.13,0,.03.03,0,.09,0,.12-.11.05-.12.18-.21.29-.81-.62-1.49-1.28-2.14-2.03-.48-.85-.87-1.75-.96-2.73-.08-.87-.09-1.74,0-2.61.05-.49.7-1.85.99-2.05.04-.08.1-.18.18-.12-.15.59-.17,1.2-.06,1.8h0Z"/>
  <path class="st109" d="M42.22,18.83c0-.09.14,0,.16-.03.25-.47.36-.98.56-1.48l1.27-3.15c.28-.7.54-2.38.18-2.94.09-.46.09-.88.07-1.42.42.69.91,1.37,1.03,2.19.13.89.1,1.79,0,2.69s-.42,1.82-.94,2.57c-.57.83-1.38,1.41-2.13,2.06-.15-.19-.06-.37-.2-.49Z"/>
  <path class="st0" d="M90.49,42.99c-.63,0-1.28.6-1.77,1.04-1.24,1.14-2.38,1.51-3.95,1.99-.82.25-.39.78-1.04.89-1.15.2-3.15-.34-4.16-.85.66-.1,1.29-.35,1.92-.56.08.17-.3.28-.43.24-.08.04-.06.07.06.07.1-.09.24-.16.43-.21l4.85-1.03c1.04-.29,2.02-.78,2.93-1.35.38-.23.21-.91-.43-.78-.36.07-.74.19-1.09.31l-.16-.06c.14-.43,1.12-.58,1.53-.57.59.02,1.12.35,1.3.87h0Z"/>
  <path class="st0" d="M13.85,42.57c-.18.06-.38.05-.62-.04-.42-.13-1-.25-.99.35,0,.14.1.28.21.35.94.56,1.92,1.08,2.99,1.36l4.57.99c.29.12.57.19.84.21.38.13.8.19,1.19.26,0,.07-.05.11-.13.14-1.06.41-2.83.94-3.94.69-.58-.13-.17-.64-1-.88-1.59-.47-2.72-.87-3.97-2.01-.47-.43-1.25-1.16-1.88-.97.1-.5.55-.85,1.09-.9.38-.04,1.49.1,1.62.44h.02Z"/>
  <path class="st0" d="M23.03,14.87c-.29.1-.6.22-.91.36l-1.92.9c.45-.44.84-.47,1-1.22.04-.2.2-.35.2-.58-.41.24-.75.51-1.14.78-2.64,1.82-3.38,2.38-5.69,4.61,1.52-2.18,3.4-4.14,5.72-5.54.83-.5,1.67-.86,2.54-1.27.58.28.77.87.5,1.42-.1.19-.23.36-.3.54Z"/>
  <path class="st0" d="M87.31,19.85c-2.38-2.35-3.18-2.95-5.94-4.84-.32-.22-.58-.45-.96-.65.4,1.36.23.95,1.14,1.77-.37-.13-.72-.31-1.07-.54-.37-.24-.79-.36-1.19-.54l-.56-.24c-.17-.29-.38-.58-.4-.96-.02-.42.26-.74.61-.94.9.41,1.77.79,2.62,1.31,2.35,1.43,4.22,3.42,5.76,5.63h-.01Z"/>
  <path class="st14" d="M12.71,31.36c.68.11,1.36.12,2.08.16l3.57.2.13-.06c.11.08.23.12.36.13.23-.19.39-.22.46-.07l3.03.16c-1.35.27-2.64.32-3.98.45l-4.2.41c-.65.06-1.26.05-1.87,0-.07,0-.56-.29-.59-.45-.04-.26.32-.49.57-.71.12-.1.29-.24.44-.22h0Z"/>
  <path class="st14" d="M89.54,32.73c-.69.08-1.32.07-1.99,0l-4.14-.41c-1.32-.13-2.59-.17-3.92-.45l2.79-.16.11-.1.51.18c.2-.13.35-.15.46-.08l3.78-.22c.56-.03,1.11.01,1.62-.15.81.19.58.21,1.05.63.1.09.27.29.19.43-.1.17-.3.27-.46.32h0Z"/>
  <path class="st14" d="M81.13,45.82c-.1.03-.14,0-.06-.07.17-.05.3-.17.43-.24l1.28-.7c.32-.17.64-.19.98-.16.37.03.64-.28.95-.4.43-.16.8-.38,1.21-.56.48-.21.97-.34,1.36-.72.11-.11.26-.18.38-.26.38-.19.76-.24,1.15-.35.32-.1.64-.04.78.25.13.27.04.59-.24.76-1.02.6-2.07,1.16-3.25,1.41l-4.96,1.05h-.01Z"/>
  <path class="st14" d="M13.85,42.57c.21.12.42.34.61.51.39.34.83.43,1.28.62.4.17.75.4,1.17.55.3.11.54.42.9.39.33-.03.64-.02.95.15.69.37,1.37.76,2.1,1,.02.05-.05.08-.11.07l-5.09-1.1c-1.18-.25-2.23-.81-3.24-1.41-.25-.15-.35-.41-.28-.66.05-.2.28-.45.55-.39.4.09.8.14,1.16.27Z"/>
  <path class="st0" d="M27.65,13.14c-.2.41-.55.77-.96,1.02-.19.11-.39.18-.36.42-1.88.92-3.75,1.81-5.72,2.61-1.01.41-1.96.88-2.97,1.19l2.76-1.99c.76-.55,1.14-.31,2.33-.86.43-.2.84-.36,1.29-.52,1.3-.46,2.47-1.13,3.56-1.95.06-.02.08,0,.06.06v.02Z"/>
  <path class="st109" d="M91.68,41.01c.08.14.3.49.07.6-.37.2-.95.27-1.37.2-.38-.07-.69-.27-1.11-.21-.73.11-1.46.37-2,.87-.43.4-.97.62-1.52.82-.27.1-.48.3-.74.38-.32.09-.52.27-.77.45-.29.03-.57.03-.85,0l-.03-.09c.75-.63,1.79-1.26,2.62-1.81.13-.09.27-.16.42-.23.83-.36,2.42-.94,3.3-1.11.65-.12,1.43-.2,1.98.11v.02Z"/>
  <path class="st0" d="M83.72,18.18s-.09.03-.15.01l-2.39-.99c-1.91-.79-3.74-1.63-5.58-2.56-.11-.06-.25-.06-.22-.19.07-.35-.37-.16-.74-.65-.13-.17-.3-.31-.39-.48-.08-.08-.05-.12.05-.06.97.8,2.12,1.37,3.33,1.8.45.16.86.32,1.29.52.48.23.96.37,1.49.42.65.06,1.18.62,1.63.95l1.67,1.23h.01Z"/>
  <path class="st109" d="M15.52,42.09c.21.11.32.23.49.36.73.56,1.54,1,2.21,1.6v.08c-.18.02-.38.02-.59,0-.32-.18-.55-.42-.91-.47-.22-.04-.35-.23-.54-.31-.58-.26-1.19-.47-1.68-.89-.81-.68-1.99-1.18-2.99-.6-.41-.04-1.8-.05-1.62-.66.24-.36.8-.4,1.21-.4.61,0,1.21.16,1.78.34l2.64.96h0Z"/>
  <path class="st0" d="M91.68,41.01c-.02.12-.14.02-.23,0-.8-.18-1.62-.07-2.39.2l-1.69.57c-.48.16-.91.39-1.38.46.06-.06.1-.14.18-.2.92-.64,1.86-1.24,2.71-1.97.22-.19.37-.36.71-.31.37.05.73.21,1.09.33.17.06.21.19.34.27.25.14.53.41.66.65Z"/>
  <path class="st0" d="M15.52,42.09s-.05.07-.11.06l-2.3-.81c-1.04-.37-2.22-.67-3.22-.14.08-.31.31-.54.58-.68.52-.27.32-.58,1.62-.76.35-.05.47.19.67.37.46.43.98.79,1.51,1.14.43.28.81.6,1.25.83h0Z"/>
  <path class="st0" d="M27.96,14.14c-.07.12-.24.03-.32,0-.06-.03-.03-.19-.06-.3,1.71-1.77,2.1-4.68,1.39-7.09,1.77,1.86,1.05,4-.14,5.97-.32.46-.6.91-.88,1.43h0Z"/>
  <path class="st144" d="M90.31,17.45s.06-.11.12-.18c.32-.22,1.4-1.78,3.37-1.73-1.73.6-2.59,1.5-3.4,3.15-.55,1.12-.79,2.3-.89,3.56-.34-1.38-.14-3.68.8-4.8Z"/>
  <path class="st0" d="M73.93,14.24c-.27-.35-.39-.74-.63-1.09-1.04-1.52-2.18-3.74-1.31-5.56.27-.45.53-.9.95-1.25-.93,2.5-.72,5.72,1.22,7.59.07.07-.12.33-.23.31Z"/>
  <path class="st0" d="M83.4,19.32c.07.54.1,1.08.05,1.68.53.04,1.02.13,1.46.36-1.37-.37-2.8-.02-3.96.85.17-.66.59-1.17,1.05-1.61.4-.38.96-1.11,1.41-1.27h-.01Z"/>
  <path class="st30" d="M10.8,44.35c-1.27.28-2.27.95-3,2.02.17-1.44,1.59-2.89,2.82-3.53-.15.57-.19,1.09.18,1.51Z"/>
  <path class="st19" d="M12.25,22.25c-.2-1.71-.32-2.61-1.11-4.12-.37-.71-.85-1.34-1.48-1.83-.4-.31-.85-.46-1.27-.7.97.13,1.78.68,2.48,1.34.65.6,1.06,1.31,1.26,2.17.24,1.05.32,2.09.12,3.13h0Z"/>
  <path class="st0" d="M90.07,38.74l-.04.13-.62.08c-.72.3-1.43.64-2.14,1.01l-.27.02-.26-.59,2.09-1.35c.4-.11.88.09,1.3.11-.07.24-.07.4-.06.6h0Z"/>
  <path class="st30" d="M9.25,42.23c-1.3.14-2.39.69-3.41,1.47.58-1.17,2.4-2.42,3.56-2.67-.11.27-.2.49-.12.73.06.2.22.38.45.49-.17.13-.3-.03-.48-.02Z"/>
  <path class="st0" d="M16.43,21.53c.1-.13.29-.14.46-.21.47-.17.91-.32,1.44-.32-.05-.55-.01-1.05.03-1.57.5.28.83.78,1.27,1.18s.82.8,1,1.38c-1.02-.72-2.24-.97-3.42-.66l-.77.2h-.01Z"/>
  <path class="st0" d="M14.79,39.95l-.21-.02c-.79-.38-1.59-.72-2.39-1.02-.23,0-.42-.06-.55-.17v-.63c1-.11,1.2-.32,1.85.38.19.2.43.29.64.44l.84.6c-.03.17-.12.3-.18.43h0Z"/>
  <path class="st14" d="M73.7,14.87c.23-.15-.31,1.02-.34,1.11-.06.15-.2.23-.38.22-.35-.02-2.07-.22-2.15-.47-.02-.05.02-.14.08-.18l.46-.32s.08-.02.09-.06c.01-.05-.08-.06-.09-.12.92.05,1.49.21,2.34-.18h-.01Z"/>
  <path class="st30" d="M10.51,39.94c-.24-.14-.5-.22-.77-.2-.65-.2-1.26-.17-1.97-.11,1.22-.6,1.99-.9,3.36-1.08.15.2.03.42.04.61.03.32-.03.51-.32.68-.1.05-.15.22-.35.11h.01Z"/>
  <path class="st14" d="M30.11,15.06c.16-.02.21.01.18.09l.12.08.43.29c.08.05.14.13.11.22-.08.23-1.77.43-2.1.46-.21.02-.36-.06-.44-.24-.05-.13-.5-1.07-.28-.96.64.21,1.31.12,1.98.06Z"/>
  <path class="st14" d="M24.83,17.82l-.37-.6c1.34.12,1.33.2,2.47-.35.17-.08.4-.02.53-.21.04,0,.06.1.03.15-.47.66-1.04,1.24-1.73,1.69-.07.05-.29.16-.34.09-.18-.31-.44-.51-.61-.77h.02Z"/>
  <path class="st30" d="M93.72,45.93c-.92-1.01-1.56-1.34-2.89-1.65.38-.37.41-.8.36-1.33.65.38,1.16.87,1.65,1.39.36.47.74.92.88,1.58h0Z"/>
  <path class="st14" d="M76.94,17.86c-.75.67-.45.93-.91.65-.71-.43-1.29-1.07-1.73-1.72.08.12.29,0,.4.07.39.25.79.5,1.28.45l1.45-.15c-.25.17-.3.52-.49.69h0Z"/>
  <path class="st30" d="M93.62,39.56c-.76,0-1.96.14-2.58.45-.32-.65-.45-.02-.47-.87,0-.2-.15-.36-.04-.57,1.25.18,1.94.45,3.09,1h0Z"/>
  <path class="st14" d="M69.49,13.55l.32,1.44c.02.1.03.24-.05.29-.05.03-.16,0-.24-.02-.66-.22-1.31-.39-1.96-.53v-.05c.29.2,1.47-1.27,1.77-1.57.08.16.13.3.16.43h0Z"/>
  <path class="st30" d="M95.45,43.22v.06c-.88-.59-1.85-.96-2.9-1.05-.26.08-.52.11-.75,0,.49-.21.77-.66.62-1.19,1.21.46,2.27,1.19,3.04,2.17h-.01Z"/>
  <path class="st14" d="M34.18,14.69s.02.03,0,.05c-.72.15-1.42.37-2.17.59-.1-.19-.06-.4,0-.59l.37-1.48c.45.44.85.93,1.35,1.35.13.11.32.06.45.08h0Z"/>
  <path class="st11" d="M90.07,38.74c.01.27-.05.48.11.72-.58-.23-1.51.07-1.94.39l-1.23.92c-.07.04-.11.04-.12,0,.12-.27.13-.54.1-.79.42-.26.87-.48,1.35-.69l1.04-.46s.69-.09.69-.09Z"/>
  <path class="st11" d="M14.79,39.95c-.09.21-.06.41-.11.66l-1.22-.9c-.16-.12-.36-.12-.53-.19-.49-.19-.94-.2-1.48,0,.16-.29.26-.53.2-.8.42-.03.79.1,1.19.27.68.3,1.32.6,1.96.94v.02Z"/>
  <path class="st112" d="M13.97,22.66c-.11.15-.85.59-1.03.73-.27.21-.46.51-.76.7.02-.26.17-.47.22-.7.5-.15.92-.53,1.42-.69l.14-.04h0Z"/>
  <path class="st15" d="M88.81,45.5c-.21.05-.22.27-.48.37l-.24.18c-.16.04-.29.18-.44.23-.05.03-.06,0-.03-.04l.97-.89c.11-.1.16.11.22.15Z"/>
  <path class="st71" d="M87.65,46.28c-.21.25-.53.43-.82.6.03-.18.02-.35,0-.6.31.26.5.07.79-.04,0,0,.02.03.03.04Z"/>
  <path class="st89" d="M25.25,35.92s.05.04,0,.06c-.14,0-.32-.05-.42.06-.3.02-.62-.04-.94.02-.27.05-.76-.03-1.16-.03,0-.03.02-.04.07-.04h1.38c.37-.02.72-.09,1.07-.07Z"/>
  <path class="st58" d="M89.24,23.2c.05.18.16.36.17.6-.22-.1-.34-.29-.51-.45-.15-.13-.36-.16-.44-.33.2,0,.87.53.79.18h0Z"/>
  <path class="st77" d="M83.36,44.04c.11.05,1.02-.02.88.09-.25.18-.82.08-1.18.17.06-.16.21-.18.31-.26h0Z"/>
  <path class="st52" d="M14.86,46.77c-.21,0-.31-.22-.46-.31l.53-.14c-.03.2-.07.32-.07.46h0Z"/>
  <path class="st35" d="M34.72,31.9c-.31-.22-.42-.59-.24-.89l.24.89Z"/>
  <path class="st103" d="M18.22,44.05c.09.08.21.06.23.19-.28.02-.58.03-.82-.11-.11-.11.54-.05.59-.08Z"/>
  <path class="st82" d="M67.03,31.95l.23-.77c.08.36.07.63-.23.77Z"/>
  <path class="st129" d="M78.73,36.02l-.72.07s-.05-.06-.12-.06h-.48c-.05-.02-.05-.04,0-.06h1.25s.07.02.06.05h.01Z"/>
  <path class="st47" d="M20.86,26.14c-.05-.06,0-.13,0-.18.07-.23.17-.43.3-.6.05-.07,0-.2.13-.25-.05.4-.24.73-.44,1.03h.01Z"/>
  <path class="st17" d="M80.65,25.35c.07.22.22.43.24.67-.15-.21-.33-.4-.37-.71.06-.02.09.03.13.04Z"/>
  <path class="st135" d="M87.55,71.23s-.05.06-.12.06h-1.2c-.06,0-.12-.02-.12-.06h1.44Z"/>
  <path class="st81" d="M13.31,45.63c.07.16.28.13.42.42-.19-.12-.41-.14-.51-.4,0-.1.03-.09.1-.02h-.01Z"/>
  <path class="st21" d="M27,16.41c-.18.22-.36.23-.58.17.14-.15.39-.22.58-.17Z"/>
  <path class="st86" d="M17.81,48.15c.09.02.19.03.24.11-.35.02-.69.02-1.03-.08.17-.12.72.17.79-.03Z"/>
  <path class="st115" d="M25.97,35.85c-.21.15-.47.12-.72.12v-.06c.22-.12.48-.04.72-.06Z"/>
  <path class="st113" d="M29.01,5.38s-.11,0-.06.06c-.12-.14-.3-.27-.45-.39-.02-.05,0-.06.05-.04.18.09.3.27.46.38h0Z"/>
  <path class="st135" d="M88.03,55.09c-.36.02-.72.03-1.08,0,.35-.03.73-.11,1.08,0Z"/>
  <path class="st135" d="M42.44,64.35c-.17.07-.41,0-.45-.19.17.04.3.14.45.19Z"/>
  <path class="st135" d="M95.42,63.62c-.02.23-.05.46.05.7-.07.03-.1.01-.13.02,0-.28.01-.56,0-.84.06,0,.09.07.08.13h0Z"/>
  <path class="st99" d="M21.17,25.36c-.13.19-.13.44-.3.6.02-.22.09-.43.23-.6h.07Z"/>
  <path class="st45" d="M19.13,63.5v-.06c.18.14.32.32.36.55-.18-.14-.23-.34-.36-.49Z"/>
  <path class="st135" d="M38.44,63.54c-.28.03-.56.02-.84,0,.26-.07.58-.07.84,0Z"/>
  <path class="st135" d="M63.86,63.54c-.28.02-.56.03-.84,0,.26-.08.58-.08.84,0Z"/>
  <path class="st125" d="M72.2,70.45c-.07.12-.09.29-.28.39,0-.19.13-.32.22-.44l.06.06h0Z"/>
  <path class="st111" d="M78.55,35.5s-.08.02-.12,0c-.22-.04-.43.03-.67-.04-.08-.05.99-.06.79.03h0Z"/>
  <path class="st135" d="M50.37,65.52s-.03.11-.07.11c-.35-.07-.67,0-.65-.1.24.02.48,0,.72,0h0Z"/>
  <path class="st101" d="M69.8,31.96c-.26-.02-.52.02-.78,0-.18-.09.98-.09.78,0Z"/>
  <path class="st133" d="M30.28,15.15s-.13-.04-.18-.09c.11,0,.24-.15.42-.04l-.24.13Z"/>
  <path class="st67" d="M12.84,20.93v-.79c.09.24.1.55,0,.79Z"/>
  <path class="st80" d="M28.55,5.01l-.05.04c-.13-.11-.31-.2-.36-.37.23.05.28.27.41.33Z"/>
  <path class="st135" d="M30.14,71c-.1-.23-.01-.48-.05-.73.09.22.14.49.05.73Z"/>
  <path class="st132" d="M84.31,48.27c-.05-.02-.05-.04,0-.06.15-.08.31-.09.48-.03-.16.05-.32.1-.48.09Z"/>
  <path class="st145" d="M68.24,9.59c-.1.13-.19.29-.36.3.08-.14.21-.23.3-.36.05-.03.07,0,.06.06Z"/>
  <path class="st150" d="M23.51,35.51c-.08,0-.16,0-.24,0-.18-.1.82-.08.72-.04-.18.06-.34,0-.49.04h.01Z"/>
  <path class="st42" d="M75.74,16.61s-.06.05-.12.06c-.13,0-.24-.03-.36-.06-.05-.02-.05-.04,0-.06.16.04.37-.08.48.06Z"/>
  <path class="st24" d="M32.8,31.96h-.72c.18-.05.61-.14.72,0Z"/>
  <path class="st25" d="M22.94,45.65c.02-.07.16-.13.2-.08s-.03.11-.06.13-.15,0-.14-.05Z"/>
  <path class="st26" d="M36.4,27.52c-.15.08-.3.23-.48.25.09-.17.3-.24.48-.25Z"/>
  <path class="st147" d="M82.04,16.55c-.13-.03-.2-.18-.18-.3.05,0,.13.06.17.09.06.04,0,.15,0,.21h.01Z"/>
  <path class="st135" d="M51.39,65.59c.02.19-.48.05-.6,0,.2.01.4,0,.6,0Z"/>
  <path class="st49" d="M19.76,64.57c-.06-.16-.2-.27-.21-.48.13.12.24.24.21.48Z"/>
  <path class="st135" d="M78.12,65.71c-.08-.2-.08-.46,0-.66-.01.21,0,.45,0,.66Z"/>
  <path class="st100" d="M77.17,35.98s-.12.05-.24,0h-.42c-.05,0-.05-.03,0-.06h.54c.06,0,.12,0,.12.06Z"/>
  <path class="st135" d="M55.9,66.43c.02-.14.2-.14.28-.22,0,.07,0,.15-.06.19-.07.05-.15.02-.22.03Z"/>
  <path class="st110" d="M76.51,35.92c-.13.06-.33.04-.48,0-.04-.04-.17.03-.18-.05.13,0,.69-.06.66.05Z"/>
  <path class="st134" d="M72.26,32.32c-.17,0-.35.06-.49-.07.14-.05.37-.02.49.07Z"/>
  <path class="st135" d="M80.94,71.1c-.12-.04-.18-.17-.29-.22.07,0,.15-.02.23.03.06.03.04.13.05.2h0Z"/>
  <path class="st149" d="M79.58,23.14c-.02.12-.12.27-.26.28.07-.18.18-.25.26-.34v.06Z"/>
  <path class="st117" d="M68.48,9.29c-.06.12-.16.2-.24.3-.02-.02-.04-.04-.06-.06.08-.11.15-.24.3-.24Z"/>
  <path class="st135" d="M59.43,64.21c-.03.06-.07.13-.12.16-.07.04-.19.07-.18-.04l.3-.12Z"/>
  <path class="st128" d="M26.39,16.66c-.15.01-.26.04-.36-.02l.23-.08c.06-.02.1.03.14.1h0Z"/>
  <path class="st135" d="M74.78,69.48c-.16,0-.36.07-.48-.04.16.03.35-.06.48.04Z"/>
  <path class="st55" d="M89.8,33.1c.14.02-.4.24-.18.18-.07.02-.12-.04-.09-.09,0,0,.15-.1.27-.09Z"/>
  <path class="st108" d="M77.17,35.98h.24v.06c-.16,0-.36.06-.48-.06h.24Z"/>
  <path class="st135" d="M72.14,69.91c-.13-.12-.04-.32-.04-.48.03.16.07.31.04.48Z"/>
  <path class="st2" d="M41.99,23.75c-.02-.18.04-.3.08-.43.08.17,0,.31-.08.43Z"/>
  <path class="st135" d="M88.57,71.17s-.03.1-.07.1c-.13,0-.24-.05-.35-.05.12-.09.28-.03.42-.05Z"/>
  <path class="st135" d="M27.22,69.43c-.12.13-.32.04-.48.05.13-.08.33-.03.48-.05Z"/>
  <path class="st118" d="M80.96,71.38l.1-.1c.06.06.13.09.19.18-.09-.07-.23-.02-.29-.08Z"/>
  <path class="st75" d="M87.01,40.78c-.08.06-.14.13-.24.18-.03-.02-.03-.04,0-.06.06-.04.07-.12.12-.12,0,0,.12,0,.12,0Z"/>
  <path class="st127" d="M84.31,48.21v.06c-.14,0-.28.03-.42-.03.16-.07.3,0,.42-.03Z"/>
  <path class="st135" d="M84.25,55.99c.05-.09.15-.13.25-.18,0,.06-.02.12-.06.16-.05.05-.14,0-.19.02Z"/>
  <path class="st60" d="M19.13,63.44v.06c-.06-.09-.18-.15-.18-.3.14.02.15.17.18.24Z"/>
  <path class="st135" d="M69.99,65.29c-.06,0-.13.01-.19-.02-.05-.03-.06-.1-.05-.17.08.07.17.11.25.19h0Z"/>
  <path class="st135" d="M88.51,55.15l-.29.05s-.06-.08-.07-.1c.13-.03.24.03.36.05Z"/>
  <path class="st135" d="M36.22,63.61s-.03.1-.07.1l-.29-.05c.11,0,.23-.09.36-.05Z"/>
  <path class="st94" d="M73.76,10.25c-.02-.13.14-.13.24-.18.02.15-.14.14-.24.18Z"/>
  <path class="st105" d="M28.24,10.31c-.13-.01-.27-.02-.36-.12.12.05.28-.03.36.12Z"/>
  <path class="st135" d="M36.88,63.56c-.1.12-.28.05-.42.05.13-.07.28-.04.42-.05Z"/>
  <path class="st135" d="M26.56,69.49s-.03.11-.07.1l-.29-.05c.11-.01.23-.09.36-.05Z"/>
  <path class="st31" d="M74.3,13.26l-.05.06c-.04-.09-.18-.13-.18-.25.16,0,.17.14.23.19Z"/>
  <path class="st27" d="M79.08,70.08v-.06c.07.05.22.05.25.18-.14.05-.17-.09-.25-.12Z"/>
  <path class="st51" d="M75.26,16.55v.06c-.09-.02-.22-.02-.3-.07.06-.13.21-.02.3,0h0Z"/>
  <path class="st135" d="M82.51,70.33c-.14.01-.29,0-.36-.13.14-.01.25.08.36.13Z"/>
  <path class="st3" d="M85.99,41.54c.06-.1.13-.16.23-.24.02.12-.05.23-.23.24Z"/>
  <path class="st135" d="M91.06,56.39s.02.11,0,.15c-.05.1-.07,0-.14,0-.14-.03-.14-.13-.19-.18.12.03.24.16.33.03Z"/>
  <path class="st107" d="M77.29,41.25c-.01.07.03.17,0,.24h-.06c0-.15.04-.29.05-.42,0,.06.02.12,0,.18Z"/>
  <path class="st62" d="M86.78,40.96c-.11.06-.11.21-.25.18.07-.14.16-.18.25-.24v.06Z"/>
  <path class="st69" d="M11.78,44.44c-.1.11-.2-.02-.33-.04.08-.04.21-.09.33.04Z"/>
  <path class="st131" d="M80.27,36.82c-.08,0-.15,0-.16-.03,0,.04.02-.13.2-.09.05,0,.07.12-.05.12h.01Z"/>
  <path class="st124" d="M61.7,6.24v-.07l.16-.18c.1.13-.1.17-.16.24h0Z"/>
  <path class="st3" d="M40.54,6.67h-.06c-.05-.07-.22-.08-.16-.2.14.04.17.14.22.2Z"/>
  <path class="st135" d="M35.32,63.73s-.05.11-.09.11c-.08,0-.14-.04-.21-.05l.3-.06Z"/>
  <path class="st44" d="M68.72,8.99c-.05.07-.09.15-.18.18-.09-.1.09-.17.18-.18Z"/>
  <path class="st148" d="M57.39,9.65l-.18.12c0-.1.07-.18.16-.24.03.06.02.09.02.12Z"/>
  <path class="st135" d="M53.25,65.58s-.1.02-.17.05c-.06.02-.11-.02-.13-.1.1,0,.21.05.3.05Z"/>
  <path class="st95" d="M74.36,10.01c-.08.08-.21.15-.3.06.09-.05.2-.07.3-.06Z"/>
  <path class="st135" d="M85.87,55.27s.01.07-.01.13l-.23-.07c.06,0,.19-.04.24-.07h0Z"/>
  <path class="st37" d="M27.65,13.14s-.04-.04-.06-.06c.06-.05.07-.16.17-.19.04.13-.07.17-.11.25Z"/>
  <path class="st67" d="M8.4,14.99c-.12,0-.27.04-.36-.05.12,0,.28-.07.36.05Z"/>
  <path class="st63" d="M75.74,16.61h.24c.05.02.05.04,0,.06h-.36c.01-.06.07-.06.12-.06Z"/>
  <path class="st48" d="M86.53,41.13c-.03.07-.08.16-.22.19-.02-.09.13-.21.22-.19Z"/>
  <path class="st8" d="M90.07,44.49l-.06-.06c.11-.07.22-.09.31-.03-.11.04-.18.04-.25.09Z"/>
  <path class="st84" d="M89.01,33.66c-.07.05-.09.08-.11.1-.01,0-.08,0-.08-.03,0-.03.08-.07.1-.11.07-.08.17-.05.1.04h0Z"/>
  <path class="st135" d="M72.03,69.01c-.05-.01-.11-.05-.11-.09.02-.09.04-.15.05-.22.02.09.04.21.06.3h0Z"/>
  <path class="st135" d="M64.94,63.6c-.11,0-.29.06-.36-.05.12,0,.27-.04.36.05Z"/>
  <path class="st135" d="M27.88,69.48c-.12,0-.28.07-.36-.05.14-.02.24,0,.36.05Z"/>
  <path class="st74" d="M28.04,4.62c-.1.01-.16-.08-.22-.17.12-.03.18.04.22.17Z"/>
  <path class="st135" d="M81.75,69.63s-.09-.04-.07-.09c0-.04.04-.08.06-.11.02.05.06.08.09.12.04.05-.02.11-.08.08Z"/>
  <path class="st135" d="M46.89,65.95s-.05.08-.09.13c-.05.06-.1.04-.16-.01.08-.02.14-.11.24-.12h0Z"/>
  <path class="st135" d="M93.96,68.29c.06-.08.11-.17.19-.24-.03.04.02.14-.02.19-.04.04-.1.06-.16.06h-.01Z"/>
  <path class="st90" d="M21.29,36.04c-.07.07-.11.2-.24.18.07-.07.11-.2.24-.18Z"/>
  <path class="st135" d="M66.44,63.79c-.05,0-.1,0-.17.04-.06.02-.11-.02-.13-.1.12,0,.2.04.3.06Z"/>
  <path class="st135" d="M70.71,66.07c-.06,0-.14,0-.17-.05-.04-.06-.03-.13-.02-.19,0,0,.19.24.19.24Z"/>
  <path class="st135" d="M22.49,70.56s-.05.09-.09.13c-.05.06-.1.04-.16-.01.07-.03.16-.09.24-.12h.01Z"/>
  <path class="st135" d="M40.54,63.79s-.11,0-.18.04c-.06.02-.11-.02-.13-.1.11.02.2.04.3.06h.01Z"/>
  <path class="st135" d="M80.72,71.28s-.09.07-.13.04c-.06-.05-.09-.11-.12-.16.09.04.16.06.24.12h.01Z"/>
  <path class="st91" d="M68.96,8.69c-.1,0-.03-.07,0-.09l.12-.09c0,.08-.04.15-.12.18Z"/>
  <path class="st97" d="M67.88,10.01c-.03.08-.1.14-.18.18.01-.04,0-.12.06-.15.04-.02.08-.03.12-.03Z"/>
  <path class="st9" d="M76.28,16.67h-.3v-.06c.1,0,.24-.04.3.06Z"/>
  <path class="st123" d="M95.45,43.28v-.06c.05.06.16.07.19.18-.12.04-.15-.06-.19-.12Z"/>
  <path class="st141" d="M90.01,44.43s.04.04.06.06c-.09,0-.18.04-.31-.02.07-.08.17-.03.25-.04Z"/>
  <path class="st5" d="M74.79,3.75c-.11.12-.18.08-.11-.05.09-.07.18-.04.11.05Z"/>
  <path class="st135" d="M29.69,69.55c-.08-.08-.11-.22-.02-.3.01.1.02.2.02.3Z"/>
  <path class="st135" d="M39.34,63.6c-.1,0-.25.06-.3-.05.11,0,.2.03.3.05Z"/>
  <path class="st135" d="M95.28,65c.01-.1-.04-.23.05-.3.01.1.06.25-.05.3Z"/>
  <path class="st135" d="M74,69.43c-.05.11-.2.05-.3.05.1,0,.19-.08.3-.05Z"/>
  <path class="st135" d="M62.42,63.56c-.05.12-.2.04-.3.04.07-.08.2-.04.3-.04Z"/>
  <path class="st135" d="M75.38,69.54c-.1,0-.25.06-.3-.05.12,0,.19.03.3.05Z"/>
  <path class="st135" d="M47.31,65.82s.02.1-.03.13c-.06.03-.11-.05-.15-.07.05,0,.14-.04.18-.06Z"/>
  <path class="st135" d="M81.97,57.8c.03-.09.13-.12.19-.18,0,.04,0,.09-.03.13-.03.06-.12.03-.16.05Z"/>
  <path class="st88" d="M29.8,32.32h-.3c0-.08.09-.07.15-.07.05,0,.14,0,.15.06h0Z"/>
  <path class="st137" d="M21.53,36.45c.04-.08.1-.12.17-.18.04.1,0,.19-.17.18Z"/>
  <path class="st135" d="M65.6,63.66c-.1,0-.25.06-.3-.05.12,0,.2.04.3.05Z"/>
  <path class="st135" d="M51.87,65.53c-.05.11-.2.05-.3.05.07-.08.2-.04.3-.05Z"/>
  <path class="st114" d="M13.31,45.63l-.1.02c-.03-.07-.09-.12-.08-.2.07.02.15.11.18.18Z"/>
  <path class="st142" d="M90.31,17.45c-.1,0-.03-.07,0-.09l.12-.09c.03.1-.07.13-.12.18Z"/>
  <path class="st135" d="M24.35,69.96s-.04.12-.09.11c-.06,0-.11-.04-.16-.05.07-.02.18-.04.25-.07h0Z"/>
  <path class="st13" d="M27.46,72.97c-.43-.05-.91,0-1.38.02-.77.04-1.48.25-2.22.46-1.47.43-2.78,1.13-3.98,2.08-1.4,1.1-3.36,3.23-2.88,5.16-1.54.2-2.6.02-4.04-.54-1.49-.58-2.8-1.47-3.84-2.7-2.3-2.7-3.49-5.54-3.82-9.07-.07-.69-.05-1.34.03-2,.04-.02.05.02.05.07.25,2.5,1.06,4.17,2.75,6,.71.76,1.47,1.37,2.37,1.9l1.63.99,1.65.78c.88-.9,1.88-1.55,2.95-2.17,1.3-.75,2.62-1.37,4.07-1.74,1.7-.44,3.11-.64,4.84-.18.57.15,1.51.47,1.8.96l.02-.02Z"/>
  <path class="st13" d="M96.3,69.31c-.26,3.09-1.7,6.07-3.76,8.41-.86.98-1.91,1.72-3.09,2.24-1.76.78-2.91.94-4.85.73.81-1.89-1.23-4.09-2.58-5.18s-2.83-1.8-4.49-2.22c-.77-.2-1.51-.33-2.27-.32.67-.48,1.48-.73,2.3-.93,3.04-.76,6.09.18,8.63,1.87,1.26.84,2.08,1.5,2.88,2.89l2.37-1.11c.75-.35,1.45-.8,2.11-1.33,1.04-.84,1.76-1.98,2.23-3.22.24-.63.35-1.25.47-1.87.08-.07.08-.04.06.06v-.02Z"/>
  <path class="st13" d="M68.95,80.57c.06,0,.13.09.17.15,1.42,2.09,2.63,1.97,2.83,2.08l.59.31c.46.24,1.1.11,1.63.1.22,0,.31.03.08.22-1.45.78-2.97,1.52-4.58,1.9-2.09.19-4.17-.04-6.21-.68-1.36-.43-2.64-.95-3.81-1.77-1.05-.97-1.65-1.58-2.2-2.93l2.87-1.16,2.34-1.03c0,.1.07.15.16.21l1.83,1.06c1.34.78,2.8,1.3,4.3,1.54Z"/>
  <path class="st13" d="M29.38,84.79c-.97-.37-1.86-.78-2.73-1.38-.03-.02-.06-.07-.08-.11s-.04-.09-.06-.14c.83.06,1.66.07,2.51-.04.21-.03.35-.2.54-.26.42-.13.86-.18,1.24-.44.65-.45,1.25-1.01,1.7-1.64,2.75-.07,5.49-.86,7.84-2.28.33.02.62.23.95.36l2.99,1.18c-.31.67-.6,1.33-1.12,1.82-.43.41-.81.87-1.29,1.22-1.02.77-2.2,1.19-3.41,1.58-1.8.57-3.6.81-5.49.75-1.26-.04-2.43-.27-3.6-.6v-.02Z"/>
  <path class="st121" d="M54.51,70.51l-3.54,2.27-3.34-2.09c.16-.17.08.16.76-.03,1.23-.33,2.5-.17,3.68.33.65-.26,1.79-.61,2.44-.49h0Z"/>
  <path class="st57" d="M96.42,68.53c0,.26-.03.54-.12.78,0-.03-.04-.05-.06-.06.05-.24.03-.49.12-.72.02-.05.04-.05.06,0Z"/>
  <path class="st135" d="M68.36,70.75v-.66c.04.2.16.47,0,.66Z"/>
  <path class="st32" d="M96.42,68.05v.48h-.06s-.05-.73.06-.66c.04.05.04.11,0,.18Z"/>
  <path class="st135" d="M96.42,68.05v-.18c0-.14,0-.28.02-.42.07.17.1.44-.02.6Z"/>
  <path class="st135" d="M68.18,78.31c-.17-.14-.03-.38,0-.54v.54Z"/>
  <path class="st135" d="M68.85,80.28c-.31-.02-.03-.1-.34-.42-.03-.03,0-.09.04-.13.11.17.2.36.3.54h0Z"/>
  <path class="st135" d="M33.56,77.77c0-.13-.03-.28-.05-.42.02.01.11.03.1.07l-.05.35Z"/>
  <path class="st135" d="M34.13,73.81s-.11-.06-.16-.12c-.03-.04,0-.09.03-.13.05.07.09.17.13.25Z"/>
  <path class="st135" d="M67.09,74.47c.05-.08.13-.17.18-.25-.02.05.03.13-.02.19-.04.04-.1.06-.16.06Z"/>
  <path class="st135" d="M33.52,78.25c.02-.12-.04-.27.05-.36,0,.14-.03.25-.05.36Z"/>
  <path class="st135" d="M95.76,63.62c-.03.08-.1.14-.17.19,0-.03-.02-.06-.01-.08.02-.08.11-.11.19-.1h-.01Z"/>
  <path class="st135" d="M96.43,67.03c-.12-.05-.04-.2-.05-.3.08.07.04.2.05.3Z"/>
  <path class="st135" d="M66.5,75.31c.04-.08.1-.15.18-.19-.03.04,0,.12-.05.16-.03.02-.09.02-.12.03h0Z"/>
  <path class="st135" d="M33.4,71.53c-.02-.11-.07-.16-.05-.3.09.07.03.2.05.3Z"/>
  <path class="st135" d="M76.56,82.82s.04.07.03.07c-.12.11-.29.2-.44.27l-.18.12c-.27.26-.65.37-1,.55-1.67.88-3.46,1.33-5.3,1.49,1.59-.62,3.19-1.22,4.67-2.09-.07,0-.13,0-.17-.03.81-.02,1.63-.1,2.39-.39h0Z"/>
  <path class="st130" d="M26.51,83.16c.83.63,1.8,1.09,2.77,1.55.05.03.08.05.1.08-1.51-.43-2.48-.89-3.84-1.67-.07-.04-.12-.09-.18-.13.38-.06.76.15,1.15.17Z"/>
  <path class="st98" d="M76.92,82.75c-.21.17-.45.32-.71.42h-.06l.41-.35.31-.12c.08-.03.1-.03.05.05Z"/>
  <path class="st92" d="M76.92,82.75s-.07-.01-.05-.05c.07-.03.12-.13.25-.06-.02.11-.15.07-.19.11h0Z"/>
  <path class="st38" d="M25.54,83.12s-.28-.02-.18-.13c.09,0,.17.04.18.13Z"/>
  <path class="st79" d="M76.16,83.16h.06c-.08.03-.13.15-.24.12.05-.05.08-.14.18-.12Z"/>
  <path class="st7" d="M71.6,50.54s-.05.03-.06.02c-.14-.05-.15-.17-.02-.02.01.02.02.04.02.07l3.36,2.74c.32.26.54.53.96.67l1.53.49c1.85.6,5.29.09,7.25-.52-.45.39-.9.68-1.41.91-1.26.58-2.48,1.17-3.67,1.91-.25.04-.55-.04-.8-.12l-5.18-1.58c-.61-.19-1.11-.49-1.7-.7-.5-.18-1.04.43-1.13.85-.08.38.11.53.36.69,1.59,1.02,3.6,2.8,4.77,4.31-.16.37-.15.74-.24,1.1-.33,1.23-.29,2.45.16,3.64.24.62.56,1.16.91,1.73-.02-.04.19.78-.14.87-.08.02-.21-.04-.28-.17-.92-1.76-2.72-3.96-4.11-5.4.03-.55-.33-.85-.64-1.23-.78-.94-1.56-1.81-2.5-2.59-.4-.33-.74-.68-1.17-1-.62-.45-1.22-.94-1.95-1.21-.29-.11-.63.32-.54.58.07.24.3.28.43.43.32.38.4.89.57,1.35.1.27.1.51.12.78.02.23.22.43.18.68-2.34.24-4.69.33-6.86,1.27-1.93-.6-3.62-1.97-4.72-3.62-.13-.19-.33-.39-.56-.4s-.4.18-.5.32c-.43.6.72,1.92.84,2.15.44.85.94,2.97.91,4.01-.83-.6-1.74-.97-2.74-1.16-2.08-.38-2.54-.37-4.6-.02-.87.15-1.64.46-2.4.9-.06-.98.54-3.31.95-4.09.3-.56.77-.99.86-1.65.03-.2,0-.5-.28-.47s-.54.23-.69.47c-1.16,1.83-2.96,3.13-5.08,3.68-2.15-1.01-4.44-1.12-6.76-1.37l.15-.64c.19-.8.28-1.59.72-2.27.14-.21.41-.28.49-.54.04-.14.06-.28-.08-.39-.07-.05-.18-.04-.31.02-1.15.56-2.1,1.37-3.07,2.2-.75.64-1.4,1.31-2.08,2s-.89,1.54-1.44,2.24c-1.27,1.61-2.69,3.06-3.8,4.81-.12.19-.32.33-.54.35-.16-.77.29-1.94.62-2.68.74-1.69.99-3.27.22-5.03,1.22-1.55,3.07-3.09,4.69-4.19.29-.2.46-.56.45-.88,0-.23-.17-.35-.3-.41-.17-.08-.37-.06-.53.02-.48.26-.93.47-1.47.63l-5.51,1.67c-.27.08-.38.02-.6-.11-1.57-.92-3.23-1.67-4.94-2.25-.05-.08-.01-.1.12-.06,2.41.58,4.74.69,7.1-.15.52-.19.94-.49,1.44-.71l.92-.41,1.47-1.4,1.72-1.33c-1.11.25-1.52,1.14-2.57,1.33-.3.05-.65.2-.91.03-.17-.11-.06-.42.06-.55.35-.39.83-.66,1.14-1.07.19-.26.39-.38.63-.6.61-.54,1.13-1.2,1.54-1.92,1.26-2.24.93-2.59.68-4.99-.05-.47-.2-.91-.33-1.36-.23-.82-1.4-1.52-.93-1.87.08-.06.18,0,.28.07,1.01.76,1.73,2.12,2.39,3.15.09,0,.2-.08.26,0,.1.11.09.3.21.4.69.59,1.29,1.2,1.92,1.88.05-.23.2-.48.14-.69-.42-1.35-1.11-2.55-1.95-3.68-.62-.83-1.19-1.62-1.91-2.36l-1.89-1.94c-.26-.27-.49-.56-.66-.88-.14-.26-.07-.44.04-.7.07-.17.15-.53.44-.48.68.12,1.36.22,2.05.24.32,0,.54.11.76.32.13.12.38.04.54.06.48.05.91.2,1.37.31.59.14,1.19.26,1.73.55.45.24,1.05,1.02,1.58.56.25-.22.24-.46.17-.79-.09-.37.53-1.39.74-1.76,1.14-.59,2.22-1.2,3.19-2,.76-.63.85-1.65.12-2.35.57-.37,1.09-.73,1.61-1.16,1.13-.92,2.2-1.85,3.25-2.85,1.77-1.69,2.24-2.59,2.5-4.89l.24-2.16c.07-.61.23-1.16.66-1.53.47-.4,1.05-.47,1.66-.4.18.02,1.55-.25,1.64.78.06.68.11,1.36.24,2.05.08.46.05.9.1,1.36.13,1.09.73,2.91,1.24,3.9.4.77,4.99,4.8,6.12,5.21l-.34.43c-.07.09-.06.25-.11.36-.26.59-.02,1.14.47,1.52,1.02.77,2.1,1.39,3.26,1.97.25.46.5.88.67,1.36.23.64-.17.83.08,1.04.27.22.8-.13,1.06-.33.81-.62,1.34-.62,2.31-.88.57-.15,1.12-.25,1.71-.34.26-.04.48-.26.76-.28.79-.07,1.57-.06,2.33-.26.15-.04.27-.09.36.02s-.05.29.02.36l.17.16c.2.19-.51,1.03-.74,1.25l-2.06,1.96c-.7.67-1.26,1.41-1.84,2.19-.9,1.2-1.63,2.51-1.99,3.97-.08.33.13.7.16,1.08.66-.73,1.3-1.43,2.05-2.08.14-.12.15-.53.29-.53.06,0,.11.06.19.13.65-1.03,1.5-2.6,2.56-3.29.07-.04.13-.06.17-.03.32.21-.78,1.09-.97,1.68-.16.46-.32.93-.37,1.43-.08.83-.31,1.69-.19,2.53.14.96.63,1.86,1.14,2.66.55.87,1.23,1.56,1.95,2.27l1.2,1.18c.15.15-.06.41-.16.51-.47.5-1.84-.17-2.4-.64-.22-.19-.43-.33-.69-.4h-.03Z"/>
  <path class="st70" d="M17.81,54.32s-.1,0-.12.06c-.23-.08-.49-.08-.67-.3.29.09.56.12.79.24Z"/>
  <path class="st34" d="M71.6,50.54s-.05.05-.06.08c-.1-.08-.21-.13-.31-.24.18-.05.26.13.38.16h-.01Z"/>
  <path class="st65" d="M56.49,63.6c.03-.14.14-.27.31-.28-.08.12-.14.21-.31.28Z"/>
  <path d="M32.03,21.17l-.24.25-1.74,2.38c-.25,1.91-1.75,2.44-3.55,2.29-.29-.02-.82.65-.96.48l-.13-.16c-.3-.02-.59.08-.87.04-.17-.26.61-.76,1.01-1.2.76-.85,1.09-1.86,1.57-2.88-.07-.08-.15-.11-.25-.16.11-.28.39-.35.66-.44.43-.15.81-.34,1.27-.41,1.02-.16,2.01-.28,3.04-.36.12,0,.19.09.2.17h-.01Z"/>
  <path d="M35.14,15.65s.06.01.06.06c-1.01.25-1.92.64-2.89.95-1.43.47-2.82.91-4.18,1.56-.55.26-1.09.53-1.49.99-.19.22-.09.53-.09.77.21,2.16-.34,2.01-.96,3.81-.37-.18-.05-.85.06-1.17s.27-.62.3-.98c.13-1.31-.29-2.2.66-2.95.59-.46,1.24-.82,1.95-1.1,2.57-1.02,3.87-1.45,6.57-1.94h0Z"/>
  <path d="M19.3,31.72c-.38-.02-.24.44-.95,0-.32-.2-.81-.32-1.03-.64-.17-.24.29-.38.48-.38,1.19,0,2.31-.1,3.49-.04.22.01,1.55.11,1.2.5-.04.04-.11.11-.21.11-.78.05-2.39.15-2.98.45Z"/>
  <path class="st43" d="M35.2,15.71s-.04-.04-.06-.06c.2-.04.35-.2.58-.13-.18.1-.36.15-.52.19Z"/>
  <path d="M77.19,26.32c-.18.28-.65.04-.9.11-.12.03-.2.19-.34.15-.42-.11-.33-.58-1-.5-.82.1-1.65,0-2.34-.47-.97-.65-.91-1.8-.91-1.81-.02-.05-.14-.03-.19-.09l-1.55-2.22c-.1-.14-.21-.25-.28-.39.1-.07.24-.1.39-.09,1.1.08,2.18.2,3.27.4.36.07.66.27,1.01.36.24.06.5.19.51.44-.04.04-.16.04-.19.08-.04.05.03.11.06.17.36.94.8,1.78,1.35,2.64.13.18,1.35,1,1.11,1.22Z"/>
  <path d="M66.62,15.65l2.29.47c.63.13,1.21.3,1.82.52,1.47.54,3.28,1.05,4.49,2.04.8.66.42,1.46.53,2.61.05.49.19.96.4,1.36l.16.7c.04.18-.01.35-.18.43-.01-.19-.14-.3-.22-.46l-.6-1.19c-.28-.55-.18-1.64-.12-2.23.04-.35-.08-.61-.32-.82-1.17-1.03-4.03-1.89-5.55-2.42-.96-.33-1.85-.76-2.82-.96-.06-.09-.02-.11.12-.06h0Z"/>
  <path d="M83.35,31.72c-.68.34-.29.18-1.08,0-.01-.07-.12-.08-.21-.1-.94-.24-1.89-.27-2.85-.37-.26-.49,1.14-.59,1.44-.6,1.24-.03,2.45.02,3.69.08.08,0,.1.18.08.23-.08.27-.93.57-1.07.76Z"/>
  <path class="st6" d="M66.62,15.65s-.1.01-.12.06c-.14-.03-.3-.1-.46-.19.24-.09.42.08.58.13Z"/>
  <path class="st36" d="M88.33,45.87c-.01.14-.12.15-.24.18.04-.1.13-.18.24-.18Z"/>
  <path class="st146" d="M76.51,35.92v.06c-.16,0-.35.05-.48-.06h.48Z"/>
  <path class="st64" d="M15.95,13.01s-.07-.06-.12-.06c.06-.02.12-.12.24-.04-.02.06-.09.07-.12.1Z"/>
  <path class="st151" d="M81.07,45.74s.04.05.06.07c-.07.02-.16.12-.23.02,0-.06.12-.09.17-.1h0Z"/>
  <path class="st93" d="M68.12,44.41c.02-.13.13-.2.24-.28,0,.15-.1.23-.24.28Z"/>
  <path class="st126" d="M27.04,25.49c-.11.03-.29.06-.23-.07.17-.31.53-.51.64-.84.14-.43.2-.87.4-1.3.11-.24.07-.53.16-.77.36-.26.79-.27,1.2-.09.13.39.32.76.37,1.19.13.98-.59,1.84-1.55,1.98-.34-.16-.66-.1-.99-.1Z"/>
  <path class="st20" d="M27.34,23.5c-.07.19-.05.41-.24.46.06-.23.17-.36.18-.52.05-.03.07,0,.06.06Z"/>
  <path class="st61" d="M27.34,23.5l-.06-.06c.07-.12.11-.21.15-.31.08.17-.05.26-.1.37h.01Z"/>
  <path class="st10" d="M27.04,25.49c-.12.08-.22.06-.36.04.03-.07.08-.09.13-.11.03.09.16.06.23.07Z"/>
  <path class="st106" d="M25.6,26.06c-.09.04-.18.04-.3,0,.06-.06.15-.06.3,0Z"/>
  <path class="st126" d="M74.24,24.69c.1.34.45.47.59.81-.37-.1-.72.07-1.08.04-.89-.08-1.6-.91-1.62-1.79-.01-.45.15-.91.38-1.27s.92-.12,1.22.03c.04.46.13.9.31,1.32.12.27.12.57.21.87h0Z"/>
</svg>