<?xml version="1.0" encoding="UTF-8"?>
<svg id="Layer_1" xmlns="http://www.w3.org/2000/svg" version="1.1" viewBox="0 0 102 86.88">
  <!-- Generator: Adobe Illustrator 30.1.0, SVG Export Plug-In . SVG Version: 2.1.1 Build 136)  -->
  <defs>
    <style>
      .st0 {
        fill: #000001;
      }

      .st1 {
        fill: #152e61;
      }

      .st2 {
        fill: #081120;
      }

      .st3 {
        fill: #081226;
      }

      .st4 {
        fill: #162241;
      }

      .st5 {
        fill: #585858;
      }

      .st6 {
        fill: #5a5a5a;
      }

      .st7 {
        fill: #040a1e;
      }

      .st8 {
        fill: #062017;
      }

      .st9 {
        fill: #050d28;
      }

      .st10 {
        fill: #f7fe54;
      }

      .st11 {
        fill: #3a414e;
      }

      .st12 {
        fill: #fcfcfc;
      }

      .st13 {
        fill: #0e162e;
      }

      .st14 {
        fill: #081225;
      }

      .st15 {
        fill: #73b9d5;
      }

      .st16 {
        fill: #09131c;
      }

      .st17 {
        fill: #094237;
      }

      .st18 {
        fill: #515152;
      }

      .st19 {
        fill: #416e90;
      }

      .st20 {
        fill: #000002;
      }

      .st21 {
        fill: #234c73;
      }

      .st22 {
        fill: #03061a;
      }

      .st23 {
        fill: #1d3b75;
      }

      .st24 {
        fill: #1a3967;
      }

      .st25 {
        fill: #262626;
      }

      .st26 {
        fill: #13295c;
      }

      .st27 {
        fill: #000101;
      }

      .st28 {
        fill: #f0f650;
      }

      .st29 {
        fill: #0b1e59;
      }

      .st30 {
        fill: #dfdfdd;
      }

      .st31 {
        fill: #040b20;
      }

      .st32 {
        fill: #04053a;
      }

      .st33 {
        fill: #102347;
      }

      .st34 {
        fill: #0e2040;
      }

      .st35 {
        fill: #fbfbfb;
      }

      .st36 {
        fill: #060e1d;
      }

      .st37 {
        fill: #f9f9f9;
      }

      .st38 {
        fill: #d4cf3e;
      }

      .st39 {
        fill: #082a1e;
      }

      .st40 {
        fill: #020518;
      }

      .st41 {
        fill: #aaa685;
      }

      .st42 {
        fill: #070d15;
      }

      .st43 {
        fill: #394148;
      }

      .st44 {
        fill: #060c17;
      }

      .st45 {
        fill: #202020;
      }

      .st46 {
        fill: #0f202e;
      }

      .st47 {
        fill: #0b1823;
      }

      .st48 {
        fill: #112435;
      }

      .st49 {
        fill: #ebcf13;
      }

      .st50 {
        fill: #000202;
      }

      .st51 {
        fill: #41e37f;
      }

      .st52 {
        fill: #3969a0;
      }

      .st53 {
        fill: #081018;
      }

      .st54 {
        fill: #0d1c2a;
      }

      .st55 {
        fill: #173469;
      }

      .st56 {
        fill: #2b5d87;
      }

      .st57 {
        fill: #112552;
      }

      .st58 {
        fill: #03091c;
      }

      .st59 {
        fill: #152f60;
      }

      .st60 {
        fill: #232323;
      }

      .st61 {
        fill: #887812;
      }

      .st62 {
        fill: #142d60;
      }

      .st63 {
        fill: #07102c;
      }

      .st64 {
        fill: #9d6a04;
      }

      .st65 {
        fill: #040a1f;
      }

      .st66 {
        fill: #06231a;
      }

      .st67 {
        fill: #279d62;
      }

      .st68 {
        fill: #4a7da2;
      }

      .st69 {
        fill: #0a1953;
      }

      .st70 {
        fill: #000201;
      }

      .st71 {
        fill: #102434;
      }

      .st72 {
        fill: #51839e;
      }

      .st73 {
        fill: #050e29;
      }

      .st74 {
        fill: #132b5d;
      }

      .st75 {
        fill: #3968a0;
      }

      .st76 {
        fill: #091424;
      }

      .st77 {
        fill: #0b1932;
      }

      .st78 {
        fill: #333e52;
      }

      .st79 {
        fill: #1e3c76;
      }

      .st80 {
        fill: #12664a;
      }

      .st81 {
        fill: #f6fd53;
      }

      .st82 {
        fill: #343434;
      }

      .st83 {
        fill: #071017;
      }

      .st84 {
        fill: #132a3c;
      }

      .st85 {
        fill: #2a5189;
      }

      .st86 {
        fill: #09131e;
      }

      .st87 {
        fill: #2a5089;
      }

      .st88 {
        fill: #fdfdfd;
      }

      .st89 {
        fill: #051b14;
      }

      .st90 {
        fill: #bebe3b;
      }

      .st91 {
        fill: #070f1e;
      }

      .st92 {
        fill: #0b1d56;
      }
    </style>
  </defs>
  <path d="M59.25,77.29l-.48.42c-.11.11-.24.18-.38.3l-6.09,5.28-1.46,1.13c-.07.05-.16.07-.21-.01-.12-.2-.31-.28-.5-.39-.36-.22-.69-.44-1.02-.72l-6.48-5.63-2.61-2.42-1.34-.34c-1.3-.33-2.48-.91-3.52-1.77-1.43-1.19-1.59-2.59-1.65-4.35l-.14-4.49.12-3.6.21-2.92c-1.15-.24-2.26-.5-3.43-.6-2.03-.17-4.03-.11-6.04.18-1,.14-1.91.43-2.85.75-.49.17-.92.44-1.27.81-.2.21-.46.4-.61.65-.3.48-.11,1.06.26,1.44.39.4.59.98.45,1.52s-.87,1.63-1.03,2.07c-.13.39-.2.81-.43,1.14-.02.02.01.11.03.13.62.62.77,2.06.83,2.91.09,1.1-.57,1.26-.65,3.11-.02.43.19.84.09,1.27-.1.47-.52.76-.92.93-.32.13-.42-.14-.63-.19-.57-.14-1.2-.25-1.6-.76-.12-.15-.26-.79-.33-.72l-.07.07c-.07.07-.16.1-.25.09-.26-.04-.1-.64-.87-1.5-.67-.75-1.34-1.44-2.06-2.15-.63-.62-1.15-1.27-1.69-1.97-.49-.64-.98-1.25-1.28-2.02-.39-1.01-.54-2.12-.45-3.2s.5-1.99,1.08-2.87c.96-1.42,1.91-2.8,3-4.13.92-1.13,2.11-1.98,3.42-2.62,1.71-.83,3.43-1.49,5.18-2.19,1.3-.52,3.57-1.45,4.56-2.36.93-.85,2.46-1.34,2.34-2.66-.03-.33-.25-.62-.56-.77-1.01-.5-2.04-.85-3.18-.95-1.52-.13-3.03-.06-4.49.38-1.04.31-1.98.74-2.96,1.18-.54.25-1.03.55-1.55.84-.58.32-1.08.7-1.62,1.08-.37.26-.74.6-.86,1.05-.09.34-.6,2.45-.6,2.49v.17s-.06-.1-.09-.07c-.37.46-1.28.55-1.86.6-.54.05-1.12-.07-1.5-.45-.1-.1-.16-.21-.27-.3-.29-.24-.61-.46-.86-.75-1.4-1.66-1.81-3.12-2.01-5.26-.12-1.25.05-2.46.36-3.67.23-.87.44-1.68.8-2.5.91-2.05,2.27-3.8,3.98-5.24,2.45-2.06,4.29-3.29,7.43-4.14,1.38-.37,2.72-.57,4.18-.44,3.14.27,5.98,1,8.49,3l1.53,1.22c.28.27-.03-.94-.05-1.02-.35-1.35-.94-2.61-1.84-3.67-.33-.4-.71-.66-1.14-.92-.78-.47-1.54-.91-2.39-1.26-.62-.25-1.21-.37-1.88-.46-1.02-.13-2-.32-3.04-.36-.34-.01-.64-.12-.97-.16s-.66.05-.99-.01-.71-.19-1.06-.15c-.2.02-.32-.05-.49-.08-1.2-.23-1.5-1.62-2.1-2.65-.32-.55-.8-1-1.17-1.53-.01-.02-.14.01-.16.01-.12-.02.04-.05.05-.11,0-.06-.06-.11-.1-.16l-.06-.07-.06-.07-.34-.84c.09-.02.12.02.15,0,.02,0,.26-.83.24-1.18-.06-.89-.22-1.76-.12-2.66.04-.35.31-.65.53-.91.33-.38.79-.63,1.24-.84.98-.45,1.33-1.49,1.89-2.08.8-.84,1.78-1.66,2.93-1.9l3.43-.72c1.44-.3,2.83-.83,4.34-.79,1.66.04,3.28.38,4.85.88.96.31,1.84.63,2.87.52l2.03-1.81c.41-.37.79-.72,1.23-1.04.4-.29.91-.3,1.32-.55,1.07-.64,2.14-1.16,3.24-1.73,1.66-.87,2.08-1.95,4.17-2.78.5-.2.91-.1,1.41-.06.44.03.91-.19,1.4.05s.98.4,1.42.74c.89.7,1.71,1.51,2.74,2.04,1.12.58,2.2,1.11,3.28,1.76.4.24.89.25,1.27.53.46.35.85.73,1.29,1.12l1.97,1.74c.58.07,1.25,0,1.79-.17l.56-.17,1.21-.4c1.33-.44,2.74-.64,4.17-.66,1.53-.02,2.93.49,4.39.79l3.45.72c1.07.22,2,.99,2.74,1.78.39.42.65.92.97,1.38.64.92,1.27.67,2.27,1.69.32.33.47.71.44,1.17l-.17,2.34.21,1.07c.02.09.03.17.13.17.07-.08-.14.57-.19.63-.28.35-.54.47-.23.53.26.05-.25.04-.3.09l-1.02,1.26c-.57.71-.88,2.54-2.25,2.85-.16.04-.3.14-.48.11-.27-.05-.5.04-.75.1-.46.12-.94-.04-1.4.05l-.79.15c-1.08.21-3.42.17-5.08.85-.83.34-1.58.79-2.35,1.25-.47.28-.86.58-1.21,1.01-.8,1-1.32,2.16-1.63,3.41-.12.46-.2.9-.08,1.35,1.01-.92,3.45-2.64,4.66-3.14,1.8-.74,3.74-1.1,5.68-1.26,1.43-.12,2.76.08,4.12.44,3.08.83,4.88,2.04,7.28,4.05,1.73,1.45,3.09,3.22,3.98,5.29.32.75.51,1.49.72,2.28.35,1.29.5,2.59.35,3.93-.11.99-.26,1.94-.64,2.87-.35.85-.83,1.63-1.43,2.33-.34.4-.75.68-1.11,1.01.4.25-.93.54-1.21.55-.6.02-1.2-.07-1.75-.26-.87-.3-.56-1.45-.75-2l-.27-.79c-.11-.33-.35-.73-.64-.96-1.57-1.25-2.52-1.48-3.94-2.41-.27-.17-.59-.2-.88-.32l-.7-.27c-.93-.36-1.85-.59-2.85-.7-2.11-.22-3.99-.05-5.88.97-.54.45-.37,1.18,0,1.66.57.73,1.43,1.07,2.07,1.7.53.52,1.18.84,1.84,1.16.89.44,1.75.8,2.67,1.17,1.8.72,3.56,1.39,5.31,2.23,1.25.61,2.38,1.42,3.27,2.49,1.13,1.37,2.11,2.8,3.09,4.27.85,1.26,1.15,2.67.95,4.16-.14,1.07-.43,2.03-1.06,2.91s-1.19,1.65-1.91,2.4l-2.43,2.54c-.92.95-.58,1.56-1.06,1.7-.08.02-.18-.05-.26-.14-.14.23-.13.52-.33.71-.33.34-.8.56-1.26.69-.13.03-.23,0-.34.08-.34.29-.78.2-1.1-.05-.27-.21-.44-.43-.4-.77l.12-1.02c.1-.8-.59-2.3-.62-2.53-.11-.97.15-2.84.85-3.63-.24-.39-.35-.77-.43-1.19-.11-.58-.96-1.76-1.05-2.05-.29-.98.72-1.72.79-2.03.24-.97-.22-1.14-.6-1.54-.42-.46-.92-.8-1.52-1-.95-.32-1.89-.61-2.9-.76-2-.28-3.97-.34-5.98-.18-1.13.09-2.2.34-3.26.57l.19,2.65.12,3.66-.15,4.74c-.05,1.68-.33,3.04-1.63,4.19-1.07.94-2.31,1.54-3.67,1.92-.42.12-.89.17-1.27.35l-1.9,1.76c-.12.11-.2.21-.3.3h.1Z"/>
  <path class="st49" d="M59.25,77.29c-.16.13-.25.4-.48.42.15-.15.26-.38.48-.42Z"/>
  <path class="st56" d="M57.27,17.09l.08.11c-.69,1.18-1.32,2.4-1.9,3.63-.13.27-.28.5-.46.7.02.02.03.04.02.05-.13.26-.25.28-.02.04,0-.02.04-.02.07-.02.09-.25.22-.51.39-.77.73-.99,1.39-2.03,1.97-3.12h.14l.17-.18c2.05-.75,5.12-.75,6.27,1.46.62,1.19.53,2.85-.14,3.99l-1.79,2.04-.17.22.06.02c.76-.67,1.77-.96,2.75-1.24.95-.27,1.73-.87,2.25-1.73.8-1.21,1.59-2.42,2.38-3.63.74.21,1.49.23,2.25.1.78-.2,1.56-.29,2.34-.26.46.76,1.15,1.35,1.92,1.79l.48.37c.54.46,1.04.89,1.56,1.37.18.24-.43.27-.58.16l-.12.02c-2.62-1.56-6-2.39-8.25.26-.72.85-1.33,1.77-1.94,2.69-1.03,1.38-2.78,1.66-4.39,1.74.89.93,1.78,1.87,2.67,2.83l1.3-.03c.14-.04.26-.02.34.05.07.05.05.13-.05.25h.06c.14-.13.26-.24.35,0-.24.9-.01,1.85.22,2.73l-.02.31c-.06.17-.03.42-.11.61-.23.51-.58.97-.87,1.45-.27.49-.55,1.08-.71,1.64,0,0,.03.03.08.04,2.73-.39,5.53.2,7.7,1.96l4.06,3.4-.02.14c-.06.02-.12.04-.19.06s-.12.02-.18.02c-1.37-.13-2.76-.48-4.07-.89l-6.97-2.33c.72,1.14,1.49,2.25,2.33,3.35.83,1.11,1.51,2.28,2.07,3.51-.58.83-.87,1.77-.86,2.82,0,.63.27,1.05.49,1.57.3.44.59.88.86,1.35.25.32.53.61.83.89.76.64,1.56,1.26,2.38,1.85.87.82,1.81,1.51,2.82,2.08.16.16.07.2-.11.19-.74-.1-1.52-.15-2.27-.18-.2-.05-.41-.1-.62-.13l-7.99-3.17c-1.01-.53-2.03-1.02-3.08-1.46-1.99-.63-4.02-1.13-6.08-1.49-.9-.17-1.78-.2-2.65-.08.09.13.12.26.07.39-.12.08-.13.16-.06.25,2.47,2.52,4.97,5.09,7.25,7.75.11.13.22.26.33.4.03.03.04.07.04.12.57-.21,1.16-.36,1.77-.45.29-.12.56-.16.82-.13-.22.19-.53.23-.78.37-.17.13-.37.23-.6.3-.45.17-.43.17.06,0,.2-.13.4-.21.6-.24l2.88-.97.61.54.14,2.23-.02,2.52c.03.11.04.26-.02.36-.04.19-.07.38-.16.55-.34.74-1.03,1.87-1.56,2.47-.09.1-.16.13-.26.03l-.09-.11.91-2.37-1.68,3.19c-.09.06-.17.04-.25-.03-.25-.65-.53-1.29-.84-1.91-.52-.75-.28.58-.07.83l-.08.11c.06.11.02.17-.1.15-.87-.55-1.69-1.16-2.47-1.82-.15.12-.25-.03-.17-.2-.19-.66.2-1.66,1.04-1.3l1.83,1.25.65.26c.96-1.03,1.87-2.18,2.33-3.56-1.23,2.68-3.85,3.17-5.97,1.16-.08.09-.18.16-.29.22-.23.13-.71.4-.92.24l-.28-.07c-2.37-1.89-5.42-1.95-8.36-1.94s-5.82.19-8.03,2.08h-.18l-.12.05c-.44-.13-.83-.34-1.15-.62-.99.84-2,1.52-3.35,1.23-1.18-.25-1.98-1.2-2.55-2.23.1.49.54,1.24.81,1.67.06.1,1.36,1.74,1.47,1.77.28.08,2.08-1.24,2.41-1.5.85-.41,1.33.59,1.08,1.29.13.12.04.21-.12.18-.83.71-1.8,1.42-2.73,2.02l-.13-.06-.09-.11.45-1.13c.05-.24.02-.3-.16-.09-.35.62-.66,1.26-.92,1.94-.07.14-.16.11-.28.03l-1.62-3.04c-.25-.36.11.9.22,1.07.18.35.27.7.29,1.04-.05-.01-.1-.02-.14-.04s-.09-.04-.11-.07c-.63-.84-1.26-1.82-1.56-2.82v-2.99l.12-1.97.49-.49c.43.06.81.18,1.22.33l1.83.64c.25.05.49.15.72.29.04,0,.06-.02.06-.06-.25,0-.54-.13-.72-.3-.26-.13-.56-.2-.78-.38.06-.02.11-.03.17-.04s.11,0,.16,0c.73.16,1.46.34,2.18.56.07.12.13.09.17-.07,2.38-2.77,4.94-5.52,7.55-8.13.09-.09.07-.18-.05-.26-.04-.13,0-.26.08-.39-.83-.12-1.68-.1-2.55.06-2.05.35-4.06.83-6.04,1.46-1.13.44-2.23.95-3.3,1.54-2.59,1.11-5.21,2.14-7.86,3.11-.33.05-.55.1-.66.15-.82.03-1.68.13-2.49.24l.04-.18c1.11-.66,2.15-1.45,3.13-2.35l1.69-1.26c1.12-.86,1.8-1.98,2.33-3.24.39-1.27.2-2.63-.48-3.78,0-.07,0-.14.01-.21s.02-.13.05-.19c.52-1.05,1.17-2.03,1.83-3,.86-1.14,1.66-2.29,2.41-3.46l-6.72,2.25c-1.39.44-2.86.82-4.32.97-.07,0-.13,0-.2,0s-.14-.03-.21-.05c-.03-.04-.07-.1-.05-.12,1.56-1.36,3.19-2.68,4.85-3.95,2.09-1.4,4.61-1.78,7.07-1.43-.16-.23-.18-.4-.06-.51.03-.03.05-.07.05-.12-.1-.05-.21-.19-.24-.31-.44-.73-1.24-1.34-1.39-2.19l-.1-.57c0-.39.08-.78.2-1.17.16-.65.17-1.29.02-1.91.05-.21.16-.23.26-.05.09-.06.19.11.19.2l.07-.05c0-.1,0-.2,0-.3l.06-.09c.47-.07.95-.06,1.44.03.87-.98,1.77-1.92,2.67-2.84-1.56-.11-3.32-.37-4.35-1.72-.58-.91-1.21-1.79-1.89-2.63-2.19-2.68-5.51-2.04-8.17-.45-.1.06-.21.08-.32.07-.16.09-.86.08-.72-.17l1.62-1.32.28-.25c.88-.46,1.7-1.09,2.22-1.95.77-.03,1.54.05,2.31.26.77.14,1.52.11,2.28-.1.78,1.2,1.57,2.41,2.36,3.61.75,1.36,2.09,1.74,3.47,2.13.61.22,1.16.55,1.65.99l.03-.04c-.14-.1-.24-.21-.3-.33l-1.51-1.7c-.08-.09-.18-.19-.21-.29-.78-1.34-.81-3.26.15-4.52,1.29-1.69,3.95-1.63,5.79-1.04l.17.18.2.14c.49,1.21,1.28,2.2,2.09,3.17.13.19.23.38.31.58.08.03.17.18.17.29.18.24.19.22.05-.06-.09-.04-.17-.18-.17-.28-.4-.6-.73-1.26-.99-1.98l-1.26-2.29.07-.12c-.11-.2.08-.34.24-.43.56-.32,1.47-.05,1.95.34.77.63,1.45,1.27,2.09,2.02,1.92,1.88,3.72.92,5.16-.92.68-.74,2.08-2.04,3.18-1.45.17.09.38.23.27.43l.05.02Z"/>
  <path class="st55" d="M51.81,17.09s.04-.05.13,0c.87.2,1.94-.3,2.33-.96.33-.54.57-1.15,1.11-1.53,1.53-1.09,2.9-1.55,4.66-2.15.66-.23,1.34-.21,2.02-.18.6.02,1.09.21,1.56.56.47.35.99.58,1.41.98.5.47.92,1.01,1.27,1.6.55.9.46,3.29-.15,4.23l-.54.83-.68,1.06q-.15.16,0,0c.09-.06.16-.15.23-.24.09-.09.13-.05.06.06l-1.17,1.45c-.06.08-.12.15-.2.17.4-1.25.7-2.57.07-3.86-1.13-2.31-4.35-2.2-6.37-1.41l-.08-.11c.25-.49.46-.98.64-1.48-.26.29-.49.62-.7.98h-.15c-.34-.65-1.42-.5-2.01-.08-.69.49-1.28,1.06-1.83,1.7-.92,1.07-2.23,1.86-3.63,1.24-.63-.28-1.14-.71-1.59-1.23-.55-.64-1.14-1.21-1.83-1.71-.6-.43-1.71-.58-2.01.08l-.13.02-.69-1.01c-.1.06-.15.15-.11.27l.53,1.12-.07.13c-2.02-.71-5.12-.77-6.21,1.5-.38.8-.42,1.67-.27,2.53.09.48.25.91.37,1.35-.28-.24-.46-.57-.71-.85-.13-.26-.34-.53-.62-.82l-.04-.11c-.1-.32-.4-.58-.54-.91-.34-.77-.56-.74-.75-1.36-.32-1.06-.44-2.95.2-3.86.3-.43.61-.85.99-1.22.47-.44,1.03-.72,1.54-1.1.44-.33.89-.48,1.43-.52.91-.07,1.76.03,2.6.36s1.67.59,2.48,1c.62.31,1.21.63,1.77,1.04.28.21.5.52.73.77.19.2.17.53.34.76.4.55,1.04.89,1.72.95.34.03.6-.14.91-.21,0,.1-.07.15-.04.21,0,0,.66.52,1.34.27.24-.09.54-.12.68-.33v.02Z"/>
  <path class="st55" d="M35.92,66.43s.12-.03.13,0c.11.22.82,1.73.82,1.84l-.81,2.08.71-1.41c.13-.21.28-.38.41-.14.52,1.01,1.19,1.92,1.88,2.82.13.33.22.47.56.59.06-.34,0-.62-.29-.84-.68-1.15-1.35-2.3-2-3.47.16-.39.34-.78.54-1.15l.15-.02,2.72-1.92.14-.05-.03.2c-.53.91-1.04,1.82-1.54,2.74.1.44.17.89.22,1.34.12.19.28.35.5.47,1.68,1.03,3.31,2.13,4.91,3.3,1.93,1.13,3.87,2.23,5.82,3.28,1.97-1.1,3.93-2.23,5.89-3.4,1.71-1.21,3.44-2.39,5.2-3.52.12-.24.41-1.45.37-1.62l-1.39-2.44-.09-.35c.14.05.27.14.41.24l2.07,1.45c.04.06.09.04.08-.02.04-.02.11-.03.13,0,.11.19.77,1.51.77,1.62-.71,1.27-1.46,2.53-2.23,3.76-.06.02-.14.42-.11.41.25-.09.48-.51.59-.74.64-.86,1.27-1.75,1.78-2.7.09-.19.17-.17.32-.09.38.68.75,1.37,1.11,2.08l-1.04-2.67.63-1.34.15-.03c.08-.02.15-.07.21-.15.68-.93,1.25-1.9,1.77-2.9.06.32.05.73.02,1.08l-.15,3.66c-.07,1.68-.05,3.2-1.52,4.3-.85.63-1.76,1.17-2.79,1.44-.26.07-.45.1-.7.2-.81.34-1.68.48-2.54.64l-2.46.45c-.19.03-.32.07-.51.12-1.49.35-2.96.56-4.47.82-1.84.32-1.02.34-2.81,0l-4.51-.83c-.19-.04-.32-.09-.51-.12l-2.24-.4c-2.34-.42-4.79-1.06-6.6-2.64-1.31-1.15-1.27-2.74-1.33-4.34l-.12-3.05c-.02-.53-.03-1.01-.04-1.51.56,1,1.06,2.06,1.81,2.94h.01Z"/>
  <path class="st29" d="M29.8,32.38c-1.53.17-2.45.44-3.43,1.62-.58.5-1.12,1.03-1.52,1.69-1.31,2.32-2.8,4.15-4.92,5.8-1.08.84-2.75,2.04-4.02,2.53-.04,0-.08.02-.12,0-.05,0-.09,0-.14-.02,0-.05-.04-.07-.12-.06-.32.19-.72.29-1.03.54-.53.42-.86,1.03-1.18,1.63-1.17,1.01-.95,1.83-1.03,3.28-.01.09-.05.16-.1.22-.11-.04-.47-.24-.41-.37-.26.06-.6-.34-.68-.56.09-.18.07-.26-.07-.25-.03.03-.09.08-.12.07-.33-.16-.95-.53-1.24-.74-.13-.1-.39-.31-.26-.45.22-.2.56.02.78.16.09.02.14.02.15-.09l.34-.02-.68-.66c-.07-.07-.03-.13.06-.17l.11-.1c.65.08,1.1-.54.95-1.14l.08-.06c.52-.11.81-.2.82-.77-.07-.6-.11-1.2-.12-1.8.44-.46.82-.96,1.16-1.49-.02-.45-.04-.48-.38-.16h-.16l-.52.44c-1.56.96-3.1,2.43-2.91,4.38l-.09.1c.14.12-.02.32-.18.23l-.2-.09c-.2-.3-.6-1.17-.6-1.51,0-.07.04-.14.09-.2,0-.06.02-.12.07-.17-.14-.92-.26-2.17-.1-3.1.26-1.46,2.03-2.02,3.27-2.38l-.9.1-.19-.08s-.08-.09-.05-.13c.08-.13.81-.43,1-.51.91-.36,1.84-.65,2.77-.92l-.06-.08c-1.06-.5-1.25-.93-.54-1.3,1.94-.93,4.09-1.62,6.14-2.27-.41-.34-.88-.63-1.41-.87-.15-.09-.23-.16-.17-.34.04-.12.51-.38.64-.46,1.02-.55,2.79-1.06,3.94-1.21.59-.08,1.89-.18,2.42.01.41.15,1.1,1.6,1.23,2.06l-.02-1.32c.04-.29.05-.34.36-.24.99.48,2.03.84,3.11,1.06l.2.16h-.02Z"/>
  <path class="st29" d="M91.2,38.68s-.02.11-.06.12c-.56.05-1.32-.12-1.86-.24-.09.02-.11.04-.06.06,1.48.11,3.83.93,4.21,2.54.14.59.11,2.53-.05,3.11-.01.05-.09-.04.09,0l.12.14c.02.21-.1.61-.18.82-.11.3-.32.85-.63.89-.1.07-.13.04-.08-.07l-.17-.23c.12-1.98-1.32-3.41-2.93-4.39l-.54-.43-.13.03-.33-.29c-.14.27-.11.55.09.78l.96,1.1c-.03.71-.07,1.42-.14,2.13.08.32.36.49.84.5.13.08.15.25.04.5.03.7.7.83,1.22.47l.12.07.05.13-.82.92c.14,0,.26.04.34.11.41-.13.77-.33,1.07-.61l.15.03c.06.19-.02.37-.24.56-.5.4-1.03.77-1.59,1.09l-.15-.11c-.12.12-.3,0-.29-.16-.04,0-.06,0-.06.05.18.02.34.38.28.52-.03.07-.58.55-.71.44.08.16-.34.4-.48.35l-.15-2.26c-.04-.6-.48-1.04-.94-1.41-.3-.52-.53-1.23-1.1-1.51l-1.24-.62c-.08-.02-.19,0-.32.08-2.83-1.47-5.57-3.41-7.38-6.05-.67-1.13-1.4-2.19-2.19-3.2-.24-.2-.46-.41-.66-.63-.41-.47-.83-.98-1.45-1.22-.65-.26-1.35-.38-2.03-.44-.04-.05-.04-.11,0-.16,1.14-.2,2.25-.55,3.31-1.07.28-.09.29-.03.33.23l-.03,1.29c.19-.46.8-1.84,1.23-2.01.48-.2,1.83-.08,2.4-.02,1.12.12,2.82.65,3.82,1.15.15.08.76.41.8.53.03.1.03.16-.05.24-.54.29-1.05.6-1.54.95.56.24,1.17.44,1.82.6,1.49.48,2.93,1.05,4.33,1.69.67.38.48.81-.58,1.31l-.05.06c1.26.33,2.48.78,3.66,1.34.12.13.09.2-.08.16v.04Z"/>
  <path class="st32" d="M30.34,46.23c0,.09,0,.17-.02.25-.25.66-1.08,1.2-1.66,1.57-2.26,1.29-4.39,2.74-6.41,4.36l.03.13c-1.98,1.58-3.89,3.2-5.75,5.04-.17.17-.25.42-.15.65.47.65.94,1.32,1.19,2.1l-.05.23-.03.31c-.75,1.35-1.48,2.74-2.2,4.16l-.21.21c-.27.53-.57,1.05-.89,1.58-.35.43-.43.85-.25,1.25.67.56,1.3,1.15,1.91,1.79.33.32.55.68.65,1.08.05.03.05.05,0,.08l.18.16.74,2.23-.09.1c-.31-.21-.72-.31-.99-.61-.21-.23-.23-.59-.4-.85l-.87-1.31c-.83-1.25-4.25-4.05-5.1-6.15-.31-.77-.43-1.57-.45-2.42-.04-1.1.33-2.14.95-3.06.97-1.43,1.92-2.83,3.03-4.15.83-.98,1.9-1.7,3.05-2.28,1.79-.9,3.61-1.62,5.45-2.41.75-.32,1.44-.65,2.16-1.01s1.39-.81,2.05-1.31c.23-.17.5-.3.75-.46.94-.58,1.95-1.23,2.21-2.44.46.38.87.74,1.2,1.17h-.03Z"/>
  <path class="st32" d="M84.31,73.49c0-.42.09-.84.28-1.26.15-.53.35-1.02.62-1.48l-.05-.09c.56-.99,1.32-1.82,2.26-2.51.29-.3.43-.61.21-1-.41-.62-.78-1.23-1.1-1.85l-.13-.02-.14-.54c-.6-1.19-1.25-2.37-1.95-3.51-.14-.26-.24-.49-.19-.79-.07-.23,0-.48.17-.74.29-.51.6-1,.94-1.47.1-.23.01-.48-.16-.66-1.83-1.78-3.71-3.41-5.64-4.95l.02-.14c-2.1-1.68-4.33-3.2-6.68-4.54-.5-.32-1.17-.78-1.43-1.33-.12-.25-.17-.41,0-.66l.37-.43c.11-.12.21-.26.36-.3.12-.1.23-.15.34-.16-.03.39.14.73.37,1.05.46.65,1.1,1.03,1.77,1.44.23.14.52.26.72.4.66.48,1.27.93,2,1.3,2.53,1.29,5.06,2.16,7.59,3.44,1.18.6,2.28,1.33,3.14,2.34,1.16,1.37,2.14,2.81,3.13,4.29.79,1.17,1.06,2.5.86,3.88-.13.93-.37,1.76-.93,2.52-.6.81-1.2,1.6-1.91,2.33l-1.72,1.76c-.74.75-1.36,1.56-1.88,2.49-.12.21-.14.49-.3.66-.25.29-.64.37-.94.54h0Z"/>
  <path class="st69" d="M58.17,5.77c.75.27,1.32.97,1.81,1.58.21.27.43.45.57.76.03.07.09.13.14.16.1.02.23.16.27.25.32.74.61,1.55.57,2.36-.44.08-.88.15-1.32.2l-.67.19c-1.3.62-2.62,1.25-3.88,2.05-1.01.64-1.82,1.27-2.55,2.15-.44.37-.78.36-1.3.19-.47-.31-.93-.41-1.39-.29-.83.46-1.34.64-2.09-.08-1.36-1.61-3.43-2.69-5.32-3.6-.97-.46-1.87-.73-2.94-.8.04-.79.25-1.8.64-2.5l.2-.12c.61-.92,1.23-2,2.29-2.47l.42-.16h1.46c1.22-.02,2.34.12,3.39.71-.46-.4-.95-.78-1.45-1.14-.04-.04-.07-.08-.08-.12-.02-.2,1.51-1.35,1.81-1.5.99-.47,3.52-.42,4.46.18.31.2,1.25.94,1.42,1.22.06.09.08.14-.02.22-.49.34-.96.71-1.39,1.11l1-.42c1.13-.27,2.31-.36,3.52-.28l.44.13v.02Z"/>
  <path class="st29" d="M29.68,15.95c-.09.06-.27.05-.4.04.63-.95,1.16-1.95,1.24-3.1.03-.42-.11-.82-.13-1.21-.05.16-.1.3-.1.43-.2.93-1.44,3.29-2.42,3.51-.16.04-.29.03-.24-.15.03-.08.1-1.69.11-1.98l-.25.87c-.07.06-.11-.03-.09-.07.05-.1.06-.05,0,.11-.14.42-.36.85-.57,1.24-.66,1.27-1.52,2.67-2.3,3.87s-2.47,3.47-4.04,3.69c-.22.03-.67.06-.76-.19-.16-.43.07-1.2.28-1.6-.02-.04-.04-.08-.05-.12-.1-.34.7-1.82,1.01-2.11.11.04.23.05.36.02.03-.1.11-.18.24-.24.47-.49,1.08-.79,1.81-.89.31-.12.4-.31.45-.63l.06-1.42c.15-1.11.93-1.6,1.82-2.15.01,0-.22.17-.21.04-.06-.08-.07-.16,0-.21-1.52.78-2.62,2.1-3.69,3.44-.75.94-1.2,1.87-1.7,2.95-.21.37-.75,1.3-1.17,1.37-.05,0-.1-.06-.14-.11h-.08c-.54-1.13-1.06-2.29-1.54-3.47-.36-1.2-.09-1.88.52-2.93.21-.35.45-.7.69-1.03-.15-.09-.02-.24.13-.17.04-.09.09-.17.17-.25,0-.14.06-.28.2-.42.9-2.44,3.85-2.96,5.99-1.78-.13-.12-.52-.51-.35-.68.04-.04.11-.04.19-.03,1.28.35,2.56.67,3.84.98-.28-.6-.63-1.18-1.05-1.73-.07-.14-.04-.22.09-.3.29-.18,2.92.71,3.26.84.47.18.93.38,1.38.59-.32-.48-.7-.92-1.14-1.31-.08-.16-.11-.24.07-.28.36-.07,1.38.43,1.72.65.45.29,1.79,1.54,1.79,2.04,0,.16-.32.57-.43.7l-1.57,1.85c-.12.16-.2.14-.33.04l-.11-1.56c-.56,1.11-1.31,2.56-2.6,2.87l.04-.02Z"/>
  <path class="st29" d="M82.58,13.13c.22.25.47.55.6.85.51.68,1.1,1.51,1.29,2.39.09.42.08.83-.03,1.25-.46,1.26-.99,2.52-1.61,3.71,0,.01-.04.01-.08,0-.04.17-.22.09-.33,0-.41-.32-.71-.84-.97-1.29-.75-1.87-1.95-3.36-3.31-4.85-.53-.58-1.36-1.11-2.04-1.5.05.08.05.14-.02.21.02.12-.05.09-.11,0-.03-.03-.05-.03-.05,0,.75.49,1.68,1.23,1.71,2.23l.06,1.44c.04.28.12.41.4.5.46.09.89.23,1.31.41.23.33.53.65.96.58l.1.1c.13-.13.34.12.43.24.21.28.35.61.47.94.18.5.62,1.98.53,2.45,0,.05-.03.1-.06.14v.05c-.18.3-.67.21-.97.12-1.19-.33-2.22-1.52-2.99-2.45-.96-1.45-1.94-2.94-2.8-4.48-.29-.53-.56-1.04-.82-1.58-.03-.06-.07-.1-.14-.11-.06-.25-.17-.48-.19-.73-.07-.1-.09-.02-.07.24l.02,1.13-.03.08c.03.42-.02.41-.39.25-.93-.41-1.94-2.56-2.2-3.48,0-.1,0-.23-.08-.32l-.16,1.33c-.13,1.09.55,2.11,1.16,2.99-.09-.03-.19-.05-.28-.05-.4-.04-.65-.26-.94-.51-.72-.63-1.21-1.48-1.62-2.33l-.11,1.5c-.13.15-.19.19-.33,0-.66-.78-1.3-1.56-1.93-2.36-.12-.3.19-.71.38-.94.64-.78,1.2-1.34,2.17-1.71.19-.07.68-.25.85-.22.18.03.16.11.09.27-.43.4-.8.83-1.13,1.31.74-.36,1.51-.64,2.28-.91.43-.15,2.11-.67,2.43-.5.05.03.07.2.03.27-.42.54-.77,1.11-1.05,1.71,1.29-.29,2.58-.61,3.87-.98h.09c.29.1-.11.55-.25.69,1.89-.99,4.41-.78,5.64,1.12.15.24.27.51.21.75v.05Z"/>
  <path class="st32" d="M29.8,32.38c-.74-.15-1.47-.31-2.2-.62-.45-.19-.87-.4-1.35-.56,0,.74.07,1.38-.02,2.11-.31-.95-.64-1.84-1.36-2.54-1.26-.17-2.5-.06-3.71.29-.85.24-2.59.75-3.17,1.36.24.29,1.67.79,1.64,1.12,0,.04-.04.12-.12.14-1.93.54-3.78,1.22-5.63,2.01-.23.1-.81.36-.84.57,0,.08.04.19.12.24l.81.51c.07.04.11.1.12.14.02.1-.07.16-.17.19-1.15.33-2.28.65-3.35,1.19-.13.07-.26.1-.31.21-.1.15-.27.25-.5.3-2.16,1.05-2.5,2.52-1.79,4.74.12.2.16.4.13.59.09.64.35,1.25.71,1.79.04.09.05.2.02.33l.6.68-.03.14c.12.13.21.29.39.4l1.23.73.06.11c-.53.42.31.78.7.69.12.09.3.1.42.28.05-.06.05-.1.09-.13-.01.19,0,.48-.12.66-.73.33-1.52.4-2.35.39-.26-.45-.61-.77-.94-1.17-.63-.79-1.18-1.64-1.52-2.61-.55-1.58-.74-3.26-.5-4.92.5-3.48,1.9-6.11,4.54-8.4,2.32-2.02,4.19-3.27,7.18-4.09,1.31-.36,2.6-.57,3.98-.45,1.85.15,3.66.53,5.4,1.17.57.21,3.51,2.08,4.09,2.67-.8-.18-1.5-.34-2.24-.25h0Z"/>
  <path class="st32" d="M89.29,49.64c.12-.17.32-.24.48-.35.25.02,1.12-.38.77-.7v-.15c.1.03.16-.04.25-.1.54-.41,1.36-.63,1.74-1.45-.03-.1,0-.22.12-.34l.05-.18c-.03-.12,0-.2.08-.25.39-.51.7-1.2.7-1.85l-.06-.05c.35-1.06.56-2.12.4-3.28-.13-.94-1.66-1.95-2.54-2.13l-.07-.13c.07,0,.08-.05,0-.07-1.12-.59-2.3-.94-3.51-1.27-.08-.02-.16-.08-.18-.14-.02-.07.04-.14.11-.19l.81-.51c.1-.06.14-.16.13-.26-.02-.2-.57-.45-.79-.55-1.67-.71-3.35-1.33-5.09-1.86-.24-.07-.54-.07-.68-.28-.04-.14.17-.28.27-.34l1.37-.8c-.67-.71-3-1.35-3.93-1.55-.99-.22-1.99-.24-2.98-.11-.71.72-1.05,1.59-1.34,2.53-.12-.73-.04-1.37-.03-2.1-1.19.41-2.1,1-3.41,1.11-.06,0-.12,0-.12.06-.71-.07-1.43.05-2.1.28-.13,0-.25,0-.38.06l-.05-.05c.76-.67,1.58-1.25,2.48-1.77.55-.32,1.03-.72,1.63-.95,1.72-.64,3.52-1.01,5.35-1.16,1.4-.11,2.7.1,4.03.47,3.04.84,4.86,2.09,7.22,4.11,1.44,1.24,2.61,2.69,3.45,4.39.42.85.66,1.7.89,2.61.28,1.11.48,2.22.41,3.36-.07,1.08-.21,2.11-.59,3.12-.3.81-.69,1.57-1.25,2.22l-1.18,1.36c-.73.02-1.42-.1-2.09-.33-.23-.08-.35-.28-.37-.47v.04Z"/>
  <path class="st15" d="M74.72,56.55c-2.12-.08-5.68.15-7.63.96l-2.57,1.06c-.82.34-1.75.37-2.62.68-.37-.52-.75-.88-1.15-1.34-2.09-2.39-4.24-4.68-6.49-6.91-.09-.09-.12-.19-.12-.28,0-.06.14-.11.14-.17,0-.13-.14-.23-.11-.39.77-.37,4.12.21,4.97.45l3.71,1.02c1.25.34,2.21,1.1,3.39,1.56l8.26,3.27c.1.04.2,0,.22.1h0Z"/>
  <path class="st15" d="M37.06,58.56c-.79-.18-1.45-.7-2.25-.97-1.61-.54-3.26-.91-4.96-1.01-1-.06-1.98-.07-2.94-.04-.09-.02,0-.11.09-.04,2.78-1.15,5.64-2.05,8.38-3.32,1.2-.56,2.25-1.25,3.55-1.61l3.47-.95c.88-.24,4.24-.84,5.02-.47.09.1-.11.29-.09.39.02.09.2.12.16.22-.03.06-.04.15-.11.22-2.26,2.25-4.42,4.55-6.52,6.95-.4.46-.79.83-1.14,1.32-.91-.29-1.78-.47-2.66-.68h0Z"/>
  <path class="st29" d="M79.45,52.47l-.21-.07c-.74-.53-1.49-1.06-2.25-1.57l3.58,3.18c.34.26.59.56.75.92.88,1.1,1.49,2.46,1.9,3.78l.11.24c-.1,2.7.45,5.65,2.61,7.48-.88-1.2-1.92-2.64-2.12-4.15-.06-.45-.06-1.28.12-1.69.03-.07.11-.11.17-.15.4,1.35,2.12,3.39,2.36,4.63l.05.24.43.8c.13.47.29.93.47,1.37.07.23.02.44-.16.6-1.09.71-1.72,1.77-2.31,2.9-.12.09-.1.09.07,0-.05-.09.06-.29.17-.24-.01.02.02.07,0,.12-.35.88-.61,1.75-.9,2.62-.19.11-.41.28-.68.16-.21-.09-.46-.3-.56-.53-.18-.45.28-.99,0-1.91-.09-.28-.05-.59-.15-.86-.13-.36-.34-.67-.39-1.05-.11-.77.13-2.36.6-3.03.17-.24.25-.51.08-.78-.27-.44-.39-.93-.56-1.41-.34-.92-1.09-1.37-.19-2.68.21-.23.21-.25,0-.06-.11.06-.21.18-.38.17.36-.38.67-.77.66-1.31-.02-2.31-1.6-4.32-3.2-5.84-1.28-1.22-2.76-2.05-4.4-2.67-1.05-.39-2.03-.74-3.14-.93-.46-.08-.92-.3-1.23-.63-.33-.35-.43-.81-.46-1.28-.05-1.09.34-2.11,1.03-2.91-.12.91,1.13,1.66,1.86,2.12,1.09.68,2.16,1.31,3.21,2.05s2.13,1.47,3.04,2.36h.02Z"/>
  <path class="st29" d="M30.34,46.23c.69.9,1.03,2.04.85,3.17s-1.21,1.32-2.22,1.52c-.89.18-1.68.52-2.53.83-1.7.62-3.2,1.54-4.51,2.8-1.51,1.46-2.87,3.25-3.11,5.4-.05.47.02.88.24,1.28-.05,0-.05.06,0,.15.18.17.23.38.31.61.37,1-.16,1.29-.5,2.27-.17.49-.31.96-.56,1.41-.15.26-.07.49.08.72.5.74.79,2.71.6,3.21l-.35.91c-.19.48-.23,1.04-.26,1.56-.02.38.19.74.11,1.13-.05.24-.32.44-.5.49-.28.07-.5-.06-.68-.18l-.82-2.49c.05-.08.15.02.14.01-.1-.06-.1-.09-.07-.21l-.08-.04c-.52-1.14-1.15-2.07-2.17-2.8-.16-.15-.24-.31-.22-.53.01-.15.42-1.09.52-1.32.12-.26.27-.56.4-.82.02-.03.03-.05.06-.07.41-1.07,1.02-2.01,1.57-3.04l.87-1.64s.07.04.11.07c.03.03.06.05.06.08.65,2-.88,4.16-2,5.69,2.38-2.01,2.72-5.24,2.57-8.17l.11-.25c.11,0,.16.08.15.21.39-.89.81-1.77,1.28-2.63.16-.16.29-.33.37-.51.04-.08.08-.16.13-.24s.1-.15.16-.21c1.68-1.61,3.43-3.24,5.26-4.53.19-.19.17-.21-.05-.05-1.03.81-2.1,1.59-3.2,2.32l-.21.07c.08-.15.21-.24.37-.36,1.62-1.35,3.36-2.49,5.16-3.59.75-.46,2.2-1.26,2.45-2.06.03-.09.02-.19.12-.17h-.01Z"/>
  <path class="st55" d="M35.56,35.89c.12.05.24.2.24.33.05.02.05.04,0,.06,0,.22.21.41.21.67-3.06-.5-5.79.13-8.13,2.09l-3.89,3.25c.04.11-.05.18-.29.22-1.78.03-3.25.29-4.82,1.15.36-.42.78-.64,1.17-.96.42-.31.82-.64,1.19-1.01.32-.32.65-.58.99-.89l2.88-2.58s.01-.11.08-.2c.71-.74,1.12-1.73,1.17-2.78.02-.36.12-.7.36-.98.32-.35.67-.72,1.13-.9.85-.34,1.78-.47,2.7-.4.99.08,1.85.53,2.67,1.05l1.32.83c.43.27.65.75,1.02,1.06h0Z"/>
  <path class="st32" d="M31.59,16.18c-.18-.17-.4-.24-.65-.19-.41-.09-.85-.03-1.27-.03.33-.2.67-.37.97-.67.77-.78,1.32-1.69,1.71-2.72l.15,2.11c.65-.86,1.32-1.62,2.04-2.38.08-.08.06-.23,0-.33-.69-1.28-1.92-2.31-3.42-2.51.51.55,1.11,1.01,1.4,1.76-.91-.46-1.75-.8-2.67-1.09-.27-.09-2.18-.67-2.24-.46-.05.15,1.65,2.13.89,1.99-1.29-.24-2.58-.74-3.92-1.01.18.42.55.6.78.98-.83-.41-1.6-.78-2.52-.84-1.33-.08-2.67.42-3.44,1.53-.27.39-.33.88-.7,1.16-.07.08-.13.16-.17.25l-.13.17c-1.1,1.48-1.85,2.82-1.09,4.64.51.94.99,1.89,1.44,2.85l.06-.06c.14.01.27-.05.38-.16.98-.96,1.31-2.45,2.05-3.48.6-.84,1.29-1.56,1.97-2.33.53-.59,1.9-1.84,2.67-1.91-.12.22-.31.28-.38.45l.03.05c-1.76,1.01-3.2,2.43-3.77,4.45-.12.3-.28.57-.62.63.11,0,.18.05.2.15-.08,0-.22.1-.35.09-.44.64-.8,1.38-.98,2.12-.15.23-.23.48-.24.78-.04.18-.19.25-.28.06-.02-.02-.02-.06-.09-.06.02.23-.02.42-.07.64-.06.27,0,.54-.09.82-.52-.73-1-1.4-1.45-2.14-.49-.81-1.11-1.49-1.73-2.2-.57-.66.09-.92-.03-1.96-.08-.7-.14-1.39-.17-2.1-.01-.3.1-.53.3-.73.44-.43.93-.78,1.43-1.1.03.15-.03.22-.01.3.17-.2.33-.39.49-.58l1.35-1.6c.64-.76,1.54-1.43,2.52-1.64l3.39-.71c1.39-.29,2.7-.81,4.14-.86.92-.03,1.83.13,2.73.3.59.12,1.13.33,1.7.52.4.13.73.38,1.08.59.24.14.42.35.56.57.19.3.15.66-.08.91-.44.47-.78.98-1.08,1.56-.32.62-.68,1.21-.87,1.88-.1.34-.09.71-.14,1.06-.1.64-.02,1.22.09,1.92-.3-.16-.49-.41-.73-.62-.37-.32-.75-.61-1.17-.83h.03Z"/>
  <path class="st32" d="M81.85,22.97c-.11-.9-.55-3.08-1.18-3.61l-.19-.16c-.02-.13-.11-.22-.27-.27-.18-.18-.31-.39-.4-.63-.49-1.49-1.34-2.96-2.78-3.69-.21-.22-.47-.38-.77-.48-.14-.07-.19-.14-.15-.21-.06-.18-.26-.23-.36-.45.77.09,2.1,1.29,2.62,1.86.7.77,1.4,1.51,2.01,2.36.75,1.04,1.06,2.49,2.04,3.48.1.11.23.17.36.18.03.03.05.05.05.07-.17.71-.35.89-.02.06.43-.97.9-1.93,1.41-2.87.81-1.88.09-3.05-.95-4.65-.23-.24-.44-.52-.63-.84l-.03.03c-.12-.25-.22-.58-.4-.83-.78-1.08-2.07-1.58-3.4-1.5-.96.06-1.79.45-2.63.9.28-.35.65-.59.87-1.04-1.03.18-3.2.95-4.01,1-.45.03.7-1.5.75-1.58.1-.13.21-.24.24-.46-.77.04-1.47.27-2.19.49-.93.28-1.78.65-2.71,1.08.28-.75.88-1.17,1.36-1.73-1.25.18-2.3.91-3.02,1.9-.2.27-.39.52-.45.85.74.79,1.44,1.57,2.11,2.45l.15-2.07c.59,1.38,1.36,2.66,2.64,3.34-.38,0-.77-.03-1.14.04-.33-.03-.63.08-.89.32-.9.62-.97.76-1.81,1.48-.06-.35.05-.67.09-1.02.08-.64,0-1.27-.08-1.91s-.44-1.24-.73-1.84c-.38-.8-.86-1.45-1.42-2.13-.24-.29.04-.78.28-.99.32-.28.65-.5,1.05-.64,1.53-.55,2.99-1,4.64-.94,1.44.05,2.74.58,4.13.87l3.39.71c1.01.21,1.9.94,2.6,1.68.48.51.81,1.1,1.36,1.54.22.18.42.37.57.61.06-.07.05-.14.05-.2.47.33.92.66,1.32,1.06.26.25.37.53.34.89l-.18,2.28c-.05.69.5,1.1.03,1.63-.57.65-1.14,1.28-1.63,1.99l-1.7,2.44c.14-.82.04-.81-.05-1.57-.08.26-.05.57-.28.73h-.01Z"/>
  <path class="st55" d="M77.95,42.5c-.21-.03-.32-.1-.35-.22l-3.88-3.26c-2.37-1.99-5.11-2.55-8.14-2.09.2-.55.41-.97.54-1.45.05-.19.28-.27.37-.39l-.08.3c.23-.23.4-.48.65-.65l1.19-.79c.83-.56,1.73-.97,2.75-1.01.87-.03,1.74.1,2.55.42.58.23,1.03.7,1.39,1.17.63.82-.21,1.6,1.26,3.43.42.53.93.89,1.44,1.32.54.47,1.06.92,1.57,1.42l.68.65c.67.65,1.32,1.25,2.13,1.81-.38,0-.63-.2-.96-.29-1.03-.27-2.07-.37-3.11-.39v.02Z"/>
  <path class="st22" d="M40.9,8.27c-.42.8-.6,1.61-.77,2.57,1.24-.04,2.34.44,3.46,1.02,1.49.77,2.95,1.51,4.19,2.66.34.32.58.73.98.99.43.28.98.1,1.38-.14,1.11-.66,1.52.57,2.58.22.35-.11.89-.92,1.31-1.26,1.14-.92,2.39-1.64,3.69-2.3l1.35-.69c.73-.37,1.54-.47,2.37-.51-.07-.77-.27-1.51-.58-2.2-.06-.13-.21-.2-.18-.35.03-.21-.56-1.56-.78-1.78.2.02.36.13.51.25.78.67,1.51,1.33,2.23,2.08,1.38,1.44,2.69,2.88,3.94,4.44.17.21.37.35.43.64-.23-.21-.51-.26-.76-.42-1.04-.67-2.3-1.34-3.45-1.73-.2-.07-.29-.02-.5-.02-.79,0-1.55-.05-2.31.21-1.63.56-3.57,1.21-4.87,2.33-.51.44-.77,1.06-1.18,1.59-.32.41-.88.72-1.41.71s-.95-.31-1.39-.48c.19-.13.33-.18.49-.26-.31-.08-.57.06-.85.05s-.57-.12-.84-.05c.17.11.33.13.47.29-.38.18-.78.46-1.25.44-.57-.02-1.18-.34-1.52-.77-.59-.75-.96-1.57-1.65-1.98-.57-.34-1.11-.7-1.74-.95-.92-.37-1.82-.72-2.77-1-.74-.22-1.49-.12-2.24-.14-.16,0-.23-.1-.42,0l-.5.23c-1.48.68-2.65,1.22-4.04,2.26.14-.45.41-.74.7-1.1,1.65-2.02,4.2-4.88,6.2-6.49.18-.15.38-.22.67-.26-.41.43-.69.96-.87,1.56-.04.12-.19.24-.07.34h0Z"/>
  <path class="st15" d="M77.6,42.27c.12.02.26.15.35.22-1.47-.03-2.87.28-4.23.86-.47.2-.76.52-1.15.78-.78.52-1.45,1.09-1.98,1.85-.16.05-.14-.11-.19-.23-.74-1.45-1.62-2.76-2.59-4.07-.23-.32-1.88-2.53-1.77-2.67.03-.03.12-.03.19,0l6.97,2.33c1.46.49,2.92.75,4.41.93h-.01Z"/>
  <path class="st15" d="M31.12,45.98c-.3-.51-.74-1.02-1.23-1.33l-.81-.52c-.38-.24-.62-.56-1.04-.75-1.39-.64-2.85-.9-4.35-.88.08-.1.19-.14.29-.22,1.59-.19,3.14-.49,4.69-1.01l6.77-2.27c.06-.02.12,0,.14.03.09.15-1.54,2.35-1.79,2.69-1,1.35-1.96,2.8-2.67,4.27h0Z"/>
  <path class="st55" d="M24.41,56.78c-1.01.14-2,.47-2.98.8-.74.24-1.27.7-1.83,1.27.43-1.67,1.84-3.25,3.05-4.34,1.09-.98,2.32-1.68,3.7-2.19.93-.34,1.82-.65,2.78-.87.36-.08.69-.2,1.01-.3.06,0,.12-.05.19-.12.39-.11,1.09-.83,1.26-1.26-.19.61-.37,1.2-.77,1.77-.55.77-1.23,1.43-2.02,1.98-.96.67-1.83,1.38-2.71,2.15-.6.52-1.14.72-1.68,1.13v-.02Z"/>
  <path class="st55" d="M76.99,56.73s.11,0,.13-.04c-.57-.33-1.1-.61-1.58-1.03-.88-.76-1.75-1.48-2.71-2.14-.56-.39-1.04-.83-1.5-1.31-.53-.55-.83-1.17-1.11-1.83.4.33,1.17.88,1.71,1,1.12.25,2.16.6,3.24,1,1.26.47,2.39,1.1,3.42,1.98,1.23,1.06,2.62,2.57,3.19,4.17-.49-.38-.88-.73-1.45-.93-1.09-.37-2.2-.71-3.33-.86h0Z"/>
  <path class="st55" d="M76.33,20.63c-.83-.32-2.03-1.18-2.46-2.06-.53-.05-1.02.04-1.54.15-.82.18-2.18.38-2.95,0-.82,1.31-1.61,2.59-2.49,3.86-1.39,1.99-3.05,1.32-4.8,2.7-.03.02-.07.02-.09.02s-.03-.03-.04-.05c-.05-.07.04-.15.11-.18.57-.49,1.12-1.01,1.68-1.55l1.26-1.21c.78-.75,1.37-1.64,1.93-2.56.11-.18.2-.47.41-.54.26-.08.29-.25.45-.41.53-.54,1.07-1.04,1.64-1.53.31-.27.68-.55,1.11-.64,2.11-.46,2.1.18,3.6.94l.64.32c.24,1.1.8,1.99,1.55,2.76v-.02Z"/>
  <path class="st55" d="M67.47,33.03c-.26-.74-.61-2.37-.29-3.09l-.26.05c-.04-.08.02-.19.11-.19.05-.16.14-.31.28-.46,1.12-1.75,2.45-3.42,3.94-4.9.52-.51,1.09-.91,1.75-1.2.87-.38,2.09-.83,3.02-.98.1-.02.2-.01.3.04.23.03.5.06.72,0,.2,0,.28-.01.26-.06-.07-.02-.06-.04-.01-.07.09-.09.67-.06.58-.16.77.72,1.04.87,1.53,1.96l-1.45.16-2.28.42c-1.22.22-2.28.7-3.39,1.21-2.58,1.18-3.63,2.98-4.25,5.72-.12.55-.4,1.05-.58,1.55h.02Z"/>
  <path class="st55" d="M39.4,25c.13.07.33.23.36.37-.11-.01-.22-.08-.32-.16-1.75-1.3-3.34-.66-4.74-2.65-.88-1.26-1.66-2.53-2.47-3.83-.84.4-2.21.16-3.09-.02-.46-.1-.91-.16-1.4-.12-.45.9-1.68,1.77-2.56,2.11.07-.15.17-.29.29-.42.61-.68,1.01-1.45,1.24-2.37.75-.33,1.42-.77,2.07-1.29.71-.17,1.42-.14,2.12.02.52.21.96.52,1.37.9l1.38,1.32c.16.15.18.3.41.39.29.11.39.47.54.71.52.83,1.07,1.61,1.75,2.31.36.37.76.67,1.14,1.02l1.87,1.72h.04Z"/>
  <path class="st55" d="M24.29,22.17c.1-.05.13-.02.06.06l.05.07s.1-.06.12,0c.24.04.48.04.72,0,.2-.12.54-.02.76.05,1.69.52,3.38,1.12,4.58,2.45.94,1.03,1.82,2.1,2.63,3.22.49.54.98,1.1,1.32,1.76.09,0,.14.12.05.16-.04,0-.08-.04-.16-.02.32.7-.04,2.47-.32,3.15l-.46-1.25c0-.15-.05-.39-.14-.49-.27-.98-.5-1.96-1.03-2.87-.61-1.06-1.44-1.95-2.57-2.44-.32-.14-.58-.29-.89-.45-.84-.44-1.73-.79-2.67-.97l-2.57-.49c-.54-.1-1.06-.07-1.62-.21.14-.8.83-1.46,1.4-1.92,0,.14.58.02.72.17l.02.02Z"/>
  <path class="st32" d="M58.17,5.77c-1.02-.04-2.06-.01-3.11.08-.84.08-1.5.5-2.32.83.49-.67,1.16-1.05,1.84-1.56-.57-.47-1.09-1.09-1.78-1.4-.83-.38-3.09-.37-3.95-.02-.69.28-1.19.93-1.83,1.41.68.51,1.31.89,1.86,1.54-.26,0-.43-.16-.64-.25-.55-.23-1.09-.5-1.71-.54-1.12-.07-2.25-.16-3.34-.03.61-.46,1.35-.75,2.09-1.01.26-.09.46-.24.69-.39l1.95-1.35c.5-.35,1-.7,1.6-.85l1.17-.29,1.26.31c.99.25,3.16,2.03,4,2.46.75.38,1.58.57,2.23,1.08v-.02Z"/>
  <path class="st49" d="M50.19,76.91c.11-.03.25-.04.36.01.15-.02.31-.04.48-.06.51.08,1.08.09,1.6,0,.05.24,0,.49-.1.76l-.12.59c-.21,1.78-.54,3.54-1.08,5.19-.11.24-.23.58-.55.65-.2-.01-.32-.33-.42-.46-.57-1.65-.94-3.35-1.11-5.09l-.29-1.27.02-.35c.4.07.8.06,1.2.04h0Z"/>
  <path class="st32" d="M26.37,34c-.27.32-.32.8-.3,1.2-.04.12-.06.24-.06.36l-.6,1.43c-.32.77-.98,1.37-1.58,1.95l-1.19,1.15-.72.59-1.73,1.28c-1.1.82-2.15,1.65-3.34,2.35-.81.48-1.63.84-2.48,1.23-.14.04-.22.14-.35.2.39-.71.98-1.23,1.57-1.73.02-.05.04-.05.06,0,2.19-1.01,5.03-3.04,6.66-4.85.72-.81,1.27-1.69,1.84-2.59.51-.81,1.34-2.25,2.22-2.56h0Z"/>
  <path class="st32" d="M85.87,43.85s-.1-.05-.12,0c0,.02,0,.07.03.09.02,0,.03-.02.1-.03.19.22.46.36.64.6.16.21.26.44.5.58.04.18.23.21.3.39-1.9-.73-3.9-2.01-5.46-3.26-.93-.75-2.19-1.5-2.93-2.17-.86-.77-2.25-2.19-2.76-3.18-.23-.46-.4-.93-.58-1.38.02-.13-.02-.24-.07-.36.02-.37-.09-.73-.18-1.09.86.3,1.74,1.88,2.25,2.68.58.91,1.13,1.81,1.89,2.6,1.77,1.85,3.86,3.31,6.1,4.5.07-.05.1-.1.15-.1.08,0,.11.09.16.12h-.02Z"/>
  <path class="st10" d="M51.33,83.4s-.05-.02-.05-.06l.56-2.31c.37-1.49.28-2.71.79-4.17l3.58-.65-2.54,3.19c-.98,1.23-1.68,2.62-2.35,4h0Z"/>
  <path class="st10" d="M48.99,76.88c.26.83.43,1.69.51,2.59.12,1.4.65,2.78.86,4.12,0,0-1.48-3.1-2.5-4.39l-2.34-2.92,3.47.6Z"/>
  <path class="st32" d="M27.5,14.35c-.09.3-.22.57-.31.89l-.37,1.26-.41,1.33-.49,1.29c-.26.69-.81,1.21-1.32,1.68-.26.18-.47.32-.63.43l.04.03c-.31.24-.6.51-.97.75-.53.34-1.04.77-1.36,1.34-.11.19-.08.53-.4.56-.34.03-.81.04-1.12-.09-.21-.23-.28-.58-.44-.83s-.25-.48-.2-.74c.43.05.02-.64.52-.84-.12.5-.22,1.01-.26,1.59.77.34,1.69-.25,2.29-.74,1.66-1.36,2.71-3.35,3.81-5.19.57-.95,1.12-1.87,1.55-2.86.05.06.03.12.07.14Z"/>
  <path class="st32" d="M81.84,23.02c-.09.28-.23.53-.38.83-.37.07-.79.1-1.16.06l-.34-.29c.05-.74-1.81-1.94-2.38-2.36v-.05l-.66-.47c-.49-.49-1.03-1.03-1.29-1.71l-.51-1.35-.4-1.34c-.13-.43-.24-.84-.37-1.25-.07-.21-.19-.37-.23-.57.11,0-.01-.15.08-.26.41.92.91,1.78,1.44,2.66l1.77,2.9c.7,1.14,2.88,3.75,4.41,3.18l.02.02Z"/>
  <path class="st64" d="M58.29,75.91s.09.08.07.13c-1.18,1.49-2.54,3.16-3.69,4.5l-2.43,2.13c-.08.07-.11.03-.05-.06l.64-1.02c.09-.14.18-.27.3-.36l.19-.25c.49-.72,1.01-1.41,1.54-2.09,0-.08.04-.16.13-.24.06-.05.1-.18.17-.26l1.72-2.18c.47-.16.94-.22,1.41-.32v.02Z"/>
  <path class="st64" d="M46.82,80.35c-1.24-1.39-2.45-2.83-3.61-4.3l.05-.13,1.24.25,3,3.85c.55.7,1.01,1.4,1.46,2.2-.78-.62-1.48-1.23-2.13-1.87h0Z"/>
  <path class="st32" d="M27.64,15.46c.18.22.8-.33,1-.56.73-.84,1.2-1.81,1.65-2.79-.02.53-.6,2.18-.87,2.74-.43.88-.97,1.69-1.78,2.23l-.75.49c.04-.27.14-.47.24-.69.21-.47.33-.96.51-1.42Z"/>
  <path class="st32" d="M73.88,15.16c.01.79.43,1.54.73,2.35-1.16-.7-1.98-1.72-2.53-2.91-.22-.47-.86-2.2-.82-2.6.02,0,.05-.02.06-.01.02.02.02.07.03.11.38,1.02.9,1.95,1.6,2.78.23.28.49.52.85.61.03-.15-.02-.29.08-.33Z"/>
  <path class="st49" d="M59.04,75.75l.02.2c-.57.94-1.32,1.77-2.08,2.55-.72.73-1.54,1.37-2.31,2.05-.06.07-.04-.02-.04-.08l3.47-4.26c.09-.11.16-.18.19-.28l.75-.17h0Z"/>
  <path class="st49" d="M43.26,75.92l3.43,4.2c.07.08.11.16.13.23l-2.4-2.11c-.7-.68-1.32-1.43-1.86-2.25-.05-.08,0-.15.06-.21l.63.14h0Z"/>
  <path class="st81" d="M56.98,78.49c.06-.09.11-.22.21-.33.62-.7,1.42-1.65,1.85-2.42.5-.11.97-.33,1.56-.34l-2.39,2.04c-.43.36-.8.74-1.23,1.05Z"/>
  <path class="st81" d="M42.63,75.78c0,.09.05.17.11.26.48.68.98,1.32,1.54,1.94.07.08.12.18.15.25l-3.26-2.74c.55-.02,1,.18,1.46.28h0Z"/>
  <path class="st28" d="M54.86,78.9c-.45.74-.94,1.47-1.54,2.09v-.06c.42-.74.97-1.4,1.48-2.09.1-.08.13-.05.06.06Z"/>
  <path class="st92" d="M51.27,16.75c-.35.26-.67.19-1.04,0,.15-.13.3-.27.51-.39.2.13.33.31.53.39Z"/>
  <path class="st36" d="M37.07,22.16l-.64-.73c-.06-.07-.05-.14-.02-.2.1.04.72.81.72.85,0,.03-.04.06-.06.08Z"/>
  <path class="st1" d="M70.76,15.99c-.31.06-.6.2-.89.32.19-.13.31-.57.89-.32Z"/>
  <path class="st74" d="M77.59,21.27c-.23-.17-.45-.31-.66-.52.29.08.48.32.82.5h-.16v.02Z"/>
  <path class="st78" d="M67.41,64.76l-.02-1.08c0-.12.02-.24.02-.36.03,0,.05.02.05.06v1.31s-.01.08-.04.07h-.01Z"/>
  <path class="st54" d="M39.49,24.99c.17.2.45.32.58.61-.14-.05-.21-.16-.31-.23-.14-.1-.24-.25-.36-.37h.09Z"/>
  <path class="st26" d="M24.59,20.81c-.19.18-.4.31-.6.46-.04-.01-.15.05-.09-.03.27-.14.45-.36.69-.43Z"/>
  <path class="st62" d="M31.59,16.18c-.19-.1-.45-.15-.65-.19.23-.16.51-.05.65.19Z"/>
  <path class="st16" d="M38.56,59.24s0,.07-.06.06c-.27,0-.48-.2-.72-.29l.06-.07c.23.12.48.2.72.3Z"/>
  <path class="st47" d="M62.06,25.06s-.07.13-.11.18l-.44.36c.09-.3.38-.41.55-.6v.06Z"/>
  <path class="st59" d="M69.74,32.66c-.19.06-.39.09-.58.23-.07-.19.09-.15.16-.21.14-.02.31-.12.42,0h0Z"/>
  <path class="st83" d="M63.8,59c-.2.07-.38.2-.6.24h-.06c.17-.14.4-.19.6-.3.02.02.04.04.06.06Z"/>
  <path class="st14" d="M67.24,17.74c-.03-.16-.03-.33,0-.54.18.11.12.3,0,.54Z"/>
  <path class="st63" d="M19.06,61.23v.15c-.07-.07-.17-.13-.2-.24.09,0,.13.06.2.09Z"/>
  <path class="st58" d="M73.94,13.79c-.09.05-.06.16-.07.24,0-.17-.13-.36-.01-.54.03.13.08.21.08.3Z"/>
  <path class="st21" d="M33.66,31.84c-.06-.17-.1-.32-.14-.49.03-.09.09-.02.08.06.02.16.17.31.07.43h-.01Z"/>
  <path class="st25" d="M79.67,23.87c-.1-.15-.14-.33-.07-.49.06.17.13.31.07.49Z"/>
  <path class="st7" d="M15.65,44.01h-.06s-.04-.04-.06-.06c.13-.08.23-.22.42-.25,0,0-.3.31-.3.31Z"/>
  <path class="st86" d="M35.85,36.15s0,.07-.05.06c-.06-.1-.15-.25-.24-.33l.05-.04c.06.11.18.18.24.31Z"/>
  <path class="st18" d="M21.92,23.8c-.09-.18-.03-.34.07-.48,0,.19-.05.31-.07.48Z"/>
  <path class="st65" d="M82.45,61.4v-.06c.1-.05.11-.28.3-.24-.05.16-.23.2-.3.3Z"/>
  <path class="st72" d="M72.42,45.05c-.1.08-.22.13-.34.16.03-.09.14-.12.23-.2.05-.07.16-.05.11.04Z"/>
  <path class="st57" d="M75.57,35.5c-.05-.12-.08-.23-.07-.36.11.08.17.26.07.36Z"/>
  <path class="st3" d="M34.26,17.51c-.04-.15-.04-.3,0-.48.06.13.06.27,0,.48Z"/>
  <path class="st30" d="M51.03,76.87c-.12.13-.32.03-.48.06-.05-.02-.05-.04,0-.06.16.01.32-.02.48,0Z"/>
  <path class="st33" d="M65.23,21.34s-.03-.05-.06-.06c.06-.09.13-.17.24-.25.02.17-.12.22-.19.31h.01Z"/>
  <path class="st4" d="M26.01,35.56c-.09-.1,0-.26.06-.36,0,.13,0,.23-.06.36Z"/>
  <path class="st38" d="M53.32,80.99c.02.13-.1.19-.19.25,0-.13.12-.21.18-.31v.06h0Z"/>
  <path class="st34" d="M30.34,51.02s-.03.09-.07.15c-.03.05-.09.03-.12-.03.02-.09.11-.1.19-.12Z"/>
  <path class="st11" d="M25.1,38.21s-.05,0-.1-.04c.04-.08.13-.11.18-.16.03.09-.02.14-.08.2Z"/>
  <path class="st41" d="M50.55,76.87v.06c-.12.02-.24-.02-.36-.01.09-.08.24-.06.36-.05Z"/>
  <path class="st90" d="M54.86,78.9s-.03-.05-.06-.06c.05-.07.1-.15.19-.18-.02.09-.08.17-.13.24Z"/>
  <path class="st61" d="M52.24,82.68c-.06.05-.07.16-.19.19-.02-.14.09-.17.13-.25.03,0,.05.03.05.06h0Z"/>
  <path class="st60" d="M18.47,43.88c.04-.08.1-.12.17-.18.04.1,0,.19-.17.18Z"/>
  <path class="st43" d="M51.94,17.09h-.13s-.1-.05-.12-.11c.14-.05.17.09.25.11Z"/>
  <path class="st45" d="M13.57,46.74c-.11.12-.18.08-.11-.05.09-.07.18-.04.11.05Z"/>
  <path class="st15" d="M77.3,22.17s.08.07.01.07c-.03.1-.18.05-.26,0-.58-.05-1.11.02-1.69.14-1.39.29-2.82.69-3.88,1.66-1.71,1.56-3.02,3.45-4.22,5.38-.08.15-.17.23-.27.25.01.11,0,.13-.07.06-.12.06-.25.06-.41.07l-1.29.03c-.25-.33-.52-.6-.8-.89l-1.84-1.87c-.07-.07-.16-.25-.08-.31,1.9-.12,3.59-.36,4.66-2.08.51-.82,1.05-1.58,1.68-2.32,2.32-2.72,5.84-1.9,8.46-.2h0Z"/>
  <path class="st15" d="M34.83,29.8c-.08.11-.24-.12-.29-.22-.11,0-.21-.09-.3-.26-1.17-1.89-2.45-3.89-4.17-5.37-.87-.75-1.65-1-2.76-1.3-.95-.26-1.93-.48-2.91-.4-.02.05-.04.05-.05,0l-.06-.06c1.81-1.14,4.04-1.99,6.22-1.34.96.29,1.72.89,2.36,1.64s1.12,1.47,1.62,2.26c1.05,1.65,2.75,1.94,4.61,2.03.13,0,0,.24-.05.29l-1.96,2c-.25.26-.49.51-.7.79-.55,0-1.06-.1-1.56-.04v-.02Z"/>
  <path d="M59.25,62.83l.2.07c.27.32.89,1.06,1.07,1.39.05.09.06.17.06.27.07.09.1.16.17.2.54.8.97,1.62,1.43,2.45.09.17.22.32.15.52-.31.97-.08,1.33-.57,1.65l-2.37,1.52-2.69,1.88-4.11,2.41-1.46.84c-.11.06-.34.26-.51.13-.37-.29-.81-.41-1.23-.65l-2.94-1.69c-.69-.4-1.37-.74-2.03-1.21l-2.91-2.06c-.47-.33-2.12-1.12-2.11-1.54s-.13-.8-.22-1.21c-.04-.21.16-.43.26-.61.44-.86.93-1.66,1.44-2.45.05-.07.09-.15.12-.18l.06-.24.83-1.08c.14-.23.31-.35.5-.35.26-.23.48-.44.77-.61,1.52-.93,3.2-1.39,4.99-1.5s3.61-.12,5.46,0c2.08.13,4.08.71,5.64,2.04h0Z"/>
  <path d="M38.03,66.71l-.58,1.16c.33.62.68,1.16,1.03,1.75.33.55.58,1.12.94,1.64.19.29.39.11.34,1.23-.12-.12-.23-.24-.37-.28-.31-.07-.3-.37-.45-.57-.7-.92-1.38-1.8-1.9-2.89-.62.95-.95,2.09-1.66,3l1.38-3.47-.84-1.85c-.3-.67-.52-1.34-.73-2.02-.03-.1.04-.25.1-.28s.18.04.23.13l1.65,3.08c.25-.41.83-2.29,1.26-2.22.17.13.1.34.03.51l-.43,1.08h0Z"/>
  <path d="M65.42,66.73l-.66,1.37,1.44,3.65c-.48-.5-.69-1.1-1-1.67l-.77-1.4c-.53,1.02-1.17,1.92-1.84,2.83-.13.18-.17.4-.35.55-.16.13-.31.27-.41.41-.2-.48.09-.76.31-1.11l1.98-3.31-.79-1.62c-.13-.27-.58-1.32,0-1.29.29.01.98,1.96,1.13,2.26l1.65-3.17c.04-.07.13-.13.18-.11.04.02.13.09.1.16l-.96,2.45h-.01Z"/>
  <path class="st15" d="M42.39,62.9c-.6.54-.74.98-1.38,1.66l-.11-.71c-.03-.21-.16-.4-.29-.46-.21-.1-.45-.13-.61,0-.74.55-1.65,1.27-2.51,1.54l-.92-1.05c-.79-.89-1.33-1.95-1.62-3.11-.04-.14-.09-.3.04-.41.28.9.76,1.69,1.44,2.35.93.89,2.33,1.06,3.43.41.52-.31.95-.68,1.4-1.04-.32.39,1.12.7,1.15.83h-.02Z"/>
  <path class="st15" d="M60.58,64.56c-.49-.62-.83-1.05-1.34-1.73.15-.02,1.3-.42,1.17-.71.48.46.98.85,1.61,1.13,1.01.45,2.19.31,3.04-.42.78-.67,1.31-1.56,1.59-2.52.22.93-1.01,2.89-1.61,3.58l-.89,1.01c-.36-.06-.67-.22-.97-.42l-1.63-1.12c-.35-.24-.76.11-.85.46-.07.28-.04.51-.13.74h.01Z"/>
  <path d="M44.36,17.09l1.29,2.35.88,2.03c.05.08.03.09-.05.05l-1.31-1.63c-.55-.69-.93-1.49-1.29-2.27l-.55-1.17c-.06-.12-.04-.28.04-.37.05-.05.18-.18.26-.07l.73,1.07h0Z"/>
  <path d="M57.56,17.7l-1.21,2.08-.68.93-.62.88c-.06.02-.08,0-.07-.06l.92-1.97,1.36-2.46.66-1c.05-.08.2-.12.25-.08.06.04.09.16.05.25l-.67,1.45v-.02Z"/>
  <path class="st24" d="M34.83,29.8c.08.06.13.19.18.26l-.15.15s-.05-.02-.08-.05c-.06-.12-.14-.28-.24-.48-.1-.02-.09-.07,0-.1,0,0,.29.22.29.22Z"/>
  <path class="st71" d="M63.14,59.24h.06c-.24.05-.43.32-.74.28.22-.13.44-.28.68-.28Z"/>
  <path class="st84" d="M38.5,59.3l.06-.06c.16.07.34.13.52.26-.24.09-.41-.15-.58-.2Z"/>
  <path class="st46" d="M55.05,21.59c-.14.19-.25.36-.39.57,0-.27.23-.43.33-.63.02.02.04.04.07.06h-.01Z"/>
  <path class="st76" d="M67.04,29.8c-.05.08-.08.14-.11.19-.05.06-.11.18-.21.14.08-.18.19-.26.19-.4l.07-.06c.06,0,.08.04.06.12h0Z"/>
  <path class="st2" d="M34.78,30.16c-.06-.07-.12-.14-.19-.2,0-.06-.03-.11-.05-.16-.04-.06-.04-.1,0-.12.12.1.17.25.27.4.03.05.03.08-.03.08Z"/>
  <path class="st48" d="M46.66,21.81c-.05-.09-.04-.11.05-.06.04.13.25.21.22.39-.19-.07-.18-.24-.27-.34h0Z"/>
  <path class="st53" d="M46.71,21.75l-.05.06c-.09-.1-.11-.21-.17-.29l.05-.05c.05.12.14.17.17.28Z"/>
  <path class="st84" d="M35.8,36.28v-.06s.04-.04.05-.06c.04.08.22.11.18.27,0,0-.23-.15-.23-.15Z"/>
  <path class="st91" d="M64.95,21.53c-.08.12-.13.31-.32.34.08-.2.21-.26.32-.34Z"/>
  <path class="st77" d="M64.54,22.1c-.11.12-.18.08-.11-.05.09-.07.18-.04.11.05Z"/>
  <path class="st52" d="M15.53,39.33s0,.06-.01.06c-.13.05-.1-.06-.01,0,.01,0,.02.03.02.06,1.1.37,2.13.29,3.35.41-.93.51-1.95.56-2.95.44-.83-.1-1.61-.46-2.2-1.03-.06-.06-.09-.29-.03-.33.59-.28,1.17-.54,1.82-.69l3.21-.79c-.18-.05-2.09-.95-1.58-1.18.4-.18.83-.3,1.27-.41l2.81-.72-1.4-1.26c.28-.16.54-.15.82-.23,1.28-.32,2.49-.74,3.8-1.16-.29.51-.76.81-1.26,1.06l-1.75.88c.13.09.28.05.42.02l1.88-.43c-.83.79-1.78,1.35-2.8,1.83l-2.5,1.16c.62.43,2.43.19,3.25.19-.68.31-1.3.66-2.01.92-1.35.49-2.69.92-4.13,1.21h-.02Z"/>
  <path d="M10.07,46.53c-.27.17-.73-.47-.37-.66l.78.03c.1-.11,0-.31-.29-.58-.48-1.83,1.08-3.23,2.33-4.31.12-.16.36-.26.49-.49.13.24.27.6.11.83-.28.43-.63.8-.96,1.18-.1.12-.17.12-.15.32l.14,1.49c.03.29,0,.57-.25.75-.2.14-.41.2-.69.24.16.32.04.59-.15.84-.25.32-.6.44-.98.35h-.01Z"/>
  <path class="st32" d="M12.51,41.01c-.77,1.04-1.77,1.53-2.25,3.06-.12.39,0,.83.03,1.21.11.18.45.43.35.59-.03.05-.08.15-.17.14l-.72-.04c-.22,0-.02.4.31.55-.13.09,1.04.88.74.94-.26.05-.43.05-.61,0-.01-.06.13,0,.12,0-.7-.05-1.27-.76-1.14-1.45-.07,0-.13-.03-.18-.07-.06-.16-.06-.33-.03-.52l.11-.91c.59-1.62,2.02-2.7,3.44-3.5h0Z"/>
  <path d="M8.11,44.37c-.41-.79-.57-1.61-.55-2.51.01-.58.05-1.07.43-1.57.55-.73,1.37-1.31,2.27-1.55.75-.2,1.57-.11,2.34-.24-.88.28-1.74.42-2.56.79-1.11.5-1.92,1.07-1.89,2.39.02.81-.05,1.6.11,2.39.02.09.06.16.01.22-.04.05-.1.09-.17.08h.01Z"/>
  <path class="st0" d="M10.19,47.47c-.25-.08-.52-.12-.78-.16l-.65-.73c-.1-.11-.02-.33.06-.42.06-.07.13-.15.18-.23.04-.07.28-.1.29,0,.03.29-.05.59.13.83.24.31.56.53.89.69h-.12v.02Z"/>
  <path class="st0" d="M11.78,49.25c-.02.37-.83-.06-.97-.27-.11-.17.12-.42.22-.53.09-.11.27-.14.38-.22-.04.2-.15.32-.21.51.21.18.38.37.58.52h0Z"/>
  <path class="st79" d="M15.53,39.33v.12c-.08,0-.11-.03-.15-.06-.05-.05,0-.07.06-.06.03,0,.06,0,.09,0Z"/>
  <path class="st52" d="M82.74,39.87l2.41-.19c.38-.03.75-.14,1.05-.29-1.48-.36-2.97-.68-4.35-1.31l-1.93-.89c1.01.02,2.38.21,3.22-.14-.05-.12-.15-.16-.25-.21l-2.34-1.06c-.98-.45-1.88-1.01-2.67-1.76l1.7.39c.2.05.42.13.61.03l-1.86-.94c-.46-.23-.89-.52-1.16-1,1.23.4,2.39.8,3.61,1.12.33.09.65.1.99.26l-1.39,1.28,2.68.68c.44.11.86.23,1.29.39.73.27-1.27,1.13-1.46,1.23l3.11.77c.66.16,1.27.4,1.88.71.08.04,0,.31-.06.38-.59.56-1.36.89-2.18.99-.99.12-2,.06-2.91-.44h0Z"/>
  <path d="M89.06,41.01c1.3.97,3.42,3.08,1.92,4.66.16.24.42.3.79.18.39.1.28.5-.03.46-.51.24-.84.44-1.29-.04-.23-.25-.24-.55-.06-.87-.46-.08-1.03-.14-.99-.67l.16-2.04c-.24-.21-.42-.46-.64-.71-.36-.42-.78-.72-.34-1.45.13.21.35.32.48.48h0Z"/>
  <path class="st32" d="M92.71,46.05c-.08.1-.18.08-.33-.07.14.81-.34,1.27-1.07,1.49-.14.05-.34.07-.5-.02-.11-.06.56-.68.93-1.14l.17-.21c-.03-.32-.59.07-.8-.13-.08-.08-.3-.24-.22-.35l.36-.49c.2-.28.14-.86.02-1.25-.45-1.42-1.49-1.95-2.21-2.86,1.39.7,2.99,1.95,3.47,3.52.1.33.06,1.31.18,1.52h0Z"/>
  <path d="M91.2,38.68c.65.03,2.65,1.12,2.75,2.39.04.51,0,1,0,1.5,0,.32-.32,1.42-.47,1.7-.37.48-.08-.72-.09-1.15-.03-1.55.24-2.26-.95-3.22-.5-.41-1.08-.61-1.67-.85-.51-.21-1.03-.3-1.54-.44-.03-.05,0-.07.06-.06.34.02.71.07,1.08.09l.84.04h-.01Z"/>
  <path class="st0" d="M92.71,46.05s.05.05.08.07c.11.28-.02.57-.26.77-.16.13-.31.3-.49.41-.22.14-.51.09-.72.17.62-.49,1.04-.47.95-1.47,0-.08.07-.14.12-.14.14-.02.16.17.33.19h-.01Z"/>
  <path class="st20" d="M90.55,48.44c.08.07.17.16.2.25.09.31-.38.52-.7.7-.11.06-.23,0-.27-.09.2-.14.38-.34.61-.48-.04-.21-.17-.31-.19-.47-.07-.09-.04-.12.06-.05.1.04.21.09.29.16v-.02Z"/>
  <path class="st65" d="M89.29,38.55s-.04.04-.06.06l-.3-.08c.12-.14.26,0,.36.02Z"/>
  <path class="st9" d="M90.25,48.28l-.06.05s-.12-.05-.09-.14c.01-.02.05-.02.07,0,.02,0,.05.08.07.09h0Z"/>
  <path class="st52" d="M25.71,50.08l-2.69,2.33c-1,.87-1.93,1.76-2.87,2.65-.32.47-.71.89-1.17,1.27-.43.41-.6.94-.52,1.52l-.11.14c.12,3.11-.03,6.06-2.43,8.38-.17.17-.35.27-.58.17.35-.25.53-.58.75-.91.47-.69.9-1.4,1.24-2.16.43-.96.48-1.96.18-2.89-.24-.74-.58-1.43-1.12-2.07-.26-.31-.24-.68.05-.99.93-.99,1.92-1.9,2.98-2.77l2.83-2.32c1.07-.88,2.24-1.64,3.41-2.39.09-.06.11-.04.05.05h0Z"/>
  <path d="M16.56,70.81c.04.14.02.18-.07.12-.61-.99-1.47-1.83-2.42-2.54-.38-.29-.47-.71-.27-1.13.3-.63.7-1.19,1.08-1.78.06-.1.07-.23.19-.24l-.65,1.71c-.09.22-.27.43-.2.69.12.46,1.22.79,1.89,2.2.16.34.37.65.46.99v-.02Z"/>
  <path class="st31" d="M16.49,71.01v-.08s.05-.08.07-.12c.03.13.13.21.3.18-.03.11-.11.14-.2.11-.05-.02-.11-.05-.17-.09Z"/>
  <path class="st52" d="M79.45,52.47l2.37,1.95c1.18.97,2.29,1.97,3.34,3.06.3.32.31.67.06,1-.46.61-.88,1.24-1.1,1.96-.65,1.96.3,3.54,1.36,5.14.23.35.44.69.76.96-.13.02-.3.05-.39-.03-2.29-2.03-2.73-4.91-2.63-7.8l-.11-.39c.15-.78,0-1.44-.47-1.97-.48-.44-.92-.91-1.32-1.42-.87-.91-1.78-1.69-2.72-2.52l-2.87-2.53c1.31.82,2.56,1.64,3.71,2.59h.01Z"/>
  <path d="M85.21,70.75c-.04.08-.17.13-.17.24-.03.06-.06.06-.07,0,.36-1.17,1.11-2.19,2.12-2.9.56-.4.05-.73-.18-1.72-.09-.38-.31-.7-.38-1.06,0-.1.09-.06.06.04l.56.82c.19.27.35.53.52.8.76,1.25-.91,1.49-1.9,2.96-.2.29-.43.53-.56.82Z"/>
  <path class="st32" d="M43.48,7.37l.12.07c0,.36,0,.71-.02,1.06.32.33,2.49,1.16,3.05,1.27.42.09.89.13,1.25-.14l.14.03s.06-.05.11-.05c.13,0,.69.34.85.44.19.16.43.36.55.27.4.16.83.08,1.24.11.59.04,1.05-.03,1.59-.21.25-.17.48-.35.7-.55.1-.2.24-.29.34-.05.08-.07.14-.08.23,0h.14c.29.31.76.25,1.15.18.99-.18,2.29-.78,3.11-1.33.06-.32.08-.65.04-1l.13-.06s.03-.05.05-.07c.08-.07.92.47,1.03.58-.04-.05,0-.04.1,0,.1.1.21.18.21.34,0,.14-.04.27-.16.37l-.33.25-.13-.02c-1.63,1.09-3.52,1.69-5.4,2.17-.39.2-.79.35-1.2.46-.19-.02-.19,0,0,.05-.92.55-2.18.53-3.11,0l.04-.04c-.39-.09-.76-.24-1.12-.46-1.88-.52-3.83-1.1-5.51-2.18-.03,0-.08,0-.13.02-.1-.09-.26-.2-.35-.29-.27-.26-.08-.43.05-.62.34-.27.71-.49,1.12-.66l.15.06h-.03Z"/>
  <path d="M49.23,11.52c-1.71-.19-1.2.1-2.52.66-.22.09-.36.3-.61.34-.11.02-.22-.1-.33-.06-.25.08-.5.04-.65-.2-.37-.57-.84-1.09-1.15-1.69-.26-.5-.58-.89-1.07-1.19-.22-.13-.38-.35-.62-.41l.33.08c.06-.1-.06-.14-.1-.17,0-.04-.02-.05,0-.07.03-.04.12-.08.19-.04,1.55.93,3.21,1.54,4.96,1.99,1.44.37.7.47,1.75.71-.04.09-.12.08-.18.05Z"/>
  <path d="M59.07,8.87s-.06.05-.04.08c0,.02.04.05.07.06l-1.02.81-1.71,2.34c-.19.25-.37.32-.66.35-.38.04-.6-.1-.91-.27l-1.37-.75c-.34-.07-.76.01-1.08.04-.04-.02-.11.02-.17-.05.78-.18.76-.45,1.79-.7,1.71-.41,3.46-1.05,4.93-2.02.06-.04.16,0,.18.03,0,.02.02.06,0,.09h-.02Z"/>
  <path d="M49.52,10.31s0,.08-.04.1c-.03.02-.09,0-.13-.02-.5-.34-.63-.25-1.04-.63-.06.05-.26-.03-.29-.1-.16,0-.32-.07-.47-.22-.61-.7-1.24-1.39-1.89-2.05-.69-.52-1.31-.43-2.01.04l-.16-.05c-.31.18-.69.27-1,.52-.08.07-.17.14-.26.08.29-.43.75-.66,1.19-.96.47-.33.88-.69,1.41-.93.12-.05.15-.22.31-.19.1.02.17.12.28.17.7.31,1.29.73,1.79,1.33.59.71,1.11,1.43,1.62,2.19.32.47.13.46.7.73h0Z"/>
  <path d="M59.36,7.91s-.06.07-.1.08c.02,0-.93-.53-1.08-.6l-.04.07c-.48-.19-.99-.35-1.51-.48l-.09-.08c-.05.07-.13.12-.21.08,0,.11-.08.2-.24.25-.86.71-1.64,1.51-2.34,2.4l-.13-.04-.39.26.06-.37c-.21.46-.57.59-.94.71.66-.9,1.27-1.82,2-2.69.56-.66,1.2-1.13,1.98-1.48.09-.04.14-.15.25-.15.12,0,.13.13.22.18,1.11.52,1.03.8,1.78,1.22.31.17.54.41.78.64Z"/>
  <path d="M21.35,19.19c-.16,0-.34,0-.45-.19l.37-.12c.42-.13.62-1.52,1.23-2.38.43-.6.88-1.18,1.48-1.62l.98-.71c.16-.12.44-.07.54-.26.07.01.13-.03.21-.04-.32.32-1.38,1.12-1.54,1.48-.45,1.04.15,2.43-.66,2.8-.43.19-1.01.18-1.38.47-.2.15-.54.58-.79.58h.01Z"/>
  <path class="st75" d="M31.84,11.62c.03.06,0,.08-.06.06-.4-.2-.82-.22-1.25-.1-.94.26-1.88.45-2.8.77.38.33.74.47,1.02.85-.53.2-1.93-.25-2.37-.5-.25-.14-.37-.47-.6-.63.83.06,1.62.03,2.42-.2.63-.18,1.18-.48,1.76-.75.99-.46,1.19-.03,1.88.5Z"/>
  <path d="M19.91,18.07c-.03.22-.02.39-.24.48l-.11-.5c-.21-.98-.05-2,.1-3.01.16-1.09.82-2.1,1.82-2.58.32-.15.71-.05,1-.15-.46.19-.85.39-1.16.75-.58.5-.96,1.17-1.05,1.95l-.37,3.07h.01Z"/>
  <path class="st0" d="M18.82,21.34c.07.17.02.44.2.6-.03.06-.08.11-.12.12-.1-.33-.19-.63-.35-.93l-.96-1.79c-.49-.92-.86-1.62-.67-2.73.15-.88.62-1.62,1.15-2.32.12-.15.18-.31.33-.39-.43.81-1.16,1.73-1.24,2.76-.03.38,0,.8.15,1.16l1.51,3.51h0Z"/>
  <path class="st23" d="M31.78,11.69s.05-.03.06-.06c.11.08.19.14.25.25-.16.01-.22-.12-.3-.18h-.01Z"/>
  <path class="st0" d="M18.54,13.74c-.04-.14.08-.19.17-.25,0,.11-.11.17-.17.25Z"/>
  <path d="M76.09,13.91c.07.2.63.17.86.46.16.21.4.23.59.38.62.46,1.13,1.04,1.56,1.67.55.79.81,2.29,1.26,2.45l.3.11-.18.2c-.5.12-.87-.18-1.14-.59-.4-.22-.95-.26-1.38-.43-.73-.28-.14-1.62-.62-2.76-.07-.16-.25-.33-.37-.46l-1.04-1.03s.02-.05.05,0c0,0,.11,0,.11,0Z"/>
  <path d="M81.9,18.55c-.22-.1-.25-.31-.28-.51l-.34-2.77c-.12-.96-.6-1.69-1.28-2.34-.29-.28-.53-.51-.98-.63.39.09.85,0,1.23.17,1.03.49,1.59,1.58,1.67,2.69.08,1.11.15,2.22-.02,3.39Z"/>
  <path class="st75" d="M69.92,11.63c-.11.05-.12.04-.06-.06,1.29-1.31,1.72-.22,3.52.3.79.23,1.59.26,2.4.21-.2.24-.33.5-.57.63-.42.22-1.84.7-2.34.48.27-.4.69-.53,1.01-.86l-2.88-.77c-.38-.1-.74-.06-1.08.07Z"/>
  <path class="st0" d="M82.75,21.34l1.29-2.96c.56-1.28.49-2.09-.23-3.33l-.63-1.08c-.02-.05,0-.07.05-.04.39.56.83,1.08,1.11,1.73.91,2.15-.36,3.34-1.26,5.3l-.5,1.09c.06-.28.09-.52.17-.71Z"/>
  <path class="st40" d="M83.24,13.94l-.05.04c-.17-.3-.45-.53-.6-.85.01-.03-.03-.06.01-.12l.64.93Z"/>
  <path class="st7" d="M75.98,13.92h-.05c-.06-.05-.23-.03-.25-.19.15,0,.25.09.3.19Z"/>
  <path class="st87" d="M69.92,11.63c-.1.04-.12.17-.25.1.05-.08.12-.13.2-.17,0,.03.03.05.06.06h0Z"/>
  <path class="st0" d="M84.37,71.33c-.35-.03-.2-.37-.32-.5-.22-.24-.45-.43-.56-.76-.13-.36-.02-.76.37-.9s.91-.15,1.27-.37c.27-.16.08-.6.1-.87.05-.03.4.92.31.86.05.03.09.03.26.01-.27.06-.31.21-.39.41-.22.5-.54.93-.83,1.38-.14.22-.25.42-.2.73h-.01Z"/>
  <path class="st32" d="M83.23,58.7c-.19-.27-.32-.59-.46-.92-.41-1.01-.91-1.93-1.45-2.85.65.69,1.98,1.52,1.95,2.53l-.04,1.25h0Z"/>
  <path class="st73" d="M84.96,70.98s.05.01.07,0c0,.06-.07.11-.11.11-.05,0-.18.05-.22-.07.09-.08.18-.04.26-.05h0Z"/>
  <path class="st0" d="M17.28,71.31c-.13-.05-.05-.21-.11-.29-.32-.49-.64-.95-.93-1.46s-.09-.6-.48-.75c.33.11.44-.73.52-.87.09.27-.1.71.17.88.58.36,1.82.04,1.64.98-.07.41-.36.68-.59,1.01-.09.13.03.41-.22.51h0Z"/>
  <path class="st32" d="M18.36,57.98c-.1-.89.07-1.31.72-1.91l1.08-1.02s.06,0,.05.03c0,.03-.02.07-.04.1-.83,1.26-1.09,2.2-1.75,3.49.01-.28-.04-.48-.06-.68h0Z"/>
  <path class="st85" d="M25.71,50.08l-.05-.05c.12-.08.18-.25.38-.26-.11.12-.22.22-.32.31h-.01Z"/>
  <path class="st0" d="M77.05,22.24c.05.02.05.04,0,.06-.22.06-.49.03-.72,0-.92.18-1.8.5-2.71.82-.81.29-1.5.66-2.13,1.26-1.3,1.23-2.4,2.59-3.42,4.06-.34.48-.74.88-1.03,1.36-.05-.02-.06-.07-.06-.12.4-.3.49-.85.77-1.27.54-.8,1.08-1.57,1.67-2.34.44-.57.91-1.07,1.42-1.58,1.53-1.54,2.29-1.63,4.33-2.18.63-.17,1.29-.22,1.88-.06h0Z"/>
  <path class="st42" d="M77.31,22.24c.11.08.24.06.29.17-.22.08-.37-.12-.55-.11v-.06c.11.03.19-.03.26,0Z"/>
  <path class="st68" d="M77.05,22.3c.18.09-.89.09-.72,0,.23-.04.49.02.72,0Z"/>
  <path d="M34.54,29.58v.1s0,.09,0,.12c-.2-.26-.38-.56-.61-.81l-.53-.57c-.91-.98-2.79-4.1-4.9-5-.76-.33-1.52-.59-2.3-.87-.32-.12-.65-.17-.95-.24-.24.03-.48.03-.72,0h-.12s-.05-.04,0-.06c.56-.12,1.14-.13,1.74,0,.89.2,1.77.4,2.62.74.77.31,1.4.85,1.97,1.43.5.5.96.98,1.38,1.54.54.72,1.04,1.44,1.55,2.19.32.48.44,1.1.87,1.43Z"/>
  <path class="st19" d="M25.25,22.31c-.21.08-.52.1-.72,0,.23,0,.49-.05.72,0Z"/>
  <path class="st44" d="M24.41,22.3c-.12.09-.28.16-.43.09l.38-.16s.04.01.05,0v.06h0Z"/>
  <path class="st80" d="M53.31,61.82c-.02.14-.14.2-.36.19-.37.45-.69.94-.94,1.47,2.08-.34,4.17-.41,6.24,0l.03-.08c.07-.16.42-.04.56.03.4.18.71.58.79.98v.13l-1.25.63c.73.47,1.42,1,2.05,1.6.18.11.36.2.53.27.36.04.28.98-.11.89-.14.03-1.19-.87-1.13-.83.34.27.67.54,1.01.82v.08l.07.16c-1.14,1.51-2.6,2.96-4.19,4.06-.05.03-.09.02-.13-.03.06-.13.78-.88.54-.97-.02,0-1.29,1.27-1.2,1.16l-.33.4-.72.66c-.58.54-1.38.8-2.06,1.24l-1.15.73c.39-.57.72-1.06,1.05-1.61.2-.34.45-.64.65-.98l.4-.67s-.04-.03-.07,0c-.07.1-.16.23-.27.32-.41.34-.67.76-.96,1.2l-1.56,2.3-1.03-1.54c-.31-.46-.63-.89-.94-1.35-.24-.34-.59-.58-.86-.86-.14-.18-.29-.33-.47-.44,0,.05-.04.08-.09.09-.3-.24-1.69-.49-1.97-.36-.02,0,.16.19.19.22.91.8,1.84,1.58,2.78,2.35.18.02.27.09.27.22.11.12.13.1.05-.05-.05-.01-.11-.04-.17-.09-.37-.73-.73-1.46-1.09-2.19l.08-.12.06-.03c.13.11.26.29.34.44l.57,1.06c.21.39.51.7.71,1.1.12.25.28.47.44.67.02.05,0,.06-.04.06-.85-.6-1.78-1.06-2.68-1.63-1.01-.64-1.03-1.06-1.38-1.33s-.7-.58-.97-.95c-.42-.1.25.71.34.86-.06,0-.11,0-.15-.02-1.55-.95-2.92-2.58-4.07-3.96l.1-.11-.03-.06.91-.77s-.87.78-.98.74c-.34.18-.52-.75-.15-.73.16-.18.37-.33.63-.46.61-.6,1.27-1.11,1.98-1.55l-1.21-.61-.02-.15c-.14-.14.05-.4.16-.54.13-.17.3-.27.49-.36s.57-.27.72-.13v.1c2.07-.42,4.18-.33,6.24,0-.26-.52-.57-1-.94-1.46-.2,0-.31-.07-.33-.19l.18-.16c.77-.11,1.6-.2,2.35-.07.6-.06,1.67-.13,2.24.07.09.03.16.09.22.16l.03-.02Z"/>
  <path class="st17" d="M59.78,64.44c-.08.14-.13.12-.13-.04l-.29-.49c-.2-.35-.7-.42-1.07-.52h-.21c-1.32-.95-2.86-1.45-4.51-1.45l-.26-.12c-.75-.16-1.53-.19-2.33-.16-.05,0-.09.07-.12.08-.05.02-.09-.09-.15-.09-.82,0-1.63,0-2.39.17l-.27.12c-1.63,0-3.18.48-4.48,1.44h-.22c-.71.25-1.09.27-1.37,1.03,0,.08-.04.17-.11.25l-1.11,2.35-.17.16c-.15.27-.11.57.15.73l.09.1c0,.09.05.15.11.23.44.55.91,1.03,1.4,1.54.81.86,1.65,1.69,2.61,2.31.05.08.17.12.19.23.02.05,0,.07-.06.06-.07-.03-.12-.1-.2-.16l-3.56-2.55c-.99-.71-1.38-2-.97-3.09.3-.81.83-1.47,1.32-2.16.21-.3.32-.66.6-.9,1.36-1.21,3.96-1.89,5.77-2.01.88-.06,1.73-.22,2.62-.23s1.66.17,2.5.22c1.9.12,4.57.82,6.03,2.05.28.24.41.6.58.9h0Z"/>
  <path class="st17" d="M56.49,72.18c.11-.04.19-.09.31-.17.92-.7,1.74-1.46,2.53-2.32.3-.33,1.42-1.41,1.41-1.7.05-.07.15.03.19.09s-.17-.09-.06-.16c.27-.29.28-.51.11-.89l-.08.02c-.4-.76-.77-1.54-1.12-2.34l.08-.12c.56.62,1.02,1.37,1.33,2.18.14.36.14.81.11,1.19-.05.7-.45,1.32-1.01,1.74-1.39,1.05-2.77,2.04-4.25,3,.1-.22.26-.44.45-.51h0Z"/>
  <path class="st51" d="M59.78,64.44l.08.15,1.12,2.44s.02.07-.02.14c-.21-.15-.46-.2-.65-.36-.52-.44-1.7-1.58-2.25-1.62l1.59-.79.13.04Z"/>
  <path class="st39" d="M47.97,72.19v.05l-.41-.41c-.11.05-.13,0-.05-.08-.03-.34.49.42.47.44h-.01Z"/>
  <path class="st82" d="M61.77,67.78c.06.31-.04.57-.16.83,0-.28.07-.54.16-.83Z"/>
  <path class="st82" d="M49.65,75.13s.02-.04.04-.06c.08.09.19.16.27.29-.19.03-.21-.17-.31-.24h0Z"/>
  <path class="st8" d="M53.67,72.14h-.07c.08-.12.17-.22.3-.32.04.2-.17.22-.23.32Z"/>
  <path class="st6" d="M39.8,67.81s-.14-.09-.1-.14.05-.12.09-.16c.04.1.02.15,0,.3h0Z"/>
  <path class="st5" d="M45.09,72.37s.04-.04.06-.06c0,.07.24.07.15.2-.11-.04-.15-.11-.21-.14Z"/>
  <path class="st12" d="M10.81,44.93c-.14-.26.53-1.33.71-1.56l.18,1.28c-.29.14-.53.23-.89.27h0Z"/>
  <path class="st35" d="M90.76,44.86c-.33.05-.61-.16-.92-.28l.16-1.14c.3.42.55.84.76,1.42Z"/>
  <path class="st29" d="M58.18,7.4c-.06.34.09.74-.05,1.09s-1.86.97-2.32,1.15c-.62.24-1.78.61-2.2-.03.18-.12,1.88-2.35,2.71-2.61.09-.02.14-.03.21-.08.12-.19,1.49.41,1.64.49h.01Z"/>
  <path class="st29" d="M48.02,9.65c-.7.7-2.2,0-3.04-.35-.52-.22-1.04-.38-1.49-.75v-1.18c.35-.2.73-.42,1.19-.49.16-.03.31.1.44.12.51.09.8.44,1.12.8l1.36,1.52c.1.11.37.22.42.34h0Z"/>
  <path class="st88" d="M47.2,11.26l-1.48.7-1.22-1.6c.88.39,1.72.66,2.7.91h0Z"/>
  <path class="st88" d="M55.95,11.94l-1.71-.7c1.04-.25,2-.58,2.96-1.05-.35.68-.82,1.14-1.25,1.75Z"/>
  <path class="st13" d="M56.54,6.91s-.02.1-.05.14c-.05.05-.11-.05-.16-.05.06-.02.12-.14.21-.08h0Z"/>
  <path class="st12" d="M23.47,17.67l-1.11.43c.22-.77.58-1.44,1.13-2.02,0,0-.02,1.59-.02,1.59Z"/>
  <path class="st88" d="M79.07,18l-.99-.38c-.04-.45-.06-.86,0-1.34.48.5.79,1.08.99,1.72Z"/>
  <path class="st35" d="M84.22,70.45c-.09-.31-.2-.56-.22-.88.32-.19.64-.29.98-.35,0,0-.76,1.23-.76,1.23Z"/>
  <path class="st37" d="M17.56,69.56c0,.31-.09.54-.21.83l-.69-1.12c.3.03.54.2.9.29Z"/>
  <path class="st51" d="M53.85,69.73c-.25.05-5.64.15-6.29-.06.67-.75,1.32-1.43,1.82-2.25.23-.38.4-.76.68-1.14.49.1,1.01.11,1.5,0,.25.35.42.72.65,1.09.48.8,1.09,1.47,1.72,2.16.04.04.06.09.06.12,0,.05-.07.07-.14.09h0Z"/>
  <path class="st51" d="M48.33,61.82l.4.08c.16.19,1.14,1.53,1,1.65-.03.03-.12.05-.19.04-2.57-.37-3.79-.39-6.4.02.07-.09.14-.2.23-.25.59-.37,1.11-.76,1.76-1,1.04-.4,2.13-.58,3.21-.55h0Z"/>
  <path class="st51" d="M58.29,63.39l.23.24c-2.69-.44-3.87-.4-6.48-.03-.06,0-.12-.02-.15-.03-.17-.11.84-1.48,1-1.67.16.02.3-.06.41-.07,1.1-.03,2.17.16,3.17.54.68.25,1.22.68,1.81,1.03h0Z"/>
  <path d="M56.05,65.05c.77-.13,2.1-.52,2.59-1.14.2.82-2.12,1.4-2.66,1.47-.45.06-.93.27-1.38.29-2.52.1-5.11.11-7.67,0-.64-.03-1.24-.28-1.85-.37-.54-.08-2.28-.63-2.17-1.39.68.72,2.15,1.04,3.09,1.21,1.09.2,2.12.22,3.23.2l1.5-.02,3.18.04c.74,0,1.42-.18,2.14-.3h0Z"/>
  <path class="st51" d="M54.63,68.87c-.5-1.07-1.08-1.59-1.59-2.64,1.61.3,2.3-.21,3.73-.54l-.53.84c-.26.41-.43.87-.72,1.27-.27.37-.47.74-.89,1.07Z"/>
  <path class="st51" d="M48.59,66.24c-.52,1.03-1.11,1.56-1.59,2.63-.41-.28-.63-.7-.91-1.09s-.46-.81-.69-1.22l-.49-.85,1.7.49c.66.19,1.28.17,2,.04h-.02Z"/>
  <path class="st51" d="M47.51,71.75s.03.06.05.08l1.18,2.39c.09.1.05.14-.05.05-.06-.13-.23-.05-.34-.13-.96-.75-1.85-1.54-2.77-2.33-.14-.13-.27-.27-.31-.46.7.02,1.44,0,2.03.29l.2.1h.01Z"/>
  <path class="st51" d="M53.33,74.1c-.16.13-.35.14-.51.24.42-.87.8-1.68,1.26-2.51.05-.09.14-.17.24-.19.66-.13,1.3-.27,1.99-.29,0,.19-.15.33-.28.45-.89.78-1.75,1.54-2.7,2.29h0Z"/>
  <path class="st51" d="M41.99,64.4l1.62.82c-.25.02-.41.05-.58.17-.6.42-1.13.9-1.68,1.38-.22.19-.5.3-.75.4.03-.07.04-.18.08-.28l1.08-2.29c.06-.12.11-.18.22-.2h0Z"/>
  <path class="st27" d="M46.8,69.61c-.42-.28-.65-.6-.89-1.01-.36-.61-.78-1.17-1.17-1.76-.14-.2-.52-.53-.37-.61.02-.01.06,0,.1.04l1.58,1.96c.33.41.66.77.97,1.19.11.14.27.25.23.46-.2.02-.3-.18-.44-.27h-.01Z"/>
  <path class="st27" d="M56.16,67.8c-.26.42-1.32,1.99-1.81,2.09-.05-.11,0-.25.09-.34.46-.46.81-.97,1.23-1.47.51-.62.91-1.3,1.55-1.84-.31.59-.73,1.03-1.06,1.57h0Z"/>
  <path class="st27" d="M60.87,67.92l.11.2c-.13.04-.18-.08-.25-.13l-1.2-.9c-.14-.11-.25-.28-.41-.36-.4-.19-1.33-.85-1.49-1.23.45-.07,1.43.93,1.66,1.1.57.42,1.06.88,1.57,1.32h.01Z"/>
  <path class="st27" d="M40.84,67.99c-.1.08-.16.16-.26.13l.17-.22c.44-.38.82-.79,1.29-1.1s1.36-1.32,1.87-1.29c-.22.47-1.26,1.06-1.8,1.48l-1.27,1Z"/>
  <path class="st50" d="M53.66,68.77s.08.09.02.12l-1.07-1.4c-.09-.12-.82-.87-.61-1.07s.61.44.72.65l.94,1.71h0Z"/>
  <path class="st70" d="M48.04,68.71c-.09.09-.12.05-.06-.06l.82-1.46c.18-.31.38-.6.67-.81.04-.03.18.11.15.16l-1.57,2.18h0Z"/>
  <path class="st66" d="M53.68,68.9s0-.09-.02-.12c.11.06.17.19.18.34-.11-.04-.15-.13-.17-.21h0Z"/>
  <path class="st89" d="M48.04,68.71c-.09.12-.13.22-.24.31,0-.17.09-.28.18-.37,0,.03.04.05.06.06Z"/>
  <path class="st67" d="M48.69,74.28s.05-.02.05-.05c.04.08.15.12.19.24-.14.02-.2-.1-.24-.19Z"/>
</svg>