<?xml version="1.0" encoding="UTF-8"?>
<svg id="Layer_1" xmlns="http://www.w3.org/2000/svg" version="1.1" viewBox="0 0 102 86.88">
  <!-- Generator: Adobe Illustrator 30.1.0, SVG Export Plug-In . SVG Version: 2.1.1 Build 136)  -->
  <defs>
    <style>
      .st0 {
        fill: #092017;
      }

      .st1 {
        fill: #46a76c;
      }

      .st2 {
        fill: #226647;
      }

      .st3 {
        fill: #378b5c;
      }

      .st4 {
        fill: #3c9562;
      }

      .st5 {
        fill: #cacaca;
      }

      .st6 {
        fill: #8b8b8b;
      }

      .st7 {
        fill: #06140e;
      }

      .st8 {
        fill: #43a169;
      }

      .st9 {
        fill: #113e2e;
      }

      .st10 {
        fill: #2e7c54;
      }

      .st11 {
        fill: #072925;
      }

      .st12 {
        fill: #174f39;
      }

      .st13 {
        fill: #ab519b;
      }

      .st14 {
        fill: #767676;
      }

      .st15 {
        fill: #19563e;
      }

      .st16 {
        fill: #1a563d;
      }

      .st17 {
        fill: #429d65;
      }

      .st18 {
        fill: #253130;
      }

      .st19 {
        fill: #297445;
      }

      .st20 {
        fill: #1e563f;
      }

      .st21 {
        fill: #cecece;
      }

      .st22 {
        fill: #44a269;
      }

      .st23 {
        fill: #dd96c4;
      }

      .st24 {
        fill: #51bc79;
      }

      .st25 {
        fill: #1b563c;
      }

      .st26 {
        fill: #286544;
      }

      .st27 {
        fill: #429e66;
      }

      .st28 {
        fill: #19513a;
      }

      .st29 {
        fill: #1b553c;
      }

      .st30 {
        fill: #328549;
      }

      .st31 {
        fill: #49ac6f;
      }

      .st32 {
        fill: #1c5b40;
      }

      .st33 {
        fill: #1f1f1f;
      }

      .st34 {
        fill: #51bc78;
      }

      .st35 {
        fill: #091e16;
      }

      .st36 {
        fill: #acacac;
      }

      .st37 {
        fill: #071811;
      }

      .st38 {
        fill: #235134;
      }

      .st39 {
        fill: #3b9361;
      }

      .st40 {
        fill: #409e4f;
      }

      .st41 {
        fill: #328043;
      }

      .st42 {
        fill: #19553e;
      }

      .st43 {
        fill: #317f44;
      }

      .st44 {
        fill: #1e3b2f;
      }

      .st45 {
        fill: #41a050;
      }

      .st46 {
        fill: #bd6aaa;
      }

      .st47 {
        fill: #c985b3;
      }

      .st48 {
        fill: #0c281d;
      }

      .st49 {
        fill: #4aad6f;
      }

      .st50 {
        fill: #43a168;
      }

      .st51 {
        fill: #545454;
      }

      .st52 {
        fill: #303934;
      }

      .st53 {
        fill: #565656;
      }

      .st54 {
        fill: #c6c6c6;
      }

      .st55 {
        fill: #1c5b41;
      }

      .st56 {
        fill: #adadad;
      }

      .st57 {
        fill: #46a86d;
      }

      .st58 {
        fill: #fefefe;
      }

      .st59 {
        fill: #46a86c;
      }

      .st60 {
        fill: #4eb876;
      }

      .st61 {
        fill: #343434;
      }

      .st62 {
        fill: #4bb273;
      }

      .st63 {
        fill: #419f68;
      }

      .st64 {
        fill: #dc95c3;
      }

      .st65 {
        fill: #fdfdfd;
      }

      .st66 {
        fill: #072824;
      }
    </style>
  </defs>
  <path d="M74.96,5.32c-.19-.03-.4-.03-.59,0-.05,0-.05.02,0,.08l2.63,1.22,3.56.2,3.49.24c.33.02,1.48.25,1.55.6s-.28.55-.65.59c-.57.07-1.12.07-1.71.08-3.61.07-4.31.29-7.7,1.08-1.2.28-2.34.65-3.47,1.14-.51.23-1.02.37-1.52.63-.87.45-1.65,1.04-2.38,1.7s-1.06,1.54-.78,2.49c.13.43.15.9.41,1.28l.87,1.28c.41.61,1.02,1.04,1.61,1.54l1.12-.81c-.73-.88-1.06-1.89-1.09-3.01-.02-.79.26-1.66.98-1.99l1.5-.68c.21-.1.41-.35.5-.57.08-.2.02-.44.19-.6.94-.82,1.72-.48,2.22-1.02.24-.26,1-1.19,1.3-1.11l2.22.59c.53.14,1.13.46,1.69.37l4.32-.64c.15-.02.28.04.33.12.17.29-.16.6-.47.75l-1.96.93.68.5c.79.58,1.68.97,2.5,1.53,1.02.69,1.89,1.51,2.78,2.37.11.11.17.21.12.32-.19.34-.57,0-.92-.12l-4.63-1.71c-1.26-.47-2.63-.33-3.82.1-.03.07.08.11.3.12.8.1.8-.24,2.24.64s2.66,1.82,3.8,2.96c.09.09.13.18.07.23s-.15.12-.25.08c-1.31-.5-2.61-.98-3.96-1.38-.33-.1-.58-.06-.92-.04-.8.05-1.59.04-2.39.21-.74.15-1.91.44-2.32,1.11-.13.21-.19.59.07.73.16.05.39-.06.56-.11.61-.17,1.24-.26,1.86-.08.73.21,1.36.55,2,.93,1.16.69,2.3,1.38,3.38,2.18.12.09.2.2.17.3-.04.14-.19.21-.33.16l-1.72-.56c-1.87-.62-4.45-.78-6.38-.29-.51.13-.94.45-1.07.98s.2.91.6,1.18c.44.3.78.7,1.26.94.63.32,1.23.63,1.84.99s1.16.61,1.8.84l2.2.8c.37.14.77.08,1.16.05l2.16-.18c1.28-.11,2.51-.02,3.78-.25.53-.1,1.03-.18,1.56-.22.46-.04.89-.07,1.33-.25.16-.06.33-.04.41.08.06.09.05.35-.07.45-.96.74-1.94,1.43-2.99,2.08-.65.4-1.32.67-1.99,1.03.04.14.07.26.13.4.9.07,2.12.63,2.88.63,1.67.01,3.29-.17,4.91-.54.1-.02.22.04.24.09.02.06-.02.18-.09.23-.56.44-1.14.81-1.77,1.16l-2.72,1.53c-.74.42-1.36.92-1.96,1.53s-1.41.87-2.18.49-.8-1.18-1.86-1.49l-1.87-.57c-.06.45-.17.92-.08,1.39.14.67.2,1.34.41,1.99s.45,1.36.86,1.94c1.96,2.76,3.75,3.75,6.37,5.69,1.09.8,2.02,1.85,1.24,3.25-.36.64-.81,1.2-1.26,1.78-1.13,1.47-2.01.86-2.51,1.51-.3.39-.77.61-1.27.54-.76-.1-1.5-.16-2.26-.32-1.03-.21-1.98-.61-2.99-.9l-1.82-.53c-.88-.26-1.74-.48-2.68-.58-.83.59-1.46,1.34-2.06,2.14s-1.03,1.73-1.3,2.74c-.15.55-.34,1.08-.29,1.67.06.74.21,1.46.37,2.2.2.07.36-.07.54-.08l.82-.02c.41.18.56.59.67,1,.16.13.34.22.54.29l.04.15s.07.06.13.05l-.06-.12.47-.53c-.67-.12-1.23-.39-1.71-.81l-.04-.09-.75-.58c-.51-.4-.95-1.06-.83-1.74.27-.4.69-.73,1.02-1.06.45-.45,1.04-.66,1.65-.73-.59-.46-1-1.11-.91-1.84.07-.58.47-1.03.85-1.44.12.02.17.11.26.14.7-.05,1.34.07,1.99.35.46.2,1.03.32,1.38.7.32.35,1.38,1.98,1.31,2.42-.33.55-.52.21-.75-.19-.2-.55-.46-1.08-.77-1.57-.59-.66-1.73-.96-2.57-1.15l-.18-.15c-.06.02-.12.06-.18.09l-.42-.08c-.67,1.07.22,1.86,1.07,2.42.36.4.78.75,1.26,1.03.11.15.17.28-.06.31l-.14.12-.62-.07c-1.22-.34-2.55-.37-3.51.6l-.15-.02c.11.15-.13.25-.26.23-.01.1.07.22.23.36l.22.02,1.52.99c.8.57,2.88,1.14,3.74.57.05-.03-.2-1.01-.3-1.15-.19.12-.47-.36-.3-.48l.1-.12c.65.47,1.29.98,1.91,1.53,1.16.86,2.81,1.88,4.16.89l.93-.38-.48-.73.02-.18-.2-.09c-.54-.88-1.54-1.35-2.52-1.54-.62-.05-1.2-.2-1.73-.45l-.55.38c-.67.21-.19-.45.06-.73.16-.18.29-.28.51-.38.56-.47,1.21-.82,1.92-1.07,1.18-.41,2.65-.7,3.84-.25.1.04.22.02.26.12s.02.22-.08.33c-.35.42-.97-.12-2.24.02-1.07.12-2.1.43-2.99.96l.03.09c.22,0,.43,0,.63.04.43.03.88,0,1.32.13.52.15,1.02.41,1.43.77.26.23.44.53.6.83l.91,1.61c.12.21.26.45.19.69-.16.13-.36-.08-.5-.07-.52.17-1.02.4-1.5.65-.3.16-.56.36-.89.38.07.08.14.07.1.14-.17-.08-.33-.12-.52-.11-1.14.03-1.83-.81-1.99-.92l-.98-.67c-.89.73-1.85,1.14-2.76,1.9.4.09.74.15,1.1.15.25,0,.48-.03.68.16l.96.89c.28.25.57.5.93.63l1.54.57c.17.06.3.19.34.31.05.19.02.39-.09.52l-.51.56c-.14.15-.09.39-.1.59l1.12-.17c1.23-.18,1.64.82,2.01.87l1.55.19c.31.04.56.15.75.4l.65.85c.85,1.12,1.45,1.25,2.63,1.83.53.26.82.76.84,1.38.02.74,0,1.48.07,2.23.03.31,0,.63-.05.94-.05.34-.28.59-.59.71-.94.36-1.52.27-2.14.98-.68.77-1.31.1-1.71.35l1.83.78c.79.34,1.65.44,2.48.64s0,1.12,1.31,2.58l.71.79c.48.54.5,1.3.06,1.88-.32.42-.66.8-1.03,1.18-.61.62-1.7.06-2.25-.13-.52-.18-1.08-.3-1.63-.34-.26.11-.46.42-.7.62.17.32.46.48.66.79s.02.71-.31.88c-.89.46-2.3.81-3.23.27-.66-.38-1.29-.78-1.87-1.26-.34-.28-.81-.86-1.53-.78-1.55.16-3.02.52-4.53.86-1.26.28-2.46-.44-3.04-1.52-.19-.36-.39-.65-.67-.9-.59-.53-.99-.15-1.77-.39-.51.63-1.17,1.06-1.79,1.55-.37.3-.7.5-1.14.69-1.17.48-2.85,1.49-3.79.15-.83-.26-2.72.21-3.71.37-1.12.18-2.23.23-3.36.31-.75.05-1.44-.06-2.16-.19-.6-.11-1.16-.17-1.74-.36-.5-.16-1.03-.19-1.56-.15-1.12.09-2.19-.05-3.3-.05s-2.22.15-3.36.05c-.49-.04-.99,0-1.45.14-.58.18-1.14.26-1.74.36-.74.13-1.45.25-2.21.19-1.1-.08-2.17-.13-3.26-.3-.58-.09-3.39-.69-3.67-.37-1.14,1.27-2.45.41-3.78-.14-.44-.18-.76-.38-1.13-.68-.56-.45-1.19-.82-1.65-1.41-.13-.16-.3-.14-.49-.12l-1.01.07c-.55.04-1.07,1.26-1.48,1.71-.63.71-1.65,1.2-2.63.99-1.53-.33-3.01-.7-4.57-.87-.74-.08-1.12.43-1.46.72-.6.5-1.25.91-1.92,1.3-.37.22-.86.3-1.29.29-.49,0-1.99-.31-2.16-.79-.06-.17,0-.41.11-.55l.62-.72c-.27-.29-.51-.54-.83-.8-.57.06-1.13.17-1.67.36-.5.18-1.71.68-2.17.23-.36-.36-.68-.74-1-1.14-.42-.53-.32-1.24.06-1.79.25-.36.57-.64.86-.99.9-1.07.67-1.88.85-2.21.12-.22.35-.36.6-.41.64-.13,1.24-.28,1.87-.46.82-.22.63-.2,1.34-.51l.85-.37c.36-.16-.44-.16-.89-.04-.35.09-.68-.06-.91-.32-.65-.74-1.24-.65-2.2-1.03-.76-.29-.45-1.62-.44-2.39l.02-1.43c0-.63.37-1.13.92-1.4l1.41-.7c.48-.24.83-.64,1.15-1.06l.65-.85c.55-.72,1.48-.5,2.47-.71.23-.05.66-.77,1.48-.85.43-.04.85.02,1.27.11.38.08.07-.48-.3-.78-.25-.21-.33-.51-.14-.79.12-.18.31-.29.52-.37l1.56-.59c.67-.25,1.63-1.58,2.15-1.62.41-.04.81,0,1.17-.13-.81-.61-1.61-1.1-2.43-1.62-.29-.18-.17-.37-.24-.37-.03,0-.81.52-.9.6-.6.57-1.31.95-2.15,1.03-.14,0-.43.12-.44.11l-.08-.1c.28.35-2.14-1.28-2.57-.94-.02.02-.14,0-.15-.03-.08-.24.12-.44.24-.64l.99-1.72c.32-.55.76-.92,1.33-1.2,1.17-.59,1.3-.34,2.5-.53-1.23-.7-3.2-1.32-4.58-.94-.16.05-.56.13-.65-.03-.18-.3.2-.49.44-.54.4-.08.74-.21,1.15-.21,1.4,0,3.34.47,4.42,1.45.44-.84.77-1.66,1.38-2.33.37-.4.95-.55,1.44-.75.55-.23,1.1-.4,1.69-.37.17,0,.3-.03.45-.13.37.27.75.68.84,1.18.14.81-.36,1.57-1.02,2.07-.16.07.01.03.09.05.65-.03,1.25.15,1.71.6.35.35.69.7.99,1.1s-.37,1.33-.79,1.65c-.98.73-1.36,1.09-2.57,1.46-.24.07.07.19.51.77.08.1,0-.03.34,0,.8.04.36-1.44,1.56-1.41.69.02.82.27.86,0l.28-1.62c.11-.66-.08-1.23-.26-1.84-.3-1.04-.71-1.97-1.34-2.85s-1.28-1.66-2.15-2.33c-.92.09-1.81.31-2.7.57l-1.78.51c-1.01.29-1.95.69-2.98.9-.79.17-1.57.23-2.37.33-.98.13-1.08-.7-1.63-.83-1.17-.28-1.38-.35-2.14-1.33-.44-.57-.87-1.12-1.17-1.77-.2-.43-.23-.87-.06-1.32.43-1.16,1.56-1.77,2.54-2.49s1.99-1.41,2.93-2.24,1.68-1.68,2.37-2.66c.77-1.1,1.02-2.72,1.24-3.99.09-.51-.04-1.03-.12-1.53l-1.95.59c-.77.24-.77.44-1.36,1.09-.78.85-1.96.76-2.71-.06-.54-.59-1.14-1.06-1.84-1.46l-2.63-1.51c-.67-.38-1.31-.77-1.89-1.28-.07-.06.03-.19.08-.23.05-.05.18-.09.29-.07,1.68.36,3.37.55,5.1.53.61,0,1.54-.44,2.45-.56.14-.02.29-.25.23-.37-.7-.39-1.45-.68-2.14-1.11-1.02-.64-1.99-1.3-2.94-2.04-.12-.3.29-.72.59-.61.49.17.94.24,1.45.27s1.04.13,1.56.22c1.27.23,2.5.14,3.78.25l2.04.17c.37.03.77.1,1.12-.03l2.88-1.07c.72-.27,1.31-.71,1.99-1.07.55-.29,1.11-.55,1.59-.94l.86-.7c.44-.36.34-1.01,0-1.41-.23-.28-.46-.43-.81-.53-1.97-.57-4.65-.34-6.59.29l-1.64.53c-.06.02-.11,0-.15-.02-.24-.1.33-.52.44-.6,1.1-.77,2.22-1.45,3.38-2.12.64-.37,1.28-.7,2.01-.87,1.07-.26,2.09.33,2.23.2.28-.27-.21-.94-.75-1.23-1.25-.66-2.76-.76-4.15-.78-.18,0-.36-.09-.55-.04-.52.12-1.01.29-1.5.47l-2.46.91c-.12.05-.28.09-.39.03-.11-.06-.04-.19.04-.26,1.18-1.1,3.76-3.18,5.27-3.58.28-.07.57,0,.83-.02.05-.1.22-.02.21-.02-.08,0-.18-.03-.15-.1-1.16-.43-2.55-.56-3.78-.11l-4.53,1.68c-.25.09-.83.45-.92.26-.02-.04-.03-.15.02-.2,1.88-1.89,2.68-2.44,4.95-3.78.39-.23.77-.43,1.07-.75l-2.13-1.01c-.12-.06-.29-.13-.3-.29-.02-.31.3-.62.64-.59,1.45.14,2.83.4,4.26.65.28.05.62-.11.89-.18l2.82-.78c.18-.05.32-.03.46.11.29.28.58.57.84.89.54.64,1.21.28,2.2.98.28.2.06.9.63,1.16l1.62.73c.44.2.77.67.86,1.17.23,1.34-.18,2.69-1.02,3.77.37.28.72.52,1.02.85.12.13.32.03.42-.07.42-.39.9-.68,1.24-1.15.98-1.36,1.21-1.43,1.42-3.28.03-.25-.08-.58-.17-.81-.17-.47-.5-.85-.87-1.18-.74-.65-1.51-1.23-2.39-1.68-.5-.26-1.01-.41-1.52-.63-.93-.4-1.86-.74-2.85-.99-3.54-.89-4.7-1.18-8.41-1.26-.39,0-1.94.02-2.07-.25-.3-.64,1.29-.98,1.74-1.01l3.6-.25c4.07-.29,2.35.32,6.22-1.52-2.15.04-4.15.1-6.26.04-1.13-.03-2.22-.04-3.33-.22-.16-.14.06-.53.29-.59,1.2-.32,2.39-.57,3.64-.72,2.92-.34,5.16-1.09,7.98-1.56,1.42-.24,2.78-.42,4.22-.58,2.92-.33,5.75-.86,8.6-1.6.81.08,2.75.73,3.47,1.04.78.33,1.27.98,1.35,1.82s-.12,1.66-.74,2.26c.14.23.29.41.49.6l2.32-.63c.12-.03.37-.11.45-.03.32.33-1.31,1.37-1.68,1.68-.43.36-.8.75-1.2,1.14-.85.82-1.85,1.35-3,1.62-.71.17-1.38.25-2.12.16-.3-.04-.68.3-.7.58-.05.75-.4.65-.42,1.01-.02.33.5.38.28.85-.15.31-.33.55-.53.87.2.09.42.28.67.23.36-.07.79-.19,1.05-.44.17-.37-.26-.79-.16-1.04.05-.13.17-.19.31-.27l3.4-1.82c.56-.3,1.08-.6,1.66-.84.24-.1.49.06.7.16.5.25,1.03.48,1.37.94.49.67.45,1.58.08,2.3-.27.52-.64.89-1.11,1.23-.34.25-.73.54-1.18.54-.14,0-.05-.25.03-.32.42-.37.76-.79.96-1.32.14-.36.1-.84-.2-.92-.39-.11-1.18.75-1.35,1.05-.31.56-.32,1.18-.52,1.78-.12.34-.4.79-.74.97-1.37.71-2.74,1.31-4.05,2.13-.47.29-.91.58-1.45.71-.39.09,0-.58-.85-1.06-.2-.11-.44-.09-.57.13-.09.16-.18.32-.23.51.16-.02.28,0,.42.05.12.04.09.25.18.33.41.37.56.83.82,1.29.45.8.66,1.61.42,2.55-.42,1.62-1.91,3.08-3.22,4.18.57.31,1.01.67,1.42,1.13l3.25,3.57,2.34,2.59c1.95,2.16,3.76,4.37,5.58,6.63.24.3.41.58.63.88.16.23.4.4.55.69.37-.32.56-.69.86-1.07,2.17-2.74,4.41-5.38,6.76-7.98l4.56-5.03c.46-.51.92-.91,1.5-1.3-.7-.55-1.33-1.1-1.91-1.75-1.32-1.47-1.88-2.88-.96-4.74.27-.54.42-1.05.85-1.51.15-.16.3-.43.53-.52,0-.32-.32-.72-.67-.68-.69.07-.59.88-.83,1.07-.27.21-1.34-.46-1.66-.65-1.3-.79-2.65-1.41-4.02-2.1-.27-.14-.52-.52-.61-.79-.21-.62-.23-1.27-.53-1.85-.24-.46-1.36-1.54-1.56-1.12-.31.65.55,1.69,1.04,2.12.08.07.05.18.02.23-.3.53-1.85-.64-2.3-1.42s-.46-1.76.11-2.47c.39-.49.96-.74,1.51-1.02.21-.1.45-.24.68-.13.81.39,1.56.83,2.36,1.25l2.62,1.39c.07.04.15.05.18.09.17.23-.4.83-.11,1.16.21.24,1.31.76,1.63.38l-.44-.72c-.31-.5.25-.7.23-.98,0-.08-.07-.24-.14-.3-.25-.23-.2-.41-.24-.7-.04-.32-.53-.73-.88-.7-1.9.15-3.75-.42-5.1-1.76-.39-.39-.75-.79-1.18-1.16s-1.73-1.17-1.62-1.51c.03-.08.14-.25.24-.22l2.65.69c.16-.12.26-.25.38-.43-.53-.45-.72-1.06-.75-1.73-.05-1.15.56-2.1,1.64-2.53.93-.38,1.9-.65,2.87-.94.41-.12.68-.04,1.08.06,2.67.7,5.37,1.14,8.12,1.47,1.46.17,2.84.34,4.28.59,2.6.45,5.02,1.2,7.6,1.51,1.35.16,2.65.39,3.94.78.14.04.12.29.07.36s-.14.21-.28.23c-2.17.29-6.13.23-8.37.19h.02Z"/>
  <path class="st64" d="M77.59,51.49c.89.14,1.81.44,2.58.97.87.6,1.06,2.94,1.69,2.09.01.02.03.04.04.07-.33.28-.58.71-.86,1.06.37,0,.54-.35.83-.46.17.07.39.22.61.26,1.25.23,1.83.22,2.91.92.42.27.69.65.93,1.03l-.16.12c-.61.03-1.21,0-1.8-.06-1.59-.42-3.18-.89-4.78-1.43.14.15.17.27.1.36.07.16.16.36.3.48.14.24.35.74.06.92s-2.22-.17-2.58-.34c-.84-.4-1.62-.84-2.42-1.32-.05-.03-.08-.07-.12-.12s-.07-.1-.1-.15c.53-.49,1.35-1.02,2.15-.89.34.05.75-.04,1.06.07.42.15.79.19,1.21.2l.1-.06c.27.15.62,0,.73-.27l-2.72-2.32c-.11-.16-.14-1.06-.01-1.12.05-.02.16,0,.22,0h.03Z"/>
  <path class="st65" d="M77.23,59.89c-.05.11-.1.09-.13-.05-1.23-.49-.31-.34-1.25-1.44l.05-.06c.56.43,1.25.65,1.98.82,0,0-.65.73-.65.73Z"/>
  <path class="st54" d="M83.29,54.86c-.28-.02-.56.03-.84-.02l.18-.11c-.07.16.7-.02.66.13Z"/>
  <path class="st5" d="M74.96,5.32c.09,0-.83,0-.6.08-.06-.03-.12-.06-.19-.12.29.01.55-.07.79.04Z"/>
  <path class="st51" d="M79.81,14.81c.06.12.23.02.3.12-.13-.02-.27.04-.41-.01-.04-.01-.01-.1.02-.11h.09Z"/>
  <path class="st56" d="M21.46,14.93l.06-.12c.06.02.11.08.19.1-.1.06-.18.02-.25.03h0Z"/>
  <path class="st42" d="M39.83,13.32l.32.26c.7.88,1.43,1.76,2.22,2.54l.03.13c-.64.36-1.24.77-1.8,1.25-.08.03-.13.07-.18.13-.11,0-.05-.15-.06-.25-.06-.58-.59-1.04-1.18-1.04-.13,0-.28.08-.38.1-.09,0-.15.03-.19.11-.41.25-.66,1.25-.95,1.44l-.96.65c-.28.19-.58.41-.88.56-.83.42-1.56.93-2.31,1.47-1.11.79-2.2,1.58-3.26,2.43-.28.23-.38.44-.48.78-.22.77-.55,1.48-.83,2.23-.19.53-.35,1.1-.15,1.64.09.25.29.46.42.71-.06-1.21-.42-1.16.09-2.46.33-.84.65-1.65.91-2.5,1.24-1.01,4.35-3.17,5.64-3.84l1.38-.72c.31-.16.72-.14,1.06-.17.19.41.35.77.57,1.14,1.71,2.8-1.75,5.2-3.25,7.19l.81-.54c.08.39.63.65,1.07,1.13l4.69,5.25,2.04,2.36,4.69,5.53c.42.49.93,1.05,1.26,1.61.1.17.12.52.49.51.5-.56.9-1.18,1.48-1.85l5.21-6.17,6.6-7.41c.32-.36.79-.6,1.06-1.01.32.22.59.43.85.64.04,0,.05-.03.03-.08-.35-.34-.61-.75-.94-1.13l-1.44-1.68c-.82-.96-1.82-2.86-1.16-4.11l.73-1.37c.34.04.71,0,1.01.16l1.39.73c1.29.67,4.58,2.92,5.78,3.92l.22.74.8,2.12c.31.82.03,1.21-.01,2.02.6-.8.62-1.49.26-2.44-.3-.78-.63-1.52-.86-2.32-.08-.26-.15-.43-.36-.6-.93-.77-1.87-1.48-2.86-2.18l-2.09-1.46c0-.13.16.01.15,0-.28-.09-.68-.39-.81-.65-.16-.08-.43-.27-.5-.43-.11,0-.14.01-.1.06.2.03.47.25.55.43.14.06.33.2.28.35-.27-.04-1.25-.74-1.48-.96-.17-.17-.49-.18-.64-.38-.43-.56-.5-1.22-.98-1.49-.14-.08-.18-.48-.18-.65,0-.34.2-.6.56-.56,1.03,1.15,2.11,2.26,3.23,3.32-.05-.37-.14-.74-.27-1.1-.04-.76.65-.88.92-.18l.47.73c.09.12.15.25.2.39,0,.01-.12-.2,0-.2l1.77,1.39c.33.26.8.12,1.15-.02.4-.16.8-.27,1.11-.56.78-.75-.75-.92-.87-3.4-.02-.36.05-.63.19-.91.26.51.77.8,1.35.61.29-.18.59-.27.89-.27.36-.22,1.9-1.17,2.17-.59.06.14-.03.3-.12.41-.77.58-1.48,1.22-2.18,1.89-.18.17-.26.32-.14.55.56.31.67.63.33.98l-.59,1.88c.05.35,0,.71-.15,1.07l-.04.39c.15.66.31,1.32.5,1.97l2.41,2.78c.02.28.05.55.07.84l.1.28c.1.1.15.2.13.3-.26.02-.51-.07-.8-.17,0,.08.07.1.06.14-.02.07-.13.11-.15.15-.18.35-.76,1.46-.34,1.74.44.3.95.45,1.43.67.12.05.26-.02.3-.1s.04-.22-.01-.31c-.14-.22-.93-1.44-.58-1.53.04-.01.06.08.1.11.86.7.9,1.43,1.67,1.87-.07.12-.1.22-.03.35.41.36.71.77.91,1.24.08.36.09.73,0,1.11.17.41.08.61-.26.59-.81-.18-1.59-.17-2.35.03.57.4,1.14.82,1.57,1.38.02.02.02.06.02.1v.2c-.12.03-.27,0-.45-.09.35.34.73.67,1.14.98v.17s.07.11.03.14c-.19.19-.88.1-1.12.02-1.98-.7-3.93-1.79-4.73-3.84.54,2.03,2.61,3.35,4.52,3.99.7.23,1.35.32,2.05.4.09-.05.12-.02.18.05.46.54-.15,1.04-.73.82-1.39-.08-2.78-.21-4.16-.38-.27,0-.32.22-.27.46.39,1.88,2.28,2.92,4.11,2.67l.16.09s.02.11,0,.16c-.08.18-.9.3-1.11.25-.75-.11-1.48-.11-2.19,0,.47.49,1.03.9,1.67,1.24.35.31.44.44,0,.69-.35.11-.67.26-.96.45.9.6,2.16.54,3.19.28.16,0,.25,0,.21.17-.09.35-.99.95-1.33,1.15-.73.76-.2.8.53.62l4.62-1.4c.09,0,.15.05.19.13.11.6.38.97.81,1.11,1.3.09,2.59.23,3.86.43.7.1,1.59.32,1.93.97-.07.2-.25.33-.57.38-1.3.24-2.62.31-3.94.22-.81,0-1.78.05-2.11.92-.12.32.3.54.55.61.77.21,1.53.46,2.28.73.3.19.21.27-.06.2l-2.03-.6s-.03.04,0,.06l1.85.73c.98.39,1.94.61,3.04.67-.42.57-.51.6-1.32.49-.62-.08-1.23-.12-1.85-.26-1.03-.24-1.98-.6-2.98-.9-1.39-.42-2.75-.66-4.18-.88-.26-.04-.42-.25-.76-.08-.18.09-.5-.04-.73.03-.27.08-.51.18-.76.21-.01.04.01.07.06.07.19.03.37-.08.6.07l-1.86.88c-.73.33-1.45.69-2.14,1.09-.54.48-1.03,1.02-1.46,1.62-1.03,1.27-1.81,2.75-2.09,4.37-.14.99-.31,1.98-.52,2.96-.28.74-.64,1.44-1.08,2.09-.29.2-.62.09-.9-.05-.62-.39-1.58-.89-1.71.24-.11,1.02.24,1.73,1.26,2.04l1.58.25c.74.17,1.86.5,1.12,1.44-.49.33-.69.74-.61,1.22.16.66.38,1.3.66,1.93.04.51-.22.66-.69.73-1,.13-1.49-.36-1.74-1.25-.18-.32-1.22-.21-1.59-.17-1.06.13-1.76.43-2.38,1.27-.39.26-.45.23-.77-.08-.82-.3-1.86.13-1.43,1.13.29.48,1.16,1.94.29,2.24-1.13.22-2.33.55-3.38,1.04-.42.2-1.39.95-.9,1.42.74.52,1.57.92,2.49,1.19.7.41.38.96-.14,1.33-1.25.9-2.68.75-3.59-.57-.13-.14-.57-.56-.76-.41-.29.23-1.36,1.29-1.35,1.59,0,.08.03.15.09.2l1.13,1.14c.1.15.15.32.13.5-.04.39-.75,1.17-1.03,1.39-.13.1-.62.08-.79.04l-.96-.02h-1.26l-1.76.04-.28-.13c-.71-.68-1.45-1.4-.5-2.19.34-.28.64-.59.88-.92-.14-.54-.86-1.3-1.31-1.64-.22-.16-.62.21-.77.37-.91,1.35-2.41,1.49-3.66.55-.5-.37-.75-.87-.11-1.28.82-.26,1.59-.6,2.32-1.03.69-.34.11-1.12-.33-1.39-1.06-.65-2.56-.98-3.78-1.25-.51-.3-.35-.93-.15-1.37.56-.78,1.08-1.96-.36-2.09-.19-.02-.4,0-.58.09-.28.31-.55.34-.8.09-.87-1.25-2.47-1.43-3.91-1.23-.26.94-.8,1.6-1.86,1.38-.42-.08-.68-.28-.62-.74.4-.77.63-1.56.68-2.37l-.04-.13c-.77-.77-1.44-1.48.06-1.95.67-.15,1.35-.28,2.03-.37,1.34-.02,1.99-2.97.38-2.69-.45.29-.93.48-1.41.57-.32-.07-.53-.3-.62-.7-.59-.79-.85-1.71-1.02-2.68-.09-.7-.2-1.4-.32-2.09-.14-1.73-1.18-3.24-2.33-4.54-.79-.95-1.78-1.68-2.94-2.11l-2.17-1.05c.26-.07.5.07.73-.05l-.93-.24c-.26-.07-.56,0-.81-.08-.27-.1-.41.13-.62.16-1.38.19-2.68.46-4.02.85-1.03.3-1.98.69-3.03.91-.8.17-1.6.25-2.42.31-.35.03-.59-.28-.75-.53.92-.07,1.72-.22,2.53-.53l2.3-.88c.12-.05.1-.07-.06-.06-.7.19-1.38.46-2.1.6l.11-.18c.67-.31,1.37-.55,2.09-.71.29-.09.79-.29.66-.67-.29-.84-1.36-.93-2.12-.91-1.15.04-2.25.07-3.4-.11-.22-.03-.96-.17-1.08-.32-.04-.05-.04-.11-.04-.17.21-.41.84-.75,1.3-.85,1.41-.32,2.86-.45,4.3-.55.48-.1.8-.44.97-1.04l.2-.07,4.64,1.38c.53.1,1.12-.32.72-.8-.27-.07-1.48-.81-1.2-1.12.02-.02.06-.04.1-.04.98.18,2.14.23,2.99-.36-.37-.2-.75-.38-1.15-.54-.24-.25-.04-.42.19-.59.65-.33,1.21-.74,1.68-1.24-.72-.11-1.45-.11-2.18,0-.3,0-.84,0-1.08-.21-.06-.05-.09-.09-.07-.19l.18-.09c1.93.14,3.55-.9,4.04-2.8.06-.24.09-.45-.18-.33-1.56.2-3.12.33-4.68.41-.45-.09-.63-.89-.13-.98,2.56.07,5.9-1.71,6.66-4.35-.76,2.01-2.92,3.39-4.92,3.92-.25.07-.74.11-.94-.08-.1-.1-.09-.13,0-.24.09-.25.28-.46.56-.61.74-.47.81-.55.2-.25l-.12-.07c.01-.26.16-.5.43-.71l1.23-.98c-.79-.2-1.61-.21-2.46-.03-.25-.04-.3-.23-.15-.57-.11-.49-.07-.96.1-1.4.25-.35.53-.68.84-.98l.03-.15c-.07-.1-.11-.2-.09-.3.63-.45.9-1.36,1.62-1.8.06-.04.16.08.19.12.21.29-.77,1.45-.7,1.69.06.23,1.45-.45,1.69-.65.51-.42-.02-1.53-.37-2.01-.16.13-.39.14-.63.19-.33.07-.51.38-.74.58-.31.27-.59.52-.82.86-.25.35-.6.57-1.03.66-1.12.23-1.66.9-2.6,1.3-.36.15-.66.33-.93.63-.38.42-.98.69-1.55.5-1.02-.32-1.72-1.16-2.81-1.68l-2.46-1.19c-.8-.39-1.54-.82-2.27-1.37.08-.15.19-.03.26-.02.39.12.8.22,1.23.32l3.8,1.36c.83.21,1.73.33,2.59.24.84-.2,1.69-.39,2.54-.57.57.06,1.14.11,1.71.15,1.67-.54,2.88-2,3.31-3.66l2.38-2.76c.49-.77.6-1.66.23-2.51l.05-.31-.62-2.1c-.22-.33-.08-.64.42-.93.04-.14-.03-.29-.2-.46-.7-.72-1.45-1.38-2.24-1.99-.18-.87,1.08-.56,1.54-.26.87.68,1.71,1.21,2.61.23h.15c.11.27.21.5.21.84,0,2.1-1.16,2.57-1.07,3.17.07.47,1.13.67,1.47.79s.65.15.95-.08c.6-.46,1.45-1.12,1.93-1.66.1.09.1.23,0,.42.23-.46.51-.88.83-1.27.99-.7.64.49.46,1.02-.02.24-.07.47-.15.68,1.21-1.05,2.31-2.23,3.36-3.44.37-.21.59.08.51.45.69-1.04.32-2.14-.75-2.72-.08-.1-.07-.12-.05-.24s.61-.94.72-.91c.04.01.07.04.11.07.09.08.92,1.13.93,1.2,0,.06.02.12,0,.19h0Z"/>
  <path class="st11" d="M68.71,81.18c-.52.18-1.17.48-1.56.72-.71.29-1.42.65-2.22.76l-3.17.45c-.38.05-.77-.08-1.14,0-.34.08-.66.16-1.03.11-.74-.11-1.46-.12-2.21-.13-.89,0-1.33-.62-3.25-.57l-1.55.04c-.06,0-.12-.02-.12-.06h.6c.33-.35.63-.7.93-1.06.25-.31.24-.65-.04-.93l-.99-.97c-.17-.16-.18-.37-.04-.57.36-.52.79-.98,1.27-1.4.39-.34,1.07.53,1.31.81.54.62,1.31.84,2.09.61.53-.16,1.64-.67,1.44-1.28-.04-.12-.17-.25-.33-.31l-1.42-.54c-.34-.13-1.54-.71-1.23-1.22.2-.33.43-.68.77-.89.61-.36,1.28-.51,1.93-.77.58-.24,1.17-.3,1.77-.44.36-.09.31-.76.2-1.02-.23-.55-.96-1.37-.6-1.91s1.16-.71,1.68-.41c.14.08.17.23.3.23.4-.01.63-.77,1.37-1.09.89-.38,1.87-.47,2.81-.36.46.05.3.84.84,1.21.38.26.93.28,1.34.14.93-.33-.45-1.31-.38-2.93.02-.39.61-.65.83-1.08.32-.64-.88-.95-1.29-1.01l-1.4-.22c-1.1-.17-1.68-1.21-1.47-2.2.06-.29.11-.55.37-.69.62-.34.97.18,1.73.46.17.06.35.09.52,0,.13-.07.21-.25.27-.44.15-.45.54-.46,1.08-2.57.16-.63.14-1.48.36-1.98.02.19,0,.39-.08.6l-.62,4.56c.66-3.14.76-5.53,2.65-8.3,1.14-1.67,2.87-2.76,4.54-3.79.04-.03.06-.12.1-.06.01.02.05.04.06.06,0,.04-.08.03-.1.05-.92,1.01-1.69,1.96-1.99,3.34-.16.72-.25,1.42-.17,2.16.12.99.31,1.95.54,2.9l1.16,2.75c.25.58.24,1.21.28,1.84l.08,1.24.16,4.99c.06,1.92-.35,4.4-1.19,6.14-.27.55-.6,1.02-.93,1.53-.48.75-1.08,1.42-1.87,1.85l-2.99,1.64h0Z"/>
  <path class="st11" d="M32.38,57.37c.34.83.25,1.8.56,2.75.17.52.29,1.05.59,1.51.17.25.35.47.43.77s.39.38.66.29c.78-.26,1.14-.79,1.74-.51.29.13.36.4.42.71.2,1.03-.37,2.04-1.49,2.22l-1.39.22c-.41.06-1.65.39-1.26,1.05.23.39.79.67.81,1.03.08,1.29-.86,2.28-.68,2.68.23.5,1.63.55,1.98-.3l.3-.74c1.01-.18,2.06-.08,3.01.31.73.3.95,1.04,1.37,1.09.14.02.16-.14.3-.22.52-.31,1.36-.13,1.69.41s-.39,1.34-.62,1.91c-.11.26-.15.92.21,1.01.56.14,1.11.18,1.67.4.68.27,1.39.44,2.03.8.32.18.53.52.74.81.45.62-.94,1.22-1.37,1.38l-1.26.48c-.15.06-.25.16-.3.27-.25.62.89,1.15,1.43,1.31.8.24,1.57.02,2.12-.62.3-.34.92-1.15,1.35-.75s.87.86,1.21,1.36c.14.21.12.41-.05.58-.33.33-.69.63-.99.97-.26.28-.27.61-.04.91.31.39.64.74.96,1.09h-.83c-2.21,0-2.37.56-3.28.57-.77,0-1.51.03-2.27.13-.35.05-.66-.02-.97-.11s-.67.06-1,.01c-2.46-.35-3.81-.32-6.12-1.46-.1-.13-.32-.2-.49-.24-1.04-.51-2.05-1.09-3.11-1.64-.83-.43-1.54-.99-2.09-1.76-1.5-2.1-2.06-3.44-2.4-6.05l-.14-1.06c.03-.27.04-.57,0-.84l.03-1.07.11-3.51.12-2.31c.03-.53.06-1.02.27-1.51l1.16-2.78c.34-.8.35-1.69.5-2.54s.03-1.7-.14-2.55c-.21-1.04-.78-1.87-1.49-2.68,1.51.88,3.13,2.17,4.09,3.58.74,1.07,1.28,2.22,1.69,3.47.5,1.52.67,3.11.95,4.65.1-.06.06-.11.05-.2l-.19-1.37c-.15-1.07-.41-2.1-.5-3.16l-.06-.73-.02-.02Z"/>
  <path class="st45" d="M78.31,65.31c-.04.1-.08.24-.04.36.03.09.2.09.25.17.68.45,1.43.79,2.2,1.09,1.1.83,2.54,1.51,3.89,1.77.75.14,1.01.11.58-.7-.24-.81.3-1.4,1.03-1.66.04-.12.05-.26.02-.42l.11-.08,1.57.16c.2.02.39.06.52.22l.65.85c.39.5.8,1.01,1.37,1.3l1,.52c-.07.15-.21.26-.41.32-.38.22-.74.49-1.07.79-1.44-.27-2.89-.16-4.33-.04l-2.35.05c-.28-.04-.53-.16-.77-.37-1.13-.47-2.24-1.03-3.3-1.68v.06c.96.8,1.85,1.65,2.69,2.55.42.36.91.54,1.47.38,1.48.04,2.96.1,4.45.18.65.06,1.29.18,1.91.37.93.63,1.89,0,2.63-.66l.17.02c-.01.6.12,1.2.07,1.81l-.18.2c-1.18.37-2.39.68-3.59.96-.2.05-.39.03-.59-.04-.91-.56-1.66-.83-2.76-.61-.91.07-1.82.03-2.66-.38l-2.99-1.43c.06.24.19.47.38.68l-.04.15c-.13.1-.22.22-.24.39.02.13-.06.26-.23.4-.31.48-.68.89-1.1,1.22l-1.08.44c-.4.28-.32.94-.2,1.36.07.24.48,1.13.66,1.23.02.01.43-.11.51-.13.63-.35,1.28-.54,1.94-.56l1.5.27c1.07,0,2.13-.02,3.2-.06,1.03-.37,2.03-.81,3-1.32l.13.07c.2.24,1.49.81,1.77.9l1.47.44v.17c-.48.35-.93.73-1.36,1.12l-1.71.07c-2.9.33-5.79.72-8.66,1.15-.87.12-1.73.29-2.57.57-.67.23-.41.87.27.82,1.26-.1,2.48-.25,3.73-.5,2.21-.32,4.45-.57,6.67-.76.64-.06,1.33-.1,1.98-.05.84.49,1.67-.27,2.12-.95l.68-1.11.19-.05c.18,1.94,1.38,2.49,1.71,3.25.16.35.14.75-.15,1.02s-.5.61-.84.84c-.16.11-.59.1-.77,0-.65-.34-1.3-.53-1.96-.8-.24-.1-.4-.27-.7-.32-.37-.06-.75-.3-1.14-.25-.27.03-.51.07-.79.05-.58-.05-1.15.05-1.73.11-.08,0-.1.08-.13.11l.04.13-.5.34c-.48.66-1,.91-1.82.62-.31-.03-.61-.07-.96-.02-1.57.22-3.09.52-4.6.97-2.36-.11-1.96-2.37-3.64-2.89-.38-.12-.77,0-1.16-.06-.25-.03-.52-.08-.72.06-.15.06-1.31-.11-1.36-.16l-.02-.14c.87-.49,1.74-.99,2.36-1.84.48-.66.95-1.32,1.33-2.06.95-1.84,1.34-4.28,1.27-6.36l-.13-3.83c-.02-.16-.04-.47-.01-.64,0-.02.05-.02.1-.03.59.25,1.11.03,1.64-.23l.13.07v.04Z"/>
  <path class="st40" d="M25.08,65.65l-.16,5.21c-.03,1.01.12,1.97.32,2.95.39,1.93,1.05,3.13,2.22,4.68.43.57.99.99,1.58,1.35l.63.38s.05.13.02.14c-.26.13-.82.21-1.09.1-.21-.06-.4-.04-.66,0-.36.05-.74-.06-1.09.05-.6.19-1.08.65-1.4,1.17l-.45.73c-.34.56-1.11,1.12-1.85.95-1.47-.33-4.15-1.08-5.52-.91-.75.29-1.48.1-1.95-.58l-.46-.34-.05-.17c.02-.21-1.59-.24-1.79-.22-.26.02-.48-.03-.73-.06-.37-.04-.73.21-1.07.26-.31.05-.5.21-.76.32-.67.27-1.32.48-1.98.81-.19.09-.58.1-.74-.02-.39-.3-.68-.67-1.01-1.02-.66-.71.15-1.41.59-1.92.51-.58.79-1.26.95-1.98l.15.03.53,1.06c.44.79.82,1.28,1.79.84,3.6.01,7.25.57,10.8,1.15.53.12,2.75.45,2.85-.45,0-.05-.01-.1-.04-.14-.07-.09-.33-.19-.45-.23-.3-.1-.62-.17-.93-.23-2.36-.37-4.8-.75-7.24-1.07-1.42-.18-2.83-.29-4.25-.33-.41-.53-.93-.95-1.56-1.27v-.15c.76-.17,2.3-.78,2.94-1.26l.04-.07c.94.42,1.9.85,2.87,1.3l.3.07,3.19.06c.61-.12,1.22-.21,1.84-.28.58.13,1.14.33,1.69.6.06.03.4.09.42.07.37-.36.61-.96.72-1.45l.14-.11c.04-.14.04-.28,0-.42-.11-.06-.18-.18-.22-.37-.3-.29-.68-.49-1.17-.61-.5-.34-.92-.79-1.26-1.34-.16-.12-.24-.25-.24-.39.01-.13,0-.27-.08-.37-.05-.02-.11-.07-.1-.1.16-.21.28-.43.37-.66-1.23.62-2.49,1.19-3.79,1.7-.92.13-1.85.15-2.81.04-.61.03-1.19.24-1.74.63l-.38.09c-1.13-.25-2.25-.52-3.38-.82l-.65-.25-.07-.18c-.05-.4.05-.8.05-1.2l.17-.02c.6.47,1.39.48,2.01.05,1.64-.28,3.33-.45,5.02-.42.68-.08,1.36-.12,2.03-.03.45.03.85-.18,1.2-.46.95-.89,1.96-1.75,2.99-2.56-1.17.7-2.35,1.37-3.54,2l-.24.06c-1.44-.07-2.9-.14-4.38-.22-.74,0-1.48.06-2.22.18-.14-.33-.35-.59-.63-.77l-.84-.46-.02-.17c1.54-.76,2.02-2,2.58-2.47.32-.27,1.74-.18,2.1-.35l.13-.04c0,.21,0,.41.03.61.75.27,1.27.86,1.02,1.68-.47.83-.09.8.61.67,1.34-.25,2.77-.94,3.85-1.76.81-.28,1.55-.67,2.21-1.16.08-.04.11-.12.17-.18.02-.2.08-.31.17-.36.5.24,1.01.47,1.56.26.11-.04.16.02.15.16h-.01Z"/>
  <path class="st24" d="M40.47,1.07c.28-.06.47.1.57.49.77-.14,1.54-.29,2.32-.46l.42.04c.63.14,1.26.35,1.86.6.16.09.09.18-.07.23l-3.96.86c.4.12.75.31,1.04.57,1.22-.07,2.44-.04,3.66,0,.07,0,.13.02.2.05s.14.05.2.08c-.07,1.49-.86,1.06-.72,2.02l-.07.11-2.76-.34c-.29.49-.66.91-1.12,1.25.89.66,1.76,1.34,2.61,2.04l-.1.11c-.45.13-.92.24-1.38.25l-.25-.1c-.52-.51-1.06-1.03-1.66-1.44l-1.31,2.78c-.14.26-.3.51-.48.74l1.03,1.16-.03.14c-.12.21-.2.43-.44.6-.12.08-.15.25-.16.37.14.13.1.19-.05.07-.33-.46-.75-.85-1.07-1.39l-.62.94c.24.16.43.29.63.47.87.8.67,1.97-.05,2.78-.05-.25.17-.71-.08-.79-.06-.02-.19,0-.26.09-1.09,1.3-2.27,2.49-3.56,3.63-.09-.26.13-.39.14-.59.04-.75.44-1.35.24-1.5-.44-.34-1.31,1.59-1.54,1.88-.02-.37.1-.66.17-.96.89-.99.83-2.12.92-3.34.04-.48,0-.85-.23-1.27-.16-.28-.3-.56-.56-.81-.79-.77-1.66-1.47-2.66-1.99-.6-.31-1.21-.51-1.82-.78-.9-.4-1.81-.69-2.77-.93-1.31-.33-2.59-.62-3.92-.87-.71-.13-1.41-.17-2.1-.2-.12-.02-.24-.04-.36-.05-.05-.02-.05-.04,0-.06l1.87-.1,8.32-.48,1.63-.08c.48,0,.95-.03,1.42-.09l.24-.12c.55-.16,1.05-.46,1.58-.72.06-.03.11-.03.13.01s0,.07,0,.11c-.1.25-.23.48-.39.7-.67.54-1.38,1.04-2.13,1.48-.75.45.17,1.72.88,1.36l.12.11c.03.24.25.42.5.48l1.75.41c.31.07.58.37.48.69-.12.37-.7,1.38-.4,1.74.14.16.45-.02.49-.2.05-.19.16-.28.3-.39.74-.57,1.49-1.12,2.12-1.82.31-.35.36-1.77-.16-2.21l.65-.91c.09-.12.18-.32.13-.47-.13-.44-.38-.83-.72-1.12l-.86-.71c-.41-.34-.91-.79-1.47-.83-.73-.06-1.45-.02-2.18.02l-2.99.14-2.06.11c-1.71.09-3.36.2-5.07.19l-3.39-.03c-.15-.08-.11-.15.11-.22l2.23-.33,3.45-.75c1.81-.39,3.56-.7,5.4-.96l4.36-.61c1.32-.19,2.56-.57,3.83-.86l-.02-.02Z"/>
  <path class="st24" d="M57.69,1.07l.46-.03,2.62.51c.17-.26.36-.38.59-.35,1.78.46,3.56.8,5.41,1.06l4.78.67c1.49.21,2.89.6,4.36.93,1.16.26,2.28.49,3.46.62.4.04.77.1,1.13.17.17.04.17.12,0,.16l-3.23.03c-1.73.02-3.4-.09-5.12-.18l-2.46-.13c-1.63-.09-3.21-.16-4.83-.17-.31,0-.55.21-.81.32-.36.15-.61.36-.85.66-.29.36-1.01.6-1.45,1.59-.31.69.38,1.02.7,1.69-.44.41-.45,1.48-.29,1.93.09.26.34.34.53.51.55.49,1.11.95,1.71,1.39.18.14.18.42.32.58.11.13.31.05.42,0,.03-.05.11.03.1.05,0,0-.07-.07-.05-.11.4-1.12-1.02-2.14-.08-2.36l1.6-.37c.33-.08.57-.24.71-.5l.11-.11c.6.22,1.04-.27,1.25-.77.09-.23.19-.49-.06-.66-.87-.52-1.69-1.11-2.45-1.75-.09-.12-.13-.22.01-.31.62.36,1.3.54,2.01.71.3.07.45.11.77.09.8-.04,1.62.03,2.45.08l5.37.32c.15,0,.37.1.47.16.32.18.53-.03.8-.05.87-.06,1.72.09,2.58.1.16,0,.31,0,.42.07.05.02.05.04,0,.06-.78.02-1.57.05-2.36.23l-3.76.85c-1.18.27-2.26.7-3.36,1.18-.46.2-.9.34-1.34.58-.9.48-1.64,1.12-2.42,1.72-.14.09-.29.16-.45.22-.01.16-.03.3-.13.44-.16.18-.22.49-.37.7-.24.34-.2.71-.18,1.1.03.89.08,1.76.37,2.57l-.39-.33c-.14-.12-.32.1-.39.2-.19.27.39,1.03.22,1.65-1.2-1.08-2.28-2.23-3.34-3.43-.09-.1-.26.06-.33.11-.23.19.04.76-.03.96-.1-.06-.26-.03-.36-.11-.33-.08-.4-.67-.4-.98,0-.61.53-1.7,1.08-1.98.03-.01.06,0,.08,0-.29-.3-.53-.65-.72-1.06l-.73.89h-.15s-.07,0-.05-.06c.03-.14,0-.31-.15-.39-.17-.09-.19-.25-.27-.38l.03-.18c.26-.28.53-.55.79-.82-.19-.17-.34-.38-.46-.65-.48-1.07-.98-2.13-1.5-3.18h-.06c-.56.49-1.13.97-1.71,1.42h-.23l-.84-.21-.03-.13,2.17-1.73c-.64-.41-1.01-.94-1.09-1.59l-2.74.33-.09-.11c.41-.92-.45-.63-.61-1.9.4-.15.83-.21,1.28-.19h3.33c.24-.2.51-.35.8-.45l-4.34-.94c-.2-.02-.29-.1-.28-.23.24-.11.47-.24.75-.33.46-.15.9-.3,1.35-.41h-.05Z"/>
  <path class="st24" d="M24.06,35.35l-.21.28c-.65.43-1.26.91-1.82,1.45-.29.28-.41.68-.51,1.06-.14.06-.27.15-.39.25-.17.41-.43.71-.76.9-.51.06-.84.28-1,.66l-.14.05c-.12.12-.17.18-.17.35.11.04.12.14.01.32-.03.16.11.18.24.15.39-.2.73-.5,1.03-.9.29-.22.56-.13.86-.03.66.35,1.35.62,2.06.8l.12.15c.84.62,1.85,0,3.28.26.68.13-.84,1.04-.95,1.11-.21.13-.9.48-.86.69.05.24,1.7.5,1.16.87-.72.49-2.16.54-3.05.3.46.97,1.53.75,1.4,1.39-.1.5-.56.73-1.04.59l-4.66-1.38c-.28.56-.39,1.09-1.12,1.14-1.41.1-2.79.21-4.16.52-.45.1-.85.32-1.16.63-.08.08-.14.14-.23.13-.12.06-.24.02-.36-.13-.31-.43-.68-.79-1.09-1.08l-.04-.16c1.43-.97,2.85-1.98,4.18-3.12.88-.76,1.58-1.66,2.31-2.54s1.02-2.61,1.25-3.68.26-2.21-.18-3.24c.56,0,1.07-.04,1.44-.35l.88-.73s2.27-1.3,2.71-1.44c.3-.09.65-.18.9-.35.09.06.17.15.2.23.04.12,0,.25-.09.35l-.59.62c-.34.37-.38.93-.29,1.42.08.43-.16.48-.06.62.09.13,1.07-.14,1.69-.1.38.03.76.06,1.1.27-.73.49-1.43,1-1.9,1.7v-.03Z"/>
  <path class="st24" d="M77.54,30.34c.51.29.99.21,1.83.8.51.35,1.04.6,1.58.89.43.23.85,1.26,2.59,1.01-.53,1.05-.56,2.14-.33,3.26s.39,2.13.82,3.15c.32.76,2.03,2.64,2.67,3.19,1.33,1.13,2.74,2.12,4.16,3.11l.05.06c-.4.42-.8.85-1.22,1.28l-.15-.04c-.1,0-.18-.09-.25-.16-.53-.52-1.24-.63-1.94-.72l-1.53-.21c-.68-.09-1.34-.16-2.03-.18-.65-.02-.76-.7-.98-1.26l-4.21,1.29c-.34.1-1.15.38-1.35.14-.07-.08-.08-.21-.06-.33.07-.35.36-.52.64-.69.43-.25.77-.6,1.07-.98-.98.34-2.53.33-3.34-.19-.59-.38,1.09-.64,1.13-.88.05-.33-1.24-.76-1.88-1.47-.06-.07-.1-.16-.06-.23.02-.04.09-.08.17-.1,1.39-.24,2.53.35,3.23-.27l.2-.17c.69-.2,1.36-.46,2-.78.28-.1.59-.14.85.04l.56.62c.19.21.4.31.64.28.05-.13.12-.2.19-.23-.04-.25-.14-.46-.31-.65-.12-.03-.2-.12-.24-.29l-.14-.15c-.59-.1-1.04-.38-1.33-.84-.04-.35-.2-.47-.52-.55-.12-.42-.27-.76-.57-1.07-.55-.58-1.24-1.09-1.9-1.55l-.14-.23c-.46-.66-1.12-1.13-1.83-1.61.35-.22.72-.25,1.09-.27.67-.05,1.6.24,1.71.08.08-.11-.14-.2-.07-.6.31-1.66-1.22-1.8-.95-2.46.02-.05.09-.08.16-.05h-.01Z"/>
  <path class="st24" d="M90.37,28.05c.47-.04.18.23-.12.35-1.46.56-2.92,1.1-4.4,1.61-1.5.47-2.99.18-4.46-.26-.67-.13-1.34-.11-2.01.07-.82.02-1.96-.84-2.6-1.34-.66-.31-.47-.58-.91-.72-.37-.17-.42-.91-.37-1.31l-2.39-2.75c-.11-.13-.06-.23-.11-.37l-.37-1.21c-.31-1.01.3-1.42.1-1.98l.6-1.93c.04-.13.26-.21.19-.37-.18-.46-.49-.22-.58-.7-.04-.21.06-.33.22-.49.66-.69,1.4-1.27,2.15-1.86.1-.08.23-.31.06-.37-.32-.1-.69.02-.97.18l-1,.54c-.55-.12-1.04.81-2.03.03-.17-.13-.33-.27-.23-.49.13-.26.27-.48.6-.59,1.83-.58,2.42-1.19,4.5-1.62,2.29-.48,4.5-1.01,6.85-1.37-1.84.93-4.66,2.63-6.11,4.04-1.29,1.25-2.46,3.45-2.99,5.15-.19.61-.25,1.25-.32,1.9-.07.6.13,1.31.46,1.8.41.6,1.03.99,1.67,1.27l1.74.78c.68.31,1.24.79,1.94,1.06l2.46.94c.5.19.96.32,1.5.31l2.09-.06c.85-.02,1.67.11,2.52.05.81-.06,1.57-.2,2.34-.29h-.02Z"/>
  <path class="st24" d="M30.34,14.81c-.33.46-.96.74-1.54.64s-1.16-.98-2.17-1.06c-.13-.01-.29,0-.37.05s-.23.23-.13.32c.62.54,2.34,1.79,2.5,2.43.06.24-.5.42-.57.65-.04.14.08.22.11.34l.62,2.08c.04.13-.08.3-.02.42.27.58.28,1.16.09,1.75-.11.36-.24.66-.49.95l-2.28,2.63c-.09.93-1.06,2.21-1.71,2.78-.39.34-.88.54-1.33.77-.68.36-1.38-.21-2.29,0l-2.18.51c-.67.16-2.28-.07-2.87-.28l-2.86-1.03c-.72-.26-1.39-.51-2.11-.67.05-.07.1-.03.12-.05.75.1,1.49.23,2.28.29.89.07,1.75-.07,2.64-.04l2.1.06c.56.02,1.04-.11,1.56-.31l2.52-.97c.71-.27,1.28-.76,1.96-1.07l1.7-.77c.66-.3,1.31-.71,1.73-1.33.38-.56.57-1.33.51-2.01-.05-.52-.18-.98-.25-1.49s-.3-.97-.52-1.46c-.63-1.39-1.34-2.75-2.42-3.86-.97-1-2.11-1.76-3.3-2.46l-2.38-1.39c2.39.41,4.64.92,6.94,1.44.85.19,2.54,1.08,3.72,1.43.39.12.57.37.7.69v.02Z"/>
  <path class="st11" d="M75.84,18.87c-.08.33.05.77.36.94.34.19,1.36-.27,2.11-.11,1.24.26,3.28,1.52,4.45,2.19.04.03.12-.03.12.03s.02.12-.03.15c-.06.04-.1-.05-.15-.07-2.02-.61-4.67-.83-6.74-.31-.58.14-1.04.49-1.31,1.01-.15.29-.06.55-.09.89-.5-1.27-.31-1.8-.07-3.14.11-.64.4-1.21.64-1.81.27-.68.56-1.35,1.05-1.89,1.15-1.27,2.5-2.27,3.94-3.2.88-.57,1.72-1.1,2.69-1.58.02.01,0,.1.04.17.31.34.68.56,1.07.8l1.35.81c.95.57,1.81,1.2,2.62,2.05l-3.98-1.47c-1-.37-1.99-.47-3.03-.25-.52.11-1.03.22-1.49.49-.25.15-.53.42-.37.67s1.35.17,1.64.22c1.26.23,3.72,1.98,4.75,2.84l-2.89-1.06c-1.74-.64-4.13-.38-5.7.5-.46.26-.83.61-.96,1.14h-.02Z"/>
  <path class="st11" d="M25.23,19.78c.57-.39.56-1.19.12-1.67-.71-.79-2.47-1.13-3.51-1.23-2.08-.19-3.79.77-5.81,1.42.99-.91,3.48-2.64,4.66-2.86.47-.09,1.68.12,1.82-.46s-1.41-.85-1.8-.92c-1-.2-1.95-.13-2.9.22l-4.42,1.62c.7-.75,1.45-1.38,2.3-1.89l2.19-1.33c.28-.17.51-.39.77-.61.74.34,1.38.76,2.08,1.19,1.65,1.03,3.19,2.15,4.54,3.56.53.55.8,1.24,1.08,1.93.25.64.55,1.23.66,1.91l.24,1.5c.08.48-.13.97-.25,1.41-.13.06-.11.19-.16.02.41-.86-.28-1.64-1.11-1.87-.98-.27-1.94-.31-2.96-.31-1.56,0-3,.33-4.56.77,1.16-.75,2.33-1.41,3.55-2.02.4-.2.8-.34,1.23-.44.8-.19,1.9.32,2.24.08v-.02Z"/>
  <path class="st24" d="M10.25,76.74l.84.54c.32.21.6.43.77.78,1.06-.02,2.03.09,3.07.19,2.12.2,4.14.56,6.24.86.61.09,3.45.39,3.65.9.16.39-.43.88-1.2.88-1.08,0-2.07-.22-3.14-.4-2.3-.38-4.56-.59-6.87-.82-.86-.09-1.65-.13-2.5-.1-.57.3-1.26.19-1.63-.4-.27-.42-.66-1.23-.86-1.65-.04-.1-.02-.35.07-.43l1.56-.36h0Z"/>
  <path class="st19" d="M24.41,75.25c.04.14.04.28,0,.42-.1.59-.36,1.21-.81,1.66-.55.15-1.68-.76-2.38-.64l-1.62.27-2.99-.04c-.4,0-.79-.18-1.14-.35l-2.27-1.09c.06-.15.16-.28.25-.45.69-.13,1.37-.15,2.07-.03l1.84.32c.39.07.75,0,1.07-.25.92-.68,1.76-1.41,2.64-2.13.17-.14.33-.24.45-.4.51.35.88,1.27,1.48,1.59.64.34,1.33.23,1.4,1.12h.01Z"/>
  <path class="st23" d="M23.75,51.49c.13-.03.39-.05.46.04.08.1.04.91-.04,1.07l-2.75,2.35c.18.25.47.39.77.28l.07.04c.41.04.8-.08,1.2-.21.24-.08.52-.03.77-.06.91-.11,1.75.41,2.4.93-.03.05-.06.1-.09.15s-.07.09-.11.12c-1.38.88-2.8,1.68-4.44,1.68-.81,0-.76-.33-.45-.97.13-.11.21-.33.28-.48,0-.11.03-.23.11-.34-1.43.43-2.85.86-4.27,1.31-.8.16-1.6.22-2.42.16l-.19-.12c.22-.38.48-.77.87-1.05,1.36-.96,2.23-.55,3.58-1.16.34.17.62.38.99.52-.2-.38-.44-.67-.69-.98.59-.32.8-1.87,1.46-2.33.74-.51,1.63-.8,2.49-.94h0Z"/>
  <path class="st15" d="M88.26,75.53l-2.21,1.05c-.38.18-.78.34-1.21.35l-2.93.03-1.5-.27c-.81-.14-1.74.69-2.48.67-.44-.52-.78-1.17-.82-1.86-.02-.38.08-.83.41-.96l1-.4c.46-.18,1.02-1.26,1.41-1.52.06.22.3.3.49.46l2.56,2.05c.26.21.55.28.87.22l1.67-.3c.84-.15,1.66-.14,2.48.03.07.19.14.34.25.46h0Z"/>
  <path class="st11" d="M35.13,8.56c1.37-2.03.56-1.81,1.09-3.05.05-.11,0-.28-.09-.34s-.25-.04-.37.03c-.57.31-1.09.66-1.71.87-.46.16-.94.14-1.43.2-.57.07-1.11.02-1.69.05l-5.01.23,2.33-1.34,2.87-.23,3.25-.27c.74-.06,1.46-.1,2.2-.07.44.02,1.87,1.28,2.25,1.63.2.18.44.43.5.69.07.28-.21.43-.33.61-.48.72-1.11,1.24-1.86,1.68-.28.16-.55.34-.76.57l-1.26-.3c-.17-.04-.33-.09-.46-.21.12-.29.31-.49.48-.74h0Z"/>
  <path class="st24" d="M92.84,77.35c-.32.39-.52.86-.82,1.29-.48.68-1.36,1.44-2.2.93-.81-.03-1.57.02-2.4.1-2.31.23-4.57.45-6.86.83-1.05.17-2.02.39-3.09.39-.28,0-.62-.06-.75-.34-.13-.3.13-.61.43-.72,1.18-.42,2.4-.55,3.66-.73l5.71-.8c1.21-.17,2.37-.25,3.57-.25.41-.51,1-.75,1.4-1.19l1.15.23c.17.03.17.12.18.26h.02Z"/>
  <path class="st11" d="M65.3,5.76c.43,1.04-.17,1.09.87,2.67.22.33.46.6.67,1.01l-1.67.43c-.07-.1-.07-.25-.18-.32l-.59-.37c-.5-.31-1-.62-1.39-1.08l-.73-.88c-.15-.18-.1-.38.03-.57l.25-.35c.11-.16,1.88-1.7,2.44-1.68l2.11.09,3.06.25,3.15.27c.72.51,1.45.91,2.22,1.33l-3.51-.21c-1.53-.09-2.5.05-4.06-.21-1.25-.21-2.09-1.3-2.51-.93-.15.14-.24.32-.15.55h-.01Z"/>
  <path class="st11" d="M91.87,46.59l.02.12c-.52,1.15-.97,2.24-1.34,3.29-.17.18-.37.37-.67.42s-.64.28-.97.28c-1.11,0-2.19-.27-3.22-.57.05,0,.12.03.19-.02-.71-.27-1.41-.5-2.16-.7-.24-.07-.47-.15-.68-.27-.26-.15-.33-.44-.19-.7.26-.52.79-.8,1.37-.85,1.56-.13,2.14.15,4.17-.14.43-.06.81-.16,1.14-.37s.52-.58.82-.85l.5-.45c.36.25.74.49,1.01.83v-.02Z"/>
  <path class="st11" d="M11.99,47.06c.34.23.76.31,1.2.38,1.94.29,2.68,0,4.16.14.58.05,1.1.34,1.35.86.13.26.05.55-.22.69-.22.12-.48.24-.73.29-.74.14-1.37.45-1.99.71-.91.39-1.98.47-2.99.56-.42,0-.83-.3-1.23-.35-.18-.02-.25-.22-.35-.27l-.15-.24c-.4-1.18-.84-2.33-1.34-3.47.24-.24.5-.47.79-.66.9.49.79.9,1.49,1.37h0Z"/>
  <path class="st24" d="M8.94,71.42v-1.33c.01-1.06.72-1.08,1.56-1.49.5.43,1.31.46,1.52,1.31.85-.19,1.68-.22,2.55-.2.65.02,1.27.12,1.92.13l1.62.03c.2,0,.5.13.67,0,.35-.26.72-.4,1.1-.59.81-.4,1.55-.9,2.33-1.36.11-.06.15-.1.23-.02.09.1.03.15-.07.23-.74.61-1.49,1.16-2.19,1.82-.43.41-.82.84-1.39,1.07-.38.16-.79.1-1.19.05-.52-.06-1.02.06-1.55.08-1.19.04-2.36,0-3.54.19-.48.08-.91.22-1.39.22-.71.49-1.6.4-2.21-.14h.03Z"/>
  <path class="st11" d="M89.3,35.12c-.5.52-1.23.54-1.69.02-.39-.44-.78-.97-1.31-1.14-.78-.26-1.54-.45-2.36-.65.07-.2.12-.49.3-.61.44-.29.86-.57,1.29-.88.26-.19.52-.44.85-.51.92-.21,1.16.3,2.39.56.58.12,1.11.35,1.72.38,1.57.07,3.02-.28,4.59-.68-1.92,1.25-4.21,1.89-5.78,3.53v-.02Z"/>
  <path class="st24" d="M91.46,68.89c.31.16.69.24.9.59.26.44.18.92.17,1.39-.65.51-.94.86-1.85,1.02-.42.07-.65-.14-.99-.27-.45-.17-.99-.24-1.48-.31-1.11-.17-2.18-.09-3.29-.17-.63-.04-1.23-.13-1.86-.02-.42.08-.75-.13-1.06-.33s-.48-.46-.72-.73c-.64-.71-1.42-1.25-2.1-1.9-.08-.08-.12-.2-.05-.29.04-.05.15-.04.25.02.85.45,1.63.98,2.51,1.37.32.14.68.19.95.44s.6.18.95.18l1.73-.04c.67-.01,1.31-.11,1.98-.13.84-.02,1.64.01,2.46.18.44-.45.95-.8,1.51-1h-.01Z"/>
  <path class="st11" d="M15.63,33.91c-1.15.32-1.4,1.22-1.92,1.5-.49.27-1.03.02-1.4-.34-.62-.61-1.26-1.1-2.03-1.5l-3.45-1.81c2.03.43,3.64.86,5.63.12.55-.07,1.02-.28,1.53-.49.27-.11.7-.13.97-.04.38.13.68.38.98.61.44.33.88.59,1.33.89.15.1.17.38.25.53l-1.89.53Z"/>
  <path class="st15" d="M23.02,65.78c.07.38-1.46.99-1.77,1.1-.42.14-.69.38-1.04.64-.62.46-1.37.7-2.09.98-.39.15-1.88.65-2.08.23-.16-.34.47-.69.17-1.47-.13-.33-.38-.57-.79-.7-.51-.16-.07-.81-.26-.77.41-.2.57-.8,1.44-.76l1.47.06c.08.37.36.53.61.73.67.52.96-.1,1.53-.18.67-.09,1.97.42,2.81.15h0Z"/>
  <path class="st15" d="M86.34,65.84l.03.35c.04.49-.69.23-1.01.97-.37.85.31,1.18.13,1.56-.22.48-2.19-.27-2.61-.44-.57-.23-1.15-.44-1.63-.83-.3-.24-.56-.44-.93-.57-.4-.14-1.69-.66-1.81-1.04.4,0,.8.02,1.22-.03.47-.06.92-.22,1.39-.18s.88.71,1.53.17c.23-.19.49-.35.63-.61l.24-.13,1.05-.03c1.25-.04,1.28.77,1.76.82h.01Z"/>
  <path class="st15" d="M86.17,30.71c-.2.05-.41.11-.53.29-.61.5-1.25,1-2.02,1.29-.6.22-1.27-.12-1.68-.54-.17-.18-.32-.34-.53-.44-.52-.24-1-.49-1.47-.81-1.23-.85-1.88-.5-2.47-1.19l-.71-.83c.79.37,1.17.76,2.18,1.16.58.23,1.09-.28,2.27-.05.76.15,1.47.43,2.25.51.88.09,1.81,0,2.64-.31l3.6-1.31c.3-.11.55-.21.84-.4-.06-.05-.13-.01-.19-.03.26-.03.52-.13.85-.08-.64.46-1.26.91-1.98,1.25l-3.07,1.48h.02Z"/>
  <path class="st45" d="M19.24,65.3c-.88-.44-.16-1.37-1.19-2.11l1.26-.48c.69-.26,1.54-1.14,2.12-1.65.37.05,1.57,0,1.85-.32l.5.52-.11.11.51.2c.1-.28.37-.26.61-.33.18-.05.13-.38.08-.5-.08-.18-.21-.28-.24-.47.25.04.54-.02.72-.18.05-.03.12-.04.14,0,.12.31-.44,2.2-.66,2.49-.14.19-.35.34-.57.42-.9.34-1.81.58-2.77.66l-.35.27c-.3.33-1.4,1.39-1.83,1.41-.02,0-.05-.02-.08-.05h.01Z"/>
  <path class="st45" d="M82.45,65.29c-.3.15-.89-.26-1.13-.48-.39-.43-.79-.86-1.3-1.15-.95-.06-1.82-.32-2.7-.63-.24-.08-.47-.25-.62-.45-.2-.25-.74-2.1-.62-2.34.02-.04.09-.02.15,0,.22.11.5-.03.79-.05-.14.35-.54.74-.43,1.04.04.1.18,0,.28.03.15.03.3.29.48.27.14,0,.27-.18.44-.16l-.09-.15c.11-.18.24-.32.41-.47.06.34,1.51.36,1.79.3l.74.67c.4.37.8.77,1.31.96l1.55.59c-1,.8-.45,1.64-1.03,2h-.02Z"/>
  <path class="st15" d="M45.98,5.57c.25.22.56.44.91.51.1.02.28.02.38.09.38-.06.75-.29,1.11-.39.2-.03.39-.04.57-.05l.03.08c-.08.08-.15.18-.28.26-1.64,1-2.37,2.13-4.16,2.66,0-.1-.09-.15-.18-.22l-2.54-1.91.69-.61c.24-.22.4-.48.54-.8l2.92.37h0Z"/>
  <path class="st15" d="M57.2,8.73c-1.73-.44-2.67-1.66-4.28-2.64-.14-.08-.24-.18-.32-.28.03-.09.12-.11.28-.07l1.38.52c.13.05.24.06.37.02.11-.04.09-.21.17-.3.2-.18.45-.28.62-.47l3-.37c-.11.94.55,1.19,1.12,1.73l-2.33,1.86h0Z"/>
  <path class="st15" d="M17.63,82.45c-.16.1-.35.21-.54.29-.32.14-.49.38-.74.59-.52.44-1.1.81-1.7,1.16-.7.4-2.05.12-2.71-.27l.6-.69c.13-.15.25-.42.11-.6-.28-.36-.64-.61-.95-.92.41-.26.83-.47,1.31-.51.67-.06,1.31-.13,1.98,0,.1.02.19-.06.18-.13.38.23.73.48,1,.86.2.28,1.31.24,1.46.23h0Z"/>
  <path class="st15" d="M25.08,65.65c-.07-.14-.31.07-.66.05-.41-.02-.77-.19-1.12-.39,0,.13-.03.21-.1.28.05-.27-.09-.28.11-.43-1.45-.52-1.26-.87-2.56-.22-.22.11-1.29.55-1.44.47-.03-.02-.05-.07-.06-.11l.85-.54c.51-.32.82-.9,1.38-1.21.95-.1,1.88-.3,2.76-.65.39-.16.63-.44.73-.83.09-.33.56-1.84.4-1.97.49-.44.39-1.31.96-1.13.16.05.3.12.45.24l-.94,1.82c-.34.67-.55,1.36-.6,2.12l-.16,2.52v-.02Z"/>
  <path class="st15" d="M84.07,82.45c.26.02.55-.02.83-.03.26,0,.46-.15.6-.35.4-.54.68-.5.85-.71,0,.05.02.09.05.1.28.05,1.88-.34,3.01.42.17.11.34.15.52.15-.41.29-.74.61-1.05.96-.17.19-.13.44.01.61l.62.71c-.67.32-1.83.54-2.51.15-.61-.35-1.21-.73-1.75-1.18-.63-.53-.28-.34-1.2-.84h.02Z"/>
  <path class="st15" d="M76.22,60.25c-.22-.05.37,1.81.42,1.98.11.34.39.55.72.68.86.35,1.76.54,2.69.63.53.29.92.71,1.32,1.15.12.13.97.67,1.08.59-.09.05-.13.2-.3.14l-.65-.24c-.34-.13-.66-.25-.97-.42-.4-.22-.82-.2-1.2-.01-.1-.01-.2.01-.3.08-.24.2-.58.19-.83.36.06.03.12.04.17.08.02.01-.05.04-.07.05-.65.26-1.04.58-1.85.25l-.02.57s-.06-.03-.06-.07c.05-.95-.06-1.86-.11-2.81-.04-.72-.08-1.42-.42-2.07l-1.08-2.08c.13-.23.56-.23.71,0,.28.44.3.92.73,1.13h.02Z"/>
  <path class="st13" d="M21.81,56.42c-.12.06-.22.08-.34.19l-1.21,1.07c-.61.54-1.32.94-2.04,1.31-.31.16-.69.17-1.01.25-.4.09-.73-.02-1.07-.21-.53-.3-1.11-.48-1.64-.73.16-.35.38-.6.54-.87.71-.02,1.42.06,2.16-.07,1.34-.24,3.41-1.13,4.89-1.46-.02.18-.12.44-.28.52Z"/>
  <path class="st13" d="M86.34,57.43c.2.3.44.6.6.96-.47.23-.96.38-1.41.64-.33.19-.65.32-1.05.22s-.87-.12-1.25-.32c-.68-.35-1.33-.76-1.92-1.25l-1.33-1.13c-.09-.08-.17-.15-.28-.13-.07-.16-.26-.25-.24-.53,1.09.27,2.09.65,3.14.98,1.79.56,1.77.59,3.75.55h0Z"/>
  <path class="st15" d="M62.48,16.3c-.66.12-1.22.56-1.38,1.28l-.58-.51c-.44-.39-.95-.68-1.45-.95l-.05-.12,1.34-1.55c.31-.43.68-.79,1.1-1.08.05-.11.11-.18.19-.2l.88-1.11c.26.45.49.88.81,1.29-.95.75-1.5,1.88-.85,2.95h0Z"/>
  <path class="st15" d="M21.45,72.17c-.08-.03-.18-.03-.27.03-.92.55-1.49.35-2.49,1.17-.4.33-.93.53-1.47.49l-1.94-.16c-.57-.05-1.06-.08-1.6.14-.49.2-.97.45-1.44.69-.28.14-.55.07-.74-.17-.79-.97-1.78-.7-2.45-1.16-.19-.13-.14-.41-.16-.58.36.21.78.33,1.21.44.85.21,1.7.37,2.54.64.75.24,1.11-.46,2-.65.46-.1,1.82.12,2.9.01.87-.09,3.3-1.41,4.2-1.84.33.25-.3.77-.3.95h0Z"/>
  <path class="st15" d="M92.6,72.68c-.01.17.08.47-.12.59-.57.35-1.57.17-2.41,1.14-.15.17-.34.26-.57.15l-1.44-.7c-.53-.26-1.03-.25-1.59-.16-.66.11-1.31.08-1.99.16-.58.07-1.17-.22-1.61-.58-.85-.69-1.62-.61-2.28-1.03-.16-.1-.29-.12-.42-.02-.15-.22-.35-.45-.46-.71-.03-.07,0-.32.1-.28l2.92,1.4c1.09.52,1.68.49,2.9.43.42-.02.84-.11,1.25-.03.84.17,1.29.88,1.96.67.74-.23,1.48-.4,2.24-.57.54-.11,1.04-.27,1.52-.47h0Z"/>
  <path class="st15" d="M72.98,80.52c-.23.16-.45.34-.65.55-.39.4-.84.71-1.26,1.07-.3.26-.59.41-.95.58-.63.29-1.23.58-1.92.71-.96.17-.95-.61-1.41-.72.76-.26,1.46-.62,2.18-1.02l2.62-1.47c.31.14.9.08,1.38.3h.01Z"/>
  <path class="st15" d="M28.6,80.47c.11-.03,1.14-.16,1.08-.24l2.7,1.49c.78.43,1.54.79,2.36,1.11-.36.05-.36.69-1.02.63-.79-.07-1.47-.42-2.17-.74-.38-.17-.7-.34-1.01-.62-.41-.37-.88-.68-1.26-1.09-.2-.22-.43-.38-.66-.53h-.02Z"/>
  <path class="st15" d="M54.8,3.61c-.09-.74.05-1.47.79-1.8.1.05.21.09.35.12l4.66,1c-.42.21-.8.31-1.16.59-1.56-.06-3.1,0-4.64.09Z"/>
  <path class="st15" d="M46.71,3.55c-1.36-.03-2.71-.1-4.09-.03-.42-.38-.9-.49-1.45-.71l4.3-.94c.1-.02.19-.05.16-.13.73.31,1.11,1.04,1.08,1.81Z"/>
  <path class="st15" d="M43.17,8.99c-.16,0-.32.12-.55.08-.74-.15-1.56.35-1.65,1.12-.02.19.07.29-.15.42-.42.25-.54.78-.25,1.17.17.24,0,.35-.1.51l-1.17-1.32c.46-.46.65-1.02.92-1.58l1.03-2.16c.69.63,1.36,1.13,1.93,1.77h0Z"/>
  <path class="st15" d="M59.84,13.73l.06.11-1.71,1.78-.14-.03c-.54-.28-1.12-.48-1.64-.79-.03-.03-.08-.09-.06-.12.67-.96,1.45-1.96,2.17-2.89l.12-.05c.06.03.12.06.17.13-.26.53-.4,1.23.26,1.52l.76.33h.01Z"/>
  <path class="st15" d="M58.17,11.52v.12c-.66.82-1.36,1.6-2.11,2.33l-.22.12c-.19-.54-.23-1.13-.52-1.66-.09-.17-.24-.44-.38-.56-.03-.04-.07-.1-.05-.12.15-.15,1.28-1.13,1.38-1.17l.16.02c.57.32,1.16.63,1.75.91h0Z"/>
  <path class="st15" d="M61.17,12.36c-.09-.15-.36-.31-.3-.53.07-.27.26-.52.19-.82-.07-.28-.3-.44-.55-.61.12-.7-.41-1.39-1.15-1.34-.47.03-.91,0-1.33-.11.14.01.23-.11.34-.21l1.68-1.45,1.07,2.21c.31.64.49,1.27.97,1.85-.31.37-.58.73-.93,1.01h.01Z"/>
  <path class="st15" d="M66.26,6.12c0,.11.05.23.16.32.74.6,1.51,1.12,2.32,1.63.58.36-.05,1.18-.35,1.5s-.7.16-.99.15c.13-.24.15-.48-.04-.75-.7-.97-1.29-1.55-1.33-2.73,0-.07-.02-.15.04-.2.08-.08.15.07.19.1v-.02Z"/>
  <path class="st34" d="M41.79,13.61h.22c.63.59,1.23,1.22,1.81,1.87l-.11.11c-.44.21-.89.42-1.31.67-.09,0-.15-.07-.22-.14-.85-.89-1.64-1.81-2.35-2.78.06.03.05-.05.05-.07.61.51,1.15.68,1.91.36v-.02Z"/>
  <path class="st15" d="M46.57,12.01c-.55.6-.56,1.16-.82,1.84-.25-.02-.46-.17-.66-.45l-1.66-1.87.04-.13c.44-.29.92-.52,1.39-.77l.16-.02,1.51,1.28.04.12Z"/>
  <path class="st15" d="M45.03,14.92c-.46.17-.88.45-1.32.66,0-.03,0-.09-.04-.13l-1.66-1.69c-.07-.07-.14-.13-.22-.15.3-.13.64-.25.87-.5.29-.31.23-.75.14-1.12.04-.02.11-.05.13-.03.66.81,1.45,1.81,2.02,2.67.12.1.14.2.07.29h.01Z"/>
  <path class="st15" d="M35.5,6.07c-.12.64.03,1.09-.52,1.86l-.8,1.13c-.14.2-.23.43-.2.66-.27,0-.59.17-.84-.04s-.48-.54-.57-.86c-.09-.3.18-.57.41-.71.7-.44,1.39-.86,2.02-1.4.38-.33.21-.62.5-.63h0Z"/>
  <path class="st13" d="M26.93,56.13l.03.06c-.1.17-.23.33-.38.47-.42.36-.9.64-1.4.96-1.27.82-2.83,1.06-4.21.39.29-.55.09-.73.56-1.1.03.18-.14.65-.04.78.19.24,2.19-.14,2.65-.35.88-.41,1.69-.91,2.49-1.4.09.07.27.07.3.2h0Z"/>
  <path class="st15" d="M55.59,10.14c-.02.08-.07.13-.16.15l-1.03.94-.13.02c-.19-.17-.51-.32-.78-.36-.43-.06-.82.3-.93.68-.09.3.03.52,0,.82-.47-.64-.67-1.62-.18-2.18.39-.44.98-.68,1.5-.87.65.21,1.18.5,1.71.8Z"/>
  <path class="st13" d="M22.25,55.27c-.31.31-.79-.03-1-.31.08-.13.19-.22.31-.32l2.51-2.1c.1-.35.06-.68.03-1.04-.13,0-.24-.03-.34-.02-.02-.09.47,0,.81-.15.09.32.26.63.29.97.11,1.06-1.09,1.56-1.34,1.82-.48.51-1.52.93-1.26,1.14h-.01Z"/>
  <path class="st11" d="M73.71,12.55c.06-.15.07-.37.15-.47.25-.33.72-.45,1.12-.53.97-.2,1.05-.77,1.79-1.4l3.04.77-3.54.76c-.89.19-1.69.45-2.56.88h0Z"/>
  <path class="st13" d="M77.59,51.49c-.26-.13-.19.91-.12,1.05l2.81,2.39c-.48.76-1.06.34-1.01.34.02-.04.04-.09.03-.13-.01-.05-.06-.1-.11-.14l-.81-.55c-.16-.11-.19-.23-.32-.36-.32-.32-.76-.5-1.04-.88-.5-.65-.5-1.18-.08-1.84.2.05.45.08.65.12Z"/>
  <path class="st46" d="M79.99,56.91c.43.38.21.54.49,1.2-1.32.64-3.02.14-4.17-.64-.51-.34-1.04-.61-1.49-.99-.16-.12-.24-.24-.23-.36.02-.13.18-.16.26-.23.83.49,1.65,1.01,2.56,1.43.49.23,2.19.53,2.6.4.06-.02.09-.13.08-.22l-.09-.59h-.01Z"/>
  <path class="st34" d="M43.48,11.4l1.29,1.46c.32.36.62.71.98.99.02.51-.28.91-.72,1.07l-2.22-2.93c-.02-.08-.11-.17,0-.25.2-.18.49-.21.68-.34Z"/>
  <path class="st15" d="M47.5,11.19h-.15s-.39-.35-1.18-1.08v-.15c.41-.17.84-.59,1.32-.56.56.07,1.14.47,1.55.85.61.57.4,1.89-.29,2.43.08-.4.24-.67.22-1.04-.02-.44-.34-.82-.81-.74-.23.04-.49.16-.67.3h.01Z"/>
  <path class="st11" d="M27.52,12.29l-.3-.1c-.42-.18-.81-.3-1.24-.4l-4.19-.92,2.82-.72c.37.31.64.64.96.97.52.6,1.23.26,2.02.98.05.04.06.1.05.15-.02.07-.07.04-.12.05h0Z"/>
  <path class="st34" d="M61.45,13.37l-2.38,2.75-1.02-.54,1.79-1.86c.18.08.49.05.69.02.36-.07.63-.28.93-.43.03.02.03.03,0,.05h0Z"/>
  <path class="st34" d="M58.17,11.52l.48.23c0,.07,0,.12-.06.19l-2.17,2.86c-.25-.15-.39-.17-.58-.71.78-.79,1.5-1.64,2.21-2.51.04-.05.09-.05.12-.06Z"/>
  <path class="st34" d="M46.18,9.96c.38.29,1.03.86,1.32,1.23-.32.25-.64.52-.92.82-.04,0-.09,0-.14-.04l-1.57-1.34c.43-.23.86-.48,1.31-.67Z"/>
  <path class="st42" d="M11.21,50.07c-.2-.11-.34-.27-.5-.47-.39-.49-1.52-1.75-1.48-2.35.03-.37.25-.66.48-.9.06-.02.1.02.13.09.47.95.84,1.91,1.17,2.91.08.25.2.47.19.72h.01Z"/>
  <path class="st58" d="M37.11,12.24c.19-.65,1.01-1.15.17-2l.48-.37c.31-.24.51-.58.86-.81.2.53.25,1.03.26,1.54,0,0-1.77,1.64-1.77,1.64Z"/>
  <path class="st58" d="M64.35,10.28c-.46.42-.63.96-.38,1.52l-1.38-1.31c.02-.5.08-.94.2-1.43l.54.58c.28.3.59.56,1.01.64h.01Z"/>
  <path class="st42" d="M90.55,50s-.06-.02-.06-.07c.36-1.11.77-2.17,1.26-3.22.03-.07.07-.1.12-.12.2.25.39.55.39.89,0,.63-1.28,2.06-1.71,2.52Z"/>
  <path class="st15" d="M61.35,1.2c-.23.03-.34.27-.5.49l-3.16-.62c.47-.11.97-.45,1.49-.39.76.09,1.47.33,2.17.52Z"/>
  <path class="st34" d="M55.59,10.14l.83.47-1.49,1.26-.67-.61c0-.06.04-.09.09-.14l1-.92c.07-.07.17-.07.24-.06Z"/>
  <path class="st15" d="M43.77,1.14l-2.8.57-.18-.42c-.06-.15-.17-.24-.32-.22,1.68-.38,1.41-.69,3.3.07Z"/>
  <path class="st11" d="M74.78,50.6c-.99.62-2.01,1.21-2.88,2.04-.24.23-.53.43-.72.67,1.27-2.3,2.48-2.18,3.6-2.71Z"/>
  <path class="st11" d="M30.05,52.83c-.94-.77-1.85-1.58-2.94-2.11,1.21.31,2.33,1.02,2.94,2.11Z"/>
  <path class="st16" d="M33.8,6.67c-.3.46-.78.17-1.66.21.25-.06,1.35-.12,1.66-.21Z"/>
  <path class="st55" d="M67.87,12.23c-.17.23-.39.45-.58.66.04-.14-.06-.37.03-.51.11-.15.39-.12.55-.15Z"/>
  <path class="st12" d="M68.71,81.18c-.5.28-1.03.5-1.56.72-.06,0-.06-.05,0-.06.09-.09,1.69-.87,1.56-.66Z"/>
  <path class="st57" d="M66.38,19.47c-.12-.09-.33-.11-.43-.23-.1-.11-.19-.23-.28-.35-.03-.06,0-.08.06-.06.26.23.58.39.83.65-.07,0-.12-.02-.17,0h-.01Z"/>
  <path class="st49" d="M48.98,5.82c-.2-.03-.41.02-.6-.04.31-.09.61-.21.97-.27-.09.16-.26.21-.37.3h0Z"/>
  <path class="st28" d="M21.21,4.58c-.05.06-.09.14-.11.22h-.71c-.1-.02-.15-.04-.06-.12.29-.03.59-.05.89-.1h-.01Z"/>
  <path class="st52" d="M20.03,7.55c.1.02.2.04.3.06.12.01.27-.05.36.05-.41-.02-.82.06-1.27-.02.2-.04.41-.08.61-.09Z"/>
  <path class="st7" d="M83.65,49.53v.06c-.25-.1-.56-.1-.81-.33.32,0,.55.2.81.27Z"/>
  <path class="st47" d="M26.58,56.66c.07-.21.26-.33.35-.53.32.1-.38.55-.35.53Z"/>
  <path class="st27" d="M52.88,5.74c-.09.04-.19.06-.28.07-.06-.08-.27-.08-.22-.25.21.04.35.12.5.18Z"/>
  <path class="st1" d="M86.17,30.71l-.53.29c.03-.25.3-.29.53-.29Z"/>
  <path class="st3" d="M67.77,18.18c-.02.14.17.24.09.42-.16-.18-.2-.41-.28-.61l.19.19Z"/>
  <path class="st32" d="M80.83,4.68c.1.02.14.06.12.12-.15.02-.31,0-.47,0v-.16c.11.02.23.03.34.04h.01Z"/>
  <path class="st37" d="M17.93,49.59s-.04-.04-.06-.06c.21-.06.39-.25.71-.22-.21.09-.43.19-.65.28Z"/>
  <path class="st61" d="M81.37,7.67c-.14-.01-.2-.05-.18-.12l.78.08c-.2.09-.4.02-.6.04Z"/>
  <path class="st18" d="M25.79,70.93c-.03-.27-.02-.57,0-.84.09-.2.08,1.02,0,.84Z"/>
  <path class="st64" d="M74.82,56.48c-.1-.08-.26-.11-.32-.26-.02-.05.06-.08.08-.1.08.12.2.22.23.36h0Z"/>
  <path class="st9" d="M34.01,81.68l-.49-.24c-.02-.11.81.28.49.24Z"/>
  <path class="st44" d="M80.95,4.8l-.12-.12.55.08c-.16.08-.3.02-.43.03h0Z"/>
  <path class="st0" d="M65.88,27.14s0-.06.03-.08c.07.07.2.1.2.23-.12.03-.15-.1-.22-.15h0Z"/>
  <path class="st53" d="M20.33,4.68s.04.07.06.11c-.12,0-.24.04-.36-.02.12-.04.21-.08.3-.09Z"/>
  <path class="st22" d="M38.8,16.44s-.14.08-.19.11l.02-.24c.08.04.14.08.18.13h-.01Z"/>
  <path class="st59" d="M40.6,17.5s-.11.13-.18.13c0-.07-.02-.13,0-.25.06.06.15.05.18.12Z"/>
  <path class="st43" d="M79.33,64.75c-.09.04-.2.07-.3.08.04-.03.06-.09.11-.11.06-.02.15-.05.18.03h.01Z"/>
  <path class="st26" d="M27.52,12.29c-.14,0-.23-.04-.3-.1.11-.03.24,0,.3.1Z"/>
  <path class="st41" d="M83.53,65.06c-.07.04-.16.22-.24.13.07-.12.1-.13.24-.13Z"/>
  <path class="st50" d="M61.64,13.18c-.06.07-.11.16-.19.2v-.05c.03-.08.07-.15.14-.2.02.02.03.04.05.06h0Z"/>
  <path class="st36" d="M77.23,59.89s-.04.1-.09.19c-.06-.07-.02-.16-.04-.24,0,0,.13.05.13.05Z"/>
  <path class="st6" d="M81.37,7.67h-.24v-.06s.03-.06.06-.06l.18.12Z"/>
  <path class="st14" d="M20.33,7.55v.06c-.1-.01-.24.05-.3-.06h.3Z"/>
  <path class="st33" d="M23.97,60.55c-.1.03-.19-.05-.16-.18.07.04.11.07.16.18Z"/>
  <path class="st48" d="M75.98,49.59l.06.07s-.06.05-.1.05c-.05,0-.11-.03-.08-.09.02-.05.08-.03.12-.03Z"/>
  <path class="st38" d="M65.12,13.01s.04-.04.05-.07c.05,0,.06.04.1.07.06.03-.02.1-.06.12-.04.01-.08-.09-.09-.11h0Z"/>
  <path class="st21" d="M77.61,60.39s.08,0,.13,0c.04,0,.04.04,0,.06-.05.03-.04.05-.07.06-.06.02-.13-.04-.07-.11h.01Z"/>
  <path class="st11" d="M56.72,69.37c-.1-.08-.08-.31,0-.41-.13-.39.38-.49.63-.19,2-.22,3.99-.48,5.98-.77-1.75-.54-3.54-1-5.36-1.32-.24-.05-.21-.13-.1-.31.04-.06.89-.44,1.03-.48l.15.06c-.02-.11.17-.11.24-.08.11.05-.19.24-.29.25-.05.05-.16.03-.17.12.13.03.26.06.4.07.48.16,3.2-.27,6.04,1.81.26.19.48.36.66.65-.9-.07-1.7-.08-2.55.06-2.29.36-3.45.91-5.9.44.15,1.22-.74,2.97-1.8,3.36.32.08.58.1.87.29-.13.15-.33.21-.54.25-3.74.71-6.6.69-10.33.04-.26-.05-.51-.1-.72-.27.25-.21.53-.22.86-.31-.51-.21-.85-.6-1.15-1.06-.46-.69-.7-1.45-.64-2.31-1.28.25-2.46.22-3.69-.02l-1.91-.37c-.95-.18-1.85-.19-2.86-.1.22-.32.46-.5.73-.7,1.63-1.17,3.58-1.75,5.59-1.71.15,0,.27-.01.36-.06.13-.01.27-.04.4-.07-.06-.11-.21-.13-.29-.22-.07.03-.19-.04-.12-.12.49-.07,1.02.25,1.43.53.13.14.14.18-.07.23-1.85.33-3.67.81-5.47,1.34,2.03.28,4.06.55,6.07.8.24-.55,1.04.26.73.56.03.82.46,1.41,1.06,1.91.28.58.56.8,1.14,1.12,2.09,1.16,4.44,1.3,6.64.31.73-.33,1.39-.74,1.72-1.46.56-.47.95-1,1.05-1.76l.14-.12.04.02Z"/>
  <path class="st11" d="M59.9,65.71c-.02.07-.57.24-.61.23-.03,0-.19-.1-.16-.15l.19-.21c.71-.32,1.38-.71,1.99-1.2.54-.43,1.17-1.63.94-2.32-.04-.12-2.04,1.13-2.24,1.26-1.35.87-2.54,1.89-3.71,2.96-.21.23-.41.29-.61.18-1.3-1.32-3.02-1.75-4.9-1.76s-3.63.41-4.91,1.74c-.18.13-.38.08-.59-.14-1.21-1.13-2.5-2.12-3.91-3.08-.23-.16-1.93-1.19-2.05-1.19-.05,0-.04.37-.04.45.09,1.58,1.47,2.41,2.77,3.04l.14.18c.14.08.05.19-.08.09-.1.13-.37,0-.49-.08-.94-.2-1.87-.48-2.51-1.27-.89-1.09-.62-2.47-.11-3.74.92.57,1.69,1.22,2.48,1.91,1.12.98,2.36,1.76,3.74,2.32.2.08.35.04.51-.09,1.19-.96,3.6-2.26,5.05-1.45,1.45-.81,3.87.49,5.04,1.44.18.15.34.18.56.09,1.34-.55,2.55-1.3,3.65-2.26.81-.71,1.58-1.37,2.52-1.95.5,1.23.77,2.55-.04,3.65-.46.62-1.13,1.02-1.86,1.19l-.74.17h-.02Z"/>
  <path d="M70.95,24.9c-.25.42-1.2.52-.82,2.04l-.69-.91c-.14-.19-.42-.23-.59-.37-.26-.21-.5-.44-.84-.55-1.21.84-2.49-.41-3.18-1.36-.3-1.34-.91-2.54-1.73-3.63-.14-.19.26-.53.44-.47,1.24.42,2.41,1.03,3.32,1.94.7.7.25,1.35.47,1.54.32.28.82-.31,2.01.3.54.27,1.06.57,1.57.9.2.13.17.38.06.56h-.02Z"/>
  <path d="M31.85,26.26c-.13.2-.21.43-.41.58.19-1.4-.97-1.49-.98-1.93,0-.16.07-.36.22-.47.54-.4,1.13-.72,1.73-1.02.6-.3,1.16-.3,1.84-.18-.1-.6.04-1.08.41-1.47.95-1.01,2.16-1.62,3.47-2.11.09-.04.22.01.25.07s.09.19.03.27c-.84,1.04-1.4,2.24-1.74,3.54-.08.3-.34.5-.53.72-.68.76-1.88,1.56-2.85.85-.3.08-.48.28-.69.46-.26.22-.56.4-.75.69Z"/>
  <path d="M77.41,35.25c.63.37,1.18.83,1.74,1.32.46.4.85.84.94,1.45.39,0,.5.27.56.57.7,1.09,1.32.25,1.61,1.33.17.17.28.41.31.65-.03.1.02.24-.09.31-.44.28-1.05-.5-1.27-.79s-.67-.2-.97-.06c-.69.34-1.37.62-2.1.78-.42.09-.91.08-1.34.02-.55-.07-1.04-.32-1.51-.59-.81-.46-1.33-1.22-1.52-2.12-.04-.21-.07-.37.08-.53.13-.14.24-.13.45-.11l3.3.36c.35.04.68-.03,1.03.05.18.04.43-.1.43-.29,0-.18-.11-.37-.21-.49-.28-.07-.68-.43-.74-.71-.24-.2-.45-.44-.74-.62-.78-.5-.53-.7-.46-.66-.16-.09.57.2.5.13h0Z"/>
  <path d="M23.4,36.28c-.07.3-.5.68-.8.76-.12.15-.21.35-.17.5.04.12.16.37.33.36l1.46-.08,3.17-.33c.11,0,.19-.08.27,0,.06.06.1.13.09.23-.13,1.22-.87,2.15-1.94,2.69-.78.4-1.59.6-2.44.43-.38-.08-.74-.15-1.08-.31l-1.06-.49c-1.09-.51-.96.6-1.9.9-.12.04-.27.02-.34-.07-.15-.18.03-.35.05-.52-.05-.12.06-.27.17-.35.08-.4.38-.64.75-.71,1.07-.2.67-.99,1.45-1.21.06-.45.28-.88.64-1.2.63-.58,1.29-1.08,1.99-1.52.12-.07.62-.35.65-.13,0,.04-.02.12-.07.15-.45.28-.85.58-1.23.91h0Z"/>
  <path class="st34" d="M22.61,37.04c.22-.28.5-.5.8-.76.05.45,1.04.19,1.34.09,1.12-.39,2.15-.97,3.04-1.75.65-.58,1.11-1.25,1.41-2.07.03-.09.17-.13.24-.24,0,1.28-1.24,2.61-2.28,3.34-.98.68-2.06,1.12-3.21,1.41-.18.04-1.49.28-1.33-.02h-.01Z"/>
  <path class="st34" d="M78.11,36.4c.26.22.52.45.74.71-.06.1-.22.08-.36.07-.96-.05-1.83-.36-2.7-.74-1.26-.55-2.33-1.37-3.11-2.5-.31-.46-.5-.95-.57-1.53.12-.02.22.09.26.2.28.78.74,1.44,1.37,2,.89.8,1.94,1.38,3.08,1.77.32.11,1.09.28,1.29.02Z"/>
  <path class="st60" d="M65.22,18.4c.04.12,0,.1-.1.06-.44-.29-.9-.57-1.29-.97-.04-.08.14-.13.21-.13.1,0,1.02.9,1.18,1.04Z"/>
  <path class="st8" d="M59.9,65.71s.09-.03.14.03l-.75.31c-.1.04-.19.06-.27.06.08-.07.15-.13.23-.21-.08,0-.15.02-.19.04-.37.1-.15-.42.07-.16.02.03.09.05.15.04l.62-.12h0Z"/>
  <path class="st62" d="M42.11,65.8c.1-.02.18-.02.16.1l.12.12c.04.16-.71-.22-.83-.27,0-.04.05-.05.07-.04.16.03.33.03.49.08h0Z"/>
  <path class="st63" d="M65.72,18.83s-.05.03-.06.06c-.14-.19-.35-.29-.55-.43.04,0,.08-.02.1-.06l.5.43h.01Z"/>
  <path class="st39" d="M42.68,66.24c-.03.18-.28.02-.4.07-.04,0-.11.02-.12-.06l.53-.02h0Z"/>
  <path class="st4" d="M59.25,66.31c-.06-.02-.53.06-.4-.07l.52.02c0,.08-.08.06-.12.06h0Z"/>
  <path class="st35" d="M35.52,27.25c-.11.12-.18.08-.11-.05.09-.07.18-.04.11.05Z"/>
  <path class="st30" d="M24.41,75.67c-.01-.14-.01-.28,0-.42.08.12.08.3,0,.42Z"/>
  <path class="st10" d="M60.76,4.84s.09,0,.11.02c0,.02-.04.05-.04.07,0,.05-.05.03-.08.01-.07-.03-.08-.08.02-.11h0Z"/>
  <path class="st25" d="M19.23,40c-.02.12-.07.23-.17.35-.09-.06-.09-.14-.05-.2.05-.1.13-.13.22-.14h0Z"/>
  <path class="st29" d="M82.57,40.58c-.14-.2-.24-.42-.31-.65.27.1.39.39.31.65Z"/>
  <path d="M88.69,48.41l-.76.48c-.27.17-.64.27-.93.09-.1-.08-.14-.27-.21-.37,1.19-.2.72-.02,1.6-.6.54-.36,1.19-.17,1.33.04.23.35-.15.87-.56.96-.08.02-.15-.03-.18-.1-.06-.14.29-.25.24-.43-.08-.1-.36-.18-.51-.08h-.02Z"/>
  <path d="M13.58,48.98c-.56-.26-.94-.78-1.3-.55.07.21.26.3.29.51-.17.12-.39.07-.55-.02-.15-.08-.32-.26-.31-.48.03-.33.32-.5.6-.59.84-.25,1.12.45,1.74.62.23.06.45.04.68.13-.21.4-.69.59-1.15.37h0Z"/>
  <path class="st24" d="M59.13,65.79c-.06.03-.13.03-.18.07.05.07.07.09.11.09-.38.2-.79.29-1.22.59.93.15,1.81.32,2.72.57,1.1.31,2.18.51,3.3.93l-2.68.38-3.9.47c-.1-.11-.17-.21-.29-.19-.18.03-.16.16-.27.25-.07.16-.07.3,0,.41-.21,1.44-.85,1.62-1.12,1.99-.21.29-.29.61-.64.81-.48.28-.93.61-1.47.81-1.81.66-3.7.68-5.5-.02-.54-.21-1.01-.54-1.5-.84-.3-.19-.36-.48-.54-.74-.22-.31-.59-.47-.77-.84s-.35-.81-.36-1.23c0-.04.22-.06.12-.14-.03-.02-.08-.03-.15-.06.03-.03.13-.08.11-.1l-.12-.08c-.09-.06-.17-.21-.29-.22-.07,0-.12.08-.22.19l-3.62-.43-2.99-.42c1.1-.43,2.17-.63,3.26-.93.92-.25,1.8-.44,2.81-.58-.48-.27-.97-.48-1.46-.64-.04-.04-.07-.11-.08-.19-.66-.24-1.25-.64-1.84-1.08-.86-.64-1.35-1.68-1.15-2.8l1.97,1.14c.89.51,1.69,1.07,2.44,1.76.18.16.37.27.55.42.27.23,1.36,1.33,1.54,1.26.27-.1.91-1.07,2.54-1.5s3.4-.44,5.08.01,2.26,1.45,2.53,1.49c.17.03,1.19-.99,1.44-1.2,1.19-.96,1.58-1.39,2.93-2.17l2.1-1.21c.2,1.06-.24,2.09-1.06,2.73-.67.52-1.39.9-2.14,1.23h.01Z"/>
  <path class="st2" d="M56.73,68.95s0,.09.03.14c.06.1-.02.19-.03.27-.04-.01-.11.02-.15,0-.06-.03-.07-.22.15-.42h0Z"/>
  <path class="st20" d="M42.27,65.9c-.06-.02-.12-.06-.16-.1.06.04.06-.06.08-.09l.26.09c-.08.06-.12.03-.15.03-.02,0-.04.04-.03.07Z"/>
  <path class="st11" d="M70.03,24.74c-.22.23-.38.43-.5.76-.06-.26-.2-.45-.34-.63-.44-.59-1.06-.63-1.65-.27-.33.2-.85-.07-1.15-.24-.43-.24-.69-.6-1.04-.95-.17-.87-.54-1.62-.94-2.46.7.31,1.29.76,1.82,1.29.21.21.3.49.3.79.01.25.07.48.24.63.58.5,1.13-.19,2.15.39.38.21.74.42,1.13.7h-.02Z"/>
  <path class="st11" d="M32.97,24.49c-.41.21-.68.56-.95.96-.09-.35-.21-.6-.51-.85.32-.26.67-.44,1.04-.63.88-.46,1.43.18,2.07-.35.23-.19.34-.5.37-.83-.02-.33.11-.57.34-.78.58-.53,1.22-.96,1.98-1.27-.42.82-.83,1.57-1.04,2.44-.07.27-.09.52-.38.65-.3.43-1.26,1.06-1.72.78-.38-.24-.74-.35-1.2-.11h0Z"/>
  <path class="st58" d="M80.64,39.61c-1.2.49-2.28,1.01-3.61.77-1.04-.19-2.52-1.07-2.63-2.33,1.17.07,2.27.31,3.43.45.89.11,1.74.13,2.6.35.14.21.2.44.2.77h.01Z"/>
  <path class="st66" d="M82.21,40.59c-.12,0-.24-.07-.37-.18-.08-.05-.16-.09-.18-.17-.29-.77-1.09-.4-.74-.77.61.32.85.08,1.09.65l.2.46h0Z"/>
  <path class="st17" d="M82.21,40.59c.09.1.03.17-.07.09-.12-.1-.25-.15-.3-.26.14,0,.25.1.37.18h0Z"/>
  <path class="st58" d="M22.28,40.17l-1.38-.55c-.02-.44.02-.8.46-.88.74-.14,1.46-.15,2.21-.25l3.52-.46c.08,1.29-1.49,2.23-2.62,2.38-.73.1-1.49.04-2.19-.23h0Z"/>
  <path class="st11" d="M19.67,40.41c-.17.14-.26.14-.27-.02l.28-.64c.33-.11.65-.18.93-.36.04.14.08.21.15.29-.86.05-.71.5-1.09.73Z"/>
  <path class="st31" d="M19.67,40.41c-.12.17-.26.29-.45.29.04-.14.12-.22.17-.31.09.02.18.03.27.02h.01Z"/>
</svg>