<svg width="1300" height="800" viewBox="0 0 1300 800" fill="none" xmlns="http://www.w3.org/2000/svg">
<path d="M838.5 569.4C837.6 569.4 836.4 569.1 835.5 567.7C835.5 567.7 834.7 566.5 834.6 566.4C834.3 565.9 834 565.5 833.8 565C833.6 564.4 833.5 563.9 833.6 562.1C833.6 561.8 833.6 561.6 833.6 561.4C833.6 561.1 833.6 560.7 833.6 560.5C833.6 559.7 833.9 558.9 834.4 558.3C835.4 556.9 837.5 554.2 839.8 551.2C841.8 548.5 843.9 545.7 845.3 543.9C845.4 543.7 845.6 543.5 845.7 543.4C845 537.9 842.7 531.7 838.5 520L838 518.5L837.2 516.5C835.7 512.5 834.1 508.4 832.4 504.4C830.1 500.4 827.1 495.6 824 492.5C828.9 498.7 832.5 506.3 834.7 515.1V515.3C835.1 517.5 833.8 519.8 831.7 520.3C831.4 520.3 831.1 520.4 830.8 520.4C829.6 520.4 828.5 519.8 827.9 518.8C815.5 499.9 800.7 491.1 781.2 491.1C761.7 491.1 779.3 491.1 778.3 491.1H763.7C763.7 491.1 763.6 491.1 763.5 491.1C763.1 491.1 762.7 491.1 762.3 491.1C758.7 491.1 755.9 492 752.4 496.8C749.9 500.4 747.4 506.1 745.5 512.9C745.5 513 745.5 513.1 745.4 513.2C740.6 525.6 737.7 533.8 737.7 542.4C737.7 542.4 737.7 542.5 737.7 542.6C737.7 543.4 737.7 544.5 739 545.9C743.8 551.1 758.4 553.7 770.1 554C774.5 554 780.2 550.8 786.6 545C787.6 544.1 788.8 543.5 790.1 543.5C791.4 543.5 792.7 544.1 793.4 545.2C793.9 545.9 794.5 547.4 793.6 549.5C786.5 567.2 775.5 568.6 761.9 568.6C748.3 568.6 758.4 568.6 756.5 568.6H754.4H698.4C697.4 568.6 696.4 568.1 695.7 567.4C695.3 566.9 694 565 694 565C694 565 694 565 694 564.9C693.4 563.9 693.4 562.9 693.4 562.5C693.4 562.3 693.4 562.1 693.4 562V561.8C693.4 561.5 693.4 560.9 693.5 560.3C693.5 560.1 693.5 560 693.7 559.8C694.4 558.1 696.1 556.1 702.7 551.4C703.4 550.9 704 550.4 704.7 550C705.2 549.6 705.7 549.3 706.2 548.9C707.3 547.3 711.3 539 726.2 498.9C726.2 498.9 726.2 498.9 726.2 498.8C726.5 498 733.4 480 741.3 459.1C767.4 390.4 780.8 355.3 781.4 354C781.4 354 781.4 353.9 781.4 353.8C789.4 339.5 803 331.9 820.8 331.9H821.1C834.2 331.9 843.8 337.2 849 347.2C849 347.2 849 347.4 849.1 347.5C849.6 348.8 849.5 350.2 848.7 351.4C848 352.5 846.7 353.2 845.5 353.2C844.3 353.2 843.7 352.9 843 352.3C838.7 348.8 832.8 346.7 827.3 346.6C820 347.3 815.4 349.6 814.8 350.7C815.6 353.6 816.6 356.5 817.7 359.4C818.4 361.5 819.2 363.6 819.9 365.7C846.2 442.5 876 527 882.9 544.5C884.7 546.5 888.7 550.8 891.7 554C895.1 557.6 895.6 558.2 895.9 558.5C896.3 559 896.5 559.6 896.6 560.2V560.7C896.9 562.2 897 563.5 897.1 564.3C897.1 564.9 897.1 565.5 896.8 566V566.2C896.6 566.4 896.5 566.6 896.4 566.8C896.2 567.1 895.9 567.4 895.6 567.7L895.3 568C895.3 568 895.2 568.1 895.1 568.2C894.9 568.4 894.4 569 893.5 569.3C893.1 569.4 892.7 569.5 892.3 569.5H838.7L838.5 569.4ZM765 464.6C765.6 464.6 766.2 464.6 766.9 464.6C770.4 464.6 774.9 464.6 779.7 464.6H820.4C806.1 422.3 797.3 396.8 792 382.2C785.7 400 767.9 450.1 762.8 464.6C763.5 464.6 764.2 464.6 765.1 464.6H765Z" fill="#2D1E2F"/>
<path d="M1129.6 601.7C1128.9 601.7 1128.1 601.5 1127.4 601.1C1127.4 601.1 1127.3 601.1 1127.2 601C1109.7 588.7 1098.6 573.8 1094.2 556.8C1094.2 556.7 1094.2 556.6 1094.2 556.5C1094.1 555.8 1093.9 554.8 1091.5 554.5C1090.9 555.3 1090.1 556.4 1089.4 557.3C1083.5 565.4 1080.3 569.2 1076.8 569.2C1076 569.2 1075.3 569 1074.7 568.5C1073.6 567.7 1072.7 565.9 1072.6 565.7C1072.4 565.3 1072.3 564.9 1072.3 564.5C1072.3 564 1072.1 560.4 1072.4 559.1C1072.5 558.6 1072.8 558 1073.1 557.6C1074.3 556.1 1077 547.4 1078.6 542.2C1080.6 535.6 1081.8 531.9 1082.8 530.3C1084.3 525.6 1084.7 491.4 1085.2 461.1C1085.2 454.3 1085.4 447.4 1085.5 440.7C1069.9 449.5 1058.8 461.9 1052.7 477.6C1047.5 491 1040.4 509 1033.5 526.7C1027.7 541.5 1022.1 556 1017.7 567.3C1017.2 568.6 1016 569.5 1014.6 569.5C1014.6 569.5 1014.5 569.5 1014.4 569.5C1013.1 569.5 1011.9 568.8 1011.3 567.6C1008.5 562 1006 555.4 1003.6 549C1001.3 542.9 999 536.7 996.4 531.4C996.4 531.3 996.4 531.2 996.3 531.1C986.3 504.5 968.7 483.9 948.1 474.4C947.8 481.8 947.6 489.1 947.3 496C946.5 518.6 945.7 538.7 945.5 545.3C946.2 545.7 946.9 546.2 947.5 546.6C948.1 547 948.6 547.4 949.1 547.7C949.1 547.7 949.3 547.8 949.4 547.9L950 548.3C957.5 553.4 958.5 554.4 958.7 562.1V562.3C958.8 564.8 958.4 566 956.9 567.8C956.2 568.6 955.2 569.1 954.2 569.1C954 569.1 915.2 569.1 915.2 569.1C914.5 569.1 913.9 569.1 913.4 569.1C912.5 569.1 911.7 569.1 911.1 569.1C910.6 569.1 910.1 569.1 909.8 569.1C908.7 569.1 907 569.1 905.8 567.6C905.7 567.5 905.6 567.3 905.5 567.2C901.1 559.4 907.6 553.6 913.8 548H913.9C913.9 547.8 914.1 547.7 914.2 547.6H914.3C915.367 546.8 916.2 544.733 916.8 541.4C921.5 502.5 922.4 468.1 923.4 428.2C923.9 409.2 924.4 389.5 925.4 366.8C925.6 363 924.9 359.9 923.6 358.3C923 357.6 922.2 357.2 921.1 357.2C920.7 357.2 920.3 357.1 919.9 356.9C916.1 355.2 912.6 354.4 909 354.4C900.7 354.4 892.6 358.7 882.2 365.7C881.6 366.1 880.9 366.3 880.3 366.3C879.7 366.3 878.9 366.1 878.3 365.7C877.1 364.9 876.6 363.4 876.9 362C880.9 345 898.1 336.1 913 336.1C927.9 336.1 915.8 336.1 917.1 336.3C920.2 336.4 922.8 336.6 925.1 336.8C927.6 337 929.7 337.2 931.6 337.2C937.4 337.2 941.8 335.7 950.9 327.4C951.6 326.8 952.4 326.5 953.3 326.5C954.2 326.5 954.9 326.8 955.6 327.3C956.5 328.1 957 329.3 956.9 330.4C954.8 348 961.9 365.6 975.7 397.7C979.9 406.4 987.9 425.4 996.5 445.5C1004.9 465.4 1015.8 491.1 1021.2 502.2C1025.3 492.1 1033.1 472.7 1041.9 451C1057.8 411.7 1079.6 357.9 1080.8 354.6C1082.3 348 1083.2 344.4 1082.9 340.6C1082.9 340.6 1082.1 332.4 1082.1 332.3C1082 331.1 1082.2 330.2 1082.9 329.4C1083.6 328.7 1084.5 328.2 1085.5 328.2C1086.5 328.2 1087.1 328.5 1087.8 329.1C1087.8 329.1 1087.8 329.1 1087.9 329.1C1089.7 330.6 1092.2 332.5 1094.5 334.1C1096.1 335.3 1097.6 336.5 1098.8 337.4C1101.3 338.5 1105.3 338.7 1108.6 338.7C1111.9 338.7 1111.9 338.7 1113.6 338.7C1115.4 338.7 1117.1 338.7 1118.9 338.7C1120.7 338.7 1123.2 338.7 1124.9 338.9C1126 338.9 1127 339.6 1127.5 340.5C1129.1 343 1129.3 346.4 1128.2 349.8C1127.3 352.3 1125.5 355.2 1122.8 356.4C1122.1 356.8 1121.4 357.2 1120.7 357.6C1116.5 360 1115.8 360.8 1116.2 362.5C1116.2 362.7 1116.2 363 1116.2 363.2C1116.2 367.5 1116.2 372.8 1116.2 378.8C1116.3 426.8 1116.6 552.9 1120.4 565.9C1121 566.4 1121.3 567.1 1121.5 567.8C1122.9 574.8 1127.7 585.4 1132.4 594.9C1132.9 595.7 1133.9 597.8 1132.9 599.8C1132.3 601 1131 601.8 1129.7 601.8L1129.6 601.7ZM960.8 465.9C964.3 465.9 967.5 466.3 970.7 467C968.4 460.5 962.9 446.2 950.2 415.4C949.7 429 949 447.7 948.3 466.9C948.7 466.8 949.2 466.7 949.7 466.7C950.2 466.7 950.2 466.7 950.2 466.7C950.2 466.7 950.4 466.7 950.5 466.7C954.7 466.2 957.9 465.9 960.8 465.9ZM1085 396.7C1080.3 408.2 1073.4 425.2 1069.7 435.1C1074.2 433.1 1079 432 1083.7 431.9C1084 431.9 1084.3 431.9 1084.6 431.9C1084.9 431.9 1085.3 431.9 1085.6 431.9C1085.9 417.6 1086.2 403.9 1086.7 392.5C1086.2 393.8 1085.6 395.2 1085 396.8V396.7Z" fill="#2D1E2F"/>
<path d="M1221.7 602.5C1220.9 602.5 1220.1 602.5 1219.4 602.5C1194.7 601.8 1174.7 594.1 1161.6 580.2C1150.1 568 1144.3 551.3 1145 532.1C1142.7 482.8 1142.8 416.1 1142.8 372C1142.8 363.6 1142.8 356 1142.8 349.3C1142.1 347.3 1139.3 345.4 1136.4 343.4C1135.7 342.9 1135 342.4 1134.3 341.9C1131.7 340.6 1131.4 337.8 1131.3 336.7C1131.3 336.6 1131.3 336.5 1131.3 336.4C1131 335.4 1131.3 334.4 1131.8 333.6C1132.4 332.8 1133.3 332.3 1134.3 332.2C1141.8 331.5 1152.3 331.1 1168.5 331.1C1184.7 331.1 1185.3 331.1 1194.4 331.3C1203.6 331.3 1213.2 331.5 1222.3 331.5C1240.6 331.5 1263.2 331.2 1276.1 328.8C1276.3 328.8 1276.5 328.8 1276.7 328.8C1276.9 328.8 1276.9 328.8 1277 328.8C1277 328.8 1277.2 328.8 1277.3 328.8C1280.7 329.3 1282.7 332.6 1282.4 337.5C1282.4 351.7 1281.9 398.2 1271.7 407.1C1271 407.7 1270.2 408 1269.4 408C1268.6 408 1268.4 407.9 1267.9 407.7C1266.6 407.1 1265.9 405.8 1265.9 404.4C1266 401.3 1266.6 398.2 1267.1 394.9C1267.9 390 1268.8 384.9 1268.5 379.5V379.3C1268.7 362 1265.3 349.9 1261.6 347.6C1259.4 347.6 1256.2 347.3 1252.9 347.2C1250.6 347.1 1248.2 347 1246.1 346.9C1246.3 347.1 1246.4 347.3 1246.6 347.5C1249.9 352.1 1254 357.7 1253.6 363.6C1253.6 363.8 1253.6 364 1253.5 364.3C1253 366.2 1251.4 367.5 1249.5 367.5C1247.6 367.5 1246.8 366.7 1246 365.5C1238.5 353.1 1227.8 347.1 1213.1 347.1C1198.4 347.1 1211.6 347.1 1210.8 347.1C1210.8 347.1 1210.8 347.1 1210.7 347.1C1199.9 347.2 1186 349.3 1179.9 358.3C1179.9 359.4 1179.9 360.7 1179.9 362.2C1179.9 364 1179.9 365.9 1179.9 367.4C1180 372 1179.9 377.6 1179.7 383.6C1179.5 391.9 1179.3 400.5 1179.7 406.7C1179.9 406.7 1180.3 406.7 1180.8 406.7C1181.3 406.7 1181.4 406.7 1181.7 406.7C1182.1 406.7 1182.4 406.7 1182.8 406.7C1183.2 406.7 1183.2 406.7 1183.4 406.7C1204.9 407 1227.2 409.2 1243.5 423.5C1244.8 424.6 1245.2 426.3 1244.7 427.9C1244.1 429.4 1242.7 430.4 1241.1 430.4C1240.2 430.4 1239.4 430.1 1238.6 429.6C1235 427.1 1224.4 425.4 1213.3 425.4C1202.2 425.4 1211 425.4 1209.9 425.4C1208.2 425.4 1206.2 425.5 1204.1 425.6C1196.9 425.7 1182 426 1180 430.1C1179.8 455.5 1180 536.9 1189.8 565.7C1199 578.6 1215.2 585.6 1235.5 585.6C1255.8 585.6 1267.3 581.5 1281.1 574.3C1281.6 574 1282.2 573.9 1282.7 573.9C1283.7 573.9 1284.8 574.4 1285.4 575.2C1286.4 576.5 1286.4 578.4 1285.4 579.7C1272.9 594.2 1249.2 602.9 1221.9 602.9L1221.7 602.5Z" fill="#2D1E2F"/>
<path d="M1276.6 332.2C1278.6 332.5 1278.9 335.6 1278.7 337.3C1278.8 364.3 1276.3 398.2 1269.2 404.3C1269.5 397 1272.3 388.5 1271.8 379C1272 364 1269.4 346.7 1262.3 343.8C1256.5 343.6 1242.3 342.8 1239.8 342.8C1237.3 342.8 1239.8 342.8 1239.7 342.8C1241.1 347.5 1250.4 355.7 1249.9 363C1249.9 363.3 1249.6 363.5 1249.3 363.5C1249 363.5 1248.9 363.4 1248.8 363.1C1240.6 349.6 1228.4 343.1 1213 343.1C1212.2 343.1 1211.4 343.1 1210.5 343.1C1194.3 343.3 1181.8 347.5 1176.3 356.8C1176.3 359 1176.2 363.6 1176.3 366.9C1176.6 378.4 1175.3 397.2 1176.3 407.9C1177.7 409.4 1179.1 409.7 1180.8 409.7C1182.5 409.7 1182.1 409.7 1182.8 409.7C1183.5 409.7 1183.1 409.7 1183.3 409.7C1206.8 410 1226.4 412.7 1241.2 425.6C1241.6 425.9 1241.4 426.3 1241.1 426.3C1240.8 426.3 1240.8 426.3 1240.6 426.1C1235.8 422.8 1223.8 421.2 1213.3 421.2C1202.8 421.2 1210.9 421.2 1209.7 421.2C1199.1 421.7 1178.8 420.6 1176.5 428.7C1176.4 448.1 1176.1 536.3 1186.6 566.6C1197.4 582 1215.9 588.4 1235.4 588.4C1254.9 588.4 1268.6 584 1282.6 576.7C1269.3 592.2 1244.7 598.6 1221.8 598.6C1198.9 598.6 1220.3 598.6 1219.5 598.6C1173.8 597.4 1147.2 571.3 1148.5 531.7C1145.7 473.1 1146.4 390.8 1146.3 348.5C1145.4 344.4 1140.6 341.8 1136 338.5C1134.6 338 1134.8 336.2 1134.6 335.3C1142.9 334.5 1154.8 334.3 1168.4 334.3C1182 334.3 1204.2 334.6 1222.2 334.6C1240.2 334.6 1264.5 334.1 1276.7 331.8" fill="#2D1E2F"/>
<path d="M401.1 226.5C410.5 226.5 418.3 229.6 424.6 235.9C426.8 238.8 427.9 241.8 427.9 245.1H427.7L424.6 239.4C419.2 233.8 412 231 402.8 231H400C389.8 231 381.3 236.1 374.6 246.4C372.3 251.2 371.1 255.7 371.1 259.7C371.1 274.5 378 284.5 391.8 289.6C394.6 290.3 396.9 290.7 398.7 290.7H399.1C407.5 290.7 415.5 288.1 423.2 282.9L429.6 276.5H429.8C429 280.2 425.9 284.1 420.7 288.2L416.5 290.3V290.5H416.6C419.4 289.9 423.6 287.5 429.4 283.1C433.7 278.6 436.3 274.7 437 271.7L437.7 270.9H437.8V271.7C437.8 279.7 433.3 286.8 424.2 293C417.6 296.8 410.2 298.7 402 298.7C382.5 298.7 369.6 291 363.2 275.7C361.1 271 360 265.7 360 259.6C360 253.5 362.7 247.2 368 239.9C376.2 230.9 387.2 226.4 401.1 226.4V226.5Z" fill="#F8A637" stroke="#240040" stroke-width="3" stroke-linecap="round" stroke-linejoin="round"/>
<path d="M443 268.5C442.3 268.7 441.7 268.8 441 268.8C440.3 268.8 440.5 268.6 440.2 268.3C439.8 268 439.6 267.7 439.6 267.4C439.6 266.7 439.9 265.8 440.5 264.9C441.5 263.5 443.5 261.8 446.7 259.7C449.5 257.9 451.7 256.7 453.4 256.1C455.8 255.2 457.8 254.8 459.5 254.8C461.2 254.8 463.6 255.2 465.2 256C466.4 256.6 467.6 257.5 468.6 258.8C469.4 259.7 470 260.6 470.4 261.7C470.5 262.1 470.6 262.6 470.6 263C470.6 263.4 470.7 263.7 470.7 264.1L470.4 286.9C470.4 292.2 471.3 294.8 473.2 294.8C475.1 294.8 475.1 294.6 476.5 294.1L478.6 293.3C478.7 293.3 479 293.3 479.3 293.6C479.6 293.9 479.7 294.1 479.7 294.4L479.5 296.3C479.5 296.7 479.3 297.1 478.8 297.5C475.9 299.1 471.9 300 466.6 300.3C464.3 300.3 462.8 298.4 462.1 294.6L458.3 296.3C456.7 297 455.3 297.6 454 298.1L450.3 299.5C449.2 299.9 448.5 300.2 448.2 300.2C447.3 300.2 446.4 300 445.4 299.7C444.2 299.3 443.1 298.7 441.9 297.9C441.1 297.2 440.4 296.1 439.9 294.8C439.2 293.2 438.8 291.4 438.8 289.4C438.8 287.4 440.4 285.2 443.5 283.7C446.1 282.3 449.2 281.1 452.6 280.1C455.5 279.2 458.7 278.5 462.4 277.8C462.4 277.4 462.5 276.9 462.5 276.3C462.5 275.7 462.6 275 462.6 274.2V269.9C462.6 265.8 462 263.1 460.7 261.9C459.5 260.8 457.4 260.3 454.5 260.3C451.6 260.3 452.6 260.3 451.7 260.5L450.1 260.9C449.9 261.1 449.7 261.5 449.6 262C449.5 262.7 449.4 263.9 449.4 265.6C449.4 267.3 449.2 266.8 448.7 266.9L443 268.8V268.5ZM452.9 294.4C454.2 294.4 456.5 293.6 459.7 292.1C461.2 291.1 462 290.2 462.1 289.2L462.4 282.2C462.4 281.3 462.2 280.9 461.9 280.9C455.4 282 451.1 283.4 448.9 285.1C448.5 285.3 448.3 285.7 448.1 286.2C447.9 286.7 447.8 287.4 447.8 288.4C447.8 292.4 449.4 294.5 452.7 294.5H452.8L452.9 294.4Z" fill="#F8A637" stroke="#240040" stroke-width="3" stroke-linecap="round" stroke-linejoin="round"/>
<path d="M480.1 324.2C482.8 323.8 484.8 323 485.9 321.6C486.6 320.7 487.1 319.4 487.4 317.5V316.4C487.6 316 487.6 315.4 487.6 314.9C487.7 313.4 487.9 311.8 487.9 310L488.1 302.4C488.1 299.2 488.2 295.8 488.2 292.2V280.1C488.2 272.6 487.9 267.9 487.4 266C487.3 265.4 487 265 486.5 264.8C485.9 264.5 484.8 264.3 483.2 264.3C482.9 264.3 482.7 264.1 482.4 263.7C482 263.3 481.8 262.6 481.7 261.8C483 260.6 484.9 259.2 487.4 257.4C489.1 256.2 491.1 254.9 493.3 253.4C493.7 253 494.1 252.8 494.5 252.7C494.7 252.7 495 252.7 495.4 252.7C495.7 252.7 495.8 253 495.8 253.4V261C498.7 259.8 501.7 258.5 504.8 257.4C506.5 256.7 507.9 256.2 509 255.9C510.2 255.5 510.9 255.4 511.3 255.4C515.8 255.4 519.7 257 523.1 260.1C525.4 262.2 527.2 264.8 528.4 267.9C529.3 270.4 529.7 273 529.7 275.8C529.7 282 527.3 287.2 522.4 291.4C521.3 292.4 519.5 293.7 516.9 295.1C514 296.8 511.2 298.1 508.5 299.2C507.4 299.6 506.2 299.7 505 299.7C502.1 299.7 499.5 299.3 497 298.6C496.9 298.6 496.7 298.6 496.4 298.8C496.2 299.1 496.1 299.4 496.1 299.8C496.1 300.1 496 300.8 496 301.8C496 302.7 495.9 303.8 495.9 305.2C495.9 307.7 495.8 309.9 495.8 311.8C495.8 316.3 496 319.1 496.4 320.3C496.7 321.3 497.4 321.8 498.4 322H501.2C502.2 322.2 503.4 322.2 504.7 322.2C506 322.2 505.6 322.5 505.4 323L504.8 324.9C504.7 325.7 504.3 326.1 503.6 326.1C502.6 326.1 500.9 326.1 498.6 326.3L481 327.2C480.9 327.2 480.7 327.1 480.6 326.9L479.8 324.4L480.1 324.2ZM522 279.1C522 274 520.4 269.8 517.3 266.5C514.1 262.9 510.5 261.1 506.3 261.1C502.1 261.1 499.2 262.3 496.4 264.6C496.1 264.8 496 265.7 496 267.1V273.9C496 276.7 496.1 279.4 496.3 282L497 289.2C497.1 290.1 497.6 290.7 498.3 291.2C501.3 293.2 504.8 294.2 508.8 294.2C512.8 294.2 514.6 293.3 517 291.4C518.4 290.4 519.6 288.9 520.5 286.9C521.5 284.7 522 282.1 522 279.2V279.1Z" fill="#F8A637" stroke="#240040" stroke-width="3" stroke-linecap="round" stroke-linejoin="round"/>
<path d="M551 248C551.1 248 551.2 248.2 551.2 248.7L550.7 256.9C551.9 256.9 553.3 256.9 554.9 256.8L566.3 256.4C567.1 256.4 567.5 256.8 567.5 257.6C567.5 258.4 567.3 259.8 566.8 261.3C566.7 262 566.1 262.3 565.2 262.3H559.1C557.6 262.4 556.2 262.4 555.1 262.5C553.6 262.5 552.2 262.5 550.9 262.6C550.5 262.6 550.3 263.1 550.2 264.1C550.1 266.2 550 269.7 550 274.9V286.7C550 291.7 552.7 294.2 558.1 294.2C563.5 294.2 562.5 293.4 565 291.8C565.5 291.5 565.8 291.5 565.9 291.9C566.1 292.6 566.2 293.3 566.2 294C566.2 294.7 565.9 294.9 565.4 295.2C564.1 296 563 296.6 562.2 297C561 297.7 559.9 298.2 558.9 298.5C556.4 299.5 554 300 551.6 300C549.2 300 548.9 299.7 547.5 299.2C545.7 298.6 544.2 297.7 543.2 296.4C542 294.9 541.4 292.2 541.7 288.4C541.7 287.1 541.8 285.1 541.8 282.6V275.2C541.9 272.1 541.9 269.9 542 268.5C542 266.3 542 264.9 542.1 264.2C542.1 263.8 542.1 263.5 541.9 263.1C541.7 262.8 541.4 262.7 541.1 262.7H536.6C536.5 262.5 536.3 262.3 536.2 262C536 261.6 535.9 261.4 536.1 261.3C537.9 259.7 540.4 257.4 543.4 254.5C545.9 252.2 547.9 250.2 549.5 248.7C549.9 248.2 550.3 247.9 550.7 247.9H550.8L551 248Z" fill="#F8A637" stroke="#240040" stroke-width="3" stroke-linecap="round" stroke-linejoin="round"/>
<path d="M583.4 255C584 255 584.4 255.6 584.6 256.8C584.7 258 584.7 260.6 584.5 264.5L584.1 274.8C584 279.6 583.9 283.5 583.9 286.5C583.9 289.5 585 290.8 587.1 292.1C588.9 293.3 590.8 293.9 592.8 293.9C596.3 293.9 599.8 292.6 603.3 290.3C603.7 290 603.9 289.8 604.1 289.5C604.2 289.1 604.4 288.6 604.4 288C604.9 284.1 605.2 279.6 605.2 274.5C605.2 269.4 605.2 268.1 605 266.4C604.9 264.8 604.6 263.6 604.1 263C603.7 262.3 601.8 261.6 598.4 260.7C598 260.7 597.7 260.4 597.5 260L597.1 257.9C597.1 257.7 597.2 257.6 597.5 257.6C597.9 257.6 599.7 257.3 603 256.9C606.8 256.5 609.7 256.2 611.6 256.2C613.5 256.2 613.1 256.6 613.4 257.5V259.2C613.6 259.9 613.6 261 613.5 262.4L613.3 267.9C613.2 270.6 613.1 273.4 613.1 276.1V286.8C613.1 288.3 613.1 289.7 613.3 291.2L613.6 293.5C613.6 293.9 614 294.1 614.5 294L620.2 292.8C620.4 292.8 620.7 292.8 621 293C621.3 293.3 621.4 293.5 621.3 293.8L620.4 297C620.2 297.4 620 297.6 619.7 297.6C617.4 297.7 614.6 298.2 611.3 298.9L606.2 300.2C605.8 300.2 605.5 300.2 605.4 300.1C605.1 300.1 604.9 299.9 604.6 299.7C604.1 299.1 603.8 298.6 603.8 298.3L604 293.6L594.1 298.7C592 299.8 589.7 300.3 587.2 300.3C582.7 300.3 579.4 298.6 577.2 295.1C576.3 293.7 575.9 291.4 575.9 288.1L576.1 265.5C576.1 264 574.7 262.5 571.8 261.2C571.4 261 571.2 260.8 571.1 260.6C570.9 260.3 570.7 259.9 570.7 259.4C570.7 258.5 570.8 258 571.4 257.9L581.2 255.5C582.4 255.3 583.1 255.2 583.3 255.2H583.4V255Z" fill="#F8A637" stroke="#240040" stroke-width="3" stroke-linecap="round" stroke-linejoin="round"/>
<path d="M628.7 295.5C630.8 294.8 631.9 293.9 632 293C632.1 292.1 632.2 287.5 632.2 279.1V269.2C632.2 267.1 630.7 265.6 627.7 264.7C627.3 264.6 626.9 264.2 626.6 263.6C626.4 263.1 626.3 262.6 626.5 262.3L632.8 258.3C635.5 256.8 637.5 255.6 638.6 254.8C639.2 254.5 639.6 254.4 639.9 254.4C640.2 254.4 640.3 254.6 640.4 255C640.6 255.4 640.7 255.8 640.6 256.2L640.3 260.4C640.3 262.1 640.3 263.6 640.3 264.9C640.7 264.7 641.5 264.2 642.6 263.4L645.7 261.2L650.6 257.5C651.9 256.5 653 256 653.8 256C655.2 256 656.6 256.5 657.9 257.6C659.2 258.7 659.9 259.9 659.9 261.1C659.9 262.3 659.4 263 658.4 264.3C658 264.9 657.6 265.4 657.2 265.9C656.8 266.3 656.4 266.7 656.2 266.9C656.2 266.9 656 267 655.9 267C655.9 267 655.8 267.1 655.7 267.2C655.6 267.3 655.4 267.4 655.3 267.4C655 267.6 654.7 267.7 654.4 267.7C653.8 267.7 653.3 267.4 653 266.9C651.8 265.2 650.4 264.4 648.8 264.4C647.2 264.4 644.2 265.6 641.4 268.1C640.7 268.7 640.4 271.1 640.4 275.4V289.2C640.4 291.8 640.5 293.4 640.8 293.9C641.2 294.5 641.8 294.7 642.8 294.7L648.7 294.5C648.9 294.5 649.1 294.6 649.4 294.8C649.5 295 649.6 295.2 649.6 295.5L648.9 298.9H628.9C628.9 299 628 299.1 628 299.1C627.4 299.1 627.3 298.8 627.7 298.1L628.7 295.6V295.5Z" fill="#F8A637" stroke="#240040" stroke-width="3" stroke-linecap="round" stroke-linejoin="round"/>
<path d="M685 255C688.6 255 691.6 256.3 694.1 259C696.2 261.1 697.6 263.5 698.5 266.3L700.5 265.9C701.3 265.8 701.8 265.8 701.9 266C702.2 266.1 702.3 266.5 702.1 267C702.1 267.3 701.9 267.6 701.8 267.9L701.4 268.9C701 269.7 700.5 270.1 700.1 270.2L689.2 272.6C689 272.6 688.8 272.6 688.8 272.7L678.8 274.8L673.7 276.1C673.2 276.1 672.9 276.8 672.9 278.1C673 283.3 674.4 287.2 677 289.9C679.3 292.3 682.5 293.5 686.4 293.5C690.3 293.5 695.4 291.7 699.5 288.1C699.8 287.9 700.2 287.8 700.6 287.8C701 287.8 701.3 287.8 701.3 288C701.3 290.1 700.9 291.5 700.3 292.1C698.1 293.9 695.7 295.5 693.1 296.8C691 297.8 688.8 298.7 686.6 299.3C685.4 299.7 684.1 299.8 682.5 299.8C679.2 299.8 676.1 299 673.1 297.3C672 296.7 671 296.1 670.1 295.3C669.7 295 669.4 294.7 669.1 294.3L668.4 293.6C667.2 292.3 666.1 290.6 665.3 288.6C664.1 285.8 663.4 282.8 663.4 279.7C663.4 275.2 664.6 270.9 666.9 267C669 263.6 671.6 260.8 674.9 258.4C678.1 256.1 681.4 254.9 684.7 254.9H684.8L685 255ZM690 267.3C690 265.6 689.1 263.9 687.4 262C685.5 260.1 683.4 259.1 681.2 259.1C679 259.1 679.4 259.5 678.4 260.2C674.9 262.6 673.3 266.7 673.6 272.5C675.4 272 678 271.4 681.2 270.7L684.9 269.9C686.3 269.6 687.5 269.3 688.6 269C689 268.9 689.4 268.7 689.6 268.5C689.8 268.3 689.9 267.9 689.9 267.3H690Z" fill="#F8A637" stroke="#240040" stroke-width="3" stroke-linecap="round" stroke-linejoin="round"/>
<path d="M792.6 255.3C792.6 245.4 792.6 238.9 792.5 235.7L792.3 232.2C792.3 231.6 792.3 231.3 792.1 231.3H783.2C778.7 231.3 774.9 231.6 771.7 232.3C770.5 232.5 769.5 232.8 768.6 233.1C767.9 233.3 767.5 233.5 767.2 233.6C766.3 234.2 765.1 236.7 763.6 241.2C763.6 241.6 763.3 241.6 762.6 241.3C762.2 241.1 761.7 240.7 761.1 240.2L759.9 239.1C760.9 237 761.8 235 762.7 232.8C763.9 229.8 765.1 226.5 766.2 222.8C766.6 222.8 767.3 222.8 768.3 223C768.9 223.1 769.2 223.4 769.3 223.8C769.3 225.6 769.6 226.7 770.3 226.9C771.2 227.1 772.9 227.2 775.4 227.2C777.6 227.2 783.5 227.3 793.1 227.3H801.8C805 227.3 807.8 227.3 810.5 227.2C817 227.2 823.6 227 830.4 226.8C831.6 226.8 833.2 226.2 835.1 225.2C836.3 224.5 837.9 223.5 840 222C840.7 221.7 841.2 221.7 841.5 222.1C841.6 222.2 841.7 222.6 841.7 223.3V233.1C841.6 233.1 841.4 238.6 841.4 238.6V260.5C841.4 260.6 841.4 260.8 841.6 261.1C841.8 261.2 842 261.3 842.1 261.2L850.9 257.4C852.1 256.9 853 256.5 853.7 256.3C855.9 255.6 857.9 255.2 859.8 255.2C864.3 255.2 867.6 257 869.6 260.5C871.1 263.4 871.9 267.4 871.9 272.7L871.6 285.4V290.7C871.6 293.3 873.2 295 876.3 295.9C877 296 877.4 296.3 877.4 296.7V298.5C877.4 299 877.1 299.3 876.6 299.3H868.8C866.6 299.3 864.3 299.3 861.8 299.5L858.4 299.8C858 299.8 857.8 299.8 857.7 299.9C857.5 299.9 857.3 299.8 857.3 299.6C857.3 299.4 857.2 299 857.2 298.4V297.1C857.2 297 857.2 296.8 857.4 296.7L860.5 295.5C862 294.7 863 293.2 863.3 291.1C863.5 289 863.7 286.8 863.7 284.6V278.7C863.7 274 863.3 270.5 862.5 268C861.9 266.2 860.9 264.8 859.5 263.7C857.6 262.3 855.4 261.6 852.9 261.6C850.4 261.6 846.2 262.6 842.6 264.6C841.7 265 841.3 266.1 841.3 268V279.8C841.3 284.8 841.5 288.8 842 291.8C842.3 293.9 844.2 295.2 847.7 295.5C847.9 295.5 848.1 295.6 848.1 295.9C848.2 296.2 848.4 296.9 848.4 298.1C848.4 298.8 848.1 299.1 847.9 299.1H836.6C833.2 299.2 830.4 299.5 828.2 299.9C827.6 299.9 827.3 299.9 827.2 299.7L826.5 297.9C826.4 297.5 826.5 297.1 826.7 296.9C829.6 295.6 831.4 294.3 832 293.2C832.6 291.9 832.9 288.7 832.9 283.5V239.5C832.9 236.6 832.6 234.8 831.9 233.9C831.2 233.1 829.4 232.6 826.7 232.4C824.1 232.2 821.8 232 819.9 232C817 231.9 814.1 231.8 811.1 231.8H803.9C802.9 231.8 802.4 232.8 802.4 234.8L802.1 247.5V267.8C802.1 275.1 802.1 280.6 802.3 284.3C802.4 287.2 802.6 289.3 802.9 290.3C803.3 292.3 804.1 293.6 805.3 294.3C806.2 294.8 807.5 295.3 809.4 295.6C810.8 295.9 812.2 296.1 813.7 296.3C814.2 296.3 814.4 296.4 814.4 296.7L814 298.9C814 299.3 813.6 299.6 813 299.6L808 299.4H793.2C793.2 299.3 782.6 299.7 782.6 299.7C781.8 299.7 781.3 299.4 781.2 298.8L780.9 296.4L787.3 295.5C790.1 295 791.7 293.7 792 291.8V290.9C792.2 290.5 792.2 290 792.2 289.5C792.3 288.1 792.5 286.5 792.5 284.7C792.6 282.4 792.8 280 792.8 277.3C792.8 274.1 792.9 270.6 792.9 267V255.9L792.6 255.3Z" fill="#F8A637" stroke="#240040" stroke-width="3" stroke-linecap="round" stroke-linejoin="round"/>
<path d="M905.7 255C909.3 255 912.3 256.3 914.8 259C916.9 261.1 918.3 263.5 919.2 266.3L921.2 265.9C922 265.8 922.5 265.8 922.6 266C922.9 266.1 923 266.5 922.8 267C922.8 267.3 922.6 267.6 922.5 267.9L922.1 268.9C921.7 269.7 921.2 270.1 920.8 270.2L909.9 272.6C909.7 272.6 909.5 272.6 909.5 272.7L899.5 274.8L894.4 276.1C893.9 276.1 893.6 276.8 893.6 278.1C893.7 283.3 895.1 287.2 897.7 289.9C900 292.3 903.2 293.5 907.1 293.5C911 293.5 916.1 291.7 920.2 288.1C920.5 287.9 920.9 287.8 921.3 287.8C921.7 287.8 922 287.8 922 288C922 290.1 921.6 291.5 921 292.1C918.8 293.9 916.4 295.5 913.8 296.8C911.7 297.8 909.5 298.7 907.3 299.3C906.1 299.7 904.8 299.8 903.2 299.8C899.9 299.8 896.8 299 893.8 297.3C892.7 296.7 891.7 296.1 890.8 295.3C890.4 295 890.1 294.7 889.8 294.3L889.1 293.6C887.9 292.3 886.8 290.6 886 288.6C884.8 285.8 884.1 282.8 884.1 279.7C884.1 275.2 885.3 270.9 887.6 267C889.7 263.6 892.3 260.8 895.6 258.4C898.8 256.1 902.1 254.9 905.4 254.9H905.5L905.7 255ZM910.7 267.3C910.7 265.6 909.8 263.9 908.1 262C906.2 260.1 904.1 259.1 901.9 259.1C899.7 259.1 900.1 259.5 899.1 260.2C895.6 262.6 894 266.7 894.3 272.5C896.1 272 898.7 271.4 901.9 270.7L905.6 269.9C907 269.6 908.2 269.3 909.3 269C909.7 268.9 910.1 268.7 910.3 268.5C910.5 268.3 910.6 267.9 910.6 267.3H910.7Z" fill="#F8A637" stroke="#240040" stroke-width="3" stroke-linecap="round" stroke-linejoin="round"/>
<path d="M181.1 614.5C180.5 614.5 180 614.4 179.5 614.1C151.4 599.5 127.7 582 107.1 560.4C88.9 541.3 72.2 518.3 54.6 487.9C19.7 430.6 20.4 350.1 20.9 285.4C20.9 275.1 21.1 265.5 21 256.1C21 255.1 21.4 254.1 22.2 253.5C22.8 252.9 23.7 252.6 24.5 252.6C25.3 252.6 24.5 252.6 24.6 252.6C26 252.6 37.9 252 45.8 251.5C49.3 251.3 52.4 251.1 54.3 251.1C54.3 251.1 54.4 251.1 54.5 251.1C65.8 251.1 86.7 244.4 108.7 237.3C134.4 229.1 160.9 220.6 178.3 220.6C195.7 220.6 179.3 220.6 179.8 220.6C179.8 220.6 179.8 220.6 179.9 220.6C208.5 222.5 219.1 226 242.5 234.2H242.7C267.2 245 316 254.2 338.9 254.2H339.8C340.7 254.2 341.6 254.6 342.3 255.2C343 255.9 343.3 256.8 343.3 257.8C342.8 273.1 342.9 288.2 342.9 302.8C343 352.7 343.1 399.9 324.8 451.3C298.2 523.9 236.8 593.9 182.1 614.2C181.7 614.3 181.3 614.4 180.9 614.4L181.1 614.5Z" fill="#221126"/>
<path d="M327.1 274.1V271H323.9C303.4 271.5 276.3 262.7 250.1 254.2C238.1 250.3 225.9 246.4 214.1 243.2C213.8 243.6 213.6 243.9 213.6 244.2C213.6 245.5 214.8 247.9 217.3 250.6C227.5 253.5 237.9 256.8 248.2 260.2C274.8 268.8 300 276.9 321 277.3C322.6 366.2 315 429.4 299.1 460.3C262.2 530 223.7 573 181.4 591.5C115.4 558 50.9 463.2 45.8 391.5C42.7 363.7 42.8 334.8 43 306.8C43 296.9 43.1 286.6 43 276.7C67.4 276.4 92.6 267.5 117.1 258.9C128.6 254.9 139.7 251 150.4 248C152.9 245.4 154.7 242.8 154.7 241.3C154.7 241.1 154.5 240.8 154.3 240.6C141.7 243.7 128.5 248.3 115 253.1C90 261.9 64.1 271 39.9 270.5H36.7V273.7C36.9 284.5 36.7 295.3 36.7 306.8C36.6 335 36.4 364.1 39.5 392.1C44.8 467.3 110.4 563.3 179.8 597.7L181.1 598.3L182.4 597.7C226.6 578.9 266.5 534.9 304.5 463.1C321.4 430.4 329 366.8 327.1 274V274.1Z" fill="#F7B32B"/>
<path d="M225.2 443.9C225.9 441 226.5 437.4 226.9 434.3C197 429 170.9 428.3 145.4 432C142.4 432.3 139.4 432.8 136.6 433.3C135.9 433.4 135.3 433.5 134.6 433.6C134.8 435.7 135.3 438.5 136 441.7V442.1C138.9 457.5 153 470 160.8 470C161.4 470 162.1 470 162.9 470C162.2 469.6 161.8 469.3 160.4 467.9C153.8 461.6 147 450.9 144.6 439.1V438.7C144.4 437.8 144.4 437.3 144.8 436.9C146.1 436.5 150.4 435.9 156.3 435.2C170.7 433.2 194.4 434.1 206.7 437C207.4 437.4 206.9 438.8 206.8 440.2C206.2 445.8 203.9 459.4 196.7 466.9C195.4 468.3 194.1 469.3 192.8 470.2C196 470.2 199.1 470.2 201.8 470C211.1 468 221.8 459.2 225.2 443.9Z" fill="#2F1C33"/>
<path d="M162.2 400.1C162.4 399.5 162.2 398 161.1 397.3C160.8 397.1 160.1 396.8 159.8 396.6C144.7 392.6 134.3 382.4 128.8 367C127.7 364.1 126.8 360.8 126.7 358.6C126.7 358.9 125.7 349.2 127.3 340.7C127.8 337.6 129.1 333.6 129.4 330.8C129.6 328.2 129.4 323.9 129.2 321.5C129 319.7 128.9 319 128.4 318.2C127.3 315.8 128.1 315.3 130.5 316.7C134.3 318.9 137.8 321.5 140.1 325.1C141.8 327.7 143.6 331.5 145 334.4C145.3 335.2 146 335.8 147 334.4C149.9 329.5 152.7 325 156.8 320C161.5 314 163.7 309.2 163.5 299.9C163.5 297.5 163.5 295.9 163.5 293.7C163.5 287.5 163.1 283 166.5 276.9C169.3 272.3 174.2 267.3 177.3 263.3C180.7 258.8 178.9 276 179.2 277.1C179.4 282.9 182.1 290.2 187.3 295.6C192.9 301.3 204.9 308.4 206.8 316C207 316.7 207.2 317.4 207.6 318.5C208.4 321 208.4 324 208.7 326.4C208.8 326.8 208.9 327.3 209.4 327.5C209.8 327.5 209.9 327.7 210.7 327.1C213.7 324.5 218.8 320.4 218.5 315.6C218.8 314 218.9 311.4 219.1 310.2C219.3 309.7 219.4 308.9 220.1 308.7C220.5 308.7 220.7 308.7 221.3 309.5C223.7 312.5 225.4 314.1 227.2 318.5C234.8 338.5 234.4 376.8 215.9 390.6C213.8 392 206.7 396.8 206.6 396.9C206.6 396.9 206.4 397 206.4 397.1C205.1 398.6 206.2 400.2 207.1 401.7H223.9C222.8 401.6 221.7 401.4 220.6 401.4C220.5 401.4 220.4 401.4 220.2 401.4C219.4 401.5 218.7 401 218.5 400.3C218.4 399.6 218.7 399 219.3 398.7C234.3 391.5 249.5 381.7 254.5 364.9C255.8 360.7 257 356.5 258 352.2C255 354.2 252 356 248.9 357.7C247.5 358.3 246.3 358.7 244.7 358.5C237.3 356.5 242.8 348.3 243.9 343.8C248 331.2 249.6 317.1 245.4 304.3C243.5 299.1 240.2 294.7 237 290.2C233.7 284.8 230.9 280 227.5 274.4C225.8 270.8 225.5 266.7 225.8 262.7C225.2 263.4 224.6 264.1 224.2 264.8C221.1 269.7 221.3 276.2 221.1 282C221.4 288.9 218.1 295.4 210.2 295.5C197.5 296.6 194.4 281.6 198.3 272.4C206 253 199.5 233.7 183.2 221.1C181.2 219.4 179.2 217.7 177.1 216C177.1 216.2 177.2 216.3 177.3 216.5C180.6 228.3 178.2 238.8 168.8 246.8C156.4 259.5 143.3 269.8 147.1 287.8C148.8 293.7 150.8 302.7 145.2 307.2C142 309.2 139.1 308.7 136.2 307.2L137.4 307.6C128.1 304.7 124.7 293.4 125.3 284.6C125.3 283.7 125.3 282.7 125.3 281.8C124.4 283 123.4 284.2 122.6 285.3C120.1 288.8 116.3 295.5 115 297.9C111.3 307.1 108.6 316.2 108.7 326C108.7 330 108.8 334.6 109 338.6C110 349.3 114.9 360.1 119.9 369.6C116.3 368.5 107.9 365.8 102 363.9C103 368 104.7 371.3 106.9 374.9C109.9 379.6 112.8 384.3 117.2 388C121.2 391.4 126.6 394.9 131.3 397.4C136.4 399.3 142.7 399.7 148.3 400.3C149.1 400.3 149.2 401.6 148.4 401.8H161.7C161.7 401.3 161.9 400.8 162 400.4L162.2 400.1ZM191.2 296.9C191.2 296.9 191.2 296.9 191.2 297C191.2 297 191.2 296.9 191.2 296.8V296.9Z" fill="#DE4100"/>
<path d="M206.6 396.9C206.6 396.9 206.8 396.8 206.8 396.7C206.9 396.7 214 391.8 216.1 390.4C234.5 376.5 234.9 338.3 227.4 318.3C225.5 313.9 223.9 312.4 221.5 309.3C220.9 308.6 220.7 308.6 220.3 308.5C219.5 308.7 219.4 309.5 219.3 310C219.2 311.2 219 313.8 218.7 315.4C218.9 320.2 213.9 324.3 210.9 326.9C210.1 327.5 210 327.4 209.6 327.3C209.1 327.1 209 326.6 208.9 326.2C208.6 323.8 208.6 320.8 207.8 318.3C207.5 317.2 207.3 316.5 207 315.8C205.1 308.3 193 301.1 187.5 295.4C182.3 289.9 179.5 282.7 179.4 276.9C179.1 275.9 180.9 258.6 177.5 263.1C174.3 267 169.4 272 166.7 276.7C163.3 282.8 163.7 287.3 163.7 293.5C163.7 295.7 163.7 297.3 163.7 299.7C163.8 309 161.6 313.8 157 319.8C152.9 324.8 150.2 329.3 147.2 334.2C146.2 335.5 145.5 335 145.2 334.2C143.8 331.3 142 327.5 140.3 324.9C138 321.2 134.5 318.7 130.7 316.5C128.3 315.1 127.5 315.6 128.6 318C129.1 318.8 129.2 319.5 129.4 321.3C129.6 323.8 129.8 328 129.6 330.6C129.3 333.3 127.9 337.4 127.5 340.5C125.9 349.1 127 358.8 126.9 358.4C126.9 360.6 127.9 364 129 366.8C134.5 382.2 144.9 392.4 160 396.4C160.3 396.6 161 396.9 161.3 397.1C162.4 397.9 162.6 399.3 162.4 399.9C162.4 400.3 162.2 400.8 162.1 401.3H207.4C206.5 399.8 205.5 398.2 206.7 396.7L206.6 396.9ZM162.2 365.7C158.6 365.7 155.7 361.2 155.7 355.6C155.7 350 158.6 345.5 162.2 345.5C165.8 345.5 168.7 350 168.7 355.6C168.7 361.2 165.8 365.7 162.2 365.7ZM198.6 353.2C198.6 347.6 201.5 343.1 205.1 343.1C208.7 343.1 211.6 347.6 211.6 353.2C211.6 358.8 208.7 363.3 205.1 363.3C201.5 363.3 198.6 358.8 198.6 353.2Z" fill="#F7B32B"/>
<path d="M205.1 363.3C208.69 363.3 211.6 358.778 211.6 353.2C211.6 347.622 208.69 343.1 205.1 343.1C201.51 343.1 198.6 347.622 198.6 353.2C198.6 358.778 201.51 363.3 205.1 363.3Z" fill="#4F1402"/>
<path d="M162.2 345.5C158.6 345.5 155.7 350 155.7 355.6C155.7 361.2 158.6 365.7 162.2 365.7C165.8 365.7 168.7 361.2 168.7 355.6C168.7 350 165.8 345.5 162.2 345.5Z" fill="#4F1402"/>
<path d="M231.5 397.9C233.5 397.1 235.6 396.1 237.5 395.1C243 392 247.4 387.7 251.4 382.9C259.2 373 261.1 360.7 264.8 349C266 343.4 260.5 347 258.9 347.5C255.4 348.7 252.3 350.1 248.9 351.6C251.6 345.2 253.8 338.5 255 331.7C257.7 316.9 255.8 300.1 246.8 287.6C242.7 282.1 237.3 277 233.9 271.2C233.5 270.4 233.3 269.8 233 268.8L232.4 265.6C232.1 263.8 232.4 261.6 232.8 259.4C233 258.3 233.1 257.2 233.2 256C233.2 255.1 233.2 253.9 232.8 253C232.6 252.6 232.5 252.3 232.1 252C232.1 252 231.9 252 231.8 251.8C231.6 251.8 231.4 251.6 231.1 251.7C230 251.8 229.6 252.1 228.8 252.5C226.5 253.5 224.6 255.4 222.8 257.3C220.5 259.9 218.2 263.1 217 266.5C215.2 271.5 215.1 276.6 214.7 281.6C214.4 285 214.4 288.5 210.3 288.2C208.4 288.2 206.6 287.9 205.7 285.9C203.1 281.1 206 275.1 207.6 270.2C209.7 263.6 210.4 256.4 209.5 249.5C206.5 228.8 190.2 211.5 170.3 206.4C170 206.4 169.7 206.3 169.5 206.2C169.3 206.2 169.2 206.2 168.9 206.1C167.5 205.7 166.6 207.8 167.9 208.5C169 209.2 169.9 211.1 170.8 212.7C172.5 215.9 172.4 219.3 172.4 223C172.4 228.1 171.1 233.3 167.6 237.1C149.6 254.5 131.9 266.7 140.7 294.7C141 296.6 141.2 298.5 140.8 300.3C138.3 299.8 136.3 298.3 134.8 295.8C132.8 292.6 132.2 288.1 132.1 284.3C131.7 279.6 131.8 274.4 130.5 269.8C130.1 268.7 129.2 268.1 128.3 268C127.2 268 126.2 268.3 125.7 269.2C125.5 269.6 125.4 270 125.3 270.5C124.9 271.8 124 273 123.2 274.1C122.2 275.4 121 276.9 119.7 278.1C114.9 282.6 111.5 288.6 108 294.1C105.4 299.8 103.1 305.6 101.6 311.7C99.6 319.9 99.5 328.5 100.1 336.9C100.8 344.8 103.8 351.9 107.3 358.7C102.4 357.6 96.8 356.4 95.4 356.1C95.7 358.6 96 362.1 96.3 364.5C97.2 372.5 101.8 379.6 106.2 386C111.7 393.6 119.7 398.1 128.3 401.3H148.8C149.6 401.2 149.5 399.8 148.7 399.8C143.1 399.3 136.8 398.9 131.7 396.9C127.1 394.4 121.7 390.9 117.6 387.5C113.2 383.9 110.3 379.1 107.3 374.4C105.1 370.7 103.4 367.5 102.4 363.4C108.4 365.3 116.7 367.9 120.3 369.1C115.3 359.6 110.4 348.8 109.4 338.1C109.2 334.1 109.1 329.5 109.1 325.5C109.1 315.7 111.7 306.5 115.4 297.4C116.7 295 120.5 288.3 123 284.8C123.9 283.7 124.8 282.5 125.7 281.3C125.7 282.3 125.7 283.2 125.7 284.1C125.1 292.8 128.4 304.2 137.8 307.1L136.6 306.7C139.5 308.2 142.4 308.7 145.6 306.7C151.2 302.2 149.2 293.2 147.5 287.3C143.7 269.3 156.8 259 169.2 246.3C178.6 238.3 181 227.8 177.7 216C177.7 215.8 177.6 215.7 177.5 215.5C179.5 217.2 181.6 218.9 183.6 220.6C200 233.2 206.5 252.5 198.7 271.9C194.8 281.1 198 296.1 210.6 295C218.5 295 221.8 288.4 221.5 281.5C221.8 275.8 221.5 269.2 224.6 264.3C225.1 263.5 225.6 262.8 226.2 262.2C225.9 266.1 226.2 270.3 227.9 273.9C231.3 279.5 234 284.3 237.4 289.7C240.6 294.2 243.8 298.6 245.8 303.8C250 316.6 248.4 330.6 244.3 343.3C243.2 347.9 237.7 356.1 245.1 358C246.7 358.2 247.9 357.8 249.3 357.2C252.4 355.5 255.4 353.7 258.4 351.7C257.4 356 256.2 360.2 254.9 364.4C249.9 381.2 234.7 391 219.7 398.2C219.1 398.5 218.8 399.1 218.9 399.8C219 400.6 219.4 401.3 220.2 401.2C220.3 401.2 221.7 401.2 221.8 401.2C222.9 401.2 223.1 401.1 224.2 401.2" fill="#240040"/>
<path d="M239.6 413.4C234.1 410.6 223.9 409 213.3 408C214.7 411.8 213.7 418.6 212.7 423C220.8 424.1 229.2 425.5 237.9 427.3H238.1C238.3 427.5 238.8 427.6 239 427.3C239.8 426.4 240.4 422.1 240.7 419.7C240.8 418.7 240.9 417.8 241.1 416.9V416.6C241.4 415.4 241.4 414.8 241.3 414.7C241.3 414.5 240.7 413.9 239.6 413.4Z" fill="#2F1C33"/>
<path d="M189 482.2C188.5 482.2 188 482.2 187.5 482.2C188.4 484.9 188.6 487.8 188.6 489.3H197.2C197.6 489.3 198.4 488.9 198.7 488.5L198.9 488.3C199.2 488 199.7 486.4 199.6 484.4C199.6 483.4 199.6 482.9 199 482.1C197.5 482.1 195.9 482.1 194.3 482.1C192.7 482.1 190.7 482.1 188.9 482.1L189 482.2Z" fill="#2F1C33"/>
<path d="M193.9 502.7C193.9 501.1 194.1 499.7 194.2 498.4H174.4C172.2 498.4 170.1 498.4 168 498.4C168 499.7 168.1 501.2 168.2 502.8C168.2 502.2 168.6 502.3 170 502.3C173.6 502.3 179 502.3 182.4 502.3C182.7 502.3 182.9 502.3 182.9 502.9C182.8 506 182.8 540 182.4 549.8C180.3 550 174.6 549.9 172.3 549.9C171.2 549.8 170.7 550.3 170.3 549.5C170.3 549.5 170.3 549.3 170.3 549.2C170.3 549.9 170.3 550.6 170.3 551.2H192.1H191.7C191.8 542.2 193.3 517.5 194.2 502.7H193.9Z" fill="#2F1C33"/>
<path d="M206.9 440.2C206.9 438.8 207.5 437.4 206.8 437C194.5 434.2 170.8 433.2 156.4 435.2C150.4 435.9 146.2 436.5 144.9 436.9C144.5 437.2 144.6 437.7 144.7 438.7V439.1C147.1 450.9 153.9 461.6 160.5 467.9C161.9 469.2 162.3 469.6 163 470C166.8 470 172.9 470 177 470C178.6 470 180 470 181.1 470.2V470C183.5 470 186.3 470 189.1 470C190.4 470 191.6 470 192.9 470C194.3 469.2 195.6 468.1 196.8 466.7C204.1 459.2 206.3 445.7 206.9 440V440.2Z" fill="#534656"/>
<path d="M172 551.3C174.3 551.3 180 551.3 182.1 551.3C182.5 541.2 182.5 506.3 182.6 503.1C182.6 502.6 182.4 502.6 182.1 502.5C178.8 502.5 173.3 502.5 169.7 502.5C168.3 502.5 168 502.5 167.9 503C168.6 517.2 169.6 540.1 169.8 550.6C169.8 550.7 169.8 550.8 169.8 550.9C170.2 551.7 170.7 551.2 171.8 551.4L172 551.3Z" fill="#534656"/>
<path d="M185 482.2H181.1C180.8 482.2 179.2 482.2 176.9 482.2C172.8 482.2 166.7 482.2 162.9 482.2C162.6 483.2 162.4 484.3 162.4 485.4C162.4 486.6 162.6 488.1 163.5 489.2C166.9 489.2 170.5 489.2 174.3 489.2H188.6C188.6 487.7 188.3 484.8 187.5 482.1C186.7 482.1 185.8 482.1 185 482.1V482.2Z" fill="#534656"/>
<path d="M213.3 408C202.5 407 191.3 406.7 184.7 406.5H182.1H179.5C172.3 406.7 153.2 407.2 148.7 407.9C141 408.6 124.1 412.2 123.1 412.4H122.7C122.5 413.4 122.7 415.8 123.3 419.5V419.9C123.6 422 123.9 424 124.2 425.6C124.2 425.6 124.4 425.6 124.5 425.6C128.3 425.6 132.1 424.8 136.1 424.1C139 423.6 142.1 423 145.1 422.7C155.9 421.1 166.8 420.3 178.1 420.3C189.4 420.3 200.8 421.1 212.9 422.7C213.9 418.3 214.9 411.6 213.5 407.7L213.3 408Z" fill="#534656"/>
<path d="M246.4 410.3C245.4 407.5 243.6 405.6 241.2 404.7C229.5 398.7 199.3 397.9 184.8 397.5H182.1H179.4C172.2 397.7 152.9 398.2 148.2 398.9C140.7 399.6 124.6 403 122.3 403.5C120 403.7 118.7 405.4 118 406.8C115.9 411.1 116.9 417.5 117.5 421.9C117.8 424.6 118.3 427.2 118.6 429.1V429.5C119.6 434 122.6 434.7 123.6 434.9H123.8H124C124.9 434.9 125.9 434.9 126.8 434.8C127.2 439.1 128.1 443.5 128.6 445.8C132.2 465.2 146.5 478.7 156.8 481.7C156.6 482.9 156.5 484.2 156.5 485.5C156.5 490.3 157.9 494.5 160.4 497.2C160.9 497.6 161.4 498 161.9 498.2C161.9 499.7 162.1 501.5 162.2 503.6C162.9 517.3 164.1 542.8 164.1 551.5H169.8C169.8 550.9 169.8 550.2 169.8 549.5C169.6 539.2 168.6 516.9 167.9 503.2C167.9 501.6 167.7 500.1 167.7 498.8C169.8 498.8 171.9 498.8 174.1 498.8H193.9C193.9 500.1 193.7 501.5 193.6 503.1C192.7 517.9 191.2 542.6 191.1 551.6H191.5L196.8 551.8C196.9 543.2 198.4 517.7 199.2 504C199.3 501.7 199.5 499.7 199.6 498.1C200.4 497.7 201.2 497.1 201.9 496.2C204.4 493.5 205.2 488.4 205.1 484.6C205.1 483.5 205 482.6 204.8 481.7C215.2 478.5 227.7 468.2 232 448.4C232.7 445.4 233.6 440.6 234.1 436.2C235 436.4 235.8 436.5 236.7 436.7C237.3 436.9 237.8 437 238.3 437C239.9 437 241 436.2 241.8 435.4C244.7 432.5 245.4 426.7 246 422C246.1 421.2 246.2 420.4 246.3 419.7C247 416.3 246.9 413.3 246 410.8L246.4 410.3ZM241.2 416.6V416.9C241 417.7 240.9 418.7 240.8 419.7C240.5 422.1 239.9 426.4 239.1 427.3C238.9 427.5 238.5 427.3 238.2 427.3H238C229.3 425.4 220.9 424 212.8 422.9C200.7 421.3 189.2 420.5 178 420.5C166.8 420.5 155.8 421.3 145 422.9C141.9 423.2 138.9 423.7 136 424.3C132 425 128.2 425.7 124.4 425.8C124.3 425.8 124.2 425.8 124.1 425.8C123.8 424.2 123.5 422.2 123.3 420.1V419.7C122.7 416 122.5 413.6 122.7 412.6H123.1C124.1 412.3 141 408.7 148.7 408C153.2 407.3 172.3 406.8 179.5 406.6H182.1H184.7C191.3 406.8 202.5 407.1 213.3 408.1C223.9 409.1 234.2 410.7 239.6 413.5C240.8 414 241.2 414.6 241.3 414.8C241.3 415 241.3 415.6 241.2 416.7V416.6ZM199.7 484.4C199.7 486.3 199.3 487.9 199 488.3L198.8 488.5C198.5 488.9 197.6 489.3 197.3 489.3H188.7H174.4C170.7 489.3 167.1 489.3 163.6 489.3C162.7 488.2 162.5 486.6 162.5 485.5C162.5 484.4 162.7 483.3 163 482.3C166.8 482.3 172.9 482.3 177 482.3C179.3 482.3 180.9 482.3 181.2 482.3H185.1C185.9 482.3 186.7 482.3 187.6 482.3C188.1 482.3 188.6 482.3 189.1 482.3C190.9 482.3 192.7 482.3 194.5 482.3C196.3 482.3 197.7 482.3 199.2 482.3C199.8 483.1 199.8 483.6 199.8 484.6L199.7 484.4ZM201.8 469.9C199.1 470.1 196 470.1 192.8 470.1C191.5 470.1 190.3 470.1 189 470.1C186.1 470.1 183.4 470.1 181 470.1V470.3C179.9 470.1 178.5 470.1 176.9 470.1C172.8 470.1 166.7 470.1 162.9 470.1C162.1 470.1 161.3 470.1 160.8 470.1C153 470.1 138.9 457.6 136.1 442.2V441.8C135.3 438.6 134.8 435.8 134.6 433.7C135.3 433.6 135.9 433.5 136.6 433.4C139.5 432.9 142.4 432.4 145.4 432.1C170.9 428.3 197 429.1 226.9 434.4C226.5 437.4 225.9 441.1 225.2 444C221.9 459.3 211.1 468.1 201.8 470.1V469.9Z" fill="#020D14"/>
<path d="M173.5 552.1C173.8 552.6 174 553.2 174 553.8V562.9C174 563.4 173.8 563.8 173.6 564.2C173.9 564.2 174.2 564.2 174.4 564.2C181 564.2 186.1 566.1 189.4 564C193.4 561.4 196 551.9 194.5 552.1H173.4H173.5Z" fill="#2F1C33"/>
<path d="M179.1 553.8C179.1 553.2 178.9 552.4 178.6 552.1H167.2C168 558.3 169.6 564 178.3 564C178.6 564 179.3 562.9 179.3 562.1V553.7L179.1 553.8Z" fill="#534656"/>
<path d="M200.8 550.1C200.7 547.7 198.7 545.9 196.4 545.9H165.1C163.9 545.9 162.7 546.4 161.8 547.3C161 548.2 160.5 549.5 160.7 550.7C162 563.7 169.2 570.3 182.1 570.3C195 570.3 182.4 570.3 182.6 570.3C188.4 570.3 192.9 568.5 196.1 565.1C200.8 560 201 552.9 200.9 550L200.8 550.1ZM182.5 564.2C182.3 564.2 182.2 564.2 182 564.2C171 564.2 168.1 558.4 167.1 552.2H194.6C194.6 554.7 193.9 558.4 191.5 561C189.5 563.1 186.5 564.2 182.5 564.3V564.2Z" fill="#020D14"/>
<path d="M502.7 336.1C503 336.4 503.6 337.4 503.7 337.9C502.3 383 505.5 397.6 491.1 411.6C494.4 399.1 495.6 389.5 495.2 379C494.3 372.7 492.4 350.1 486.1 348.8C479 348.3 475.8 348.2 466.3 348.3C464.8 348.3 463.7 348.3 463.5 348.3C463.2 348.4 463.5 349 463.9 349.2C472 355.4 476.1 363 476.2 372C476.2 372.5 475.4 372.5 475.2 372.2C472.3 365.3 468.2 358.4 461.4 354.6C445.7 344.3 408.5 347 400.9 360.7C400.4 361.6 400.5 363.3 400.2 364.1C400.2 370.7 400.2 385.4 400.2 394.5C400.2 403 400.2 409.4 400.2 414.9C400.3 415.1 400.6 415.3 400.7 415.6C400.7 415.8 400.7 415.9 400.9 415.9C414.7 412.7 432.2 413.3 445 417.8C452.2 420.4 459.2 424.1 464.5 429.3C464.8 429.9 468.4 433.5 466.6 432.9C453.5 428 443.2 425.5 435.9 425.4C424.8 424.9 399.6 427.3 400.3 435C400.2 435.4 400.3 436.9 400.3 440.3C400.5 462.7 400 568.2 400.5 569.2C403.7 572.9 407.9 576.2 412.7 579.1C413.4 579.5 413.2 579.9 413.4 580.7C413.5 581.3 413.6 581.6 413.6 582C413.6 582.4 413.6 583 413.6 583.2C413.6 583.3 413.5 583.4 413.3 583.6C413.1 583.8 412.9 584 412.7 584.2C412.5 584.4 412.7 584.2 412.5 584.2C406.2 584.2 358.2 584.2 357.3 584.2C357.2 584.2 356.4 583.7 356.3 583.3C355.8 582.4 355.8 581 355.9 580.2C356.4 579.2 359 577.1 363.8 574C365.1 573.1 366.3 572.5 367.6 571.5C368.8 570.3 369.5 568.9 369.5 567.8C369.5 566.8 369.5 443.3 369.5 387.8C369.2 367.2 370.2 354.3 368.9 353.8C366.8 352 360 346.3 357.9 344.6C357.3 344.1 357.2 344.2 357.2 343.7C357.2 343 356.8 341.5 356.8 341.1C356.8 340.8 356.8 340.3 356.8 340.1C356.8 339.9 357.2 339.7 357.4 339.4C358.3 338.4 410.1 339.4 437.8 339C464.3 338.9 479.4 339.4 502.9 335.9L502.7 336.1Z" fill="#F8A637"/>
<path d="M401.2 587.5C393.7 587.5 383.7 587.5 374.9 587.5C366 587.5 357.5 587.5 357 587.5C357 587.5 356.8 587.5 356.7 587.5C355.3 587.5 353.8 586.2 353.2 585C352.2 583.2 352.4 580.8 352.5 580.1C352.5 579.8 352.6 579.5 352.8 579.2C353.5 577.8 355.2 576 361.8 571.7C362.4 571.3 363 570.9 363.6 570.6C364.2 570.2 364.8 569.9 365.3 569.5C365.9 568.8 366.2 568.2 366.2 568C366.2 565.9 366.2 553.8 366.2 505.9C366.2 466.6 366.2 417.6 366.2 388.1C366.1 380.1 366.2 373.2 366.2 367.7C366.2 362.6 366.3 357.7 366.1 356L355.6 347.2C355.5 347.1 355.4 347 355.3 347C354.6 346.5 353.9 345.7 353.8 344.3C353.8 344.1 353.7 343.6 353.6 343.2C353.4 342.4 353.4 341.9 353.4 341.5C353.4 340.9 353.4 340.3 353.6 339.6C353.6 339.6 353.6 339.6 353.6 339.5C353.9 338.8 354.3 338.3 354.6 337.9L354.8 337.7C356.2 336.2 356.2 336.1 396.1 336.3C410.8 336.3 426 336.5 437.4 336.3C441 336.3 444.4 336.3 447.7 336.3C468.4 336.3 482 336.3 502.2 333.2C502.6 333.2 503 333.2 503.4 333.2C504 333.3 504.6 333.7 505 334.1C505 334.1 506.6 335.9 506.8 337.5C506.8 337.6 506.8 337.8 506.8 337.9C506.5 346.5 506.5 353.9 506.4 360.5C506 388.6 505.9 401.4 493.3 413.7C492.3 414.6 490.9 414.8 489.7 414.1C488.5 413.4 488 412 488.3 410.7C491.5 398.5 492.7 389.4 492.3 379.2C492.2 378.4 492.1 377.3 491.9 376.1C491.4 372 490.6 365.7 489.3 360.4C487.6 353.2 485.9 351.9 485.6 351.7C480 351.3 476.8 351.2 470.7 351.2C476.2 357.1 479.1 364 479.2 371.8C479.2 373.2 478.4 374.5 477.1 375C475.6 375.6 473.8 375.1 472.8 373.9C472.6 373.7 472.5 373.4 472.4 373.2C469 365 465 359.9 459.9 357.1C459.9 357.1 459.8 357.1 459.7 357C450.9 351.2 433.4 349.5 419.1 353.1C411.3 355 405.8 358.2 403.6 362.1C403.6 362.3 403.5 362.9 403.4 363.3C403.4 363.7 403.4 364.1 403.2 364.5C403.2 367.9 403.2 373.3 403.2 378.9C403.2 384.4 403.2 390.1 403.2 394.6V401.5C403.2 405.6 403.2 409.2 403.2 412.4C417.3 409.7 433.7 410.7 445.9 415.1C454.6 418.3 461.5 422.3 466.5 427.3C466.7 427.5 466.8 427.7 466.9 427.9C467 428.1 467.2 428.3 467.5 428.6C469.2 430.5 470.9 432.5 469.5 434.7C468.9 435.7 467.5 436.5 465.6 435.9C465.6 435.9 465.5 435.9 465.4 435.9C452.7 431.1 442.7 428.7 435.7 428.6C425.4 428.2 407.3 430.2 403.5 434.3C403.2 434.6 403.1 434.8 403.1 434.9C403.1 435.1 403.1 435.4 403.1 435.6C403.1 435.8 403.1 436.1 403.1 436.4C403.1 437.3 403.1 438.6 403.1 440.5C403.1 449.2 403.1 470.9 403.1 493.9C403.1 524.4 403 561.8 403.1 568.1C405.8 571.1 409.4 573.9 413.9 576.6C415.6 577.7 415.8 579.1 415.9 579.7C415.9 579.7 415.9 579.8 415.9 579.9C415.9 579.9 415.9 580 415.9 580.1V580.4C416.1 580.9 416.2 581.4 416.2 582C416.2 582.2 416.2 582.3 416.2 582.4C416.2 582.9 416.2 583.4 416.2 583.8C416 584.8 415.5 585.4 415.2 585.7C415.1 585.8 415 585.9 414.9 586C414.8 586.1 414.7 586.3 414.5 586.4C413.7 587.3 412.7 587.4 412.1 587.4C410.5 587.4 406.4 587.4 401.2 587.4V587.5ZM359.8 581.4C362.5 581.4 367.4 581.4 375 581.4C388.1 581.4 404 581.4 410.2 581.4C410.2 581.4 410.2 581.3 410.2 581.2C405.2 578.1 401.1 574.7 398 571.2C397.8 571 397.7 570.8 397.6 570.5C397.1 569.5 397 569.3 397.1 493.8C397.1 470.9 397.1 449.2 397.1 440.4C397.1 438.5 397.1 437.3 397.1 436.5C397.1 435.8 397.1 435.4 397.1 435C397.1 433.7 397.4 431.8 399.1 430.1C405.3 423.6 426.9 422.2 435.8 422.5C440.9 422.5 447.3 423.7 455.1 426C451.8 424 448.1 422.2 443.8 420.7C431.7 416.4 415.1 415.7 401.4 418.9C401.2 418.9 401 418.9 400.8 418.9C399.8 418.9 398.4 418.4 397.8 416.8C397.8 416.7 397.6 416.6 397.6 416.5C397.3 416 397.1 415.4 397.1 414.8C397.1 410.9 397.1 406.6 397.1 401.3V394.4C397.1 390 397.1 384.2 397.1 378.7C397.1 372.9 397.1 367.4 397.1 364C397.1 363.7 397.1 363.5 397.2 363.2C397.2 363.1 397.2 362.7 397.2 362.4C397.3 361.4 397.4 360.1 398.1 359C401.9 352.2 410.7 348.7 417.5 347.1C430.8 343.8 449.9 344.2 461.6 351C460.8 350.3 460.3 349.3 460.3 348.3C460.3 347.1 460.9 346 462 345.4C462.4 345.2 462.9 345 463.4 345H466.2C475.8 345 479.1 345 486.2 345.5C486.3 345.5 486.5 345.5 486.6 345.5C493 346.8 495.5 357.3 497.7 375.1C497.9 376.4 498 377.4 498.1 378.2C498.1 378.3 498.1 378.4 498.1 378.5C498.3 384.5 498.1 390.2 497.2 396.3C499.9 388.2 500 377.6 500.2 360.1C500.2 353.9 500.4 347 500.6 339C481.4 341.7 467.8 341.8 447.7 341.8C444.5 341.8 441.1 341.8 437.5 341.8C426 341.9 410.8 341.8 396.1 341.8C381.4 341.8 365.1 341.6 359.6 341.8C359.6 341.9 359.6 342.1 359.6 342.2L370 351C372.3 352.1 372.2 354.8 372.1 367.3C372.1 372.7 371.9 379.5 372.1 387.5C372.1 417.1 372.1 466 372.1 505.4C372.1 537.9 372.1 566 372.1 567.5C372.1 567.6 372.1 567.7 372.1 567.8C372 569.7 370.9 571.8 369.3 573.5C369.2 573.6 369.1 573.7 368.9 573.8C368.1 574.4 367.4 574.8 366.6 575.3C366.1 575.6 365.6 575.9 365 576.3C360.8 579.1 359.1 580.5 358.4 581.1C358.7 581.1 359.2 581.1 359.6 581.1L359.8 581.4ZM403.1 435.6C403.1 435.6 403.1 435.7 403.1 435.8C403.1 435.8 403.1 435.8 403.1 435.6ZM466.9 427.8C466.9 427.8 466.9 427.9 466.9 428C466.9 428 466.9 428 466.9 427.8Z" fill="#240040"/>
<path d="M523.6 341.5C524.3 341.5 560.3 341.5 579.6 341.5C600.8 340.8 619.9 342.5 627.4 359.3C627.5 359.7 627.2 360.3 626.8 360C626.3 359.7 625.8 359.3 625.3 358.9C622.2 356.7 618.9 354.8 615.5 353.5C611 351.7 606.5 351.1 601.9 351.2C601.6 351.2 600.2 350.6 599.9 350.5C599.6 350.5 598.2 351.1 597.9 351.2C584.6 350.7 572.8 355.5 567 366.3C565 389.2 566.5 492.7 566 518.3C566.3 529.2 566.9 537.9 573.9 541.4C585.1 547.8 596.3 550.9 607.7 550.8C625.7 552.2 639.2 542.9 649.7 520.3C650 519.8 650.2 519 650.9 519C651.1 519 651.5 519 651.5 519.4C651.4 529.2 647.1 540 638.6 551.7C638 552.4 639.1 552 639.2 552.5C639.2 552.7 639.2 552.9 639.5 552.8C639.7 552.8 640 552.7 640.3 552.6C640.8 552.6 641.3 552.3 641.7 552.2C649.4 552.4 659.8 552.2 663.3 542.9C671.6 518.7 672.1 480.5 660.3 456.4C660 455.9 659.9 454.8 660.7 455.3C669.3 461.2 676.8 489.7 676.5 506.2C677.6 523.5 680.3 571.1 680.5 573.3C680.5 573.4 680.4 573.5 680.2 573.8C679.8 574.3 679.7 574.9 679.1 574.6C671.7 572.2 663.4 568 658.2 566.5C656.9 566.1 655.9 565.9 655 565.9C653.9 565.9 548.3 565.9 527.7 565.9C525.5 565.9 524.3 565.9 524.2 565.9C524 565.7 523.8 565.4 523.4 564.9C523 564.3 522.7 564.3 522.7 563.8C522.7 562.4 522.7 559.9 522.7 559C523.1 557.8 525.5 555.1 530 550.8C531.1 549.7 532.2 548.7 533.3 547.7C533.5 547.5 533.5 547.5 533.6 547.3V547.1C534 546.4 534.3 545.2 534.5 544.6C534.5 543.4 534.5 363.8 534.5 363C531.8 358.4 529.1 355.3 523.1 348.3C522.8 347.9 522.7 347.8 522.8 347C522.8 346.6 522.8 346 522.8 345.4C522.8 344.2 522.8 343.3 522.8 342.8C523 342.4 523.6 341.6 523.7 341.5H523.6Z" fill="#F8A637"/>
<path d="M679.3 577.7C678.8 577.7 678.3 577.6 678.1 577.5C674.1 576.2 669.9 574.5 666.2 572.9C662.8 571.5 659.6 570.1 657.3 569.4C656.3 569.1 655.5 568.9 654.9 568.9H525.4C523.9 568.9 523.8 568.9 523.5 568.9C523 568.8 522.5 568.5 522.1 568.1C521.8 567.8 521.6 567.6 521.5 567.4C521.5 567.3 521.3 567.1 521.2 567C521.2 566.9 521 566.8 521 566.7C520.7 566.4 519.9 565.5 519.9 563.9C519.9 563.3 519.9 562.5 519.9 561.7C519.9 560.6 519.9 559.6 519.9 559.1C519.9 558.9 519.9 558.6 520 558.4C520.4 557.2 521.3 555.4 528.1 548.9C529 548 529.9 547.2 530.8 546.4L531.1 546.1C531.2 545.7 531.4 545.3 531.5 544.9C531.5 544.7 531.6 544.6 531.7 544.4C531.7 542.6 531.7 535.9 531.7 526.1C531.7 483.9 531.7 374.2 531.7 364.1C529.5 360.5 527.2 357.7 522.6 352.4L521 350.5C519.9 349.2 519.9 348.1 519.9 347.1V345.6C519.9 345.6 519.9 345.5 519.9 345.4C519.9 345 519.9 344.6 519.9 344.2C519.9 343.5 519.9 342.8 520.1 342.1C520.1 341.9 520.2 341.8 520.3 341.6C520.5 341.2 520.8 340.8 521.2 340.2V340C521.4 340 521.4 340 521.4 340C521.9 339.3 522.7 338.8 523.5 338.7C524 338.7 526.4 338.7 551.1 338.7C561.1 338.7 571.9 338.7 579.9 338.7C601.3 338 622.3 339.8 630.5 358.3C630.5 358.3 630.5 358.4 630.5 358.5C631 359.9 630.5 361.6 629.3 362.6C628.2 363.5 626.6 363.6 625.4 362.8C625.1 362.6 624.7 362.3 624.4 362.1C624.2 362 624 361.8 623.8 361.7C620.8 359.5 617.6 357.8 614.6 356.6C610.8 355.1 606.8 354.4 602.1 354.5C601.9 354.5 601.6 354.5 601.4 354.5C601.2 354.5 600.8 354.3 600.3 354.1C600.3 354.1 600.2 354.1 600.1 354.1C599.5 354.3 599 354.5 598.5 354.6C598.4 354.6 598.2 354.6 598.1 354.6C585.4 354.1 575.3 358.8 570.3 367.6C569 383.3 569.2 432.5 569.4 472.1C569.4 492.4 569.6 509.9 569.4 518.6C569.7 529.2 570.3 536.3 575.7 539C575.7 539 575.8 539 575.9 539C586.7 545.2 597.3 548.2 608.2 548C608.2 548 608.4 548 608.5 548C625.5 549.3 637.9 540.1 647.6 519.3C647.6 519.3 647.6 519.1 647.7 519.1C647.7 519.1 647.7 519 647.7 518.9C648.6 517.2 649.8 516.3 651.4 516.3C652.4 516.3 653.4 516.7 654.1 517.4C654.7 518.1 655 518.9 655 519.8C654.9 529 651.3 539 644.5 549.5C652.8 549.5 658.8 548 661 542.1C668.7 519.6 669.8 481.9 658.1 458.1C657.3 456.7 657.2 454.6 658.5 453.4C659.4 452.5 661.1 452 662.7 453C672.9 459.9 680.1 490 679.8 506.3C680.4 516.1 681.5 535.5 682.4 550.9C683.1 562.4 683.7 572.3 683.7 573.3C683.7 573.7 683.7 574.1 683.6 574.4C683.4 574.9 683.2 575.2 683.1 575.4C683.1 575.6 683.1 575.7 683 575.8C682 577.5 680.8 577.8 679.8 577.8L679.3 577.7ZM654.9 562.9C656.2 562.9 657.4 563.2 659 563.6C661.6 564.4 665 565.8 668.5 567.3C671.4 568.5 674.4 569.8 677.4 570.9C677.2 567.1 676.7 559.8 676.2 551.1C675.3 535.6 674.2 516.2 673.6 506.4V506.2C673.6 500.9 673 494.7 671.8 488.6C673.8 508.5 671.2 529.3 666.2 544C661.8 555.6 648.7 555.5 642.1 555.3C641.9 555.3 641.5 555.5 641.1 555.6H640.9C640.7 555.7 640.5 555.8 640.3 555.8C639.4 556 638.5 555.9 637.8 555.4C637.5 555.2 637.2 555 637 554.7C636.2 554.2 635.9 553.6 635.7 553.1C635.5 552.5 635.2 551.2 636.3 549.9C640.1 544.6 643 539.6 645.1 534.7C635.3 548.6 623 554.8 607.7 553.7C607.5 553.7 607.3 553.7 607.1 553.7C595.3 553.7 584 550.5 572.6 543.9C563.7 539.4 563.4 528.2 563.1 518.3C563.1 518.3 563.1 518.3 563.1 518.2C563.3 509.6 563.1 492 563.1 471.7C562.9 431.4 562.7 381.3 564.1 366C564.1 365.6 564.3 365.2 564.4 364.9C570.3 353.8 582.4 347.7 597.5 348.2C597.5 348.2 597.6 348.2 597.7 348.2C598.6 347.9 599.2 347.6 600 347.6C600 347.6 600.1 347.6 600.2 347.6C600.7 347.6 601.2 347.8 602.2 348.2C602.2 348.2 602.3 348.2 602.4 348.2H602.6C607.8 348.2 612.3 349 616.6 350.8H616.8C608.4 345 595.6 343.9 579.7 344.4C571.7 344.4 560.8 344.4 550.8 344.4C540.5 344.4 529.9 344.4 525.7 344.4C525.7 344.7 525.7 345.1 525.7 345.4V346.7L526.9 348.1C531.8 353.8 534.4 356.9 537 361.3C537.2 361.6 537.3 362 537.4 362.4C537.4 362.8 537.5 363.3 537.4 525.6C537.4 537 537.4 544.1 537.4 544.4C537.4 544.7 537.4 545.1 537.2 545.4C537.2 545.6 537 545.9 536.9 546.3C536.7 546.9 536.5 547.5 536.3 547.9C536.3 547.9 536.3 547.9 536.3 548V548.2C536.2 548.3 536.1 548.5 536 548.6C535.8 548.9 535.6 549.2 535.4 549.5C535.4 549.5 535.4 549.6 535.2 549.7L534.6 550.3C533.7 551.1 532.9 551.9 532 552.8C527.5 557.2 526 559 525.6 559.6C525.6 560.1 525.6 560.7 525.6 561.3C525.6 561.8 525.6 562.3 525.6 562.7H654.9V562.9Z" fill="#240040"/>
<path d="M821.2 335.4C832.6 335.4 841.3 339.8 845.9 348.8C846.1 349.2 845.6 349.9 845.2 349.5C840.5 345.6 833.8 343 827.1 342.9C820.5 343.5 811.2 345.9 811.2 350.8C812.6 356.1 814.8 361.4 816.5 366.6C842.9 443.6 873.2 529.7 879.8 546.2C882.3 549.2 892.6 559.8 893.1 560.5C893.2 561.4 893.5 563.6 893.6 564.4V564.5C893.5 564.7 893.1 565 892.7 565.4C892.3 565.7 892.3 565.9 892.2 565.9C891 565.9 840.3 565.9 838.6 565.9C838.6 565.9 838.6 565.9 838.4 565.7C838.2 565.4 838 565.2 837.8 564.9C837.4 564.3 837.1 563.9 837 563.7C837 563.7 837 562.5 837 562.1C837 561.6 837 561 837 560.6C837 560.4 837 560.5 837.1 560.3C839.2 557.6 845.2 549.5 848.1 545.8C848.8 544.7 849.3 544.5 849.3 544.1C848.8 537.6 846.2 530.8 841.2 517.1C839.4 512.3 837.5 507.4 835.5 502.7C828.8 490.8 822.4 483.4 814.6 486.2C814.5 486.2 814.5 486.5 814.5 486.8C814.5 487.4 814.5 487.7 815 488C822.8 494.6 828.3 503.9 831.3 515.7C831.3 516.2 831.1 516.7 830.8 516.7C817.6 496.5 800.9 486.5 778.1 487.5C774.1 487.5 767.2 487.5 763.7 487.5C757.7 487.2 753.8 488.9 749.6 494.7C746.3 499.2 743.8 506 742.1 512C737.4 524.2 734.2 533.1 734.1 542.4C733.4 553.5 756.3 557.2 770 557.5C775.4 557.5 781.7 554.2 788.9 547.6C789.8 546.7 790.9 546.8 790.3 548.3C783.1 566.2 772.6 565.3 754.4 565.1C734.8 565.1 699.2 565.1 698.4 565.1C698.2 564.9 697.2 563.4 697 563.1C696.8 562.8 697 562.6 696.9 562.2C696.9 561.7 696.9 561.4 696.9 561.1C697.4 559.9 700 557.6 704.7 554.2C706 553.2 707.3 552.4 708.7 551.4C710.7 549.1 717.7 532.1 729.5 500.1C730.4 497.9 783.6 357.7 784.6 355.5C792 342.1 804.5 335.3 821 335.4H821.2ZM791 374.7C790.6 375.6 758.3 466.8 758.1 467.4C758.1 467.4 758.5 468 758.6 468.1C760.9 468.2 762.8 468.1 767 468.1C781.6 468.1 809.8 468.1 823.4 468.1C823.7 467.8 824.6 467.1 824.8 466.6C824.7 465.9 824.5 465.5 824.2 464.6C809.2 420.2 798.5 389.2 793 374.7C793 374.4 791.2 374.7 791.1 374.6L791 374.7Z" fill="#F8A637"/>
<path d="M838.5 568.9C837.8 568.9 836.7 568.6 835.9 567.4L835.3 566.5C835.2 566.3 835.1 566.1 835 566C834.7 565.5 834.4 565.2 834.2 564.7C834 564.2 834 563.7 834 562C834 561.7 834 561.5 834 561.3C834 561 834 560.7 834 560.4C834 559.7 834.3 559 834.7 558.5C835.8 557.1 837.9 554.3 840.1 551.3C842.1 548.6 844.2 545.8 845.6 544C845.8 543.7 846 543.5 846.1 543.3C845.5 537.7 843.2 531.4 838.8 519.6L837.5 516.1C836 512.1 834.4 507.9 832.7 504C828 495.7 824.1 490.9 820.6 489.3C826.9 496 831.5 504.6 834.1 515C834.1 515 834.1 515.1 834.1 515.2C834.5 517.2 833.3 519.2 831.4 519.7C830.1 520 828.8 519.5 828.1 518.5C815.1 498.6 799.1 489.8 778 490.7C778 490.7 778 490.7 777.9 490.7H763.5C763.5 490.7 763.4 490.7 763.3 490.7C758.1 490.4 755.2 491.9 751.8 496.6C749.2 500.2 746.7 506 744.8 512.9C744.8 512.9 744.8 513.1 744.8 513.2C740 525.7 737.1 533.9 737 542.6C737 542.6 737 542.7 737 542.8C737 544.1 737.4 545.3 738.5 546.5C743.4 551.8 758.2 554.5 770 554.8C774.5 554.8 780.2 551.7 786.8 545.7C788.3 544.2 790.4 543.9 791.9 544.9C793.1 545.7 794 547.4 793 549.7C785.3 568.8 773.2 568.6 756.4 568.4H754.3H698.3C697.4 568.4 696.6 568 696 567.4C695.6 566.9 694.4 565.1 694.4 565C694.4 565 694.4 565 694.4 564.9C693.9 564 693.9 563.2 693.9 562.8C693.9 562.8 693.9 562.8 693.9 562.6C693.9 562.6 693.9 562.4 693.9 562.3C693.9 562.2 693.9 562.1 693.9 562C693.9 561.7 693.9 561.2 694 560.6C694 560.5 694 560.3 694.1 560.2C694.7 558.7 696.5 556.7 703 552C703.7 551.5 704.3 551 705 550.6C705.5 550.2 706.1 549.9 706.6 549.5C707.8 547.7 712.1 538.7 726.7 499.4C727.1 498.5 733.9 480.5 741.8 459.6C767.9 390.9 781.3 355.8 781.9 354.5C781.9 354.5 781.9 354.4 781.9 354.3C789.8 340.1 803.2 332.6 820.8 332.6H821.1C833.9 332.6 843.4 337.8 848.5 347.6C848.5 347.6 848.5 347.7 848.6 347.8C849.3 349.4 848.7 351.2 847.3 352.2C846 353.1 844.4 353 843.2 352C838.8 348.4 832.8 346.2 827.2 346.2C819.8 346.9 814.7 349.3 814.2 350.8C815 353.7 816.1 356.7 817.1 359.6C817.8 361.7 818.6 363.8 819.3 365.9C845.6 442.8 875.5 527.5 882.3 544.8C884 546.8 888.2 551.1 891.2 554.4C894.6 558 895.1 558.5 895.4 558.9C895.7 559.3 895.9 559.8 896 560.3V560.9C896.3 562.4 896.4 563.7 896.5 564.5C896.5 565 896.5 565.4 896.2 565.9V566.1C896 566.3 895.9 566.4 895.8 566.6C895.6 566.9 895.3 567.1 895 567.5L894.7 567.8C894.7 567.8 894.6 567.9 894.5 568C894.3 568.3 893.8 568.8 893 569C892.7 569.1 892.3 569.2 892 569.2H838.5C838.5 569.2 838.5 569.2 838.4 569.2L838.5 568.9ZM840.1 562.9H890.4C890.4 562.5 890.4 562.1 890.3 561.8C889.6 561.1 888.3 559.7 887 558.3C883.5 554.6 879.2 550 877.6 548.1C877.4 547.9 877.2 547.6 877.1 547.3C870.6 531 840.4 445.4 813.8 367.6C813.1 365.5 812.4 363.5 811.7 361.4C810.5 358.2 809.4 354.9 808.5 351.5C808.5 351.3 808.5 351 808.5 350.8C808.5 342 824 340.2 827.1 339.9C827.1 339.9 827.3 339.9 827.4 339.9C829.4 339.9 831.4 340.1 833.4 340.5C830 339 826 338.3 821.5 338.3H821.2C805.7 338.3 794.4 344.5 787.6 356.8C786.4 359.7 763.1 420.8 747.7 461.3C738.2 486.2 732.9 500.4 732.5 501.1C714.6 549.5 712.3 552 711.2 553.3C711.1 553.4 710.9 553.6 710.8 553.7C710.1 554.2 709.4 554.7 708.7 555.2C708.1 555.6 707.4 556.1 706.8 556.6C702.2 559.9 700.7 561.4 700.1 562V562.1H754.5H756.7C768.5 562.3 776.1 562.4 781.7 556.9C777.6 559.3 773.8 560.5 770.2 560.5C765.6 560.4 742.7 559.4 734.3 550.3C732.2 548 731.1 545.2 731.3 542.3C731.4 532.7 734.6 523.6 739.4 511C740.6 506.6 743.3 498.5 747.3 492.9C751.9 486.5 756.7 484.1 763.9 484.5H778.2C795.8 483.7 810.5 489.4 822.7 501.6C820.1 497.2 817 493.4 813.3 490.2C812.2 489.3 811.7 488.1 811.7 486.6C811.7 484.5 812.8 483.6 813.8 483.2C824.4 479.4 832.2 490.1 838.4 501.1C838.4 501.2 838.5 501.3 838.6 501.4C840.3 505.5 842 509.7 843.5 513.8L844.9 517.4C849.7 530.4 852.1 537 852.6 543.7C852.6 543.8 852.6 543.9 852.6 544C852.6 545.2 851.9 546 851.5 546.5C851.3 546.7 851.1 546.9 850.9 547.3C850.9 547.3 850.9 547.3 850.8 547.4C849.4 549.2 847.3 552 845.3 554.7C843.4 557.3 841.5 559.8 840.3 561.3C840.3 561.5 840.3 561.8 840.3 562C840.3 562.1 840.3 562.4 840.3 562.6L840.1 562.9ZM760.8 471.1C760 471.1 759.2 471.1 758.3 471.1C757.4 471.1 756.6 470.6 756.1 469.9C755.4 469 755.3 468.7 755.2 468.5C755 467.9 754.9 467.1 755.2 466.5C755.5 465.7 787.8 374.5 788.2 373.6C788.7 372.6 789.7 371.9 790.8 371.8C790.9 371.8 791.1 371.8 791.2 371.8C791.2 371.8 791.3 371.8 791.4 371.8C792.5 371.8 794.9 371.6 795.7 373.9C800.8 387.1 810.1 414 826.9 463.8C826.9 464.1 827.1 464.3 827.1 464.5C827.3 465 827.5 465.5 827.6 466.3C827.6 466.9 827.6 467.5 827.4 468C827 468.9 826.3 469.5 825.6 470.2C825.6 470.2 825.5 470.3 825.4 470.4C824.8 471 824.1 471.3 823.2 471.3C817.4 471.3 808.8 471.3 799.8 471.3C787.9 471.3 775.2 471.3 766.8 471.3C765 471.3 763.6 471.3 762.4 471.3C761.8 471.3 761.2 471.3 760.7 471.3L760.8 471.1ZM792 380.8C786 397.6 767 451.3 762.1 465.2C762.2 465.2 762.4 465.2 762.5 465.2C763.7 465.2 765.1 465.2 767 465.2C775.3 465.2 788 465.2 799.9 465.2C807.8 465.2 815.4 465.2 821.1 465.2C806.3 421.3 797.3 395.3 792 380.9V380.8ZM790 375.7C790 375.7 790 375.8 790 375.9C790 375.9 790 375.8 790 375.7Z" fill="#240040"/>
<path d="M953.4 330C951.1 349 959.1 368 972.5 399.2C983.2 421.5 1020.8 514.7 1021.8 510C1026.8 497.3 1083.6 357.8 1084.1 355.6C1085.7 349 1086.6 344.8 1086.3 340.3C1086.1 338.3 1085.7 333.9 1085.5 332.3C1085.5 331.5 1085.3 331.6 1085.7 331.8C1088.9 334.4 1094.1 338.2 1096.9 340.4C1103 343.5 1115.1 341.4 1124.5 342.2C1126.9 346 1123.8 352.1 1121.1 353.1C1116.6 355.9 1111.5 357.6 1112.6 363.1C1112.8 408.9 1112.6 570.3 1118 568.4C1119.3 575.1 1123.4 584.5 1129.2 596.5C1129.6 597 1130.2 598.6 1129.2 598C1113.8 587.1 1102.1 573.3 1097.5 555.7C1096.9 551.7 1093.5 550.7 1090 550.7C1089 550.7 1079.9 565.6 1076.6 565.5C1076.3 565.3 1075.8 564.4 1075.6 564C1075.6 563.3 1075.6 560.3 1075.6 559.7C1078.5 556.1 1083.7 534.9 1085.7 531.9C1088.9 528.2 1088 439.8 1090.1 392.2C1090.3 380 1090.5 372.3 1090.5 372.8C1090.7 374.1 1060.9 444.3 1063.7 442.5C1069.7 437.9 1076.6 435.3 1083.8 435.2C1084.6 435.2 1086.9 435.1 1085.4 436.5C1068.1 445.8 1056 459 1049.3 476.1C1039.8 500.6 1023.9 541.1 1014.3 565.8C1008.9 555.1 1004.8 540.7 999.4 529.7C988.6 501.1 969.7 480.2 948.9 470.8C948.7 469.6 950.1 470.3 950.9 470C960.3 468.8 967 468.7 975.6 472.1C977.8 472.2 947.5 400.1 947.1 399.1C946.3 424.1 941.5 549.9 941.7 547.5C943.7 548 945.3 549.7 947.2 550.7C954.9 555.9 954.8 555.7 955 562.3C955 564 955 564.4 954 565.5C953.3 565.5 927.5 565.5 915.1 565.5C911.1 565.5 908.6 565.7 908.4 565.4C905.3 560 910 555.9 916.2 550.4C918.8 548.6 919 548.5 920.2 541.9C927 484.9 925.8 439.1 928.8 366.9C929.2 360.6 927.3 354 921.2 353.7C906.9 347.3 895.5 352.5 880.2 362.8C884 346.7 901.4 338.1 916.8 339.8C933.8 340.4 937.9 344.1 953.3 329.9L953.4 330Z" fill="#F8A637"/>
<path d="M1129.6 601.2C1129 601.2 1128.3 601 1127.7 600.6C1127.7 600.6 1127.6 600.6 1127.5 600.5C1110.1 588.2 1099.1 573.4 1094.7 556.5C1094.7 556.5 1094.7 556.3 1094.7 556.2C1094.6 555.4 1094.4 554 1091.3 553.8C1090.7 554.6 1089.8 555.8 1089 556.9C1083.1 564.9 1080 568.6 1076.7 568.6C1076.1 568.6 1075.5 568.4 1075 568C1074 567.2 1073.1 565.5 1073.1 565.4C1072.9 565.1 1072.8 564.7 1072.8 564.4C1072.8 563.9 1072.7 560.4 1072.9 559.1C1073 558.6 1073.2 558.2 1073.5 557.8C1074.8 556.2 1077.5 547.5 1079.1 542.2C1081.1 535.7 1082.3 531.9 1083.3 530.3C1084.8 525.9 1085.3 491.4 1085.7 460.9C1085.7 453.8 1085.9 446.7 1086 439.6C1069.9 448.5 1058.5 461.1 1052.2 477.1C1047 490.5 1039.9 508.5 1033 526.2C1027.2 541 1021.6 555.5 1017.2 566.8C1016.8 567.9 1015.7 568.7 1014.5 568.7C1013.3 568.7 1012.2 568.1 1011.7 567.1C1008.9 561.5 1006.4 554.9 1004 548.6C1001.7 542.5 999.3 536.3 996.7 531C996.7 531 996.7 530.8 996.6 530.7C986.4 503.8 968.6 483 947.7 473.5C947.7 473.5 947.6 473.5 947.5 473.5C947.2 481.2 946.9 488.8 946.7 496.1C945.9 519 945.1 539.2 944.9 545.5C945.7 545.9 946.4 546.5 947.1 546.9C947.7 547.3 948.2 547.7 948.8 548C948.8 548 949 548 949 548.1L949.6 548.5C957.1 553.6 957.9 554.4 958.1 561.9V562.1C958.2 564.5 957.9 565.5 956.4 567.3C955.8 568 955 568.4 954.1 568.4C953.7 568.4 945.4 568.4 935.9 568.4H915.1C913.4 568.4 912.1 568.4 911 568.4C908.5 568.4 907.1 568.4 906.1 567.1C906.1 567 905.9 566.8 905.8 566.7C901.6 559.3 907.6 553.9 914 548.1H914.1C914.1 547.9 914.3 547.8 914.4 547.8H914.5C915.633 546.933 916.533 544.767 917.2 541.3C921.9 502.4 922.8 467.9 923.8 428C924.3 409 924.8 389.3 925.8 366.6C926 362.7 925.3 359.4 923.8 357.8C923.1 357 922.2 356.6 921 356.5C920.6 356.5 920.3 356.4 919.9 356.2C907.2 350.6 897.1 354.8 881.8 365C880.8 365.7 879.4 365.7 878.4 365C877.4 364.3 876.9 363 877.2 361.8C881.5 343.7 900.7 334.7 916.9 336.5C920 336.6 922.6 336.8 924.9 337C935.5 337.8 939.4 338.1 951.1 327.4C952.2 326.4 953.9 326.3 955.1 327.4C955.9 328.1 956.3 329.1 956.2 330.1C954.1 347.9 961.2 365.5 975.1 397.7C979.2 406.4 987.3 425.4 995.9 445.5C1004.6 466 1015.9 492.7 1021.1 503.2C1025 493.4 1033.1 473.4 1042.3 450.9C1059.2 409.2 1080.2 357.5 1081.2 354.4C1082.8 347.8 1083.6 344.1 1083.3 340.2L1082.5 332.3C1082.5 332.1 1082.5 332 1082.5 331.9C1082.3 329.9 1083.6 328.9 1084 328.7C1084.9 328.2 1086.2 328.1 1087.4 329.1C1087.4 329.1 1087.4 329.1 1087.5 329.1C1089.3 330.6 1091.7 332.4 1094.1 334.1C1095.7 335.3 1097.3 336.5 1098.4 337.4C1101.7 338.9 1107.7 338.8 1113.5 338.7C1117.3 338.7 1121.1 338.5 1124.7 338.8C1125.6 338.8 1126.5 339.4 1127 340.2C1128.5 342.6 1128.7 345.8 1127.6 349C1126.8 351.4 1125 354.2 1122.4 355.3C1121.7 355.7 1121 356.1 1120.3 356.5C1116.1 358.9 1115.1 359.8 1115.5 362C1115.5 362.2 1115.5 362.4 1115.5 362.6C1115.5 366.9 1115.5 372.1 1115.5 378.2C1115.6 426.5 1115.9 553.3 1119.7 565.7C1120.2 566.1 1120.6 566.7 1120.7 567.4C1122.1 574.5 1127 585.1 1131.6 594.6C1132.5 596.1 1133 598.2 1131.6 599.7C1131.1 600.3 1130.2 600.7 1129.3 600.7L1129.6 601.2ZM1100.5 555.2C1103.8 567.6 1111.1 578.9 1122.2 588.7C1118.5 580.6 1116.4 574.9 1115.3 570.3C1113.5 568.2 1111.6 559.7 1110.5 494C1109.8 454.2 1109.7 406.9 1109.7 378.7C1109.7 372.8 1109.7 367.6 1109.7 363.4C1108.5 356.9 1113.6 354 1117.4 351.8C1118.1 351.4 1118.8 351 1119.6 350.5C1119.8 350.4 1120 350.3 1120.2 350.2C1120.5 350.1 1121.6 348.9 1122.2 347.1C1122.4 346.3 1122.5 345.6 1122.5 345C1119.7 344.9 1116.7 345 1113.8 345C1106.8 345.2 1100.2 345.3 1095.6 343C1095.4 343 1095.3 342.8 1095.1 342.7C1093.9 341.8 1092.3 340.6 1090.6 339.3C1090.1 339 1089.7 338.6 1089.2 338.2L1089.4 339.9C1089.8 345 1088.7 349.7 1087.2 356.2C1086.8 357.5 1075.4 386 1048 453.4C1036.7 481.4 1026.8 505.6 1024.8 510.8C1024.4 512 1023.4 512.9 1022.1 513C1018.7 513.3 1018.3 513.4 990.6 448C982.1 427.9 974 408.9 969.9 400.4C969.9 400.4 969.9 400.4 969.9 400.3C958.3 373.4 950.2 354.5 950.1 336.6C940 344.4 934.2 344 924.7 343.2C922.4 343 919.8 342.8 916.8 342.7C916.8 342.7 916.7 342.7 916.6 342.7C905.9 341.5 893.7 345.8 887.2 354.9C898.2 348.5 909.1 345.1 922.2 350.7C924.7 351 926.9 352.1 928.6 353.9C932.1 357.8 932.3 363.8 932.1 367C931.2 389.6 930.6 409.3 930.1 428.3C929 468.4 928.1 503 923.4 542.3C923.4 542.3 923.4 542.4 923.4 542.5C922.2 549.1 921.7 550.4 918.3 552.8C912.9 557.7 910.4 560.2 910.8 562.6C910.9 562.6 911.1 562.6 911.2 562.6C912.3 562.6 913.8 562.6 915.5 562.6H936.2C943 562.6 949.3 562.6 952.4 562.6C952.4 562.6 952.4 562.6 952.4 562.5V562.2C952.4 559.5 952.3 558.4 951.9 557.7C951.3 556.8 949.5 555.6 946.6 553.6L946.1 553.3C945.3 552.9 944.6 552.4 944 551.9C943.2 551.3 942.4 550.8 941.8 550.5C939.8 550.3 939.3 548.5 939.3 547.3C939.3 547.3 939.3 547.2 939.3 547.1C939.3 546.8 939.3 546.5 939.3 546.4V543.4C939.5 540.8 939.6 537 939.8 532.3C940.1 523 940.6 510.1 941.1 495.9C942.5 459 944.2 413.1 944.6 399.1C944.6 397.7 945.7 396.5 947.1 396.2C948.5 396 949.9 396.7 950.4 398.1C950.4 398.2 950.8 399.2 951.5 400.7C954.2 407.2 961.3 424.4 967.7 440.2C980.3 471.6 979.8 472.2 978.6 474C978 474.8 976.9 475.3 975.9 475.3C975.6 475.3 975.3 475.3 975 475.1C969.2 472.8 964.4 472.2 958.6 472.5C977.4 483.8 993.1 503.8 1002.6 528.7C1005.3 534.2 1007.7 540.6 1010 546.7C1011.5 550.6 1013 554.6 1014.5 558.3C1018.4 548.2 1023.1 536.4 1027.8 524.3C1034.7 506.6 1041.8 488.5 1047 475.2C1052.5 461.1 1061.7 449.4 1074.2 440.4C1071.3 441.5 1068.6 443.1 1066 445.1C1066 445.1 1065.9 445.1 1065.8 445.2C1064.6 445.9 1063.2 445.9 1062.1 445C1059.7 443 1059.5 442.9 1079.3 394.3C1083.3 384.4 1087.5 374.2 1088 372.5C1088.2 371 1089.6 369.9 1091.1 370C1093 370.1 1093.6 371.3 1093.8 372.6C1093.8 372.8 1093.8 373.1 1093.8 373.4C1093.8 373.9 1093.8 374.4 1093.8 374.8V379.8C1093.6 383.1 1093.5 387.4 1093.4 392.5C1092.6 411.6 1092.2 436.9 1091.9 461.3C1091.1 518.1 1090.5 530.8 1088.5 533.9C1087.9 534.9 1086.2 540.3 1085 544.3C1082.8 551.4 1081.1 556.7 1079.6 559.8C1081.3 557.7 1083.3 555.1 1084.3 553.6C1087.6 549.1 1088.4 547.9 1090.4 548C1098.2 548 1100.3 552.6 1100.8 555.4L1100.5 555.2ZM960.8 466.4C964.4 466.4 967.8 466.8 971.5 467.7C969.3 461.4 963.7 446.8 949.8 413.1C949.3 427 948.6 447.1 947.8 467.6C948.7 467.1 949.7 467.2 950.2 467.2C950.2 467.2 950.3 467.2 950.4 467.2C950.5 467.2 950.6 467.2 950.7 467.2C954.4 466.7 957.7 466.4 960.9 466.4H960.8ZM1087.3 389.7C1086.5 391.7 1085.6 393.9 1084.5 396.5C1079.6 408.4 1072.4 426.3 1068.8 436C1073.6 433.7 1078.6 432.4 1083.8 432.3C1084.7 432.3 1085.5 432.3 1086.2 432.4C1086.5 417.7 1086.8 403.8 1087.3 392.2C1087.3 391.4 1087.3 390.5 1087.3 389.7Z" fill="#240040"/>
<path d="M1276.7 332.1C1278.7 332.4 1279 335.5 1278.8 337.2C1278.9 364.2 1276.4 398.1 1269.3 404.2C1269.6 396.9 1272.4 388.4 1271.9 378.9C1272.1 363.9 1269.5 346.6 1262.4 343.7C1256.5 343.5 1242 342.7 1239.8 342.7C1241.2 347.4 1250.5 355.6 1250 362.9C1249.8 363.5 1249.2 363.7 1248.9 363.1C1240.2 348.8 1227.2 342.4 1210.6 343.1C1194.4 343.3 1181.9 347.5 1176.4 356.8C1176.4 359 1176.3 363.6 1176.4 366.9C1176.7 378.4 1175.4 397.2 1176.4 407.9C1178.4 410.2 1180.7 409.6 1183.3 409.6C1206.8 409.9 1226.4 412.6 1241.2 425.5C1241.7 425.9 1241.2 426.5 1240.6 426C1235.3 422.3 1220.9 420.8 1209.7 421.2C1199.1 421.7 1178.8 420.6 1176.5 428.7C1176.4 448.1 1176.1 536.3 1186.6 566.6C1206.3 594.8 1251.6 592.8 1282.6 576.8C1268.8 592.8 1243 599.2 1219.5 598.7C1173.8 597.5 1147.2 571.4 1148.5 531.8C1145.7 473.2 1146.4 390.9 1146.3 348.6C1145.4 344.5 1140.6 341.9 1136 338.6C1134.6 338.1 1134.8 336.3 1134.6 335.4C1165.6 332.3 1246.4 337.5 1276.7 331.9V332.1Z" fill="#F8A637"/>
<path d="M1221.8 602C1221 602 1220.2 602 1219.4 602C1194.8 601.3 1175 593.7 1162 579.8C1150.6 567.7 1144.9 551.2 1145.5 532.1C1143.2 482.8 1143.3 416.1 1143.3 371.9C1143.3 363.5 1143.3 355.9 1143.3 349.2C1142.6 347 1139.8 345.1 1136.6 342.9C1135.9 342.4 1135.2 341.9 1134.5 341.4C1132.1 340.3 1131.8 337.6 1131.7 336.6C1131.7 336.5 1131.7 336.3 1131.7 336.2C1131.5 335.4 1131.7 334.5 1132.2 333.8C1132.7 333.1 1133.5 332.6 1134.4 332.6C1147.9 331.3 1170.5 331.5 1194.4 331.7C1226.3 332 1259.3 332.3 1276.3 329.2C1276.6 329.2 1276.8 329.2 1277.1 329.2C1277.1 329.2 1277.3 329.2 1277.4 329.2C1280.6 329.7 1282.4 332.8 1282.1 337.4C1282.1 347.6 1281.8 397.7 1271.6 406.6C1270.7 407.4 1269.4 407.6 1268.3 407C1267.2 406.5 1266.6 405.4 1266.6 404.2C1266.7 401.2 1267.3 398 1267.8 394.7C1268.6 389.7 1269.5 384.6 1269.2 379.1C1269.2 379.1 1269.2 379 1269.2 378.9C1269.4 362.8 1266.3 349.2 1262 346.7C1259.7 346.7 1256.5 346.4 1253.2 346.3C1250.5 346.2 1247.7 346 1245.3 345.9C1245.6 346.4 1246 346.9 1246.4 347.4C1249.6 351.9 1253.6 357.5 1253.3 363.2C1253.3 363.4 1253.3 363.6 1253.3 363.8C1252.9 365.3 1251.7 366.3 1250.3 366.5C1248.9 366.7 1247.5 366 1246.7 364.8C1238.7 351.6 1227.1 345.6 1211.1 346.3C1200 346.4 1185.9 348.6 1179.7 357.9C1179.7 359 1179.7 360.4 1179.7 361.9C1179.7 363.7 1179.7 365.6 1179.7 367.2C1179.8 371.8 1179.7 377.4 1179.5 383.4C1179.3 391.9 1179.1 400.6 1179.5 406.8C1180 407 1180.6 407 1182 407C1182.5 407 1183.1 407 1183.6 407C1205 407.3 1227.2 409.4 1243.4 423.6C1244.8 424.8 1245 426.9 1243.9 428.4C1242.7 429.8 1240.7 430 1239.1 428.9C1235 426.1 1222.2 424.2 1210.1 424.6C1208.4 424.6 1206.4 424.7 1204.3 424.8C1196.3 425 1181.7 425.2 1179.7 429.6C1179.5 454.9 1179.7 536.7 1189.5 565.6C1208 591.4 1250.7 590.4 1281.4 574.5C1282.7 573.8 1284.2 574.2 1285.1 575.3C1286 576.4 1286 578 1285.1 579.1C1272.6 593.6 1249.2 602.1 1222.1 602.1L1221.8 602ZM1140.2 338.1C1144.3 340.9 1148.1 343.6 1149.1 348.1C1149.1 348.3 1149.1 348.5 1149.1 348.8C1149.1 355.6 1149.1 363.4 1149.1 371.9C1149.1 416 1149 482.7 1151.3 531.9V532.1C1150.7 549.6 1155.9 564.7 1166.2 575.6C1178.1 588.3 1196.5 595.3 1219.4 595.9C1235.6 596.2 1250.4 593.4 1262.1 588C1232.7 595.9 1200 591.5 1183.9 568.5C1183.7 568.3 1183.6 568 1183.5 567.8C1173.2 538.2 1173 454 1173.2 428.9C1173.2 428.6 1173.2 428.3 1173.3 428.1C1175.9 419.2 1191.3 418.9 1203.7 418.6C1205.7 418.6 1207.7 418.6 1209.3 418.4C1213.9 418.2 1219.1 418.4 1224.1 418.9C1212.6 414.3 1198.9 413 1183 412.8C1182.5 412.8 1182 412.8 1181.6 412.8C1179.4 412.8 1176.4 412.9 1173.8 410C1173.4 409.5 1173.1 408.9 1173.1 408.3C1172.5 401.6 1172.7 392.2 1172.9 383C1173 377.1 1173.2 371.5 1173.1 367.1C1173.1 365.4 1173.1 363.5 1173.1 361.6C1173.1 359.8 1173.1 358 1173.1 357C1173.1 356.4 1173.2 355.8 1173.5 355.3C1179.3 345.6 1192 340.3 1210.3 340.1C1221.6 339.6 1231.2 342.2 1239.1 348C1238 346.4 1237.2 344.9 1236.8 343.5C1236.5 342.6 1236.8 341.6 1237.3 340.9C1237.8 340.2 1238.7 339.7 1239.7 339.7C1241 339.7 1245.9 339.9 1253.1 340.3C1256.7 340.5 1260.2 340.6 1262.5 340.7C1262.9 340.7 1263.2 340.7 1263.5 340.9C1271.4 344.2 1273.9 358.7 1274.6 369.3C1275.4 359.8 1275.8 348.9 1275.7 337.2C1275.7 337.2 1275.7 337.1 1275.7 337C1275.7 336.3 1275.7 335.7 1275.7 335.3C1257.8 338.3 1225.4 338 1194.1 337.7C1173.4 337.5 1153.7 337.3 1140.2 338.1Z" fill="#240040"/>
</svg>
