<?xml version="1.0" encoding="UTF-8"?>
<svg id="Layer_1" xmlns="http://www.w3.org/2000/svg" version="1.1" viewBox="0 0 102 86.88">
  <!-- Generator: Adobe Illustrator 30.1.0, SVG Export Plug-In . SVG Version: 2.1.1 Build 136)  -->
  <defs>
    <style>
      .st0 {
        fill: #370656;
      }

      .st1 {
        fill: #27d8d9;
      }

      .st2 {
        fill: #67ece6;
      }

      .st3 {
        fill: #58e7e5;
      }

      .st4 {
        fill: #4b424c;
      }

      .st5 {
        fill: #33dbd6;
      }

      .st6 {
        fill: #034c50;
      }

      .st7 {
        fill: #4a3e4c;
      }

      .st8 {
        fill: #7d707d;
      }

      .st9 {
        fill: #16d2dd;
      }

      .st10 {
        fill: #7c6f7c;
      }

      .st11 {
        fill: #f2f0f2;
      }

      .st12 {
        fill: #6fefe7;
      }

      .st13 {
        fill: #c3fbc9;
      }

      .st14 {
        fill: #9ff6c9;
      }

      .st15 {
        fill: #93e2bb;
      }

      .st16 {
        fill: #6deee7;
      }

      .st17 {
        fill: #3b0c58;
      }

      .st18 {
        fill: #8ef8eb;
      }

      .st19 {
        fill: #9ffeed;
      }

      .st20 {
        fill: #6b5573;
      }

      .st21 {
        fill: #6f6171;
      }

      .st22 {
        fill: #6bede7;
      }

      .st23 {
        fill: #65ebca;
      }

      .st24 {
        fill: #4b424b;
      }

      .st25 {
        fill: #55e6e4;
      }

      .st26 {
        fill: #370856;
      }

      .st27 {
        fill: #361157;
      }

      .st28 {
        fill: #36dcd6;
      }

      .st29 {
        fill: #37ddd5;
      }

      .st30 {
        fill: #391959;
      }

      .st31 {
        fill: #7c707c;
      }

      .st32 {
        fill: #4de4e4;
      }

      .st33 {
        fill: #6aede7;
      }

      .st34 {
        fill: #c3fcc9;
      }

      .st35 {
        fill: #36ddd5;
      }

      .st36 {
        fill: #7c707d;
      }

      .st37 {
        fill: #3adee2;
      }

      .st38 {
        fill: #70efe8;
      }
    </style>
  </defs>
  <path class="st0" d="M30.44,12.85v.17c-.35.76-.71,1.53-1.07,2.29l-.22.23c-.45.22-.93.37-1.46.45-.91.26-1.8.53-2.69.84h-.23l-.42.3c-6.14,3.05-11.39,8.72-12.42,15.66-.38,2.59.04,4.97,2.14,6.68-.03.25.04.15.18-.28,1.19-2.48,3.22-5.45,5.12-7.44.06-.06.13-.11.2-.16s.15-.09.23-.13c-.03-.07-.01-.13.01-.18.08-.18,1.33-1.24,1.56-1.42.53-.42,1.86-1.46,2.55-1.06.42.24.53.81.31,1.23.63-.21,1.27-.41,1.92-.59l-.26-.35c-.21-.55-.3-1.14-.27-1.77,0-.16-.12-.69-.3-.73-.34-.07-1.49.56-1.81.76-1.33.83-2.58,1.75-3.74,2.84l-.36.16-.02.18-2.63,2.37c-1.29.94-2.45.91-2.63-.92-.31-3.14,2.6-5.91,5.07-7.42.06-.03.12-.05.19-.07s.14-.03.21-.03l.15-.23,1.89-1.09c.95-.6,2.09-1.33,2.25-2.53-1.28.71-2.48,1.52-3.62,2.42h-.14c-.33.42-.68.84-1.06,1.23-.37.32-.77-.03-.65-.34.68-1.83,2.6-3.42,4.06-4.61h.13c.55-.56,1.74-1.7,2.56-1.24.71.4.76,1.24.66,1.97-.4,3-2.57,4.24-4.99,5.59l-1.57,1.03-.14-.05-.13.24c-1.62,1.12-3.27,2.7-3.42,4.76,1.15-1.04,2.28-2.12,3.39-3.24l.14.04c.03-.07.06-.14.09-.2s.07-.12.12-.17c1.46-1.42,3.38-2.81,5.28-3.52s2.77,1.51,2.81,2.99l.5-.27.14.06.12.19c.35,1.31.72,2.61,1.1,3.9v.22l-.17.07c-1.67-.4-3.47,1.06-4.58,2.22-4.3,4.48-5.72,12.5-1.98,17.7,2.73,3.79,7.84,1.65,10.36-1.21l1.75-1.9c.31-.12.44.13.32.4l-2.81,3.85c-1.4,2.34-4.39,4.19-7.18,3.74-3.39-.54-5.4-3.88-6.22-6.99-1.64-6.22.86-14.68,6.53-18.09-1.09.17-2.14.5-3.16.92-4.04,4.74-8.13,10.4-7.83,16.9.17,3.64,1.95,7.37,4.65,9.81,1.73,1.56,3.25,2.15,5.49,2.1.23.05.43.16.54.38.12-.08.22-.19.3-.31,2.57-3.73,5.79-6.78,9.48-9.41.45-.32,1.9-1.34,2.33-1.37h.17c.08-.06.16-.1.23-.12l.15-.22c1.4-.69,3.12-1.29,4.62-.57l1.5-1.01s.08-.02.12,0c.78.14-.69,1.16-.88,1.29-.45.43-.95.83-1.51,1.2-4.54,3.76-8.92,7.76-11.96,12.97-.91,1.6-1.79,3.41-1.87,5.24,1.87-1.61,3.74-3.21,5.59-4.79,2.8-2.08,6.94-4.48,10.54-4.32,1.46.06,3.07.76,3.84,2.02,1.31-.81,2.63-1.26,4.15-1.34s2.28,1.19,2.81,2.47c.8,1.95.78,4.93-.21,6.81-.02.04-.05.06-.09.09s-.08.05-.12.07v.28c-.55,1.02-1.28,1.93-2.09,2.74,1.43,2.85,4.66,3.62,7.66,3.64,7.48.06,13.83-2.86,19.07-8.15,3.2-3.23,6.05-8.19,2.7-12.24l-.06-.25-.22-.07c-2.34-2.84-6.56-3.59-10.01-2.77.53.12.86.87.41,1.37-2.43,1.41-5.12,3.07-6.52,5.67-.57,1.06.77.71,1.3.44,2.95-1.83,6-3.61,9.13-5.34-.26-.1-.63-.08-.9,0-2.15.64-4,1.57-5.8,2.9l-.62.22c-.13.12-.52.27-.6.04-.09-.24.97-1.32,1.19-1.5,1.65-1.34,3.61-2.23,5.65-2.79.67-.18,1.85-.1,2.12.66.19.52-.03,1.1-.51,1.38-3.22,1.77-6.33,3.59-9.34,5.45-1.76.8-3.16.32-2.69-1.78l-2.05,3.34c-.78,1.58.07,1.58,1.49,1.02l7.52-3.95c2.33-1.22,6.68-2.33,6.87,1.59.2,4.2-4.93,8.17-8.37,9.7-4.07,1.8-11.04,2.87-13.16-2.2-1.79-4.28,1.28-9.21,4.11-12.29.55-.51,1.14-.89,1.79-1.15.38.04.68-.06.91-.28l-1.06-2.82c-.05-.3.25-.54.4-.33.62.84,1.17,1.82,1.65,2.73l.03-.11c.86-.46,1.76-.82,2.71-1.1l3.67-1.79c.75-.33,2.26-.72,3.02-.56.04,0,.08.03.11.07.02-.03.03-.05.05-.05.46-.03.48.09-.01,0-.04,0-.07-.04-.1-.07-.53.14-1.26-.25-1.68-.59-1.84-1.48-.44-3.5,1.53-3.8l2-.45c2.75-.84,4.9-3.29,5.39-6.14.26-1.52,0-2.73-1.07-3.87-2.13-2.23-4.86-.61-7.02.76-.79.5-1.76,1.3-1.97,2.2.81-.35.79.38.1.63-.3.11-.53.11-.71-.2-.44-.78.96-2.5,1.47-2.98,2.76-2.6,6.82-4.92,9.64-1.13,2.33,3.13.78,7.63-1.68,10.22-1.91,2-3.79,2.66-6.37,3.01-.11.03-.64.21-.65.26-.04.23,1.35.51,1.56.53,2.77.33,6.23-.68,8.4-2.44.99-.8,1.88-2.01,1.77-3.34-.04-.43-.14-.76-.61-.46-.77.5-1.57,1.34-1.38,2.31-.18.63-.8.5-.97-.11-.31-1.11,1.29-2.9,2.23-3.22,1.55-.52,1.85,1.48,1.42,2.51.02.04.04.08.05.12s.02.08.01.12c-.75,3.3-5.06,6.15-8.33,6.33,1.89.41,3.73,1.21,5.1,2.73l2.62-2.84c2.4-2.75,4.44-5.75,4.43-9.51,0-2.65-1.15-4.85-2.73-6.9l-.26-.09c-3.9-3.76-10.01-2.85-14.45-.57h-.28v-.15c.4-.83.82-1.66,1.24-2.5l.2-.19.2-.25c2.14-1.35,4.46-2.1,6.99-2.19.05,0,.1.02.15.04s.1.05.15.08c.62-.2,1.36-.09,2,0,.68.11,1.45.27,2.01.65.58-1.68.99-3.41.86-5.21.04-.22.06-.44.06-.66l-.1-.23c-.37-2.86-1.05-5.67-2.23-8.31-2.77-2.59-6.79-3.33-10.45-2.64l-.31-.07s-.11.05-.12.03c-.31-.44-.76-1.17-.99-1.65-.07-.09-.09-.14,0-.24,1.05-.42,2.12-.68,3.27-.87,1.89-.32,3.72-.21,5.57.27,1.46.38,2.78.95,3.99,1.86,1.28.96,2.44,1.99,3.52,3.16,1.46,1.58,2.6,3.9,3.1,5.98.42,1.75.55,3.51.4,5.3-.05.69-.23,1.32-.36,1.99-.06,1.8-.54,3.6-1.59,5.1,1.05,1.64,1.8,3.42,2.15,5.34.23,1.3.19,2.58.03,3.88-.15,1.2-.47,2.3-.99,3.4-1.74,3.69-4.31,6.11-7.37,8.68-.08.07-.1.19-.04.27,1.26,1.62,1.85,3.59,1.74,5.65-.06,1.22-.38,2.3-.84,3.41-.91,2.19-2.24,4.07-3.92,5.73-2.32,2.29-4.9,4.23-7.85,5.64-3.8,1.82-7.16,2.4-11.37,2.31-1.25-.03-2.43-.21-3.62-.53-2.12-.57-3.77-1.83-4.77-3.79-.1-.2-.33-.32-.48-.5-1.61,1.44-3.29,2.57-5.53,2.4-1.38-.1-2.5-1-2.84-2.37-.24-.95-.31-1.92-.3-2.92l.03-2.62c0-.14-.04-.27-.2-.32-2.38,2.42-5.04,4.52-8.01,6.18-2.22,1.24-5.29,2.43-7.84,2.21-2.8-.24-4.4-2.66-4.53-5.31-.06-1.28.1-2.52.46-3.76l-1.67-.24c-2.56-.37-5.42-3.21-6.94-5.22-1.87-2.48-3.03-5.41-3.19-8.53-.22-4.32,1.06-8.78,2.83-12.71-.58-.23-1.16-.37-1.67-.73-.84-.6-1.43-1.46-1.84-2.4-.6-1.42-.74-2.89-.64-4.42.15-2.56.76-4.99,1.93-7.28,1.27-2.51,2.95-4.79,4.99-6.73,1.63-1.55,3.45-2.84,5.41-3.94s4.01-1.75,6.21-2c.81-.09,1.56-.2,2.33-.16h.04Z"/>
  <path class="st6" d="M70.89,11.47l1.12,1.86.22.21c.24.45,1.11,2.25,1.08,2.61,0,.05-.02.11-.03.16.05,0,.12-.02.13.02.13.31.51,1.43.54,1.71l-.09.12s.08.1.11.15.06.1.07.16c.29,1.28.51,2.65.5,3.95l-.07.18c.03.07.06.15.08.22s.04.15.04.22c.02,1.18-.1,2.43-.27,3.59-.09.59-.19,1.22-.35,1.79-.04.15-.14.29-.23.42.01.08.02.15.02.23s0,.15-.02.22c-.22.83-.51,1.66-.81,2.46-.03.07-.07.13-.11.19-.04.06-.1.12-.15.18-.37.98-.96,1.86-1.44,2.84.05.1.06.19-.01.27-1.82,3.02-4.27,5.59-7.42,7.28-.05.03-.12.04-.18.05s-.13.02-.2.02c-.16.2-.32.28-.48.24l-.08.16c-2.98,1.03-6.31,2.13-9.47,2.36-.8.06-1.45-.07-2.2-.27-.29.09-.58.17-.87.26-4.53-.25-9.49-1.09-13.33-3.63-2.79-1.84-4.99-4.39-6.54-7.34-.03-.06-.05-.12-.06-.19s-.02-.14-.02-.21c-.25-.09-.3-.19-.18-.29-.26-.19-.5-.73-.6-1.05l.07-.13c-.12-.02-.18-.13-.13-.25-.17-.03-.44-.52-.28-.65-.48-1.4-.92-2.8-1.21-4.31-.04-.07-.09-.13-.12-.21s-.07-.14-.08-.21c-.65-3.59-.26-7.53,1.02-10.95.03-.07.07-.13.12-.2s.1-.13.16-.19c.35-.93.85-1.8,1.3-2.69,1.85-3.38,4.96-6.51,8.21-8.61,1.66-1.07,3.42-1.87,5.27-2.53,1.46-.52,2.91-.77,4.45-.91.93-.08,1.79.06,2.72.07s1.72-.17,2.6-.07c1.16.12,2.27.22,3.41.56,4.71,1.39,8.47,3.83,11.75,7.48.75.84,1.45,1.65,2.03,2.62v.03Z"/>
  <path class="st10" d="M29.27,31.6c.08.24.24.42.28.65-.03.14.02.19.13.25l.52,1.18-.19.07c-2.44-.48-4.75,1.55-6.17,3.35-2.93,3.71-2.68,10.59,2.5,12.05,2.56.72,6.24,0,7.2-2.75.56-1.73,1.12-3.46,1.69-5.19-.42,1.1-.86,2.22-1.39,3.28-.84,1.67-1.53,2.57-3.39,3.26-2.03.76-4.59.55-6.23-.93-1.79-1.62-2.05-4.15-1.49-6.41.67-2.68,3.64-6.17,6.45-6.59.38-.06.89-.12,1.17.15.72,1.31,1.45,2.53,2.37,3.68,1.16,1.45,2.49,2.7,4.02,3.75,1.32.91,2.7,1.57,4.21,2.11,1.61.57,3.21.98,4.91,1.25,1.48.23,2.93.4,4.42.46.34,0,.66-.32.97-.25l.97.22c1.77.4,8.34-1.38,10.71-2.37.15.04.31-.04.48-.24,1.4-.75,2.65-1.58,3.81-2.63,1.24-1.12,2.32-2.33,3.2-3.75.27-.43.59-.81.8-1.24,2.03-.99,4.65-2.02,6.96-2.07,1.06-.02,2.09,0,3.15.17,1.88.3,3.58,1.23,4.88,2.56l.41.6c0,.33.09.66.28,1,.65,2.8.32,5.8-1.5,8.07-.09.21-.2.3-.34.29.06-.64.2-2.19-.68-2.43-.4-.11-.8,0-1.14.26-.59.43-1.08.96-1.47,1.57s-.42,1.75.2,1.69c.5-.04.16-.85.31-1.13.32-.63.79-1.16,1.39-1.55.15-.1.6-.22.69,0,.31.83.07,1.73-.36,2.47-.62,1.06-1.54,1.75-2.59,2.35-1.67.95-3.43,1.55-5.36,1.65-.89.05-2.96.11-3.6-.71.37-.23.75-.35,1.16-.42l1.27-.22c1.48-.26,2.79-.91,3.9-1.92s2.03-2.08,2.67-3.43c.59-1.24.89-2.57.9-3.95.02-2.05-1.03-3.96-2.82-4.95-1.14-.62-2.46-.57-3.64-.1-1.41.57-2.62,1.41-3.76,2.42-.64.57-1.22,1.16-1.58,1.94-.16.34-.46,1.11-.09,1.37.1.07.3.08.41,0,.29-.2.52-.24.44-.47-.06-.17-.53.16-.67.08.21-1.09,1.26-1.86,2.09-2.44,1.12-.78,2.3-1.4,3.61-1.76s2.64.03,3.56,1.02c.82.87,1.3,1.96,1.2,3.19-.19,2.42-1.18,4.07-2.99,5.63-2.47,2.13-4.67,1.26-6.29,2.66-.74.64-.74,1.73-.1,2.46.51.57,1.2.86,1.93.99.12.04.14.09.06.12-.67,0-1.34.14-2.04.25-.57.09-1.06.37-1.58.62l-3.02,1.48c-.82.4-2.01.54-2.95,1.24-.55-.95-1.11-1.84-1.7-2.74-.05-.08-.19,0-.19.06,0,.03-.04.08-.02.15l1.11,2.93c-.92.6-.61.05-1.46.47-.47.23-.82.62-1.24.91-.18.12-.21.2-.33.35-.8,1-1.62,1.93-2.32,3.02-.92,1.44-1.57,3-1.88,4.68-.63,3.37.83,6.59,4.27,7.47,1.39.35,2.79.41,4.24.21,2.87-.39,5.55-1.46,7.93-3.1,1.2-.83,2.22-1.8,3.16-2.89.65-.75,1.17-1.55,1.56-2.45.62-1.42.89-3.47-.39-4.6-1.37-1.22-4.44-.13-5.9.64l-3.34,1.76-3.69,1.94c-.57.3-1.15.52-1.81.51-.2,0-.39-.05-.49-.21-.27-.44.31-1.39.58-1.83l2.03-3.29c.57-.93,1.1-2.45.21-3.39.58-.13,1.05-.33,1.58-.53,1.32-.5,2.67-.85,4.07-1.06.16-.02.3.08.46-.03.08-.05.2-.09.32-.02-1.45.45-2.72,1.22-3.9,2.19-1.1.9-2.94,2.62-2.94,4.12,0,.75.51,1.32,1.26,1.31.51,0,1-.15,1.44-.42l3.02-1.83c2.05-1.25,4.09-2.42,6.2-3.55.41-.22.6-.62.55-1.04-.11-.89-1.31-.98-2.07-.78-1.98.51-4.5,1.71-5.98,3.13-.3.29-.49.68-.76,1.01.29.09.36-.12.54-.15.36-.07.64-.23.94-.45,1.61-1.18,3.39-2.11,5.32-2.63.45-.12.87-.16,1.32.04-.37.26-.74.45-1.15.66-1.56.83-3.05,1.7-4.57,2.62l-3.54,2.15c-.43.26-1.4.6-1.64.16-.08-.14-.08-.34-.02-.5.65-1.61,3.09-3.77,4.49-4.61l2.06-1.25c.13-.08.19-.09.21-.27.02-.22.08-.43-.07-.63-.28-.37-.66-.26-1.03-.36.48-.11.94-.31,1.45-.37,2.43-.31,4.47-.02,6.68.95,1.16.51,1.95,1.32,2.74,2.2l.09.25-.32,2.55c-.3,4.65-3.47,8.15-7.15,10.8-2.79,2.01-4.9,3.24-8.27,3.85s-6.07.06-9.2-1.11c-.77-.29-1.9-.99-2.33-1.69-.14-.24-.22-.39-.13-.67,1.25-2.62,1.26-6.11-.59-8.5-.49-.64-1.2-.93-1.99-.8-.54.09-1.06.08-1.58.24-.87.26-1.64.67-2.43,1.15-.09-.28-.26-.48-.46-.67-1.08-1.05-2.48-1.51-3.99-1.41-3.47.21-7.81,2.55-10.39,4.77l-3.15,2.72c-.68.59-1.3,1.18-2.03,1.74-.15-1.09.52-2.85.97-3.82,1.64-3.48,3.97-6.43,6.7-9.11.22-.21.38-.47.59-.67l2.64-2.45c1.22-1.14,2.51-2.16,3.82-3.18.14-.11.22-.07.34-.23.39-.51,1.47-1.01,1.33-1.29-.02-.04-.09-.12-.15-.08l-1.57,1.06c-1.28-.86-3.58-.03-4.75.63-.06,0-.14.04-.23.12-.94.44-1.8,1.02-2.69,1.64-3.45,2.4-6.43,5.38-8.88,8.78-.24.34-.44.62-.77.92-.04-.37-.35-.53-.73-.54l-.84-.02c-1.19-.03-2.25-.41-3.22-1.07-1.71-1.17-3.02-2.73-4.05-4.52-1.3-2.24-1.96-4.67-1.92-7.28.03-2.02.42-3.93,1.18-5.79,1.6-3.94,3.96-7.12,6.71-10.31,1.27-.53,2.53-.89,3.89-1.03-.92.43-1.71.98-2.46,1.67-1.37,1.25-2.4,2.74-3.2,4.4-.95,1.97-1.55,4.01-1.77,6.2-.14,1.35-.18,2.63-.03,3.97.25,2.18.96,4.21,2.19,6.02,1.73,2.54,4.66,3.73,7.58,2.45,1.09-.48,2.06-1.17,2.89-2,.4-.41.62-.86.95-1.31l2.78-3.8c.05-.07,0-.2-.06-.25-.04-.03-.11,0-.17.09-.96,1.05-1.86,2.12-2.93,3.06-.82.72-2.71,1.59-3.81,1.89-2.16.59-4.25-.22-5.53-2.01-1.44-1.99-2.1-4.35-2.11-6.8,0-2.19.36-4.26,1.17-6.29s2.12-4.01,3.86-5.49c1.01-.85,2.63-1.91,3.95-1.39h.09Z"/>
  <path class="st24" d="M54.2,70.21c.14,1.06,1.61,1.88,2.55,2.27,2.34.98,4.95,1.47,7.5,1.29,2.22-.16,5.05-.97,6.97-2.14,1.51-.92,2.9-1.93,4.32-3,1.36-1.18,2.58-2.46,3.61-3.93,1.31-1.87,1.72-3.46,2-5.68l.35-2.78c1.64,1.84,2.16,4.42,1.25,6.8-.69,1.8-1.71,3.49-3.01,4.93-1.15,1.26-2.37,2.38-3.71,3.43-2.97,2.33-6.45,4.12-10.15,4.96-1.84.42-3.66.57-5.54.62-1.29.03-2.52-.09-3.76-.37-1.89-.42-3.81-1.61-4.55-3.41.85-.95,1.66-1.89,2.19-3h-.02Z"/>
  <path class="st31" d="M75.63,61.5c.72.28.15,1.5-.11,1.98-.95,1.79-3.14,3.73-4.89,4.77-2.02,1.2-4.19,2.01-6.53,2.33-2.01.27-4.88.1-5.99-1.87-.51-.89-.59-1.92-.45-2.94.39-2.75,1.55-4.68,3.1-6.9.42-.59,1.37-1.73,2.13-1.78.18-.22.42-.36.69-.41.08.46-.02.89-.24,1.28l-1.82,3.21c-.7,1.23-1.57,2.74-.93,4.16.3.68.92,1.04,1.65.97.69-.06,1.32-.24,1.94-.56l3.83-1.97c1.18-.61,2.32-1.19,3.52-1.74s2.88-.99,4.09-.51v-.02Z"/>
  <path class="st24" d="M45.09,66.25c-.06.34-.11.68-.13,1.02-.11.57-.11,1.12.07,1.68v.14c.05.56.31,1.78.67,2.19.83.95,1.86.26,2.58-.47h.17l.16-.06c2.99.69,4.6-2.5,3.91-5.1l.08-.18c0-.33.07-.67.19-1l.15-.07c.68,1.61.51,3.5-.32,5.1-.93,1.78-2.38,3.29-4.11,4.31-.95.56-2,.76-3.04.52-.68-.16-1.13-.69-1.24-1.36-.13-.79-.19-1.54-.19-2.34v-2.34c.02-.78-.25-1.57-.95-1.92.04-.06,0-.09-.12-.08-.42-.25-.9-.16-1.29.17-2.63,2.24-5.33,4.39-8.44,5.95-1.81.9-4.38,1.79-6.4,1.54-1.32-.17-2.32-1.04-2.69-2.32-.46-1.6-.07-3.79.47-5.27l.1.09c-.07,1.27.76,2.53,1.72,3.3l.11.19c.1.53.43,1.08,1.12,1.01.41-.04.7-.28.98-.52,1.94-.19,3.65-1.24,5.26-2.31,2.55-1.95,5.23-3.27,8.39-3.88,1.61-.31,3.24.16,2.77,2.01h.02Z"/>
  <path class="st24" d="M24.77,16.84l.02.15c-.73.77-1.45,1.55-2.18,2.32-.02.12-.14.16-.24.24-1.61,1.32-2.9,2.48-3.82,4.37-.05.11.04.29.1.34.09.07.27.01.36-.09.37-.41.7-.84,1.13-1.14l.06.17c-.16.45-.36.87-.6,1.26-.69.41-1.34.86-2,1.36-1.15.88-2.08,1.95-2.73,3.24-.52,1.03-.94,2.82-.35,3.85.24.42.69.6,1.17.45.43-.13.81-.39,1.15-.7l2.56-2.31c.06.03.12.07.15.14.05.11.23.66.26.78.01.07,0,.14-.04.2-2.28,2.4-4.15,5.25-5.67,8.22-.44-.42-.88-.78-1.23-1.26-1.02-1.39-1.36-3.08-1.19-4.79.19-1.85.58-3.61,1.36-5.3,1.81-3.93,4.7-7.23,8.31-9.61,1.11-.73,2.2-1.4,3.4-1.89h.02Z"/>
  <path class="st8" d="M85.1,24.58c.03.37-.08.67-.27,1.01-1,1.74-2.61,3.01-4.26,4.11l-.41.1c-3.03.02-4.91.84-7.48,2.32.41-1.09.79-2.17,1.07-3.27h.18c1.81,1.59,4.83.14,6.23-1.41,2.79-3.08,2.9-8.05-.02-11.08-2.11-2.18-4.54-2.23-6.65-.09l-.22.04c-.33-1.03-.84-1.99-1.27-2.98,2.57-.44,4.56-.46,7.09.4,1.42.48,2.69,1.19,3.77,2.25,1.22,2.74,1.98,5.65,2.24,8.61h0Z"/>
  <path class="st24" d="M85.09,45.57c.39-.57,1.34-1.96,1.53-2.61.58-1.95.6-3.27.3-5.28-.06-.41-.24-.75-.38-1.13-.04-.12.03-.26-.02-.38-.09-.2-.23-.36-.28-.56.34.35.68.69.96,1.14.7,1.08,1.26,2.22,1.61,3.47.24.87.28,1.74.28,2.64,0,1.07-.19,2.06-.57,3.07-.71,1.9-1.73,3.59-3.01,5.15-.7.86-1.43,1.61-2.18,2.42l-1.4,1.53c-1.11-1.19-2.46-2.07-4-2.48l-1.78-.48c1.37-.08,2.7-.35,3.96-.95.68-.32,1.24-.72,1.84-1.17,1.47-1.09,2.77-2.6,3.15-4.4v.02Z"/>
  <path class="st8" d="M26.56,69.96c-.79-.39-1.71-1.81-1.89-2.71-.05-.26-.1-.63-.04-.88.4-1.57,1.09-3.05,1.95-4.47,2.61-4.31,6.14-7.88,10.32-10.66,1.17-.78,3.71-2.04,5.07-1.36l-3.99,2.81c-.79.56-1.58,1.06-2.25,1.76-.24.25-.49.42-.74.65-3.06,2.87-5.68,6.21-7.44,10.04-.63,1.38-1.28,3.37-1,4.82h.01Z"/>
  <path class="st24" d="M14.74,54.19c.61,1.3,1.23,2.51,2.07,3.66,1.53,2.1,4.89,5.42,7.79,4.74-.56,1.07-1.07,2.09-1.44,3.19-.08.23-.16.36-.43.37-1.57,0-3.44-1.35-4.55-2.4-2.82-2.65-5.11-6.17-5.39-10.08l.13-.08c.56.29,1.13.45,1.72.5l.11.11h0Z"/>
  <path class="st8" d="M45.15,66.31s-.07,0-.06-.06c.07-.76-.14-1.69-1.06-1.88-.56-.12-1.11-.11-1.69-.01-2.63.46-5.04,1.54-7.21,3.08-1.14.81-2.25,1.56-3.49,2.2-.89.46-1.8.78-2.8.9-.1.01-.18-.03-.18-.09l2.75-2.34c.89-.76,1.73-1.49,2.66-2.2,2.59-1.99,6.18-3.99,9.45-4.4.98-.12,1.94-.06,2.86.28.23.08,1.16.5.8.82-1.38,1.22-1.67,1.88-2.04,3.72v-.02Z"/>
  <path class="st8" d="M28.06,27.3c-.24.13-.46.31-.77.38-.06-.98-.19-1.94-.91-2.67-.49-.5-1.14-.61-1.79-.36-.93.36-1.79.81-2.61,1.4-1.01.73-1.98,1.5-2.86,2.35-.15-.12-.2-.32-.16-.59,0-.37,0-.9.18-1.2l1.4-.93c1.21-.8,2.89-1.5,4.01-2.87.78-.96,1.2-2.18,1.2-3.42,0-.42-.17-.82-.46-1.09s-.65-.3-.99-.13c-.62.31-1.13.77-1.69,1.13.06-.32,1.83-2.12,2.15-2.47,1.41-.58,2.89-1.01,4.38-1.3-1.46,3.82-1.85,7.78-1.09,11.75v.02Z"/>
  <path class="st24" d="M87.12,32.38c-.84-.74-1.69-1.28-2.64-1.75,1.19-1.87,1.82-3.25,1.94-5.44s-.22-4.13-.8-6.37c.66.68,1.06,1.49,1.44,2.32.47,1.01.77,2.04.91,3.15.13,1.03.21,2.02.09,3.05l-.36,3.19c-.07.65-.35,1.27-.58,1.86h0Z"/>
  <path class="st36" d="M52.95,64.4c-.12.36-.16.74-.34,1.07l-.15-.06c-.3-.82-1.1-1.15-1.93-.94-.84-.88-1.74-.56-2.5.24-1.8,1.89-2.1,4.47.33,5.93l.09.17c-.44.42-.94.9-1.58,1.03-.74.15-1.41-.45-1.61-1.12-.08-.27-.41-1.7-.22-1.77.1.3.15.61.34.92.14.24.5.36.71.13.32-.35.19-.8-.03-1.15s-.25-.84-.15-1.26c.21-.84.38-1.69.76-2.48.54-1.12,2.04-1.91,3.17-2.35.6-.24,1.24-.3,1.87-.18.72.14,1.05,1.32,1.26,1.81h-.02Z"/>
  <path class="st36" d="M19.79,31.47c-.18-.35-.29-.73-.38-1.11,1.11-1,2.24-1.98,3.53-2.8.4-.26,2.1-1.27,2.44-1.05.1.06.17.17.23.3.34.96-.2,1.9.78,2.72-.89.18-1.67.47-2.54.81.39-.39.5-.92.13-1.32-.83-.89-3.63,1.86-4.2,2.45h0Z"/>
  <path class="st24" d="M80.17,29.8c.93-.51,1.75-1.2,2.58-1.91.94-.8,1.69-1.71,2.21-2.82.08-.16.15-.31.14-.48.23,2.03-.07,4.01-.88,5.96-1.34-.61-2.68-.75-4.05-.74h0Z"/>
  <path class="st7" d="M14.74,54.19c-.62.1-1.4-.33-1.96-.53-.16-2.53.28-5.25,1.06-7.63-.14,1.35-.23,2.63-.08,3.97.1,1.47.51,2.83.99,4.19h-.01Z"/>
  <path class="st24" d="M19.12,28.41l-3.07,2.98c-.17.17-.31.34-.58.4,0-.94.34-1.74.83-2.49.74-1.11,1.75-1.96,2.84-2.68,0,.6-.12,1.2-.02,1.79Z"/>
  <path class="st31" d="M19.6,24.46c.1-.5.37-.95.54-1.43.11-.32,3.28-2.34,3.91-2.63-.03.54-.22,1-.53,1.38-.88,1.1-2.76,1.99-3.92,2.68Z"/>
  <path class="st17" d="M37.53,50.3c-.08.04-.15.08-.23.12l.2-.16c-.17,0-.32,0-.39-.14-.04-.1-.02-.26.1-.35.1-.08.29-.07.37.08s-.02.31-.04.44h0Z"/>
  <path class="st21" d="M45.15,66.31l-.19.96c-.17.06.14-1.13.13-1.02.02.02.04.04.06.06Z"/>
  <path class="st11" d="M43.11,66.37s-.08-.06-.12-.08c.04-.05.12-.18.2-.14s.03.14.02.18c0,.03-.05.04-.1.04Z"/>
  <path class="st20" d="M73.76,51.98l-.06-.12c.16.03.32.05.49.09-.16.06-.3.03-.43.03Z"/>
  <path class="st23" d="M73.11,19.85c.5,3.28.02,6.89-.79,10.14-.62,2.17-2.09,4.78-3.48,6.59-.16.21-.37.33-.49.53-.65.66-1.35,1.37-2.12,1.89-.04.02-.08.03-.13.04s-.1,0-.15,0l-.58.52c-.77.47-1.57.88-2.38,1.27-.06.03-.12.04-.19.05s-.14,0-.21,0c-.19-.14.02-.55.22-.62,1.96-.26,3.49-1.96,2.49-3.9-.28-1.6,1.54-1.9,2.08-.43.18-1.32-1.25-2.54-2.41-1.5-.84.75-.97,1.89-.16,2.71,1.02,1.87-1.28,2.78-2.82,2.5.14.45.18.91.11,1.38l-.17.16c-.07.1-.15.2-.27.25-.38.19-1.42.65-1.77.67-.06,0-.12,0-.19,0-.28,0-.53-.12-.75-.4-.23.51-.58.91-1.11,1.12-.36.3-.91.48-1.37.43-.5.11-.71-.4-.83-.79-.27.69-1.45,1.62-2.15,1.09s.44-1.85.93-2.2c-1.31-.07-2.45,1.21-2.03,2.48l-.06.14c-.38.02-.78.34-1.18.28-.49-.07-.92-.26-1.39-.29l-.07-.14c.44-1.15-.92-2.65-2.08-2.43v.02c.49.43,1.72,1.6.91,2.21-.61.46-1.9-.44-2.14-1.06-.14.5-.36.88-.94.86-.15-.03-.28-.07-.42-.12-.12-.04-.22-.08-.3-.13-.74-.05-1.31-.67-1.64-1.31-.45.4-.91.64-1.53.54-.38-.12-.74-.28-1.1-.43-.75-.51-.64-1.39-.45-2.13-.74.1-1.57.07-2.24-.31-.22-.12-.59-.34-.52-.6.04-.11.03-.13-.02-.07-.24.08-.32-.31-.34-.51-.03-.29.07-.59.19-.85.6-.8.83-1.47.25-2.38-1.06-1.63-2.95-.61-2.78,1.09.49-1.42,2.28-1.25,2.1.35-.96,1.93.5,3.67,2.48,3.88.27.16.54.72.67,1.04v.2c-.5-.21-1.89-.84-2.21-1.21-1.74-1.43-3.31-3.02-4.81-4.66-2.4-3.36-3.85-7.35-4.08-11.52-.15-2.83.37-5.59,1.47-8.19.96-2.28,2.27-4.32,3.96-6.12,3.2-3.43,6.95-5.88,11.5-7.13,1.58-.43,3.16-.56,4.78-.65s4.47.21,6.06.64c4.52,1.23,8.24,3.65,11.43,7.03,2.61,2.76,4.5,6.29,5.19,9.99h.03Z"/>
  <path class="st0" d="M73.76,28.85c.53-2.08.77-4.16.72-6.25.07-.31.47-.57.75-.74.82-.51,1.95-.6,2.26.53.17.65-.25,2.45-.58,3.07-.79,1.48-2.04.79-1.49-.53.23-.25,1.06-1.3.87-1.62-.06-.11-.78.52-.87.63-.64.74-.85,1.76-.83,2.71.02.74.52.83,1.17.68,3.66-.85,5.55-5.06,3.4-8.26-1.39-2.07-3.19-2.43-5.11-.9h-.18l-.59-1.86c.56-.53,1.13-1.03,1.85-1.37,1.1-.51,2.31-.51,3.39.05,1.34.7,2.35,1.8,3.02,3.14,1.44,2.88,1.12,6.21-.78,8.79-1.19,1.62-2.96,2.67-5.02,2.75-.78.03-1.45-.28-1.98-.81h0Z"/>
  <path class="st8" d="M74.48,22.6c-.04-1.54-.31-2.99-.61-4.44,1.21-.9,2.57-1.57,4-.56.9.63,1.55,1.46,1.96,2.49.61,1.52.48,3.13-.33,4.55-.66,1.16-1.61,2.04-2.87,2.53-.46.18-.91.36-1.4.35-.39-.01-.7-.25-.74-.66-.14-1.38.43-3.24,1.91-3.72.05.66-.27,1.17-.69,1.6-.36.37-.49.97-.07,1.34.24.22.62.05.82-.18.71-.82.81-1.97.94-3.05.05-.42-.14-.8-.43-1.02-.86-.65-1.85.23-2.48.77h0Z"/>
  <path class="st0" d="M30.2,33.68c.05.11.13.22.18.29-2.54-.57-5.54,2.46-6.7,4.45-.78,1.34-1.11,2.9-1.06,4.44.08,2.56,1.69,4.66,4.26,5.09,2,.34,3.97-.15,5.52-1.47.96-.81,1.89-3.24,2.42-4.48.19-.45.27-.95.63-1.34-.03.69-.32,1.25-.51,1.85l-1.23,3.78c-.23.72-.54,1.32-1.15,1.81-1.58,1.26-3.6,1.69-5.59,1.32-1.35-.25-2.51-.84-3.42-1.87-1.07-1.2-1.63-2.69-1.7-4.3-.08-1.81.32-3.61,1.2-5.2.45-.8,1.05-1.44,1.67-2.11,1.32-1.39,3.5-2.85,5.47-2.26h.01Z"/>
  <path class="st34" d="M37.23,38.85s.06.03.02.07c.67.86,1.97.96,2.99.75-.34.81-.41,1.58.21,2.2.03.03.04.06,0,.09l-.66-.29c-.21-.33-.37-.68-.55-1.05-.08-.09-.29-.1-.41-.12-.72-.12-1.32-.43-1.84-.93-.78-.76-.97-1.85-.52-2.85.24-.53,0-1.18-.54-1.33-.78-.22-1.08.54-1.38,1.1-.26-.45-.14-.87.04-1.3.33-.78,1.19-1.27,2-.89.9.42,1.64,1.84.88,2.81-.39.49-.69,1.26-.24,1.75h0Z"/>
  <path class="st36" d="M65.19,40.04c-.96.8-2.62,1.62-3.84,2.07-2.03.76-4.13,1.27-6.25,1.53,0-.05,0-.12.02-.13.1-.05.98-.31,1.07-.31l.3.04c.47-.14.91-.29,1.37-.43.51-.29,1.05-.54,1.6-.74l.26.02c.74-.3,1.49-.57,2.22-.9.1-.2.46-.46.65-.3,1.15-.54,2.3-1.12,3.36-1.84.02.02.05.04.05.06.04.14-.66.82-.81.93Z"/>
  <path class="st34" d="M56.49,43.24l-1.38.4c-.89.26-1.84.26-2.77.31-.19-.34-.21-.73-.08-1.13.15-.41.32-.84.68-1.11.51-.39,1.17-.6,1.83-.49-.56.37-1.67,1.5-1.29,2.09.11.17.31.29.54.25.8-.12,1.4-.7,1.63-1.45.25.47.19.93.84,1.12h0Z"/>
  <path class="st34" d="M49.77,43.96c-1.45-.08-2.89-.3-4.31-.55.04-.09.15-.07.25-.11.54-.22.49-.75.71-1.09.2.93,1.64,1.84,2.14,1.23.12-.15.15-.36.08-.58-.28-.64-.75-1.12-1.37-1.56,1.16-.16,2.2.4,2.53,1.54.14.39.12.77-.04,1.12h.01Z"/>
  <path class="st9" d="M72.32,29.98c-.02-.2.08-.38.12-.61.32-1.69.49-3.37.68-5.09.1-.92.14-1.78.09-2.71l-.07-1.3c0-.16-.08-.3-.03-.43.25,1.32.42,2.62.36,4.02-.09,2.11-.44,4.18-1.15,6.11h0Z"/>
  <path class="st36" d="M37.6,40.47c-.1.03-.16-.07-.23-.12-1.88-1.17-3.33-2.8-4.58-4.54.09.03.15.1.24.18l3.08,3.02c.51.5,1.04.93,1.49,1.45h0Z"/>
  <path class="st34" d="M44.73,43.17c.1.03.1.05,0,.07-1.08-.19-2.13-.52-3.18-.85,0-.06.06-.05.12-.05.58-.02,1.1-.26,1.43-.75.31.77.9,1.3,1.63,1.57h0Z"/>
  <path class="st26" d="M65.19,40.04l.76-.99c.85-.58,1.58-1.32,2.4-1.94-.02.05-.03.11-.08.17-.88.99-1.83,1.88-2.89,2.67-.07.05-.13.08-.19.09Z"/>
  <path class="st27" d="M63.43,42.58c-.09.13-.26.39-.43.34-.03,0-.07-.05-.05-.09.17-.07.34-.17.48-.24h0Z"/>
  <path class="st30" d="M29.68,32.5s-.15.02-.17-.04-.02-.18.04-.21c.02.1.1.18.13.25Z"/>
  <path class="st15" d="M45.04,43.29c-.08-.03-.22-.04-.3-.05v-.07c.1.04.23.03.3.13h0Z"/>
  <path class="st0" d="M72.97,43.82c.6-.32,1.1-.73,1.65-1.11.88-.62,1.66-1.33,2.28-2.21.22-.31.12-.69-.21-.88-1.49-.87-3.95-.91-4.72.91-.2.48.96.27.89.48-.32.09-.62.02-.9-.07-.24-.08-.27-.37-.18-.6.82-1.99,3.18-2.51,5.06-1.81.72.27,1.17.92,1.16,1.7,0,.61-.27,1.11-.63,1.59-.98,1.31-2.22,2.31-3.7,3-.5.23-.82.62-1.46.54l-1.71-.21c.63-.28,1.14-.48,1.59-.88.26-.23.6-.3.88-.45Z"/>
  <path class="st0" d="M27.75,44.19c2.21-.24,4.49-3.61,4.72-3.51.05.02.06.1.02.15l-.8,1.06c-.62.83-1.19,1.64-1.72,2.53-.65.5-1.36.96-2.22.97-.76,0-1.61-.43-2.01-1.09-.51-.83-.7-1.8-.73-2.75-.02-.69.16-1.32.37-1.96.37-1.12,1-2.12,1.92-2.86.78-.62,2.44-1.2,3.05-.29.15.23.28.54.04.78-.06-.32,0-.55-.21-.75-.65-.64-1.94-.14-2.58.37-.58.47-1.03,1.04-1.34,1.72-.74,1.62-.98,3.54.1,5.06.28.4.93.62,1.39.57Z"/>
  <path class="st0" d="M52.61,65.47c.38,1.71.2,3.78-1.39,4.9-.75.53-1.87.85-2.77.45-1.51-.66-2.23-2.35-1.86-3.9.21-.85.62-1.53,1.21-2.15.5-.53,1.48-1.3,2.21-.81.18.12.38.22.54.41.92-.28,1.78.23,2.05,1.11h.01Z"/>
  <path class="st9" d="M51.02,40.76c-.22-.15-.38-.31-.58-.48-.66-.57-1.44-1.02-2.31-1.15s-1.73.07-2.39.62c-.74.61-.52,1.12-.71,1.88-.87-.68-1.93-1.45-3.05-1.08-.42.14-.7.45-1.01.74.3-.78.17-1.57-.23-2.28-.32-.56-.79-.88-1.43-.99-.57-.1-1.13-.09-1.67.28.4-.89.63-1.78.57-2.74-.06-.9-.64-1.58-1.52-1.75-.59-.11-1.17-.07-1.73.2-.19-.54-.45-.96-.82-1.4.51-.36.82-.83,1.01-1.4.27-.8,0-1.62-.7-2.12-.81-.57-1.74-.81-2.78-.91.58-.27.87-.76,1.06-1.3.22-.63.17-1.2-.18-1.76-.43-.71-1.1-1.23-1.94-1.28,1.15-.26,1.71-.78,1.86-1.95.08-.6-.06-1.16-.1-1.79.47.15.79.41,1.23.43.56.03,1.08-.21,1.52-.58,1-.83,1.35-2.29,1.12-3.51l-.21-1.14.98-.35c.42-.15.77-.36,1.13-.62.77-.55,1.32-1.38,1.42-2.33.06-.56-.04-1.12-.38-1.55-.25-.31-.62-.44-.93-.74,1.05-.42,2.28-.98,2.48-2.17.07-.4-.06-.73-.13-1.16.51.63,1.26.92,2.07.92.64,0,1.14-.24,1.55-.72.39-.45.66-.95.62-1.61.57.83,1.27,1.5,2.18,1.91.8.36,1.65.15,2.21-.51.37-.45.62-.95.66-1.56.55.08,1.05.09,1.63-.02.06.64.33,1.17.76,1.62.58.61,1.42.75,2.19.38.89-.44,1.57-1.13,2.12-1.94-.07.66.24,1.19.65,1.64s.94.69,1.58.67c.8-.03,1.55-.33,2.03-.99-.32,1.12-.13,1.86.81,2.56.47.35,1.01.51,1.57.78-.34.32-.7.46-.95.79-.32.43-.39.99-.32,1.53.34,2.58,3.44,3.1,3.54,3.21.05.06.04.15.02.23-.14.62-.24,1.19-.21,1.82.05,1.01.44,1.98,1.24,2.61,1.53,1.2,2.51-.04,2.68.12.12.1-.22,1.07.02,2.08.21.9.85,1.44,1.81,1.56-.85.14-1.48.63-1.9,1.35-.32.56-.37,1.11-.15,1.73.21.57.53,1.11,1.13,1.32-1.35.1-3.67.8-3.57,2.48.05.8.47,1.51,1.13,1.99-.35.44-.61.87-.79,1.42-.59-.27-1.16-.29-1.75-.16-.85.18-1.41.86-1.46,1.74-.06.96.19,1.85.61,2.76-.87-.58-2.38-.33-2.96.57-.45.7-.66,1.52-.36,2.33.02.08-.03.09-.08.04-1.24-1.37-2.74-.51-3.92.51-.12-.26-.09-.5-.12-.74-.16-1.34-1.76-1.91-3.02-1.71-1.17.19-1.95.87-2.85,1.68h.02Z"/>
  <path class="st34" d="M56.92,4.21c-.04.1-.07.09-.07-.01-.71-.04-1.16.54-1.4,1.18-.4,1.07-2,1.26-2.91.61-.3-.21-.49-.6-.53-.95-.1-.79.62-1.92,1.42-1.87-.36.57-.75,1.12-.31,1.66.16.2.42.31.73.3.34-.02.6-.21.8-.48.46-.63,1.15-1.06,1.96-1.07,1,0,1.9.49,2.52,1.26.15.18.27.25.51.2,1.64-.33,3.06.72,3.6,2.25.44.07.85.11,1.24.33.85.48,1.31,1.38,1.42,2.33.1.17.38.14.62.18.04-.04-.11-.02-.07-.12.36.05.59.32.83.55.4.38.58.89.48,1.44-.19,1.07-1.61,1.17-2.23.96s-1.18-.73-1.44-1.37c.62.28,2.14.71,2.47.07.1-.19.07-.44-.07-.62-.5-.61-1.29-.84-2.06-.65.11-.23.29-.32.42-.53.15-.23.28-.61.09-.87-.61-.83-1.64-1.29-2.71-1.13.25-.57.17-1.19-.17-1.72-.48-.73-1.4-.96-2.17-.51-.34.2-.58.49-.79.8-.17-.62-.51-1.11-.93-1.55-.33-.36-.74-.59-1.24-.66h0Z"/>
  <path class="st34" d="M44.61,4.31c0,.13-.04.09-.12,0-.99.08-1.87,1.32-2.12,2.22-.51-.76-1.39-1.23-2.21-.86-.89.4-1.3,1.46-.9,2.36-1.04-.13-2.05.3-2.67,1.14-.2.28-.09.66.08.92.14.2.32.3.44.51-.79-.17-1.56.07-2.06.68-.13.16-.16.37-.1.55.26.75,1.87.27,2.5-.04-.22.61-.69,1.06-1.24,1.33-.64.32-1.9.16-2.25-.43-.42-.69-.17-1.5.41-2.01.16-.14.26-.34.5-.28-.18-.11-.02-.09.06-.13.04-.02.24.25.67-.08.09-.91.48-1.73,1.22-2.26.78-.55,1.32-.21,1.47-.63.39-1.05,1.22-1.87,2.32-2.11.49-.11.96-.04,1.45,0l.49-.54c.39-.43.87-.69,1.41-.87,1.04-.34,2.14,0,2.79.89.18.24.42.44.72.48.32.04.59-.04.79-.27.48-.53.08-1.12-.31-1.69.76-.09,1.54,1.02,1.45,1.83-.04.36-.22.76-.52.97-.66.48-1.53.51-2.25.16-.84-.41-.54-1.11-1.37-1.69-.19-.14-.41-.18-.67-.17l.02.02Z"/>
  <path class="st34" d="M70.82,27.95c.46-.97-.15-2.29-.81-3.01.4-.06.76-.12,1.08-.32.74-.47.98-1.36.58-2.13-.29-.56-.79-.94-1.43-.98.67-.76.79-2.17.3-2.99-.51-.52-.93-.18-1.46-.17.59-.56.76-1.43.44-2.17-.09-.2-.29-.3-.47-.31-.72-.04-1.09,1.54-1.15,2.18-.85-1.16-.66-2.44.42-3.27.34-.22.69-.25,1.05-.12.83.3,1.18,1.18,1.1,2.03-.19.04-.38.47-.2.6,1.11.83,1.65,2.07,1.05,3.41-.07.15,0,.27.09.38.96,1.16,1.08,2.82.07,4.04-.14.17-.17.31-.08.52.32.77.36,1.59.1,2.38-.31.94-1.13,1.55-2.11,1.66-.35.04-.65.21-.82.5-.16.28-.17.58-.02.85.29.54.97.46,1.55.43-.32.71-1.65.81-2.3.35-.31-.22-.57-.6-.6-.99-.06-.77.32-1.48.91-1.93.77-.58,1.19-.02,2.08-.33.3-.1.56-.31.65-.61h-.02Z"/>
  <path class="st34" d="M31.02,28.29c.1.18.17.37.41.48.98.49,1.44-.21,2.28.37.63.43,1.03,1.17.98,1.95-.03.39-.29.78-.6,1-.64.46-1.95.39-2.29-.31.53,0,1.19.09,1.49-.38.14-.23.19-.48.1-.75-.14-.41-.51-.63-.94-.67-1.06-.1-1.91-.81-2.18-1.84-.19-.72-.16-1.44.12-2.14.1-.23.06-.39-.1-.57-1.08-1.27-.89-2.97.16-4.21-.16-.43-.35-.83-.34-1.31.03-.95.55-1.79,1.33-2.32.01-.21-.06-.36-.1-.51-.1-.07-.16-.19-.16-.35-.06-.21.04-.49.11-.72.14-.49.47-.85.95-1.04.35-.14.73-.13,1.05.1,1.11.8,1.3,2.11.47,3.27-.1-.73-.26-1.39-.69-1.94-.15-.19-.36-.25-.59-.21-.18.03-.35.19-.42.41-.24.73-.05,1.5.48,2.04-.39.03-1.03-.32-1.41.21-.48.66-.35,2.29.34,2.98-.65.06-1.14.46-1.42,1.02-.39.78-.12,1.68.64,2.12.31.18.65.23,1.06.3-.65.77-1.27,2.07-.74,3.03h0Z"/>
  <path class="st34" d="M62.6,40.89l-.65.3c.18-.55.09-1.12-.19-1.71.91.21,2.42.06,2.97-.79.13-.21.28-.39.26-.68-.03-.44-.22-.82-.5-1.16-.75-.89-.07-2.37.86-2.8.83-.39,1.7.11,2.03.92.16.41.29.81.03,1.23-.18-.32-.3-.6-.53-.85-.37-.39-.99-.35-1.3.1-.22.31-.23.71-.07,1.05.48,1.01.25,2.12-.54,2.89-.59.57-1.28.83-2.1.98-.17.03-.2.39-.25.51h-.02Z"/>
  <path class="st13" d="M59.72,42.1c-.62.25-1.22.54-1.86.72.46-.35.87-.76,1.08-1.36.22.32.49.48.79.64h-.01Z"/>
  <path class="st14" d="M31.34,17.08c-.09,0-.16-.04-.19-.1-.04-.09,0-.18.03-.25.12.06.12.23.16.35Z"/>
  <path class="st29" d="M44.61,4.31l.18.49c-.18-.13-.19-.33-.29-.49h.12,0Z"/>
  <path class="st28" d="M37.25,38.92s0-.05-.02-.07c.09-.14.15-.31.31-.43-.03.22-.17.37-.29.5Z"/>
  <path class="st35" d="M31.02,28.29c.17-.1.33-.16.53-.08-.18.05-.35.11-.53.08Z"/>
  <path class="st5" d="M56.85,4.2s.06.01.07.01c-.05.16-.14.32-.24.46-.03-.24.13-.32.17-.47Z"/>
  <path class="st1" d="M70.82,27.95c-.18-.03-.34.04-.48-.04.17-.02.37-.09.48.04Z"/>
  <path class="st31" d="M51.57,67.52c-.28.65-.77,1.18-1.32,1.6-.56.25-1.18.27-1.73-.06-.43-.26-.84-.77-.86-1.36-.05-1.22,1.07-2.76,2.11-3.36.17-.1.41-.12.56.08-1.33.53-2.03,2.03-1.55,3.37.09.25.34.42.54.46.25.05.52-.01.65-.26.11-.2.11-.43.19-.65-.18-.13-.34-.22-.51-.38.05-.75.74-1.32,1.49-1.28s.51,1.4.45,1.84h-.02Z"/>
  <path class="st4" d="M50.25,69.12s.04-.1.08-.15c.47-.46.83-.98,1.24-1.45-.1.77-.64,1.35-1.32,1.6Z"/>
  <path class="st19" d="M61.35,14.52c0-.06.06-.11.18-.14.4-.2.72-.91.48-1.53.54.45.86,1.13.83,1.82-.02.41-.22.75-.58.9-.71.29-.55,1-1.8,1.09s-1.63-.32-1.93.28c-.81,1.59-3.15-1.92-3.78-.96-.14.21-.17.53-.05.75.48.93,1.01,1.71.87,2.87-.06.5-.41.83-.93.83-.65-.01-1.18-.34-1.78-.77-.14,1.12-.31,2.15-.58,3.22,1.09.29,2.06.63,3.09,1.06-.07-.7-.11-1.32.17-1.89.25-.5.73-.67,1.23-.46.93.4,1.45,1.14,1.96,2.01.18.31.53.55.9.42.68-.24-.16-2.41.17-3.32.1-.29.44-.43.73-.42.66.02.47-.5,1.18-1.56s1.17-.51,1.88-1.06c.82-.64,2.13.68,2.21,1.58-.4-.5-1.18-.61-1.55-.32-.09.09-.17.11-.24.07-.88.46-1.05,3.27.37,3.7.58.17,1.08-.14,1.26-.69.11-.33.04-.63-.17-.89s-.49-.38-.88-.37c.3-.35.78-.31,1.1-.05.9.72,1.07,1.93.6,2.96-.42.91-1.35,1.31-2.32.96-1.41-.5-2.32-2.2-1.95-3.65-1.22,1.35-.95,5.18,1.15,5.66,1.13.26,2.28-.19,2.95-1.16.73.22.96,3.1.4,3.33-.06.03-.11-.14-.11-.2-.02-.48-.23-.9-.61-1.19-.28-.21-.64-.16-.89.12-.31.34-.35.91-.14,1.32.15.3.4.44.75.48-.9.33-1.68.44-2.46-.27-.39-.35-.55-.81-.87-1.31-.27.85.24,1.7.98,2.09.42.22.85.27,1.33.34-.64.16-1.27.08-1.87-.27-1.9-1.1-3.88-3.26-4.71-5.3-.15-.37-.46-.7-.9-.6-.65.15.47,1.68.66,1.98.1.16.22.3.2.5-.29.02-.55-.11-.8-.26-1.15-.7-2.2-1.49-3.28-2.29-.49-.36-.95-.69-1.53-.89l-.17.32c-.05-.14.06-.28,0-.38-.07-.09-.21-.09-.29-.18.1-.03.2.03.33,0,.11-.61.04-1.19-.04-1.8-.18-1.32-.36-2.61-.41-3.94,0-.3,0-.6.16-.84.44.23.99,2.18,1.64,2.03.4-.09.27-.81.23-.87-.76-.95-1.33-1.98-1.75-3.14-.48-1.3-1.38-4.4-.2-5.45l-.22.83c-.25.94.31,1.96,1.29,2.25-.06-.34-.3-.5-.43-.76-.59-1.18-.39-2.04.64-2.87-.16.59.14,1.05.67,1.27.4.17,1,.13,1.15-.35.16-.51-.21-1.06-.61-1.34-.11-.08-.2-.11-.25-.26.52-.36,2.87,1.2,2.76,1.96-1.14.12-2.08.85-2.43,1.93-.7,2.14,2.61,4.28,4.43,3.84-1.62-.31-2.84-2.42-2.13-4.01.3-.69.95-1.04,1.7-1.02,1.16.04,2.17.79,2.38,1.94.08.42-.13.89-.57.95.34-.54.15-1.27-.44-1.48-.32-.11-.66-.09-.94.08-.6.38-.59,1.3-.05,1.86s1.25.93,2.02,1.02c.23.03.5,0,.65-.15l-.04.04Z"/>
  <path class="st19" d="M63.26,31.71c.02.06,0,.09-.07.07-.22-.29-.46-.53-.77-.71-.71-.42-1.67-.4-2.28.23.35.09.64-.04.96-.01,1.36.13,1.91.81,2.09,2.04-.36-.5-.98-.46-1.44-.11-.36.26-.63.82-.27,1.19.38.4,1.06.34,1.51.11.09-.04.24-.12.28-.04.06.63-2.55,1.88-3.07,1.37.48-1.08.28-2.3-.52-3.13-1.35-1.4-4.13-.12-5.12,1.26-.15.21-.31.42-.31.69.19-.21.36-.39.61-.52,1.27-.62,2.93-.5,3.83.62.5.61.51,1.39.1,2.06-.6.97-1.74,1.48-2.84,1.12-.43-.14-.74-.55-.58-.98.19.33.44.49.69.54.35.07.63,0,.87-.23.45-.45.46-1.12-.05-1.54-.93-.75-2.46.15-3.08.97-.18.23-.29.49-.21.75.12-.12.08-.28.18-.41-.07.66-.34.5.09,1.19.2.33.49.47.91.52-.69.26-1.46.2-2.07-.2-.35-.23-.53-.57-.47-.97.11-.71-.59-.94-.05-2.08s1.08-1.25.71-1.82c-.95-1.49,3.25-1.76,2.72-2.8-.46-.89-2.01.07-3.56-1.11-.41-.32-.49-.81-.19-1.26.34-.54.9-.79,1.52-1.12-.91-.67-1.69-1.32-2.49-2.09-.78.74-1.55,1.44-2.47,2.14.66.32,1.23.59,1.57,1.14.27.44.18.9-.21,1.21-.79.63-1.74.72-2.73.73-.34,0-.68.13-.82.47-.43,1.02,3.7,1.23,2.78,2.72-.36.59.19.67.77,1.86.51,1.05-.15,1.34-.04,2.01.07.43-.13.79-.51,1.03-.59.38-1.34.42-2,.2.63-.1.95-.47,1.1-.99-.02-.15,0-.25.06-.31.03-.31-.06-.55-.25-.79-.66-.81-2.2-1.68-3.1-.9-.47.41-.47,1.05-.05,1.49.25.26.55.35.94.25.24-.06.49-.23.65-.55.17.43-.13.83-.53.98-1.07.39-2.18-.06-2.83-.97-.58-.82-.46-1.81.31-2.48,1.14-.99,3.09-.93,4.14.12-.22-.71-.75-1.17-1.31-1.57-1.14-.81-3.11-1.43-4.19-.24-.77.86-.94,2.06-.44,3.12-.73.39-2.15-.4-2.72-.8-.16-.11-.34-.29-.37-.51,0-.09.17-.05.24,0,.47.24,1.17.3,1.55-.12.34-.37.07-.91-.27-1.17-.44-.33-1.21-.44-1.38.04-.07.08-.09.05-.06-.06.24-1.26.8-1.81,2.08-1.94.3-.03.6.12.91-.02-.7-.64-1.69-.6-2.41-.09-.3.21-.48.49-.77.76.29-1.56,3.46-2.38,4.77-2.63,1.2-.23,2.38-.27,3.58-.11.1.01.8-.24.63-.69-.21-.53-2.15-.07-2.58-.3.15-.27.39-.43.65-.58,1.17-.64,2.36-1.15,3.59-1.67.58-.25,1.12-.49,1.57-.9-.05-.1-.16-.15-.17-.28l.28.16c.1.06.19-.14.32-.17,0,.1-.09.16-.17.28.46.41,1,.64,1.58.88,1.23.51,2.44.99,3.61,1.61.26.14.51.29.67.56-.35.26-2.46-.21-2.58.39-.09.47.59.65.65.64,1.23-.18,2.44-.16,3.68.07,1.3.24,2.56.61,3.69,1.27.45.26.8.63.96,1.08v.04Z"/>
  <path class="st19" d="M37.66,30.46c-.07-.03-.03-.07.12-.12.35-.05.71-.15,1.04-.35.67-.42,1.11-1.24.84-2.05-.3.48-.45.94-.81,1.3-.74.72-1.55.69-2.44.35.63-.1.89-.65.81-1.24-.06-.43-.41-.92-.9-.79s-.77.67-.83,1.13c-.02.16,0,.27-.1.41-.58-.27-.4-3.14.33-3.37.68.94,1.8,1.37,2.9,1.13,2.16-.47,2.37-4.36,1.12-5.7.4,1.45-.49,3.16-1.9,3.69-.97.36-1.91-.04-2.33-.96-.46-1-.31-2.17.54-2.91.33-.28.82-.34,1.12,0-.38.02-.64.13-.84.37s-.3.52-.21.84c.17.63.77.97,1.39.71,1.36-.57,1.04-3.43.12-3.71-.04.05-.11.03-.19-.07-.41-.21-1.11-.11-1.51.38.13-.72.56-1.31,1.16-1.63.38-.2.77-.19,1.1.07.7.54,1.41-.34,2.47,2.22.24.57,1.04.03,1.29.74.32.92-.45,3.04.21,3.29.35.13.71-.12.89-.42.5-.87,1.01-1.64,1.95-2.06.48-.22.96-.06,1.22.42.3.56.27,1.18.22,1.9,1.03-.44,1.99-.81,3.07-1.11-.26-1.06-.48-2.07-.62-3.22-.57.4-1.07.75-1.71.79-.55.04-.94-.27-1.02-.8-.27-2,1.43-2.91.71-3.69s-2.9,2.63-3.72,1.07c-.32-.6-.69-.14-1.98-.24-1.21-.1-1.07-.8-1.75-1.05-.38-.14-.59-.48-.62-.89-.04-.7.26-1.37.81-1.87-.1.38-.15.7.05,1.03.1.17.17.37.37.45.12.05.18.11.18.19.82.46,2.12-.26,2.74-.92.31-.33.45-.78.36-1.21-.14-.61-.7-.89-1.29-.74-.31.08-.51.3-.6.52-.15.36-.1.65.08,1-.43-.07-.65-.51-.58-.93.18-1.12,1.12-1.87,2.22-1.98,1.01-.11,1.82.49,2.01,1.5.29,1.48-.75,3.19-2.21,3.53.74.17,1.42-.06,2.06-.35,1.27-.58,2.8-2,2.28-3.53-.36-1.07-1.31-1.81-2.46-1.9-.17-.73,2.14-2.34,2.69-2.02.06.07-.08.18-.17.24-.43.29-.81.86-.63,1.39.16.48.76.5,1.16.33.54-.23.84-.74.64-1.3.93.72,1.23,1.46.84,2.57-.13.38-.41.63-.58,1.04.89-.21,1.37-1.09,1.32-1.95-.02-.39-.18-.7-.27-1.1,1.21,1.02.3,4.27-.16,5.54-.4,1.11-.94,2.11-1.65,3.04-.08.1-.15.79.22.88.63.15,1.14-1.69,1.59-2.07.18.22.2.5.2.78-.02,1.35-.18,2.66-.34,4-.07.63-.14,1.22,0,1.82.14,0,.24-.07.32.02-.1.08-.23.06-.27.15-.05.1-.02.21,0,.41-.11-.07-.09-.21-.18-.35-.57.2-1.04.54-1.52.92-1.04.8-2.05,1.59-3.15,2.29-.27.17-.54.33-.89.34,0-.52,1.37-1.95.96-2.43-.27-.31-.84.11-.89.24-.45,1.13-1.06,2.14-1.85,3.08-.85,1.01-1.79,1.91-2.92,2.58-.49.29-1,.41-1.59.34h-.04Z"/>
  <path class="st22" d="M48.39,37.53c0,.11-.02.18-.06.31l-.17-.86.23.55Z"/>
  <path class="st12" d="M37.6,19.19l.3.41c-.19-.12-.36-.3-.48-.48.08.04.15.06.19.07h0Z"/>
  <path class="st2" d="M64.22,18.94c-.1.16-.25.29-.41.43-.03-.17.12-.2.2-.3.05-.05.03-.08-.03-.07.09-.08.17-.07.24-.07h0Z"/>
  <path class="st38" d="M40.6,14.63c.05.08,0,.1-.12.06-.09-.03-.27-.09-.3,0-.11-.05-.14-.14-.18-.19.2.05.39.13.6.12h0Z"/>
  <path class="st18" d="M61.52,14.38c-.07.03-.1.16-.18.14-.06,0-.12-.01-.18-.01-.05.03-.07,0-.06-.06,0,0,.42-.07.42-.07Z"/>
  <path class="st16" d="M37.78,30.34l-.12.12c-.09-.01-.18.03-.31-.03.13-.05.25-.06.43-.09Z"/>
  <path class="st3" d="M61.1,14.45s.04.04.06.06c-.08.07-.21.09-.3.03.11-.04.17-.08.24-.09Z"/>
  <path class="st25" d="M38.8,33.44l-.09.26c-.07-.1-.04-.23.03-.31l.06.06h0Z"/>
  <path class="st37" d="M38.72,34.05c-.09-.02-.14-.14-.09-.22.05,0,.14.07.09.22Z"/>
  <path class="st33" d="M63.19,31.78s.05-.04.07-.07c.03.1.17.12.1.25-.08-.06-.12-.12-.17-.19h0Z"/>
  <path class="st32" d="M40.48,14.69s.1-.01.12-.06l.19.08c-.11.11-.21,0-.31-.02Z"/>
</svg>