<svg width="290" height="191" viewBox="0 0 290 191" fill="none" xmlns="http://www.w3.org/2000/svg">
<path d="M38.3489 189.6C30.3974 190.687 23.1599 185.724 22.18 178.512L0.893277 21.8457C-0.0884883 14.6201 5.56283 7.9094 13.5143 6.82257C21.4811 5.73367 28.7015 10.685 29.6833 17.9106L31.4572 30.9662L45.2057 29.087L59.8905 30.0655L72.7028 25.3287L89.8853 20.4922L101.608 23.8659L113.875 23.1844L126.827 15.4429L141.446 15.9329C142.675 18.0313 146.795 16.6849 150.915 15.3385C152.385 14.8581 153.855 14.3777 155.194 14.0537L162.666 17.5109L168.943 12.1746L182.831 7.29071L188.014 12.0558L196.44 8.41624L210.461 4.50943L224.401 8.0776L237.685 2.77874L251.434 0.899585C259.4 -0.18928 266.621 4.76205 267.603 11.9877L288.89 168.654C289.869 175.866 284.235 182.588 276.268 183.677C268.317 184.764 261.079 179.801 260.099 172.589L258.326 159.534L244.245 158.97L232.376 162.583L225.575 160.029L217.412 167.614L199.772 165.049L187.896 172.643L175.834 170.809L169.033 168.255L162.086 172.688L148.065 176.595L128.206 173.835L120.84 178.325L113.421 183.32L107.092 180.204L93.137 184.6L86.2068 179.078L79.2626 181.52L65.8459 185.842L52.0974 187.721L38.3489 189.6Z" fill="url(#paint0_linear_18_1240)" stroke="#A27161" stroke-width="1.5" stroke-linejoin="round"/>
<path d="M50.9699 174.577L31.457 30.9662" stroke="#A27161" stroke-width="1.5" stroke-linejoin="round"/>
<path opacity="0.75" fill-rule="evenodd" clip-rule="evenodd" d="M260.099 172.589C261.079 179.8 268.317 184.764 276.268 183.677C284.235 182.588 289.869 175.865 288.889 168.654C287.908 161.428 280.687 156.477 272.721 157.566L274.494 170.621C274.003 167.002 270.392 164.526 266.417 165.069C262.441 165.613 259.608 168.969 260.099 172.589Z" fill="#B28271"/>
<path d="M288.889 168.654C287.908 161.428 280.687 156.477 272.72 157.566L258.325 159.533" stroke="#A27161" stroke-width="1.5" stroke-linejoin="round"/>
<path d="M260.099 172.589C259.608 168.969 262.441 165.613 266.417 165.069C270.392 164.526 274.003 167.002 274.494 170.621L272.721 157.566" stroke="#A27161" stroke-width="1.5" stroke-linejoin="round"/>
<path opacity="0.75" fill-rule="evenodd" clip-rule="evenodd" d="M34.801 163.489C42.7602 162.401 49.9891 167.359 50.97 174.577C51.4599 178.183 48.6428 181.544 44.6594 182.089C40.6837 182.632 37.0649 180.151 36.5749 176.545L34.801 163.489Z" fill="#BC937F"/>
<path d="M22.1797 178.512C21.1989 171.294 26.8493 164.576 34.8008 163.489M34.8008 163.489C42.7599 162.401 49.9889 167.359 50.9697 174.577C51.4596 178.183 48.6425 181.544 44.6591 182.089C40.6834 182.632 37.0646 180.151 36.5747 176.545L34.8008 163.489Z" stroke="#A27161" stroke-width="1.5" stroke-linejoin="round"/>
<path opacity="0.446" d="M10.0974 96.9329C13.6795 122.374 16.9078 147.878 20.9511 173.246C22.3928 173.9 22.6426 171.349 23.4527 170.665C25.8159 166.679 30.2527 164.076 35.1037 163.632C40.1391 163.087 44.9227 165.52 48.1569 168.825C50.0768 170.003 48.9335 166.6 48.9767 165.79C42.774 115.437 35.6841 65.1378 29.1594 14.8673C27.6717 15.0463 27.5148 13.1349 27.7362 12.0335C26.8982 11.8752 26.9641 12.1554 26.8479 11.2219C25.4593 11.4697 25.1192 9.92188 24.378 9.1522C23.0568 9.35155 23.1621 7.2531 21.6054 8.02961C21.9338 6.38225 18.0799 8.19217 18.1961 6.36332C16.2132 6.4544 13.7551 6.94551 11.5443 6.91388C9.99484 6.81182 9.86169 8.02674 8.3939 8.21721C7.00872 8.96258 5.53951 10.0137 4.0691 10.1796C4.65777 11.4424 3.24721 11.0098 2.72108 11.7352C3.58346 13.3465 0.273139 13.4809 1.22959 15.1414C-0.0882166 15.0188 1.17629 16.3246 0.20033 16.5853C0.492119 17.444 0.435785 17.744 0 18.435C0.545144 20.7902 -0.0605239 22.889 0.562105 25.3371C3.56555 49.2253 6.8591 73.0761 10.0974 96.9329ZM0.329177 20.9207C0.782876 20.7811 0.381963 20.7945 0.329177 20.9207Z" fill="url(#paint1_linear_18_1240)"/>
<defs>
<linearGradient id="paint0_linear_18_1240" x1="276.001" y1="80.1729" x2="13.0087" y2="112.631" gradientUnits="userSpaceOnUse">
<stop stop-color="#D9C6A8"/>
<stop offset="0.166667" stop-color="#D9C6A8"/>
<stop offset="0.333333" stop-color="#EAD2AB"/>
<stop offset="0.5" stop-color="#F2DEC1"/>
<stop offset="0.666667" stop-color="#F2DEC1"/>
<stop offset="0.833333" stop-color="#EAD2AB"/>
<stop offset="1" stop-color="#EAD2AB"/>
</linearGradient>
<linearGradient id="paint1_linear_18_1240" x1="40.8257" y1="98.9944" x2="9.61921" y2="103.235" gradientUnits="userSpaceOnUse">
<stop stop-color="#D3B292"/>
<stop offset="1" stop-color="#B28271" stop-opacity="0"/>
</linearGradient>
</defs>
</svg>
