<svg width="467" height="268" viewBox="0 0 467 268" fill="none" xmlns="http://www.w3.org/2000/svg">
<path d="M91 54.5L54 91.5V175.5L91 212.5H376L413 175.5V91.5L376 54.5H91Z" fill="#EC94FF"/>
<path d="M54 91.5L39 86V133.25V180.5L54 175.5V91.5Z" fill="#FFE3FB"/>
<path d="M413 175.5L428 181V133.75V86.5L413 91.5V175.5Z" fill="#B131BE"/>
<path d="M54 175.5L39 180.5L86 227.5L91 212.5L54 175.5Z" fill="#6A399F"/>
<path d="M54 91.5L39 86L85.5 39.5L91 54.5L54 91.5Z" fill="#9B08B9"/>
<path d="M413 175.5L428 181L380.5 227.5L376 212.5L413 175.5Z" fill="#FFE1FF"/>
<path d="M413 91.5L428.5 86.5L381.5 39.5L376 54.5L413 91.5Z" fill="#A84AE9"/>
<path d="M91 212.5L86 227.5H380.5L376 212.5H91Z" fill="#FCC3FF"/>
<path d="M85.5 39.5L91 54.5H233.5H304.75H376L381.5 39.5H85.5Z" fill="#FEC3FC"/>
<path d="M380.5 227.5H86L78.5 252.5H388.5L380.5 227.5Z" fill="#A146D2"/>
<path d="M381.5 39.5H85.5L78 14.5H389.5L381.5 39.5Z" fill="#EE95FF"/>
<path d="M453 191L428 181V86.5L453 79.5V191Z" fill="#A845DE"/>
<path d="M14 191L39 181V86L14 79V191Z" fill="#C062E6"/>
<path d="M85.5 39.5L39 86L14 79L78 14.5L85.5 39.5Z" fill="#E98EFC"/>
<path d="M86 227.5L39 180.5L13.5 191L78.5 252.5L86 227.5Z" fill="#BF60D8"/>
<path d="M381.5 39.5L428.5 86.5L453 79.5L389.5 14.5L381.5 39.5Z" fill="#CB7BFD"/>
<path d="M380.5 227.5L428 181L453 191L388.5 252.5L380.5 227.5Z" fill="#C65AEA"/>
<path d="M75 264L79 252.5H388.5L392.5 264H75Z" fill="#EB95FF"/>
<path d="M392.5 264L388.5 252.5L453 191L463 196.5L392.5 264Z" fill="#A70DC0"/>
<path d="M463 196.5L453 191V79L463 75.5V196.5Z" fill="#ED95FE"/>
<path d="M75 264L78.5 252.5H388.5L392.5 264H75Z" fill="#EB95FF"/>
<path d="M392.5 264L388.5 252.5L453 191L463 196.5L392.5 264Z" fill="#A70DC0"/>
<path d="M393.5 3.5L389.5 15L453 79.5L463 75.5L393.5 3.5Z" fill="#FEC5FC"/>
<path d="M463 196.5L453 191V79.5L463 75.5V196.5Z" fill="#ED95FE"/>
<path d="M393.5 3.5L389.5 15L77.5 14.5L75 3.5H393.5Z" fill="#C266EB"/>
<path d="M75 3.5L78 14.5L14 79L3.5 74.5L75 3.5Z" fill="#AA44D9"/>
<path d="M75 264L78.5 252.5L14 191L3.5 195.5L75 264Z" fill="#FFC2FB"/>
<path d="M3.5 74.5L14 79V191L3.5 195.5V74.5Z" fill="#B131C0"/>
<path d="M3.5 75V195L75 264H392.5L463 196.5V75.5L393.5 3.5H75L3.5 75Z" stroke="black" stroke-width="7"/>
<path d="M93.9952 158.759C72.2061 157.436 63.5175 134.165 61.8968 122.696C59.6403 134.057 49.67 156.808 27.841 156.917C49.6302 158.241 58.3188 181.511 59.9395 192.981C62.196 181.619 72.1662 158.868 93.9952 158.759Z" fill="white" fill-opacity="0.36" stroke="white" stroke-opacity="0.33"/>
<path d="M382.352 191.695C382.683 207.68 368.228 215.241 360.959 217.024C368.368 218.079 383.501 224.173 384.752 240.112C384.422 224.127 398.877 216.566 406.146 214.783C398.736 213.728 383.604 207.634 382.352 191.695Z" fill="white" fill-opacity="0.36" stroke="white" stroke-opacity="0.33"/>
<path d="M389.34 61.5587C367.558 60.1303 358.981 36.8184 357.416 25.341C355.104 36.6918 345.025 59.3944 323.196 59.3983C344.978 60.8267 353.555 84.1386 355.12 95.616C357.431 84.2652 367.511 61.5627 389.34 61.5587Z" fill="white" fill-opacity="0.36" stroke="white" stroke-opacity="0.33"/>
<path d="M355.716 35.1085C339.729 35.1903 332.393 20.6189 330.724 13.323C329.554 20.7154 323.224 35.751 307.268 36.7545C323.256 36.6727 330.591 51.2441 332.26 58.54C333.431 51.1476 339.76 36.112 355.716 35.1085Z" fill="white" fill-opacity="0.36" stroke="white" stroke-opacity="0.33"/>
</svg>
