<svg width="574" height="268" viewBox="0 0 574 268" fill="none" xmlns="http://www.w3.org/2000/svg">
<path d="M54 91.5L39 86V133.25V180.5L54 175.5V91.5Z" fill="#FFE3FB"/>
<path d="M519 175.5L534 181V133.75V86.5L519 91.5V175.5Z" fill="#B131BE"/>
<path d="M54 175.5L39 180.5L86 227.5L91 212.5L54 175.5Z" fill="#6A399F"/>
<path d="M54 91.5L39 86L85.5 39.5L91 54.5L54 91.5Z" fill="#9B08B9"/>
<path d="M519 175.5L534 181L486.5 227.5L482 212.5L519 175.5Z" fill="#FFE1FF"/>
<path d="M519 91.5L534.5 86.5L487.5 39.5L482 54.5L519 91.5Z" fill="#A84AE9"/>
<path d="M559 191L534 181V86.5L559 79.5V191Z" fill="#A845DE"/>
<path d="M14 191L39 181V86L14 79V191Z" fill="#C062E6"/>
<path d="M85.5 39.5L39 86L14 79L78 14.5L85.5 39.5Z" fill="#E98EFC"/>
<path d="M86 227.5L39 180.5L13.5 191L78.5 252.5L86 227.5Z" fill="#BF60D8"/>
<path d="M487.5 39.5L534.5 86.5L559 79.5L495.5 14.5L487.5 39.5Z" fill="#CB7BFD"/>
<path d="M486.5 227.5L534 181L559 191L494.5 252.5L486.5 227.5Z" fill="#C65AEA"/>
<path d="M498.5 264L494.5 252.5L559 191L569 196.5L498.5 264Z" fill="#A70DC0"/>
<path d="M499.5 3.5L495.5 15L559 79.5L569 75.5L499.5 3.5Z" fill="#FEC5FC"/>
<path d="M569 196.5L559 191V79.5L569 75.5V196.5Z" fill="#ED95FE"/>
<path d="M90.5 54.5L53.5 91.5V175.5L90.5 212.5H233H304.25H482L519 175.5V91.5L482 54.5H304.25H233H90.5Z" fill="#EC94FF"/>
<path d="M90.5 212.5L85.5 227.5H232.75H306.375H486.5L482 212.5H304.25H233H90.5Z" fill="#FCC3FF"/>
<path d="M85 39.5L90.5 54.5H233H410.75H482L487.5 39.5H413.5H233H85Z" fill="#FEC3FC"/>
<path d="M494.5 252.5L486.5 227.5H306.375H232.75H85.5L78 252.5H233H310.5H494.5Z" fill="#A146D2"/>
<path d="M495.5 14.5L487.5 39.5H413.5H233H85L77.5 14.5H233.25H417.625H495.5Z" fill="#EE95FF"/>
<path d="M74.5 264L78 252.5H233H310.5H494.5L498.5 264H312.625H233.25H74.5Z" fill="#EB95FF"/>
<path d="M499.625 3.5L495.625 15L417.625 14.875L233 14.75L77 14.5L74.5 3.5H233.75H420H499.625Z" fill="#C266EB"/>
<path d="M75 3.5L78 14.5L14 79L3.5 74.5L75 3.5Z" fill="#AA44D9"/>
<path d="M75 264L78.5 252.5L14 191L3.5 195.5L75 264Z" fill="#FFC2FB"/>
<path d="M3.5 74.5L14 79V191L3.5 195.5V74.5Z" fill="#B131C0"/>
<path d="M3.5 75V195L75 264H499L569.5 196.5L568.5 75.5L499 3.5H75L3.5 75Z" stroke="black" stroke-width="7"/>
<path d="M87.6329 176.485C65.8438 175.161 57.1552 151.891 55.5345 140.421C53.278 151.783 43.3077 174.534 21.4787 174.643C43.2678 175.966 51.9565 199.237 53.5772 210.706C55.8337 199.345 65.8039 176.594 87.6329 176.485Z" fill="white" fill-opacity="0.36" stroke="white" stroke-opacity="0.33"/>
<path d="M493.094 193.62C493.425 209.604 478.969 217.166 471.7 218.949C479.11 220.003 494.242 226.098 495.494 242.037C495.163 226.052 509.619 218.491 516.888 216.708C509.478 215.653 494.346 209.559 493.094 193.62Z" fill="white" fill-opacity="0.36" stroke="white" stroke-opacity="0.33"/>
<path d="M509.792 47.7979C488.01 46.3695 479.433 23.0576 477.868 11.5802C475.557 22.931 465.477 45.6335 443.648 45.6375C465.43 47.0659 474.007 70.3778 475.572 81.8552C477.883 70.5044 487.963 47.8019 509.792 47.7979Z" fill="white" fill-opacity="0.36" stroke="white" stroke-opacity="0.33"/>
<path d="M463.716 35.1085C447.729 35.1903 440.393 20.6189 438.724 13.323C437.554 20.7154 431.224 35.7511 415.268 36.7545C431.256 36.6727 438.591 51.2441 440.26 58.54C441.431 51.1476 447.76 36.1119 463.716 35.1085Z" fill="white" fill-opacity="0.36" stroke="white" stroke-opacity="0.33"/>
</svg>
