<svg width="207" height="60" viewBox="0 0 207 60" fill="none" xmlns="http://www.w3.org/2000/svg">
<path d="M31 8.09762C56 -0.402374 153 -1.76703 176.5 8.73297V11.5976C181.333 12.5525 193.4 13.8893 203 11.5976C200.2 16.3976 193.5 34 188.5 37C191.5 42.5 197.667 56.4453 203 58.4453C185 59.2453 154.667 57.7473 147 54.5807V49.6772C105.575 46.2942 102.111 46.2961 60.5 49.6772V53.9453C47 57.9453 31 58.9453 5 57.9453C9 55.9453 16.5 41.5 19 36.5C16.1667 34 9.2 19.3976 4 10.5976C16.5 13.5976 26.1667 11.9309 31 10.5976V8.09762Z" fill="url(#paint0_linear_9_22)"/>
<path d="M31 53.9453H60.5M31 53.9453C35.9943 52.2473 46.5757 50.8086 60.5 49.6772M31 53.9453V10.5976M176.5 54.5807H147M176.5 54.5807C171.724 52.4466 161.103 50.8289 147 49.6772M176.5 54.5807V11.5976M147 54.5807V49.6772M147 54.5807C154.667 57.7473 185 59.2453 203 58.4453C197.667 56.4453 191.5 42.5 188.5 37C193.5 34 200.2 16.3976 203 11.5976C193.4 13.8893 181.333 12.5525 176.5 11.5976M147 49.6772C105.575 46.2942 102.111 46.2961 60.5 49.6772M60.5 53.9453V49.6772M60.5 53.9453C47 57.9453 31 58.9453 5 57.9453C9 55.9453 16.5 41.5 19 36.5C16.1667 34 9.2 19.3976 4 10.5976C16.5 13.5976 26.1667 11.9309 31 10.5976M176.5 11.5976V8.73297C153 -1.76703 56 -0.402374 31 8.09762V10.5976" stroke="black" stroke-width="1.5"/>
<path d="M201.5 14.233C191.9 16.5247 181.333 14.6878 176.5 13.733V15.733C188 17.733 189.5 17.733 199.5 16.733L201.5 14.233Z" fill="url(#paint1_linear_9_22)" stroke="black"/>
<path d="M6 14.233C15.6 16.5247 26.1667 14.6878 31 13.733V15.733C19.5 17.733 18 17.733 8 16.733L6 14.233Z" fill="url(#paint2_linear_9_22)" stroke="black"/>
<path d="M176.5 10.6783C153 0.178264 56 1.54292 31 10.0429V12.0429C56 3.54292 153 2.17826 176.5 12.6783V10.6783Z" fill="url(#paint3_linear_9_22)" stroke="black"/>
<path d="M176.5 50.3799C153 39.8799 56 41.3799 31 49.8799V51.8799C56 43.3799 153 41.8799 176.5 52.3799V50.3799Z" fill="url(#paint4_linear_9_22)" stroke="black"/>
<path d="M156 54.3799C167 56.3799 189.5 56.3799 199.5 56.3799L198 54.3799C191.667 54.3799 183 54 175 54C167 54 156 54.3799 156 54.3799Z" fill="url(#paint5_linear_9_22)" stroke="black"/>
<path d="M51 54C41.5 55.4744 19 56.5 8 55.4744L10 53.4744C17.5 54 27 53.4744 34.5 53.4744C42 53.4744 51 54 51 54Z" fill="url(#paint6_linear_9_22)" stroke="black"/>
<defs>
<linearGradient id="paint0_linear_9_22" x1="4" y1="29.2441" x2="203" y2="29.2441" gradientUnits="userSpaceOnUse">
<stop stop-color="#6A0000"/>
<stop offset="0.163462" stop-color="#990707"/>
<stop offset="0.216346" stop-color="#D14900"/>
<stop offset="0.302885" stop-color="#990707"/>
<stop offset="0.697115" stop-color="#990707"/>
<stop offset="0.778846" stop-color="#D14900"/>
<stop offset="0.822115" stop-color="#990707"/>
<stop offset="1" stop-color="#6A0000"/>
</linearGradient>
<linearGradient id="paint1_linear_9_22" x1="176.5" y1="15.4191" x2="201.5" y2="15.4191" gradientUnits="userSpaceOnUse">
<stop stop-color="#DD8501"/>
<stop offset="1" stop-color="#774801"/>
</linearGradient>
<linearGradient id="paint2_linear_9_22" x1="31" y1="15.4191" x2="6" y2="15.4191" gradientUnits="userSpaceOnUse">
<stop stop-color="#DD8501"/>
<stop offset="1" stop-color="#774801"/>
</linearGradient>
<linearGradient id="paint3_linear_9_22" x1="31" y1="7.95561" x2="176.5" y2="7.95561" gradientUnits="userSpaceOnUse">
<stop stop-color="#DD8500"/>
<stop offset="0.5" stop-color="#E3A700"/>
<stop offset="1" stop-color="#DD8500"/>
</linearGradient>
<linearGradient id="paint4_linear_9_22" x1="31" y1="48.1026" x2="176.5" y2="48.1026" gradientUnits="userSpaceOnUse">
<stop stop-color="#DD8500"/>
<stop offset="0.5" stop-color="#E3A700"/>
<stop offset="1" stop-color="#DD8500"/>
</linearGradient>
<linearGradient id="paint5_linear_9_22" x1="157.5" y1="55.3799" x2="199.5" y2="55.3799" gradientUnits="userSpaceOnUse">
<stop stop-color="#DD8501"/>
<stop offset="1" stop-color="#804D01"/>
</linearGradient>
<linearGradient id="paint6_linear_9_22" x1="50" y1="54.4744" x2="8" y2="54.4744" gradientUnits="userSpaceOnUse">
<stop stop-color="#DD8501"/>
<stop offset="1" stop-color="#804D01"/>
</linearGradient>
</defs>
</svg>
