<svg width="257" height="77" viewBox="0 0 257 77" fill="none" xmlns="http://www.w3.org/2000/svg">
<rect x="9.5" y="9.5" width="238" height="58" fill="#E9CCE1" fill-opacity="0.8"/>
<rect x="9.5" y="53.5" width="7" height="7" fill="black"/>
<rect x="16.5" y="60.5" width="7" height="7" fill="black"/>
<rect x="23.5" y="67.5" width="210" height="7" fill="black"/>
<rect width="7" height="7" transform="matrix(1 0 0 -1 9.5 23.5)" fill="black"/>
<rect width="7" height="7" transform="matrix(1 0 0 -1 16.5 16.5)" fill="black"/>
<rect width="7" height="7" transform="matrix(1 0 0 -1 233.5 16.5)" fill="black"/>
<rect width="7" height="7" transform="matrix(1 0 0 -1 240.5 23.5)" fill="black"/>
<rect width="7" height="30" transform="matrix(1 0 0 -1 247.5 53.5)" fill="black"/>
<rect width="7" height="30" transform="matrix(1 0 0 -1 2.5 53.5)" fill="black"/>
<rect x="233.5" y="60.5" width="7" height="7" fill="black"/>
<rect x="240.5" y="53.5" width="7" height="7" fill="black"/>
<rect width="210" height="7" transform="matrix(1 0 0 -1 23.5 9.5)" fill="black"/>
<rect width="7" height="7" transform="matrix(1 0 0 -1 16.5 9.5)" fill="#FFC551"/>
<rect width="7" height="7" transform="matrix(1 0 0 -1 9.5 9.5)" fill="#FFC551"/>
<rect width="7" height="7" transform="matrix(1 0 0 -1 2.5 9.5)" fill="#FFC551"/>
<rect width="7" height="7" transform="matrix(1 0 0 -1 2.5 16.5)" fill="#FFC551"/>
<rect width="7" height="7" transform="matrix(1 0 0 -1 2.5 23.5)" fill="#FFC551"/>
<rect x="16.5" y="67.5" width="7" height="7" fill="#FFC551"/>
<rect x="9.5" y="67.5" width="7" height="7" fill="#FFC551"/>
<rect x="2.5" y="67.5" width="7" height="7" fill="#FFC551"/>
<rect x="2.5" y="60.5" width="7" height="7" fill="#FFC551"/>
<rect x="2.5" y="53.5" width="7" height="7" fill="#FFC551"/>
<rect x="240.5" y="9.5" width="7" height="7" transform="rotate(180 240.5 9.5)" fill="#FFC551"/>
<rect x="247.5" y="9.5" width="7" height="7" transform="rotate(180 247.5 9.5)" fill="#FFC551"/>
<rect x="254.5" y="9.5" width="7" height="7" transform="rotate(180 254.5 9.5)" fill="#FFC551"/>
<rect x="254.5" y="16.5" width="7" height="7" transform="rotate(180 254.5 16.5)" fill="#FFC551"/>
<rect x="254.5" y="23.5" width="7" height="7" transform="rotate(180 254.5 23.5)" fill="#FFC551"/>
<rect width="7" height="7" transform="matrix(-1 0 0 1 240.5 67.5)" fill="#FFC551"/>
<rect width="7" height="7" transform="matrix(-1 0 0 1 247.5 67.5)" fill="#FFC551"/>
<rect width="7" height="7" transform="matrix(-1 0 0 1 254.5 67.5)" fill="#FFC551"/>
<rect width="7" height="7" transform="matrix(-1 0 0 1 254.5 60.5)" fill="#FFC551"/>
<rect width="7" height="7" transform="matrix(-1 0 0 1 254.5 53.5)" fill="#FFC551"/>
<path d="M24.5 0.5L23.5 2.5H2.5V23.5L0.5 24.5V0.5H24.5Z" fill="black" stroke="black"/>
<path d="M232.5 0.5L233.5 2.5H254.5V23.5L256.5 24.5V0.5H232.5Z" fill="black" stroke="black"/>
<path d="M24.5 76.5L23.5 74.5H2.5V53.5L0.5 52.5V76.5H24.5Z" fill="black" stroke="black"/>
<path d="M232.5 76.5L233.5 74.5H254.5V53.5L256.5 52.5V76.5H232.5Z" fill="black" stroke="black"/>
</svg>
