<svg width="252" height="71" viewBox="0 0 252 71" fill="none" xmlns="http://www.w3.org/2000/svg">
<rect x="7" y="7" width="238" height="58" fill="#FFDDB0"/>
<rect x="7" y="54" width="7" height="5" fill="#50350F"/>
<rect x="14" y="59" width="7" height="6" fill="#50350F"/>
<rect x="21" y="65" width="210" height="6" fill="#50350F"/>
<rect width="7" height="7" transform="matrix(1 0 0 -1 7 21)" fill="#50350F"/>
<rect width="7" height="7" transform="matrix(1 0 0 -1 14 14)" fill="#50350F"/>
<rect width="7" height="7" transform="matrix(1 0 0 -1 231 14)" fill="#50350F"/>
<rect width="7" height="7" transform="matrix(1 0 0 -1 238 21)" fill="#50350F"/>
<rect width="7" height="35" transform="matrix(1 0 0 -1 245 54)" fill="#50350F"/>
<rect width="7" height="35" transform="matrix(1 0 0 -1 0 54)" fill="#50350F"/>
<rect width="7" height="35" transform="matrix(1 0 0 -1 238 54)" fill="#FFDDB0"/>
<rect x="231" y="59" width="7" height="6" fill="#50350F"/>
<rect x="238" y="54" width="7" height="5" fill="#50350F"/>
<rect width="210" height="7" transform="matrix(1 0 0 -1 21 7)" fill="#50350F"/>
</svg>
