<svg width="298" height="84" viewBox="0 0 298 84" fill="none" xmlns="http://www.w3.org/2000/svg">
<rect x="21" y="7" width="238" height="70" fill="#FFDDB0"/>
<rect y="35" width="14" height="14" fill="#FFAF2E"/>
<rect x="14" y="49" width="14" height="14" fill="#FFAF2E"/>
<rect x="21" y="63" width="7" height="7" fill="#50350F"/>
<rect x="28" y="70" width="7" height="7" fill="#50350F"/>
<rect x="35" y="77" width="210" height="7" fill="#50350F"/>
<rect width="7" height="7" transform="matrix(1 0 0 -1 21 21)" fill="#50350F"/>
<rect width="7" height="7" transform="matrix(1 0 0 -1 28 14)" fill="#50350F"/>
<rect width="7" height="7" transform="matrix(1 0 0 -1 35 21)" fill="#50350F"/>
<rect x="35" y="63" width="7" height="7" fill="#50350F"/>
<rect width="7" height="7" transform="matrix(1 0 0 -1 245 14)" fill="#50350F"/>
<rect width="7" height="7" transform="matrix(1 0 0 -1 252 21)" fill="#50350F"/>
<rect width="7" height="35" transform="matrix(1 0 0 -1 259 56)" fill="#50350F"/>
<rect width="7" height="42" transform="matrix(1 0 0 -1 252 63)" fill="#FFDDB0"/>
<rect x="245" y="70" width="7" height="7" fill="#50350F"/>
<rect x="252" y="63" width="7" height="7" fill="#50350F"/>
<rect x="259" y="56" width="7" height="7" fill="#50350F"/>
<rect width="210" height="7" transform="matrix(1 0 0 -1 35 7)" fill="#50350F"/>
<rect x="14" y="35" width="14" height="14" fill="#50350F"/>
<rect x="28" y="35" width="14" height="14" fill="#FFAF2E"/>
<rect x="14" y="21" width="14" height="14" fill="#FFAF2E"/>
<rect x="14" y="49" width="14" height="14" fill="#FFAF2E"/>
<rect x="28" y="35" width="14" height="14" fill="#FFAF2E"/>
<rect x="14" y="21" width="14" height="14" fill="#FFAF2E"/>
</svg>
