<?xml version='1.0' encoding='utf-8'?>
<svg xmlns="http://www.w3.org/2000/svg" viewBox="0 0 640 480"> <g fill="#aa7240" stroke="#351901" stroke-width="5"> <path d="m21.836 482.42c-16.812-24.155-22.14-41.688-15.984-53.567 6.192-11.771 22.536-12.601 52.632-16.92 30.348-4.465 86.292-5.473 126.86-9.396 40.32-3.96 79.236-5.651 113.69-14.111 34.345-8.567 64.261-20.557 91.152-36.647 27.576 30.708 33.48 55.08 17.855 74.23-16.056 19.045-69.66 34.345-111.81 39.492-42.266 5.004-100.51-9.792-139.07-9.396-38.448 0.323-67.5 6.804-90.216 11.268-22.716 4.392-37.476 9.36-45.108 15.047z"/> <path d="m91.388 76.482c6.264 7.308 7.2 22.068 2.808 45.108-4.536 23.076-20.772 55.908-29.124 92.088-8.496 36.215-19.8 90.396-20.7 123.08-0.756 32.437 4.428 55.548 15.984 70.451 42.912-2.016 79.848-3.312 112.75-3.743 32.796-0.46899 57.96 4.283 82.691 0.93701 24.59-3.563 42.373-12.384 63.899-21.601 21.492-9.396 50.293-8.964 63.9-33.84 13.283-25.093 7.774-78.156 15.983-114.62 8.173-36.54 29.447-72.252 32.867-102.42 3.205-30.132-1.043-55.404-13.139-77.076-45 3.456-83.773 6.229-118.4 8.46-34.596 2.16-52.235 2.484-87.373 4.716-35.348 2.198-75.236 4.971-122.14 8.462z"/> <path d="m85.736 3.188c35.064 7.56 71.424 11.808 110.88 13.14 39.492 1.116 92.125-5.112 124.02-5.616 31.645-0.612 46.729 0 64.838 2.808 17.963 2.844 31.787 7.488 42.299 14.076-5.436 12.6-12.816 21.853-22.572 28.188-9.756 6.228-12.022 7.416-35.676 9.396-23.977 1.872-72.106 1.08-106.2 1.908-34.129 0.756-65.557 0.216-96.769 2.808-31.248 2.484-60.552 6.552-89.28 12.204-10.872-18.973-15.48-34.669-14.112-47.916 1.439-13.286 8.819-23.437 22.571-30.996z"/> <g stroke-miterlimit="10"> <path d="m301.84 64.926c-43.523 0.864-82.478 2.196-118.8 4.284-36.396 2.052-68.22 4.572-97.416 7.848-8.64-5.04-14.184-11.916-16.776-21.024-2.592-9.18-2.232-24.732 1.08-33.192 3.168-8.495 9.072-14.074 17.856-17.135 36.612 6.516 70.452 10.584 103.46 12.492 32.905 1.764 65.7-0.108 92.413-1.44 26.568-1.404 42.336-7.524 65.627-6.408 23.222 1.152 46.908 5.508 72.435 13.212-16.851-9-34.668-14.544-54.576-16.776-20.018-2.304-37.188 2.448-63.865 3.564-26.854 1.044-58.932 4.536-95.255 2.844-36.468-1.836-76.212-6.048-121.32-13.176-10.26 3.816-17.64 9.504-22.14 17.46-4.536 7.92-5.4 21.456-4.968 29.628 0.36 7.884 2.556 12.42 7.128 18.18 4.464 5.832 10.908 11.124 19.62 16.416 38.592-4.392 72.792-7.38 104.54-9.252 31.716-1.98 64.944-0.504 83.845-1.8 18.573-1.297 27.428-3.205 27.104-5.725z"/> <path d="m362.86 45.667 47.449-7.128c2.16 8.46 2.447 15.3 0.71899 21.06-1.799 5.724-5.291 10.476-11.051 12.852-5.941 2.196-10.873 1.152-23.545 0.36-12.744-0.89999-29.879-2.808-52.092-5.724 26.676 2.916 45.973 4.32 58.858 3.924 12.781-0.468 13.572-1.332 17.496-6.084 3.744-4.86 5.4-12.204 4.97-22.464-12.709 3.06-22.394 4.752-29.593 5.364-7.162 0.504-11.518-0.217-13.211-2.16z"/> <path d="m424.6 40.482c4.031 5.58 5.221 19.152 3.564 41.4-1.802 22.428-8.461 57.312-13.572 91.332-5.185 33.804-13.646 81.576-16.775 110.27-3.133 28.512-3.672 48.132-1.764 59.832 1.799-23.148 3.959-45.181 6.768-67.068 2.699-21.996 5.076-37.512 9.648-63.504 4.57-26.208 14.004-67.968 17.459-91.692 3.24-23.688 3.385-35.712 2.52-49.248-0.97101-13.535-3.455-23.833-7.848-31.321z"/> <path d="m403.18 367.22c5.221 10.044 8.424 19.655 10.008 29.269 1.512 9.576 2.269 20.195-1.08 27.828-3.6 7.344-4.428 9.18-19.979 16.775-15.804 7.668-41.291 24.479-73.15 28.907-32.041 4.141-79.813-2.447-116.68-3.239-36.972-0.86401-72.288-4.571-102.74-1.403-30.384 3.239-56.016 9.827-78.156 20.34 0.396-3.996 5.148-7.92 14.652-11.771 9.36-3.925 19.656-8.748 41.724-11.412 22.248-2.771 60.12-5.437 90.288-4.645 29.916 0.79202 63.719 7.813 88.489 9.252 24.658 1.296 41.219 1.62 58.859-1.404 17.641-3.132 32.651-8.748 46.008-17.136-8.39-0.14398-13.142-6.155-14.256-18.18-1.152-12.204 1.295-29.845 7.487-53.893-1.512 23.615-0.793 40.607 2.16 52.093 2.879 11.194 7.486 15.911 15.336 15.694 7.955-0.323 25.127-8.928 31.392-16.774 6.014-7.956 4.645-19.836 4.645-29.952-0.10901-10.153-1.731-20.089-5.006-30.349z"/> <path d="m369.99 373.66c4.824 1.008 8.64 3.996 11.447 9.252 2.771 5.185 4.5 12.349 5.328 21.78l-26.389 8.928 34.598-5.724c-1.404-11.27-3.996-19.62-8.209-25.345-4.211-5.723-9.756-8.639-16.775-8.891z"/> <path d="m328.99 376.15c-24.121 8.928-48.24 15.155-73.873 19.26-25.74 3.853-51.479 4.104-78.479 4.645s-57.6-2.593-82.08-1.08c-24.552 1.549-48.06 4.283-63.864 10.009-15.876 5.615-27.936 11.34-30.348 23.544-2.341 12.166 2.915 28.185 16.055 48.886-10.908-20.557-13.608-36.216-8.532-47.809 5.184-11.592 15.624-16.487 39.24-21.061 23.616-4.571 71.748-5.867 101.34-6.407 29.412-0.612 50.976 4.428 74.557 2.483 23.543-2.195 47.698-9.504 65.664-14.977 17.748-5.541 30.958-11.193 40.32-17.493z"/> <path d="m50.96 394.08c-2.052-49.393 0.144-92.231 6.588-130.61 6.516-38.376 26.28-69.336 31.932-97.74 5.436-28.476 5.796-51.768 0.936-71.388 0.288 25.92-2.844 51.408-9.396 77.976-6.732 26.568-24.336 57.6-30.06 79.884-5.688 21.996-3.744 27.828-3.744 51.66 0.035999 23.903 1.188 53.423 3.744 90.215z"/> <path d="m352.6 57.69c-3.348-2.664-5.184-6.156-5.652-10.332-0.60998-4.392-0.323-10.008 2.81-15.048 3.203-5.148 8.352-9.936 15.983-15.048-13.5 1.404-21.276 5.436-23.473 12.24-2.232 6.769 1.26 16.02 10.332 28.188z"/> </g> </g> </svg>